999
dxfrw 0.6.3
  0
SECTION
  2
HEADER
  9
$ACADVER
  1
AC1021
  9
$DWGCODEPAGE
  3
ANSI_1252
  9
$INSBASE
 10
0
 20
0
 30
0
  9
$EXTMIN
 10
22.03619056870968
 20
188.2275064883344
 30
0
  9
$EXTMAX
 10
1489.63619056871
 20
1372.019999999997
 30
0
  9
$LIMMIN
 10
0
 20
0
  9
$LIMMAX
 10
420
 20
297
  9
$ORTHOMODE
 70
    0
  9
$REGENMODE
 70
    1
  9
$FILLMODE
 70
    1
  9
$QTEXTMODE
 70
    0
  9
$MIRRTEXT
 70
    1
  9
$LTSCALE
 40
1
  9
$ATTMODE
 70
    1
  9
$TEXTSIZE
 40
2.5
  9
$TRACEWID
 40
1
  9
$TEXTSTYLE
  7
Standard
  9
$CLAYER
  8
0
  9
$CELTYPE
  6
ByLayer
  9
$CECOLOR
 62
  256
  9
$CELTSCALE
 40
1
  9
$DISPSILH
 70
    0
  9
$DIMSCALE
 40
1
  9
$DIMASZ
 40
2.5
  9
$DIMEXO
 40
0.625
  9
$DIMDLI
 40
3.75
  9
$DIMRND
 40
0
  9
$DIMDLE
 40
0
  9
$DIMEXE
 40
1.25
  9
$DIMTP
 40
0
  9
$DIMTM
 40
0
  9
$DIMTXT
 40
2.5
  9
$DIMCEN
 40
2.5
  9
$DIMTSZ
 40
0
  9
$DIMTOL
 70
    0
  9
$DIMLIM
 70
    0
  9
$DIMTIH
 70
    1
  9
$DIMTOH
 70
    0
  9
$DIMSE1
 70
    0
  9
$DIMSE2
 70
    0
  9
$DIMTAD
 70
    1
  9
$DIMZIN
 70
    8
  9
$DIMBLK
  1

  9
$DIMASO
 70
    1
  9
$DIMSHO
 70
    1
  9
$DIMPOST
  1
mm
  9
$DIMAPOST
  1

  9
$DIMALT
 70
    0
  9
$DIMALTD
 70
    3
  9
$DIMALTF
 40
0.0393700787401575
  9
$DIMLFAC
 40
1
  9
$DIMTOFL
 70
    1
  9
$DIMTVP
 40
0
  9
$DIMTIX
 70
    0
  9
$DIMSOXD
 70
    0
  9
$DIMSAH
 70
    0
  9
$DIMBLK1
  1

  9
$DIMBLK2
  1

  9
$DIMSTYLE
  2
ISO-25
  9
$DIMCLRD
 70
    0
  9
$DIMCLRE
 70
    0
  9
$DIMCLRT
 70
    0
  9
$DIMTFAC
 40
1
  9
$DIMGAP
 40
0.625
  9
$DIMJUST
 70
    0
  9
$DIMSD1
 70
    0
  9
$DIMSD2
 70
    0
  9
$DIMTOLJ
 70
    0
  9
$DIMTZIN
 70
    8
  9
$DIMALTZ
 70
    0
  9
$DIMALTTZ
 70
    8
  9
$DIMUPT
 70
    0
  9
$DIMDEC
 70
    2
  9
$DIMTDEC
 70
    2
  9
$DIMALTU
 70
    2
  9
$DIMALTTD
 70
    3
  9
$DIMTXSTY
  7
Standard
  9
$DIMAUNIT
 70
    0
  9
$DIMADEC
 70
    0
  9
$DIMALTRND
 40
0
  9
$DIMAZIN
 70
    0
  9
$DIMDSEP
 70
   46
  9
$DIMATFIT
 70
    3
  9
$DIMFRAC
 70
    0
  9
$DIMLDRBLK
  1

  9
$DIMLUNIT
 70
    2
  9
$DIMLWD
 70
   -2
  9
$DIMLWE
 70
   -2
  9
$DIMTMOVE
 70
    0
  9
$DIMFXL
 40
1
  9
$DIMFXLON
 70
    0
  9
$DIMJOGANG
 40
0.7854
  9
$DIMTFILL
 70
    0
  9
$DIMTFILLCLR
 70
    0
  9
$DIMARCSYM
 70
    0
  9
$DIMLTYPE
  6

  9
$DIMLTEX1
  6

  9
$DIMLTEX2
  6

  9
$LUNITS
 70
    2
  9
$LUPREC
 70
    4
  9
$SKETCHINC
 40
1
  9
$FILLETRAD
 40
10
  9
$AUNITS
 70
    0
  9
$AUPREC
 70
    0
  9
$MENU
  1
.
  9
$ELEVATION
 40
0
  9
$PELEVATION
 40
0
  9
$THICKNESS
 40
0
  9
$LIMCHECK
 70
    0
  9
$CHAMFERA
 40
0
  9
$CHAMFERB
 40
0
  9
$CHAMFERC
 40
0
  9
$CHAMFERD
 40
0
  9
$SKPOLY
 70
    0
  9
$USRTIMER
 70
    1
  9
$ANGBASE
 50
0
  9
$ANGDIR
 70
    0
  9
$PDMODE
 70
    0
  9
$PDSIZE
 40
0
  9
$PLINEWID
 40
0
  9
$SPLFRAME
 70
    0
  9
$SPLINETYPE
 70
    6
  9
$SPLINESEGS
 70
    8
  9
$HANDSEED
  5
20000
  9
$SURFTAB1
 70
    6
  9
$SURFTAB2
 70
    6
  9
$SURFTYPE
 70
    6
  9
$SURFU
 70
    6
  9
$SURFV
 70
    6
  9
$UCSBASE
  2

  9
$UCSNAME
  2

  9
$UCSORG
 10
0
 20
0
 30
0
  9
$UCSXDIR
 10
1
 20
0
 30
0
  9
$UCSYDIR
 10
0
 20
1
 30
0
  9
$UCSORTHOREF
  2

  9
$UCSORTHOVIEW
 70
    0
  9
$UCSORGTOP
 10
0
 20
0
 30
0
  9
$UCSORGBOTTOM
 10
0
 20
0
 30
0
  9
$UCSORGLEFT
 10
0
 20
0
 30
0
  9
$UCSORGRIGHT
 10
0
 20
0
 30
0
  9
$UCSORGFRONT
 10
0
 20
0
 30
0
  9
$UCSORGBACK
 10
0
 20
0
 30
0
  9
$PUCSBASE
  2

  9
$PUCSNAME
  2

  9
$PUCSORG
 10
0
 20
0
 30
0
  9
$PUCSXDIR
 10
1
 20
0
 30
0
  9
$PUCSYDIR
 10
0
 20
1
 30
0
  9
$PUCSORTHOREF
  2

  9
$PUCSORTHOVIEW
 70
    0
  9
$PUCSORGTOP
 10
0
 20
0
 30
0
  9
$PUCSORGBOTTOM
 10
0
 20
0
 30
0
  9
$PUCSORGLEFT
 10
0
 20
0
 30
0
  9
$PUCSORGRIGHT
 10
0
 20
0
 30
0
  9
$PUCSORGFRONT
 10
0
 20
0
 30
0
  9
$PUCSORGBACK
 10
0
 20
0
 30
0
  9
$USERI1
 70
    0
  9
$USERI2
 70
    0
  9
$USERI3
 70
    0
  9
$USERI4
 70
    0
  9
$USERI5
 70
    0
  9
$USERR1
 40
0
  9
$USERR2
 40
0
  9
$USERR3
 40
0
  9
$USERR4
 40
0
  9
$USERR5
 40
0
  9
$WORLDVIEW
 70
    1
  9
$SHADEDGE
 70
    3
  9
$SHADEDIF
 70
   70
  9
$TILEMODE
 70
    1
  9
$MAXACTVP
 70
   64
  9
$PINSBASE
 10
0
 20
0
 30
0
  9
$PLIMCHECK
 70
    0
  9
$PEXTMIN
 10
1e+020
 20
1e+020
 30
1e+020
  9
$PEXTMAX
 10
-1e+020
 20
-1e+020
 30
-1e+020
  9
$GRIDMODE
 70
    0
  9
$SNAPSTYLE
 70
    0
  9
$PLIMMIN
 10
0
 20
0
  9
$PLIMMAX
 10
420
 20
297
  9
$UNITMODE
 70
    0
  9
$VISRETAIN
 70
    1
  9
$PLINEGEN
 70
    0
  9
$PSLTSCALE
 70
    1
  9
$TREEDEPTH
 70
 3020
  9
$CMLSTYLE
  2
Standard
  9
$CMLJUST
 70
    0
  9
$CMLSCALE
 40
20
  9
$PROXYGRAPHICS
 70
    1
  9
$MEASUREMENT
 70
    1
  9
$CELWEIGHT
370
   -1
  9
$ENDCAPS
280
    0
  9
$JOINSTYLE
280
    0
  9
$LWDISPLAY
290
    0
  9
$INSUNITS
 70
    4
  9
$HYPERLINKBASE
  1

  9
$STYLESHEET
  1

  9
$XEDIT
290
    1
  9
$CEPSNTYPE
380
    0
  9
$PSTYLEMODE
290
    1
  9
$EXTNAMES
290
    1
  9
$PSVPSCALE
 40
0
  9
$OLESTARTUP
290
    0
  9
$SORTENTS
280
  127
  9
$INDEXCTL
280
    0
  9
$HIDETEXT
280
    1
  9
$XCLIPFRAME
290
    0
  9
$HALOGAP
280
    0
  9
$OBSCOLOR
 70
  257
  9
$OBSLTYPE
280
    0
  9
$INTERSECTIONDISPLAY
280
    0
  9
$INTERSECTIONCOLOR
 70
  257
  9
$DIMASSOC
280
    2
  9
$PROJECTNAME
  1

  9
$CAMERADISPLAY
290
    0
  9
$LENSLENGTH
 40
50
  9
$CAMERAHEIGHT
 40
0
  9
$STEPSPERSEC
 40
2
  9
$STEPSIZE
 40
50
  9
$3DDWFPREC
 40
2
  9
$PSOLWIDTH
 40
5
  9
$PSOLHEIGHT
 40
80
  9
$LOFTANG1
 40
1.570796326794897
  9
$LOFTANG2
 40
1.570796326794897
  9
$LOFTMAG1
 40
0
  9
$LOFTMAG2
 40
0
  9
$LOFTPARAM
 70
    7
  9
$LOFTNORMALS
280
    1
  9
$LATITUDE
 40
1
  9
$LONGITUDE
 40
1
  9
$NORTHDIRECTION
 40
0
  9
$TIMEZONE
 70
-8000
  9
$LIGHTGLYPHDISPLAY
280
    1
  9
$TILEMODELIGHTSYNCH
280
    1
  9
$SOLIDHIST
280
    1
  9
$SHOWHIST
280
    1
  9
$DWFFRAME
280
    2
  9
$DGNFRAME
280
    0
  9
$REALWORLDSCALE
290
    1
  9
$INTERFERECOLOR
 62
    1
  9
$CSHADOW
280
    0
  9
$SHADOWPLANELOCATION
 40
0
  0
ENDSEC
  0
SECTION
  2
CLASSES
  0
ENDSEC
  0
SECTION
  2
TABLES
  0
TABLE
  2
VPORT
  5
8
330
0
100
AcDbSymbolTable
 70
    1
  0
VPORT
  5
31
330
2
100
AcDbSymbolTableRecord
100
AcDbViewportTableRecord
  2
*ACTIVE
 70
    0
 10
0
 20
0
 11
1
 21
1
 12
586.3540731604784
 22
529.3474271587652
 13
0
 23
0
 14
10
 24
10
 15
10
 25
10
 16
0
 26
0
 36
1
 17
0
 27
0
 37
0
 40
1041.154347855465
 41
1.903730445246691
 42
50
 43
0
 44
0
 50
0
 51
0
 71
    0
 72
  100
 73
    1
 74
    3
 75
    0
 76
    0
 77
    0
 78
    0
281
    0
 65
    1
110
0
120
0
130
0
111
1
121
0
131
0
112
0
122
1
132
0
 79
    0
146
0
348
10020
 60
    7
 61
    5
292
1
282
    1
141
0
142
0
 63
  250
421
3358443
  0
ENDTAB
  0
TABLE
  2
LTYPE
  5
5
330
0
100
AcDbSymbolTable
 70
    4
  0
LTYPE
  5
14
330
5
100
AcDbSymbolTableRecord
100
AcDbLinetypeTableRecord
  2
ByBlock
 70
    0
  3

 72
   65
 73
    0
 40
0
  0
LTYPE
  5
15
330
5
100
AcDbSymbolTableRecord
100
AcDbLinetypeTableRecord
  2
ByLayer
 70
    0
  3

 72
   65
 73
    0
 40
0
  0
LTYPE
  5
16
330
5
100
AcDbSymbolTableRecord
100
AcDbLinetypeTableRecord
  2
Continuous
 70
    0
  3
Solid line
 72
   65
 73
    0
 40
0
  0
LTYPE
  5
32
330
5
100
AcDbSymbolTableRecord
100
AcDbLinetypeTableRecord
  2
DOT
 70
    0
  3
Dot . . . . . . . . . . . . . . . . . . . . . .
 72
   65
 73
    2
 40
6.35
 49
0
 74
    0
 49
-6.35
 74
    0
  0
LTYPE
  5
33
330
5
100
AcDbSymbolTableRecord
100
AcDbLinetypeTableRecord
  2
DOTTINY
 70
    0
  3
Dot (.15x) .....................................
 72
   65
 73
    2
 40
0.9525
 49
0
 74
    0
 49
-0.9525
 74
    0
  0
LTYPE
  5
34
330
5
100
AcDbSymbolTableRecord
100
AcDbLinetypeTableRecord
  2
DOT2
 70
    0
  3
Dot (.5x) .....................................
 72
   65
 73
    2
 40
3.175
 49
0
 74
    0
 49
-3.175
 74
    0
  0
LTYPE
  5
35
330
5
100
AcDbSymbolTableRecord
100
AcDbLinetypeTableRecord
  2
DOTX2
 70
    0
  3
Dot (2x) .  .  .  .  .  .  .  .  .  .  .  .  .
 72
   65
 73
    2
 40
12.7
 49
0
 74
    0
 49
-12.7
 74
    0
  0
LTYPE
  5
36
330
5
100
AcDbSymbolTableRecord
100
AcDbLinetypeTableRecord
  2
DASHED
 70
    0
  3
Dashed _ _ _ _ _ _ _ _ _ _ _ _ _ _ _ _ _
 72
   65
 73
    2
 40
19.05
 49
12.7
 74
    0
 49
-6.35
 74
    0
  0
LTYPE
  5
37
330
5
100
AcDbSymbolTableRecord
100
AcDbLinetypeTableRecord
  2
DASHEDTINY
 70
    0
  3
Dashed (.15x) _ _ _ _ _ _ _ _ _ _ _ _ _ _ _ _ _
 72
   65
 73
    2
 40
2.8575
 49
1.905
 74
    0
 49
-0.9525
 74
    0
  0
LTYPE
  5
38
330
5
100
AcDbSymbolTableRecord
100
AcDbLinetypeTableRecord
  2
DASHED2
 70
    0
  3
Dashed (.5x) _ _ _ _ _ _ _ _ _ _ _ _ _ _ _ _ _
 72
   65
 73
    2
 40
9.524999999999999
 49
6.35
 74
    0
 49
-3.175
 74
    0
  0
LTYPE
  5
39
330
5
100
AcDbSymbolTableRecord
100
AcDbLinetypeTableRecord
  2
DASHEDX2
 70
    0
  3
Dashed (2x) ____  ____  ____  ____  ____  ___
 72
   65
 73
    2
 40
38.09999999999999
 49
25.4
 74
    0
 49
-12.7
 74
    0
  0
LTYPE
  5
3A
330
5
100
AcDbSymbolTableRecord
100
AcDbLinetypeTableRecord
  2
DASHDOT
 70
    0
  3
Dash dot __ . __ . __ . __ . __ . __ . __ . __
 72
   65
 73
    4
 40
25.4
 49
12.7
 74
    0
 49
-6.35
 74
    0
 49
0
 74
    0
 49
-6.35
 74
    0
  0
LTYPE
  5
3B
330
5
100
AcDbSymbolTableRecord
100
AcDbLinetypeTableRecord
  2
DASHDOTTINY
 70
    0
  3
Dash dot (.15x) _._._._._._._._._._._._._._._.
 72
   65
 73
    4
 40
3.81
 49
1.905
 74
    0
 49
-0.9525
 74
    0
 49
0
 74
    0
 49
-0.9525
 74
    0
  0
LTYPE
  5
3C
330
5
100
AcDbSymbolTableRecord
100
AcDbLinetypeTableRecord
  2
DASHDOT2
 70
    0
  3
Dash dot (.5x) _._._._._._._._._._._._._._._.
 72
   65
 73
    4
 40
12.7
 49
6.35
 74
    0
 49
-3.175
 74
    0
 49
0
 74
    0
 49
-3.175
 74
    0
  0
LTYPE
  5
3D
330
5
100
AcDbSymbolTableRecord
100
AcDbLinetypeTableRecord
  2
DASHDOTX2
 70
    0
  3
Dash dot (2x) ____  .  ____  .  ____  .  ___
 72
   65
 73
    4
 40
50.8
 49
25.4
 74
    0
 49
-12.7
 74
    0
 49
0
 74
    0
 49
-12.7
 74
    0
  0
LTYPE
  5
3E
330
5
100
AcDbSymbolTableRecord
100
AcDbLinetypeTableRecord
  2
DIVIDE
 70
    0
  3
Divide ____ . . ____ . . ____ . . ____ . . ____
 72
   65
 73
    6
 40
31.75
 49
12.7
 74
    0
 49
-6.35
 74
    0
 49
0
 74
    0
 49
-6.35
 74
    0
 49
0
 74
    0
 49
-6.35
 74
    0
  0
LTYPE
  5
3F
330
5
100
AcDbSymbolTableRecord
100
AcDbLinetypeTableRecord
  2
DIVIDETINY
 70
    0
  3
Divide (.15x) __..__..__..__..__..__..__..__.._
 72
   65
 73
    6
 40
4.7625
 49
1.905
 74
    0
 49
-0.9525
 74
    0
 49
0
 74
    0
 49
-0.9525
 74
    0
 49
0
 74
    0
 49
-0.9525
 74
    0
  0
LTYPE
  5
40
330
5
100
AcDbSymbolTableRecord
100
AcDbLinetypeTableRecord
  2
DIVIDE2
 70
    0
  3
Divide (.5x) __..__..__..__..__..__..__..__.._
 72
   65
 73
    6
 40
15.875
 49
6.35
 74
    0
 49
-3.175
 74
    0
 49
0
 74
    0
 49
-3.175
 74
    0
 49
0
 74
    0
 49
-3.175
 74
    0
  0
LTYPE
  5
41
330
5
100
AcDbSymbolTableRecord
100
AcDbLinetypeTableRecord
  2
DIVIDEX2
 70
    0
  3
Divide (2x) ________  .  .  ________  .  .  _
 72
   65
 73
    6
 40
63.5
 49
25.4
 74
    0
 49
-12.7
 74
    0
 49
0
 74
    0
 49
-12.7
 74
    0
 49
0
 74
    0
 49
-12.7
 74
    0
  0
LTYPE
  5
42
330
5
100
AcDbSymbolTableRecord
100
AcDbLinetypeTableRecord
  2
BORDER
 70
    0
  3
Border __ __ . __ __ . __ __ . __ __ . __ __ .
 72
   65
 73
    6
 40
44.45
 49
12.7
 74
    0
 49
-6.35
 74
    0
 49
12.7
 74
    0
 49
-6.35
 74
    0
 49
0
 74
    0
 49
-6.35
 74
    0
  0
LTYPE
  5
43
330
5
100
AcDbSymbolTableRecord
100
AcDbLinetypeTableRecord
  2
BORDERTINY
 70
    0
  3
Border (.15x) __.__.__.__.__.__.__.__.__.__.__.
 72
   65
 73
    6
 40
6.6675
 49
1.905
 74
    0
 49
-0.9525
 74
    0
 49
1.905
 74
    0
 49
-0.9525
 74
    0
 49
0
 74
    0
 49
-0.9525
 74
    0
  0
LTYPE
  5
44
330
5
100
AcDbSymbolTableRecord
100
AcDbLinetypeTableRecord
  2
BORDER2
 70
    0
  3
Border (.5x) __.__.__.__.__.__.__.__.__.__.__.
 72
   65
 73
    6
 40
22.225
 49
6.35
 74
    0
 49
-3.175
 74
    0
 49
6.35
 74
    0
 49
-3.175
 74
    0
 49
0
 74
    0
 49
-3.175
 74
    0
  0
LTYPE
  5
45
330
5
100
AcDbSymbolTableRecord
100
AcDbLinetypeTableRecord
  2
BORDERX2
 70
    0
  3
Border (2x) ____  ____  .  ____  ____  .  ___
 72
   65
 73
    6
 40
88.89999999999999
 49
25.4
 74
    0
 49
-12.7
 74
    0
 49
25.4
 74
    0
 49
-12.7
 74
    0
 49
0
 74
    0
 49
-12.7
 74
    0
  0
LTYPE
  5
46
330
5
100
AcDbSymbolTableRecord
100
AcDbLinetypeTableRecord
  2
CENTER
 70
    0
  3
Center ____ _ ____ _ ____ _ ____ _ ____ _ ____
 72
   65
 73
    4
 40
50.8
 49
31.75
 74
    0
 49
-6.35
 74
    0
 49
6.35
 74
    0
 49
-6.35
 74
    0
  0
LTYPE
  5
47
330
5
100
AcDbSymbolTableRecord
100
AcDbLinetypeTableRecord
  2
CENTERTINY
 70
    0
  3
Center (.15x) ___ _ ___ _ ___ _ ___ _ ___ _ ___
 72
   65
 73
    4
 40
7.62
 49
4.7625
 74
    0
 49
-0.9525
 74
    0
 49
0.9525
 74
    0
 49
-0.9525
 74
    0
  0
LTYPE
  5
48
330
5
100
AcDbSymbolTableRecord
100
AcDbLinetypeTableRecord
  2
CENTER2
 70
    0
  3
Center (.5x) ___ _ ___ _ ___ _ ___ _ ___ _ ___
 72
   65
 73
    4
 40
28.575
 49
19.05
 74
    0
 49
-3.175
 74
    0
 49
3.175
 74
    0
 49
-3.175
 74
    0
  0
LTYPE
  5
49
330
5
100
AcDbSymbolTableRecord
100
AcDbLinetypeTableRecord
  2
CENTERX2
 70
    0
  3
Center (2x) ________  __  ________  __  _____
 72
   65
 73
    4
 40
101.6
 49
63.5
 74
    0
 49
-12.7
 74
    0
 49
12.7
 74
    0
 49
-12.7
 74
    0
  0
ENDTAB
  0
TABLE
  2
LAYER
  5
2
330
0
100
AcDbSymbolTable
 70
    1
  0
LAYER
  5
10
330
2
100
AcDbSymbolTableRecord
100
AcDbLayerTableRecord
  2
0
 70
    0
 62
  253
420
9416591
  6
CONTINUOUS
370
   70
390
F
  0
LAYER
  5
4A
330
2
100
AcDbSymbolTableRecord
100
AcDbLayerTableRecord
  2
Hidden
 70
    0
 62
   48
420
4733445
  6
DASHED
370
   70
390
F
  0
ENDTAB
  0
TABLE
  2
STYLE
  5
3
330
0
100
AcDbSymbolTable
 70
    3
  0
STYLE
  5
4B
330
2
100
AcDbSymbolTableRecord
100
AcDbTextStyleTableRecord
  2
Standard
 70
    0
 40
0
 41
1
 50
0
 71
    0
 42
1
  3
txt
  4

  0
ENDTAB
  0
TABLE
  2
VIEW
  5
6
330
0
100
AcDbSymbolTable
 70
    0
  0
ENDTAB
  0
TABLE
  2
UCS
  5
7
330
0
100
AcDbSymbolTable
 70
    0
  0
ENDTAB
  0
TABLE
  2
APPID
  5
9
330
0
100
AcDbSymbolTable
 70
    1
  0
APPID
  5
12
330
9
100
AcDbSymbolTableRecord
100
AcDbRegAppTableRecord
  2
ACAD
 70
    0
  0
APPID
  5
4C
330
9
100
AcDbSymbolTableRecord
100
AcDbRegAppTableRecord
  2
LibreCad
 70
    0
  0
ENDTAB
  0
TABLE
  2
DIMSTYLE
  5
A
330
0
100
AcDbSymbolTable
 70
    1
100
AcDbDimStyleTable
 71
    1
  0
DIMSTYLE
105
4D
330
A
100
AcDbSymbolTableRecord
100
AcDbDimStyleTableRecord
  2
Standard
 70
    0
 40
1
 41
2.5
 42
0.625
 43
0.38
 44
1.25
 45
0
 46
0
 47
0
 48
0
 49
1
140
2.5
141
0.09
142
0
143
25.4
144
1
145
0
146
1
147
0.625
148
0
 71
    0
 72
    0
 73
    1
 74
    1
 75
    0
 76
    0
 77
    0
 78
    8
 79
    0
170
    0
171
    2
172
    0
173
    0
174
    0
175
    0
176
    0
177
    0
178
    0
179
    0
271
    2
272
    4
273
    2
274
    2
275
    0
276
    0
277
    2
278
   46
279
    0
280
    0
281
    0
282
    0
283
    1
284
    0
285
    0
286
    0
288
    0
289
    3
340
Standard
341

371
   -2
372
   -2
  0
ENDTAB
  0
TABLE
  2
BLOCK_RECORD
  5
1
330
0
100
AcDbSymbolTable
 70
    2
  0
BLOCK_RECORD
  5
1F
330
1
100
AcDbSymbolTableRecord
100
AcDbBlockTableRecord
  2
*Model_Space
 70
    0
280
    1
281
    0
  0
BLOCK_RECORD
  5
1E
330
1
100
AcDbSymbolTableRecord
100
AcDbBlockTableRecord
  2
*Paper_Space
 70
    0
280
    1
281
    0
  0
ENDTAB
  0
ENDSEC
  0
SECTION
  2
BLOCKS
  0
BLOCK
  5
20
330
1F
100
AcDbEntity
  8
0
100
AcDbBlockBegin
  2
*Model_Space
 70
    0
 10
0
 20
0
 30
0
  3
*Model_Space
  1

  0
ENDBLK
  5
21
330
1F
100
AcDbEntity
  8
0
100
AcDbBlockEnd
  0
BLOCK
  5
1C
330
1B
100
AcDbEntity
  8
0
100
AcDbBlockBegin
  2
*Paper_Space
 70
    0
 10
0
 20
0
 30
0
  3
*Paper_Space
  1

  0
ENDBLK
  5
1D
330
1F
100
AcDbEntity
  8
0
100
AcDbBlockEnd
  0
ENDSEC
  0
SECTION
  2
ENTITIES
  0
LINE
  5
4E
100
AcDbEntity
  8
0
  6
ByLayer
 62
   48
420
4733445
370
   -3
100
AcDbLine
 10
141.5401123742469
 20
724.45988762575
 11
141.5401123742471
 21
692.6601123742461
  0
CIRCLE
  5
4F
100
AcDbEntity
  8
0
  6
ByLayer
 62
   48
420
4733445
370
   -3
100
AcDbCircle
 10
236.640112374247
 20
708.5598876257502
 40
4.25
  0
CIRCLE
  5
50
100
AcDbEntity
  8
0
  6
ByLayer
 62
   48
420
4733445
370
   -3
100
AcDbCircle
 10
536.6401123742465
 20
708.5598876257523
 40
4.25
  0
CIRCLE
  5
51
100
AcDbEntity
  8
0
  6
ByLayer
 62
   48
420
4733445
370
   -3
100
AcDbCircle
 10
1443.140112374246
 20
708.5598876257565
 40
4.25
  0
CIRCLE
  5
52
100
AcDbEntity
  8
0
  6
ByLayer
 62
   48
420
4733445
370
   -3
100
AcDbCircle
 10
1140.640112374246
 20
708.5598876257529
 40
4.25
  0
CIRCLE
  5
53
100
AcDbEntity
  8
0
  6
ByLayer
 62
   48
420
4733445
370
   -3
100
AcDbCircle
 10
840.6401123742467
 20
708.5598876257532
 40
4.25
  0
ARC
  5
54
100
AcDbEntity
  8
0
  6
ByLayer
 62
   48
420
4733445
370
   -3
100
AcDbCircle
 10
138.5401123742469
 20
724.45988762575
 40
2.999999999999999
100
AcDbArc
 50
0
 51
90.00000000000901
  0
ARC
  5
55
100
AcDbEntity
  8
0
  6
ByLayer
 62
   48
420
4733445
370
   -3
100
AcDbCircle
 10
138.5401123742471
 20
692.6601123742461
 40
3
100
AcDbArc
 50
269.9999999999989
 51
6.920899999999999e-012
  0
LINE
  5
56
100
AcDbEntity
  8
0
  6
ByLayer
 62
   48
420
4733445
370
   -3
100
AcDbLine
 10
138.540112374247
 20
689.6601123742461
 11
71.5401123742471
 21
689.6601123742458
  0
LINE
  5
57
100
AcDbEntity
  8
0
  6
ByLayer
 62
   48
420
4733445
370
   -3
100
AcDbLine
 10
71.54011237425964
 20
689.6601123742458
 11
71.54011237425954
 21
727.4598876257497
  0
LINE
  5
58
100
AcDbEntity
  8
0
  6
ByLayer
 62
   48
420
4733445
370
   -3
100
AcDbLine
 10
71.54011237424699
 20
727.4598876257497
 11
138.540112374247
 21
727.45988762575
  0
LINE
  5
59
100
AcDbEntity
  8
0
  6
ByLayer
 62
   48
420
4733445
370
   -3
100
AcDbLine
 10
71.5401123742471
 20
673.6601123742456
 11
71.5401123742471
 21
689.6601123742458
  0
LINE
  5
5A
100
AcDbEntity
  8
0
  6
ByLayer
 62
   48
420
4733445
370
   -3
100
AcDbLine
 10
1449.140112374246
 20
673.6601123742506
 11
71.54011237424696
 21
673.6601123742457
  0
LINE
  5
5B
100
AcDbEntity
  8
0
  6
ByLayer
 62
   48
420
4733445
370
   -3
100
AcDbLine
 10
1449.140112374246
 20
743.4598876257547
 11
1449.140112374246
 21
673.6601123742506
  0
LINE
  5
5C
100
AcDbEntity
  8
0
  6
ByLayer
 62
   48
420
4733445
370
   -3
100
AcDbLine
 10
71.54011237424699
 20
743.4598876257497
 11
1449.140112374246
 21
743.4598876257546
  0
LINE
  5
5D
100
AcDbEntity
  8
0
  6
ByLayer
 62
   48
420
4733445
370
   -3
100
AcDbLine
 10
71.54011237424699
 20
727.4598876257497
 11
71.54011237424699
 21
743.4598876257496
  0
LINE
  5
5E
100
AcDbEntity
  8
0
  6
ByLayer
 62
   48
420
4733445
370
   -3
100
AcDbLine
 10
733.4861905687095
 20
311.9375064883374
 11
724.7861905687096
 21
311.9375064883374
  0
ARC
  5
5F
100
AcDbEntity
  8
0
  6
ByLayer
 62
   48
420
4733445
370
   -3
100
AcDbCircle
 10
422.7861905687145
 20
309.9375064883386
 40
2
100
AcDbArc
 50
90.00000000000875
 51
179.9999999999998
  0
ARC
  5
60
100
AcDbEntity
  8
0
  6
ByLayer
 62
   48
420
4733445
370
   -3
100
AcDbCircle
 10
431.4861905687143
 20
309.9375064883386
 40
2
100
AcDbArc
 50
8.752900000000001e-012
 51
89.9999999999998
  0
ARC
  5
61
100
AcDbEntity
  8
0
  6
ByLayer
 62
   48
420
4733445
370
   -3
100
AcDbCircle
 10
134.7861905687145
 20
309.9375064883398
 40
2
100
AcDbArc
 50
90.0000000000051
 51
179.9999999999998
  0
ARC
  5
62
100
AcDbEntity
  8
0
  6
ByLayer
 62
   48
420
4733445
370
   -3
100
AcDbCircle
 10
143.4861905687146
 20
309.9375064883397
 40
2
100
AcDbArc
 50
5.6996e-012
 51
89.9999999999998
  0
ARC
  5
63
100
AcDbEntity
  8
0
  6
ByLayer
 62
   48
420
4733445
370
   -3
100
AcDbCircle
 10
145.4861905687144
 20
304.5375064883398
 40
1.599999999999971
100
AcDbArc
 50
270.0000000000234
 51
89.99999999999977
  0
ARC
  5
64
100
AcDbEntity
  8
0
  6
ByLayer
 62
   48
420
4733445
370
   -3
100
AcDbCircle
 10
132.7861905687145
 20
304.5375064883398
 40
1.599999999999948
100
AcDbArc
 50
89.99999999997853
 51
269.9999999999998
  0
ARC
  5
65
100
AcDbEntity
  8
0
  6
ByLayer
 62
   48
420
4733445
370
   -3
100
AcDbCircle
 10
433.4861905687143
 20
304.5375064883386
 40
1.599999999999971
100
AcDbArc
 50
270.0000000000326
 51
89.99999999999977
  0
ARC
  5
66
100
AcDbEntity
  8
0
  6
ByLayer
 62
   48
420
4733445
370
   -3
100
AcDbCircle
 10
420.7861905687145
 20
304.5375064883386
 40
1.599999999999948
100
AcDbArc
 50
89.99999999997384
 51
269.9999999999998
  0
ARC
  5
67
100
AcDbEntity
  8
0
  6
ByLayer
 62
   48
420
4733445
370
   -3
100
AcDbCircle
 10
724.7861905687095
 20
309.9375064883374
 40
2
100
AcDbArc
 50
90.00000000000875
 51
179.9999999999998
  0
ARC
  5
68
100
AcDbEntity
  8
0
  6
ByLayer
 62
   48
420
4733445
370
   -3
100
AcDbCircle
 10
722.7861905687096
 20
304.5375064883374
 40
1.599999999999964
100
AcDbArc
 50
90.00000000001376
 51
269.9999999999998
  0
ARC
  5
69
100
AcDbEntity
  8
0
  6
ByLayer
 62
   48
420
4733445
370
   -3
100
AcDbCircle
 10
1035.486190568704
 20
309.9375064883362
 40
2
100
AcDbArc
 50
359.9999999999998
 51
90.00000000002912
  0
ARC
  5
6A
100
AcDbEntity
  8
0
  6
ByLayer
 62
   48
420
4733445
370
   -3
100
AcDbCircle
 10
1026.786190568705
 20
309.9375064883362
 40
2
100
AcDbArc
 50
89.9999999999998
 51
180.0000000000041
  0
ARC
  5
6B
100
AcDbEntity
  8
0
  6
ByLayer
 62
   48
420
4733445
370
   -3
100
AcDbCircle
 10
1323.486190568705
 20
309.937506488335
 40
2
100
AcDbArc
 50
359.9999999999998
 51
90.00000000002912
  0
ARC
  5
6C
100
AcDbEntity
  8
0
  6
ByLayer
 62
   48
420
4733445
370
   -3
100
AcDbCircle
 10
1314.786190568704
 20
309.9375064883351
 40
2
100
AcDbArc
 50
89.9999999999998
 51
180.0000000000041
  0
ARC
  5
6D
100
AcDbEntity
  8
0
  6
ByLayer
 62
   48
420
4733445
370
   -3
100
AcDbCircle
 10
1312.786190568705
 20
304.5375064883351
 40
1.599999999999971
100
AcDbArc
 50
89.99999999999977
 51
270.0000000000039
  0
ARC
  5
6E
100
AcDbEntity
  8
0
  6
ByLayer
 62
   48
420
4733445
370
   -3
100
AcDbCircle
 10
1325.486190568705
 20
304.537506488335
 40
1.599999999999948
100
AcDbArc
 50
269.9999999999998
 51
90.00000000003186
  0
ARC
  5
6F
100
AcDbEntity
  8
0
  6
ByLayer
 62
   48
420
4733445
370
   -3
100
AcDbCircle
 10
1024.786190568705
 20
304.5375064883362
 40
1.599999999999971
100
AcDbArc
 50
89.99999999999977
 51
270.0000000000039
  0
ARC
  5
70
100
AcDbEntity
  8
0
  6
ByLayer
 62
   48
420
4733445
370
   -3
100
AcDbCircle
 10
1037.486190568705
 20
304.5375064883361
 40
1.599999999999948
100
AcDbArc
 50
269.9999999999998
 51
90.00000000003186
  0
ARC
  5
71
100
AcDbEntity
  8
0
  6
ByLayer
 62
   48
420
4733445
370
   -3
100
AcDbCircle
 10
733.4861905687094
 20
309.9375064883374
 40
2
100
AcDbArc
 50
359.9999999999998
 51
89.99999999999115
  0
ARC
  5
72
100
AcDbEntity
  8
0
  6
ByLayer
 62
   48
420
4733445
370
   -3
100
AcDbCircle
 10
735.4861905687093
 20
304.5375064883374
 40
1.599999999999964
100
AcDbArc
 50
269.9999999999998
 51
89.99999999998626
  0
ARC
  5
73
100
AcDbEntity
  8
0
  6
ByLayer
 62
   48
420
4733445
370
   -3
100
AcDbCircle
 10
1487.63619056871
 20
318.4898876257568
 40
2
100
AcDbArc
 50
269.9999999999998
 51
3.206e-012
  0
ARC
  5
74
100
AcDbEntity
  8
0
  6
ByLayer
 62
   48
420
4733445
370
   -3
100
AcDbCircle
 10
1487.63619056871
 20
336.9898876257561
 40
2
100
AcDbArc
 50
359.9999999999998
 51
90.00000000002717
  0
ARC
  5
75
100
AcDbEntity
  8
0
  6
ByLayer
 62
   48
420
4733445
370
   -3
100
AcDbCircle
 10
1458.63619056871
 20
306.5455888334875
 40
2
100
AcDbArc
 50
89.99999999997131
 51
179.9999999999998
  0
ARC
  5
76
100
AcDbEntity
  8
0
  6
ByLayer
 62
   48
420
4733445
370
   -3
100
AcDbCircle
 10
1458.63619056871
 20
297.8455888334875
 40
2
100
AcDbArc
 50
179.9999999999949
 51
269.9999999999998
  0
CIRCLE
  5
77
100
AcDbEntity
  8
0
  6
ByLayer
 62
   48
420
4733445
370
   -3
100
AcDbCircle
 10
1181.136190568709
 20
299.2514064883389
 40
4.249999999999982
  0
CIRCLE
  5
78
100
AcDbEntity
  8
0
  6
ByLayer
 62
   48
420
4733445
370
   -3
100
AcDbCircle
 10
881.1361905687089
 20
299.25140648834
 40
4.712290568707756
  0
CIRCLE
  5
79
100
AcDbEntity
  8
0
  6
ByLayer
 62
   48
420
4733445
370
   -3
100
AcDbCircle
 10
577.1361905687091
 20
299.2514064883413
 40
4.250000000000008
  0
CIRCLE
  5
7A
100
AcDbEntity
  8
0
  6
ByLayer
 62
   48
420
4733445
370
   -3
100
AcDbCircle
 10
277.1361905687095
 20
299.2514064883425
 40
4.249999999999996
  0
CIRCLE
  5
7B
100
AcDbEntity
  8
0
  6
ByLayer
 62
   48
420
4733445
370
   -3
100
AcDbCircle
 10
1454.63619056871
 20
318.4375064883345
 40
4.25
  0
LINE
  5
7C
100
AcDbEntity
  8
0
  6
ByLayer
 62
   48
420
4733445
370
   -3
100
AcDbLine
 10
22.03619056871034
 20
338.989887625762
 11
22.03619056871012
 21
286.9375064883403
  0
LINE
  5
7D
100
AcDbEntity
  8
0
  6
ByLayer
 62
   48
420
4733445
370
   -3
100
AcDbLine
 10
22.03619056871034
 20
338.989887625762
 11
1487.63619056871
 21
338.9898876257561
  0
LINE
  5
7E
100
AcDbEntity
  8
0
  6
ByLayer
 62
   48
420
4733445
370
   -3
100
AcDbLine
 10
22.03619056871013
 20
286.9375064883403
 11
135.1361905687143
 21
286.9375064883397
  0
LINE
  5
7F
100
AcDbEntity
  8
0
  6
ByLayer
 62
   48
420
4733445
370
   -3
100
AcDbLine
 10
135.1361905687143
 20
286.9375064883397
 11
135.1361905687145
 21
302.9375064883398
  0
LINE
  5
80
100
AcDbEntity
  8
0
  6
ByLayer
 62
   48
420
4733445
370
   -3
100
AcDbLine
 10
135.1361905687145
 20
302.9375064883398
 11
132.7861905687145
 21
302.9375064883398
  0
LINE
  5
81
100
AcDbEntity
  8
0
  6
ByLayer
 62
   48
420
4733445
370
   -3
100
AcDbLine
 10
132.7861905687145
 20
306.1375064883397
 11
132.7861905687145
 21
309.9375064883398
  0
LINE
  5
82
100
AcDbEntity
  8
0
  6
ByLayer
 62
   48
420
4733445
370
   -3
100
AcDbLine
 10
134.7861905687145
 20
311.9375064883398
 11
143.4861905687146
 21
311.9375064883397
  0
LINE
  5
83
100
AcDbEntity
  8
0
  6
ByLayer
 62
   48
420
4733445
370
   -3
100
AcDbLine
 10
145.4861905687144
 20
309.9375064883397
 11
145.4861905687144
 21
306.1375064883397
  0
LINE
  5
84
100
AcDbEntity
  8
0
  6
ByLayer
 62
   48
420
4733445
370
   -3
100
AcDbLine
 10
145.4861905687144
 20
302.9375064883397
 11
143.1361905687145
 21
302.9375064883397
  0
LINE
  5
85
100
AcDbEntity
  8
0
  6
ByLayer
 62
   48
420
4733445
370
   -3
100
AcDbLine
 10
143.1361905687145
 20
302.9375064883397
 11
143.1361905687143
 21
286.9375064883397
  0
LINE
  5
86
100
AcDbEntity
  8
0
  6
ByLayer
 62
   48
420
4733445
370
   -3
100
AcDbLine
 10
143.1361905687143
 20
286.9375064883397
 11
423.1361905687143
 21
286.9375064883387
  0
LINE
  5
87
100
AcDbEntity
  8
0
  6
ByLayer
 62
   48
420
4733445
370
   -3
100
AcDbLine
 10
423.1361905687143
 20
286.9375064883387
 11
423.1361905687145
 21
302.9375064883386
  0
LINE
  5
88
100
AcDbEntity
  8
0
  6
ByLayer
 62
   48
420
4733445
370
   -3
100
AcDbLine
 10
423.1361905687145
 20
302.9375064883386
 11
420.7861905687145
 21
302.9375064883386
  0
LINE
  5
89
100
AcDbEntity
  8
0
  6
ByLayer
 62
   48
420
4733445
370
   -3
100
AcDbLine
 10
420.7861905687145
 20
306.1375064883386
 11
420.7861905687145
 21
309.9375064883387
  0
LINE
  5
8A
100
AcDbEntity
  8
0
  6
ByLayer
 62
   48
420
4733445
370
   -3
100
AcDbLine
 10
422.7861905687145
 20
311.9375064883386
 11
431.4861905687144
 21
311.9375064883386
  0
LINE
  5
8B
100
AcDbEntity
  8
0
  6
ByLayer
 62
   48
420
4733445
370
   -3
100
AcDbLine
 10
433.4861905687143
 20
309.9375064883386
 11
433.4861905687143
 21
306.1375064883386
  0
LINE
  5
8C
100
AcDbEntity
  8
0
  6
ByLayer
 62
   48
420
4733445
370
   -3
100
AcDbLine
 10
433.4861905687143
 20
302.9375064883386
 11
431.1361905687143
 21
302.9375064883386
  0
LINE
  5
8D
100
AcDbEntity
  8
0
  6
ByLayer
 62
   48
420
4733445
370
   -3
100
AcDbLine
 10
431.1361905687143
 20
302.9375064883386
 11
431.1361905687143
 21
286.9375064883386
  0
LINE
  5
8E
100
AcDbEntity
  8
0
  6
ByLayer
 62
   48
420
4733445
370
   -3
100
AcDbLine
 10
431.1361905687144
 20
286.9375064883386
 11
725.1361905687094
 21
286.9375064883374
  0
LINE
  5
8F
100
AcDbEntity
  8
0
  6
ByLayer
 62
   48
420
4733445
370
   -3
100
AcDbLine
 10
725.1361905687094
 20
286.9375064883374
 11
725.1361905687094
 21
302.9375064883374
  0
LINE
  5
90
100
AcDbEntity
  8
0
  6
ByLayer
 62
   48
420
4733445
370
   -3
100
AcDbLine
 10
725.1361905687094
 20
302.9375064883374
 11
722.7861905687096
 21
302.9375064883374
  0
LINE
  5
91
100
AcDbEntity
  8
0
  6
ByLayer
 62
   48
420
4733445
370
   -3
100
AcDbLine
 10
722.7861905687095
 20
306.1375064883374
 11
722.7861905687095
 21
309.9375064883374
  0
LINE
  5
92
100
AcDbEntity
  8
0
  6
ByLayer
 62
   48
420
4733445
370
   -3
100
AcDbLine
 10
735.4861905687094
 20
306.1375064883373
 11
735.4861905687094
 21
309.9375064883374
  0
LINE
  5
93
100
AcDbEntity
  8
0
  6
ByLayer
 62
   48
420
4733445
370
   -3
100
AcDbLine
 10
733.1361905687094
 20
302.9375064883374
 11
735.4861905687093
 21
302.9375064883374
  0
LINE
  5
94
100
AcDbEntity
  8
0
  6
ByLayer
 62
   48
420
4733445
370
   -3
100
AcDbLine
 10
733.1361905687094
 20
286.9375064883373
 11
733.1361905687094
 21
302.9375064883374
  0
LINE
  5
95
100
AcDbEntity
  8
0
  6
ByLayer
 62
   48
420
4733445
370
   -3
100
AcDbLine
 10
1027.136190568704
 20
286.9375064883362
 11
733.1361905687094
 21
286.9375064883373
  0
LINE
  5
96
100
AcDbEntity
  8
0
  6
ByLayer
 62
   48
420
4733445
370
   -3
100
AcDbLine
 10
1027.136190568704
 20
302.9375064883362
 11
1027.136190568704
 21
286.9375064883362
  0
LINE
  5
97
100
AcDbEntity
  8
0
  6
ByLayer
 62
   48
420
4733445
370
   -3
100
AcDbLine
 10
1024.786190568704
 20
302.9375064883362
 11
1027.136190568704
 21
302.9375064883362
  0
LINE
  5
98
100
AcDbEntity
  8
0
  6
ByLayer
 62
   48
420
4733445
370
   -3
100
AcDbLine
 10
1024.786190568705
 20
309.9375064883362
 11
1024.786190568705
 21
306.1375064883362
  0
LINE
  5
99
100
AcDbEntity
  8
0
  6
ByLayer
 62
   48
420
4733445
370
   -3
100
AcDbLine
 10
1035.486190568704
 20
311.9375064883362
 11
1026.786190568704
 21
311.9375064883362
  0
LINE
  5
9A
100
AcDbEntity
  8
0
  6
ByLayer
 62
   48
420
4733445
370
   -3
100
AcDbLine
 10
1037.486190568705
 20
306.1375064883361
 11
1037.486190568705
 21
309.9375064883362
  0
LINE
  5
9B
100
AcDbEntity
  8
0
  6
ByLayer
 62
   48
420
4733445
370
   -3
100
AcDbLine
 10
1035.136190568704
 20
302.9375064883361
 11
1037.486190568704
 21
302.9375064883361
  0
LINE
  5
9C
100
AcDbEntity
  8
0
  6
ByLayer
 62
   48
420
4733445
370
   -3
100
AcDbLine
 10
1035.136190568704
 20
286.9375064883362
 11
1035.136190568704
 21
302.9375064883361
  0
LINE
  5
9D
100
AcDbEntity
  8
0
  6
ByLayer
 62
   48
420
4733445
370
   -3
100
AcDbLine
 10
1315.136190568704
 20
286.937506488335
 11
1035.136190568704
 21
286.9375064883362
  0
LINE
  5
9E
100
AcDbEntity
  8
0
  6
ByLayer
 62
   48
420
4733445
370
   -3
100
AcDbLine
 10
1315.136190568704
 20
302.9375064883351
 11
1315.136190568704
 21
286.937506488335
  0
LINE
  5
9F
100
AcDbEntity
  8
0
  6
ByLayer
 62
   48
420
4733445
370
   -3
100
AcDbLine
 10
1312.786190568704
 20
302.9375064883351
 11
1315.136190568704
 21
302.937506488335
  0
LINE
  5
A0
100
AcDbEntity
  8
0
  6
ByLayer
 62
   48
420
4733445
370
   -3
100
AcDbLine
 10
1312.786190568705
 20
309.9375064883351
 11
1312.786190568705
 21
306.137506488335
  0
LINE
  5
A1
100
AcDbEntity
  8
0
  6
ByLayer
 62
   48
420
4733445
370
   -3
100
AcDbLine
 10
1323.486190568704
 20
311.937506488335
 11
1314.786190568704
 21
311.9375064883351
  0
LINE
  5
A2
100
AcDbEntity
  8
0
  6
ByLayer
 62
   48
420
4733445
370
   -3
100
AcDbLine
 10
1325.486190568705
 20
306.137506488335
 11
1325.486190568705
 21
309.937506488335
  0
LINE
  5
A3
100
AcDbEntity
  8
0
  6
ByLayer
 62
   48
420
4733445
370
   -3
100
AcDbLine
 10
1323.136190568704
 20
302.937506488335
 11
1325.486190568704
 21
302.937506488335
  0
LINE
  5
A4
100
AcDbEntity
  8
0
  6
ByLayer
 62
   48
420
4733445
370
   -3
100
AcDbLine
 10
1323.136190568704
 20
286.937506488335
 11
1323.136190568704
 21
302.937506488335
  0
LINE
  5
A5
100
AcDbEntity
  8
0
  6
ByLayer
 62
   48
420
4733445
370
   -3
100
AcDbLine
 10
1477.63619056871
 20
286.9375064883344
 11
1323.136190568704
 21
286.937506488335
  0
LINE
  5
A6
100
AcDbEntity
  8
0
  6
ByLayer
 62
   48
420
4733445
370
   -3
100
AcDbLine
 10
1477.63619056871
 20
286.9375064883344
 11
1477.63619056871
 21
298.1955888334874
  0
LINE
  5
A7
100
AcDbEntity
  8
0
  6
ByLayer
 62
   48
420
4733445
370
   -3
100
AcDbLine
 10
1477.63619056871
 20
298.1955888334874
 11
1465.63619056871
 21
298.1955888334875
  0
LINE
  5
A8
100
AcDbEntity
  8
0
  6
ByLayer
 62
   48
420
4733445
370
   -3
100
AcDbLine
 10
1465.63619056871
 20
298.1955888334875
 11
1465.63619056871
 21
295.8455888334875
  0
ARC
  5
A9
100
AcDbEntity
  8
0
  6
ByLayer
 62
   48
420
4733445
370
   -3
100
AcDbCircle
 10
1464.03619056871
 20
295.8455888334875
 40
1.600000000000005
100
AcDbArc
 50
180.0000000000003
 51
359.9999999999998
  0
LINE
  5
AA
100
AcDbEntity
  8
0
  6
ByLayer
 62
   48
420
4733445
370
   -3
100
AcDbLine
 10
1462.43619056871
 20
295.8455888334875
 11
1458.63619056871
 21
295.8455888334875
  0
LINE
  5
AB
100
AcDbEntity
  8
0
  6
ByLayer
 62
   48
420
4733445
370
   -3
100
AcDbLine
 10
1456.63619056871
 20
297.8455888334875
 11
1456.63619056871
 21
306.5455888334875
  0
LINE
  5
AC
100
AcDbEntity
  8
0
  6
ByLayer
 62
   48
420
4733445
370
   -3
100
AcDbLine
 10
1458.63619056871
 20
308.5455888334875
 11
1462.43619056871
 21
308.5455888334875
  0
ARC
  5
AD
100
AcDbEntity
  8
0
  6
ByLayer
 62
   48
420
4733445
370
   -3
100
AcDbCircle
 10
1464.03619056871
 20
308.5455888334875
 40
1.6
100
AcDbArc
 50
359.9999999999998
 51
179.9999999999998
  0
LINE
  5
AE
100
AcDbEntity
  8
0
  6
ByLayer
 62
   48
420
4733445
370
   -3
100
AcDbLine
 10
1465.63619056871
 20
308.5455888334874
 11
1465.63619056871
 21
306.1955888334874
  0
LINE
  5
AF
100
AcDbEntity
  8
0
  6
ByLayer
 62
   48
420
4733445
370
   -3
100
AcDbLine
 10
1465.63619056871
 20
306.1955888334874
 11
1477.63619056871
 21
306.1955888334874
  0
LINE
  5
B0
100
AcDbEntity
  8
0
  6
ByLayer
 62
   48
420
4733445
370
   -3
100
AcDbLine
 10
1477.63619056871
 20
306.1955888334874
 11
1477.63619056871
 21
316.4898876257569
  0
LINE
  5
B1
100
AcDbEntity
  8
0
  6
ByLayer
 62
   48
420
4733445
370
   -3
100
AcDbLine
 10
1477.63619056871
 20
316.4898876257569
 11
1487.63619056871
 21
316.4898876257568
  0
LINE
  5
B2
100
AcDbEntity
  8
0
  6
ByLayer
 62
   48
420
4733445
370
   -3
100
AcDbLine
 10
1489.63619056871
 20
318.4898876257568
 11
1489.63619056871
 21
336.9898876257561
  0
LINE
  5
B3
100
AcDbEntity
  8
0
  6
ByLayer
 62
   48
420
4733445
370
   -3
100
AcDbLine
 10
283.1361905687147
 20
309.687506488338
 11
271.1361905687093
 21
309.6875064883382
  0
LINE
  5
B4
100
AcDbEntity
  8
0
  6
ByLayer
 62
   48
420
4733445
370
   -3
100
AcDbLine
 10
271.1361905687095
 20
324.6875064883381
 11
271.1361905687095
 21
309.6875064883382
  0
LINE
  5
B5
100
AcDbEntity
  8
0
  6
ByLayer
 62
   48
420
4733445
370
   -3
100
AcDbLine
 10
283.1361905687144
 20
324.687506488338
 11
271.1361905687093
 21
324.6875064883381
  0
LINE
  5
B6
100
AcDbEntity
  8
0
  6
ByLayer
 62
   48
420
4733445
370
   -3
100
AcDbLine
 10
283.1361905687147
 20
309.687506488338
 11
283.1361905687147
 21
324.687506488338
  0
LINE
  5
B7
100
AcDbEntity
  8
0
  6
ByLayer
 62
   48
420
4733445
370
   -3
100
AcDbLine
 10
583.1361905687147
 20
309.6875064883369
 11
583.1361905687149
 21
324.6875064883368
  0
LINE
  5
B8
100
AcDbEntity
  8
0
  6
ByLayer
 62
   48
420
4733445
370
   -3
100
AcDbLine
 10
583.1361905687147
 20
309.6875064883369
 11
571.1361905687095
 21
309.687506488337
  0
LINE
  5
B9
100
AcDbEntity
  8
0
  6
ByLayer
 62
   48
420
4733445
370
   -3
100
AcDbLine
 10
571.1361905687098
 20
324.6875064883369
 11
571.1361905687096
 21
309.687506488337
  0
LINE
  5
BA
100
AcDbEntity
  8
0
  6
ByLayer
 62
   48
420
4733445
370
   -3
100
AcDbLine
 10
583.1361905687148
 20
324.6875064883368
 11
571.1361905687096
 21
324.6875064883369
  0
LINE
  5
BB
100
AcDbEntity
  8
0
  6
ByLayer
 62
   48
420
4733445
370
   -3
100
AcDbLine
 10
1175.136190568704
 20
324.6875064883344
 11
1187.13619056871
 21
324.6875064883344
  0
LINE
  5
BC
100
AcDbEntity
  8
0
  6
ByLayer
 62
   48
420
4733445
370
   -3
100
AcDbLine
 10
1187.136190568709
 20
324.6875064883344
 11
1187.136190568709
 21
309.6875064883345
  0
LINE
  5
BD
100
AcDbEntity
  8
0
  6
ByLayer
 62
   48
420
4733445
370
   -3
100
AcDbLine
 10
1175.136190568704
 20
309.6875064883345
 11
1187.13619056871
 21
309.6875064883345
  0
LINE
  5
BE
100
AcDbEntity
  8
0
  6
ByLayer
 62
   48
420
4733445
370
   -3
100
AcDbLine
 10
1175.136190568704
 20
309.6875064883345
 11
1175.136190568704
 21
324.6875064883344
  0
LINE
  5
BF
100
AcDbEntity
  8
0
  6
ByLayer
 62
   48
420
4733445
370
   -3
100
AcDbLine
 10
887.1361905687091
 20
324.6875064883356
 11
887.1361905687091
 21
309.6875064883357
  0
LINE
  5
C0
100
AcDbEntity
  8
0
  6
ByLayer
 62
   48
420
4733445
370
   -3
100
AcDbLine
 10
875.136190568704
 20
309.6875064883357
 11
887.1361905687093
 21
309.6875064883357
  0
LINE
  5
C1
100
AcDbEntity
  8
0
  6
ByLayer
 62
   48
420
4733445
370
   -3
100
AcDbLine
 10
875.136190568704
 20
309.6875064883357
 11
875.136190568704
 21
324.6875064883356
  0
LINE
  5
C2
100
AcDbEntity
  8
0
  6
ByLayer
 62
   48
420
4733445
370
   -3
100
AcDbLine
 10
875.1361905687041
 20
324.6875064883356
 11
887.1361905687094
 21
324.6875064883356
  0
ARC
  5
C3
100
AcDbEntity
  8
0
  6
ByLayer
 62
   48
420
4733445
370
   -3
100
AcDbCircle
 10
1421.41619056871
 20
896.2561905687106
 40
2
100
AcDbArc
 50
0
 51
90.00000000002461
  0
ARC
  5
C4
100
AcDbEntity
  8
0
  6
ByLayer
 62
   48
420
4733445
370
   -3
100
AcDbCircle
 10
1421.41619056871
 20
877.7561905687114
 40
2
100
AcDbArc
 50
270
 51
2.67675e-011
  0
ARC
  5
C5
100
AcDbEntity
  8
0
  6
ByLayer
 62
   48
420
4733445
370
   -3
100
AcDbCircle
 10
1392.41619056871
 20
865.8118917764421
 40
2
100
AcDbArc
 50
89.99999999995572
 51
180
  0
ARC
  5
C6
100
AcDbEntity
  8
0
  6
ByLayer
 62
   48
420
4733445
370
   -3
100
AcDbCircle
 10
1392.41619056871
 20
857.111891776442
 40
2
100
AcDbArc
 50
179.9999999999961
 51
270
  0
ARC
  5
C7
100
AcDbEntity
  8
0
  6
ByLayer
 62
   48
420
4733445
370
   -3
100
AcDbCircle
 10
1259.266190568705
 20
863.8038094312891
 40
1.599999999999948
100
AcDbArc
 50
270
 51
90.00000000000152
  0
ARC
  5
C8
100
AcDbEntity
  8
0
  6
ByLayer
 62
   48
420
4733445
370
   -3
100
AcDbCircle
 10
1257.266190568705
 20
869.2038094312891
 40
2
100
AcDbArc
 50
0
 51
90.00000000004427
  0
ARC
  5
C9
100
AcDbEntity
  8
0
  6
ByLayer
 62
   48
420
4733445
370
   -3
100
AcDbCircle
 10
1248.566190568705
 20
869.2038094312891
 40
2
100
AcDbArc
 50
90
 51
180.0000000000039
  0
ARC
  5
CA
100
AcDbEntity
  8
0
  6
ByLayer
 62
   48
420
4733445
370
   -3
100
AcDbCircle
 10
1246.566190568705
 20
863.8038094312891
 40
1.599999999999971
100
AcDbArc
 50
90
 51
270.0000000000034
  0
ARC
  5
CB
100
AcDbEntity
  8
0
  6
ByLayer
 62
   48
420
4733445
370
   -3
100
AcDbCircle
 10
971.2661905687046
 20
863.8038094312891
 40
1.599999999999948
100
AcDbArc
 50
270
 51
89.99999999998911
  0
ARC
  5
CC
100
AcDbEntity
  8
0
  6
ByLayer
 62
   48
420
4733445
370
   -3
100
AcDbCircle
 10
969.2661905687046
 20
869.2038094312891
 40
2
100
AcDbArc
 50
0
 51
90.00000000000438
  0
ARC
  5
CD
100
AcDbEntity
  8
0
  6
ByLayer
 62
   48
420
4733445
370
   -3
100
AcDbCircle
 10
960.5661905687047
 20
869.2038094312891
 40
2
100
AcDbArc
 50
90
 51
180.0000000000032
  0
ARC
  5
CE
100
AcDbEntity
  8
0
  6
ByLayer
 62
   48
420
4733445
370
   -3
100
AcDbCircle
 10
958.5661905687047
 20
863.8038094312891
 40
1.599999999999971
100
AcDbArc
 50
90
 51
269.9999999999669
  0
ARC
  5
CF
100
AcDbEntity
  8
0
  6
ByLayer
 62
   48
420
4733445
370
   -3
100
AcDbCircle
 10
669.2661905687094
 20
863.8038094312891
 40
1.599999999999964
100
AcDbArc
 50
270
 51
89.99999999998514
  0
ARC
  5
D0
100
AcDbEntity
  8
0
  6
ByLayer
 62
   48
420
4733445
370
   -3
100
AcDbCircle
 10
667.2661905687095
 20
869.2038094312891
 40
2
100
AcDbArc
 50
0
 51
90.00000000000463
  0
ARC
  5
D1
100
AcDbEntity
  8
0
  6
ByLayer
 62
   48
420
4733445
370
   -3
100
AcDbCircle
 10
658.5661905687095
 20
869.2038094312891
 40
2
100
AcDbArc
 50
89.99999999999537
 51
180
  0
ARC
  5
D2
100
AcDbEntity
  8
0
  6
ByLayer
 62
   48
420
4733445
370
   -3
100
AcDbCircle
 10
656.5661905687097
 20
863.8038094312891
 40
1.599999999999964
100
AcDbArc
 50
90.00000000001486
 51
270
  0
ARC
  5
D3
100
AcDbEntity
  8
0
  6
ByLayer
 62
   48
420
4733445
370
   -3
100
AcDbCircle
 10
367.2661905687145
 20
863.8038094312891
 40
1.599999999999971
100
AcDbArc
 50
270.0000000000331
 51
90
  0
ARC
  5
D4
100
AcDbEntity
  8
0
  6
ByLayer
 62
   48
420
4733445
370
   -3
100
AcDbCircle
 10
365.2661905687145
 20
869.2038094312891
 40
2
100
AcDbArc
 50
8.803799999999999e-012
 51
90
  0
ARC
  5
D5
100
AcDbEntity
  8
0
  6
ByLayer
 62
   48
420
4733445
370
   -3
100
AcDbCircle
 10
356.5661905687146
 20
869.2038094312891
 40
2
100
AcDbArc
 50
89.99999999999679
 51
180
  0
ARC
  5
D6
100
AcDbEntity
  8
0
  6
ByLayer
 62
   48
420
4733445
370
   -3
100
AcDbCircle
 10
354.5661905687146
 20
863.8038094312891
 40
1.599999999999948
100
AcDbArc
 50
90.00000000000468
 51
270
  0
CIRCLE
  5
D7
100
AcDbEntity
  8
0
  6
ByLayer
 62
   48
420
4733445
370
   -3
100
AcDbCircle
 10
1114.916190568709
 20
858.5177094312924
 40
4.249999999999996
  0
CIRCLE
  5
D8
100
AcDbEntity
  8
0
  6
ByLayer
 62
   48
420
4733445
370
   -3
100
AcDbCircle
 10
814.9161905687098
 20
858.5177094312924
 40
4.250000000000008
  0
CIRCLE
  5
D9
100
AcDbEntity
  8
0
  6
ByLayer
 62
   48
420
4733445
370
   -3
100
AcDbCircle
 10
510.91619056871
 20
858.5177094312924
 40
4.712290568707756
  0
CIRCLE
  5
DA
100
AcDbEntity
  8
0
  6
ByLayer
 62
   48
420
4733445
370
   -3
100
AcDbCircle
 10
210.9161905687096
 20
858.5177094312924
 40
4.249999999999982
  0
CIRCLE
  5
DB
100
AcDbEntity
  8
0
  6
ByLayer
 62
   48
420
4733445
370
   -3
100
AcDbCircle
 10
1388.41619056871
 20
877.7038094312888
 40
4.25
  0
ARC
  5
DC
100
AcDbEntity
  8
0
  6
ByLayer
 62
   48
420
4733445
370
   -3
100
AcDbCircle
 10
172.8161905687094
 20
883.2561905687108
 40
3
100
AcDbArc
 50
0
 51
90.00000000000993
  0
ARC
  5
DD
100
AcDbEntity
  8
0
  6
ByLayer
 62
   48
420
4733445
370
   -3
100
AcDbCircle
 10
172.8161905687094
 20
858.2038094312877
 40
2.999999999999999
100
AcDbArc
 50
270
 51
7.1753e-012
  0
LINE
  5
DE
100
AcDbEntity
  8
0
  6
ByLayer
 62
   48
420
4733445
370
   -3
100
AcDbLine
 10
175.8161905687093
 20
858.2038094312877
 11
175.8161905687093
 21
883.2561905687108
  0
LINE
  5
DF
100
AcDbEntity
  8
0
  6
ByLayer
 62
   48
420
4733445
370
   -3
100
AcDbLine
 10
135.8161905687092
 20
855.2038094312877
 11
172.8161905687094
 21
855.2038094312877
  0
LINE
  5
E0
100
AcDbEntity
  8
0
  6
ByLayer
 62
   48
420
4733445
370
   -3
100
AcDbLine
 10
135.8161905687092
 20
855.2038094312877
 11
135.8161905687092
 21
886.2561905687108
  0
LINE
  5
E1
100
AcDbEntity
  8
0
  6
ByLayer
 62
   48
420
4733445
370
   -3
100
AcDbLine
 10
135.8161905687092
 20
886.2561905687108
 11
135.8161905687092
 21
898.2561905687108
  0
LINE
  5
E2
100
AcDbEntity
  8
0
  6
ByLayer
 62
   48
420
4733445
370
   -3
100
AcDbLine
 10
135.8161905687092
 20
846.2038094312892
 11
135.8161905687092
 21
855.2038094312877
  0
LINE
  5
E3
100
AcDbEntity
  8
0
  6
ByLayer
 62
   48
420
4733445
370
   -3
100
AcDbLine
 10
172.8161905687094
 20
886.2561905687108
 11
135.8161905687092
 21
886.2561905687108
  0
LINE
  5
E4
100
AcDbEntity
  8
0
  6
ByLayer
 62
   48
420
4733445
370
   -3
100
AcDbLine
 10
135.8161905687093
 20
846.2038094312892
 11
356.9161905687146
 21
846.2038094312892
  0
LINE
  5
E5
100
AcDbEntity
  8
0
  6
ByLayer
 62
   48
420
4733445
370
   -3
100
AcDbLine
 10
356.9161905687146
 20
846.2038094312892
 11
356.9161905687146
 21
862.2038094312892
  0
LINE
  5
E6
100
AcDbEntity
  8
0
  6
ByLayer
 62
   48
420
4733445
370
   -3
100
AcDbLine
 10
356.9161905687146
 20
862.2038094312892
 11
354.5661905687146
 21
862.2038094312892
  0
LINE
  5
E7
100
AcDbEntity
  8
0
  6
ByLayer
 62
   48
420
4733445
370
   -3
100
AcDbLine
 10
354.5661905687146
 20
865.403809431289
 11
354.5661905687146
 21
869.2038094312891
  0
LINE
  5
E8
100
AcDbEntity
  8
0
  6
ByLayer
 62
   48
420
4733445
370
   -3
100
AcDbLine
 10
356.5661905687146
 20
871.2038094312891
 11
365.2661905687146
 21
871.2038094312891
  0
LINE
  5
E9
100
AcDbEntity
  8
0
  6
ByLayer
 62
   48
420
4733445
370
   -3
100
AcDbLine
 10
367.2661905687145
 20
869.2038094312891
 11
367.2661905687145
 21
865.403809431289
  0
LINE
  5
EA
100
AcDbEntity
  8
0
  6
ByLayer
 62
   48
420
4733445
370
   -3
100
AcDbLine
 10
367.2661905687146
 20
862.2038094312892
 11
364.9161905687146
 21
862.2038094312892
  0
LINE
  5
EB
100
AcDbEntity
  8
0
  6
ByLayer
 62
   48
420
4733445
370
   -3
100
AcDbLine
 10
364.9161905687146
 20
862.2038094312892
 11
364.9161905687146
 21
846.2038094312892
  0
LINE
  5
EC
100
AcDbEntity
  8
0
  6
ByLayer
 62
   48
420
4733445
370
   -3
100
AcDbLine
 10
658.9161905687096
 20
846.2038094312892
 11
364.9161905687146
 21
846.2038094312892
  0
LINE
  5
ED
100
AcDbEntity
  8
0
  6
ByLayer
 62
   48
420
4733445
370
   -3
100
AcDbLine
 10
658.9161905687096
 20
846.2038094312892
 11
658.9161905687096
 21
862.2038094312891
  0
LINE
  5
EE
100
AcDbEntity
  8
0
  6
ByLayer
 62
   48
420
4733445
370
   -3
100
AcDbLine
 10
658.9161905687096
 20
862.2038094312891
 11
656.5661905687097
 21
862.2038094312891
  0
LINE
  5
EF
100
AcDbEntity
  8
0
  6
ByLayer
 62
   48
420
4733445
370
   -3
100
AcDbLine
 10
656.5661905687095
 20
865.403809431289
 11
656.5661905687095
 21
869.2038094312891
  0
LINE
  5
F0
100
AcDbEntity
  8
0
  6
ByLayer
 62
   48
420
4733445
370
   -3
100
AcDbLine
 10
658.5661905687095
 20
871.2038094312891
 11
667.2661905687095
 21
871.2038094312891
  0
LINE
  5
F1
100
AcDbEntity
  8
0
  6
ByLayer
 62
   48
420
4733445
370
   -3
100
AcDbLine
 10
669.2661905687095
 20
865.403809431289
 11
669.2661905687095
 21
869.2038094312891
  0
LINE
  5
F2
100
AcDbEntity
  8
0
  6
ByLayer
 62
   48
420
4733445
370
   -3
100
AcDbLine
 10
666.9161905687096
 20
862.2038094312891
 11
669.2661905687094
 21
862.2038094312891
  0
LINE
  5
F3
100
AcDbEntity
  8
0
  6
ByLayer
 62
   48
420
4733445
370
   -3
100
AcDbLine
 10
666.9161905687096
 20
846.2038094312892
 11
666.9161905687096
 21
862.2038094312891
  0
LINE
  5
F4
100
AcDbEntity
  8
0
  6
ByLayer
 62
   48
420
4733445
370
   -3
100
AcDbLine
 10
666.9161905687096
 20
846.2038094312892
 11
960.9161905687045
 21
846.2038094312891
  0
LINE
  5
F5
100
AcDbEntity
  8
0
  6
ByLayer
 62
   48
420
4733445
370
   -3
100
AcDbLine
 10
960.9161905687046
 20
862.2038094312891
 11
960.9161905687046
 21
846.2038094312891
  0
LINE
  5
F6
100
AcDbEntity
  8
0
  6
ByLayer
 62
   48
420
4733445
370
   -3
100
AcDbLine
 10
958.5661905687047
 20
862.2038094312891
 11
960.9161905687046
 21
862.2038094312891
  0
LINE
  5
F7
100
AcDbEntity
  8
0
  6
ByLayer
 62
   48
420
4733445
370
   -3
100
AcDbLine
 10
958.5661905687047
 20
869.2038094312891
 11
958.5661905687047
 21
865.403809431289
  0
LINE
  5
F8
100
AcDbEntity
  8
0
  6
ByLayer
 62
   48
420
4733445
370
   -3
100
AcDbLine
 10
969.2661905687046
 20
871.2038094312891
 11
960.5661905687047
 21
871.2038094312891
  0
LINE
  5
F9
100
AcDbEntity
  8
0
  6
ByLayer
 62
   48
420
4733445
370
   -3
100
AcDbLine
 10
971.2661905687046
 20
865.403809431289
 11
971.2661905687046
 21
869.2038094312891
  0
LINE
  5
FA
100
AcDbEntity
  8
0
  6
ByLayer
 62
   48
420
4733445
370
   -3
100
AcDbLine
 10
968.9161905687045
 20
862.2038094312891
 11
971.2661905687046
 21
862.2038094312891
  0
LINE
  5
FB
100
AcDbEntity
  8
0
  6
ByLayer
 62
   48
420
4733445
370
   -3
100
AcDbLine
 10
968.9161905687045
 20
846.2038094312891
 11
968.9161905687045
 21
862.2038094312891
  0
LINE
  5
FC
100
AcDbEntity
  8
0
  6
ByLayer
 62
   48
420
4733445
370
   -3
100
AcDbLine
 10
1248.916190568704
 20
846.2038094312891
 11
968.9161905687045
 21
846.2038094312891
  0
LINE
  5
FD
100
AcDbEntity
  8
0
  6
ByLayer
 62
   48
420
4733445
370
   -3
100
AcDbLine
 10
1248.916190568704
 20
862.2038094312891
 11
1248.916190568704
 21
846.2038094312891
  0
LINE
  5
FE
100
AcDbEntity
  8
0
  6
ByLayer
 62
   48
420
4733445
370
   -3
100
AcDbLine
 10
1246.566190568705
 20
862.2038094312891
 11
1248.916190568704
 21
862.2038094312891
  0
LINE
  5
FF
100
AcDbEntity
  8
0
  6
ByLayer
 62
   48
420
4733445
370
   -3
100
AcDbLine
 10
1246.566190568705
 20
869.2038094312891
 11
1246.566190568705
 21
865.403809431289
  0
LINE
  5
100
100
AcDbEntity
  8
0
  6
ByLayer
 62
   48
420
4733445
370
   -3
100
AcDbLine
 10
1257.266190568705
 20
871.2038094312891
 11
1248.566190568705
 21
871.2038094312891
  0
LINE
  5
101
100
AcDbEntity
  8
0
  6
ByLayer
 62
   48
420
4733445
370
   -3
100
AcDbLine
 10
1259.266190568705
 20
865.403809431289
 11
1259.266190568705
 21
869.2038094312891
  0
LINE
  5
102
100
AcDbEntity
  8
0
  6
ByLayer
 62
   48
420
4733445
370
   -3
100
AcDbLine
 10
1256.916190568704
 20
862.2038094312891
 11
1259.266190568705
 21
862.2038094312891
  0
LINE
  5
103
100
AcDbEntity
  8
0
  6
ByLayer
 62
   48
420
4733445
370
   -3
100
AcDbLine
 10
1256.916190568704
 20
846.2038094312891
 11
1256.916190568704
 21
862.2038094312891
  0
LINE
  5
104
100
AcDbEntity
  8
0
  6
ByLayer
 62
   48
420
4733445
370
   -3
100
AcDbLine
 10
1411.41619056871
 20
846.203809431289
 11
1256.916190568704
 21
846.203809431289
  0
LINE
  5
105
100
AcDbEntity
  8
0
  6
ByLayer
 62
   48
420
4733445
370
   -3
100
AcDbLine
 10
1411.41619056871
 20
846.203809431289
 11
1411.41619056871
 21
857.4618917764419
  0
LINE
  5
106
100
AcDbEntity
  8
0
  6
ByLayer
 62
   48
420
4733445
370
   -3
100
AcDbLine
 10
1411.41619056871
 20
857.4618917764419
 11
1399.41619056871
 21
857.4618917764419
  0
LINE
  5
107
100
AcDbEntity
  8
0
  6
ByLayer
 62
   48
420
4733445
370
   -3
100
AcDbLine
 10
1399.41619056871
 20
857.4618917764419
 11
1399.41619056871
 21
855.111891776442
  0
ARC
  5
108
100
AcDbEntity
  8
0
  6
ByLayer
 62
   48
420
4733445
370
   -3
100
AcDbCircle
 10
1397.81619056871
 20
855.111891776442
 40
1.600000000000005
100
AcDbArc
 50
180
 51
360
  0
LINE
  5
109
100
AcDbEntity
  8
0
  6
ByLayer
 62
   48
420
4733445
370
   -3
100
AcDbLine
 10
1396.21619056871
 20
855.111891776442
 11
1392.41619056871
 21
855.111891776442
  0
LINE
  5
10A
100
AcDbEntity
  8
0
  6
ByLayer
 62
   48
420
4733445
370
   -3
100
AcDbLine
 10
1390.41619056871
 20
857.111891776442
 11
1390.41619056871
 21
865.8118917764421
  0
LINE
  5
10B
100
AcDbEntity
  8
0
  6
ByLayer
 62
   48
420
4733445
370
   -3
100
AcDbLine
 10
1392.41619056871
 20
867.8118917764421
 11
1396.21619056871
 21
867.8118917764421
  0
ARC
  5
10C
100
AcDbEntity
  8
0
  6
ByLayer
 62
   48
420
4733445
370
   -3
100
AcDbCircle
 10
1397.81619056871
 20
867.8118917764421
 40
1.6
100
AcDbArc
 50
360
 51
180
  0
LINE
  5
10D
100
AcDbEntity
  8
0
  6
ByLayer
 62
   48
420
4733445
370
   -3
100
AcDbLine
 10
1399.41619056871
 20
867.8118917764421
 11
1399.41619056871
 21
865.4618917764419
  0
LINE
  5
10E
100
AcDbEntity
  8
0
  6
ByLayer
 62
   48
420
4733445
370
   -3
100
AcDbLine
 10
1399.41619056871
 20
865.4618917764419
 11
1411.41619056871
 21
865.4618917764419
  0
LINE
  5
10F
100
AcDbEntity
  8
0
  6
ByLayer
 62
   48
420
4733445
370
   -3
100
AcDbLine
 10
1411.41619056871
 20
865.4618917764419
 11
1411.41619056871
 21
875.7561905687114
  0
LINE
  5
110
100
AcDbEntity
  8
0
  6
ByLayer
 62
   48
420
4733445
370
   -3
100
AcDbLine
 10
1411.41619056871
 20
875.7561905687114
 11
1421.41619056871
 21
875.7561905687114
  0
LINE
  5
111
100
AcDbEntity
  8
0
  6
ByLayer
 62
   48
420
4733445
370
   -3
100
AcDbLine
 10
1423.41619056871
 20
877.7561905687114
 11
1423.41619056871
 21
896.2561905687106
  0
LINE
  5
112
100
AcDbEntity
  8
0
  6
ByLayer
 62
   48
420
4733445
370
   -3
100
AcDbLine
 10
135.8161905687093
 20
898.2561905687108
 11
1421.41619056871
 21
898.2561905687108
  0
LINE
  5
113
100
AcDbEntity
  8
0
  6
ByLayer
 62
   48
420
4733445
370
   -3
100
AcDbLine
 10
204.9161905687095
 20
883.9538094312879
 11
216.9161905687145
 21
883.9538094312879
  0
LINE
  5
114
100
AcDbEntity
  8
0
  6
ByLayer
 62
   48
420
4733445
370
   -3
100
AcDbLine
 10
216.9161905687146
 20
868.9538094312879
 11
216.9161905687147
 21
883.9538094312879
  0
LINE
  5
115
100
AcDbEntity
  8
0
  6
ByLayer
 62
   48
420
4733445
370
   -3
100
AcDbLine
 10
216.9161905687147
 20
868.9538094312879
 11
204.9161905687094
 21
868.9538094312881
  0
LINE
  5
116
100
AcDbEntity
  8
0
  6
ByLayer
 62
   48
420
4733445
370
   -3
100
AcDbLine
 10
204.9161905687095
 20
868.9538094312881
 11
204.9161905687096
 21
883.9538094312879
  0
LINE
  5
117
100
AcDbEntity
  8
0
  6
ByLayer
 62
   48
420
4733445
370
   -3
100
AcDbLine
 10
516.9161905687148
 20
868.9538094312879
 11
516.9161905687149
 21
883.9538094312878
  0
LINE
  5
118
100
AcDbEntity
  8
0
  6
ByLayer
 62
   48
420
4733445
370
   -3
100
AcDbLine
 10
516.9161905687148
 20
868.9538094312879
 11
504.9161905687096
 21
868.9538094312879
  0
LINE
  5
119
100
AcDbEntity
  8
0
  6
ByLayer
 62
   48
420
4733445
370
   -3
100
AcDbLine
 10
504.9161905687097
 20
868.9538094312881
 11
504.9161905687099
 21
883.9538094312879
  0
LINE
  5
11A
100
AcDbEntity
  8
0
  6
ByLayer
 62
   48
420
4733445
370
   -3
100
AcDbLine
 10
504.9161905687099
 20
883.9538094312879
 11
516.9161905687148
 21
883.9538094312878
  0
LINE
  5
11B
100
AcDbEntity
  8
0
  6
ByLayer
 62
   48
420
4733445
370
   -3
100
AcDbLine
 10
1392.082364778064
 20
871.3538094312889
 11
1395.748538987418
 21
877.7038094312887
  0
LINE
  5
11C
100
AcDbEntity
  8
0
  6
ByLayer
 62
   48
420
4733445
370
   -3
100
AcDbLine
 10
1384.750016359356
 20
871.3538094312889
 11
1392.082364778064
 21
871.3538094312889
  0
LINE
  5
11D
100
AcDbEntity
  8
0
  6
ByLayer
 62
   48
420
4733445
370
   -3
100
AcDbLine
 10
1381.083842150002
 20
877.7038094312888
 11
1384.750016359356
 21
871.3538094312891
  0
LINE
  5
11E
100
AcDbEntity
  8
0
  6
ByLayer
 62
   48
420
4733445
370
   -3
100
AcDbLine
 10
1384.750016359356
 20
884.053809431289
 11
1381.083842150002
 21
877.7038094312888
  0
LINE
  5
11F
100
AcDbEntity
  8
0
  6
ByLayer
 62
   48
420
4733445
370
   -3
100
AcDbLine
 10
1392.082364778064
 20
884.053809431289
 11
1384.750016359356
 21
884.053809431289
  0
LINE
  5
120
100
AcDbEntity
  8
0
  6
ByLayer
 62
   48
420
4733445
370
   -3
100
AcDbLine
 10
1395.748538987418
 20
877.7038094312888
 11
1392.082364778064
 21
884.053809431289
  0
LINE
  5
121
100
AcDbEntity
  8
0
  6
ByLayer
 62
   48
420
4733445
370
   -3
100
AcDbLine
 10
1108.916190568704
 20
868.9538094312878
 11
1120.91619056871
 21
868.9538094312879
  0
LINE
  5
122
100
AcDbEntity
  8
0
  6
ByLayer
 62
   48
420
4733445
370
   -3
100
AcDbLine
 10
1108.916190568704
 20
868.9538094312878
 11
1108.916190568704
 21
883.9538094312878
  0
LINE
  5
123
100
AcDbEntity
  8
0
  6
ByLayer
 62
   48
420
4733445
370
   -3
100
AcDbLine
 10
1120.91619056871
 20
883.9538094312878
 11
1108.916190568705
 21
883.9538094312878
  0
LINE
  5
124
100
AcDbEntity
  8
0
  6
ByLayer
 62
   48
420
4733445
370
   -3
100
AcDbLine
 10
1120.916190568709
 20
868.9538094312879
 11
1120.916190568709
 21
883.9538094312878
  0
LINE
  5
125
100
AcDbEntity
  8
0
  6
ByLayer
 62
   48
420
4733445
370
   -3
100
AcDbLine
 10
820.9161905687093
 20
868.9538094312879
 11
820.9161905687092
 21
883.9538094312879
  0
LINE
  5
126
100
AcDbEntity
  8
0
  6
ByLayer
 62
   48
420
4733445
370
   -3
100
AcDbLine
 10
808.9161905687042
 20
868.9538094312879
 11
820.9161905687095
 21
868.9538094312879
  0
LINE
  5
127
100
AcDbEntity
  8
0
  6
ByLayer
 62
   48
420
4733445
370
   -3
100
AcDbLine
 10
808.9161905687042
 20
868.9538094312879
 11
808.9161905687041
 21
883.9538094312878
  0
LINE
  5
128
100
AcDbEntity
  8
0
  6
ByLayer
 62
   48
420
4733445
370
   -3
100
AcDbLine
 10
820.9161905687092
 20
883.9538094312879
 11
808.9161905687042
 21
883.9538094312878
  0
CIRCLE
  5
129
100
AcDbEntity
  8
0
  6
ByLayer
 62
   48
420
4733445
370
   -3
100
AcDbCircle
 10
989.9499999999972
 20
1071.778271038238
 40
3.999999999999993
  0
CIRCLE
  5
12A
100
AcDbEntity
  8
0
  6
ByLayer
 62
   48
420
4733445
370
   -3
100
AcDbCircle
 10
1139.949999999992
 20
1133.309999999997
 40
4.000000000000054
  0
CIRCLE
  5
12B
100
AcDbEntity
  8
0
  6
ByLayer
 62
   48
420
4733445
370
   -3
100
AcDbCircle
 10
1289.949999999998
 20
1071.778271038239
 40
3.999999999999989
  0
CIRCLE
  5
12C
100
AcDbEntity
  8
0
  6
ByLayer
 62
   48
420
4733445
370
   -3
100
AcDbCircle
 10
1089.949999999997
 20
1094.349999999996
 40
3.999999999999952
  0
CIRCLE
  5
12D
100
AcDbEntity
  8
0
  6
ByLayer
 62
   48
420
4733445
370
   -3
100
AcDbCircle
 10
889.949999999997
 20
1094.349999999996
 40
3.999999999999957
  0
CIRCLE
  5
12E
100
AcDbEntity
  8
0
  6
ByLayer
 62
   48
420
4733445
370
   -3
100
AcDbCircle
 10
1189.949999999997
 20
1094.349999999996
 40
3.99999999999999
  0
CIRCLE
  5
12F
100
AcDbEntity
  8
0
  6
ByLayer
 62
   48
420
4733445
370
   -3
100
AcDbCircle
 10
889.9499999999973
 20
970.2699999999958
 40
3.999999999999987
  0
CIRCLE
  5
130
100
AcDbEntity
  8
0
  6
ByLayer
 62
   48
420
4733445
370
   -3
100
AcDbCircle
 10
1089.949999999997
 20
970.2699999999965
 40
3.999999999999977
  0
CIRCLE
  5
131
100
AcDbEntity
  8
0
  6
ByLayer
 62
   48
420
4733445
370
   -3
100
AcDbCircle
 10
1189.949999999998
 20
970.2699999999968
 40
4.000000000000002
  0
CIRCLE
  5
132
100
AcDbEntity
  8
0
  6
ByLayer
 62
   48
420
4733445
370
   -3
100
AcDbCircle
 10
837.9499999999967
 20
1133.309999999996
 40
3.999999999999969
  0
CIRCLE
  5
133
100
AcDbEntity
  8
0
  6
ByLayer
 62
   48
420
4733445
370
   -3
100
AcDbCircle
 10
337.5186091623417
 20
1108.289999999994
 40
10
  0
CIRCLE
  5
134
100
AcDbEntity
  8
0
  6
ByLayer
 62
   48
420
4733445
370
   -3
100
AcDbCircle
 10
685.9499999999967
 20
1071.778271038237
 40
3.999999999999993
  0
CIRCLE
  5
135
100
AcDbEntity
  8
0
  6
ByLayer
 62
   48
420
4733445
370
   -3
100
AcDbCircle
 10
535.950000000002
 20
1133.309999999994
 40
4.000000000000054
  0
CIRCLE
  5
136
100
AcDbEntity
  8
0
  6
ByLayer
 62
   48
420
4733445
370
   -3
100
AcDbCircle
 10
385.9499999999966
 20
1071.778271038236
 40
3.999999999999989
  0
CIRCLE
  5
137
100
AcDbEntity
  8
0
  6
ByLayer
 62
   48
420
4733445
370
   -3
100
AcDbCircle
 10
585.9499999999969
 20
1094.349999999995
 40
3.999999999999952
  0
CIRCLE
  5
138
100
AcDbEntity
  8
0
  6
ByLayer
 62
   48
420
4733445
370
   -3
100
AcDbCircle
 10
785.949999999997
 20
1094.349999999995
 40
3.999999999999957
  0
CIRCLE
  5
139
100
AcDbEntity
  8
0
  6
ByLayer
 62
   48
420
4733445
370
   -3
100
AcDbCircle
 10
485.9499999999966
 20
1094.349999999994
 40
3.99999999999999
  0
CIRCLE
  5
13A
100
AcDbEntity
  8
0
  6
ByLayer
 62
   48
420
4733445
370
   -3
100
AcDbCircle
 10
785.9499999999973
 20
970.2699999999953
 40
3.999999999999987
  0
CIRCLE
  5
13B
100
AcDbEntity
  8
0
  6
ByLayer
 62
   48
420
4733445
370
   -3
100
AcDbCircle
 10
585.9499999999973
 20
970.2699999999946
 40
3.999999999999977
  0
CIRCLE
  5
13C
100
AcDbEntity
  8
0
  6
ByLayer
 62
   48
420
4733445
370
   -3
100
AcDbCircle
 10
485.9499999999971
 20
970.2699999999942
 40
4.000000000000002
  0
CIRCLE
  5
13D
100
AcDbEntity
  8
0
  6
ByLayer
 62
   48
420
4733445
370
   -3
100
AcDbCircle
 10
185.9499999999972
 20
1094.349999999993
 40
3.999999999999919
  0
CIRCLE
  5
13E
100
AcDbEntity
  8
0
  6
ByLayer
 62
   48
420
4733445
370
   -3
100
AcDbCircle
 10
185.9499999999977
 20
970.2699999999932
 40
4.000000000000004
  0
CIRCLE
  5
13F
100
AcDbEntity
  8
0
  6
ByLayer
 62
   48
420
4733445
370
   -3
100
AcDbCircle
 10
285.9499999999916
 20
1094.349999999994
 40
4.00000000000002
  0
CIRCLE
  5
140
100
AcDbEntity
  8
0
  6
ByLayer
 62
   48
420
4733445
370
   -3
100
AcDbCircle
 10
285.949999999992
 20
970.2699999999935
 40
3.999999999999947
  0
CIRCLE
  5
141
100
AcDbEntity
  8
0
  6
ByLayer
 62
   48
420
4733445
370
   -3
100
AcDbCircle
 10
247.9500000000019
 20
1133.309999999993
 40
4.00000000000011
  0
CIRCLE
  5
142
100
AcDbEntity
  8
0
  6
ByLayer
 62
   48
420
4733445
370
   -3
100
AcDbCircle
 10
134.4499999999957
 20
950.8100000000027
 40
4.000000000000002
  0
CIRCLE
  5
143
100
AcDbEntity
  8
0
  6
ByLayer
 62
   48
420
4733445
370
   -3
100
AcDbCircle
 10
330.5323819577392
 20
950.8100000000034
 40
4.000000000000015
  0
ARC
  5
144
100
AcDbEntity
  8
0
  6
ByLayer
 62
   48
420
4733445
370
   -3
100
AcDbCircle
 10
79.44999999999706
 20
1137.309999999993
 40
2
100
AcDbArc
 50
89.99999999998809
 51
180.0000000000002
  0
ARC
  5
145
100
AcDbEntity
  8
0
  6
ByLayer
 62
   48
420
4733445
370
   -3
100
AcDbCircle
 10
108.4499999999974
 20
1017.149590024652
 40
2
100
AcDbArc
 50
2.036e-013
 51
90.00000000001251
  0
ARC
  5
146
100
AcDbEntity
  8
0
  6
ByLayer
 62
   48
420
4733445
370
   -3
100
AcDbCircle
 10
108.4499999999974
 20
1008.449590024652
 40
2
100
AcDbArc
 50
270.0000000000002
 51
3.42482e-011
  0
ARC
  5
147
100
AcDbEntity
  8
0
  6
ByLayer
 62
   48
420
4733445
370
   -3
100
AcDbCircle
 10
108.4499999999971
 20
1098.449590024652
 40
2
100
AcDbArc
 50
270.0000000000002
 51
3.44009e-011
  0
ARC
  5
148
100
AcDbEntity
  8
0
  6
ByLayer
 62
   48
420
4733445
370
   -3
100
AcDbCircle
 10
108.4499999999971
 20
1107.149590024652
 40
2
100
AcDbArc
 50
2.036e-013
 51
90.00000000001236
  0
ARC
  5
149
100
AcDbEntity
  8
0
  6
ByLayer
 62
   48
420
4733445
370
   -3
100
AcDbCircle
 10
79.44999999999716
 20
1121.309999999993
 40
2
100
AcDbArc
 50
179.9999999999658
 51
270.0000000000002
  0
ARC
  5
14A
100
AcDbEntity
  8
0
  6
ByLayer
 62
   48
420
4733445
370
   -3
100
AcDbCircle
 10
79.4499999999976
 20
994.7995900246518
 40
2
100
AcDbArc
 50
89.99999999998992
 51
180.0000000000002
  0
ARC
  5
14B
100
AcDbEntity
  8
0
  6
ByLayer
 62
   48
420
4733445
370
   -3
100
AcDbCircle
 10
79.4499999999976
 20
980.7499500246519
 40
2
100
AcDbArc
 50
180.0000000000043
 51
270.0000000000002
  0
ARC
  5
14C
100
AcDbEntity
  8
0
  6
ByLayer
 62
   48
420
4733445
370
   -3
100
AcDbCircle
 10
1313.650000000004
 20
994.799590024656
 40
2
100
AcDbArc
 50
89.99999999995536
 51
180.0000000000002
  0
ARC
  5
14D
100
AcDbEntity
  8
0
  6
ByLayer
 62
   48
420
4733445
370
   -3
100
AcDbCircle
 10
1313.650000000004
 20
980.7499500246561
 40
2
100
AcDbArc
 50
179.9999999999969
 51
270.0000000000002
  0
ARC
  5
14E
100
AcDbEntity
  8
0
  6
ByLayer
 62
   48
420
4733445
370
   -3
100
AcDbCircle
 10
1313.650000000004
 20
1121.309999999998
 40
2
100
AcDbArc
 50
179.9999999999563
 51
270.0000000000002
  0
LINE
  5
14F
100
AcDbEntity
  8
0
  6
ByLayer
 62
   48
420
4733445
370
   -3
100
AcDbLine
 10
1311.650000000004
 20
1121.309999999998
 11
1311.650000000004
 21
1139.309999999997
  0
LINE
  5
150
100
AcDbEntity
  8
0
  6
ByLayer
 62
   48
420
4733445
370
   -3
100
AcDbLine
 10
1323.650000000004
 20
1119.309999999998
 11
1313.650000000004
 21
1119.309999999998
  0
LINE
  5
151
100
AcDbEntity
  8
0
  6
ByLayer
 62
   48
420
4733445
370
   -3
100
AcDbLine
 10
1323.650000000004
 20
978.7499500246561
 11
1313.650000000004
 21
978.7499500246561
  0
LINE
  5
152
100
AcDbEntity
  8
0
  6
ByLayer
 62
   48
420
4733445
370
   -3
100
AcDbLine
 10
1313.650000000004
 20
996.799590024656
 11
1323.650000000004
 21
996.799590024656
  0
LINE
  5
153
100
AcDbEntity
  8
0
  6
ByLayer
 62
   48
420
4733445
370
   -3
100
AcDbLine
 10
1311.650000000004
 20
980.7499500246561
 11
1311.650000000004
 21
994.799590024656
  0
LINE
  5
154
100
AcDbEntity
  8
0
  6
ByLayer
 62
   48
420
4733445
370
   -3
100
AcDbLine
 10
101.4499999999977
 20
958.7499500246519
 11
101.4499999999977
 21
956.3999500246518
  0
ARC
  5
155
100
AcDbEntity
  8
0
  6
ByLayer
 62
   48
420
4733445
370
   -3
100
AcDbCircle
 10
103.0499999999978
 20
956.3999500246518
 40
1.599999999999987
100
AcDbArc
 50
180.0000000000002
 51
1.781e-013
  0
ARC
  5
156
100
AcDbEntity
  8
0
  6
ByLayer
 62
   48
420
4733445
370
   -3
100
AcDbCircle
 10
103.0499999999977
 20
969.0999500246519
 40
1.599999999999977
100
AcDbArc
 50
2.036e-013
 51
180.0000000000002
  0
LINE
  5
157
100
AcDbEntity
  8
0
  6
ByLayer
 62
   48
420
4733445
370
   -3
100
AcDbLine
 10
101.4499999999976
 20
969.0999500246519
 11
101.4499999999976
 21
966.7499500246519
  0
LINE
  5
158
100
AcDbEntity
  8
0
  6
ByLayer
 62
   48
420
4733445
370
   -3
100
AcDbLine
 10
101.4499999999975
 20
1008.799590024652
 11
101.4499999999975
 21
1006.449590024652
  0
ARC
  5
159
100
AcDbEntity
  8
0
  6
ByLayer
 62
   48
420
4733445
370
   -3
100
AcDbCircle
 10
103.0499999999976
 20
1006.449590024652
 40
1.599999999999981
100
AcDbArc
 50
180.0000000000002
 51
1.781e-013
  0
ARC
  5
15A
100
AcDbEntity
  8
0
  6
ByLayer
 62
   48
420
4733445
370
   -3
100
AcDbCircle
 10
103.0499999999976
 20
1019.149590024652
 40
1.599999999999985
100
AcDbArc
 50
2.036e-013
 51
180.0000000000002
  0
LINE
  5
15B
100
AcDbEntity
  8
0
  6
ByLayer
 62
   48
420
4733445
370
   -3
100
AcDbLine
 10
101.4499999999975
 20
1019.149590024652
 11
101.4499999999975
 21
1016.799590024652
  0
LINE
  5
15C
100
AcDbEntity
  8
0
  6
ByLayer
 62
   48
420
4733445
370
   -3
100
AcDbLine
 10
101.4499999999972
 20
1098.799590024652
 11
101.4499999999972
 21
1096.449590024652
  0
ARC
  5
15D
100
AcDbEntity
  8
0
  6
ByLayer
 62
   48
420
4733445
370
   -3
100
AcDbCircle
 10
103.0499999999972
 20
1096.449590024652
 40
1.599999999999987
100
AcDbArc
 50
180.0000000000002
 51
1.781e-013
  0
ARC
  5
15E
100
AcDbEntity
  8
0
  6
ByLayer
 62
   48
420
4733445
370
   -3
100
AcDbCircle
 10
103.0499999999972
 20
1109.149590024652
 40
1.59999999999999
100
AcDbArc
 50
4.071e-013
 51
179.9999999999999
  0
LINE
  5
15F
100
AcDbEntity
  8
0
  6
ByLayer
 62
   48
420
4733445
370
   -3
100
AcDbLine
 10
101.4499999999972
 20
1109.149590024652
 11
101.4499999999972
 21
1106.799590024652
  0
LINE
  5
160
100
AcDbEntity
  8
0
  6
ByLayer
 62
   48
420
4733445
370
   -3
100
AcDbLine
 10
89.44999999999762
 20
978.7499500246519
 11
79.4499999999976
 21
978.7499500246519
  0
LINE
  5
161
100
AcDbEntity
  8
0
  6
ByLayer
 62
   48
420
4733445
370
   -3
100
AcDbLine
 10
77.4499999999976
 20
980.7499500246519
 11
77.4499999999976
 21
994.7995900246518
  0
LINE
  5
162
100
AcDbEntity
  8
0
  6
ByLayer
 62
   48
420
4733445
370
   -3
100
AcDbLine
 10
79.4499999999976
 20
996.7995900246518
 11
89.44999999999762
 21
996.7995900246518
  0
LINE
  5
163
100
AcDbEntity
  8
0
  6
ByLayer
 62
   48
420
4733445
370
   -3
100
AcDbLine
 10
89.44999999999717
 20
1119.309999999993
 11
79.44999999999716
 21
1119.309999999993
  0
LINE
  5
164
100
AcDbEntity
  8
0
  6
ByLayer
 62
   48
420
4733445
370
   -3
100
AcDbLine
 10
77.44999999999716
 20
1121.309999999993
 11
77.44999999999705
 21
1137.309999999993
  0
LINE
  5
165
100
AcDbEntity
  8
0
  6
ByLayer
 62
   48
420
4733445
370
   -3
100
AcDbLine
 10
108.4499999999971
 20
1109.149590024652
 11
104.649999999997
 21
1109.149590024652
  0
LINE
  5
166
100
AcDbEntity
  8
0
  6
ByLayer
 62
   48
420
4733445
370
   -3
100
AcDbLine
 10
110.4499999999971
 20
1098.449590024652
 11
110.4499999999971
 21
1107.149590024652
  0
LINE
  5
167
100
AcDbEntity
  8
0
  6
ByLayer
 62
   48
420
4733445
370
   -3
100
AcDbLine
 10
104.649999999997
 20
1096.449590024652
 11
108.4499999999971
 21
1096.449590024652
  0
LINE
  5
168
100
AcDbEntity
  8
0
  6
ByLayer
 62
   48
420
4733445
370
   -3
100
AcDbLine
 10
104.6499999999974
 20
1006.449590024652
 11
108.4499999999974
 21
1006.449590024652
  0
LINE
  5
169
100
AcDbEntity
  8
0
  6
ByLayer
 62
   48
420
4733445
370
   -3
100
AcDbLine
 10
108.4499999999974
 20
1019.149590024652
 11
104.6499999999974
 21
1019.149590024652
  0
LINE
  5
16A
100
AcDbEntity
  8
0
  6
ByLayer
 62
   48
420
4733445
370
   -3
100
AcDbLine
 10
110.4499999999974
 20
1008.449590024652
 11
110.4499999999974
 21
1017.149590024652
  0
LINE
  5
16B
100
AcDbEntity
  8
0
  6
ByLayer
 62
   48
420
4733445
370
   -3
100
AcDbLine
 10
1148.894271909991
 20
1139.309999999997
 11
1311.650000000004
 21
1139.309999999997
  0
LINE
  5
16C
100
AcDbEntity
  8
0
  6
ByLayer
 62
   48
420
4733445
370
   -3
100
AcDbLine
 10
79.44999999999706
 20
1139.309999999993
 11
238.9499999999968
 21
1139.309999999993
  0
LINE
  5
16D
100
AcDbEntity
  8
0
  6
ByLayer
 62
   48
420
4733445
370
   -3
100
AcDbLine
 10
238.9499999999968
 20
1139.309999999993
 11
256.8942719100011
 21
1139.309999999994
  0
LINE
  5
16E
100
AcDbEntity
  8
0
  6
ByLayer
 62
   48
420
4733445
370
   -3
100
AcDbLine
 10
256.8942719100011
 20
1139.309999999994
 11
527.0057280900029
 21
1139.309999999994
  0
LINE
  5
16F
100
AcDbEntity
  8
0
  6
ByLayer
 62
   48
420
4733445
370
   -3
100
AcDbLine
 10
527.0057280900028
 20
1139.309999999994
 11
544.9499999999969
 21
1139.309999999994
  0
LINE
  5
170
100
AcDbEntity
  8
0
  6
ByLayer
 62
   48
420
4733445
370
   -3
100
AcDbLine
 10
544.9499999999969
 20
1139.309999999994
 11
829.0057280899977
 21
1139.309999999996
  0
LINE
  5
171
100
AcDbEntity
  8
0
  6
ByLayer
 62
   48
420
4733445
370
   -3
100
AcDbLine
 10
829.0057280899977
 20
1139.309999999996
 11
846.8942719099958
 21
1139.309999999996
  0
LINE
  5
172
100
AcDbEntity
  8
0
  6
ByLayer
 62
   48
420
4733445
370
   -3
100
AcDbLine
 10
846.8942719099958
 20
1139.309999999996
 11
1130.949999999997
 21
1139.309999999997
  0
LINE
  5
173
100
AcDbEntity
  8
0
  6
ByLayer
 62
   48
420
4733445
370
   -3
100
AcDbLine
 10
1130.949999999997
 20
1139.309999999997
 11
1148.894271909991
 21
1139.309999999997
  0
LINE
  5
174
100
AcDbEntity
  8
0
  6
ByLayer
 62
   48
420
4733445
370
   -3
100
AcDbLine
 10
1323.650000000004
 20
1119.309999999998
 11
1323.650000000004
 21
996.7995900246561
  0
LINE
  5
175
100
AcDbEntity
  8
0
  6
ByLayer
 62
   48
420
4733445
370
   -3
100
AcDbLine
 10
1295.950000000002
 20
1008.159999999986
 11
1283.950000000002
 21
1008.159999999986
  0
LINE
  5
176
100
AcDbEntity
  8
0
  6
ByLayer
 62
   48
420
4733445
370
   -3
100
AcDbLine
 10
1295.950000000003
 20
937.309999999997
 11
1295.950000000003
 21
1008.159999999986
  0
LINE
  5
177
100
AcDbEntity
  8
0
  6
ByLayer
 62
   48
420
4733445
370
   -3
100
AcDbLine
 10
1295.950000000003
 20
937.309999999997
 11
1323.650000000004
 21
937.3099999999971
  0
LINE
  5
178
100
AcDbEntity
  8
0
  6
ByLayer
 62
   48
420
4733445
370
   -3
100
AcDbLine
 10
1323.650000000004
 20
937.3099999999971
 11
1323.650000000004
 21
978.7499500246561
  0
LINE
  5
179
100
AcDbEntity
  8
0
  6
ByLayer
 62
   48
420
4733445
370
   -3
100
AcDbLine
 10
1148.894271909991
 20
1132.309999999996
 11
1148.894271909991
 21
1139.309999999997
  0
ARC
  5
17A
100
AcDbEntity
  8
0
  6
ByLayer
 62
   48
420
4733445
370
   -3
100
AcDbCircle
 10
1139.949999999992
 20
1133.309999999997
 40
8.999999999999936
100
AcDbArc
 50
180.0000008537738
 51
353.6206297915533
  0
LINE
  5
17B
100
AcDbEntity
  8
0
  6
ByLayer
 62
   48
420
4733445
370
   -3
100
AcDbLine
 10
1130.949999999997
 20
1139.309999999997
 11
1130.949999999992
 21
1133.309999865886
  0
LINE
  5
17C
100
AcDbEntity
  8
0
  6
ByLayer
 62
   48
420
4733445
370
   -3
100
AcDbLine
 10
846.8942719099958
 20
1133.309999999996
 11
846.8942719099958
 21
1139.309999999996
  0
ARC
  5
17D
100
AcDbEntity
  8
0
  6
ByLayer
 62
   48
420
4733445
370
   -3
100
AcDbCircle
 10
837.9499999999967
 20
1134.309999999995
 40
8.999999999999932
100
AcDbArc
 50
186.3793702084383
 51
353.6206297915621
  0
LINE
  5
17E
100
AcDbEntity
  8
0
  6
ByLayer
 62
   48
420
4733445
370
   -3
100
AcDbLine
 10
829.0057280899977
 20
1133.309999999996
 11
829.0057280899977
 21
1139.309999999996
  0
LINE
  5
17F
100
AcDbEntity
  8
0
  6
ByLayer
 62
   48
420
4733445
370
   -3
100
AcDbLine
 10
544.9499999999969
 20
1139.309999999994
 11
544.9500000000019
 21
1133.309999865884
  0
ARC
  5
180
100
AcDbEntity
  8
0
  6
ByLayer
 62
   48
420
4733445
370
   -3
100
AcDbCircle
 10
535.950000000002
 20
1133.309999999994
 40
8.999999999999936
100
AcDbArc
 50
186.3793702084472
 51
359.9999991462266
  0
LINE
  5
181
100
AcDbEntity
  8
0
  6
ByLayer
 62
   48
420
4733445
370
   -3
100
AcDbLine
 10
527.0057280900029
 20
1132.309999999994
 11
527.0057280900028
 21
1139.309999999994
  0
LINE
  5
182
100
AcDbEntity
  8
0
  6
ByLayer
 62
   48
420
4733445
370
   -3
100
AcDbLine
 10
256.8942719100011
 20
1132.309999999994
 11
256.8942719100011
 21
1139.309999999994
  0
ARC
  5
183
100
AcDbEntity
  8
0
  6
ByLayer
 62
   48
420
4733445
370
   -3
100
AcDbCircle
 10
247.9500000000019
 20
1133.309999999993
 40
8.999999999999972
100
AcDbArc
 50
180.0000000000002
 51
353.6206297915641
  0
LINE
  5
184
100
AcDbEntity
  8
0
  6
ByLayer
 62
   48
420
4733445
370
   -3
100
AcDbLine
 10
238.9499999999968
 20
1139.309999999993
 11
238.9499999999969
 21
1133.309999999993
  0
LINE
  5
185
100
AcDbEntity
  8
0
  6
ByLayer
 62
   48
420
4733445
370
   -3
100
AcDbLine
 10
89.44999999999717
 20
1106.799590024652
 11
89.44999999999717
 21
1119.309999999993
  0
LINE
  5
186
100
AcDbEntity
  8
0
  6
ByLayer
 62
   48
420
4733445
370
   -3
100
AcDbLine
 10
101.4499999999972
 20
1106.799590024652
 11
89.44999999999717
 21
1106.799590024652
  0
LINE
  5
187
100
AcDbEntity
  8
0
  6
ByLayer
 62
   48
420
4733445
370
   -3
100
AcDbLine
 10
89.44999999999717
 20
1098.799590024652
 11
101.4499999999972
 21
1098.799590024652
  0
LINE
  5
188
100
AcDbEntity
  8
0
  6
ByLayer
 62
   48
420
4733445
370
   -3
100
AcDbLine
 10
89.4499999999975
 20
1016.799590024652
 11
89.44999999999717
 21
1098.799590024652
  0
LINE
  5
189
100
AcDbEntity
  8
0
  6
ByLayer
 62
   48
420
4733445
370
   -3
100
AcDbLine
 10
101.4499999999975
 20
1016.799590024652
 11
89.4499999999975
 21
1016.799590024652
  0
LINE
  5
18A
100
AcDbEntity
  8
0
  6
ByLayer
 62
   48
420
4733445
370
   -3
100
AcDbLine
 10
89.4499999999975
 20
1008.799590024652
 11
101.4499999999975
 21
1008.799590024652
  0
LINE
  5
18B
100
AcDbEntity
  8
0
  6
ByLayer
 62
   48
420
4733445
370
   -3
100
AcDbLine
 10
89.44999999999762
 20
996.7995900246518
 11
89.4499999999975
 21
1008.799590024652
  0
LINE
  5
18C
100
AcDbEntity
  8
0
  6
ByLayer
 62
   48
420
4733445
370
   -3
100
AcDbLine
 10
89.44999999999762
 20
966.7499500246518
 11
89.44999999999762
 21
978.7499500246519
  0
LINE
  5
18D
100
AcDbEntity
  8
0
  6
ByLayer
 62
   48
420
4733445
370
   -3
100
AcDbLine
 10
101.4499999999976
 20
966.7499500246519
 11
89.44999999999762
 21
966.7499500246518
  0
LINE
  5
18E
100
AcDbEntity
  8
0
  6
ByLayer
 62
   48
420
4733445
370
   -3
100
AcDbLine
 10
108.4499999999975
 20
969.0999500246519
 11
104.6499999999977
 21
969.0999500246519
  0
LINE
  5
18F
100
AcDbEntity
  8
0
  6
ByLayer
 62
   48
420
4733445
370
   -3
100
AcDbLine
 10
108.4499999999976
 20
956.399950024652
 11
108.4499999999975
 21
969.0999500246519
  0
LINE
  5
190
100
AcDbEntity
  8
0
  6
ByLayer
 62
   48
420
4733445
370
   -3
100
AcDbLine
 10
104.6499999999977
 20
956.3999500246518
 11
108.4499999999976
 21
956.399950024652
  0
LINE
  5
191
100
AcDbEntity
  8
0
  6
ByLayer
 62
   48
420
4733445
370
   -3
100
AcDbLine
 10
89.44999999999773
 20
958.7499500246519
 11
101.4499999999977
 21
958.7499500246519
  0
LINE
  5
192
100
AcDbEntity
  8
0
  6
ByLayer
 62
   48
420
4733445
370
   -3
100
AcDbLine
 10
89.44999999999786
 20
937.3099999999929
 11
89.44999999999773
 21
958.7499500246518
  0
LINE
  5
193
100
AcDbEntity
  8
0
  6
ByLayer
 62
   48
420
4733445
370
   -3
100
AcDbLine
 10
379.9499999999923
 20
937.3099999999939
 11
89.44999999999787
 21
937.3099999999929
  0
LINE
  5
194
100
AcDbEntity
  8
0
  6
ByLayer
 62
   48
420
4733445
370
   -3
100
AcDbLine
 10
379.9499999999923
 20
937.3099999999939
 11
379.949999999992
 21
1008.159999999982
  0
LINE
  5
195
100
AcDbEntity
  8
0
  6
ByLayer
 62
   48
420
4733445
370
   -3
100
AcDbLine
 10
379.9499999999921
 20
1008.159999999982
 11
391.9499999999921
 21
1008.159999999982
  0
LINE
  5
196
100
AcDbEntity
  8
0
  6
ByLayer
 62
   48
420
4733445
370
   -3
100
AcDbLine
 10
391.9499999999969
 20
1008.159999999982
 11
391.9499999999971
 21
937.3099999999939
  0
LINE
  5
197
100
AcDbEntity
  8
0
  6
ByLayer
 62
   48
420
4733445
370
   -3
100
AcDbLine
 10
679.9499999999974
 20
937.3099999999948
 11
391.9499999999971
 21
937.3099999999939
  0
LINE
  5
198
100
AcDbEntity
  8
0
  6
ByLayer
 62
   48
420
4733445
370
   -3
100
AcDbLine
 10
679.9499999999974
 20
937.3099999999948
 11
679.9499999999971
 21
1008.159999999983
  0
LINE
  5
199
100
AcDbEntity
  8
0
  6
ByLayer
 62
   48
420
4733445
370
   -3
100
AcDbLine
 10
679.9499999999971
 20
1008.159999999983
 11
691.9499999999971
 21
1008.159999999983
  0
LINE
  5
19A
100
AcDbEntity
  8
0
  6
ByLayer
 62
   48
420
4733445
370
   -3
100
AcDbLine
 10
691.9499999999971
 20
1008.159999999983
 11
691.9499999999974
 21
937.3099999999949
  0
LINE
  5
19B
100
AcDbEntity
  8
0
  6
ByLayer
 62
   48
420
4733445
370
   -3
100
AcDbLine
 10
983.9499999999977
 20
937.309999999996
 11
691.9499999999974
 21
937.3099999999949
  0
LINE
  5
19C
100
AcDbEntity
  8
0
  6
ByLayer
 62
   48
420
4733445
370
   -3
100
AcDbLine
 10
983.9499999999973
 20
1008.159999999985
 11
983.9499999999977
 21
937.309999999996
  0
LINE
  5
19D
100
AcDbEntity
  8
0
  6
ByLayer
 62
   48
420
4733445
370
   -3
100
AcDbLine
 10
995.9499999999973
 20
1008.159999999985
 11
983.9499999999973
 21
1008.159999999985
  0
LINE
  5
19E
100
AcDbEntity
  8
0
  6
ByLayer
 62
   48
420
4733445
370
   -3
100
AcDbLine
 10
995.9499999999977
 20
937.309999999996
 11
995.9499999999973
 21
1008.159999999985
  0
LINE
  5
19F
100
AcDbEntity
  8
0
  6
ByLayer
 62
   48
420
4733445
370
   -3
100
AcDbLine
 10
995.9499999999977
 20
937.309999999996
 11
1283.949999999998
 21
937.309999999997
  0
LINE
  5
1A0
100
AcDbEntity
  8
0
  6
ByLayer
 62
   48
420
4733445
370
   -3
100
AcDbLine
 10
1283.949999999998
 20
1008.159999999986
 11
1283.949999999998
 21
937.309999999997
  0
LINE
  5
1A1
100
AcDbEntity
  8
0
  6
ByLayer
 62
   48
420
4733445
370
   -3
100
AcDbLine
 10
350.5323819577487
 20
944.8100000000032
 11
350.5323819577488
 21
956.8100000000032
  0
LINE
  5
1A2
100
AcDbEntity
  8
0
  6
ByLayer
 62
   48
420
4733445
370
   -3
100
AcDbLine
 10
370.5323819577488
 20
956.8100000000035
 11
350.5323819577488
 21
956.8100000000034
  0
LINE
  5
1A3
100
AcDbEntity
  8
0
  6
ByLayer
 62
   48
420
4733445
370
   -3
100
AcDbLine
 10
370.5323819577488
 20
956.8100000000034
 11
370.5323819577488
 21
944.8100000000034
  0
LINE
  5
1A4
100
AcDbEntity
  8
0
  6
ByLayer
 62
   48
420
4733445
370
   -3
100
AcDbLine
 10
370.5323819577488
 20
944.8100000000035
 11
350.5323819577487
 21
944.8100000000034
  0
LINE
  5
1A5
100
AcDbEntity
  8
0
  6
ByLayer
 62
   48
420
4733445
370
   -3
100
AcDbLine
 10
1195.949999999998
 20
956.2699999999967
 11
1195.949999999998
 21
944.3099999999968
  0
LINE
  5
1A6
100
AcDbEntity
  8
0
  6
ByLayer
 62
   48
420
4733445
370
   -3
100
AcDbLine
 10
1195.949999999998
 20
944.3099999999968
 11
1183.949999999998
 21
944.3099999999966
  0
LINE
  5
1A7
100
AcDbEntity
  8
0
  6
ByLayer
 62
   48
420
4733445
370
   -3
100
AcDbLine
 10
1183.949999999998
 20
944.3099999999966
 11
1183.949999999998
 21
956.2699999999967
  0
LINE
  5
1A8
100
AcDbEntity
  8
0
  6
ByLayer
 62
   48
420
4733445
370
   -3
100
AcDbLine
 10
1183.949999999998
 20
956.2699999999967
 11
1195.949999999998
 21
956.2699999999967
  0
LINE
  5
1A9
100
AcDbEntity
  8
0
  6
ByLayer
 62
   48
420
4733445
370
   -3
100
AcDbLine
 10
1195.949999999997
 20
1120.309999999997
 11
1195.949999999998
 21
1108.349999999997
  0
LINE
  5
1AA
100
AcDbEntity
  8
0
  6
ByLayer
 62
   48
420
4733445
370
   -3
100
AcDbLine
 10
1195.949999999998
 20
1108.349999999997
 11
1183.949999999998
 21
1108.349999999997
  0
LINE
  5
1AB
100
AcDbEntity
  8
0
  6
ByLayer
 62
   48
420
4733445
370
   -3
100
AcDbLine
 10
1183.949999999998
 20
1108.349999999997
 11
1183.949999999997
 21
1120.309999999997
  0
LINE
  5
1AC
100
AcDbEntity
  8
0
  6
ByLayer
 62
   48
420
4733445
370
   -3
100
AcDbLine
 10
1183.949999999997
 20
1120.309999999997
 11
1195.949999999997
 21
1120.309999999997
  0
LINE
  5
1AD
100
AcDbEntity
  8
0
  6
ByLayer
 62
   48
420
4733445
370
   -3
100
AcDbLine
 10
1195.949999999998
 20
1080.349999999997
 11
1195.949999999998
 21
984.2699999999968
  0
LINE
  5
1AE
100
AcDbEntity
  8
0
  6
ByLayer
 62
   48
420
4733445
370
   -3
100
AcDbLine
 10
1195.949999999998
 20
984.2699999999968
 11
1183.949999999998
 21
984.2699999999967
  0
LINE
  5
1AF
100
AcDbEntity
  8
0
  6
ByLayer
 62
   48
420
4733445
370
   -3
100
AcDbLine
 10
1183.949999999998
 20
984.2699999999967
 11
1183.949999999998
 21
1080.349999999996
  0
LINE
  5
1B0
100
AcDbEntity
  8
0
  6
ByLayer
 62
   48
420
4733445
370
   -3
100
AcDbLine
 10
1183.949999999998
 20
1080.349999999996
 11
1195.949999999998
 21
1080.349999999997
  0
LINE
  5
1B1
100
AcDbEntity
  8
0
  6
ByLayer
 62
   48
420
4733445
370
   -3
100
AcDbLine
 10
1095.949999999997
 20
1120.309999999996
 11
1083.949999999997
 21
1120.309999999996
  0
LINE
  5
1B2
100
AcDbEntity
  8
0
  6
ByLayer
 62
   48
420
4733445
370
   -3
100
AcDbLine
 10
1095.949999999997
 20
1108.349999999996
 11
1095.949999999997
 21
1120.309999999996
  0
LINE
  5
1B3
100
AcDbEntity
  8
0
  6
ByLayer
 62
   48
420
4733445
370
   -3
100
AcDbLine
 10
1083.949999999997
 20
1108.349999999996
 11
1095.949999999997
 21
1108.349999999996
  0
LINE
  5
1B4
100
AcDbEntity
  8
0
  6
ByLayer
 62
   48
420
4733445
370
   -3
100
AcDbLine
 10
1083.949999999997
 20
1108.349999999996
 11
1083.949999999997
 21
1120.309999999996
  0
LINE
  5
1B5
100
AcDbEntity
  8
0
  6
ByLayer
 62
   48
420
4733445
370
   -3
100
AcDbLine
 10
895.949999999997
 20
1120.309999999996
 11
883.9499999999969
 21
1120.309999999996
  0
LINE
  5
1B6
100
AcDbEntity
  8
0
  6
ByLayer
 62
   48
420
4733445
370
   -3
100
AcDbLine
 10
895.949999999997
 20
1108.349999999996
 11
895.949999999997
 21
1120.309999999996
  0
LINE
  5
1B7
100
AcDbEntity
  8
0
  6
ByLayer
 62
   48
420
4733445
370
   -3
100
AcDbLine
 10
883.9499999999969
 20
1108.349999999996
 11
895.949999999997
 21
1108.349999999996
  0
LINE
  5
1B8
100
AcDbEntity
  8
0
  6
ByLayer
 62
   48
420
4733445
370
   -3
100
AcDbLine
 10
883.9499999999969
 20
1108.349999999996
 11
883.9499999999969
 21
1120.309999999996
  0
LINE
  5
1B9
100
AcDbEntity
  8
0
  6
ByLayer
 62
   48
420
4733445
370
   -3
100
AcDbLine
 10
883.9499999999974
 20
944.3099999999956
 11
895.9499999999975
 21
944.3099999999957
  0
LINE
  5
1BA
100
AcDbEntity
  8
0
  6
ByLayer
 62
   48
420
4733445
370
   -3
100
AcDbLine
 10
883.9499999999974
 20
944.3099999999956
 11
883.9499999999974
 21
956.2699999999958
  0
LINE
  5
1BB
100
AcDbEntity
  8
0
  6
ByLayer
 62
   48
420
4733445
370
   -3
100
AcDbLine
 10
895.9499999999975
 20
956.2699999999958
 11
883.9499999999974
 21
956.2699999999958
  0
LINE
  5
1BC
100
AcDbEntity
  8
0
  6
ByLayer
 62
   48
420
4733445
370
   -3
100
AcDbLine
 10
895.9499999999975
 20
944.3099999999957
 11
895.9499999999975
 21
956.2699999999958
  0
LINE
  5
1BD
100
AcDbEntity
  8
0
  6
ByLayer
 62
   48
420
4733445
370
   -3
100
AcDbLine
 10
1083.949999999998
 20
944.3099999999963
 11
1095.949999999998
 21
944.3099999999964
  0
LINE
  5
1BE
100
AcDbEntity
  8
0
  6
ByLayer
 62
   48
420
4733445
370
   -3
100
AcDbLine
 10
1083.949999999998
 20
944.3099999999964
 11
1083.949999999998
 21
956.2699999999963
  0
LINE
  5
1BF
100
AcDbEntity
  8
0
  6
ByLayer
 62
   48
420
4733445
370
   -3
100
AcDbLine
 10
1095.949999999998
 20
956.2699999999963
 11
1083.949999999998
 21
956.2699999999963
  0
LINE
  5
1C0
100
AcDbEntity
  8
0
  6
ByLayer
 62
   48
420
4733445
370
   -3
100
AcDbLine
 10
1095.949999999998
 20
944.3099999999964
 11
1095.949999999998
 21
956.2699999999963
  0
LINE
  5
1C1
100
AcDbEntity
  8
0
  6
ByLayer
 62
   48
420
4733445
370
   -3
100
AcDbLine
 10
983.949999999997
 20
1121.309999999996
 11
995.949999999997
 21
1121.309999999996
  0
LINE
  5
1C2
100
AcDbEntity
  8
0
  6
ByLayer
 62
   48
420
4733445
370
   -3
100
AcDbLine
 10
995.949999999997
 20
1121.309999999996
 11
995.9499999999971
 21
1087.778271038238
  0
LINE
  5
1C3
100
AcDbEntity
  8
0
  6
ByLayer
 62
   48
420
4733445
370
   -3
100
AcDbLine
 10
995.9499999999972
 20
1087.778271038238
 11
983.9499999999972
 21
1087.778271038238
  0
LINE
  5
1C4
100
AcDbEntity
  8
0
  6
ByLayer
 62
   48
420
4733445
370
   -3
100
AcDbLine
 10
983.9499999999971
 20
1087.778271038238
 11
983.949999999997
 21
1121.309999999996
  0
LINE
  5
1C5
100
AcDbEntity
  8
0
  6
ByLayer
 62
   48
420
4733445
370
   -3
100
AcDbLine
 10
895.9499999999971
 20
1080.349999999996
 11
883.949999999997
 21
1080.349999999996
  0
LINE
  5
1C6
100
AcDbEntity
  8
0
  6
ByLayer
 62
   48
420
4733445
370
   -3
100
AcDbLine
 10
895.9499999999974
 20
984.2699999999958
 11
895.9499999999971
 21
1080.349999999996
  0
LINE
  5
1C7
100
AcDbEntity
  8
0
  6
ByLayer
 62
   48
420
4733445
370
   -3
100
AcDbLine
 10
883.9499999999973
 20
984.2699999999957
 11
895.9499999999974
 21
984.2699999999958
  0
LINE
  5
1C8
100
AcDbEntity
  8
0
  6
ByLayer
 62
   48
420
4733445
370
   -3
100
AcDbLine
 10
883.9499999999973
 20
984.2699999999957
 11
883.949999999997
 21
1080.349999999996
  0
LINE
  5
1C9
100
AcDbEntity
  8
0
  6
ByLayer
 62
   48
420
4733445
370
   -3
100
AcDbLine
 10
1095.949999999997
 20
1080.349999999996
 11
1083.949999999997
 21
1080.349999999996
  0
LINE
  5
1CA
100
AcDbEntity
  8
0
  6
ByLayer
 62
   48
420
4733445
370
   -3
100
AcDbLine
 10
1095.949999999998
 20
984.2699999999965
 11
1095.949999999997
 21
1080.349999999996
  0
LINE
  5
1CB
100
AcDbEntity
  8
0
  6
ByLayer
 62
   48
420
4733445
370
   -3
100
AcDbLine
 10
1083.949999999998
 20
984.2699999999963
 11
1095.949999999998
 21
984.2699999999965
  0
LINE
  5
1CC
100
AcDbEntity
  8
0
  6
ByLayer
 62
   48
420
4733445
370
   -3
100
AcDbLine
 10
1083.949999999998
 20
984.2699999999965
 11
1083.949999999997
 21
1080.349999999996
  0
LINE
  5
1CD
100
AcDbEntity
  8
0
  6
ByLayer
 62
   48
420
4733445
370
   -3
100
AcDbLine
 10
1283.949999999997
 20
1121.309999999987
 11
1295.949999999997
 21
1121.309999999987
  0
LINE
  5
1CE
100
AcDbEntity
  8
0
  6
ByLayer
 62
   48
420
4733445
370
   -3
100
AcDbLine
 10
1295.949999999997
 20
1121.309999999987
 11
1295.949999999997
 21
1087.778271038239
  0
LINE
  5
1CF
100
AcDbEntity
  8
0
  6
ByLayer
 62
   48
420
4733445
370
   -3
100
AcDbLine
 10
1295.949999999997
 20
1087.778271038239
 11
1283.949999999997
 21
1087.778271038239
  0
LINE
  5
1D0
100
AcDbEntity
  8
0
  6
ByLayer
 62
   48
420
4733445
370
   -3
100
AcDbLine
 10
1283.949999999997
 20
1087.778271038239
 11
1283.949999999997
 21
1121.309999999987
  0
LINE
  5
1D1
100
AcDbEntity
  8
0
  6
ByLayer
 62
   48
420
4733445
370
   -3
100
AcDbLine
 10
491.949999999997
 20
944.3099999999943
 11
491.9499999999969
 21
956.2699999999943
  0
LINE
  5
1D2
100
AcDbEntity
  8
0
  6
ByLayer
 62
   48
420
4733445
370
   -3
100
AcDbLine
 10
479.9499999999971
 20
944.3099999999943
 11
491.9499999999971
 21
944.3099999999943
  0
LINE
  5
1D3
100
AcDbEntity
  8
0
  6
ByLayer
 62
   48
420
4733445
370
   -3
100
AcDbLine
 10
479.9499999999969
 20
956.2699999999943
 11
479.949999999997
 21
944.3099999999943
  0
LINE
  5
1D4
100
AcDbEntity
  8
0
  6
ByLayer
 62
   48
420
4733445
370
   -3
100
AcDbLine
 10
491.949999999997
 20
956.2699999999943
 11
479.949999999997
 21
956.2699999999943
  0
LINE
  5
1D5
100
AcDbEntity
  8
0
  6
ByLayer
 62
   48
420
4733445
370
   -3
100
AcDbLine
 10
491.9499999999964
 20
1108.349999999994
 11
491.9499999999964
 21
1120.309999999994
  0
LINE
  5
1D6
100
AcDbEntity
  8
0
  6
ByLayer
 62
   48
420
4733445
370
   -3
100
AcDbLine
 10
479.9499999999965
 20
1108.349999999994
 11
491.9499999999965
 21
1108.349999999994
  0
LINE
  5
1D7
100
AcDbEntity
  8
0
  6
ByLayer
 62
   48
420
4733445
370
   -3
100
AcDbLine
 10
479.9499999999964
 20
1120.309999999994
 11
479.9499999999964
 21
1108.349999999994
  0
LINE
  5
1D8
100
AcDbEntity
  8
0
  6
ByLayer
 62
   48
420
4733445
370
   -3
100
AcDbLine
 10
491.9499999999965
 20
1120.309999999994
 11
479.9499999999965
 21
1120.309999999994
  0
LINE
  5
1D9
100
AcDbEntity
  8
0
  6
ByLayer
 62
   48
420
4733445
370
   -3
100
AcDbLine
 10
491.9499999999969
 20
984.2699999999942
 11
491.9499999999965
 21
1080.349999999994
  0
LINE
  5
1DA
100
AcDbEntity
  8
0
  6
ByLayer
 62
   48
420
4733445
370
   -3
100
AcDbLine
 10
479.9499999999969
 20
984.2699999999942
 11
491.9499999999969
 21
984.2699999999942
  0
LINE
  5
1DB
100
AcDbEntity
  8
0
  6
ByLayer
 62
   48
420
4733445
370
   -3
100
AcDbLine
 10
479.9499999999965
 20
1080.349999999994
 11
479.9499999999968
 21
984.2699999999942
  0
LINE
  5
1DC
100
AcDbEntity
  8
0
  6
ByLayer
 62
   48
420
4733445
370
   -3
100
AcDbLine
 10
491.9499999999966
 20
1080.349999999994
 11
479.9499999999966
 21
1080.349999999994
  0
LINE
  5
1DD
100
AcDbEntity
  8
0
  6
ByLayer
 62
   48
420
4733445
370
   -3
100
AcDbLine
 10
291.9499999999921
 20
944.3099999999936
 11
291.9499999999921
 21
956.2699999999936
  0
LINE
  5
1DE
100
AcDbEntity
  8
0
  6
ByLayer
 62
   48
420
4733445
370
   -3
100
AcDbLine
 10
279.9499999999921
 20
944.3099999999936
 11
291.9499999999921
 21
944.3099999999936
  0
LINE
  5
1DF
100
AcDbEntity
  8
0
  6
ByLayer
 62
   48
420
4733445
370
   -3
100
AcDbLine
 10
279.9499999999923
 20
956.2699999999935
 11
279.9499999999923
 21
944.3099999999936
  0
LINE
  5
1E0
100
AcDbEntity
  8
0
  6
ByLayer
 62
   48
420
4733445
370
   -3
100
AcDbLine
 10
291.9499999999921
 20
956.2699999999936
 11
279.9499999999921
 21
956.2699999999935
  0
LINE
  5
1E1
100
AcDbEntity
  8
0
  6
ByLayer
 62
   48
420
4733445
370
   -3
100
AcDbLine
 10
291.9499999999916
 20
1108.349999999994
 11
291.9499999999916
 21
1120.309999999994
  0
LINE
  5
1E2
100
AcDbEntity
  8
0
  6
ByLayer
 62
   48
420
4733445
370
   -3
100
AcDbLine
 10
279.9499999999915
 20
1108.349999999994
 11
291.9499999999916
 21
1108.349999999994
  0
LINE
  5
1E3
100
AcDbEntity
  8
0
  6
ByLayer
 62
   48
420
4733445
370
   -3
100
AcDbLine
 10
279.9499999999915
 20
1120.309999999994
 11
279.9499999999915
 21
1108.349999999994
  0
LINE
  5
1E4
100
AcDbEntity
  8
0
  6
ByLayer
 62
   48
420
4733445
370
   -3
100
AcDbLine
 10
291.9499999999916
 20
1120.309999999994
 11
279.9499999999915
 21
1120.309999999994
  0
LINE
  5
1E5
100
AcDbEntity
  8
0
  6
ByLayer
 62
   48
420
4733445
370
   -3
100
AcDbLine
 10
291.949999999992
 20
984.2699999999935
 11
291.9499999999916
 21
1080.349999999994
  0
LINE
  5
1E6
100
AcDbEntity
  8
0
  6
ByLayer
 62
   48
420
4733445
370
   -3
100
AcDbLine
 10
279.949999999992
 20
984.2699999999935
 11
291.949999999992
 21
984.2699999999935
  0
LINE
  5
1E7
100
AcDbEntity
  8
0
  6
ByLayer
 62
   48
420
4733445
370
   -3
100
AcDbLine
 10
279.9499999999916
 20
1080.349999999994
 11
279.949999999992
 21
984.2699999999935
  0
LINE
  5
1E8
100
AcDbEntity
  8
0
  6
ByLayer
 62
   48
420
4733445
370
   -3
100
AcDbLine
 10
291.9499999999916
 20
1080.349999999994
 11
279.9499999999916
 21
1080.349999999994
  0
LINE
  5
1E9
100
AcDbEntity
  8
0
  6
ByLayer
 62
   48
420
4733445
370
   -3
100
AcDbLine
 10
591.9499999999966
 20
1108.349999999995
 11
579.9499999999966
 21
1108.349999999995
  0
LINE
  5
1EA
100
AcDbEntity
  8
0
  6
ByLayer
 62
   48
420
4733445
370
   -3
100
AcDbLine
 10
579.9499999999966
 20
1108.349999999995
 11
579.9499999999966
 21
1120.309999999994
  0
LINE
  5
1EB
100
AcDbEntity
  8
0
  6
ByLayer
 62
   48
420
4733445
370
   -3
100
AcDbLine
 10
579.9499999999966
 20
1120.309999999994
 11
591.9499999999966
 21
1120.309999999994
  0
LINE
  5
1EC
100
AcDbEntity
  8
0
  6
ByLayer
 62
   48
420
4733445
370
   -3
100
AcDbLine
 10
591.9499999999966
 20
1108.349999999995
 11
591.9499999999966
 21
1120.309999999994
  0
LINE
  5
1ED
100
AcDbEntity
  8
0
  6
ByLayer
 62
   48
420
4733445
370
   -3
100
AcDbLine
 10
791.9499999999969
 20
1108.349999999995
 11
779.9499999999967
 21
1108.349999999995
  0
LINE
  5
1EE
100
AcDbEntity
  8
0
  6
ByLayer
 62
   48
420
4733445
370
   -3
100
AcDbLine
 10
779.9499999999967
 20
1108.349999999995
 11
779.9499999999967
 21
1120.309999999995
  0
LINE
  5
1EF
100
AcDbEntity
  8
0
  6
ByLayer
 62
   48
420
4733445
370
   -3
100
AcDbLine
 10
779.9499999999967
 20
1120.309999999995
 11
791.9499999999969
 21
1120.309999999995
  0
LINE
  5
1F0
100
AcDbEntity
  8
0
  6
ByLayer
 62
   48
420
4733445
370
   -3
100
AcDbLine
 10
791.9499999999969
 20
1108.349999999995
 11
791.9499999999969
 21
1120.309999999995
  0
LINE
  5
1F1
100
AcDbEntity
  8
0
  6
ByLayer
 62
   48
420
4733445
370
   -3
100
AcDbLine
 10
779.9499999999972
 20
956.2699999999953
 11
791.9499999999974
 21
956.2699999999954
  0
LINE
  5
1F2
100
AcDbEntity
  8
0
  6
ByLayer
 62
   48
420
4733445
370
   -3
100
AcDbLine
 10
791.9499999999974
 20
944.3099999999953
 11
791.9499999999974
 21
956.2699999999954
  0
LINE
  5
1F3
100
AcDbEntity
  8
0
  6
ByLayer
 62
   48
420
4733445
370
   -3
100
AcDbLine
 10
791.9499999999974
 20
944.3099999999953
 11
779.9499999999972
 21
944.3099999999953
  0
LINE
  5
1F4
100
AcDbEntity
  8
0
  6
ByLayer
 62
   48
420
4733445
370
   -3
100
AcDbLine
 10
779.9499999999972
 20
944.3099999999953
 11
779.9499999999972
 21
956.2699999999953
  0
LINE
  5
1F5
100
AcDbEntity
  8
0
  6
ByLayer
 62
   48
420
4733445
370
   -3
100
AcDbLine
 10
579.9499999999972
 20
956.2699999999946
 11
591.9499999999972
 21
956.2699999999946
  0
LINE
  5
1F6
100
AcDbEntity
  8
0
  6
ByLayer
 62
   48
420
4733445
370
   -3
100
AcDbLine
 10
591.9499999999973
 20
944.3099999999946
 11
591.9499999999972
 21
956.2699999999946
  0
LINE
  5
1F7
100
AcDbEntity
  8
0
  6
ByLayer
 62
   48
420
4733445
370
   -3
100
AcDbLine
 10
591.9499999999973
 20
944.3099999999946
 11
579.9499999999973
 21
944.3099999999945
  0
LINE
  5
1F8
100
AcDbEntity
  8
0
  6
ByLayer
 62
   48
420
4733445
370
   -3
100
AcDbLine
 10
579.9499999999973
 20
944.3099999999946
 11
579.9499999999972
 21
956.2699999999946
  0
LINE
  5
1F9
100
AcDbEntity
  8
0
  6
ByLayer
 62
   48
420
4733445
370
   -3
100
AcDbLine
 10
679.9499999999967
 20
1087.778271038237
 11
691.9499999999967
 21
1087.778271038237
  0
LINE
  5
1FA
100
AcDbEntity
  8
0
  6
ByLayer
 62
   48
420
4733445
370
   -3
100
AcDbLine
 10
679.9499999999967
 20
1121.309999999995
 11
679.9499999999969
 21
1087.778271038237
  0
LINE
  5
1FB
100
AcDbEntity
  8
0
  6
ByLayer
 62
   48
420
4733445
370
   -3
100
AcDbLine
 10
679.9499999999967
 20
1121.309999999995
 11
691.9499999999967
 21
1121.309999999995
  0
LINE
  5
1FC
100
AcDbEntity
  8
0
  6
ByLayer
 62
   48
420
4733445
370
   -3
100
AcDbLine
 10
691.9499999999969
 20
1087.778271038237
 11
691.9499999999967
 21
1121.309999999995
  0
LINE
  5
1FD
100
AcDbEntity
  8
0
  6
ByLayer
 62
   48
420
4733445
370
   -3
100
AcDbLine
 10
791.9499999999973
 20
984.2699999999953
 11
779.9499999999971
 21
984.2699999999953
  0
LINE
  5
1FE
100
AcDbEntity
  8
0
  6
ByLayer
 62
   48
420
4733445
370
   -3
100
AcDbLine
 10
779.9499999999971
 20
984.2699999999953
 11
779.9499999999969
 21
1080.349999999995
  0
LINE
  5
1FF
100
AcDbEntity
  8
0
  6
ByLayer
 62
   48
420
4733445
370
   -3
100
AcDbLine
 10
779.9499999999969
 20
1080.349999999995
 11
791.949999999997
 21
1080.349999999995
  0
LINE
  5
200
100
AcDbEntity
  8
0
  6
ByLayer
 62
   48
420
4733445
370
   -3
100
AcDbLine
 10
791.9499999999973
 20
984.2699999999953
 11
791.949999999997
 21
1080.349999999995
  0
LINE
  5
201
100
AcDbEntity
  8
0
  6
ByLayer
 62
   48
420
4733445
370
   -3
100
AcDbLine
 10
591.9499999999971
 20
984.2699999999946
 11
579.9499999999971
 21
984.2699999999945
  0
LINE
  5
202
100
AcDbEntity
  8
0
  6
ByLayer
 62
   48
420
4733445
370
   -3
100
AcDbLine
 10
579.9499999999971
 20
984.2699999999946
 11
579.9499999999967
 21
1080.349999999995
  0
LINE
  5
203
100
AcDbEntity
  8
0
  6
ByLayer
 62
   48
420
4733445
370
   -3
100
AcDbLine
 10
579.9499999999967
 20
1080.349999999995
 11
591.9499999999967
 21
1080.349999999995
  0
LINE
  5
204
100
AcDbEntity
  8
0
  6
ByLayer
 62
   48
420
4733445
370
   -3
100
AcDbLine
 10
591.9499999999971
 20
984.2699999999946
 11
591.9499999999967
 21
1080.349999999995
  0
LINE
  5
205
100
AcDbEntity
  8
0
  6
ByLayer
 62
   48
420
4733445
370
   -3
100
AcDbLine
 10
379.9499999999967
 20
1087.778271038236
 11
391.9499999999968
 21
1087.778271038236
  0
LINE
  5
206
100
AcDbEntity
  8
0
  6
ByLayer
 62
   48
420
4733445
370
   -3
100
AcDbLine
 10
379.9499999999965
 20
1121.309999999983
 11
379.9499999999966
 21
1087.778271038236
  0
LINE
  5
207
100
AcDbEntity
  8
0
  6
ByLayer
 62
   48
420
4733445
370
   -3
100
AcDbLine
 10
379.9499999999965
 20
1121.309999999983
 11
391.9499999999965
 21
1121.309999999984
  0
LINE
  5
208
100
AcDbEntity
  8
0
  6
ByLayer
 62
   48
420
4733445
370
   -3
100
AcDbLine
 10
391.9499999999966
 20
1087.778271038236
 11
391.9499999999965
 21
1121.309999999984
  0
LINE
  5
209
100
AcDbEntity
  8
0
  6
ByLayer
 62
   48
420
4733445
370
   -3
100
AcDbLine
 10
179.9499999999972
 20
1108.349999999993
 11
179.9499999999972
 21
1120.309999999993
  0
LINE
  5
20A
100
AcDbEntity
  8
0
  6
ByLayer
 62
   48
420
4733445
370
   -3
100
AcDbLine
 10
179.9499999999971
 20
1120.309999999993
 11
191.9499999999972
 21
1120.309999999993
  0
LINE
  5
20B
100
AcDbEntity
  8
0
  6
ByLayer
 62
   48
420
4733445
370
   -3
100
AcDbLine
 10
191.9499999999972
 20
1120.309999999993
 11
191.9499999999972
 21
1108.349999999993
  0
LINE
  5
20C
100
AcDbEntity
  8
0
  6
ByLayer
 62
   48
420
4733445
370
   -3
100
AcDbLine
 10
191.9499999999972
 20
1108.349999999993
 11
179.9499999999972
 21
1108.349999999993
  0
LINE
  5
20D
100
AcDbEntity
  8
0
  6
ByLayer
 62
   48
420
4733445
370
   -3
100
AcDbLine
 10
179.9499999999977
 20
956.2699999999933
 11
179.9499999999979
 21
944.3099999999932
  0
LINE
  5
20E
100
AcDbEntity
  8
0
  6
ByLayer
 62
   48
420
4733445
370
   -3
100
AcDbLine
 10
191.9499999999977
 20
956.2699999999933
 11
179.9499999999976
 21
956.2699999999933
  0
LINE
  5
20F
100
AcDbEntity
  8
0
  6
ByLayer
 62
   48
420
4733445
370
   -3
100
AcDbLine
 10
191.9499999999977
 20
944.3099999999932
 11
191.9499999999975
 21
956.2699999999933
  0
LINE
  5
210
100
AcDbEntity
  8
0
  6
ByLayer
 62
   48
420
4733445
370
   -3
100
AcDbLine
 10
179.9499999999976
 20
944.3099999999932
 11
191.9499999999977
 21
944.3099999999932
  0
LINE
  5
211
100
AcDbEntity
  8
0
  6
ByLayer
 62
   48
420
4733445
370
   -3
100
AcDbLine
 10
179.9499999999971
 20
1080.349999999993
 11
179.9499999999975
 21
984.2699999999932
  0
LINE
  5
212
100
AcDbEntity
  8
0
  6
ByLayer
 62
   48
420
4733445
370
   -3
100
AcDbLine
 10
191.9499999999972
 20
1080.349999999993
 11
179.9499999999972
 21
1080.349999999993
  0
LINE
  5
213
100
AcDbEntity
  8
0
  6
ByLayer
 62
   48
420
4733445
370
   -3
100
AcDbLine
 10
191.9499999999975
 20
984.2699999999932
 11
191.9499999999971
 21
1080.349999999993
  0
LINE
  5
214
100
AcDbEntity
  8
0
  6
ByLayer
 62
   48
420
4733445
370
   -3
100
AcDbLine
 10
179.9499999999975
 20
984.2699999999932
 11
191.9499999999976
 21
984.2699999999932
  0
LINE
  5
215
100
AcDbEntity
  8
0
  6
ByLayer
 62
   48
420
4733445
370
   -3
100
AcDbLine
 10
150.4500000000053
 20
944.8100000000026
 11
150.4500000000053
 21
956.8100000000026
  0
LINE
  5
216
100
AcDbEntity
  8
0
  6
ByLayer
 62
   48
420
4733445
370
   -3
100
AcDbLine
 10
170.4500000000054
 20
956.8100000000028
 11
150.4500000000053
 21
956.8100000000027
  0
LINE
  5
217
100
AcDbEntity
  8
0
  6
ByLayer
 62
   48
420
4733445
370
   -3
100
AcDbLine
 10
170.4500000000054
 20
956.8100000000027
 11
170.4500000000054
 21
944.8100000000027
  0
LINE
  5
218
100
AcDbEntity
  8
0
  6
ByLayer
 62
   48
420
4733445
370
   -3
100
AcDbLine
 10
170.4500000000054
 20
944.8100000000028
 11
150.4500000000053
 21
944.8100000000027
  0
LINE
  5
219
100
AcDbEntity
  8
0
  6
ByLayer
 62
   48
420
4733445
370
   -3
100
AcDbLine
 10
1323.650000000003
 20
1330.580049975338
 11
1313.650000000003
 21
1330.580049975338
  0
LINE
  5
21A
100
AcDbEntity
  8
0
  6
ByLayer
 62
   48
420
4733445
370
   -3
100
AcDbLine
 10
1323.650000000003
 20
1330.580049975338
 11
1323.650000000003
 21
1372.019999999997
  0
LINE
  5
21B
100
AcDbEntity
  8
0
  6
ByLayer
 62
   48
420
4733445
370
   -3
100
AcDbLine
 10
1295.950000000001
 20
1372.019999999997
 11
1323.650000000003
 21
1372.019999999997
  0
LINE
  5
21C
100
AcDbEntity
  8
0
  6
ByLayer
 62
   48
420
4733445
370
   -3
100
AcDbLine
 10
1295.950000000001
 20
1301.170000000008
 11
1295.950000000001
 21
1372.019999999997
  0
LINE
  5
21D
100
AcDbEntity
  8
0
  6
ByLayer
 62
   48
420
4733445
370
   -3
100
AcDbLine
 10
1295.950000000001
 20
1301.170000000008
 11
1283.950000000001
 21
1301.170000000008
  0
LINE
  5
21E
100
AcDbEntity
  8
0
  6
ByLayer
 62
   48
420
4733445
370
   -3
100
AcDbLine
 10
1283.950000000001
 20
1301.170000000008
 11
1283.950000000001
 21
1372.019999999997
  0
LINE
  5
21F
100
AcDbEntity
  8
0
  6
ByLayer
 62
   48
420
4733445
370
   -3
100
AcDbLine
 10
995.949999999996
 20
1372.019999999996
 11
1283.950000000001
 21
1372.019999999997
  0
LINE
  5
220
100
AcDbEntity
  8
0
  6
ByLayer
 62
   48
420
4733445
370
   -3
100
AcDbLine
 10
995.9499999999964
 20
1301.170000000007
 11
995.949999999996
 21
1372.019999999996
  0
LINE
  5
221
100
AcDbEntity
  8
0
  6
ByLayer
 62
   48
420
4733445
370
   -3
100
AcDbLine
 10
995.9499999999964
 20
1301.170000000007
 11
983.9499999999964
 21
1301.170000000007
  0
LINE
  5
222
100
AcDbEntity
  8
0
  6
ByLayer
 62
   48
420
4733445
370
   -3
100
AcDbLine
 10
983.949999999996
 20
1372.019999999996
 11
983.9499999999964
 21
1301.170000000007
  0
LINE
  5
223
100
AcDbEntity
  8
0
  6
ByLayer
 62
   48
420
4733445
370
   -3
100
AcDbLine
 10
983.949999999996
 20
1372.019999999996
 11
691.9499999999957
 21
1372.019999999995
  0
LINE
  5
224
100
AcDbEntity
  8
0
  6
ByLayer
 62
   48
420
4733445
370
   -3
100
AcDbLine
 10
691.9499999999962
 20
1301.170000000006
 11
691.9499999999957
 21
1372.019999999995
  0
LINE
  5
225
100
AcDbEntity
  8
0
  6
ByLayer
 62
   48
420
4733445
370
   -3
100
AcDbLine
 10
691.9499999999962
 20
1301.170000000006
 11
679.9499999999962
 21
1301.170000000006
  0
LINE
  5
226
100
AcDbEntity
  8
0
  6
ByLayer
 62
   48
420
4733445
370
   -3
100
AcDbLine
 10
679.9499999999957
 20
1372.019999999995
 11
679.9499999999962
 21
1301.170000000006
  0
LINE
  5
227
100
AcDbEntity
  8
0
  6
ByLayer
 62
   48
420
4733445
370
   -3
100
AcDbLine
 10
391.9499999999907
 20
1372.019999999994
 11
679.9499999999956
 21
1372.019999999995
  0
LINE
  5
228
100
AcDbEntity
  8
0
  6
ByLayer
 62
   48
420
4733445
370
   -3
100
AcDbLine
 10
391.9499999999907
 20
1372.019999999994
 11
391.9499999999909
 21
1301.170000000005
  0
LINE
  5
229
100
AcDbEntity
  8
0
  6
ByLayer
 62
   48
420
4733445
370
   -3
100
AcDbLine
 10
391.9499999999909
 20
1301.170000000005
 11
379.949999999991
 21
1301.170000000005
  0
LINE
  5
22A
100
AcDbEntity
  8
0
  6
ByLayer
 62
   48
420
4733445
370
   -3
100
AcDbLine
 10
379.9499999999907
 20
1372.019999999993
 11
379.949999999991
 21
1301.170000000005
  0
LINE
  5
22B
100
AcDbEntity
  8
0
  6
ByLayer
 62
   48
420
4733445
370
   -3
100
AcDbLine
 10
89.44999999999617
 20
1372.019999999992
 11
379.9499999999906
 21
1372.019999999993
  0
LINE
  5
22C
100
AcDbEntity
  8
0
  6
ByLayer
 62
   48
420
4733445
370
   -3
100
AcDbLine
 10
89.44999999999628
 20
1350.580049975334
 11
89.44999999999617
 21
1372.019999999992
  0
LINE
  5
22D
100
AcDbEntity
  8
0
  6
ByLayer
 62
   48
420
4733445
370
   -3
100
AcDbLine
 10
101.4499999999963
 20
1350.580049975334
 11
89.44999999999628
 21
1350.580049975334
  0
LINE
  5
22E
100
AcDbEntity
  8
0
  6
ByLayer
 62
   48
420
4733445
370
   -3
100
AcDbLine
 10
101.4499999999963
 20
1350.580049975334
 11
101.4499999999963
 21
1352.930049975333
  0
ARC
  5
22F
100
AcDbEntity
  8
0
  6
ByLayer
 62
   48
420
4733445
370
   -3
100
AcDbCircle
 10
103.0499999999963
 20
1352.930049975333
 40
1.599999999999987
100
AcDbArc
 50
2.036e-013
 51
180.0000000000002
  0
LINE
  5
230
100
AcDbEntity
  8
0
  6
ByLayer
 62
   48
420
4733445
370
   -3
100
AcDbLine
 10
108.4499999999962
 20
1352.930049975334
 11
104.6499999999962
 21
1352.930049975333
  0
LINE
  5
231
100
AcDbEntity
  8
0
  6
ByLayer
 62
   48
420
4733445
370
   -3
100
AcDbLine
 10
108.4499999999962
 20
1340.230049975333
 11
108.4499999999962
 21
1352.930049975334
  0
LINE
  5
232
100
AcDbEntity
  8
0
  6
ByLayer
 62
   48
420
4733445
370
   -3
100
AcDbLine
 10
104.6499999999962
 20
1340.230049975333
 11
108.4499999999962
 21
1340.230049975333
  0
ARC
  5
233
100
AcDbEntity
  8
0
  6
ByLayer
 62
   48
420
4733445
370
   -3
100
AcDbCircle
 10
103.0499999999963
 20
1340.230049975333
 40
1.599999999999977
100
AcDbArc
 50
180.0000000000002
 51
1.781e-013
  0
LINE
  5
234
100
AcDbEntity
  8
0
  6
ByLayer
 62
   48
420
4733445
370
   -3
100
AcDbLine
 10
101.4499999999963
 20
1340.230049975333
 11
101.4499999999963
 21
1342.580049975334
  0
LINE
  5
235
100
AcDbEntity
  8
0
  6
ByLayer
 62
   48
420
4733445
370
   -3
100
AcDbLine
 10
89.44999999999628
 20
1342.580049975334
 11
101.4499999999963
 21
1342.580049975334
  0
LINE
  5
236
100
AcDbEntity
  8
0
  6
ByLayer
 62
   48
420
4733445
370
   -3
100
AcDbLine
 10
89.44999999999628
 20
1330.580049975334
 11
89.44999999999628
 21
1342.580049975334
  0
LINE
  5
237
100
AcDbEntity
  8
0
  6
ByLayer
 62
   48
420
4733445
370
   -3
100
AcDbLine
 10
89.44999999999628
 20
1330.580049975334
 11
79.44999999999628
 21
1330.580049975334
  0
ARC
  5
238
100
AcDbEntity
  8
0
  6
ByLayer
 62
   48
420
4733445
370
   -3
100
AcDbCircle
 10
79.44999999999628
 20
1328.580049975333
 40
2
100
AcDbArc
 50
90.0000000000002
 51
180.0000000000344
  0
LINE
  5
239
100
AcDbEntity
  8
0
  6
ByLayer
 62
   48
420
4733445
370
   -3
100
AcDbLine
 10
77.44999999999627
 20
1328.580049975333
 11
77.44999999999638
 21
1314.530409975333
  0
ARC
  5
23A
100
AcDbEntity
  8
0
  6
ByLayer
 62
   48
420
4733445
370
   -3
100
AcDbCircle
 10
79.44999999999638
 20
1314.530409975333
 40
2
100
AcDbArc
 50
180.0000000000002
 51
270.0000000000123
  0
LINE
  5
23B
100
AcDbEntity
  8
0
  6
ByLayer
 62
   48
420
4733445
370
   -3
100
AcDbLine
 10
79.44999999999638
 20
1312.530409975333
 11
89.44999999999639
 21
1312.530409975333
  0
LINE
  5
23C
100
AcDbEntity
  8
0
  6
ByLayer
 62
   48
420
4733445
370
   -3
100
AcDbLine
 10
89.44999999999639
 20
1300.530409975333
 11
89.44999999999639
 21
1312.530409975333
  0
LINE
  5
23D
100
AcDbEntity
  8
0
  6
ByLayer
 62
   48
420
4733445
370
   -3
100
AcDbLine
 10
101.4499999999964
 20
1300.530409975333
 11
89.44999999999639
 21
1300.530409975333
  0
LINE
  5
23E
100
AcDbEntity
  8
0
  6
ByLayer
 62
   48
420
4733445
370
   -3
100
AcDbLine
 10
101.4499999999964
 20
1300.530409975333
 11
101.4499999999964
 21
1302.880409975334
  0
ARC
  5
23F
100
AcDbEntity
  8
0
  6
ByLayer
 62
   48
420
4733445
370
   -3
100
AcDbCircle
 10
103.0499999999964
 20
1302.880409975334
 40
1.599999999999981
100
AcDbArc
 50
2.036e-013
 51
180.0000000000002
  0
LINE
  5
240
100
AcDbEntity
  8
0
  6
ByLayer
 62
   48
420
4733445
370
   -3
100
AcDbLine
 10
104.6499999999963
 20
1302.880409975334
 11
108.4499999999963
 21
1302.880409975334
  0
ARC
  5
241
100
AcDbEntity
  8
0
  6
ByLayer
 62
   48
420
4733445
370
   -3
100
AcDbCircle
 10
108.4499999999963
 20
1300.880409975334
 40
2
100
AcDbArc
 50
359.9999999999661
 51
90.0000000000002
  0
LINE
  5
242
100
AcDbEntity
  8
0
  6
ByLayer
 62
   48
420
4733445
370
   -3
100
AcDbLine
 10
110.4499999999963
 20
1300.880409975334
 11
110.4499999999964
 21
1292.180409975334
  0
ARC
  5
243
100
AcDbEntity
  8
0
  6
ByLayer
 62
   48
420
4733445
370
   -3
100
AcDbCircle
 10
108.4499999999964
 20
1292.180409975334
 40
2
100
AcDbArc
 50
269.9999999999878
 51
2.036e-013
  0
LINE
  5
244
100
AcDbEntity
  8
0
  6
ByLayer
 62
   48
420
4733445
370
   -3
100
AcDbLine
 10
108.4499999999964
 20
1290.180409975334
 11
104.6499999999964
 21
1290.180409975334
  0
ARC
  5
245
100
AcDbEntity
  8
0
  6
ByLayer
 62
   48
420
4733445
370
   -3
100
AcDbCircle
 10
103.0499999999966
 20
1290.180409975334
 40
1.599999999999985
100
AcDbArc
 50
180.0000000000002
 51
1.781e-013
  0
LINE
  5
246
100
AcDbEntity
  8
0
  6
ByLayer
 62
   48
420
4733445
370
   -3
100
AcDbLine
 10
101.4499999999965
 20
1290.180409975334
 11
101.4499999999965
 21
1292.530409975333
  0
LINE
  5
247
100
AcDbEntity
  8
0
  6
ByLayer
 62
   48
420
4733445
370
   -3
100
AcDbLine
 10
89.44999999999651
 20
1292.530409975333
 11
101.4499999999965
 21
1292.530409975333
  0
LINE
  5
248
100
AcDbEntity
  8
0
  6
ByLayer
 62
   48
420
4733445
370
   -3
100
AcDbLine
 10
89.44999999999673
 20
1210.530409975334
 11
89.44999999999651
 21
1292.530409975333
  0
LINE
  5
249
100
AcDbEntity
  8
0
  6
ByLayer
 62
   48
420
4733445
370
   -3
100
AcDbLine
 10
101.4499999999967
 20
1210.530409975334
 11
89.44999999999673
 21
1210.530409975334
  0
LINE
  5
24A
100
AcDbEntity
  8
0
  6
ByLayer
 62
   48
420
4733445
370
   -3
100
AcDbLine
 10
101.4499999999967
 20
1210.530409975334
 11
101.4499999999967
 21
1212.880409975333
  0
ARC
  5
24B
100
AcDbEntity
  8
0
  6
ByLayer
 62
   48
420
4733445
370
   -3
100
AcDbCircle
 10
103.0499999999968
 20
1212.880409975334
 40
1.599999999999987
100
AcDbArc
 50
2.036e-013
 51
180.0000000000002
  0
LINE
  5
24C
100
AcDbEntity
  8
0
  6
ByLayer
 62
   48
420
4733445
370
   -3
100
AcDbLine
 10
104.6499999999966
 20
1212.880409975334
 11
108.4499999999966
 21
1212.880409975334
  0
ARC
  5
24D
100
AcDbEntity
  8
0
  6
ByLayer
 62
   48
420
4733445
370
   -3
100
AcDbCircle
 10
108.4499999999966
 20
1210.880409975334
 40
2
100
AcDbArc
 50
359.9999999999659
 51
90.0000000000002
  0
LINE
  5
24E
100
AcDbEntity
  8
0
  6
ByLayer
 62
   48
420
4733445
370
   -3
100
AcDbLine
 10
110.4499999999966
 20
1210.880409975334
 11
110.4499999999966
 21
1202.180409975334
  0
ARC
  5
24F
100
AcDbEntity
  8
0
  6
ByLayer
 62
   48
420
4733445
370
   -3
100
AcDbCircle
 10
108.4499999999966
 20
1202.180409975334
 40
2
100
AcDbArc
 50
269.9999999999879
 51
2.036e-013
  0
LINE
  5
250
100
AcDbEntity
  8
0
  6
ByLayer
 62
   48
420
4733445
370
   -3
100
AcDbLine
 10
108.4499999999966
 20
1200.180409975334
 11
104.6499999999966
 21
1200.180409975334
  0
ARC
  5
251
100
AcDbEntity
  8
0
  6
ByLayer
 62
   48
420
4733445
370
   -3
100
AcDbCircle
 10
103.0499999999968
 20
1200.180409975334
 40
1.59999999999999
100
AcDbArc
 50
180.0000000000004
 51
359.9999999999999
  0
LINE
  5
252
100
AcDbEntity
  8
0
  6
ByLayer
 62
   48
420
4733445
370
   -3
100
AcDbLine
 10
101.4499999999967
 20
1200.180409975334
 11
101.4499999999967
 21
1202.530409975334
  0
LINE
  5
253
100
AcDbEntity
  8
0
  6
ByLayer
 62
   48
420
4733445
370
   -3
100
AcDbLine
 10
89.44999999999673
 20
1202.530409975334
 11
101.4499999999967
 21
1202.530409975334
  0
LINE
  5
254
100
AcDbEntity
  8
0
  6
ByLayer
 62
   48
420
4733445
370
   -3
100
AcDbLine
 10
89.44999999999685
 20
1190.019999999992
 11
89.44999999999673
 21
1202.530409975334
  0
LINE
  5
255
100
AcDbEntity
  8
0
  6
ByLayer
 62
   48
420
4733445
370
   -3
100
AcDbLine
 10
89.44999999999685
 20
1190.019999999992
 11
79.44999999999685
 21
1190.019999999992
  0
ARC
  5
256
100
AcDbEntity
  8
0
  6
ByLayer
 62
   48
420
4733445
370
   -3
100
AcDbCircle
 10
79.44999999999685
 20
1188.019999999992
 40
2
100
AcDbArc
 50
90.0000000000002
 51
180.0000000000346
  0
LINE
  5
257
100
AcDbEntity
  8
0
  6
ByLayer
 62
   48
420
4733445
370
   -3
100
AcDbLine
 10
77.44999999999683
 20
1188.019999999992
 11
77.44999999999683
 21
1172.019999999992
  0
ARC
  5
258
100
AcDbEntity
  8
0
  6
ByLayer
 62
   48
420
4733445
370
   -3
100
AcDbCircle
 10
79.44999999999685
 20
1172.019999999992
 40
2
100
AcDbArc
 50
180.0000000000002
 51
270.0000000000124
  0
LINE
  5
259
100
AcDbEntity
  8
0
  6
ByLayer
 62
   48
420
4733445
370
   -3
100
AcDbLine
 10
79.44999999999685
 20
1170.019999999992
 11
1311.650000000004
 21
1170.019999999997
  0
LINE
  5
25A
100
AcDbEntity
  8
0
  6
ByLayer
 62
   48
420
4733445
370
   -3
100
AcDbLine
 10
1311.650000000004
 20
1188.019999999996
 11
1311.650000000004
 21
1170.019999999997
  0
ARC
  5
25B
100
AcDbEntity
  8
0
  6
ByLayer
 62
   48
420
4733445
370
   -3
100
AcDbCircle
 10
1313.650000000004
 20
1188.019999999996
 40
2
100
AcDbArc
 50
90.0000000000002
 51
180.0000000000446
  0
LINE
  5
25C
100
AcDbEntity
  8
0
  6
ByLayer
 62
   48
420
4733445
370
   -3
100
AcDbLine
 10
1323.650000000004
 20
1190.019999999996
 11
1313.650000000004
 21
1190.019999999996
  0
LINE
  5
25D
100
AcDbEntity
  8
0
  6
ByLayer
 62
   48
420
4733445
370
   -3
100
AcDbLine
 10
1323.650000000004
 20
1190.019999999996
 11
1323.650000000003
 21
1312.530409975338
  0
LINE
  5
25E
100
AcDbEntity
  8
0
  6
ByLayer
 62
   48
420
4733445
370
   -3
100
AcDbLine
 10
1313.650000000003
 20
1312.530409975338
 11
1323.650000000003
 21
1312.530409975338
  0
ARC
  5
25F
100
AcDbEntity
  8
0
  6
ByLayer
 62
   48
420
4733445
370
   -3
100
AcDbCircle
 10
1313.650000000003
 20
1314.530409975338
 40
2
100
AcDbArc
 50
180.0000000000002
 51
270.0000000000465
  0
LINE
  5
260
100
AcDbEntity
  8
0
  6
ByLayer
 62
   48
420
4733445
370
   -3
100
AcDbLine
 10
1311.650000000003
 20
1328.580049975338
 11
1311.650000000003
 21
1314.530409975338
  0
ARC
  5
261
100
AcDbEntity
  8
0
  6
ByLayer
 62
   48
420
4733445
370
   -3
100
AcDbCircle
 10
1313.650000000003
 20
1328.580049975338
 40
2
100
AcDbArc
 50
90.0000000000002
 51
180.0000000000442
  0
LINE
  5
262
100
AcDbEntity
  8
0
  6
ByLayer
 62
   48
420
4733445
370
   -3
100
AcDbLine
 10
350.5323819577472
 20
1352.519999999984
 11
350.5323819577472
 21
1364.519999999984
  0
LINE
  5
263
100
AcDbEntity
  8
0
  6
ByLayer
 62
   48
420
4733445
370
   -3
100
AcDbLine
 10
350.5323819577472
 20
1364.519999999984
 11
370.5323819577477
 21
1364.519999999984
  0
LINE
  5
264
100
AcDbEntity
  8
0
  6
ByLayer
 62
   48
420
4733445
370
   -3
100
AcDbLine
 10
370.5323819577473
 20
1364.519999999984
 11
370.5323819577474
 21
1352.519999999984
  0
LINE
  5
265
100
AcDbEntity
  8
0
  6
ByLayer
 62
   48
420
4733445
370
   -3
100
AcDbLine
 10
350.5323819577472
 20
1352.519999999984
 11
370.5323819577475
 21
1352.519999999984
  0
CIRCLE
  5
266
100
AcDbEntity
  8
0
  6
ByLayer
 62
   48
420
4733445
370
   -3
100
AcDbCircle
 10
330.5323819577377
 20
1358.519999999984
 40
4.000000000000015
  0
LINE
  5
267
100
AcDbEntity
  8
0
  6
ByLayer
 62
   48
420
4733445
370
   -3
100
AcDbLine
 10
150.450000000004
 20
1352.519999999983
 11
150.4500000000039
 21
1364.519999999983
  0
LINE
  5
268
100
AcDbEntity
  8
0
  6
ByLayer
 62
   48
420
4733445
370
   -3
100
AcDbLine
 10
150.4500000000039
 20
1364.519999999983
 11
170.4500000000039
 21
1364.519999999983
  0
LINE
  5
269
100
AcDbEntity
  8
0
  6
ByLayer
 62
   48
420
4733445
370
   -3
100
AcDbLine
 10
170.4500000000039
 20
1364.519999999983
 11
170.450000000004
 21
1352.519999999983
  0
LINE
  5
26A
100
AcDbEntity
  8
0
  6
ByLayer
 62
   48
420
4733445
370
   -3
100
AcDbLine
 10
150.450000000004
 20
1352.519999999983
 11
170.450000000004
 21
1352.519999999983
  0
CIRCLE
  5
26B
100
AcDbEntity
  8
0
  6
ByLayer
 62
   48
420
4733445
370
   -3
100
AcDbCircle
 10
134.4499999999942
 20
1358.519999999983
 40
4.000000000000002
  0
LINE
  5
26C
100
AcDbEntity
  8
0
  6
ByLayer
 62
   48
420
4733445
370
   -3
100
AcDbLine
 10
191.9499999999969
 20
1189.019999999993
 11
179.9499999999969
 21
1189.019999999993
  0
LINE
  5
26D
100
AcDbEntity
  8
0
  6
ByLayer
 62
   48
420
4733445
370
   -3
100
AcDbLine
 10
179.9499999999969
 20
1189.019999999993
 11
179.9499999999967
 21
1200.979999999993
  0
LINE
  5
26E
100
AcDbEntity
  8
0
  6
ByLayer
 62
   48
420
4733445
370
   -3
100
AcDbLine
 10
179.9499999999967
 20
1200.979999999993
 11
191.9499999999967
 21
1200.979999999993
  0
LINE
  5
26F
100
AcDbEntity
  8
0
  6
ByLayer
 62
   48
420
4733445
370
   -3
100
AcDbLine
 10
191.9499999999969
 20
1189.019999999993
 11
191.9499999999967
 21
1200.979999999993
  0
LINE
  5
270
100
AcDbEntity
  8
0
  6
ByLayer
 62
   48
420
4733445
370
   -3
100
AcDbLine
 10
279.9499999999908
 20
1353.059999999993
 11
291.9499999999906
 21
1353.059999999993
  0
LINE
  5
271
100
AcDbEntity
  8
0
  6
ByLayer
 62
   48
420
4733445
370
   -3
100
AcDbLine
 10
279.9499999999908
 20
1365.019999999993
 11
279.9499999999908
 21
1353.059999999993
  0
LINE
  5
272
100
AcDbEntity
  8
0
  6
ByLayer
 62
   48
420
4733445
370
   -3
100
AcDbLine
 10
291.9499999999906
 20
1365.019999999993
 11
279.9499999999906
 21
1365.019999999993
  0
LINE
  5
273
100
AcDbEntity
  8
0
  6
ByLayer
 62
   48
420
4733445
370
   -3
100
AcDbLine
 10
291.9499999999906
 20
1353.059999999993
 11
291.9499999999906
 21
1365.019999999993
  0
LINE
  5
274
100
AcDbEntity
  8
0
  6
ByLayer
 62
   48
420
4733445
370
   -3
100
AcDbLine
 10
179.9499999999963
 20
1353.059999999993
 11
191.9499999999961
 21
1353.059999999993
  0
LINE
  5
275
100
AcDbEntity
  8
0
  6
ByLayer
 62
   48
420
4733445
370
   -3
100
AcDbLine
 10
179.9499999999962
 20
1365.019999999993
 11
179.9499999999963
 21
1353.059999999993
  0
LINE
  5
276
100
AcDbEntity
  8
0
  6
ByLayer
 62
   48
420
4733445
370
   -3
100
AcDbLine
 10
191.949999999996
 20
1365.019999999993
 11
179.9499999999962
 21
1365.019999999993
  0
LINE
  5
277
100
AcDbEntity
  8
0
  6
ByLayer
 62
   48
420
4733445
370
   -3
100
AcDbLine
 10
191.9499999999961
 20
1353.059999999993
 11
191.949999999996
 21
1365.019999999993
  0
LINE
  5
278
100
AcDbEntity
  8
0
  6
ByLayer
 62
   48
420
4733445
370
   -3
100
AcDbLine
 10
391.949999999996
 20
1221.551728961751
 11
379.9499999999961
 21
1221.551728961751
  0
LINE
  5
279
100
AcDbEntity
  8
0
  6
ByLayer
 62
   48
420
4733445
370
   -3
100
AcDbLine
 10
391.9499999999962
 20
1188.020000000004
 11
391.949999999996
 21
1221.551728961751
  0
LINE
  5
27A
100
AcDbEntity
  8
0
  6
ByLayer
 62
   48
420
4733445
370
   -3
100
AcDbLine
 10
391.9499999999962
 20
1188.020000000004
 11
379.9499999999962
 21
1188.020000000004
  0
LINE
  5
27B
100
AcDbEntity
  8
0
  6
ByLayer
 62
   48
420
4733445
370
   -3
100
AcDbLine
 10
379.9499999999961
 20
1221.551728961751
 11
379.9499999999962
 21
1188.020000000004
  0
LINE
  5
27C
100
AcDbEntity
  8
0
  6
ByLayer
 62
   48
420
4733445
370
   -3
100
AcDbLine
 10
779.9499999999961
 20
1325.059999999995
 11
791.9499999999961
 21
1325.059999999995
  0
LINE
  5
27D
100
AcDbEntity
  8
0
  6
ByLayer
 62
   48
420
4733445
370
   -3
100
AcDbLine
 10
791.9499999999964
 20
1228.979999999995
 11
791.949999999996
 21
1325.059999999995
  0
LINE
  5
27E
100
AcDbEntity
  8
0
  6
ByLayer
 62
   48
420
4733445
370
   -3
100
AcDbLine
 10
791.9499999999964
 20
1228.979999999995
 11
779.9499999999962
 21
1228.979999999995
  0
LINE
  5
27F
100
AcDbEntity
  8
0
  6
ByLayer
 62
   48
420
4733445
370
   -3
100
AcDbLine
 10
779.9499999999962
 20
1228.979999999995
 11
779.949999999996
 21
1325.059999999995
  0
LINE
  5
280
100
AcDbEntity
  8
0
  6
ByLayer
 62
   48
420
4733445
370
   -3
100
AcDbLine
 10
579.9499999999958
 20
1325.059999999994
 11
591.9499999999958
 21
1325.059999999994
  0
LINE
  5
281
100
AcDbEntity
  8
0
  6
ByLayer
 62
   48
420
4733445
370
   -3
100
AcDbLine
 10
591.9499999999962
 20
1228.979999999994
 11
591.9499999999957
 21
1325.059999999994
  0
LINE
  5
282
100
AcDbEntity
  8
0
  6
ByLayer
 62
   48
420
4733445
370
   -3
100
AcDbLine
 10
591.9499999999962
 20
1228.979999999994
 11
579.9499999999962
 21
1228.979999999994
  0
LINE
  5
283
100
AcDbEntity
  8
0
  6
ByLayer
 62
   48
420
4733445
370
   -3
100
AcDbLine
 10
579.9499999999962
 20
1228.979999999994
 11
579.9499999999957
 21
1325.059999999994
  0
LINE
  5
284
100
AcDbEntity
  8
0
  6
ByLayer
 62
   48
420
4733445
370
   -3
100
AcDbLine
 10
691.9499999999963
 20
1221.551728961752
 11
679.9499999999963
 21
1221.551728961752
  0
LINE
  5
285
100
AcDbEntity
  8
0
  6
ByLayer
 62
   48
420
4733445
370
   -3
100
AcDbLine
 10
691.9499999999963
 20
1188.019999999995
 11
691.9499999999963
 21
1221.551728961752
  0
LINE
  5
286
100
AcDbEntity
  8
0
  6
ByLayer
 62
   48
420
4733445
370
   -3
100
AcDbLine
 10
691.9499999999963
 20
1188.019999999995
 11
679.9499999999963
 21
1188.019999999995
  0
LINE
  5
287
100
AcDbEntity
  8
0
  6
ByLayer
 62
   48
420
4733445
370
   -3
100
AcDbLine
 10
679.9499999999963
 20
1221.551728961752
 11
679.9499999999963
 21
1188.019999999995
  0
LINE
  5
288
100
AcDbEntity
  8
0
  6
ByLayer
 62
   48
420
4733445
370
   -3
100
AcDbLine
 10
591.9499999999958
 20
1353.059999999994
 11
579.9499999999958
 21
1353.059999999994
  0
LINE
  5
289
100
AcDbEntity
  8
0
  6
ByLayer
 62
   48
420
4733445
370
   -3
100
AcDbLine
 10
579.9499999999958
 20
1353.059999999994
 11
579.9499999999957
 21
1365.019999999994
  0
LINE
  5
28A
100
AcDbEntity
  8
0
  6
ByLayer
 62
   48
420
4733445
370
   -3
100
AcDbLine
 10
579.9499999999957
 20
1365.019999999994
 11
591.9499999999957
 21
1365.019999999994
  0
LINE
  5
28B
100
AcDbEntity
  8
0
  6
ByLayer
 62
   48
420
4733445
370
   -3
100
AcDbLine
 10
591.9499999999958
 20
1353.059999999994
 11
591.9499999999957
 21
1365.019999999994
  0
LINE
  5
28C
100
AcDbEntity
  8
0
  6
ByLayer
 62
   48
420
4733445
370
   -3
100
AcDbLine
 10
791.9499999999961
 20
1353.059999999995
 11
779.9499999999958
 21
1353.059999999995
  0
LINE
  5
28D
100
AcDbEntity
  8
0
  6
ByLayer
 62
   48
420
4733445
370
   -3
100
AcDbLine
 10
779.9499999999958
 20
1353.059999999995
 11
779.9499999999958
 21
1365.019999999995
  0
LINE
  5
28E
100
AcDbEntity
  8
0
  6
ByLayer
 62
   48
420
4733445
370
   -3
100
AcDbLine
 10
779.9499999999958
 20
1365.019999999995
 11
791.9499999999961
 21
1365.019999999995
  0
LINE
  5
28F
100
AcDbEntity
  8
0
  6
ByLayer
 62
   48
420
4733445
370
   -3
100
AcDbLine
 10
791.9499999999961
 20
1353.059999999995
 11
791.9499999999961
 21
1365.019999999995
  0
CIRCLE
  5
290
100
AcDbEntity
  8
0
  6
ByLayer
 62
   48
420
4733445
370
   -3
100
AcDbCircle
 10
685.9499999999961
 20
1237.551728961752
 40
3.999999999999993
  0
LINE
  5
291
100
AcDbEntity
  8
0
  6
ByLayer
 62
   48
420
4733445
370
   -3
100
AcDbLine
 10
579.9499999999962
 20
1200.979999999994
 11
591.9499999999962
 21
1200.979999999994
  0
LINE
  5
292
100
AcDbEntity
  8
0
  6
ByLayer
 62
   48
420
4733445
370
   -3
100
AcDbLine
 10
591.9499999999962
 20
1189.019999999994
 11
591.9499999999962
 21
1200.979999999994
  0
LINE
  5
293
100
AcDbEntity
  8
0
  6
ByLayer
 62
   48
420
4733445
370
   -3
100
AcDbLine
 10
591.9499999999962
 20
1189.019999999994
 11
579.9499999999962
 21
1189.019999999994
  0
LINE
  5
294
100
AcDbEntity
  8
0
  6
ByLayer
 62
   48
420
4733445
370
   -3
100
AcDbLine
 10
579.9499999999962
 20
1189.019999999994
 11
579.9499999999962
 21
1200.979999999994
  0
LINE
  5
295
100
AcDbEntity
  8
0
  6
ByLayer
 62
   48
420
4733445
370
   -3
100
AcDbLine
 10
779.9499999999964
 20
1200.979999999995
 11
791.9499999999964
 21
1200.979999999995
  0
LINE
  5
296
100
AcDbEntity
  8
0
  6
ByLayer
 62
   48
420
4733445
370
   -3
100
AcDbLine
 10
791.9499999999964
 20
1189.019999999995
 11
791.9499999999964
 21
1200.979999999995
  0
LINE
  5
297
100
AcDbEntity
  8
0
  6
ByLayer
 62
   48
420
4733445
370
   -3
100
AcDbLine
 10
791.9499999999964
 20
1189.019999999995
 11
779.9499999999964
 21
1189.019999999995
  0
LINE
  5
298
100
AcDbEntity
  8
0
  6
ByLayer
 62
   48
420
4733445
370
   -3
100
AcDbLine
 10
779.9499999999964
 20
1189.019999999995
 11
779.9499999999964
 21
1200.979999999995
  0
CIRCLE
  5
299
100
AcDbEntity
  8
0
  6
ByLayer
 62
   48
420
4733445
370
   -3
100
AcDbCircle
 10
535.9500000000016
 20
1176.019999999994
 40
4.000000000000054
  0
CIRCLE
  5
29A
100
AcDbEntity
  8
0
  6
ByLayer
 62
   48
420
4733445
370
   -3
100
AcDbCircle
 10
247.9500000000016
 20
1176.019999999993
 40
4.00000000000011
  0
CIRCLE
  5
29B
100
AcDbEntity
  8
0
  6
ByLayer
 62
   48
420
4733445
370
   -3
100
AcDbCircle
 10
385.949999999996
 20
1237.551728961751
 40
3.999999999999989
  0
CIRCLE
  5
29C
100
AcDbEntity
  8
0
  6
ByLayer
 62
   48
420
4733445
370
   -3
100
AcDbCircle
 10
585.9499999999962
 20
1214.979999999994
 40
3.999999999999952
  0
CIRCLE
  5
29D
100
AcDbEntity
  8
0
  6
ByLayer
 62
   48
420
4733445
370
   -3
100
AcDbCircle
 10
785.9499999999964
 20
1214.979999999995
 40
3.999999999999957
  0
CIRCLE
  5
29E
100
AcDbEntity
  8
0
  6
ByLayer
 62
   48
420
4733445
370
   -3
100
AcDbCircle
 10
485.9499999999962
 20
1214.979999999994
 40
3.99999999999999
  0
CIRCLE
  5
29F
100
AcDbEntity
  8
0
  6
ByLayer
 62
   48
420
4733445
370
   -3
100
AcDbCircle
 10
785.9499999999961
 20
1339.059999999995
 40
3.999999999999987
  0
CIRCLE
  5
2A0
100
AcDbEntity
  8
0
  6
ByLayer
 62
   48
420
4733445
370
   -3
100
AcDbCircle
 10
585.9499999999958
 20
1339.059999999994
 40
3.999999999999977
  0
CIRCLE
  5
2A1
100
AcDbEntity
  8
0
  6
ByLayer
 62
   48
420
4733445
370
   -3
100
AcDbCircle
 10
485.9499999999957
 20
1339.059999999994
 40
4.000000000000002
  0
LINE
  5
2A2
100
AcDbEntity
  8
0
  6
ByLayer
 62
   48
420
4733445
370
   -3
100
AcDbLine
 10
179.9499999999963
 20
1325.059999999993
 11
179.9499999999967
 21
1228.979999999993
  0
LINE
  5
2A3
100
AcDbEntity
  8
0
  6
ByLayer
 62
   48
420
4733445
370
   -3
100
AcDbLine
 10
191.9499999999961
 20
1325.059999999993
 11
179.9499999999963
 21
1325.059999999993
  0
LINE
  5
2A4
100
AcDbEntity
  8
0
  6
ByLayer
 62
   48
420
4733445
370
   -3
100
AcDbLine
 10
191.9499999999965
 20
1228.979999999993
 11
191.9499999999961
 21
1325.059999999993
  0
LINE
  5
2A5
100
AcDbEntity
  8
0
  6
ByLayer
 62
   48
420
4733445
370
   -3
100
AcDbLine
 10
179.9499999999967
 20
1228.979999999993
 11
191.9499999999965
 21
1228.979999999993
  0
CIRCLE
  5
2A6
100
AcDbEntity
  8
0
  6
ByLayer
 62
   48
420
4733445
370
   -3
100
AcDbCircle
 10
185.9499999999965
 20
1214.979999999993
 40
3.999999999999919
  0
CIRCLE
  5
2A7
100
AcDbEntity
  8
0
  6
ByLayer
 62
   48
420
4733445
370
   -3
100
AcDbCircle
 10
185.9499999999961
 20
1339.059999999993
 40
4.000000000000004
  0
LINE
  5
2A8
100
AcDbEntity
  8
0
  6
ByLayer
 62
   48
420
4733445
370
   -3
100
AcDbLine
 10
291.9499999999911
 20
1228.979999999993
 11
291.9499999999907
 21
1325.059999999993
  0
LINE
  5
2A9
100
AcDbEntity
  8
0
  6
ByLayer
 62
   48
420
4733445
370
   -3
100
AcDbLine
 10
279.9499999999911
 20
1228.979999999993
 11
291.9499999999911
 21
1228.979999999993
  0
LINE
  5
2AA
100
AcDbEntity
  8
0
  6
ByLayer
 62
   48
420
4733445
370
   -3
100
AcDbLine
 10
279.9499999999907
 20
1325.059999999993
 11
279.9499999999911
 21
1228.979999999993
  0
LINE
  5
2AB
100
AcDbEntity
  8
0
  6
ByLayer
 62
   48
420
4733445
370
   -3
100
AcDbLine
 10
291.9499999999907
 20
1325.059999999993
 11
279.9499999999907
 21
1325.059999999993
  0
LINE
  5
2AC
100
AcDbEntity
  8
0
  6
ByLayer
 62
   48
420
4733445
370
   -3
100
AcDbLine
 10
291.9499999999912
 20
1189.019999999993
 11
291.9499999999911
 21
1200.979999999993
  0
LINE
  5
2AD
100
AcDbEntity
  8
0
  6
ByLayer
 62
   48
420
4733445
370
   -3
100
AcDbLine
 10
279.9499999999912
 20
1189.019999999993
 11
291.9499999999912
 21
1189.019999999993
  0
LINE
  5
2AE
100
AcDbEntity
  8
0
  6
ByLayer
 62
   48
420
4733445
370
   -3
100
AcDbLine
 10
279.9499999999911
 20
1200.979999999993
 11
279.9499999999912
 21
1189.019999999993
  0
LINE
  5
2AF
100
AcDbEntity
  8
0
  6
ByLayer
 62
   48
420
4733445
370
   -3
100
AcDbLine
 10
291.9499999999911
 20
1200.979999999993
 11
279.9499999999911
 21
1200.979999999993
  0
CIRCLE
  5
2B0
100
AcDbEntity
  8
0
  6
ByLayer
 62
   48
420
4733445
370
   -3
100
AcDbCircle
 10
285.9499999999911
 20
1214.979999999993
 40
4.00000000000002
  0
CIRCLE
  5
2B1
100
AcDbEntity
  8
0
  6
ByLayer
 62
   48
420
4733445
370
   -3
100
AcDbCircle
 10
285.9499999999907
 20
1339.059999999993
 40
3.999999999999947
  0
LINE
  5
2B2
100
AcDbEntity
  8
0
  6
ByLayer
 62
   48
420
4733445
370
   -3
100
AcDbLine
 10
491.9499999999959
 20
1228.979999999994
 11
491.9499999999956
 21
1325.059999999994
  0
LINE
  5
2B3
100
AcDbEntity
  8
0
  6
ByLayer
 62
   48
420
4733445
370
   -3
100
AcDbLine
 10
479.9499999999959
 20
1228.979999999994
 11
491.9499999999959
 21
1228.979999999994
  0
LINE
  5
2B4
100
AcDbEntity
  8
0
  6
ByLayer
 62
   48
420
4733445
370
   -3
100
AcDbLine
 10
479.9499999999956
 20
1325.059999999994
 11
479.9499999999959
 21
1228.979999999994
  0
LINE
  5
2B5
100
AcDbEntity
  8
0
  6
ByLayer
 62
   48
420
4733445
370
   -3
100
AcDbLine
 10
491.9499999999956
 20
1325.059999999994
 11
479.9499999999956
 21
1325.059999999994
  0
LINE
  5
2B6
100
AcDbEntity
  8
0
  6
ByLayer
 62
   48
420
4733445
370
   -3
100
AcDbLine
 10
491.949999999996
 20
1189.019999999994
 11
491.949999999996
 21
1200.979999999994
  0
LINE
  5
2B7
100
AcDbEntity
  8
0
  6
ByLayer
 62
   48
420
4733445
370
   -3
100
AcDbLine
 10
479.949999999996
 20
1189.019999999994
 11
491.949999999996
 21
1189.019999999994
  0
LINE
  5
2B8
100
AcDbEntity
  8
0
  6
ByLayer
 62
   48
420
4733445
370
   -3
100
AcDbLine
 10
479.949999999996
 20
1200.979999999994
 11
479.949999999996
 21
1189.019999999994
  0
LINE
  5
2B9
100
AcDbEntity
  8
0
  6
ByLayer
 62
   48
420
4733445
370
   -3
100
AcDbLine
 10
491.949999999996
 20
1200.979999999994
 11
479.949999999996
 21
1200.979999999994
  0
LINE
  5
2BA
100
AcDbEntity
  8
0
  6
ByLayer
 62
   48
420
4733445
370
   -3
100
AcDbLine
 10
491.9499999999954
 20
1353.059999999994
 11
491.9499999999954
 21
1365.019999999994
  0
LINE
  5
2BB
100
AcDbEntity
  8
0
  6
ByLayer
 62
   48
420
4733445
370
   -3
100
AcDbLine
 10
479.9499999999954
 20
1353.059999999994
 11
491.9499999999954
 21
1353.059999999994
  0
LINE
  5
2BC
100
AcDbEntity
  8
0
  6
ByLayer
 62
   48
420
4733445
370
   -3
100
AcDbLine
 10
479.9499999999954
 20
1365.019999999994
 11
479.9499999999954
 21
1353.059999999994
  0
LINE
  5
2BD
100
AcDbEntity
  8
0
  6
ByLayer
 62
   48
420
4733445
370
   -3
100
AcDbLine
 10
491.9499999999954
 20
1365.019999999994
 11
479.9499999999954
 21
1365.019999999994
  0
CIRCLE
  5
2BE
100
AcDbEntity
  8
0
  6
ByLayer
 62
   48
420
4733445
370
   -3
100
AcDbCircle
 10
337.5186091623412
 20
1201.039999999993
 40
10
  0
LINE
  5
2BF
100
AcDbEntity
  8
0
  6
ByLayer
 62
   48
420
4733445
370
   -3
100
AcDbLine
 10
1295.949999999997
 20
1188.020000000007
 11
1283.949999999997
 21
1188.020000000007
  0
LINE
  5
2C0
100
AcDbEntity
  8
0
  6
ByLayer
 62
   48
420
4733445
370
   -3
100
AcDbLine
 10
1283.949999999997
 20
1221.551728961754
 11
1283.949999999997
 21
1188.020000000007
  0
LINE
  5
2C1
100
AcDbEntity
  8
0
  6
ByLayer
 62
   48
420
4733445
370
   -3
100
AcDbLine
 10
1295.949999999997
 20
1221.551728961754
 11
1283.949999999997
 21
1221.551728961754
  0
LINE
  5
2C2
100
AcDbEntity
  8
0
  6
ByLayer
 62
   48
420
4733445
370
   -3
100
AcDbLine
 10
1295.949999999997
 20
1188.020000000007
 11
1295.949999999997
 21
1221.551728961754
  0
LINE
  5
2C3
100
AcDbEntity
  8
0
  6
ByLayer
 62
   48
420
4733445
370
   -3
100
AcDbLine
 10
895.9499999999965
 20
1228.979999999995
 11
883.9499999999964
 21
1228.979999999995
  0
LINE
  5
2C4
100
AcDbEntity
  8
0
  6
ByLayer
 62
   48
420
4733445
370
   -3
100
AcDbLine
 10
883.9499999999962
 20
1325.059999999995
 11
883.9499999999965
 21
1228.979999999995
  0
LINE
  5
2C5
100
AcDbEntity
  8
0
  6
ByLayer
 62
   48
420
4733445
370
   -3
100
AcDbLine
 10
883.9499999999962
 20
1325.059999999995
 11
895.9499999999964
 21
1325.059999999995
  0
LINE
  5
2C6
100
AcDbEntity
  8
0
  6
ByLayer
 62
   48
420
4733445
370
   -3
100
AcDbLine
 10
895.9499999999964
 20
1325.059999999995
 11
895.9499999999966
 21
1228.979999999995
  0
LINE
  5
2C7
100
AcDbEntity
  8
0
  6
ByLayer
 62
   48
420
4733445
370
   -3
100
AcDbLine
 10
1095.949999999997
 20
1228.979999999996
 11
1083.949999999997
 21
1228.979999999996
  0
LINE
  5
2C8
100
AcDbEntity
  8
0
  6
ByLayer
 62
   48
420
4733445
370
   -3
100
AcDbLine
 10
1083.949999999996
 20
1325.059999999996
 11
1083.949999999997
 21
1228.979999999996
  0
LINE
  5
2C9
100
AcDbEntity
  8
0
  6
ByLayer
 62
   48
420
4733445
370
   -3
100
AcDbLine
 10
1083.949999999996
 20
1325.059999999996
 11
1095.949999999996
 21
1325.059999999996
  0
LINE
  5
2CA
100
AcDbEntity
  8
0
  6
ByLayer
 62
   48
420
4733445
370
   -3
100
AcDbLine
 10
1095.949999999996
 20
1325.059999999996
 11
1095.949999999997
 21
1228.979999999996
  0
LINE
  5
2CB
100
AcDbEntity
  8
0
  6
ByLayer
 62
   48
420
4733445
370
   -3
100
AcDbLine
 10
995.9499999999965
 20
1188.019999999996
 11
983.9499999999965
 21
1188.019999999996
  0
LINE
  5
2CC
100
AcDbEntity
  8
0
  6
ByLayer
 62
   48
420
4733445
370
   -3
100
AcDbLine
 10
983.9499999999965
 20
1221.551728961753
 11
983.9499999999965
 21
1188.019999999996
  0
LINE
  5
2CD
100
AcDbEntity
  8
0
  6
ByLayer
 62
   48
420
4733445
370
   -3
100
AcDbLine
 10
995.9499999999965
 20
1221.551728961753
 11
983.9499999999965
 21
1221.551728961753
  0
LINE
  5
2CE
100
AcDbEntity
  8
0
  6
ByLayer
 62
   48
420
4733445
370
   -3
100
AcDbLine
 10
995.9499999999965
 20
1188.019999999996
 11
995.9499999999965
 21
1221.551728961753
  0
LINE
  5
2CF
100
AcDbEntity
  8
0
  6
ByLayer
 62
   48
420
4733445
370
   -3
100
AcDbLine
 10
1083.949999999996
 20
1365.019999999996
 11
1095.949999999996
 21
1365.019999999996
  0
LINE
  5
2D0
100
AcDbEntity
  8
0
  6
ByLayer
 62
   48
420
4733445
370
   -3
100
AcDbLine
 10
1095.949999999996
 20
1365.019999999996
 11
1095.949999999996
 21
1353.059999999996
  0
LINE
  5
2D1
100
AcDbEntity
  8
0
  6
ByLayer
 62
   48
420
4733445
370
   -3
100
AcDbLine
 10
1095.949999999996
 20
1353.059999999996
 11
1083.949999999996
 21
1353.059999999996
  0
LINE
  5
2D2
100
AcDbEntity
  8
0
  6
ByLayer
 62
   48
420
4733445
370
   -3
100
AcDbLine
 10
1083.949999999996
 20
1365.019999999996
 11
1083.949999999996
 21
1353.059999999996
  0
LINE
  5
2D3
100
AcDbEntity
  8
0
  6
ByLayer
 62
   48
420
4733445
370
   -3
100
AcDbLine
 10
883.9499999999962
 20
1365.019999999995
 11
895.9499999999962
 21
1365.019999999995
  0
LINE
  5
2D4
100
AcDbEntity
  8
0
  6
ByLayer
 62
   48
420
4733445
370
   -3
100
AcDbLine
 10
895.9499999999962
 20
1365.019999999995
 11
895.9499999999962
 21
1353.059999999995
  0
LINE
  5
2D5
100
AcDbEntity
  8
0
  6
ByLayer
 62
   48
420
4733445
370
   -3
100
AcDbLine
 10
895.9499999999962
 20
1353.059999999995
 11
883.9499999999962
 21
1353.059999999995
  0
LINE
  5
2D6
100
AcDbEntity
  8
0
  6
ByLayer
 62
   48
420
4733445
370
   -3
100
AcDbLine
 10
883.9499999999962
 20
1365.019999999995
 11
883.9499999999962
 21
1353.059999999995
  0
CIRCLE
  5
2D7
100
AcDbEntity
  8
0
  6
ByLayer
 62
   48
420
4733445
370
   -3
100
AcDbCircle
 10
989.9499999999965
 20
1237.551728961753
 40
3.999999999999993
  0
LINE
  5
2D8
100
AcDbEntity
  8
0
  6
ByLayer
 62
   48
420
4733445
370
   -3
100
AcDbLine
 10
1095.949999999997
 20
1189.019999999996
 11
1083.949999999997
 21
1189.019999999996
  0
LINE
  5
2D9
100
AcDbEntity
  8
0
  6
ByLayer
 62
   48
420
4733445
370
   -3
100
AcDbLine
 10
1083.949999999997
 20
1200.979999999996
 11
1083.949999999997
 21
1189.019999999996
  0
LINE
  5
2DA
100
AcDbEntity
  8
0
  6
ByLayer
 62
   48
420
4733445
370
   -3
100
AcDbLine
 10
1083.949999999997
 20
1200.979999999996
 11
1095.949999999997
 21
1200.979999999996
  0
LINE
  5
2DB
100
AcDbEntity
  8
0
  6
ByLayer
 62
   48
420
4733445
370
   -3
100
AcDbLine
 10
1095.949999999997
 20
1200.979999999996
 11
1095.949999999997
 21
1189.019999999996
  0
LINE
  5
2DC
100
AcDbEntity
  8
0
  6
ByLayer
 62
   48
420
4733445
370
   -3
100
AcDbLine
 10
895.9499999999967
 20
1189.019999999995
 11
883.9499999999964
 21
1189.019999999995
  0
LINE
  5
2DD
100
AcDbEntity
  8
0
  6
ByLayer
 62
   48
420
4733445
370
   -3
100
AcDbLine
 10
883.9499999999964
 20
1200.979999999995
 11
883.9499999999964
 21
1189.019999999995
  0
LINE
  5
2DE
100
AcDbEntity
  8
0
  6
ByLayer
 62
   48
420
4733445
370
   -3
100
AcDbLine
 10
883.9499999999964
 20
1200.979999999995
 11
895.9499999999967
 21
1200.979999999995
  0
LINE
  5
2DF
100
AcDbEntity
  8
0
  6
ByLayer
 62
   48
420
4733445
370
   -3
100
AcDbLine
 10
895.9499999999967
 20
1200.979999999995
 11
895.9499999999967
 21
1189.019999999995
  0
CIRCLE
  5
2E0
100
AcDbEntity
  8
0
  6
ByLayer
 62
   48
420
4733445
370
   -3
100
AcDbCircle
 10
1139.949999999992
 20
1176.019999999996
 40
4.000000000000054
  0
CIRCLE
  5
2E1
100
AcDbEntity
  8
0
  6
ByLayer
 62
   48
420
4733445
370
   -3
100
AcDbCircle
 10
1289.949999999997
 20
1237.551728961754
 40
3.999999999999989
  0
CIRCLE
  5
2E2
100
AcDbEntity
  8
0
  6
ByLayer
 62
   48
420
4733445
370
   -3
100
AcDbCircle
 10
1089.949999999997
 20
1214.979999999996
 40
3.999999999999952
  0
CIRCLE
  5
2E3
100
AcDbEntity
  8
0
  6
ByLayer
 62
   48
420
4733445
370
   -3
100
AcDbCircle
 10
889.9499999999965
 20
1214.979999999995
 40
3.999999999999957
  0
CIRCLE
  5
2E4
100
AcDbEntity
  8
0
  6
ByLayer
 62
   48
420
4733445
370
   -3
100
AcDbCircle
 10
1189.949999999997
 20
1214.979999999996
 40
3.99999999999999
  0
CIRCLE
  5
2E5
100
AcDbEntity
  8
0
  6
ByLayer
 62
   48
420
4733445
370
   -3
100
AcDbCircle
 10
889.9499999999962
 20
1339.059999999995
 40
3.999999999999987
  0
CIRCLE
  5
2E6
100
AcDbEntity
  8
0
  6
ByLayer
 62
   48
420
4733445
370
   -3
100
AcDbCircle
 10
1089.949999999996
 20
1339.059999999996
 40
3.999999999999977
  0
CIRCLE
  5
2E7
100
AcDbEntity
  8
0
  6
ByLayer
 62
   48
420
4733445
370
   -3
100
AcDbCircle
 10
1189.949999999996
 20
1339.059999999996
 40
4.000000000000002
  0
LINE
  5
2E8
100
AcDbEntity
  8
0
  6
ByLayer
 62
   48
420
4733445
370
   -3
100
AcDbLine
 10
1195.949999999997
 20
1228.979999999996
 11
1195.949999999996
 21
1325.059999999996
  0
LINE
  5
2E9
100
AcDbEntity
  8
0
  6
ByLayer
 62
   48
420
4733445
370
   -3
100
AcDbLine
 10
1183.949999999997
 20
1228.979999999996
 11
1195.949999999997
 21
1228.979999999996
  0
LINE
  5
2EA
100
AcDbEntity
  8
0
  6
ByLayer
 62
   48
420
4733445
370
   -3
100
AcDbLine
 10
1183.949999999996
 20
1325.059999999996
 11
1183.949999999997
 21
1228.979999999996
  0
LINE
  5
2EB
100
AcDbEntity
  8
0
  6
ByLayer
 62
   48
420
4733445
370
   -3
100
AcDbLine
 10
1195.949999999996
 20
1325.059999999996
 11
1183.949999999996
 21
1325.059999999996
  0
LINE
  5
2EC
100
AcDbEntity
  8
0
  6
ByLayer
 62
   48
420
4733445
370
   -3
100
AcDbLine
 10
1195.949999999997
 20
1189.019999999996
 11
1195.949999999997
 21
1200.979999999996
  0
LINE
  5
2ED
100
AcDbEntity
  8
0
  6
ByLayer
 62
   48
420
4733445
370
   -3
100
AcDbLine
 10
1183.949999999997
 20
1189.019999999996
 11
1195.949999999997
 21
1189.019999999996
  0
LINE
  5
2EE
100
AcDbEntity
  8
0
  6
ByLayer
 62
   48
420
4733445
370
   -3
100
AcDbLine
 10
1183.949999999997
 20
1200.979999999996
 11
1183.949999999997
 21
1189.019999999996
  0
LINE
  5
2EF
100
AcDbEntity
  8
0
  6
ByLayer
 62
   48
420
4733445
370
   -3
100
AcDbLine
 10
1195.949999999997
 20
1200.979999999996
 11
1183.949999999997
 21
1200.979999999996
  0
LINE
  5
2F0
100
AcDbEntity
  8
0
  6
ByLayer
 62
   48
420
4733445
370
   -3
100
AcDbLine
 10
1195.949999999996
 20
1353.059999999996
 11
1195.949999999996
 21
1365.019999999996
  0
LINE
  5
2F1
100
AcDbEntity
  8
0
  6
ByLayer
 62
   48
420
4733445
370
   -3
100
AcDbLine
 10
1183.949999999996
 20
1353.059999999996
 11
1195.949999999996
 21
1353.059999999996
  0
LINE
  5
2F2
100
AcDbEntity
  8
0
  6
ByLayer
 62
   48
420
4733445
370
   -3
100
AcDbLine
 10
1183.949999999996
 20
1365.019999999996
 11
1183.949999999996
 21
1353.059999999996
  0
LINE
  5
2F3
100
AcDbEntity
  8
0
  6
ByLayer
 62
   48
420
4733445
370
   -3
100
AcDbLine
 10
1195.949999999996
 20
1365.019999999996
 11
1183.949999999996
 21
1365.019999999996
  0
CIRCLE
  5
2F4
100
AcDbEntity
  8
0
  6
ByLayer
 62
   48
420
4733445
370
   -3
100
AcDbCircle
 10
837.9499999999966
 20
1176.019999999995
 40
3.999999999999969
  0
LINE
  5
2F5
100
AcDbEntity
  8
0
  6
ByLayer
 62
   48
420
4733445
370
   -3
100
AcDbLine
 10
356.9161905687146
 20
813.856190568711
 11
356.9161905687146
 21
797.856190568711
  0
LINE
  5
2F6
100
AcDbEntity
  8
0
  6
ByLayer
 62
   48
420
4733445
370
   -3
100
AcDbLine
 10
135.8161905687093
 20
813.856190568711
 11
356.9161905687146
 21
813.856190568711
  0
LINE
  5
2F7
100
AcDbEntity
  8
0
  6
ByLayer
 62
   48
420
4733445
370
   -3
100
AcDbLine
 10
135.8161905687092
 20
813.856190568711
 11
135.8161905687092
 21
761.8038094312892
  0
LINE
  5
2F8
100
AcDbEntity
  8
0
  6
ByLayer
 62
   48
420
4733445
370
   -3
100
AcDbLine
 10
1421.41619056871
 20
761.803809431289
 11
135.8161905687092
 21
761.8038094312891
  0
ARC
  5
2F9
100
AcDbEntity
  8
0
  6
ByLayer
 62
   48
420
4733445
370
   -3
100
AcDbCircle
 10
1421.41619056871
 20
763.803809431289
 40
2
100
AcDbArc
 50
269.9999999999754
 51
360
  0
LINE
  5
2FA
100
AcDbEntity
  8
0
  6
ByLayer
 62
   48
420
4733445
370
   -3
100
AcDbLine
 10
1423.41619056871
 20
782.3038094312883
 11
1423.41619056871
 21
763.803809431289
  0
ARC
  5
2FB
100
AcDbEntity
  8
0
  6
ByLayer
 62
   48
420
4733445
370
   -3
100
AcDbCircle
 10
1421.41619056871
 20
782.3038094312883
 40
2
100
AcDbArc
 50
359.9999999999732
 51
90
  0
LINE
  5
2FC
100
AcDbEntity
  8
0
  6
ByLayer
 62
   48
420
4733445
370
   -3
100
AcDbLine
 10
1411.41619056871
 20
784.3038094312883
 11
1421.41619056871
 21
784.3038094312883
  0
LINE
  5
2FD
100
AcDbEntity
  8
0
  6
ByLayer
 62
   48
420
4733445
370
   -3
100
AcDbLine
 10
1411.41619056871
 20
794.5981082235577
 11
1411.41619056871
 21
784.3038094312883
  0
LINE
  5
2FE
100
AcDbEntity
  8
0
  6
ByLayer
 62
   48
420
4733445
370
   -3
100
AcDbLine
 10
1399.41619056871
 20
794.5981082235577
 11
1411.41619056871
 21
794.5981082235577
  0
LINE
  5
2FF
100
AcDbEntity
  8
0
  6
ByLayer
 62
   48
420
4733445
370
   -3
100
AcDbLine
 10
1399.41619056871
 20
792.2481082235578
 11
1399.41619056871
 21
794.5981082235577
  0
ARC
  5
300
100
AcDbEntity
  8
0
  6
ByLayer
 62
   48
420
4733445
370
   -3
100
AcDbCircle
 10
1397.81619056871
 20
792.2481082235578
 40
1.6
100
AcDbArc
 50
180
 51
360
  0
LINE
  5
301
100
AcDbEntity
  8
0
  6
ByLayer
 62
   48
420
4733445
370
   -3
100
AcDbLine
 10
1392.41619056871
 20
792.2481082235578
 11
1396.21619056871
 21
792.2481082235578
  0
ARC
  5
302
100
AcDbEntity
  8
0
  6
ByLayer
 62
   48
420
4733445
370
   -3
100
AcDbCircle
 10
1392.41619056871
 20
794.2481082235578
 40
2
100
AcDbArc
 50
180
 51
270.0000000000443
  0
LINE
  5
303
100
AcDbEntity
  8
0
  6
ByLayer
 62
   48
420
4733445
370
   -3
100
AcDbLine
 10
1390.41619056871
 20
802.9481082235578
 11
1390.41619056871
 21
794.2481082235578
  0
ARC
  5
304
100
AcDbEntity
  8
0
  6
ByLayer
 62
   48
420
4733445
370
   -3
100
AcDbCircle
 10
1392.41619056871
 20
802.9481082235578
 40
2
100
AcDbArc
 50
90
 51
180.0000000000039
  0
LINE
  5
305
100
AcDbEntity
  8
0
  6
ByLayer
 62
   48
420
4733445
370
   -3
100
AcDbLine
 10
1396.21619056871
 20
804.9481082235578
 11
1392.41619056871
 21
804.9481082235578
  0
ARC
  5
306
100
AcDbEntity
  8
0
  6
ByLayer
 62
   48
420
4733445
370
   -3
100
AcDbCircle
 10
1397.81619056871
 20
804.9481082235578
 40
1.600000000000005
100
AcDbArc
 50
360
 51
179.9999999999995
  0
LINE
  5
307
100
AcDbEntity
  8
0
  6
ByLayer
 62
   48
420
4733445
370
   -3
100
AcDbLine
 10
1399.41619056871
 20
802.5981082235577
 11
1399.41619056871
 21
804.9481082235578
  0
LINE
  5
308
100
AcDbEntity
  8
0
  6
ByLayer
 62
   48
420
4733445
370
   -3
100
AcDbLine
 10
1411.41619056871
 20
802.5981082235577
 11
1399.41619056871
 21
802.5981082235577
  0
LINE
  5
309
100
AcDbEntity
  8
0
  6
ByLayer
 62
   48
420
4733445
370
   -3
100
AcDbLine
 10
1411.41619056871
 20
813.8561905687109
 11
1411.41619056871
 21
802.5981082235577
  0
LINE
  5
30A
100
AcDbEntity
  8
0
  6
ByLayer
 62
   48
420
4733445
370
   -3
100
AcDbLine
 10
1411.41619056871
 20
813.8561905687109
 11
1256.916190568704
 21
813.8561905687109
  0
LINE
  5
30B
100
AcDbEntity
  8
0
  6
ByLayer
 62
   48
420
4733445
370
   -3
100
AcDbLine
 10
1256.916190568704
 20
813.856190568711
 11
1256.916190568704
 21
797.856190568711
  0
LINE
  5
30C
100
AcDbEntity
  8
0
  6
ByLayer
 62
   48
420
4733445
370
   -3
100
AcDbLine
 10
1256.916190568704
 20
797.856190568711
 11
1259.266190568705
 21
797.856190568711
  0
ARC
  5
30D
100
AcDbEntity
  8
0
  6
ByLayer
 62
   48
420
4733445
370
   -3
100
AcDbCircle
 10
1259.266190568705
 20
796.2561905687108
 40
1.599999999999948
100
AcDbArc
 50
269.9999999999985
 51
90
  0
LINE
  5
30E
100
AcDbEntity
  8
0
  6
ByLayer
 62
   48
420
4733445
370
   -3
100
AcDbLine
 10
1259.266190568705
 20
794.6561905687109
 11
1259.266190568705
 21
790.8561905687109
  0
ARC
  5
30F
100
AcDbEntity
  8
0
  6
ByLayer
 62
   48
420
4733445
370
   -3
100
AcDbCircle
 10
1257.266190568705
 20
790.8561905687109
 40
2
100
AcDbArc
 50
269.9999999999557
 51
360
  0
LINE
  5
310
100
AcDbEntity
  8
0
  6
ByLayer
 62
   48
420
4733445
370
   -3
100
AcDbLine
 10
1257.266190568705
 20
788.8561905687109
 11
1248.566190568705
 21
788.8561905687109
  0
ARC
  5
311
100
AcDbEntity
  8
0
  6
ByLayer
 62
   48
420
4733445
370
   -3
100
AcDbCircle
 10
1248.566190568705
 20
790.8561905687109
 40
2
100
AcDbArc
 50
179.9999999999961
 51
270
  0
LINE
  5
312
100
AcDbEntity
  8
0
  6
ByLayer
 62
   48
420
4733445
370
   -3
100
AcDbLine
 10
1246.566190568705
 20
790.8561905687109
 11
1246.566190568705
 21
794.6561905687109
  0
ARC
  5
313
100
AcDbEntity
  8
0
  6
ByLayer
 62
   48
420
4733445
370
   -3
100
AcDbCircle
 10
1246.566190568705
 20
796.2561905687108
 40
1.599999999999971
100
AcDbArc
 50
89.99999999999669
 51
270
  0
LINE
  5
314
100
AcDbEntity
  8
0
  6
ByLayer
 62
   48
420
4733445
370
   -3
100
AcDbLine
 10
1246.566190568705
 20
797.856190568711
 11
1248.916190568704
 21
797.856190568711
  0
LINE
  5
315
100
AcDbEntity
  8
0
  6
ByLayer
 62
   48
420
4733445
370
   -3
100
AcDbLine
 10
1248.916190568704
 20
797.856190568711
 11
1248.916190568704
 21
813.856190568711
  0
LINE
  5
316
100
AcDbEntity
  8
0
  6
ByLayer
 62
   48
420
4733445
370
   -3
100
AcDbLine
 10
1248.916190568704
 20
813.856190568711
 11
968.9161905687045
 21
813.856190568711
  0
LINE
  5
317
100
AcDbEntity
  8
0
  6
ByLayer
 62
   48
420
4733445
370
   -3
100
AcDbLine
 10
968.9161905687045
 20
813.856190568711
 11
968.9161905687045
 21
797.856190568711
  0
LINE
  5
318
100
AcDbEntity
  8
0
  6
ByLayer
 62
   48
420
4733445
370
   -3
100
AcDbLine
 10
968.9161905687045
 20
797.856190568711
 11
971.2661905687046
 21
797.856190568711
  0
ARC
  5
319
100
AcDbEntity
  8
0
  6
ByLayer
 62
   48
420
4733445
370
   -3
100
AcDbCircle
 10
971.2661905687046
 20
796.2561905687108
 40
1.599999999999948
100
AcDbArc
 50
270.0000000000109
 51
90
  0
LINE
  5
31A
100
AcDbEntity
  8
0
  6
ByLayer
 62
   48
420
4733445
370
   -3
100
AcDbLine
 10
971.2661905687046
 20
794.6561905687109
 11
971.2661905687046
 21
790.8561905687109
  0
ARC
  5
31B
100
AcDbEntity
  8
0
  6
ByLayer
 62
   48
420
4733445
370
   -3
100
AcDbCircle
 10
969.2661905687046
 20
790.8561905687109
 40
2
100
AcDbArc
 50
269.9999999999956
 51
360
  0
LINE
  5
31C
100
AcDbEntity
  8
0
  6
ByLayer
 62
   48
420
4733445
370
   -3
100
AcDbLine
 10
969.2661905687046
 20
788.8561905687109
 11
960.5661905687047
 21
788.8561905687109
  0
ARC
  5
31D
100
AcDbEntity
  8
0
  6
ByLayer
 62
   48
420
4733445
370
   -3
100
AcDbCircle
 10
960.5661905687047
 20
790.8561905687109
 40
2
100
AcDbArc
 50
179.9999999999967
 51
270
  0
LINE
  5
31E
100
AcDbEntity
  8
0
  6
ByLayer
 62
   48
420
4733445
370
   -3
100
AcDbLine
 10
958.5661905687047
 20
790.8561905687109
 11
958.5661905687047
 21
794.6561905687109
  0
ARC
  5
31F
100
AcDbEntity
  8
0
  6
ByLayer
 62
   48
420
4733445
370
   -3
100
AcDbCircle
 10
958.5661905687047
 20
796.2561905687108
 40
1.599999999999971
100
AcDbArc
 50
90.00000000003307
 51
270
  0
LINE
  5
320
100
AcDbEntity
  8
0
  6
ByLayer
 62
   48
420
4733445
370
   -3
100
AcDbLine
 10
958.5661905687047
 20
797.856190568711
 11
960.9161905687046
 21
797.856190568711
  0
LINE
  5
321
100
AcDbEntity
  8
0
  6
ByLayer
 62
   48
420
4733445
370
   -3
100
AcDbLine
 10
960.9161905687046
 20
797.856190568711
 11
960.9161905687046
 21
813.856190568711
  0
LINE
  5
322
100
AcDbEntity
  8
0
  6
ByLayer
 62
   48
420
4733445
370
   -3
100
AcDbLine
 10
960.9161905687045
 20
813.856190568711
 11
666.9161905687096
 21
813.856190568711
  0
LINE
  5
323
100
AcDbEntity
  8
0
  6
ByLayer
 62
   48
420
4733445
370
   -3
100
AcDbLine
 10
666.9161905687096
 20
813.856190568711
 11
666.9161905687096
 21
797.856190568711
  0
LINE
  5
324
100
AcDbEntity
  8
0
  6
ByLayer
 62
   48
420
4733445
370
   -3
100
AcDbLine
 10
666.9161905687096
 20
797.856190568711
 11
669.2661905687094
 21
797.856190568711
  0
ARC
  5
325
100
AcDbEntity
  8
0
  6
ByLayer
 62
   48
420
4733445
370
   -3
100
AcDbCircle
 10
669.2661905687094
 20
796.2561905687108
 40
1.599999999999964
100
AcDbArc
 50
270.0000000000149
 51
90
  0
LINE
  5
326
100
AcDbEntity
  8
0
  6
ByLayer
 62
   48
420
4733445
370
   -3
100
AcDbLine
 10
669.2661905687095
 20
794.6561905687109
 11
669.2661905687095
 21
790.8561905687109
  0
ARC
  5
327
100
AcDbEntity
  8
0
  6
ByLayer
 62
   48
420
4733445
370
   -3
100
AcDbCircle
 10
667.2661905687095
 20
790.8561905687109
 40
2
100
AcDbArc
 50
269.9999999999953
 51
360
  0
LINE
  5
328
100
AcDbEntity
  8
0
  6
ByLayer
 62
   48
420
4733445
370
   -3
100
AcDbLine
 10
658.5661905687095
 20
788.8561905687109
 11
667.2661905687095
 21
788.8561905687109
  0
ARC
  5
329
100
AcDbEntity
  8
0
  6
ByLayer
 62
   48
420
4733445
370
   -3
100
AcDbCircle
 10
658.5661905687095
 20
790.8561905687109
 40
2
100
AcDbArc
 50
180
 51
270.0000000000047
  0
LINE
  5
32A
100
AcDbEntity
  8
0
  6
ByLayer
 62
   48
420
4733445
370
   -3
100
AcDbLine
 10
656.5661905687095
 20
794.6561905687109
 11
656.5661905687095
 21
790.8561905687109
  0
ARC
  5
32B
100
AcDbEntity
  8
0
  6
ByLayer
 62
   48
420
4733445
370
   -3
100
AcDbCircle
 10
656.5661905687097
 20
796.2561905687108
 40
1.599999999999964
100
AcDbArc
 50
90
 51
269.9999999999851
  0
LINE
  5
32C
100
AcDbEntity
  8
0
  6
ByLayer
 62
   48
420
4733445
370
   -3
100
AcDbLine
 10
658.9161905687096
 20
797.856190568711
 11
656.5661905687097
 21
797.856190568711
  0
LINE
  5
32D
100
AcDbEntity
  8
0
  6
ByLayer
 62
   48
420
4733445
370
   -3
100
AcDbLine
 10
658.9161905687096
 20
813.856190568711
 11
658.9161905687096
 21
797.856190568711
  0
LINE
  5
32E
100
AcDbEntity
  8
0
  6
ByLayer
 62
   48
420
4733445
370
   -3
100
AcDbLine
 10
364.9161905687147
 20
813.856190568711
 11
658.9161905687096
 21
813.856190568711
  0
LINE
  5
32F
100
AcDbEntity
  8
0
  6
ByLayer
 62
   48
420
4733445
370
   -3
100
AcDbLine
 10
364.9161905687146
 20
797.856190568711
 11
364.9161905687146
 21
813.856190568711
  0
LINE
  5
330
100
AcDbEntity
  8
0
  6
ByLayer
 62
   48
420
4733445
370
   -3
100
AcDbLine
 10
367.2661905687146
 20
797.856190568711
 11
364.9161905687146
 21
797.856190568711
  0
ARC
  5
331
100
AcDbEntity
  8
0
  6
ByLayer
 62
   48
420
4733445
370
   -3
100
AcDbCircle
 10
367.2661905687145
 20
796.256190568711
 40
1.599999999999971
100
AcDbArc
 50
270
 51
89.99999999996693
  0
LINE
  5
332
100
AcDbEntity
  8
0
  6
ByLayer
 62
   48
420
4733445
370
   -3
100
AcDbLine
 10
367.2661905687145
 20
790.8561905687109
 11
367.2661905687145
 21
794.6561905687109
  0
ARC
  5
333
100
AcDbEntity
  8
0
  6
ByLayer
 62
   48
420
4733445
370
   -3
100
AcDbCircle
 10
365.2661905687145
 20
790.8561905687109
 40
2
100
AcDbArc
 50
270
 51
359.9999999999912
  0
LINE
  5
334
100
AcDbEntity
  8
0
  6
ByLayer
 62
   48
420
4733445
370
   -3
100
AcDbLine
 10
356.5661905687146
 20
788.8561905687109
 11
365.2661905687146
 21
788.8561905687109
  0
ARC
  5
335
100
AcDbEntity
  8
0
  6
ByLayer
 62
   48
420
4733445
370
   -3
100
AcDbCircle
 10
356.5661905687146
 20
790.8561905687109
 40
2
100
AcDbArc
 50
180
 51
270.0000000000032
  0
LINE
  5
336
100
AcDbEntity
  8
0
  6
ByLayer
 62
   48
420
4733445
370
   -3
100
AcDbLine
 10
354.5661905687146
 20
794.6561905687111
 11
354.5661905687146
 21
790.8561905687109
  0
ARC
  5
337
100
AcDbEntity
  8
0
  6
ByLayer
 62
   48
420
4733445
370
   -3
100
AcDbCircle
 10
354.5661905687146
 20
796.256190568711
 40
1.599999999999948
100
AcDbArc
 50
90
 51
269.9999999999953
  0
LINE
  5
338
100
AcDbEntity
  8
0
  6
ByLayer
 62
   48
420
4733445
370
   -3
100
AcDbLine
 10
356.9161905687146
 20
797.856190568711
 11
354.5661905687146
 21
797.856190568711
  0
CIRCLE
  5
339
100
AcDbEntity
  8
0
  6
ByLayer
 62
   48
420
4733445
370
   -3
100
AcDbCircle
 10
1114.916190568709
 20
801.5422905687076
 40
4.249999999999996
  0
CIRCLE
  5
33A
100
AcDbEntity
  8
0
  6
ByLayer
 62
   48
420
4733445
370
   -3
100
AcDbCircle
 10
814.9161905687098
 20
801.5422905687077
 40
4.250000000000008
  0
CIRCLE
  5
33B
100
AcDbEntity
  8
0
  6
ByLayer
 62
   48
420
4733445
370
   -3
100
AcDbCircle
 10
510.91619056871
 20
801.5422905687077
 40
4.712290568707756
  0
CIRCLE
  5
33C
100
AcDbEntity
  8
0
  6
ByLayer
 62
   48
420
4733445
370
   -3
100
AcDbCircle
 10
210.9161905687096
 20
801.5422905687077
 40
4.249999999999982
  0
LINE
  5
33D
100
AcDbEntity
  8
0
  6
ByLayer
 62
   48
420
4733445
370
   -3
100
AcDbLine
 10
504.9161905687099
 20
776.1061905687121
 11
504.9161905687097
 21
791.106190568712
  0
LINE
  5
33E
100
AcDbEntity
  8
0
  6
ByLayer
 62
   48
420
4733445
370
   -3
100
AcDbLine
 10
516.9161905687148
 20
791.1061905687121
 11
504.9161905687096
 21
791.106190568712
  0
LINE
  5
33F
100
AcDbEntity
  8
0
  6
ByLayer
 62
   48
420
4733445
370
   -3
100
AcDbLine
 10
516.9161905687148
 20
791.1061905687121
 11
516.9161905687149
 21
776.1061905687121
  0
LINE
  5
340
100
AcDbEntity
  8
0
  6
ByLayer
 62
   48
420
4733445
370
   -3
100
AcDbLine
 10
516.9161905687148
 20
776.1061905687121
 11
504.9161905687096
 21
776.1061905687121
  0
LINE
  5
341
100
AcDbEntity
  8
0
  6
ByLayer
 62
   48
420
4733445
370
   -3
100
AcDbLine
 10
216.9161905687145
 20
776.1061905687122
 11
204.9161905687093
 21
776.1061905687121
  0
LINE
  5
342
100
AcDbEntity
  8
0
  6
ByLayer
 62
   48
420
4733445
370
   -3
100
AcDbLine
 10
204.9161905687096
 20
776.1061905687121
 11
204.9161905687095
 21
791.106190568712
  0
LINE
  5
343
100
AcDbEntity
  8
0
  6
ByLayer
 62
   48
420
4733445
370
   -3
100
AcDbLine
 10
216.9161905687147
 20
791.1061905687121
 11
204.9161905687094
 21
791.106190568712
  0
LINE
  5
344
100
AcDbEntity
  8
0
  6
ByLayer
 62
   48
420
4733445
370
   -3
100
AcDbLine
 10
216.9161905687146
 20
791.1061905687121
 11
216.9161905687147
 21
776.1061905687122
  0
LINE
  5
345
100
AcDbEntity
  8
0
  6
ByLayer
 62
   48
420
4733445
370
   -3
100
AcDbLine
 10
808.9161905687042
 20
791.106190568712
 11
808.9161905687041
 21
776.1061905687121
  0
LINE
  5
346
100
AcDbEntity
  8
0
  6
ByLayer
 62
   48
420
4733445
370
   -3
100
AcDbLine
 10
808.9161905687042
 20
791.106190568712
 11
820.9161905687095
 21
791.106190568712
  0
LINE
  5
347
100
AcDbEntity
  8
0
  6
ByLayer
 62
   48
420
4733445
370
   -3
100
AcDbLine
 10
820.9161905687092
 20
776.1061905687121
 11
820.9161905687093
 21
791.106190568712
  0
LINE
  5
348
100
AcDbEntity
  8
0
  6
ByLayer
 62
   48
420
4733445
370
   -3
100
AcDbLine
 10
808.9161905687042
 20
776.1061905687121
 11
820.9161905687095
 21
776.1061905687121
  0
LINE
  5
349
100
AcDbEntity
  8
0
  6
ByLayer
 62
   48
420
4733445
370
   -3
100
AcDbLine
 10
1108.916190568704
 20
791.106190568712
 11
1120.91619056871
 21
791.106190568712
  0
LINE
  5
34A
100
AcDbEntity
  8
0
  6
ByLayer
 62
   48
420
4733445
370
   -3
100
AcDbLine
 10
1120.916190568709
 20
776.1061905687121
 11
1120.916190568709
 21
791.106190568712
  0
LINE
  5
34B
100
AcDbEntity
  8
0
  6
ByLayer
 62
   48
420
4733445
370
   -3
100
AcDbLine
 10
1108.916190568705
 20
776.1061905687121
 11
1120.91619056871
 21
776.1061905687121
  0
LINE
  5
34C
100
AcDbEntity
  8
0
  6
ByLayer
 62
   48
420
4733445
370
   -3
100
AcDbLine
 10
1108.916190568704
 20
791.106190568712
 11
1108.916190568704
 21
776.1061905687121
  0
CIRCLE
  5
34D
100
AcDbEntity
  8
0
  6
ByLayer
 62
   48
420
4733445
370
   -3
100
AcDbCircle
 10
1388.41619056871
 20
782.3561905687108
 40
4.25
  0
LINE
  5
34E
100
AcDbEntity
  8
0
  6
ByLayer
 62
   48
420
4733445
370
   -3
100
AcDbLine
 10
132.532268763173
 20
431.8935846827968
 11
132.5322687631731
 21
400.0938094312929
  0
CIRCLE
  5
34F
100
AcDbEntity
  8
0
  6
ByLayer
 62
   48
420
4733445
370
   -3
100
AcDbCircle
 10
227.6322687631729
 20
415.9935846827969
 40
4.25
  0
CIRCLE
  5
350
100
AcDbEntity
  8
0
  6
ByLayer
 62
   48
420
4733445
370
   -3
100
AcDbCircle
 10
527.6322687631725
 20
415.9935846827989
 40
4.25
  0
CIRCLE
  5
351
100
AcDbEntity
  8
0
  6
ByLayer
 62
   48
420
4733445
370
   -3
100
AcDbCircle
 10
1434.132268763172
 20
415.9935846828029
 40
4.25
  0
CIRCLE
  5
352
100
AcDbEntity
  8
0
  6
ByLayer
 62
   48
420
4733445
370
   -3
100
AcDbCircle
 10
1131.632268763172
 20
415.9935846827994
 40
4.25
  0
CIRCLE
  5
353
100
AcDbEntity
  8
0
  6
ByLayer
 62
   48
420
4733445
370
   -3
100
AcDbCircle
 10
831.6322687631725
 20
415.9935846827997
 40
4.25
  0
ARC
  5
354
100
AcDbEntity
  8
0
  6
ByLayer
 62
   48
420
4733445
370
   -3
100
AcDbCircle
 10
129.532268763173
 20
431.8935846827968
 40
2.999999999999999
100
AcDbArc
 50
0
 51
89.99999999999501
  0
ARC
  5
355
100
AcDbEntity
  8
0
  6
ByLayer
 62
   48
420
4733445
370
   -3
100
AcDbCircle
 10
129.5322687631731
 20
400.0938094312929
 40
3
100
AcDbArc
 50
269.9999999999989
 51
1.018e-013
  0
LINE
  5
356
100
AcDbEntity
  8
0
  6
ByLayer
 62
   48
420
4733445
370
   -3
100
AcDbLine
 10
129.5322687631731
 20
397.0938094312929
 11
62.53226876317301
 21
397.0938094312928
  0
LINE
  5
357
100
AcDbEntity
  8
0
  6
ByLayer
 62
   48
420
4733445
370
   -3
100
AcDbLine
 10
62.53226876318554
 20
397.0938094312927
 11
62.53226876318544
 21
434.8935846827965
  0
LINE
  5
358
100
AcDbEntity
  8
0
  6
ByLayer
 62
   48
420
4733445
370
   -3
100
AcDbLine
 10
62.53226876317289
 20
434.8935846827966
 11
129.5322687631731
 21
434.8935846827968
  0
LINE
  5
359
100
AcDbEntity
  8
0
  6
ByLayer
 62
   48
420
4733445
370
   -3
100
AcDbLine
 10
62.53226876317311
 20
381.0938094312925
 11
62.532268763173
 21
397.0938094312927
  0
LINE
  5
35A
100
AcDbEntity
  8
0
  6
ByLayer
 62
   48
420
4733445
370
   -3
100
AcDbLine
 10
1440.132268763172
 20
381.093809431297
 11
62.53226876317286
 21
381.0938094312926
  0
LINE
  5
35B
100
AcDbEntity
  8
0
  6
ByLayer
 62
   48
420
4733445
370
   -3
100
AcDbLine
 10
1440.132268763172
 20
450.8935846828011
 11
1440.132268763172
 21
381.093809431297
  0
LINE
  5
35C
100
AcDbEntity
  8
0
  6
ByLayer
 62
   48
420
4733445
370
   -3
100
AcDbLine
 10
62.532268763173
 20
450.8935846827966
 11
1440.132268763172
 21
450.8935846828011
  0
LINE
  5
35D
100
AcDbEntity
  8
0
  6
ByLayer
 62
   48
420
4733445
370
   -3
100
AcDbLine
 10
62.53226876317289
 20
434.8935846827966
 11
62.53226876317289
 21
450.8935846827965
  0
LINE
  5
35E
100
AcDbEntity
  8
0
  6
ByLayer
 62
   48
420
4733445
370
   -3
100
AcDbLine
 10
141.5401123742469
 20
532.6898876257521
 11
141.5401123742471
 21
500.8901123742482
  0
CIRCLE
  5
35F
100
AcDbEntity
  8
0
  6
ByLayer
 62
   48
420
4733445
370
   -3
100
AcDbCircle
 10
236.640112374247
 20
516.7898876257523
 40
4.25
  0
CIRCLE
  5
360
100
AcDbEntity
  8
0
  6
ByLayer
 62
   48
420
4733445
370
   -3
100
AcDbCircle
 10
536.6401123742465
 20
516.7898876257544
 40
4.25
  0
CIRCLE
  5
361
100
AcDbEntity
  8
0
  6
ByLayer
 62
   48
420
4733445
370
   -3
100
AcDbCircle
 10
1443.140112374246
 20
516.7898876257588
 40
4.25
  0
CIRCLE
  5
362
100
AcDbEntity
  8
0
  6
ByLayer
 62
   48
420
4733445
370
   -3
100
AcDbCircle
 10
1140.640112374246
 20
516.7898876257552
 40
4.25
  0
CIRCLE
  5
363
100
AcDbEntity
  8
0
  6
ByLayer
 62
   48
420
4733445
370
   -3
100
AcDbCircle
 10
840.6401123742467
 20
516.7898876257553
 40
4.25
  0
ARC
  5
364
100
AcDbEntity
  8
0
  6
ByLayer
 62
   48
420
4733445
370
   -3
100
AcDbCircle
 10
138.5401123742469
 20
532.6898876257521
 40
2.999999999999999
100
AcDbArc
 50
0
 51
90.00000000000901
  0
ARC
  5
365
100
AcDbEntity
  8
0
  6
ByLayer
 62
   48
420
4733445
370
   -3
100
AcDbCircle
 10
138.5401123742471
 20
500.8901123742482
 40
3
100
AcDbArc
 50
269.9999999999989
 51
5.09e-014
  0
LINE
  5
366
100
AcDbEntity
  8
0
  6
ByLayer
 62
   48
420
4733445
370
   -3
100
AcDbLine
 10
138.540112374247
 20
497.8901123742482
 11
71.5401123742471
 21
497.890112374248
  0
LINE
  5
367
100
AcDbEntity
  8
0
  6
ByLayer
 62
   48
420
4733445
370
   -3
100
AcDbLine
 10
71.54011237425965
 20
497.890112374248
 11
71.54011237425954
 21
535.6898876257519
  0
LINE
  5
368
100
AcDbEntity
  8
0
  6
ByLayer
 62
   48
420
4733445
370
   -3
100
AcDbLine
 10
71.540112374247
 20
535.6898876257519
 11
138.540112374247
 21
535.6898876257521
  0
LINE
  5
369
100
AcDbEntity
  8
0
  6
ByLayer
 62
   48
420
4733445
370
   -3
100
AcDbLine
 10
71.5401123742471
 20
481.8901123742478
 11
71.5401123742471
 21
497.890112374248
  0
LINE
  5
36A
100
AcDbEntity
  8
0
  6
ByLayer
 62
   48
420
4733445
370
   -3
100
AcDbLine
 10
1449.140112374246
 20
481.890112374253
 11
71.54011237424696
 21
481.8901123742479
  0
LINE
  5
36B
100
AcDbEntity
  8
0
  6
ByLayer
 62
   48
420
4733445
370
   -3
100
AcDbLine
 10
1449.140112374246
 20
551.689887625757
 11
1449.140112374246
 21
481.8901123742529
  0
LINE
  5
36C
100
AcDbEntity
  8
0
  6
ByLayer
 62
   48
420
4733445
370
   -3
100
AcDbLine
 10
71.540112374247
 20
551.6898876257519
 11
1449.140112374246
 21
551.689887625757
  0
LINE
  5
36D
100
AcDbEntity
  8
0
  6
ByLayer
 62
   48
420
4733445
370
   -3
100
AcDbLine
 10
71.540112374247
 20
535.6898876257519
 11
71.54011237424689
 21
551.6898876257518
  0
LINE
  5
36E
100
AcDbEntity
  8
0
  6
ByLayer
 62
   48
420
4733445
370
   -3
100
AcDbLine
 10
141.5401123742469
 20
634.429887625752
 11
141.5401123742471
 21
602.6301123742481
  0
CIRCLE
  5
36F
100
AcDbEntity
  8
0
  6
ByLayer
 62
   48
420
4733445
370
   -3
100
AcDbCircle
 10
236.640112374247
 20
618.5298876257523
 40
4.25
  0
CIRCLE
  5
370
100
AcDbEntity
  8
0
  6
ByLayer
 62
   48
420
4733445
370
   -3
100
AcDbCircle
 10
536.6401123742465
 20
618.5298876257543
 40
4.25
  0
CIRCLE
  5
371
100
AcDbEntity
  8
0
  6
ByLayer
 62
   48
420
4733445
370
   -3
100
AcDbCircle
 10
1443.140112374246
 20
618.5298876257586
 40
4.25
  0
CIRCLE
  5
372
100
AcDbEntity
  8
0
  6
ByLayer
 62
   48
420
4733445
370
   -3
100
AcDbCircle
 10
1140.640112374246
 20
618.5298876257552
 40
4.25
  0
CIRCLE
  5
373
100
AcDbEntity
  8
0
  6
ByLayer
 62
   48
420
4733445
370
   -3
100
AcDbCircle
 10
840.6401123742467
 20
618.5298876257554
 40
4.25
  0
ARC
  5
374
100
AcDbEntity
  8
0
  6
ByLayer
 62
   48
420
4733445
370
   -3
100
AcDbCircle
 10
138.5401123742469
 20
634.429887625752
 40
2.999999999999999
100
AcDbArc
 50
0
 51
90.00000000000901
  0
ARC
  5
375
100
AcDbEntity
  8
0
  6
ByLayer
 62
   48
420
4733445
370
   -3
100
AcDbCircle
 10
138.5401123742471
 20
602.6301123742481
 40
3
100
AcDbArc
 50
269.9999999999989
 51
6.920899999999999e-012
  0
LINE
  5
376
100
AcDbEntity
  8
0
  6
ByLayer
 62
   48
420
4733445
370
   -3
100
AcDbLine
 10
138.540112374247
 20
599.6301123742483
 11
71.5401123742471
 21
599.6301123742479
  0
LINE
  5
377
100
AcDbEntity
  8
0
  6
ByLayer
 62
   48
420
4733445
370
   -3
100
AcDbLine
 10
71.54011237425965
 20
599.6301123742479
 11
71.54011237425954
 21
637.4298876257518
  0
LINE
  5
378
100
AcDbEntity
  8
0
  6
ByLayer
 62
   48
420
4733445
370
   -3
100
AcDbLine
 10
71.54011237424699
 20
637.4298876257518
 11
138.540112374247
 21
637.429887625752
  0
LINE
  5
379
100
AcDbEntity
  8
0
  6
ByLayer
 62
   48
420
4733445
370
   -3
100
AcDbLine
 10
71.5401123742471
 20
583.6301123742477
 11
71.5401123742471
 21
599.6301123742479
  0
LINE
  5
37A
100
AcDbEntity
  8
0
  6
ByLayer
 62
   48
420
4733445
370
   -3
100
AcDbLine
 10
1449.140112374246
 20
583.6301123742529
 11
71.54011237424696
 21
583.6301123742478
  0
LINE
  5
37B
100
AcDbEntity
  8
0
  6
ByLayer
 62
   48
420
4733445
370
   -3
100
AcDbLine
 10
1449.140112374246
 20
653.4298876257569
 11
1449.140112374246
 21
583.6301123742529
  0
LINE
  5
37C
100
AcDbEntity
  8
0
  6
ByLayer
 62
   48
420
4733445
370
   -3
100
AcDbLine
 10
71.54011237424699
 20
653.4298876257518
 11
1449.140112374246
 21
653.4298876257569
  0
LINE
  5
37D
100
AcDbEntity
  8
0
  6
ByLayer
 62
   48
420
4733445
370
   -3
100
AcDbLine
 10
71.54011237424699
 20
637.4298876257518
 11
71.54011237424687
 21
653.4298876257517
  0
LINE
  5
37E
100
AcDbEntity
  8
0
  6
ByLayer
 62
   48
420
4733445
370
   -3
100
AcDbLine
 10
733.486190568709
 20
215.2798876257591
 11
724.7861905687091
 21
215.2798876257591
  0
ARC
  5
37F
100
AcDbEntity
  8
0
  6
ByLayer
 62
   48
420
4733445
370
   -3
100
AcDbCircle
 10
422.786190568714
 20
217.2798876257603
 40
2
100
AcDbArc
 50
179.9999999999998
 51
269.9999999999926
  0
ARC
  5
380
100
AcDbEntity
  8
0
  6
ByLayer
 62
   48
420
4733445
370
   -3
100
AcDbCircle
 10
431.4861905687141
 20
217.2798876257603
 40
2
100
AcDbArc
 50
269.9999999999998
 51
359.9999999999948
  0
ARC
  5
381
100
AcDbEntity
  8
0
  6
ByLayer
 62
   48
420
4733445
370
   -3
100
AcDbCircle
 10
134.786190568714
 20
217.2798876257615
 40
2
100
AcDbArc
 50
179.9999999999998
 51
269.9999999999979
  0
ARC
  5
382
100
AcDbEntity
  8
0
  6
ByLayer
 62
   48
420
4733445
370
   -3
100
AcDbCircle
 10
143.4861905687142
 20
217.2798876257615
 40
2
100
AcDbArc
 50
269.9999999999998
 51
359.9999999999979
  0
ARC
  5
383
100
AcDbEntity
  8
0
  6
ByLayer
 62
   48
420
4733445
370
   -3
100
AcDbCircle
 10
145.486190568714
 20
222.6798876257614
 40
1.599999999999971
100
AcDbArc
 50
269.9999999999998
 51
90.00000000002126
  0
ARC
  5
384
100
AcDbEntity
  8
0
  6
ByLayer
 62
   48
420
4733445
370
   -3
100
AcDbCircle
 10
132.786190568714
 20
222.6798876257615
 40
1.599999999999948
100
AcDbArc
 50
89.9999999999998
 51
269.999999999991
  0
ARC
  5
385
100
AcDbEntity
  8
0
  6
ByLayer
 62
   48
420
4733445
370
   -3
100
AcDbCircle
 10
433.4861905687141
 20
222.6798876257603
 40
1.599999999999971
100
AcDbArc
 50
269.9999999999998
 51
90.00000000001211
  0
ARC
  5
386
100
AcDbEntity
  8
0
  6
ByLayer
 62
   48
420
4733445
370
   -3
100
AcDbCircle
 10
420.786190568714
 20
222.6798876257604
 40
1.599999999999948
100
AcDbArc
 50
89.9999999999998
 51
269.9999999999953
  0
ARC
  5
387
100
AcDbEntity
  8
0
  6
ByLayer
 62
   48
420
4733445
370
   -3
100
AcDbCircle
 10
724.7861905687092
 20
217.2798876257591
 40
2
100
AcDbArc
 50
179.9999999999998
 51
269.9999999999942
  0
ARC
  5
388
100
AcDbEntity
  8
0
  6
ByLayer
 62
   48
420
4733445
370
   -3
100
AcDbCircle
 10
722.7861905687093
 20
222.6798876257591
 40
1.599999999999964
100
AcDbArc
 50
89.9999999999998
 51
269.9999999999999
  0
ARC
  5
389
100
AcDbEntity
  8
0
  6
ByLayer
 62
   48
420
4733445
370
   -3
100
AcDbCircle
 10
1035.486190568704
 20
217.2798876257579
 40
2
100
AcDbArc
 50
269.9999999999675
 51
359.9999999999998
  0
ARC
  5
38A
100
AcDbEntity
  8
0
  6
ByLayer
 62
   48
420
4733445
370
   -3
100
AcDbCircle
 10
1026.786190568704
 20
217.2798876257579
 40
2
100
AcDbArc
 50
179.9999999999899
 51
269.9999999999998
  0
ARC
  5
38B
100
AcDbEntity
  8
0
  6
ByLayer
 62
   48
420
4733445
370
   -3
100
AcDbCircle
 10
1323.486190568704
 20
217.2798876257567
 40
2
100
AcDbArc
 50
269.9999999999675
 51
359.9999999999998
  0
ARC
  5
38C
100
AcDbEntity
  8
0
  6
ByLayer
 62
   48
420
4733445
370
   -3
100
AcDbCircle
 10
1314.786190568704
 20
217.2798876257567
 40
2
100
AcDbArc
 50
179.9999999999899
 51
269.9999999999998
  0
ARC
  5
38D
100
AcDbEntity
  8
0
  6
ByLayer
 62
   48
420
4733445
370
   -3
100
AcDbCircle
 10
1312.786190568704
 20
222.6798876257568
 40
1.599999999999971
100
AcDbArc
 50
89.99999999995134
 51
269.9999999999998
  0
ARC
  5
38E
100
AcDbEntity
  8
0
  6
ByLayer
 62
   48
420
4733445
370
   -3
100
AcDbCircle
 10
1325.486190568704
 20
222.6798876257567
 40
1.599999999999948
100
AcDbArc
 50
269.9999999999985
 51
89.99999999999974
  0
ARC
  5
38F
100
AcDbEntity
  8
0
  6
ByLayer
 62
   48
420
4733445
370
   -3
100
AcDbCircle
 10
1024.786190568704
 20
222.6798876257579
 40
1.599999999999971
100
AcDbArc
 50
89.99999999995134
 51
269.9999999999998
  0
ARC
  5
390
100
AcDbEntity
  8
0
  6
ByLayer
 62
   48
420
4733445
370
   -3
100
AcDbCircle
 10
1037.486190568704
 20
222.6798876257579
 40
1.599999999999948
100
AcDbArc
 50
269.9999999999985
 51
89.99999999999974
  0
ARC
  5
391
100
AcDbEntity
  8
0
  6
ByLayer
 62
   48
420
4733445
370
   -3
100
AcDbCircle
 10
733.4861905687092
 20
217.2798876257591
 40
2
100
AcDbArc
 50
270.0000000000057
 51
359.9999999999998
  0
ARC
  5
392
100
AcDbEntity
  8
0
  6
ByLayer
 62
   48
420
4733445
370
   -3
100
AcDbCircle
 10
735.486190568709
 20
222.6798876257591
 40
1.599999999999964
100
AcDbArc
 50
269.9999999999996
 51
89.99999999999974
  0
ARC
  5
393
100
AcDbEntity
  8
0
  6
ByLayer
 62
   48
420
4733445
370
   -3
100
AcDbCircle
 10
1487.63619056871
 20
208.7275064883335
 40
2
100
AcDbArc
 50
359.9999999999915
 51
89.99999999999974
  0
ARC
  5
394
100
AcDbEntity
  8
0
  6
ByLayer
 62
   48
420
4733445
370
   -3
100
AcDbCircle
 10
1487.63619056871
 20
190.2275064883344
 40
2
100
AcDbArc
 50
269.9999999999683
 51
359.9999999999998
  0
ARC
  5
395
100
AcDbEntity
  8
0
  6
ByLayer
 62
   48
420
4733445
370
   -3
100
AcDbCircle
 10
1458.63619056871
 20
220.6718052806032
 40
2
100
AcDbArc
 50
179.9999999999998
 51
270.0000000000322
  0
ARC
  5
396
100
AcDbEntity
  8
0
  6
ByLayer
 62
   48
420
4733445
370
   -3
100
AcDbCircle
 10
1458.63619056871
 20
229.3718052806031
 40
2
100
AcDbArc
 50
89.9999999999998
 51
180.0000000000095
  0
CIRCLE
  5
397
100
AcDbEntity
  8
0
  6
ByLayer
 62
   48
420
4733445
370
   -3
100
AcDbCircle
 10
1181.136190568709
 20
227.9659876257541
 40
4.249999999999982
  0
CIRCLE
  5
398
100
AcDbEntity
  8
0
  6
ByLayer
 62
   48
420
4733445
370
   -3
100
AcDbCircle
 10
881.1361905687087
 20
227.9659876257552
 40
4.712290568707756
  0
CIRCLE
  5
399
100
AcDbEntity
  8
0
  6
ByLayer
 62
   48
420
4733445
370
   -3
100
AcDbCircle
 10
577.1361905687089
 20
227.9659876257565
 40
4.250000000000008
  0
CIRCLE
  5
39A
100
AcDbEntity
  8
0
  6
ByLayer
 62
   48
420
4733445
370
   -3
100
AcDbCircle
 10
277.1361905687091
 20
227.9659876257577
 40
4.249999999999996
  0
CIRCLE
  5
39B
100
AcDbEntity
  8
0
  6
ByLayer
 62
   48
420
4733445
370
   -3
100
AcDbCircle
 10
1454.636190568709
 20
208.7798876257562
 40
4.25
  0
ARC
  5
39C
100
AcDbEntity
  8
0
  6
ByLayer
 62
   48
420
4733445
370
   -3
100
AcDbCircle
 10
59.03619056870983
 20
203.2275064883399
 40
3
100
AcDbArc
 50
269.9999999999998
 51
2.1373e-012
  0
ARC
  5
39D
100
AcDbEntity
  8
0
  6
ByLayer
 62
   48
420
4733445
370
   -3
100
AcDbCircle
 10
59.03619056870982
 20
228.279887625763
 40
3.000000000000001
100
AcDbArc
 50
359.9999999999998
 51
90.00000000000193
  0
LINE
  5
39E
100
AcDbEntity
  8
0
  6
ByLayer
 62
   48
420
4733445
370
   -3
100
AcDbLine
 10
22.03619056870968
 20
200.2275064883401
 11
22.0361905687099
 21
231.2798876257632
  0
LINE
  5
39F
100
AcDbEntity
  8
0
  6
ByLayer
 62
   48
420
4733445
370
   -3
100
AcDbLine
 10
59.03619056871004
 20
231.279887625763
 11
22.03619056871012
 21
231.2798876257632
  0
LINE
  5
3A0
100
AcDbEntity
  8
0
  6
ByLayer
 62
   48
420
4733445
370
   -3
100
AcDbLine
 10
62.03619056870971
 20
203.2275064883399
 11
62.03619056870971
 21
228.279887625763
  0
LINE
  5
3A1
100
AcDbEntity
  8
0
  6
ByLayer
 62
   48
420
4733445
370
   -3
100
AcDbLine
 10
22.0361905687099
 20
188.2275064883402
 11
22.0361905687099
 21
200.2275064883401
  0
LINE
  5
3A2
100
AcDbEntity
  8
0
  6
ByLayer
 62
   48
420
4733445
370
   -3
100
AcDbLine
 10
22.03619056871013
 20
231.2798876257632
 11
22.03619056871013
 21
240.2798876257619
  0
LINE
  5
3A3
100
AcDbEntity
  8
0
  6
ByLayer
 62
   48
420
4733445
370
   -3
100
AcDbLine
 10
22.0361905687099
 20
200.2275064883401
 11
59.03619056870982
 21
200.2275064883399
  0
LINE
  5
3A4
100
AcDbEntity
  8
0
  6
ByLayer
 62
   48
420
4733445
370
   -3
100
AcDbLine
 10
1487.63619056871
 20
188.2275064883344
 11
22.03619056870987
 21
188.2275064883402
  0
LINE
  5
3A5
100
AcDbEntity
  8
0
  6
ByLayer
 62
   48
420
4733445
370
   -3
100
AcDbLine
 10
1447.303842150001
 20
208.7798876257563
 11
1450.970016359355
 21
215.1298876257562
  0
LINE
  5
3A6
100
AcDbEntity
  8
0
  6
ByLayer
 62
   48
420
4733445
370
   -3
100
AcDbLine
 10
1450.970016359355
 20
215.1298876257562
 11
1458.302364778064
 21
215.1298876257562
  0
LINE
  5
3A7
100
AcDbEntity
  8
0
  6
ByLayer
 62
   48
420
4733445
370
   -3
100
AcDbLine
 10
1458.302364778064
 20
215.1298876257562
 11
1461.968538987418
 21
208.7798876257563
  0
LINE
  5
3A8
100
AcDbEntity
  8
0
  6
ByLayer
 62
   48
420
4733445
370
   -3
100
AcDbLine
 10
1461.968538987418
 20
208.7798876257563
 11
1458.302364778064
 21
202.4298876257562
  0
LINE
  5
3A9
100
AcDbEntity
  8
0
  6
ByLayer
 62
   48
420
4733445
370
   -3
100
AcDbLine
 10
1458.302364778064
 20
202.4298876257562
 11
1450.970016359355
 21
202.4298876257563
  0
LINE
  5
3AA
100
AcDbEntity
  8
0
  6
ByLayer
 62
   48
420
4733445
370
   -3
100
AcDbLine
 10
1450.970016359355
 20
202.4298876257562
 11
1447.303842150001
 21
208.7798876257562
  0
LINE
  5
3AB
100
AcDbEntity
  8
0
  6
ByLayer
 62
   48
420
4733445
370
   -3
100
AcDbLine
 10
1477.63619056871
 20
240.2798876257561
 11
1477.63619056871
 21
229.0218052806031
  0
LINE
  5
3AC
100
AcDbEntity
  8
0
  6
ByLayer
 62
   48
420
4733445
370
   -3
100
AcDbLine
 10
1477.63619056871
 20
229.0218052806031
 11
1465.63619056871
 21
229.0218052806031
  0
LINE
  5
3AD
100
AcDbEntity
  8
0
  6
ByLayer
 62
   48
420
4733445
370
   -3
100
AcDbLine
 10
1465.63619056871
 20
229.0218052806031
 11
1465.63619056871
 21
231.3718052806031
  0
ARC
  5
3AE
100
AcDbEntity
  8
0
  6
ByLayer
 62
   48
420
4733445
370
   -3
100
AcDbCircle
 10
1464.03619056871
 20
231.3718052806031
 40
1.600000000000005
100
AcDbArc
 50
359.9999999999998
 51
179.9999999999998
  0
LINE
  5
3AF
100
AcDbEntity
  8
0
  6
ByLayer
 62
   48
420
4733445
370
   -3
100
AcDbLine
 10
1462.43619056871
 20
231.3718052806031
 11
1458.63619056871
 21
231.3718052806031
  0
LINE
  5
3B0
100
AcDbEntity
  8
0
  6
ByLayer
 62
   48
420
4733445
370
   -3
100
AcDbLine
 10
1456.63619056871
 20
229.3718052806031
 11
1456.63619056871
 21
220.6718052806032
  0
LINE
  5
3B1
100
AcDbEntity
  8
0
  6
ByLayer
 62
   48
420
4733445
370
   -3
100
AcDbLine
 10
1458.63619056871
 20
218.6718052806032
 11
1462.43619056871
 21
218.6718052806031
  0
ARC
  5
3B2
100
AcDbEntity
  8
0
  6
ByLayer
 62
   48
420
4733445
370
   -3
100
AcDbCircle
 10
1464.03619056871
 20
218.6718052806031
 40
1.6
100
AcDbArc
 50
179.9999999999998
 51
359.9999999999998
  0
LINE
  5
3B3
100
AcDbEntity
  8
0
  6
ByLayer
 62
   48
420
4733445
370
   -3
100
AcDbLine
 10
1465.63619056871
 20
218.6718052806031
 11
1465.63619056871
 21
221.021805280603
  0
LINE
  5
3B4
100
AcDbEntity
  8
0
  6
ByLayer
 62
   48
420
4733445
370
   -3
100
AcDbLine
 10
1465.63619056871
 20
221.021805280603
 11
1477.63619056871
 21
221.021805280603
  0
LINE
  5
3B5
100
AcDbEntity
  8
0
  6
ByLayer
 62
   48
420
4733445
370
   -3
100
AcDbLine
 10
1477.63619056871
 20
221.021805280603
 11
1477.63619056871
 21
210.7275064883335
  0
LINE
  5
3B6
100
AcDbEntity
  8
0
  6
ByLayer
 62
   48
420
4733445
370
   -3
100
AcDbLine
 10
1489.63619056871
 20
208.7275064883335
 11
1489.63619056871
 21
190.2275064883344
  0
LINE
  5
3B7
100
AcDbEntity
  8
0
  6
ByLayer
 62
   48
420
4733445
370
   -3
100
AcDbLine
 10
1477.63619056871
 20
210.7275064883337
 11
1487.63619056871
 21
210.7275064883335
  0
LINE
  5
3B8
100
AcDbEntity
  8
0
  6
ByLayer
 62
   48
420
4733445
370
   -3
100
AcDbLine
 10
875.1361905687038
 20
217.5298876257597
 11
887.136190568709
 21
217.5298876257595
  0
LINE
  5
3B9
100
AcDbEntity
  8
0
  6
ByLayer
 62
   48
420
4733445
370
   -3
100
AcDbLine
 10
1175.136190568704
 20
217.5298876257585
 11
1187.136190568709
 21
217.5298876257584
  0
LINE
  5
3BA
100
AcDbEntity
  8
0
  6
ByLayer
 62
   48
420
4733445
370
   -3
100
AcDbLine
 10
733.1361905687091
 20
240.2798876257591
 11
733.1361905687091
 21
224.2798876257591
  0
LINE
  5
3BB
100
AcDbEntity
  8
0
  6
ByLayer
 62
   48
420
4733445
370
   -3
100
AcDbLine
 10
733.1361905687091
 20
224.2798876257591
 11
735.486190568709
 21
224.2798876257591
  0
LINE
  5
3BC
100
AcDbEntity
  8
0
  6
ByLayer
 62
   48
420
4733445
370
   -3
100
AcDbLine
 10
735.4861905687092
 20
221.0798876257591
 11
735.4861905687092
 21
217.2798876257591
  0
LINE
  5
3BD
100
AcDbEntity
  8
0
  6
ByLayer
 62
   48
420
4733445
370
   -3
100
AcDbLine
 10
1035.136190568704
 20
240.2798876257579
 11
1035.136190568704
 21
224.2798876257579
  0
LINE
  5
3BE
100
AcDbEntity
  8
0
  6
ByLayer
 62
   48
420
4733445
370
   -3
100
AcDbLine
 10
1035.136190568704
 20
224.2798876257579
 11
1037.486190568704
 21
224.2798876257579
  0
LINE
  5
3BF
100
AcDbEntity
  8
0
  6
ByLayer
 62
   48
420
4733445
370
   -3
100
AcDbLine
 10
1037.486190568704
 20
221.0798876257579
 11
1037.486190568704
 21
217.2798876257579
  0
LINE
  5
3C0
100
AcDbEntity
  8
0
  6
ByLayer
 62
   48
420
4733445
370
   -3
100
AcDbLine
 10
1024.786190568704
 20
224.279887625758
 11
1027.136190568704
 21
224.279887625758
  0
LINE
  5
3C1
100
AcDbEntity
  8
0
  6
ByLayer
 62
   48
420
4733445
370
   -3
100
AcDbLine
 10
1027.136190568704
 20
224.279887625758
 11
1027.136190568704
 21
240.279887625758
  0
LINE
  5
3C2
100
AcDbEntity
  8
0
  6
ByLayer
 62
   48
420
4733445
370
   -3
100
AcDbLine
 10
1323.136190568704
 20
240.2798876257567
 11
1323.136190568704
 21
224.2798876257567
  0
LINE
  5
3C3
100
AcDbEntity
  8
0
  6
ByLayer
 62
   48
420
4733445
370
   -3
100
AcDbLine
 10
1323.136190568704
 20
224.2798876257567
 11
1325.486190568704
 21
224.2798876257567
  0
LINE
  5
3C4
100
AcDbEntity
  8
0
  6
ByLayer
 62
   48
420
4733445
370
   -3
100
AcDbLine
 10
1325.486190568704
 20
221.0798876257568
 11
1325.486190568704
 21
217.2798876257567
  0
LINE
  5
3C5
100
AcDbEntity
  8
0
  6
ByLayer
 62
   48
420
4733445
370
   -3
100
AcDbLine
 10
1312.786190568704
 20
224.2798876257567
 11
1315.136190568704
 21
224.2798876257567
  0
LINE
  5
3C6
100
AcDbEntity
  8
0
  6
ByLayer
 62
   48
420
4733445
370
   -3
100
AcDbLine
 10
1315.136190568704
 20
224.2798876257567
 11
1315.136190568704
 21
240.2798876257567
  0
LINE
  5
3C7
100
AcDbEntity
  8
0
  6
ByLayer
 62
   48
420
4733445
370
   -3
100
AcDbLine
 10
1323.486190568704
 20
215.2798876257567
 11
1314.786190568704
 21
215.2798876257567
  0
LINE
  5
3C8
100
AcDbEntity
  8
0
  6
ByLayer
 62
   48
420
4733445
370
   -3
100
AcDbLine
 10
1312.786190568704
 20
217.2798876257567
 11
1312.786190568704
 21
221.0798876257568
  0
LINE
  5
3C9
100
AcDbEntity
  8
0
  6
ByLayer
 62
   48
420
4733445
370
   -3
100
AcDbLine
 10
1024.786190568704
 20
217.2798876257579
 11
1024.786190568704
 21
221.0798876257579
  0
LINE
  5
3CA
100
AcDbEntity
  8
0
  6
ByLayer
 62
   48
420
4733445
370
   -3
100
AcDbLine
 10
1035.486190568704
 20
215.2798876257579
 11
1026.786190568704
 21
215.2798876257579
  0
LINE
  5
3CB
100
AcDbEntity
  8
0
  6
ByLayer
 62
   48
420
4733445
370
   -3
100
AcDbLine
 10
1477.63619056871
 20
240.2798876257561
 11
1323.136190568704
 21
240.2798876257567
  0
LINE
  5
3CC
100
AcDbEntity
  8
0
  6
ByLayer
 62
   48
420
4733445
370
   -3
100
AcDbLine
 10
887.1361905687089
 20
217.5298876257595
 11
887.1361905687087
 21
202.5298876257596
  0
LINE
  5
3CD
100
AcDbEntity
  8
0
  6
ByLayer
 62
   48
420
4733445
370
   -3
100
AcDbLine
 10
887.1361905687087
 20
202.5298876257596
 11
875.1361905687037
 21
202.5298876257597
  0
LINE
  5
3CE
100
AcDbEntity
  8
0
  6
ByLayer
 62
   48
420
4733445
370
   -3
100
AcDbLine
 10
875.1361905687038
 20
217.5298876257597
 11
875.1361905687036
 21
202.5298876257597
  0
LINE
  5
3CF
100
AcDbEntity
  8
0
  6
ByLayer
 62
   48
420
4733445
370
   -3
100
AcDbLine
 10
1187.136190568709
 20
217.5298876257584
 11
1187.136190568709
 21
202.5298876257585
  0
LINE
  5
3D0
100
AcDbEntity
  8
0
  6
ByLayer
 62
   48
420
4733445
370
   -3
100
AcDbLine
 10
1187.136190568709
 20
202.5298876257585
 11
1175.136190568704
 21
202.5298876257585
  0
LINE
  5
3D1
100
AcDbEntity
  8
0
  6
ByLayer
 62
   48
420
4733445
370
   -3
100
AcDbLine
 10
1175.136190568704
 20
217.5298876257585
 11
1175.136190568704
 21
202.5298876257585
  0
LINE
  5
3D2
100
AcDbEntity
  8
0
  6
ByLayer
 62
   48
420
4733445
370
   -3
100
AcDbLine
 10
733.1361905687091
 20
240.2798876257591
 11
1027.136190568704
 21
240.279887625758
  0
LINE
  5
3D3
100
AcDbEntity
  8
0
  6
ByLayer
 62
   48
420
4733445
370
   -3
100
AcDbLine
 10
1315.136190568704
 20
240.2798876257567
 11
1035.136190568704
 21
240.2798876257579
  0
LINE
  5
3D4
100
AcDbEntity
  8
0
  6
ByLayer
 62
   48
420
4733445
370
   -3
100
AcDbLine
 10
583.1361905687145
 20
217.5298876257608
 11
571.1361905687093
 21
217.5298876257608
  0
LINE
  5
3D5
100
AcDbEntity
  8
0
  6
ByLayer
 62
   48
420
4733445
370
   -3
100
AcDbLine
 10
283.1361905687142
 20
217.529887625762
 11
271.1361905687089
 21
217.529887625762
  0
LINE
  5
3D6
100
AcDbEntity
  8
0
  6
ByLayer
 62
   48
420
4733445
370
   -3
100
AcDbLine
 10
722.7861905687092
 20
221.0798876257592
 11
722.7861905687092
 21
217.2798876257591
  0
LINE
  5
3D7
100
AcDbEntity
  8
0
  6
ByLayer
 62
   48
420
4733445
370
   -3
100
AcDbLine
 10
725.1361905687091
 20
224.2798876257591
 11
722.7861905687093
 21
224.2798876257591
  0
LINE
  5
3D8
100
AcDbEntity
  8
0
  6
ByLayer
 62
   48
420
4733445
370
   -3
100
AcDbLine
 10
725.1361905687091
 20
240.2798876257591
 11
725.1361905687091
 21
224.2798876257591
  0
LINE
  5
3D9
100
AcDbEntity
  8
0
  6
ByLayer
 62
   48
420
4733445
370
   -3
100
AcDbLine
 10
725.1361905687091
 20
240.2798876257591
 11
431.1361905687142
 21
240.2798876257602
  0
LINE
  5
3DA
100
AcDbEntity
  8
0
  6
ByLayer
 62
   48
420
4733445
370
   -3
100
AcDbLine
 10
431.1361905687141
 20
224.2798876257603
 11
431.1361905687141
 21
240.2798876257602
  0
LINE
  5
3DB
100
AcDbEntity
  8
0
  6
ByLayer
 62
   48
420
4733445
370
   -3
100
AcDbLine
 10
433.4861905687141
 20
224.2798876257602
 11
431.1361905687141
 21
224.2798876257603
  0
LINE
  5
3DC
100
AcDbEntity
  8
0
  6
ByLayer
 62
   48
420
4733445
370
   -3
100
AcDbLine
 10
433.4861905687141
 20
217.2798876257603
 11
433.4861905687141
 21
221.0798876257603
  0
LINE
  5
3DD
100
AcDbEntity
  8
0
  6
ByLayer
 62
   48
420
4733445
370
   -3
100
AcDbLine
 10
422.786190568714
 20
215.2798876257603
 11
431.4861905687139
 21
215.2798876257603
  0
LINE
  5
3DE
100
AcDbEntity
  8
0
  6
ByLayer
 62
   48
420
4733445
370
   -3
100
AcDbLine
 10
420.786190568714
 20
221.0798876257603
 11
420.786190568714
 21
217.2798876257603
  0
LINE
  5
3DF
100
AcDbEntity
  8
0
  6
ByLayer
 62
   48
420
4733445
370
   -3
100
AcDbLine
 10
423.1361905687141
 20
224.2798876257603
 11
420.786190568714
 21
224.2798876257603
  0
LINE
  5
3E0
100
AcDbEntity
  8
0
  6
ByLayer
 62
   48
420
4733445
370
   -3
100
AcDbLine
 10
423.1361905687143
 20
240.2798876257603
 11
423.1361905687141
 21
224.2798876257603
  0
LINE
  5
3E1
100
AcDbEntity
  8
0
  6
ByLayer
 62
   48
420
4733445
370
   -3
100
AcDbLine
 10
143.1361905687143
 20
240.2798876257615
 11
423.1361905687143
 21
240.2798876257604
  0
LINE
  5
3E2
100
AcDbEntity
  8
0
  6
ByLayer
 62
   48
420
4733445
370
   -3
100
AcDbLine
 10
143.1361905687141
 20
224.2798876257615
 11
143.1361905687143
 21
240.2798876257615
  0
LINE
  5
3E3
100
AcDbEntity
  8
0
  6
ByLayer
 62
   48
420
4733445
370
   -3
100
AcDbLine
 10
145.486190568714
 20
224.2798876257615
 11
143.1361905687141
 21
224.2798876257615
  0
LINE
  5
3E4
100
AcDbEntity
  8
0
  6
ByLayer
 62
   48
420
4733445
370
   -3
100
AcDbLine
 10
145.486190568714
 20
217.2798876257615
 11
145.486190568714
 21
221.0798876257615
  0
LINE
  5
3E5
100
AcDbEntity
  8
0
  6
ByLayer
 62
   48
420
4733445
370
   -3
100
AcDbLine
 10
134.786190568714
 20
215.2798876257614
 11
143.4861905687142
 21
215.2798876257614
  0
LINE
  5
3E6
100
AcDbEntity
  8
0
  6
ByLayer
 62
   48
420
4733445
370
   -3
100
AcDbLine
 10
132.786190568714
 20
221.0798876257615
 11
132.786190568714
 21
217.2798876257615
  0
LINE
  5
3E7
100
AcDbEntity
  8
0
  6
ByLayer
 62
   48
420
4733445
370
   -3
100
AcDbLine
 10
135.1361905687141
 20
224.2798876257615
 11
132.786190568714
 21
224.2798876257616
  0
LINE
  5
3E8
100
AcDbEntity
  8
0
  6
ByLayer
 62
   48
420
4733445
370
   -3
100
AcDbLine
 10
135.1361905687143
 20
240.2798876257615
 11
135.1361905687141
 21
224.2798876257615
  0
LINE
  5
3E9
100
AcDbEntity
  8
0
  6
ByLayer
 62
   48
420
4733445
370
   -3
100
AcDbLine
 10
22.03619056871013
 20
240.2798876257619
 11
135.1361905687143
 21
240.2798876257615
  0
LINE
  5
3EA
100
AcDbEntity
  8
0
  6
ByLayer
 62
   48
420
4733445
370
   -3
100
AcDbLine
 10
283.1361905687142
 20
217.529887625762
 11
283.1361905687142
 21
202.5298876257621
  0
LINE
  5
3EB
100
AcDbEntity
  8
0
  6
ByLayer
 62
   48
420
4733445
370
   -3
100
AcDbLine
 10
271.1361905687089
 20
202.5298876257621
 11
283.136190568714
 21
202.5298876257621
  0
LINE
  5
3EC
100
AcDbEntity
  8
0
  6
ByLayer
 62
   48
420
4733445
370
   -3
100
AcDbLine
 10
271.1361905687091
 20
217.529887625762
 11
271.1361905687091
 21
202.5298876257621
  0
LINE
  5
3ED
100
AcDbEntity
  8
0
  6
ByLayer
 62
   48
420
4733445
370
   -3
100
AcDbLine
 10
571.1361905687094
 20
217.5298876257608
 11
571.1361905687094
 21
202.5298876257609
  0
LINE
  5
3EE
100
AcDbEntity
  8
0
  6
ByLayer
 62
   48
420
4733445
370
   -3
100
AcDbLine
 10
583.1361905687145
 20
217.5298876257608
 11
583.1361905687145
 21
202.5298876257609
  0
LINE
  5
3EF
100
AcDbEntity
  8
0
  6
ByLayer
 62
   48
420
4733445
370
   -3
100
AcDbLine
 10
571.1361905687094
 20
202.5298876257609
 11
583.1361905687144
 21
202.5298876257609
  0
ARC
  5
3F0
100
AcDbEntity
  8
Hidden
  6
ByLayer
 62
  256
370
   -3
100
AcDbCircle
 10
59.03619056871027
 20
323.989887625762
 40
3
100
AcDbArc
 50
6.616e-013
 51
89.9999999999998
  0
ARC
  5
3F1
100
AcDbEntity
  8
Hidden
  6
ByLayer
 62
  256
370
   -3
100
AcDbCircle
 10
59.03619056871027
 20
298.9375064883389
 40
3.000000000000001
100
AcDbArc
 50
270.0000000000001
 51
359.9999999999998
  0
LINE
  5
3F2
100
AcDbEntity
  8
Hidden
  6
ByLayer
 62
  256
370
   -3
100
AcDbLine
 10
62.03619056871016
 20
298.9375064883389
 11
62.03619056871016
 21
323.989887625762
  0
LINE
  5
3F3
100
AcDbEntity
  8
Hidden
  6
ByLayer
 62
  256
370
   -3
100
AcDbLine
 10
22.0361905687099
 20
295.937506488339
 11
59.03619056871005
 21
295.9375064883389
  0
LINE
  5
3F4
100
AcDbEntity
  8
Hidden
  6
ByLayer
 62
  256
370
   -3
100
AcDbLine
 10
59.03619056871027
 20
326.989887625762
 11
22.03619056871013
 21
326.9898876257622
  0
LINE
  5
3F5
100
AcDbEntity
  8
Hidden
  6
ByLayer
 62
  256
370
   -3
100
AcDbLine
 10
1447.303842150002
 20
318.4375064883345
 11
1450.970016359356
 21
312.0875064883344
  0
LINE
  5
3F6
100
AcDbEntity
  8
Hidden
  6
ByLayer
 62
  256
370
   -3
100
AcDbLine
 10
1450.970016359356
 20
312.0875064883344
 11
1458.302364778064
 21
312.0875064883344
  0
LINE
  5
3F7
100
AcDbEntity
  8
Hidden
  6
ByLayer
 62
  256
370
   -3
100
AcDbLine
 10
1458.302364778064
 20
312.0875064883344
 11
1461.968538987418
 21
318.4375064883344
  0
LINE
  5
3F8
100
AcDbEntity
  8
Hidden
  6
ByLayer
 62
  256
370
   -3
100
AcDbLine
 10
1461.968538987418
 20
318.4375064883344
 11
1458.302364778064
 21
324.7875064883344
  0
LINE
  5
3F9
100
AcDbEntity
  8
Hidden
  6
ByLayer
 62
  256
370
   -3
100
AcDbLine
 10
1458.302364778064
 20
324.7875064883344
 11
1450.970016359356
 21
324.7875064883344
  0
LINE
  5
3FA
100
AcDbEntity
  8
Hidden
  6
ByLayer
 62
  256
370
   -3
100
AcDbLine
 10
1450.970016359356
 20
324.7875064883344
 11
1447.303842150002
 21
318.4375064883345
  0
LINE
  5
3FB
100
AcDbEntity
  8
Hidden
  6
ByLayer
 62
  256
370
   -3
100
AcDbLine
 10
829.0057280899974
 20
1170.019999999995
 11
829.0057280899974
 21
1176.019999999995
  0
LINE
  5
3FC
100
AcDbEntity
  8
Hidden
  6
ByLayer
 62
  256
370
   -3
100
AcDbLine
 10
527.0057280900027
 20
1170.019999999994
 11
527.0057280900025
 21
1177.019999999995
  0
ARC
  5
3FD
100
AcDbEntity
  8
Hidden
  6
ByLayer
 62
  256
370
   -3
100
AcDbCircle
 10
535.9500000000016
 20
1176.019999999994
 40
8.999999999999936
100
AcDbArc
 50
8.537738402e-007
 51
173.6206297915533
  0
LINE
  5
3FE
100
AcDbEntity
  8
Hidden
  6
ByLayer
 62
  256
370
   -3
100
AcDbLine
 10
544.9500000000014
 20
1176.020000134105
 11
544.9499999999966
 21
1170.019999999994
  0
ARC
  5
3FF
100
AcDbEntity
  8
Hidden
  6
ByLayer
 62
  256
370
   -3
100
AcDbCircle
 10
247.9500000000016
 20
1176.019999999993
 40
8.999999999999972
100
AcDbArc
 50
6.379370208436369
 51
180.0000000000002
  0
LINE
  5
400
100
AcDbEntity
  8
Hidden
  6
ByLayer
 62
  256
370
   -3
100
AcDbLine
 10
256.8942719100008
 20
1177.019999999992
 11
256.8942719100009
 21
1170.019999999993
  0
LINE
  5
401
100
AcDbEntity
  8
Hidden
  6
ByLayer
 62
  256
370
   -3
100
AcDbLine
 10
238.9499999999967
 20
1170.019999999993
 11
238.9499999999966
 21
1176.019999999993
  0
ARC
  5
402
100
AcDbEntity
  8
Hidden
  6
ByLayer
 62
  256
370
   -3
100
AcDbCircle
 10
837.9499999999966
 20
1175.019999999995
 40
8.999999999999932
100
AcDbArc
 50
6.379370208440437
 51
173.6206297915599
  0
LINE
  5
403
100
AcDbEntity
  8
Hidden
  6
ByLayer
 62
  256
370
   -3
100
AcDbLine
 10
846.8942719099957
 20
1170.019999999995
 11
846.8942719099957
 21
1176.019999999995
  0
LINE
  5
404
100
AcDbEntity
  8
Hidden
  6
ByLayer
 62
  256
370
   -3
100
AcDbLine
 10
1148.89427190999
 20
1170.019999999996
 11
1148.89427190999
 21
1177.019999999997
  0
ARC
  5
405
100
AcDbEntity
  8
Hidden
  6
ByLayer
 62
  256
370
   -3
100
AcDbCircle
 10
1139.949999999992
 20
1176.019999999996
 40
8.999999999999936
100
AcDbArc
 50
6.379370208447155
 51
179.9999991462265
  0
LINE
  5
406
100
AcDbEntity
  8
Hidden
  6
ByLayer
 62
  256
370
   -3
100
AcDbLine
 10
1130.949999999992
 20
1176.020000134107
 11
1130.949999999997
 21
1170.019999999996
  0
ARC
  5
407
100
AcDbEntity
  8
Hidden
  6
ByLayer
 62
  256
370
   -3
100
AcDbCircle
 10
172.8161905687094
 20
776.8038094312892
 40
3
100
AcDbArc
 50
269.9999999999901
 51
360
  0
ARC
  5
408
100
AcDbEntity
  8
Hidden
  6
ByLayer
 62
  256
370
   -3
100
AcDbCircle
 10
172.8161905687094
 20
801.8561905687123
 40
2.999999999999999
100
AcDbArc
 50
359.9999999999928
 51
90
  0
LINE
  5
409
100
AcDbEntity
  8
Hidden
  6
ByLayer
 62
  256
370
   -3
100
AcDbLine
 10
175.8161905687093
 20
776.8038094312892
 11
175.8161905687093
 21
801.8561905687123
  0
LINE
  5
40A
100
AcDbEntity
  8
Hidden
  6
ByLayer
 62
  256
370
   -3
100
AcDbLine
 10
172.8161905687094
 20
804.8561905687123
 11
135.8161905687092
 21
804.8561905687123
  0
LINE
  5
40B
100
AcDbEntity
  8
Hidden
  6
ByLayer
 62
  256
370
   -3
100
AcDbLine
 10
135.8161905687092
 20
773.8038094312892
 11
172.8161905687094
 21
773.8038094312892
  0
LINE
  5
40C
100
AcDbEntity
  8
Hidden
  6
ByLayer
 62
  256
370
   -3
100
AcDbLine
 10
1392.082364778064
 20
776.0061905687107
 11
1384.750016359356
 21
776.0061905687107
  0
LINE
  5
40D
100
AcDbEntity
  8
Hidden
  6
ByLayer
 62
  256
370
   -3
100
AcDbLine
 10
1384.750016359356
 20
776.0061905687107
 11
1381.083842150002
 21
782.3561905687108
  0
LINE
  5
40E
100
AcDbEntity
  8
Hidden
  6
ByLayer
 62
  256
370
   -3
100
AcDbLine
 10
1381.083842150002
 20
782.3561905687108
 11
1384.750016359356
 21
788.7061905687108
  0
LINE
  5
40F
100
AcDbEntity
  8
Hidden
  6
ByLayer
 62
  256
370
   -3
100
AcDbLine
 10
1384.750016359356
 20
788.7061905687108
 11
1392.082364778064
 21
788.7061905687108
  0
LINE
  5
410
100
AcDbEntity
  8
Hidden
  6
ByLayer
 62
  256
370
   -3
100
AcDbLine
 10
1392.082364778064
 20
788.7061905687108
 11
1395.748538987418
 21
782.3561905687108
  0
LINE
  5
411
100
AcDbEntity
  8
Hidden
  6
ByLayer
 62
  256
370
   -3
100
AcDbLine
 10
1395.748538987418
 20
782.3561905687108
 11
1392.082364778064
 21
776.0061905687107
  0
ENDSEC
  0
SECTION
  2
OBJECTS
  0
DICTIONARY
  5
C
330
0
100
AcDbDictionary
281
    1
  3
ACAD_GROUP
350
D
  0
DICTIONARY
  5
D
330
C
100
AcDbDictionary
281
    1
  0
ENDSEC
  0
EOF
