  0
SECTION
  2
HEADER
  9
$ACADVER
  1
AC1014
  9
$ACADMAINTVER
 70
     9
  9
$DWGCODEPAGE
  3
ANSI_1252
  9
$INSBASE
 10
0.0
 20
0.0
 30
0.0
  9
$EXTMIN
 10
563.1096434693094
 20
-51.77500000000135
 30
116.8644671509897
  9
$EXTMAX
 10
1371.549286938618
 20
507.1399999999994
 30
116.86446715099
  9
$LIMMIN
 10
0.0
 20
0.0
  9
$LIMMAX
 10
420.0
 20
297.0
  9
$ORTHOMODE
 70
     0
  9
$REGENMODE
 70
     1
  9
$FILLMODE
 70
     1
  9
$QTEXTMODE
 70
     0
  9
$MIRRTEXT
 70
     1
  9
$DRAGMODE
 70
     2
  9
$LTSCALE
 40
1.0
  9
$OSMODE
 70
    37
  9
$ATTMODE
 70
     1
  9
$TEXTSIZE
 40
2.5
  9
$TRACEWID
 40
1.0
  9
$TEXTSTYLE
  7
STANDARD
  9
$CLAYER
  8
0
  9
$CELTYPE
  6
BYLAYER
  9
$CECOLOR
 62
   256
  9
$CELTSCALE
 40
1.0
  9
$DELOBJ
 70
     1
  9
$DISPSILH
 70
     0
  9
$DIMSCALE
 40
1.0
  9
$DIMASZ
 40
2.5
  9
$DIMEXO
 40
0.625
  9
$DIMDLI
 40
3.75
  9
$DIMRND
 40
0.0
  9
$DIMDLE
 40
0.0
  9
$DIMEXE
 40
1.25
  9
$DIMTP
 40
0.0
  9
$DIMTM
 40
0.0
  9
$DIMTXT
 40
2.5
  9
$DIMCEN
 40
2.5
  9
$DIMTSZ
 40
0.0
  9
$DIMTOL
 70
     0
  9
$DIMLIM
 70
     0
  9
$DIMTIH
 70
     1
  9
$DIMTOH
 70
     0
  9
$DIMSE1
 70
     0
  9
$DIMSE2
 70
     0
  9
$DIMTAD
 70
     1
  9
$DIMZIN
 70
     8
  9
$DIMBLK
  1

  9
$DIMASO
 70
     1
  9
$DIMSHO
 70
     1
  9
$DIMPOST
  1
mm
  9
$DIMAPOST
  1

  9
$DIMALT
 70
     0
  9
$DIMALTD
 70
     3
  9
$DIMALTF
 40
0.0393700787401575
  9
$DIMLFAC
 40
1.0
  9
$DIMTOFL
 70
     1
  9
$DIMTVP
 40
0.0
  9
$DIMTIX
 70
     0
  9
$DIMSOXD
 70
     0
  9
$DIMSAH
 70
     0
  9
$DIMBLK1
  1

  9
$DIMBLK2
  1

  9
$DIMSTYLE
  2
ISO-25
  9
$DIMCLRD
 70
     0
  9
$DIMCLRE
 70
     0
  9
$DIMCLRT
 70
     0
  9
$DIMTFAC
 40
1.0
  9
$DIMGAP
 40
0.625
  9
$DIMJUST
 70
     0
  9
$DIMSD1
 70
     0
  9
$DIMSD2
 70
     0
  9
$DIMTOLJ
 70
     0
  9
$DIMTZIN
 70
     8
  9
$DIMALTZ
 70
     0
  9
$DIMALTTZ
 70
     8
  9
$DIMFIT
 70
     3
  9
$DIMUPT
 70
     0
  9
$DIMUNIT
 70
     2
  9
$DIMDEC
 70
     2
  9
$DIMTDEC
 70
     2
  9
$DIMALTU
 70
     2
  9
$DIMALTTD
 70
     3
  9
$DIMTXSTY
  7
STANDARD
  9
$DIMAUNIT
 70
     0
  9
$LUNITS
 70
     2
  9
$LUPREC
 70
     4
  9
$SKETCHINC
 40
1.0
  9
$FILLETRAD
 40
0.0
  9
$AUNITS
 70
     0
  9
$AUPREC
 70
     0
  9
$MENU
  1
.
  9
$ELEVATION
 40
0.0
  9
$PELEVATION
 40
0.0
  9
$THICKNESS
 40
0.0
  9
$LIMCHECK
 70
     0
  9
$CHAMFERA
 40
0.0
  9
$CHAMFERB
 40
0.0
  9
$CHAMFERC
 40
0.0
  9
$CHAMFERD
 40
0.0
  9
$SKPOLY
 70
     0
  9
$TDCREATE
 40
2460227.592492084
  9
$TDUPDATE
 40
2460227.592493287
  9
$TDINDWG
 40
0.0000000116
  9
$TDUSRTIMER
 40
0.0000000116
  9
$USRTIMER
 70
     1
  9
$ANGBASE
 50
0.0
  9
$ANGDIR
 70
     0
  9
$PDMODE
 70
     0
  9
$PDSIZE
 40
0.0
  9
$PLINEWID
 40
0.0
  9
$COORDS
 70
     1
  9
$SPLFRAME
 70
     0
  9
$SPLINETYPE
 70
     6
  9
$SPLINESEGS
 70
     8
  9
$ATTDIA
 70
     0
  9
$ATTREQ
 70
     1
  9
$HANDLING
 70
     1
  9
$HANDSEED
  5
3BD
  9
$SURFTAB1
 70
     6
  9
$SURFTAB2
 70
     6
  9
$SURFTYPE
 70
     6
  9
$SURFU
 70
     6
  9
$SURFV
 70
     6
  9
$UCSNAME
  2

  9
$UCSORG
 10
0.0
 20
0.0
 30
0.0
  9
$UCSXDIR
 10
1.0
 20
0.0
 30
0.0
  9
$UCSYDIR
 10
0.0
 20
1.0
 30
0.0
  9
$PUCSNAME
  2

  9
$PUCSORG
 10
0.0
 20
0.0
 30
0.0
  9
$PUCSXDIR
 10
1.0
 20
0.0
 30
0.0
  9
$PUCSYDIR
 10
0.0
 20
1.0
 30
0.0
  9
$USERI1
 70
     0
  9
$USERI2
 70
     0
  9
$USERI3
 70
     0
  9
$USERI4
 70
     0
  9
$USERI5
 70
     0
  9
$USERR1
 40
0.0
  9
$USERR2
 40
0.0
  9
$USERR3
 40
0.0
  9
$USERR4
 40
0.0
  9
$USERR5
 40
0.0
  9
$WORLDVIEW
 70
     1
  9
$SHADEDGE
 70
     3
  9
$SHADEDIF
 70
    70
  9
$TILEMODE
 70
     1
  9
$MAXACTVP
 70
    64
  9
$PINSBASE
 10
0.0
 20
0.0
 30
0.0
  9
$PLIMCHECK
 70
     0
  9
$PEXTMIN
 10
1.000000000000000E+20
 20
1.000000000000000E+20
 30
1.000000000000000E+20
  9
$PEXTMAX
 10
-1.000000000000000E+20
 20
-1.000000000000000E+20
 30
-1.000000000000000E+20
  9
$PLIMMIN
 10
0.0
 20
0.0
  9
$PLIMMAX
 10
420.0
 20
297.0
  9
$UNITMODE
 70
     0
  9
$VISRETAIN
 70
     1
  9
$PLINEGEN
 70
     0
  9
$PSLTSCALE
 70
     1
  9
$TREEDEPTH
 70
  3020
  9
$PICKSTYLE
 70
     1
  9
$CMLSTYLE
  2
STANDARD
  9
$CMLJUST
 70
     0
  9
$CMLSCALE
 40
20.0
  9
$PROXYGRAPHICS
 70
     1
  9
$MEASUREMENT
 70
     1
  0
ENDSEC
  0
SECTION
  2
CLASSES
  0
CLASS
  1
ACDBDICTIONARYWDFLT
  2
AcDbDictionaryWithDefault
  3
ObjectDBX Classes
 90
        0
280
     0
281
     0
  0
CLASS
  1
VISUALSTYLE
  2
AcDbVisualStyle
  3
ObjectDBX Classes
 90
     4095
280
     0
281
     0
  0
CLASS
  1
MATERIAL
  2
AcDbMaterial
  3
ObjectDBX Classes
 90
     1153
280
     0
281
     0
  0
CLASS
  1
SCALE
  2
AcDbScale
  3
ObjectDBX Classes
 90
     1153
280
     0
281
     0
  0
CLASS
  1
TABLESTYLE
  2
AcDbTableStyle
  3
ObjectDBX Classes
 90
     4095
280
     0
281
     0
  0
CLASS
  1
MLEADERSTYLE
  2
AcDbMLeaderStyle
  3
ACDB_MLEADERSTYLE_CLASS
 90
     4095
280
     0
281
     0
  0
CLASS
  1
SUN
  2
AcDbSun
  3
SCENEOE
 90
     1153
280
     0
281
     0
  0
CLASS
  1
DICTIONARYVAR
  2
AcDbDictionaryVar
  3
ObjectDBX Classes
 90
        0
280
     0
281
     0
  0
CLASS
  1
XRECORD
  2
AcDbXrecord
  3
ObjectDBX Classes
 90
        0
280
     0
281
     0
  0
CLASS
  1
LWPOLYLINE
  2
AcDbPolyline
  3
ObjectDBX Classes
 90
        0
280
     0
281
     1
  0
CLASS
  1
HATCH
  2
AcDbHatch
  3
ObjectDBX Classes
 90
        0
280
     0
281
     1
  0
CLASS
  1
ACDBPLACEHOLDER
  2
AcDbPlaceHolder
  3
ObjectDBX Classes
 90
        0
280
     0
281
     0
  0
CLASS
  1
LAYOUT
  2
AcDbLayout
  3
ObjectDBX Classes
 90
        0
280
     0
281
     0
  0
ENDSEC
  0
SECTION
  2
TABLES
  0
TABLE
  2
VPORT
  5
8
102
{ACAD_XDICTIONARY
360
3B2
102
}
330
0
100
AcDbSymbolTable
 70
     1
  0
VPORT
  5
29
330
8
100
AcDbSymbolTableRecord
100
AcDbViewportTableRecord
  2
*ACTIVE
 70
     0
 10
0.0
 20
0.0
 11
1.0
 21
1.0
 12
967.3294652039638
 22
227.682499999999
 13
0.0
 23
0.0
 14
10.0
 24
10.0
 15
10.0
 25
10.0
 16
0.0
 26
0.0
 36
1.0
 17
0.0
 27
0.0
 37
0.0
 40
558.9150000000008
 41
1.446444707100915
 42
50.0
 43
0.0
 44
0.0
 50
0.0
 51
0.0
 71
     0
 72
   100
 73
     1
 74
     3
 75
     0
 76
     0
 77
     0
 78
     0
  0
ENDTAB
  0
TABLE
  2
LTYPE
  5
5
330
0
100
AcDbSymbolTable
 70
     2
  0
LTYPE
  5
14
330
5
100
AcDbSymbolTableRecord
100
AcDbLinetypeTableRecord
  2
BYBLOCK
 70
     0
  3

 72
    65
 73
     0
 40
0.0
  0
LTYPE
  5
15
330
5
100
AcDbSymbolTableRecord
100
AcDbLinetypeTableRecord
  2
BYLAYER
 70
     0
  3

 72
    65
 73
     0
 40
0.0
  0
LTYPE
  5
16
330
5
100
AcDbSymbolTableRecord
100
AcDbLinetypeTableRecord
  2
CONTINUOUS
 70
     0
  3
Solid line
 72
    65
 73
     0
 40
0.0
  0
LTYPE
  5
384
330
5
100
AcDbSymbolTableRecord
100
AcDbLinetypeTableRecord
  2
HIDDEN
 70
     0
  3
- - - - - - - - - - - - - - - - - - - - -
 72
    65
 73
     2
 40
9.524999999999999
 49
6.35
 74
     0
 49
-3.175
 74
     0
  0
ENDTAB
  0
TABLE
  2
LAYER
  5
2
330
0
100
AcDbSymbolTable
 70
     2
  0
LAYER
  5
10
330
2
100
AcDbSymbolTableRecord
100
AcDbLayerTableRecord
  2
0
 70
     0
 62
   253
  6
CONTINUOUS
  0
LAYER
  5
383
330
2
100
AcDbSymbolTableRecord
100
AcDbLayerTableRecord
  2
HIDDEN
 70
     0
 62
    48
  6
HIDDEN
  0
ENDTAB
  0
TABLE
  2
STYLE
  5
3
330
0
100
AcDbSymbolTable
 70
     1
  0
STYLE
  5
11
330
3
100
AcDbSymbolTableRecord
100
AcDbTextStyleTableRecord
  2
STANDARD
 70
     0
 40
0.0
 41
1.0
 50
0.0
 71
     0
 42
2.5
  3
txt
  4

  0
ENDTAB
  0
TABLE
  2
VIEW
  5
6
330
0
100
AcDbSymbolTable
 70
     0
  0
ENDTAB
  0
TABLE
  2
UCS
  5
7
330
0
100
AcDbSymbolTable
 70
     0
  0
ENDTAB
  0
TABLE
  2
APPID
  5
9
330
0
100
AcDbSymbolTable
 70
     2
  0
APPID
  5
12
330
9
100
AcDbSymbolTableRecord
100
AcDbRegAppTableRecord
  2
ACAD
 70
     0
  0
APPID
  5
3BC
330
9
100
AcDbSymbolTableRecord
100
AcDbRegAppTableRecord
  2
ACAD_MLEADERVER
 70
     0
  0
ENDTAB
  0
TABLE
  2
DIMSTYLE
  5
A
330
0
100
AcDbSymbolTable
 70
     1
  0
DIMSTYLE
105
27
330
A
100
AcDbSymbolTableRecord
100
AcDbDimStyleTableRecord
  2
ISO-25
 70
     0
  3

  4

  5

  6

  7

 40
1.0
 41
2.5
 42
0.625
 43
3.75
 44
1.25
 45
0.0
 46
0.0
 47
0.0
 48
0.0
140
2.5
141
2.5
142
0.0
143
0.03937007874016
144
1.0
145
0.0
146
1.0
147
0.625
 71
     0
 72
     0
 73
     0
 74
     0
 75
     0
 76
     0
 77
     1
 78
     8
170
     0
171
     3
172
     1
173
     0
174
     0
175
     0
176
     0
177
     0
178
     0
270
     2
271
     2
272
     2
273
     2
274
     3
340
11
275
     0
280
     0
281
     0
282
     0
283
     0
284
     8
285
     0
286
     0
287
     3
288
     0
  0
ENDTAB
  0
TABLE
  2
BLOCK_RECORD
  5
1
330
0
100
AcDbSymbolTable
 70
     0
  0
BLOCK_RECORD
  5
1F
330
1
100
AcDbSymbolTableRecord
100
AcDbBlockTableRecord
  2
*MODEL_SPACE
  0
BLOCK_RECORD
  5
1B
330
1
100
AcDbSymbolTableRecord
100
AcDbBlockTableRecord
  2
*PAPER_SPACE
  0
ENDTAB
  0
ENDSEC
  0
SECTION
  2
BLOCKS
  0
BLOCK
  5
20
330
1F
100
AcDbEntity
  8
0
100
AcDbBlockBegin
  2
*MODEL_SPACE
 70
     0
 10
0.0
 20
0.0
 30
0.0
  3
*MODEL_SPACE
  1

  0
ENDBLK
  5
21
330
1F
100
AcDbEntity
  8
0
100
AcDbBlockEnd
  0
BLOCK
  5
1C
330
1B
100
AcDbEntity
 67
     1
  8
0
100
AcDbBlockBegin
  2
*PAPER_SPACE
 70
     0
 10
0.0
 20
0.0
 30
0.0
  3
*PAPER_SPACE
  1

  0
ENDBLK
  5
1D
330
1B
100
AcDbEntity
 67
     1
  8
0
100
AcDbBlockEnd
  0
ENDSEC
  0
SECTION
  2
ENTITIES
  0
CIRCLE
  5
5E
330
1F
100
AcDbEntity
  8
0
 62
    48
100
AcDbCircle
 10
738.7796434693055
 20
190.119999999999
 30
0.0000000000000004
 40
4.25
  0
CIRCLE
  5
5F
330
1F
100
AcDbEntity
  8
0
 62
    48
100
AcDbCircle
 10
666.7796434693137
 20
190.119999999999
 30
0.0000000000000013
 40
4.25
  0
ARC
  5
60
330
1F
100
AcDbEntity
  8
0
 62
    48
100
AcDbCircle
 10
827.6192869386189
 20
501.1399999999991
 30
0.0000000000000034
 40
6.000000000000001
100
AcDbArc
 50
0.0000000000038676
 51
89.99999999999939
  0
ARC
  5
61
330
1F
100
AcDbEntity
  8
0
 62
    48
100
AcDbCircle
 10
577.9400000000009
 20
501.1399999999994
 30
0.0000000000000064
 40
6.000000000000001
100
AcDbArc
 50
90.00000000000388
 51
179.9999999999999
  0
CIRCLE
  5
62
330
1F
100
AcDbEntity
  8
0
 62
    48
100
AcDbCircle
 10
761.6196434693098
 20
434.3399999999991
 30
0.0000000000000024
 40
4.25
  0
CIRCLE
  5
63
330
1F
100
AcDbEntity
  8
0
 62
    48
100
AcDbCircle
 10
643.93964346931
 20
434.3399999999993
 30
0.0000000000000038
 40
4.25
  0
CIRCLE
  5
64
330
1F
100
AcDbEntity
  8
0
 62
    48
100
AcDbCircle
 10
817.1196434693097
 20
403.2899999999991
 30
-0.0000000000000001
 40
4.25
  0
CIRCLE
  5
65
330
1F
100
AcDbEntity
  8
0
 62
    48
100
AcDbCircle
 10
588.4396434693098
 20
403.2899999999993
 30
0.0000000000000027
 40
4.25
  0
CIRCLE
  5
66
330
1F
100
AcDbEntity
  8
0
 62
    48
100
AcDbCircle
 10
761.6196434693096
 20
313.3399999999991
 30
-0.0000000000000061
 40
4.25
  0
CIRCLE
  5
67
330
1F
100
AcDbEntity
  8
0
 62
    48
100
AcDbCircle
 10
643.9396434693098
 20
313.3399999999993
 30
-0.0000000000000047
 40
4.25
  0
CIRCLE
  5
68
330
1F
100
AcDbEntity
  8
0
 62
    48
100
AcDbCircle
 10
761.6196434693095
 20
205.2599999999991
 30
-0.0000000000000057
 40
4.25
  0
ARC
  5
69
330
1F
100
AcDbEntity
  8
0
 62
    48
100
AcDbCircle
 10
732.7796434693097
 20
368.4099999999972
 30
0.0000000000000006
 40
12.0
100
AcDbArc
 50
359.9999999999999
 51
89.99999999999994
  0
ARC
  5
6A
330
1F
100
AcDbEntity
  8
0
 62
    48
100
AcDbCircle
 10
672.7796434693098
 20
368.4099999999972
 30
0.0000000000000013
 40
12.0
100
AcDbArc
 50
89.9999999999999
 51
180.0
  0
CIRCLE
  5
6B
330
1F
100
AcDbEntity
  8
0
 62
    48
100
AcDbCircle
 10
720.2796434693091
 20
431.4099999999972
 30
0.000000000000004
 40
3.0
  0
CIRCLE
  5
6C
330
1F
100
AcDbEntity
  8
0
 62
    48
100
AcDbCircle
 10
685.2796434693105
 20
431.4099999999972
 30
0.0000000000000045
 40
3.0
  0
CIRCLE
  5
6D
330
1F
100
AcDbEntity
  8
0
 62
    48
100
AcDbCircle
 10
720.2796434693093
 20
407.4099999999972
 30
-0.0000000000000005
 40
3.0
  0
CIRCLE
  5
6E
330
1F
100
AcDbEntity
  8
0
 62
    48
100
AcDbCircle
 10
685.2796434693101
 20
407.4099999999972
 30
-0.0000000000000001
 40
3.0
  0
CIRCLE
  5
6F
330
1F
100
AcDbEntity
  8
0
 62
    48
100
AcDbCircle
 10
816.9360499298608
 20
488.14
 30
-0.0000000000000053
 40
9.100000000000001
  0
CIRCLE
  5
70
330
1F
100
AcDbEntity
  8
0
 62
    48
100
AcDbCircle
 10
588.6232370087599
 20
488.1399999999994
 30
-0.0000000000000025
 40
9.100000000000001
  0
CIRCLE
  5
71
330
1F
100
AcDbEntity
  8
0
 62
    48
100
AcDbCircle
 10
588.4396434693095
 20
190.1399999999989
 30
0.0000000000000022
 40
4.25
  0
CIRCLE
  5
72
330
1F
100
AcDbEntity
  8
0
 62
    48
100
AcDbCircle
 10
817.1196434693095
 20
190.1399999999987
 30
-0.0000000000000005
 40
4.25
  0
CIRCLE
  5
73
330
1F
100
AcDbEntity
  8
0
 62
    48
100
AcDbCircle
 10
643.9396434693097
 20
216.1399999999989
 30
0.0000000000000053
 40
4.25
  0
CIRCLE
  5
74
330
1F
100
AcDbEntity
  8
0
 62
    48
100
AcDbCircle
 10
-642.9396434693095
 20
154.139999999999
 30
-0.0000000000012753
 40
4.25
210
-1.887756848189618E-15
220
-3.885780586188025E-16
230
-1.0
  0
CIRCLE
  5
75
330
1F
100
AcDbEntity
  8
0
 62
    48
100
AcDbCircle
 10
-762.6196434693095
 20
154.1399999999988
 30
-0.0000000000014998
 40
4.25
210
-1.887756848189617E-15
220
-3.885780586188025E-16
230
-1.0
  0
CIRCLE
  5
76
330
1F
100
AcDbEntity
  8
0
 62
    48
100
AcDbCircle
 10
666.7796434693096
 20
154.139999999999
 30
0.0000000000000014
 40
4.25
  0
CIRCLE
  5
77
330
1F
100
AcDbEntity
  8
0
 62
    48
100
AcDbCircle
 10
738.7796434693095
 20
154.1399999999989
 30
0.0000000000000005
 40
4.25
  0
ARC
  5
78
330
1F
100
AcDbEntity
  8
0
 62
    48
100
AcDbCircle
 10
765.6196434693096
 20
138.5599999999992
 30
0.0000000000000063
 40
3.0
100
AcDbArc
 50
269.9999999999928
 51
359.9999999999999
  0
ARC
  5
79
330
1F
100
AcDbEntity
  8
0
 62
    48
100
AcDbCircle
 10
639.9396434693094
 20
138.5599999999993
 30
-0.0000000000000061
 40
3.0
100
AcDbArc
 50
179.99999999999
 51
269.9999999999999
  0
ARC
  5
7A
330
1F
100
AcDbEntity
  8
0
 62
    48
100
AcDbCircle
 10
672.7796434693097
 20
301.6899999999972
 30
-0.0000000000000005
 40
12.0
100
AcDbArc
 50
179.9999999999999
 51
270.0
  0
ARC
  5
7B
330
1F
100
AcDbEntity
  8
0
 62
    48
100
AcDbCircle
 10
732.7796434693096
 20
301.6899999999971
 30
-0.0000000000000012
 40
12.0
100
AcDbArc
 50
269.9999999999999
 51
0.0000000000004071
  0
CIRCLE
  5
7C
330
1F
100
AcDbEntity
  8
0
 62
    48
100
AcDbCircle
 10
816.9360499298604
 20
216.1399999999987
 30
0.0000000000000032
 40
9.100000000000001
  0
CIRCLE
  5
7D
330
1F
100
AcDbEntity
  8
0
 62
    48
100
AcDbCircle
 10
588.6232370087587
 20
216.1399999999992
 30
0.000000000000006
 40
9.100000000000001
  0
LINE
  5
7E
330
1F
100
AcDbEntity
  8
0
 62
    48
100
AcDbLine
 10
660.7796434693097
 20
301.6899999999972
 30
0.0
 11
660.7796434693098
 21
368.4099999999973
 31
0.0
  0
LINE
  5
7F
330
1F
100
AcDbEntity
  8
0
 62
    48
100
AcDbLine
 10
732.7796434693096
 20
289.689999999997
 30
0.0
 11
672.7796434693096
 21
289.689999999997
 31
0.0
  0
LINE
  5
80
330
1F
100
AcDbEntity
  8
0
 62
    48
100
AcDbLine
 10
744.7796434693096
 20
301.6899999999971
 30
0.0
 11
744.7796434693097
 21
368.4099999999972
 31
0.0
  0
LINE
  5
81
330
1F
100
AcDbEntity
  8
0
 62
    48
100
AcDbLine
 10
684.7796434693164
 20
160.1399999999989
 30
0.0
 11
690.7796434693098
 21
160.139999999999
 31
0.0
  0
LINE
  5
82
330
1F
100
AcDbEntity
  8
0
 62
    48
100
AcDbLine
 10
684.7796434693164
 20
148.1399999999989
 30
0.0
 11
684.7796434693164
 21
160.1399999999989
 31
0.0
  0
LINE
  5
83
330
1F
100
AcDbEntity
  8
0
 62
    48
100
AcDbLine
 10
720.7796434693095
 20
148.1399999999988
 30
0.0
 11
684.7796434693164
 21
148.1399999999989
 31
0.0
  0
LINE
  5
84
330
1F
100
AcDbEntity
  8
0
 62
    48
100
AcDbLine
 10
720.7796434693095
 20
160.1399999999989
 30
0.0
 11
720.7796434693095
 21
148.1399999999988
 31
0.0
  0
LINE
  5
85
330
1F
100
AcDbEntity
  8
0
 62
    48
100
AcDbLine
 10
714.7796434693098
 20
160.1399999999989
 30
0.0
 11
720.7796434693095
 21
160.1399999999989
 31
0.0
  0
LINE
  5
86
330
1F
100
AcDbEntity
  8
0
 62
    48
100
AcDbLine
 10
639.9396434693094
 20
135.5599999999993
 30
0.0
 11
765.6196434693096
 21
135.5599999999992
 31
0.0
  0
LINE
  5
87
330
1F
100
AcDbEntity
  8
0
 62
    48
100
AcDbLine
 10
768.6196434693095
 20
138.5599999999992
 30
0.0
 11
768.6196434693096
 21
172.1399999999991
 31
0.0
  0
LINE
  5
88
330
1F
100
AcDbEntity
  8
0
 62
    48
100
AcDbLine
 10
756.6196434693096
 20
172.1399999999991
 30
0.0
 11
768.6196434693097
 21
172.1399999999991
 31
0.0
  0
LINE
  5
89
330
1F
100
AcDbEntity
  8
0
 62
    48
100
AcDbLine
 10
756.6196434693096
 20
172.1399999999991
 30
0.0
 11
756.6196434693095
 21
184.1399999999989
 31
0.0
  0
LINE
  5
8A
330
1F
100
AcDbEntity
  8
0
 62
    48
100
AcDbLine
 10
756.6196434693095
 20
184.1399999999989
 30
0.0
 11
768.6196434693096
 21
184.1399999999989
 31
0.0
  0
LINE
  5
8B
330
1F
100
AcDbEntity
  8
0
 62
    48
100
AcDbLine
 10
768.6196434693096
 20
184.1399999999989
 30
0.0
 11
768.6196434693096
 21
196.1399999999992
 31
0.0
  0
LINE
  5
8C
330
1F
100
AcDbEntity
  8
0
 62
    48
100
AcDbLine
 10
768.6196434693096
 20
196.1399999999992
 30
0.0
 11
805.6196434693095
 21
196.1399999999991
 31
0.0
  0
LINE
  5
8D
330
1F
100
AcDbEntity
  8
0
 62
    48
100
AcDbLine
 10
805.6196434693095
 20
184.1399999999991
 30
0.0
 11
805.6196434693096
 21
196.1399999999991
 31
0.0
  0
LINE
  5
8E
330
1F
100
AcDbEntity
  8
0
 62
    48
100
AcDbLine
 10
805.6196434693095
 20
184.1399999999991
 30
0.0
 11
833.6192869386185
 21
184.1399999999991
 31
0.0
  0
LINE
  5
8F
330
1F
100
AcDbEntity
  8
0
 62
    48
100
AcDbLine
 10
833.6192869386189
 20
501.139999999999
 30
0.0
 11
833.6192869386185
 21
184.139999999999
 31
0.0
  0
LINE
  5
90
330
1F
100
AcDbEntity
  8
0
 62
    48
100
AcDbLine
 10
577.9400000000009
 20
507.1399999999994
 30
0.0
 11
827.6192869386189
 21
507.1399999999991
 31
0.0
  0
LINE
  5
91
330
1F
100
AcDbEntity
  8
0
 62
    48
100
AcDbLine
 10
571.9400000000009
 20
501.1399999999994
 30
0.0
 11
571.9400000000005
 21
184.1399999999994
 31
0.0
  0
LINE
  5
92
330
1F
100
AcDbEntity
  8
0
 62
    48
100
AcDbLine
 10
571.9400000000005
 20
184.1399999999994
 30
0.0
 11
599.9396434693097
 21
184.1399999999993
 31
0.0
  0
LINE
  5
93
330
1F
100
AcDbEntity
  8
0
 62
    48
100
AcDbLine
 10
599.9396434693094
 20
184.1399999999993
 30
0.0
 11
599.9396434693094
 21
196.1399999999993
 31
0.0
  0
LINE
  5
94
330
1F
100
AcDbEntity
  8
0
 62
    48
100
AcDbLine
 10
599.9396434693097
 20
196.1399999999993
 30
0.0
 11
636.9396434693095
 21
196.1399999999992
 31
0.0
  0
LINE
  5
95
330
1F
100
AcDbEntity
  8
0
 62
    48
100
AcDbLine
 10
636.9396434693095
 20
184.139999999999
 30
0.0
 11
636.9396434693095
 21
196.1399999999993
 31
0.0
  0
LINE
  5
96
330
1F
100
AcDbEntity
  8
0
 62
    48
100
AcDbLine
 10
636.9396434693095
 20
184.139999999999
 30
0.0
 11
648.9396434693095
 21
184.139999999999
 31
0.0
  0
LINE
  5
97
330
1F
100
AcDbEntity
  8
0
 62
    48
100
AcDbLine
 10
648.9396434693097
 20
172.1399999999993
 30
0.0
 11
648.9396434693095
 21
184.139999999999
 31
0.0
  0
LINE
  5
98
330
1F
100
AcDbEntity
  8
0
 62
    48
100
AcDbLine
 10
648.9396434693097
 20
172.1399999999993
 30
0.0
 11
636.9396434693097
 21
172.1399999999993
 31
0.0
  0
LINE
  5
99
330
1F
100
AcDbEntity
  8
0
 62
    48
100
AcDbLine
 10
636.9396434693094
 20
138.5599999999993
 30
0.0
 11
636.9396434693095
 21
172.1399999999993
 31
0.0
  0
LINE
  5
9A
330
1F
100
AcDbEntity
  8
0
 62
    48
100
AcDbLine
 10
732.7796434693097
 20
380.4099999999972
 30
0.0
 11
672.7796434693098
 21
380.4099999999972
 31
0.0
  0
LINE
  5
9B
330
1F
100
AcDbEntity
  8
0
 62
    48
100
AcDbLine
 10
714.7796434693096
 20
160.1399999999989
 30
0.0
 11
714.7796434693095
 21
184.139999999999
 31
0.0
  0
LINE
  5
9C
330
1F
100
AcDbEntity
  8
0
 62
    48
100
AcDbLine
 10
690.7796434693097
 20
184.139999999999
 30
0.0
 11
690.7796434693098
 21
160.139999999999
 31
0.0
  0
LINE
  5
9D
330
1F
100
AcDbEntity
  8
0
 62
    48
100
AcDbLine
 10
690.7796434693097
 20
184.139999999999
 30
0.0
 11
684.7796434693097
 21
184.139999999999
 31
0.0
  0
LINE
  5
9E
330
1F
100
AcDbEntity
  8
0
 62
    48
100
AcDbLine
 10
684.7796434693097
 20
184.139999999999
 30
0.0
 11
684.7796434693097
 21
196.139999999999
 31
0.0
  0
LINE
  5
9F
330
1F
100
AcDbEntity
  8
0
 62
    48
100
AcDbLine
 10
720.7796434693096
 20
196.139999999999
 30
0.0
 11
684.7796434693097
 21
196.139999999999
 31
0.0
  0
LINE
  5
A0
330
1F
100
AcDbEntity
  8
0
 62
    48
100
AcDbLine
 10
720.7796434693095
 20
184.139999999999
 30
0.0
 11
720.7796434693096
 21
196.139999999999
 31
0.0
  0
LINE
  5
A1
330
1F
100
AcDbEntity
  8
0
 62
    48
100
AcDbLine
 10
720.7796434693095
 20
184.139999999999
 30
0.0
 11
714.7796434693097
 21
184.139999999999
 31
0.0
  0
LINE
  5
A2
330
1F
100
AcDbEntity
  8
0
 62
    48
100
AcDbLine
 10
805.6196434693097
 20
397.2899999999991
 30
0.0
 11
805.6196434693097
 21
409.2899999999991
 31
0.0
  0
LINE
  5
A3
330
1F
100
AcDbEntity
  8
0
 62
    48
100
AcDbLine
 10
768.6196434693097
 20
397.2899999999992
 30
0.0
 11
805.6196434693088
 21
397.2899999999989
 31
0.0
  0
LINE
  5
A4
330
1F
100
AcDbEntity
  8
0
 62
    48
100
AcDbLine
 10
768.6196434693097
 20
409.2899999999991
 30
0.0
 11
768.6196434693097
 21
397.2899999999991
 31
0.0
  0
LINE
  5
A5
330
1F
100
AcDbEntity
  8
0
 62
    48
100
AcDbLine
 10
805.6196434693088
 20
409.289999999999
 30
0.0
 11
768.6196434693097
 21
409.2899999999992
 31
0.0
  0
LINE
  5
A6
330
1F
100
AcDbEntity
  8
0
 62
    48
100
AcDbLine
 10
768.6196434693097
 20
327.2899999999991
 30
0.0
 11
768.6196434693098
 21
358.2899999999991
 31
0.0
  0
LINE
  5
A7
330
1F
100
AcDbEntity
  8
0
 62
    48
100
AcDbLine
 10
756.6196434693097
 20
327.2899999999993
 30
0.0
 11
768.6196434693097
 21
327.2899999999992
 31
0.0
  0
LINE
  5
A8
330
1F
100
AcDbEntity
  8
0
 62
    48
100
AcDbLine
 10
756.6196434693098
 20
358.2899999999992
 30
0.0
 11
756.6196434693097
 21
327.2899999999992
 31
0.0
  0
LINE
  5
A9
330
1F
100
AcDbEntity
  8
0
 62
    48
100
AcDbLine
 10
768.6196434693098
 20
358.2899999999991
 30
0.0
 11
756.6196434693098
 21
358.2899999999991
 31
0.0
  0
LINE
  5
AA
330
1F
100
AcDbEntity
  8
0
 62
    48
100
AcDbLine
 10
736.7796434693097
 20
463.1399999999992
 30
0.0
 11
736.7796434693098
 21
475.1399999999992
 31
0.0
  0
LINE
  5
AB
330
1F
100
AcDbEntity
  8
0
 62
    48
100
AcDbLine
 10
736.7796434693098
 20
475.1399999999992
 30
0.0
 11
748.7796434693098
 21
475.1399999999992
 31
0.0
  0
LINE
  5
AC
330
1F
100
AcDbEntity
  8
0
 62
    48
100
AcDbLine
 10
748.7796434693097
 20
463.1399999999992
 30
0.0
 11
748.7796434693098
 21
475.1399999999992
 31
0.0
  0
LINE
  5
AD
330
1F
100
AcDbEntity
  8
0
 62
    48
100
AcDbLine
 10
736.7796434693097
 20
463.1399999999992
 30
0.0
 11
748.7796434693097
 21
463.1399999999992
 31
0.0
  0
LINE
  5
AE
330
1F
100
AcDbEntity
  8
0
 62
    48
100
AcDbLine
 10
756.6196434693097
 20
467.1399999999992
 30
0.0
 11
756.6196434693098
 21
447.1399999999991
 31
0.0
  0
LINE
  5
AF
330
1F
100
AcDbEntity
  8
0
 62
    48
100
AcDbLine
 10
756.6196434693097
 20
467.1399999999992
 30
0.0
 11
768.6196434693097
 21
467.1399999999992
 31
0.0
  0
LINE
  5
B0
330
1F
100
AcDbEntity
  8
0
 62
    48
100
AcDbLine
 10
768.6196434693097
 20
467.1399999999991
 30
0.0
 11
768.6196434693098
 21
447.1399999999991
 31
0.0
  0
LINE
  5
B1
330
1F
100
AcDbEntity
  8
0
 62
    48
100
AcDbLine
 10
768.6196434693098
 20
447.1399999999991
 30
0.0
 11
756.6196434693098
 21
447.1399999999991
 31
0.0
  0
LINE
  5
B2
330
1F
100
AcDbEntity
  8
0
 62
    48
100
AcDbLine
 10
636.9396434693099
 20
409.2899999999993
 30
0.0
 11
636.93964346931
 21
397.2899999999993
 31
0.0
  0
LINE
  5
B3
330
1F
100
AcDbEntity
  8
0
 62
    48
100
AcDbLine
 10
636.9396434693098
 20
397.2899999999993
 30
0.0
 11
599.9396434693108
 21
397.2899999999993
 31
0.0
  0
LINE
  5
B4
330
1F
100
AcDbEntity
  8
0
 62
    48
100
AcDbLine
 10
599.9396434693099
 20
397.2899999999993
 30
0.0
 11
599.9396434693099
 21
409.2899999999993
 31
0.0
  0
LINE
  5
B5
330
1F
100
AcDbEntity
  8
0
 62
    48
100
AcDbLine
 10
599.9396434693108
 20
409.2899999999993
 30
0.0
 11
636.9396434693098
 21
409.2899999999993
 31
0.0
  0
LINE
  5
B6
330
1F
100
AcDbEntity
  8
0
 62
    48
100
AcDbLine
 10
648.9396434693099
 20
358.2899999999993
 30
0.0
 11
648.9396434693098
 21
327.2899999999993
 31
0.0
  0
LINE
  5
B7
330
1F
100
AcDbEntity
  8
0
 62
    48
100
AcDbLine
 10
648.9396434693098
 20
327.2899999999994
 30
0.0
 11
636.9396434693098
 21
327.2899999999993
 31
0.0
  0
LINE
  5
B8
330
1F
100
AcDbEntity
  8
0
 62
    48
100
AcDbLine
 10
636.9396434693099
 20
327.2899999999993
 30
0.0
 11
636.9396434693099
 21
358.2899999999993
 31
0.0
  0
LINE
  5
B9
330
1F
100
AcDbEntity
  8
0
 62
    48
100
AcDbLine
 10
636.9396434693099
 20
358.2899999999993
 30
0.0
 11
648.9396434693099
 21
358.2899999999993
 31
0.0
  0
LINE
  5
BA
330
1F
100
AcDbEntity
  8
0
 62
    48
100
AcDbLine
 10
656.7796434693098
 20
463.1399999999992
 30
0.0
 11
656.7796434693098
 21
475.1399999999993
 31
0.0
  0
LINE
  5
BB
330
1F
100
AcDbEntity
  8
0
 62
    48
100
AcDbLine
 10
668.7796434693098
 20
475.1399999999992
 30
0.0
 11
656.7796434693098
 21
475.1399999999993
 31
0.0
  0
LINE
  5
BC
330
1F
100
AcDbEntity
  8
0
 62
    48
100
AcDbLine
 10
668.7796434693098
 20
463.1399999999992
 30
0.0
 11
668.7796434693098
 21
475.1399999999992
 31
0.0
  0
LINE
  5
BD
330
1F
100
AcDbEntity
  8
0
 62
    48
100
AcDbLine
 10
668.7796434693098
 20
463.1399999999992
 30
0.0
 11
656.7796434693098
 21
463.1399999999992
 31
0.0
  0
LINE
  5
BE
330
1F
100
AcDbEntity
  8
0
 62
    48
100
AcDbLine
 10
636.93964346931
 20
467.1399999999993
 30
0.0
 11
636.9396434693101
 21
447.1399999999992
 31
0.0
  0
LINE
  5
BF
330
1F
100
AcDbEntity
  8
0
 62
    48
100
AcDbLine
 10
648.9396434693098
 20
467.1399999999993
 30
0.0
 11
636.9396434693098
 21
467.1399999999993
 31
0.0
  0
LINE
  5
C0
330
1F
100
AcDbEntity
  8
0
 62
    48
100
AcDbLine
 10
648.9396434693098
 20
467.1399999999993
 30
0.0
 11
648.9396434693099
 21
447.1399999999992
 31
0.0
  0
LINE
  5
C1
330
1F
100
AcDbEntity
  8
0
 62
    48
100
AcDbLine
 10
636.9396434693099
 20
447.1399999999992
 30
0.0
 11
648.9396434693099
 21
447.1399999999992
 31
0.0
  0
LINE
  5
C2
330
1F
100
AcDbEntity
  8
0
 62
    48
100
AcDbLine
 10
636.9396434693095
 20
292.3899999999992
 30
0.0
 11
648.9396434693095
 21
292.3899999999992
 31
0.0
  0
LINE
  5
C3
330
1F
100
AcDbEntity
  8
0
 62
    48
100
AcDbLine
 10
648.9396434693095
 20
292.3899999999992
 30
0.0
 11
648.9396434693095
 21
236.1399999999989
 31
0.0
  0
LINE
  5
C4
330
1F
100
AcDbEntity
  8
0
 62
    48
100
AcDbLine
 10
648.9396434693098
 20
236.1399999999989
 30
0.0
 11
636.9396434693098
 21
236.139999999999
 31
0.0
  0
LINE
  5
C5
330
1F
100
AcDbEntity
  8
0
 62
    48
100
AcDbLine
 10
636.9396434693098
 20
236.1399999999989
 30
0.0
 11
636.9396434693099
 21
292.3899999999992
 31
0.0
  0
LINE
  5
C6
330
1F
100
AcDbEntity
  8
0
 62
    48
100
AcDbLine
 10
768.6196434693097
 20
243.2399999999992
 30
0.0
 11
756.6196434693096
 21
243.2399999999992
 31
0.0
  0
LINE
  5
C7
330
1F
100
AcDbEntity
  8
0
 62
    48
100
AcDbLine
 10
756.6196434693096
 20
292.3899999999991
 30
0.0
 11
756.6196434693095
 21
243.2399999999992
 31
0.0
  0
LINE
  5
C8
330
1F
100
AcDbEntity
  8
0
 62
    48
100
AcDbLine
 10
768.6196434693097
 20
292.3899999999991
 30
0.0
 11
756.6196434693096
 21
292.3899999999991
 31
0.0
  0
LINE
  5
C9
330
1F
100
AcDbEntity
  8
0
 62
    48
100
AcDbLine
 10
768.6196434693097
 20
243.2399999999992
 30
0.0
 11
768.6196434693097
 21
292.3899999999991
 31
0.0
  0
LINE
  5
CA
330
1F
100
AcDbEntity
  8
0
 62
    48
100
AcDbLine
 10
920.8294435011483
 20
206.6599999999985
 30
0.0
 11
920.8294435011481
 21
158.6599999999986
 31
0.0
  0
CIRCLE
  5
CB
330
1F
100
AcDbEntity
  8
0
 62
    48
100
AcDbCircle
 10
894.0496434693094
 20
182.6599999999987
 30
0.0000000000000014
 40
6.0
  0
ARC
  5
CC
330
1F
100
AcDbEntity
  8
0
 62
    48
100
AcDbCircle
 10
990.1246434693091
 20
169.0099999999985
 30
0.0000000000000056
 40
2.0
100
AcDbArc
 50
89.99999999998595
 51
179.9999999999984
  0
ARC
  5
CD
330
1F
100
AcDbEntity
  8
0
 62
    48
100
AcDbCircle
 10
990.1246434693091
 20
160.3099999999985
 30
-0.0000000000000049
 40
2.0
100
AcDbArc
 50
180.0000000000037
 51
269.9999999999991
  0
ARC
  5
CE
330
1F
100
AcDbEntity
  8
0
 62
    48
100
AcDbCircle
 10
1019.124643469309
 20
192.6599999999986
 30
-0.000000000000004
 40
2.0
100
AcDbArc
 50
359.9999999999901
 51
89.99999999999994
  0
ARC
  5
CF
330
1F
100
AcDbEntity
  8
0
 62
    48
100
AcDbCircle
 10
1019.124643469309
 20
248.6599999999985
 30
0.000000000000002
 40
2.0
100
AcDbArc
 50
269.9999999999676
 51
359.9999999999999
  0
ARC
  5
D0
330
1F
100
AcDbEntity
  8
0
 62
    48
100
AcDbCircle
 10
990.1246434693091
 20
231.0099999999986
 30
-0.0000000000000046
 40
2.0
100
AcDbArc
 50
89.99999999998677
 51
179.9999999999999
  0
ARC
  5
D1
330
1F
100
AcDbEntity
  8
0
 62
    48
100
AcDbCircle
 10
990.1246434693091
 20
222.3099999999987
 30
-0.0000000000000013
 40
2.0
100
AcDbArc
 50
180.0000000000052
 51
269.9999999999999
  0
CIRCLE
  5
D2
330
1F
100
AcDbEntity
  8
0
 62
    48
100
AcDbCircle
 10
-932.8294435011487
 20
366.809999999999
 30
-0.0000000000017183
 40
20.0
210
-1.690553667287987E-15
220
-3.885780586188032E-16
230
-1.0
  0
CIRCLE
  5
D3
330
1F
100
AcDbEntity
  8
0
 62
    48
100
AcDbCircle
 10
-932.8294435011485
 20
271.2099999999969
 30
-0.0000000000016767
 40
41.95999999999992
210
-1.690553667287987E-15
220
-3.885780586188032E-16
230
-1.0
  0
CIRCLE
  5
D4
330
1F
100
AcDbEntity
  8
0
 62
    48
100
AcDbCircle
 10
-971.624643469309
 20
413.8099999999989
 30
-0.0000000000017973
 40
4.25
210
-1.690553667287987E-15
220
-3.885780586188032E-16
230
-1.0
  0
CIRCLE
  5
D5
330
1F
100
AcDbEntity
  8
0
 62
    48
100
AcDbCircle
 10
-914.8283950963577
 20
479.6599999999987
 30
-0.0000000000017297
 40
4.25
210
-1.690553667287987E-15
220
-3.885780586188032E-16
230
-1.0
  0
ARC
  5
D6
330
1F
100
AcDbEntity
  8
0
 62
    48
100
AcDbCircle
 10
890.9746434693099
 20
485.659999999999
 30
-0.0000000000000052
 40
20.0
100
AcDbArc
 50
89.99999999999939
 51
179.9999999999999
  0
ARC
  5
D7
330
1F
100
AcDbEntity
  8
0
 62
    48
100
AcDbCircle
 10
1019.12464346931
 20
475.659999999999
 30
-0.0000000000000029
 40
2.0
100
AcDbArc
 50
359.9999999999949
 51
89.99999999999994
  0
ARC
  5
D8
330
1F
100
AcDbEntity
  8
0
 62
    48
100
AcDbCircle
 10
1019.124643469309
 20
459.659999999999
 30
0.0000000000000033
 40
2.0
100
AcDbArc
 50
269.999999999972
 51
359.9999999999999
  0
ARC
  5
D9
330
1F
100
AcDbEntity
  8
0
 62
    48
100
AcDbCircle
 10
1019.124643469309
 20
366.8099999999989
 30
-0.0000000000000023
 40
2.0
100
AcDbArc
 50
359.9999999999957
 51
89.9999999999999
  0
ARC
  5
DA
330
1F
100
AcDbEntity
  8
0
 62
    48
100
AcDbCircle
 10
1019.124643469309
 20
339.8099999999989
 30
-0.0000000000000056
 40
2.0
100
AcDbArc
 50
269.9999999999717
 51
359.9999999999999
  0
ARC
  5
DB
330
1F
100
AcDbEntity
  8
0
 62
    48
100
AcDbCircle
 10
1019.124643469309
 20
300.9099999999988
 30
-0.0000000000000044
 40
2.0
100
AcDbArc
 50
359.9999999999957
 51
89.9999999999999
  0
ARC
  5
DC
330
1F
100
AcDbEntity
  8
0
 62
    48
100
AcDbCircle
 10
1019.124643469309
 20
184.6599999999993
 30
-0.0000000000000009
 40
2.0
100
AcDbArc
 50
269.9999999999686
 51
359.9999999999999
  0
ARC
  5
DD
330
1F
100
AcDbEntity
  8
0
 62
    48
100
AcDbCircle
 10
990.1246434693094
 20
328.2599999999989
 30
-0.0000000000000008
 40
2.0
100
AcDbArc
 50
89.9999999999999
 51
179.9999999999992
  0
ARC
  5
DE
330
1F
100
AcDbEntity
  8
0
 62
    48
100
AcDbCircle
 10
990.1246434693093
 20
319.559999999999
 30
0.0000000000000026
 40
2.0
100
AcDbArc
 50
179.9999999999999
 51
270.000000000016
  0
ARC
  5
DF
330
1F
100
AcDbEntity
  8
0
 62
    48
100
AcDbCircle
 10
990.1246434693095
 20
440.559999999999
 30
-0.0000000000000028
 40
2.0
100
AcDbArc
 50
179.9999999999999
 51
270.000000000016
  0
ARC
  5
E0
330
1F
100
AcDbEntity
  8
0
 62
    48
100
AcDbCircle
 10
990.1246434693095
 20
449.2599999999989
 30
-0.0000000000000062
 40
2.0
100
AcDbArc
 50
89.9999999999999
 51
179.9999999999992
  0
CIRCLE
  5
E1
330
1F
100
AcDbEntity
  8
0
 62
    48
100
AcDbCircle
 10
-900.8237085252348
 20
200.6599999999985
 30
-0.0000000000015952
 40
4.25
210
-1.690553667287987E-15
220
-3.885780586188032E-16
230
-1.0
  0
CIRCLE
  5
E2
330
1F
100
AcDbEntity
  8
0
 62
    48
100
AcDbCircle
 10
-900.8237085252348
 20
164.6599999999987
 30
-0.0000000000015813
 40
4.25
210
-1.690553667287987E-15
220
-3.885780586188032E-16
230
-1.0
  0
ARC
  5
E3
330
1F
100
AcDbEntity
  8
0
 62
    48
100
AcDbCircle
 10
1006.124643469309
 20
149.0799999999989
 30
-0.0000000000000008
 40
2.999999999999999
100
AcDbArc
 50
270.0000000000157
 51
359.9999999999999
  0
ARC
  5
E4
330
1F
100
AcDbEntity
  8
0
 62
    48
100
AcDbCircle
 10
876.9746434693095
 20
152.0799999999991
 30
-0.0000000000000004
 40
6.000000000000001
100
AcDbArc
 50
180.0000000000039
 51
269.9999999999999
  0
LINE
  5
E5
330
1F
100
AcDbEntity
  8
0
 62
    48
100
AcDbLine
 10
876.9746434693095
 20
146.079999999999
 30
0.0
 11
1006.124643469309
 21
146.0799999999988
 31
0.0
  0
LINE
  5
E6
330
1F
100
AcDbEntity
  8
0
 62
    48
100
AcDbLine
 10
1009.124643469309
 20
149.0799999999989
 30
0.0
 11
1009.124643469309
 21
160.6599999999986
 31
0.0
  0
LINE
  5
E7
330
1F
100
AcDbEntity
  8
0
 62
    48
100
AcDbLine
 10
1009.124643469309
 20
160.6599999999985
 30
0.0
 11
997.1246434693093
 21
160.6599999999985
 31
0.0
  0
LINE
  5
E8
330
1F
100
AcDbEntity
  8
0
 62
    48
100
AcDbLine
 10
997.1246434693093
 20
160.6599999999985
 30
0.0
 11
997.1246434693093
 21
158.3099999999985
 31
0.0
  0
ARC
  5
E9
330
1F
100
AcDbEntity
  8
0
 62
    48
100
AcDbCircle
 10
995.5246434693092
 20
158.3099999999984
 30
-0.0000000000000042
 40
1.599999999999942
100
AcDbArc
 50
179.999999999998
 51
0.0000000000019338
  0
LINE
  5
EA
330
1F
100
AcDbEntity
  8
0
 62
    48
100
AcDbLine
 10
993.9246434693093
 20
158.3099999999985
 30
0.0
 11
990.1246434693091
 21
158.3099999999985
 31
0.0
  0
LINE
  5
EB
330
1F
100
AcDbEntity
  8
0
 62
    48
100
AcDbLine
 10
988.1246434693089
 20
160.3099999999986
 30
0.0
 11
988.1246434693089
 21
169.0099999999986
 31
0.0
  0
LINE
  5
EC
330
1F
100
AcDbEntity
  8
0
 62
    48
100
AcDbLine
 10
990.1246434693091
 20
171.0099999999985
 30
0.0
 11
993.9246434693093
 21
171.0099999999985
 31
0.0
  0
ARC
  5
ED
330
1F
100
AcDbEntity
  8
0
 62
    48
100
AcDbCircle
 10
995.5246434693092
 20
171.0099999999986
 30
0.0000000000000047
 40
1.59999999999995
100
AcDbArc
 50
0.0000000000019338
 51
180.0000000000019
  0
LINE
  5
EE
330
1F
100
AcDbEntity
  8
0
 62
    48
100
AcDbLine
 10
997.1246434693093
 20
171.0099999999987
 30
0.0
 11
997.1246434693093
 21
168.6599999999986
 31
0.0
  0
LINE
  5
EF
330
1F
100
AcDbEntity
  8
0
 62
    48
100
AcDbLine
 10
997.1246434693093
 20
168.6599999999985
 30
0.0
 11
1009.124643469309
 21
168.6599999999985
 31
0.0
  0
LINE
  5
F0
330
1F
100
AcDbEntity
  8
0
 62
    48
100
AcDbLine
 10
1009.124643469309
 20
168.6599999999985
 30
0.0
 11
1009.124643469309
 21
182.6599999999993
 31
0.0
  0
LINE
  5
F1
330
1F
100
AcDbEntity
  8
0
 62
    48
100
AcDbLine
 10
1009.124643469309
 20
182.6599999999993
 30
0.0
 11
1019.124643469309
 21
182.6599999999994
 31
0.0
  0
LINE
  5
F2
330
1F
100
AcDbEntity
  8
0
 62
    48
100
AcDbLine
 10
1021.124643469309
 20
184.6599999999993
 30
0.0
 11
1021.124643469309
 21
192.6599999999986
 31
0.0
  0
LINE
  5
F3
330
1F
100
AcDbEntity
  8
0
 62
    48
100
AcDbLine
 10
1019.124643469309
 20
194.6599999999986
 30
0.0
 11
969.1246434693109
 21
194.6599999999986
 31
0.0
  0
LINE
  5
F4
330
1F
100
AcDbEntity
  8
0
 62
    48
100
AcDbLine
 10
969.1246434693109
 20
206.6599999999987
 30
0.0
 11
969.1246434693109
 21
194.6599999999987
 31
0.0
  0
LINE
  5
F5
330
1F
100
AcDbEntity
  8
0
 62
    48
100
AcDbLine
 10
969.1246434693109
 20
206.6599999999987
 30
0.0
 11
1009.12464346931
 21
206.6599999999986
 31
0.0
  0
LINE
  5
F6
330
1F
100
AcDbEntity
  8
0
 62
    48
100
AcDbLine
 10
1009.124643469309
 20
206.6599999999987
 30
0.0
 11
1009.124643469309
 21
222.6599999999986
 31
0.0
  0
LINE
  5
F7
330
1F
100
AcDbEntity
  8
0
 62
    48
100
AcDbLine
 10
1009.124643469309
 20
222.6599999999986
 30
0.0
 11
997.1246434693093
 21
222.6599999999987
 31
0.0
  0
LINE
  5
F8
330
1F
100
AcDbEntity
  8
0
 62
    48
100
AcDbLine
 10
997.1246434693093
 20
222.6599999999986
 30
0.0
 11
997.1246434693093
 21
220.3099999999987
 31
0.0
  0
ARC
  5
F9
330
1F
100
AcDbEntity
  8
0
 62
    48
100
AcDbCircle
 10
995.5246434693092
 20
220.3099999999987
 30
-0.0000000000000006
 40
1.599999999999962
100
AcDbArc
 50
179.9999999999999
 51
359.9999999999999
  0
LINE
  5
FA
330
1F
100
AcDbEntity
  8
0
 62
    48
100
AcDbLine
 10
993.9246434693092
 20
220.3099999999987
 30
0.0
 11
990.1246434693091
 21
220.3099999999987
 31
0.0
  0
LINE
  5
FB
330
1F
100
AcDbEntity
  8
0
 62
    48
100
AcDbLine
 10
988.1246434693089
 20
222.3099999999987
 30
0.0
 11
988.1246434693089
 21
231.0099999999986
 31
0.0
  0
LINE
  5
FC
330
1F
100
AcDbEntity
  8
0
 62
    48
100
AcDbLine
 10
990.1246434693093
 20
233.0099999999986
 30
0.0
 11
993.9246434693093
 21
233.0099999999986
 31
0.0
  0
ARC
  5
FD
330
1F
100
AcDbEntity
  8
0
 62
    48
100
AcDbCircle
 10
995.5246434693094
 20
233.0099999999986
 30
-0.0000000000000055
 40
1.599999999999997
100
AcDbArc
 50
359.9999999999999
 51
179.9999999999999
  0
LINE
  5
FE
330
1F
100
AcDbEntity
  8
0
 62
    48
100
AcDbLine
 10
997.1246434693094
 20
233.0099999999986
 30
0.0
 11
997.1246434693094
 21
230.6599999999986
 31
0.0
  0
LINE
  5
FF
330
1F
100
AcDbEntity
  8
0
 62
    48
100
AcDbLine
 10
997.1246434693093
 20
230.6599999999986
 30
0.0
 11
1009.124643469309
 21
230.6599999999986
 31
0.0
  0
LINE
  5
100
330
1F
100
AcDbEntity
  8
0
 62
    48
100
AcDbLine
 10
1009.124643469309
 20
230.6599999999986
 30
0.0
 11
1009.124643469309
 21
246.6599999999985
 31
0.0
  0
LINE
  5
101
330
1F
100
AcDbEntity
  8
0
 62
    48
100
AcDbLine
 10
1009.124643469309
 20
246.6599999999985
 30
0.0
 11
1019.124643469309
 21
246.6599999999985
 31
0.0
  0
LINE
  5
102
330
1F
100
AcDbEntity
  8
0
 62
    48
100
AcDbLine
 10
1021.124643469309
 20
248.6599999999985
 30
0.0
 11
1021.124643469309
 21
300.9099999999988
 31
0.0
  0
LINE
  5
103
330
1F
100
AcDbEntity
  8
0
 62
    48
100
AcDbLine
 10
1019.124643469309
 20
302.9099999999988
 30
0.0
 11
1009.124643469309
 21
302.9099999999988
 31
0.0
  0
LINE
  5
104
330
1F
100
AcDbEntity
  8
0
 62
    48
100
AcDbLine
 10
1009.124643469309
 20
302.9099999999988
 30
0.0
 11
1009.12464346931
 21
319.9099999999989
 31
0.0
  0
LINE
  5
105
330
1F
100
AcDbEntity
  8
0
 62
    48
100
AcDbLine
 10
1009.12464346931
 20
319.9099999999989
 30
0.0
 11
997.1246434693095
 21
319.9099999999988
 31
0.0
  0
LINE
  5
106
330
1F
100
AcDbEntity
  8
0
 62
    48
100
AcDbLine
 10
997.1246434693094
 20
319.9099999999989
 30
0.0
 11
997.1246434693094
 21
317.559999999999
 31
0.0
  0
ARC
  5
107
330
1F
100
AcDbEntity
  8
0
 62
    48
100
AcDbCircle
 10
995.5246434693094
 20
317.559999999999
 30
0.0000000000000033
 40
1.599999999999892
100
AcDbArc
 50
180.0000000000039
 51
359.9999999999999
  0
LINE
  5
108
330
1F
100
AcDbEntity
  8
0
 62
    48
100
AcDbLine
 10
993.9246434693096
 20
317.5599999999989
 30
0.0
 11
990.1246434693093
 21
317.559999999999
 31
0.0
  0
LINE
  5
109
330
1F
100
AcDbEntity
  8
0
 62
    48
100
AcDbLine
 10
988.124643469309
 20
319.559999999999
 30
0.0
 11
988.124643469309
 21
328.2599999999989
 31
0.0
  0
LINE
  5
10A
330
1F
100
AcDbEntity
  8
0
 62
    48
100
AcDbLine
 10
990.1246434693094
 20
330.2599999999989
 30
0.0
 11
993.9246434693094
 21
330.2599999999989
 31
0.0
  0
ARC
  5
10B
330
1F
100
AcDbEntity
  8
0
 62
    48
100
AcDbCircle
 10
995.5246434693095
 20
330.2599999999987
 30
-0.0000000000000016
 40
1.59999999999996
100
AcDbArc
 50
359.9999999999999
 51
179.999999999996
  0
LINE
  5
10C
330
1F
100
AcDbEntity
  8
0
 62
    48
100
AcDbLine
 10
997.1246434693095
 20
330.2599999999987
 30
0.0
 11
997.1246434693095
 21
327.9099999999989
 31
0.0
  0
LINE
  5
10D
330
1F
100
AcDbEntity
  8
0
 62
    48
100
AcDbLine
 10
997.1246434693095
 20
327.9099999999989
 30
0.0
 11
1009.124643469309
 21
327.9099999999989
 31
0.0
  0
LINE
  5
10E
330
1F
100
AcDbEntity
  8
0
 62
    48
100
AcDbLine
 10
1009.124643469309
 20
327.9099999999989
 30
0.0
 11
1009.124643469309
 21
337.8099999999989
 31
0.0
  0
LINE
  5
10F
330
1F
100
AcDbEntity
  8
0
 62
    48
100
AcDbLine
 10
1009.124643469309
 20
337.8099999999989
 30
0.0
 11
1019.124643469309
 21
337.8099999999989
 31
0.0
  0
LINE
  5
110
330
1F
100
AcDbEntity
  8
0
 62
    48
100
AcDbLine
 10
1021.124643469309
 20
339.8099999999989
 30
0.0
 11
1021.124643469309
 21
366.8099999999989
 31
0.0
  0
LINE
  5
111
330
1F
100
AcDbEntity
  8
0
 62
    48
100
AcDbLine
 10
1019.124643469309
 20
368.8099999999989
 30
0.0
 11
1009.124643469309
 21
368.8099999999989
 31
0.0
  0
LINE
  5
112
330
1F
100
AcDbEntity
  8
0
 62
    48
100
AcDbLine
 10
1009.124643469309
 20
368.8099999999989
 30
0.0
 11
1009.124643469309
 21
440.9099999999988
 31
0.0
  0
LINE
  5
113
330
1F
100
AcDbEntity
  8
0
 62
    48
100
AcDbLine
 10
1009.124643469309
 20
440.9099999999988
 30
0.0
 11
997.1246434693095
 21
440.9099999999987
 31
0.0
  0
LINE
  5
114
330
1F
100
AcDbEntity
  8
0
 62
    48
100
AcDbLine
 10
997.1246434693096
 20
440.9099999999988
 30
0.0
 11
997.1246434693096
 21
438.5599999999989
 31
0.0
  0
ARC
  5
115
330
1F
100
AcDbEntity
  8
0
 62
    48
100
AcDbCircle
 10
995.5246434693096
 20
438.5599999999989
 30
-0.0000000000000021
 40
1.599999999999945
100
AcDbArc
 50
179.9999999999999
 51
359.9999999999999
  0
LINE
  5
116
330
1F
100
AcDbEntity
  8
0
 62
    48
100
AcDbLine
 10
993.9246434693096
 20
438.5599999999989
 30
0.0
 11
990.1246434693095
 21
438.5599999999989
 31
0.0
  0
LINE
  5
117
330
1F
100
AcDbEntity
  8
0
 62
    48
100
AcDbLine
 10
988.1246434693093
 20
440.559999999999
 30
0.0
 11
988.1246434693093
 21
449.2599999999989
 31
0.0
  0
LINE
  5
118
330
1F
100
AcDbEntity
  8
0
 62
    48
100
AcDbLine
 10
990.1246434693095
 20
451.2599999999989
 30
0.0
 11
993.9246434693096
 21
451.2599999999989
 31
0.0
  0
ARC
  5
119
330
1F
100
AcDbEntity
  8
0
 62
    48
100
AcDbCircle
 10
995.5246434693096
 20
451.2599999999989
 30
0.0000000000000069
 40
1.599999999999944
100
AcDbArc
 50
359.9999999999999
 51
179.9999999999999
  0
LINE
  5
11A
330
1F
100
AcDbEntity
  8
0
 62
    48
100
AcDbLine
 10
997.1246434693096
 20
451.2599999999989
 30
0.0
 11
997.1246434693096
 21
448.9099999999988
 31
0.0
  0
LINE
  5
11B
330
1F
100
AcDbEntity
  8
0
 62
    48
100
AcDbLine
 10
997.1246434693096
 20
448.9099999999988
 30
0.0
 11
1009.12464346931
 21
448.9099999999988
 31
0.0
  0
LINE
  5
11C
330
1F
100
AcDbEntity
  8
0
 62
    48
100
AcDbLine
 10
1009.124643469309
 20
448.9099999999988
 30
0.0
 11
1009.124643469309
 21
457.659999999999
 31
0.0
  0
LINE
  5
11D
330
1F
100
AcDbEntity
  8
0
 62
    48
100
AcDbLine
 10
1009.124643469309
 20
457.659999999999
 30
0.0
 11
1019.124643469309
 21
457.659999999999
 31
0.0
  0
LINE
  5
11E
330
1F
100
AcDbEntity
  8
0
 62
    48
100
AcDbLine
 10
1021.124643469309
 20
459.659999999999
 30
0.0
 11
1021.124643469309
 21
475.659999999999
 31
0.0
  0
LINE
  5
11F
330
1F
100
AcDbEntity
  8
0
 62
    48
100
AcDbLine
 10
1019.12464346931
 20
477.6599999999989
 30
0.0
 11
1009.12464346931
 21
477.6599999999989
 31
0.0
  0
LINE
  5
120
330
1F
100
AcDbEntity
  8
0
 62
    48
100
AcDbLine
 10
1009.12464346931
 20
505.6599999999988
 30
0.0
 11
1009.12464346931
 21
477.6599999999989
 31
0.0
  0
LINE
  5
121
330
1F
100
AcDbEntity
  8
0
 62
    48
100
AcDbLine
 10
1009.12464346931
 20
505.6599999999989
 30
0.0
 11
890.97464346931
 21
505.659999999999
 31
0.0
  0
LINE
  5
122
330
1F
100
AcDbEntity
  8
0
 62
    48
100
AcDbLine
 10
870.9746434693096
 20
485.659999999999
 30
0.0
 11
870.9746434693092
 21
152.0799999999991
 31
0.0
  0
LINE
  5
123
330
1F
100
AcDbEntity
  8
0
 62
    48
100
AcDbLine
 10
954.1246434693096
 20
407.8099999999989
 30
0.0
 11
918.1246434693098
 21
407.809999999999
 31
0.0
  0
LINE
  5
124
330
1F
100
AcDbEntity
  8
0
 62
    48
100
AcDbLine
 10
918.1246434693098
 20
419.809999999999
 30
0.0
 11
918.1246434693098
 21
407.809999999999
 31
0.0
  0
LINE
  5
125
330
1F
100
AcDbEntity
  8
0
 62
    48
100
AcDbLine
 10
954.1246434693097
 20
419.8099999999989
 30
0.0
 11
918.1246434693098
 21
419.809999999999
 31
0.0
  0
LINE
  5
126
330
1F
100
AcDbEntity
  8
0
 62
    48
100
AcDbLine
 10
954.1246434693096
 20
407.8099999999989
 30
0.0
 11
954.1246434693096
 21
419.8099999999989
 31
0.0
  0
LINE
  5
127
330
1F
100
AcDbEntity
  8
0
 62
    48
100
AcDbLine
 10
928.8246434693094
 20
485.6599999999987
 30
0.0
 11
928.8246434693094
 21
473.6599999999987
 31
0.0
  0
LINE
  5
128
330
1F
100
AcDbEntity
  8
0
 62
    48
100
AcDbLine
 10
948.8246434693094
 20
485.6599999999987
 30
0.0
 11
928.8246434693094
 21
485.6599999999987
 31
0.0
  0
LINE
  5
129
330
1F
100
AcDbEntity
  8
0
 62
    48
100
AcDbLine
 10
948.8246434693094
 20
473.6599999999987
 30
0.0
 11
948.8246434693094
 21
485.6599999999987
 31
0.0
  0
LINE
  5
12A
330
1F
100
AcDbEntity
  8
0
 62
    48
100
AcDbLine
 10
948.8246434693094
 20
473.6599999999987
 30
0.0
 11
928.8246434693094
 21
473.6599999999987
 31
0.0
  0
LINE
  5
12B
330
1F
100
AcDbEntity
  8
0
 62
    48
100
AcDbLine
 10
940.8294435011483
 20
206.6599999999985
 30
0.0
 11
920.8294435011483
 21
206.6599999999986
 31
0.0
  0
LINE
  5
12C
330
1F
100
AcDbEntity
  8
0
 62
    48
100
AcDbLine
 10
940.8294435011483
 20
158.6599999999986
 30
0.0
 11
940.8294435011484
 21
206.6599999999985
 31
0.0
  0
LINE
  5
12D
330
1F
100
AcDbEntity
  8
0
 62
    48
100
AcDbLine
 10
940.8294435011481
 20
158.6599999999986
 30
0.0
 11
920.8294435011483
 21
158.6599999999986
 31
0.0
  0
LINE
  5
12E
330
1F
100
AcDbEntity
  8
0
 62
    48
100
AcDbLine
 10
1118.519443501148
 20
206.659999999998
 30
0.0
 11
1118.519443501148
 21
158.659999999998
 31
0.0
  0
CIRCLE
  5
12F
330
1F
100
AcDbEntity
  8
0
 62
    48
100
AcDbCircle
 10
1091.739643469309
 20
182.6599999999981
 30
-0.000000000000001
 40
6.0
  0
ARC
  5
130
330
1F
100
AcDbEntity
  8
0
 62
    48
100
AcDbCircle
 10
1187.814643469309
 20
169.0099999999979
 30
0.0000000000000032
 40
2.0
100
AcDbArc
 50
90.0000000000056
 51
179.9999999999984
  0
ARC
  5
131
330
1F
100
AcDbEntity
  8
0
 62
    48
100
AcDbCircle
 10
1187.814643469309
 20
160.3099999999979
 30
0.0000000000000066
 40
2.0
100
AcDbArc
 50
179.99999999996
 51
269.9999999999991
  0
ARC
  5
132
330
1F
100
AcDbEntity
  8
0
 62
    48
100
AcDbCircle
 10
1216.814643469309
 20
192.659999999998
 30
-0.0000000000000064
 40
2.0
100
AcDbArc
 50
359.9999999999901
 51
89.99999999999994
  0
ARC
  5
133
330
1F
100
AcDbEntity
  8
0
 62
    48
100
AcDbCircle
 10
1216.814643469309
 20
248.6599999999979
 30
-0.0000000000000004
 40
2.0
100
AcDbArc
 50
269.9999999999676
 51
359.9999999999999
  0
ARC
  5
134
330
1F
100
AcDbEntity
  8
0
 62
    48
100
AcDbCircle
 10
1187.814643469309
 20
231.009999999998
 30
0.0000000000000068
 40
2.0
100
AcDbArc
 50
90.00000000000641
 51
179.9999999999999
  0
ARC
  5
135
330
1F
100
AcDbEntity
  8
0
 62
    48
100
AcDbCircle
 10
1187.814643469309
 20
222.3099999999981
 30
-0.0000000000000037
 40
2.0
100
AcDbArc
 50
179.9999999999615
 51
269.9999999999999
  0
CIRCLE
  5
136
330
1F
100
AcDbEntity
  8
0
 62
    48
100
AcDbCircle
 10
-1130.519443501149
 20
366.8099999999985
 30
-0.0000000000020501
 40
20.0
210
-1.690553667287987E-15
220
-3.885780586188032E-16
230
-1.0
  0
CIRCLE
  5
137
330
1F
100
AcDbEntity
  8
0
 62
    48
100
AcDbCircle
 10
-1130.519443501148
 20
271.2099999999963
 30
-0.0000000000020224
 40
41.95999999999992
210
-1.690553667287987E-15
220
-3.885780586188032E-16
230
-1.0
  0
CIRCLE
  5
138
330
1F
100
AcDbEntity
  8
0
 62
    48
100
AcDbCircle
 10
-1169.314643469309
 20
413.8099999999984
 30
-0.000000000002143
 40
4.25
210
-1.690553667287987E-15
220
-3.885780586188032E-16
230
-1.0
  0
CIRCLE
  5
139
330
1F
100
AcDbEntity
  8
0
 62
    48
100
AcDbCircle
 10
-1112.518395096358
 20
479.6599999999981
 30
-0.0000000000020616
 40
4.25
210
-1.690553667287987E-15
220
-3.885780586188032E-16
230
-1.0
  0
ARC
  5
13A
330
1F
100
AcDbEntity
  8
0
 62
    48
100
AcDbCircle
 10
1088.66464346931
 20
485.6599999999984
 30
0.0000000000000062
 40
20.0
100
AcDbArc
 50
89.99999999999746
 51
179.9999999999999
  0
ARC
  5
13B
330
1F
100
AcDbEntity
  8
0
 62
    48
100
AcDbCircle
 10
1216.81464346931
 20
475.6599999999985
 30
-0.0000000000000053
 40
2.0
100
AcDbArc
 50
359.9999999999949
 51
89.99999999999994
  0
ARC
  5
13C
330
1F
100
AcDbEntity
  8
0
 62
    48
100
AcDbCircle
 10
1216.814643469309
 20
459.6599999999984
 30
0.0000000000000009
 40
2.0
100
AcDbArc
 50
269.999999999972
 51
359.9999999999999
  0
ARC
  5
13D
330
1F
100
AcDbEntity
  8
0
 62
    48
100
AcDbCircle
 10
1216.814643469309
 20
366.8099999999984
 30
-0.0000000000000047
 40
2.0
100
AcDbArc
 50
359.9999999999957
 51
89.9999999999999
  0
ARC
  5
13E
330
1F
100
AcDbEntity
  8
0
 62
    48
100
AcDbCircle
 10
1216.814643469309
 20
339.8099999999984
 30
0.0000000000000058
 40
2.0
100
AcDbArc
 50
269.9999999999717
 51
359.9999999999999
  0
ARC
  5
13F
330
1F
100
AcDbEntity
  8
0
 62
    48
100
AcDbCircle
 10
1216.814643469309
 20
300.9099999999983
 30
-0.0000000000000068
 40
2.0
100
AcDbArc
 50
359.9999999999957
 51
89.9999999999999
  0
ARC
  5
140
330
1F
100
AcDbEntity
  8
0
 62
    48
100
AcDbCircle
 10
1216.814643469309
 20
184.6599999999987
 30
-0.0000000000000033
 40
2.0
100
AcDbArc
 50
269.9999999999686
 51
359.9999999999999
  0
ARC
  5
141
330
1F
100
AcDbEntity
  8
0
 62
    48
100
AcDbCircle
 10
1187.814643469309
 20
328.2599999999983
 30
-0.0000000000000032
 40
2.0
100
AcDbArc
 50
89.9999999999999
 51
180.0000000000441
  0
ARC
  5
142
330
1F
100
AcDbEntity
  8
0
 62
    48
100
AcDbCircle
 10
1187.814643469309
 20
319.5599999999984
 30
0.0000000000000002
 40
2.0
100
AcDbArc
 50
179.9999999999999
 51
269.9999999999964
  0
ARC
  5
143
330
1F
100
AcDbEntity
  8
0
 62
    48
100
AcDbCircle
 10
1187.814643469309
 20
440.5599999999984
 30
-0.0000000000000052
 40
2.0
100
AcDbArc
 50
179.9999999999999
 51
269.9999999999964
  0
ARC
  5
144
330
1F
100
AcDbEntity
  8
0
 62
    48
100
AcDbCircle
 10
1187.814643469309
 20
449.2599999999983
 30
0.0000000000000053
 40
2.0
100
AcDbArc
 50
89.9999999999999
 51
180.0000000000441
  0
CIRCLE
  5
145
330
1F
100
AcDbEntity
  8
0
 62
    48
100
AcDbCircle
 10
-1098.513708525235
 20
200.6599999999978
 30
-0.0000000000019409
 40
4.25
210
-1.690553667287987E-15
220
-3.885780586188032E-16
230
-1.0
  0
CIRCLE
  5
146
330
1F
100
AcDbEntity
  8
0
 62
    48
100
AcDbCircle
 10
-1098.513708525235
 20
164.659999999998
 30
-0.000000000001927
 40
4.25
210
-1.690553667287987E-15
220
-3.885780586188032E-16
230
-1.0
  0
ARC
  5
147
330
1F
100
AcDbEntity
  8
0
 62
    48
100
AcDbCircle
 10
1203.814643469309
 20
149.0799999999983
 30
-0.0000000000000032
 40
2.999999999999999
100
AcDbArc
 50
270.0000000000157
 51
359.9999999999999
  0
ARC
  5
148
330
1F
100
AcDbEntity
  8
0
 62
    48
100
AcDbCircle
 10
1074.66464346931
 20
152.0799999999985
 30
-0.0000000000000028
 40
6.000000000000001
100
AcDbArc
 50
179.9999999999896
 51
269.9999999999999
  0
LINE
  5
149
330
1F
100
AcDbEntity
  8
0
 62
    48
100
AcDbLine
 10
1074.66464346931
 20
146.0799999999984
 30
0.0
 11
1203.814643469309
 21
146.0799999999983
 31
0.0
  0
LINE
  5
14A
330
1F
100
AcDbEntity
  8
0
 62
    48
100
AcDbLine
 10
1206.814643469309
 20
149.0799999999983
 30
0.0
 11
1206.814643469309
 21
160.659999999998
 31
0.0
  0
LINE
  5
14B
330
1F
100
AcDbEntity
  8
0
 62
    48
100
AcDbLine
 10
1206.814643469309
 20
160.6599999999979
 30
0.0
 11
1194.814643469309
 21
160.6599999999979
 31
0.0
  0
LINE
  5
14C
330
1F
100
AcDbEntity
  8
0
 62
    48
100
AcDbLine
 10
1194.814643469309
 20
160.6599999999979
 30
0.0
 11
1194.814643469309
 21
158.3099999999979
 31
0.0
  0
ARC
  5
14D
330
1F
100
AcDbEntity
  8
0
 62
    48
100
AcDbCircle
 10
1193.214643469309
 20
158.3099999999978
 30
-0.0000000000000066
 40
1.599999999999942
100
AcDbArc
 50
179.999999999998
 51
0.0000000000019338
  0
LINE
  5
14E
330
1F
100
AcDbEntity
  8
0
 62
    48
100
AcDbLine
 10
1191.614643469309
 20
158.3099999999979
 30
0.0
 11
1187.814643469309
 21
158.3099999999979
 31
0.0
  0
LINE
  5
14F
330
1F
100
AcDbEntity
  8
0
 62
    48
100
AcDbLine
 10
1185.814643469309
 20
160.3099999999979
 30
0.0
 11
1185.814643469309
 21
169.009999999998
 31
0.0
  0
LINE
  5
150
330
1F
100
AcDbEntity
  8
0
 62
    48
100
AcDbLine
 10
1187.814643469309
 20
171.0099999999979
 30
0.0
 11
1191.614643469309
 21
171.0099999999979
 31
0.0
  0
ARC
  5
151
330
1F
100
AcDbEntity
  8
0
 62
    48
100
AcDbCircle
 10
1193.214643469309
 20
171.009999999998
 30
0.0000000000000023
 40
1.59999999999995
100
AcDbArc
 50
0.0000000000019338
 51
180.0000000000019
  0
LINE
  5
152
330
1F
100
AcDbEntity
  8
0
 62
    48
100
AcDbLine
 10
1194.814643469309
 20
171.009999999998
 30
0.0
 11
1194.814643469309
 21
168.659999999998
 31
0.0
  0
LINE
  5
153
330
1F
100
AcDbEntity
  8
0
 62
    48
100
AcDbLine
 10
1194.814643469309
 20
168.6599999999979
 30
0.0
 11
1206.814643469309
 21
168.6599999999979
 31
0.0
  0
LINE
  5
154
330
1F
100
AcDbEntity
  8
0
 62
    48
100
AcDbLine
 10
1206.814643469309
 20
168.659999999998
 30
0.0
 11
1206.814643469309
 21
182.6599999999987
 31
0.0
  0
LINE
  5
155
330
1F
100
AcDbEntity
  8
0
 62
    48
100
AcDbLine
 10
1206.814643469309
 20
182.6599999999987
 30
0.0
 11
1216.814643469309
 21
182.6599999999987
 31
0.0
  0
LINE
  5
156
330
1F
100
AcDbEntity
  8
0
 62
    48
100
AcDbLine
 10
1218.814643469309
 20
184.6599999999987
 30
0.0
 11
1218.814643469309
 21
192.659999999998
 31
0.0
  0
LINE
  5
157
330
1F
100
AcDbEntity
  8
0
 62
    48
100
AcDbLine
 10
1216.814643469309
 20
194.659999999998
 30
0.0
 11
1166.814643469311
 21
194.659999999998
 31
0.0
  0
LINE
  5
158
330
1F
100
AcDbEntity
  8
0
 62
    48
100
AcDbLine
 10
1166.814643469311
 20
206.6599999999981
 30
0.0
 11
1166.814643469311
 21
194.659999999998
 31
0.0
  0
LINE
  5
159
330
1F
100
AcDbEntity
  8
0
 62
    48
100
AcDbLine
 10
1166.814643469311
 20
206.659999999998
 30
0.0
 11
1206.81464346931
 21
206.659999999998
 31
0.0
  0
LINE
  5
15A
330
1F
100
AcDbEntity
  8
0
 62
    48
100
AcDbLine
 10
1206.814643469309
 20
206.659999999998
 30
0.0
 11
1206.814643469309
 21
222.659999999998
 31
0.0
  0
LINE
  5
15B
330
1F
100
AcDbEntity
  8
0
 62
    48
100
AcDbLine
 10
1206.814643469309
 20
222.659999999998
 30
0.0
 11
1194.814643469309
 21
222.659999999998
 31
0.0
  0
LINE
  5
15C
330
1F
100
AcDbEntity
  8
0
 62
    48
100
AcDbLine
 10
1194.814643469309
 20
222.659999999998
 30
0.0
 11
1194.814643469309
 21
220.309999999998
 31
0.0
  0
ARC
  5
15D
330
1F
100
AcDbEntity
  8
0
 62
    48
100
AcDbCircle
 10
1193.214643469309
 20
220.309999999998
 30
-0.000000000000003
 40
1.599999999999962
100
AcDbArc
 50
179.9999999999999
 51
359.9999999999999
  0
LINE
  5
15E
330
1F
100
AcDbEntity
  8
0
 62
    48
100
AcDbLine
 10
1191.614643469309
 20
220.309999999998
 30
0.0
 11
1187.814643469309
 21
220.3099999999981
 31
0.0
  0
LINE
  5
15F
330
1F
100
AcDbEntity
  8
0
 62
    48
100
AcDbLine
 10
1185.814643469309
 20
222.3099999999981
 30
0.0
 11
1185.814643469309
 21
231.009999999998
 31
0.0
  0
LINE
  5
160
330
1F
100
AcDbEntity
  8
0
 62
    48
100
AcDbLine
 10
1187.814643469309
 20
233.009999999998
 30
0.0
 11
1191.614643469309
 21
233.009999999998
 31
0.0
  0
ARC
  5
161
330
1F
100
AcDbEntity
  8
0
 62
    48
100
AcDbCircle
 10
1193.214643469309
 20
233.009999999998
 30
0.000000000000006
 40
1.599999999999997
100
AcDbArc
 50
359.9999999999999
 51
179.9999999999999
  0
LINE
  5
162
330
1F
100
AcDbEntity
  8
0
 62
    48
100
AcDbLine
 10
1194.814643469309
 20
233.009999999998
 30
0.0
 11
1194.814643469309
 21
230.659999999998
 31
0.0
  0
LINE
  5
163
330
1F
100
AcDbEntity
  8
0
 62
    48
100
AcDbLine
 10
1194.814643469309
 20
230.659999999998
 30
0.0
 11
1206.814643469309
 21
230.659999999998
 31
0.0
  0
LINE
  5
164
330
1F
100
AcDbEntity
  8
0
 62
    48
100
AcDbLine
 10
1206.814643469309
 20
230.659999999998
 30
0.0
 11
1206.814643469309
 21
246.6599999999979
 31
0.0
  0
LINE
  5
165
330
1F
100
AcDbEntity
  8
0
 62
    48
100
AcDbLine
 10
1206.814643469309
 20
246.6599999999979
 30
0.0
 11
1216.814643469309
 21
246.6599999999979
 31
0.0
  0
LINE
  5
166
330
1F
100
AcDbEntity
  8
0
 62
    48
100
AcDbLine
 10
1218.814643469309
 20
248.6599999999979
 30
0.0
 11
1218.814643469309
 21
300.9099999999983
 31
0.0
  0
LINE
  5
167
330
1F
100
AcDbEntity
  8
0
 62
    48
100
AcDbLine
 10
1216.814643469309
 20
302.9099999999983
 30
0.0
 11
1206.814643469309
 21
302.9099999999983
 31
0.0
  0
LINE
  5
168
330
1F
100
AcDbEntity
  8
0
 62
    48
100
AcDbLine
 10
1206.814643469309
 20
302.9099999999983
 30
0.0
 11
1206.814643469309
 21
319.9099999999983
 31
0.0
  0
LINE
  5
169
330
1F
100
AcDbEntity
  8
0
 62
    48
100
AcDbLine
 10
1206.814643469309
 20
319.9099999999983
 30
0.0
 11
1194.814643469309
 21
319.9099999999983
 31
0.0
  0
LINE
  5
16A
330
1F
100
AcDbEntity
  8
0
 62
    48
100
AcDbLine
 10
1194.814643469309
 20
319.9099999999983
 30
0.0
 11
1194.814643469309
 21
317.5599999999985
 31
0.0
  0
ARC
  5
16B
330
1F
100
AcDbEntity
  8
0
 62
    48
100
AcDbCircle
 10
1193.21464346931
 20
317.5599999999985
 30
0.0000000000000009
 40
1.599999999999892
100
AcDbArc
 50
180.0000000000039
 51
359.9999999999999
  0
LINE
  5
16C
330
1F
100
AcDbEntity
  8
0
 62
    48
100
AcDbLine
 10
1191.61464346931
 20
317.5599999999984
 30
0.0
 11
1187.814643469309
 21
317.5599999999984
 31
0.0
  0
LINE
  5
16D
330
1F
100
AcDbEntity
  8
0
 62
    48
100
AcDbLine
 10
1185.814643469309
 20
319.5599999999984
 30
0.0
 11
1185.814643469309
 21
328.2599999999983
 31
0.0
  0
LINE
  5
16E
330
1F
100
AcDbEntity
  8
0
 62
    48
100
AcDbLine
 10
1187.814643469309
 20
330.2599999999983
 30
0.0
 11
1191.614643469309
 21
330.2599999999983
 31
0.0
  0
ARC
  5
16F
330
1F
100
AcDbEntity
  8
0
 62
    48
100
AcDbCircle
 10
1193.214643469309
 20
330.2599999999982
 30
-0.000000000000004
 40
1.59999999999996
100
AcDbArc
 50
359.9999999999999
 51
179.999999999996
  0
LINE
  5
170
330
1F
100
AcDbEntity
  8
0
 62
    48
100
AcDbLine
 10
1194.814643469309
 20
330.2599999999982
 30
0.0
 11
1194.814643469309
 21
327.9099999999983
 31
0.0
  0
LINE
  5
171
330
1F
100
AcDbEntity
  8
0
 62
    48
100
AcDbLine
 10
1194.814643469309
 20
327.9099999999983
 30
0.0
 11
1206.814643469309
 21
327.9099999999983
 31
0.0
  0
LINE
  5
172
330
1F
100
AcDbEntity
  8
0
 62
    48
100
AcDbLine
 10
1206.814643469309
 20
327.9099999999983
 30
0.0
 11
1206.814643469309
 21
337.8099999999984
 31
0.0
  0
LINE
  5
173
330
1F
100
AcDbEntity
  8
0
 62
    48
100
AcDbLine
 10
1206.814643469309
 20
337.8099999999984
 30
0.0
 11
1216.814643469309
 21
337.8099999999984
 31
0.0
  0
LINE
  5
174
330
1F
100
AcDbEntity
  8
0
 62
    48
100
AcDbLine
 10
1218.814643469309
 20
339.8099999999984
 30
0.0
 11
1218.814643469309
 21
366.8099999999984
 31
0.0
  0
LINE
  5
175
330
1F
100
AcDbEntity
  8
0
 62
    48
100
AcDbLine
 10
1216.814643469309
 20
368.8099999999984
 30
0.0
 11
1206.814643469309
 21
368.8099999999984
 31
0.0
  0
LINE
  5
176
330
1F
100
AcDbEntity
  8
0
 62
    48
100
AcDbLine
 10
1206.814643469309
 20
368.8099999999984
 30
0.0
 11
1206.814643469309
 21
440.9099999999983
 31
0.0
  0
LINE
  5
177
330
1F
100
AcDbEntity
  8
0
 62
    48
100
AcDbLine
 10
1206.814643469309
 20
440.9099999999982
 30
0.0
 11
1194.814643469309
 21
440.9099999999982
 31
0.0
  0
LINE
  5
178
330
1F
100
AcDbEntity
  8
0
 62
    48
100
AcDbLine
 10
1194.814643469309
 20
440.9099999999982
 30
0.0
 11
1194.814643469309
 21
438.5599999999984
 31
0.0
  0
ARC
  5
179
330
1F
100
AcDbEntity
  8
0
 62
    48
100
AcDbCircle
 10
1193.214643469309
 20
438.5599999999984
 30
-0.0000000000000045
 40
1.599999999999945
100
AcDbArc
 50
179.9999999999999
 51
359.9999999999999
  0
LINE
  5
17A
330
1F
100
AcDbEntity
  8
0
 62
    48
100
AcDbLine
 10
1191.614643469309
 20
438.5599999999984
 30
0.0
 11
1187.814643469309
 21
438.5599999999984
 31
0.0
  0
LINE
  5
17B
330
1F
100
AcDbEntity
  8
0
 62
    48
100
AcDbLine
 10
1185.814643469309
 20
440.5599999999984
 30
0.0
 11
1185.814643469309
 21
449.2599999999983
 31
0.0
  0
LINE
  5
17C
330
1F
100
AcDbEntity
  8
0
 62
    48
100
AcDbLine
 10
1187.814643469309
 20
451.2599999999983
 30
0.0
 11
1191.614643469309
 21
451.2599999999983
 31
0.0
  0
ARC
  5
17D
330
1F
100
AcDbEntity
  8
0
 62
    48
100
AcDbCircle
 10
1193.214643469309
 20
451.2599999999983
 30
0.0000000000000045
 40
1.599999999999944
100
AcDbArc
 50
359.9999999999999
 51
179.9999999999999
  0
LINE
  5
17E
330
1F
100
AcDbEntity
  8
0
 62
    48
100
AcDbLine
 10
1194.814643469309
 20
451.2599999999983
 30
0.0
 11
1194.814643469309
 21
448.9099999999982
 31
0.0
  0
LINE
  5
17F
330
1F
100
AcDbEntity
  8
0
 62
    48
100
AcDbLine
 10
1194.814643469309
 20
448.9099999999982
 30
0.0
 11
1206.814643469309
 21
448.9099999999982
 31
0.0
  0
LINE
  5
180
330
1F
100
AcDbEntity
  8
0
 62
    48
100
AcDbLine
 10
1206.814643469309
 20
448.9099999999982
 30
0.0
 11
1206.814643469309
 21
457.6599999999984
 31
0.0
  0
LINE
  5
181
330
1F
100
AcDbEntity
  8
0
 62
    48
100
AcDbLine
 10
1206.814643469309
 20
457.6599999999984
 30
0.0
 11
1216.814643469309
 21
457.6599999999984
 31
0.0
  0
LINE
  5
182
330
1F
100
AcDbEntity
  8
0
 62
    48
100
AcDbLine
 10
1218.814643469309
 20
459.6599999999984
 30
0.0
 11
1218.814643469309
 21
475.6599999999985
 31
0.0
  0
LINE
  5
183
330
1F
100
AcDbEntity
  8
0
 62
    48
100
AcDbLine
 10
1216.81464346931
 20
477.6599999999984
 30
0.0
 11
1206.81464346931
 21
477.6599999999984
 31
0.0
  0
LINE
  5
184
330
1F
100
AcDbEntity
  8
0
 62
    48
100
AcDbLine
 10
1206.81464346931
 20
505.6599999999981
 30
0.0
 11
1206.81464346931
 21
477.6599999999984
 31
0.0
  0
LINE
  5
185
330
1F
100
AcDbEntity
  8
0
 62
    48
100
AcDbLine
 10
1206.81464346931
 20
505.6599999999982
 30
0.0
 11
1088.66464346931
 21
505.6599999999984
 31
0.0
  0
LINE
  5
186
330
1F
100
AcDbEntity
  8
0
 62
    48
100
AcDbLine
 10
1068.66464346931
 20
485.6599999999984
 30
0.0
 11
1068.664643469309
 21
152.0799999999984
 31
0.0
  0
LINE
  5
187
330
1F
100
AcDbEntity
  8
0
 62
    48
100
AcDbLine
 10
1151.814643469309
 20
407.8099999999984
 30
0.0
 11
1115.81464346931
 21
407.8099999999984
 31
0.0
  0
LINE
  5
188
330
1F
100
AcDbEntity
  8
0
 62
    48
100
AcDbLine
 10
1115.81464346931
 20
419.8099999999984
 30
0.0
 11
1115.81464346931
 21
407.8099999999984
 31
0.0
  0
LINE
  5
189
330
1F
100
AcDbEntity
  8
0
 62
    48
100
AcDbLine
 10
1151.814643469309
 20
419.8099999999984
 30
0.0
 11
1115.81464346931
 21
419.8099999999984
 31
0.0
  0
LINE
  5
18A
330
1F
100
AcDbEntity
  8
0
 62
    48
100
AcDbLine
 10
1151.814643469309
 20
407.8099999999984
 30
0.0
 11
1151.814643469309
 21
419.8099999999984
 31
0.0
  0
LINE
  5
18B
330
1F
100
AcDbEntity
  8
0
 62
    48
100
AcDbLine
 10
1126.514643469309
 20
485.6599999999981
 30
0.0
 11
1126.514643469309
 21
473.6599999999981
 31
0.0
  0
LINE
  5
18C
330
1F
100
AcDbEntity
  8
0
 62
    48
100
AcDbLine
 10
1146.514643469309
 20
485.6599999999981
 30
0.0
 11
1126.514643469309
 21
485.6599999999981
 31
0.0
  0
LINE
  5
18D
330
1F
100
AcDbEntity
  8
0
 62
    48
100
AcDbLine
 10
1146.514643469309
 20
473.6599999999981
 30
0.0
 11
1146.514643469309
 21
485.6599999999981
 31
0.0
  0
LINE
  5
18E
330
1F
100
AcDbEntity
  8
0
 62
    48
100
AcDbLine
 10
1146.514643469309
 20
473.6599999999981
 30
0.0
 11
1126.514643469309
 21
473.6599999999981
 31
0.0
  0
LINE
  5
18F
330
1F
100
AcDbEntity
  8
0
 62
    48
100
AcDbLine
 10
1138.519443501148
 20
206.6599999999979
 30
0.0
 11
1118.519443501148
 21
206.659999999998
 31
0.0
  0
LINE
  5
190
330
1F
100
AcDbEntity
  8
0
 62
    48
100
AcDbLine
 10
1138.519443501148
 20
158.659999999998
 30
0.0
 11
1138.519443501148
 21
206.6599999999979
 31
0.0
  0
LINE
  5
191
330
1F
100
AcDbEntity
  8
0
 62
    48
100
AcDbLine
 10
1138.519443501148
 20
158.659999999998
 30
0.0
 11
1118.519443501148
 21
158.659999999998
 31
0.0
  0
CIRCLE
  5
192
330
1F
100
AcDbEntity
  8
0
 62
    48
100
AcDbCircle
 10
1305.29964346931
 20
429.9975002193107
 30
-0.0000000000000025
 40
17.5
  0
ARC
  5
193
330
1F
100
AcDbEntity
  8
0
 62
    48
100
AcDbCircle
 10
1345.919269747949
 20
387.0479858947282
 30
-0.0000000000000002
 40
1.59999999999995
100
AcDbArc
 50
0.0008016752272036
 51
180.0174544513077
  0
ARC
  5
194
330
1F
100
AcDbEntity
  8
0
 62
    48
100
AcDbCircle
 10
1345.921293045373
 20
374.3480547794737
 30
0.0000000000000047
 40
1.600000000000036
100
AcDbArc
 50
180.0199154330696
 51
359.9983406934712
  0
ARC
  5
195
330
1F
100
AcDbEntity
  8
0
 62
    48
100
AcDbCircle
 10
1264.680017190671
 20
387.0479858947284
 30
0.0000000000000008
 40
1.59999999999995
100
AcDbArc
 50
359.9825455486922
 51
179.9991983247729
  0
ARC
  5
196
330
1F
100
AcDbEntity
  8
0
 62
    48
100
AcDbCircle
 10
1264.677993893247
 20
374.3480547794738
 30
0.0000000000000057
 40
1.600000000000036
100
AcDbArc
 50
180.0016593065287
 51
359.9800845669304
  0
ARC
  5
197
330
1F
100
AcDbEntity
  8
0
 62
    48
100
AcDbCircle
 10
1340.519588466299
 20
385.0468931038002
 30
0.0000000000000006
 40
2.0
100
AcDbArc
 50
90.00912806327499
 51
180.0091280632651
  0
ARC
  5
198
330
1F
100
AcDbEntity
  8
0
 62
    48
100
AcDbCircle
 10
1270.079698472322
 20
385.0468931038004
 30
0.0000000000000015
 40
2.0
100
AcDbArc
 50
359.9908719367237
 51
89.9908719367354
  0
ARC
  5
199
330
1F
100
AcDbEntity
  8
0
 62
    48
100
AcDbCircle
 10
1340.520974504692
 20
376.3468932142084
 30
0.000000000000004
 40
2.0
100
AcDbArc
 50
180.0091280632765
 51
270.0091280632527
  0
ARC
  5
19A
330
1F
100
AcDbEntity
  8
0
 62
    48
100
AcDbCircle
 10
1270.078312433929
 20
376.3468932142085
 30
0.0000000000000049
 40
2.0
100
AcDbArc
 50
269.9908719367253
 51
359.9908719367389
  0
ARC
  5
19B
330
1F
100
AcDbEntity
  8
0
 62
    48
100
AcDbCircle
 10
1369.13964346931
 20
396.7023002511496
 30
-0.0000000000000042
 40
2.0
100
AcDbArc
 50
269.9999999999726
 51
0.0000000000001527
  0
ARC
  5
19C
330
1F
100
AcDbEntity
  8
0
 62
    48
100
AcDbCircle
 10
1241.45964346931
 20
396.7023002511495
 30
-0.0000000000000027
 40
2.0
100
AcDbArc
 50
179.9999999999558
 51
270.0000000000001
  0
ARC
  5
19D
330
1F
100
AcDbEntity
  8
0
 62
    48
100
AcDbCircle
 10
1369.13964346931
 20
412.7023002511493
 30
0.0000000000000034
 40
2.0
100
AcDbArc
 50
359.9999999999571
 51
90.0000000000001
  0
ARC
  5
19E
330
1F
100
AcDbEntity
  8
0
 62
    48
100
AcDbCircle
 10
1241.45964346931
 20
412.7023002511493
 30
0.000000000000005
 40
2.0
100
AcDbArc
 50
89.99999999997287
 51
180.0000000000002
  0
ARC
  5
19F
330
1F
100
AcDbEntity
  8
0
 62
    48
100
AcDbCircle
 10
1349.29964346931
 20
484.9975002193108
 30
0.0000000000000033
 40
2.0
100
AcDbArc
 50
359.9999999999565
 51
90.00000000000016
  0
ARC
  5
1A0
330
1F
100
AcDbEntity
  8
0
 62
    48
100
AcDbCircle
 10
1261.29964346931
 20
484.9975002193107
 30
0.0000000000000044
 40
2.0
100
AcDbArc
 50
90.00000000000345
 51
180.0000000000001
  0
ARC
  5
1A1
330
1F
100
AcDbEntity
  8
0
 62
    48
100
AcDbCircle
 10
1341.29964346931
 20
484.9975002193108
 30
0.0000000000000034
 40
2.0
100
AcDbArc
 50
90.00000000000345
 51
180.0000000000001
  0
ARC
  5
1A2
330
1F
100
AcDbEntity
  8
0
 62
    48
100
AcDbCircle
 10
1269.29964346931
 20
484.9975002193107
 30
0.0000000000000043
 40
2.0
100
AcDbArc
 50
359.9999999999557
 51
90.00000000000016
  0
ARC
  5
1A3
330
1F
100
AcDbEntity
  8
0
 62
    48
100
AcDbCircle
 10
1305.299643469311
 20
308.9225002193109
 30
0.0000000000000029
 40
66.2200004386255
100
AcDbArc
 50
180.0000000000001
 51
359.9999999999994
  0
CIRCLE
  5
1A4
330
1F
100
AcDbEntity
  8
0
 62
    48
100
AcDbCircle
 10
1305.299643469311
 20
308.9225002193109
 30
0.0000000000000029
 40
36.0
  0
LINE
  5
1A5
330
1F
100
AcDbEntity
  8
0
 62
    48
100
AcDbLine
 10
1359.519643907937
 20
336.8475002193119
 30
0.0
 11
1359.519643907937
 21
376.7013122845131
 31
0.0
  0
LINE
  5
1A6
330
1F
100
AcDbEntity
  8
0
 62
    48
100
AcDbLine
 10
1359.519643907937
 20
336.847500219312
 30
0.0
 11
1371.519643907937
 21
336.8475002193119
 31
0.0
  0
LINE
  5
1A7
330
1F
100
AcDbEntity
  8
0
 62
    48
100
AcDbLine
 10
1251.079643030683
 20
336.8475002193109
 30
0.0
 11
1239.079643030683
 21
336.8475002193109
 31
0.0
  0
LINE
  5
1A8
330
1F
100
AcDbEntity
  8
0
 62
    48
100
AcDbLine
 10
1251.079643030684
 20
376.7013122845132
 30
0.0
 11
1251.079643030683
 21
336.8475002193109
 31
0.0
  0
LINE
  5
1A9
330
1F
100
AcDbEntity
  8
0
 62
    48
100
AcDbLine
 10
1239.079643030684
 20
308.9225002193107
 30
0.0
 11
1239.079643030683
 21
336.8475002193109
 31
0.0
  0
LINE
  5
1AA
330
1F
100
AcDbEntity
  8
0
 62
    48
100
AcDbLine
 10
1371.519643907937
 20
336.8475002193121
 30
0.0
 11
1371.519643907937
 21
308.922500219311
 31
0.0
  0
LINE
  5
1AB
330
1F
100
AcDbEntity
  8
0
 62
    48
100
AcDbLine
 10
1347.520918433878
 20
376.6994007104461
 30
0.0
 11
1359.519643907937
 21
376.7013122845132
 31
0.0
  0
LINE
  5
1AC
330
1F
100
AcDbEntity
  8
0
 62
    48
100
AcDbLine
 10
1347.521293045373
 20
374.3480084428946
 30
0.0
 11
1347.520918433878
 21
376.6994007104461
 31
0.0
  0
LINE
  5
1AD
330
1F
100
AcDbEntity
  8
0
 62
    48
100
AcDbLine
 10
1340.521293134207
 20
374.34689323959
 30
0.0
 11
1344.321293142028
 21
374.3474986356786
 31
0.0
  0
LINE
  5
1AE
330
1F
100
AcDbEntity
  8
0
 62
    48
100
AcDbLine
 10
1338.51958849168
 20
385.0465744742846
 30
0.0
 11
1338.520974530073
 21
376.3465745846928
 31
0.0
  0
LINE
  5
1AF
330
1F
100
AcDbEntity
  8
0
 62
    48
100
AcDbLine
 10
1344.319269822192
 20
387.0474984745042
 30
0.0
 11
1340.519269836783
 21
387.0468930784191
 31
0.0
  0
LINE
  5
1B0
330
1F
100
AcDbEntity
  8
0
 62
    48
100
AcDbLine
 10
1347.519643915816
 20
384.6994006089206
 30
0.0
 11
1347.519269747949
 21
387.0480082817238
 31
0.0
  0
LINE
  5
1B1
330
1F
100
AcDbEntity
  8
0
 62
    48
100
AcDbLine
 10
1359.519643907937
 20
384.7013123860373
 30
0.0
 11
1347.519643915816
 21
384.6994006089207
 31
0.0
  0
LINE
  5
1B2
330
1F
100
AcDbEntity
  8
0
 62
    48
100
AcDbLine
 10
1359.519643907937
 20
394.7023002511494
 30
0.0
 11
1359.519643907937
 21
384.7013123860372
 31
0.0
  0
LINE
  5
1B3
330
1F
100
AcDbEntity
  8
0
 62
    48
100
AcDbLine
 10
1369.13964346931
 20
394.7023002511494
 30
0.0
 11
1359.519643907937
 21
394.7023002511494
 31
0.0
  0
LINE
  5
1B4
330
1F
100
AcDbEntity
  8
0
 62
    48
100
AcDbLine
 10
1371.13964346931
 20
412.7023002511493
 30
0.0
 11
1371.13964346931
 21
396.7023002511496
 31
0.0
  0
LINE
  5
1B5
330
1F
100
AcDbEntity
  8
0
 62
    48
100
AcDbLine
 10
1359.519643907936
 20
414.7023002511492
 30
0.0
 11
1369.13964346931
 21
414.7023002511492
 31
0.0
  0
LINE
  5
1B6
330
1F
100
AcDbEntity
  8
0
 62
    48
100
AcDbLine
 10
1359.519643907937
 20
474.9975002193108
 30
0.0
 11
1359.519643907937
 21
414.7023002511492
 31
0.0
  0
LINE
  5
1B7
330
1F
100
AcDbEntity
  8
0
 62
    48
100
AcDbLine
 10
1351.29964346931
 20
474.9975002193111
 30
0.0
 11
1359.519643907937
 21
474.9975002193111
 31
0.0
  0
LINE
  5
1B8
330
1F
100
AcDbEntity
  8
0
 62
    48
100
AcDbLine
 10
1351.29964346931
 20
474.997500219311
 30
0.0
 11
1351.29964346931
 21
484.9975002193108
 31
0.0
  0
LINE
  5
1B9
330
1F
100
AcDbEntity
  8
0
 62
    48
100
AcDbLine
 10
1341.29964346931
 20
486.9975002193107
 30
0.0
 11
1349.29964346931
 21
486.9975002193107
 31
0.0
  0
LINE
  5
1BA
330
1F
100
AcDbEntity
  8
0
 62
    48
100
AcDbLine
 10
1339.29964346931
 20
474.997500219311
 30
0.0
 11
1339.29964346931
 21
484.9975002193108
 31
0.0
  0
LINE
  5
1BB
330
1F
100
AcDbEntity
  8
0
 62
    48
100
AcDbLine
 10
1271.29964346931
 20
474.997500219311
 30
0.0
 11
1339.29964346931
 21
474.9975002193111
 31
0.0
  0
LINE
  5
1BC
330
1F
100
AcDbEntity
  8
0
 62
    48
100
AcDbLine
 10
1271.29964346931
 20
474.9975002193108
 30
0.0
 11
1271.29964346931
 21
484.9975002193106
 31
0.0
  0
LINE
  5
1BD
330
1F
100
AcDbEntity
  8
0
 62
    48
100
AcDbLine
 10
1269.29964346931
 20
486.9975002193107
 30
0.0
 11
1261.29964346931
 21
486.9975002193107
 31
0.0
  0
LINE
  5
1BE
330
1F
100
AcDbEntity
  8
0
 62
    48
100
AcDbLine
 10
1259.29964346931
 20
474.9975002193111
 30
0.0
 11
1259.29964346931
 21
484.9975002193107
 31
0.0
  0
LINE
  5
1BF
330
1F
100
AcDbEntity
  8
0
 62
    48
100
AcDbLine
 10
1259.29964346931
 20
474.9975002193111
 30
0.0
 11
1251.079643030684
 21
474.997500219311
 31
0.0
  0
LINE
  5
1C0
330
1F
100
AcDbEntity
  8
0
 62
    48
100
AcDbLine
 10
1251.079643030684
 20
474.9975002193108
 30
0.0
 11
1251.079643030684
 21
414.7023002511493
 31
0.0
  0
LINE
  5
1C1
330
1F
100
AcDbEntity
  8
0
 62
    48
100
AcDbLine
 10
1251.079643030683
 20
414.7023002511493
 30
0.0
 11
1241.45964346931
 21
414.7023002511493
 31
0.0
  0
LINE
  5
1C2
330
1F
100
AcDbEntity
  8
0
 62
    48
100
AcDbLine
 10
1239.45964346931
 20
412.7023002511493
 30
0.0
 11
1239.45964346931
 21
396.7023002511495
 31
0.0
  0
LINE
  5
1C3
330
1F
100
AcDbEntity
  8
0
 62
    48
100
AcDbLine
 10
1241.45964346931
 20
394.7023002511495
 30
0.0
 11
1251.079643030683
 21
394.7023002511495
 31
0.0
  0
LINE
  5
1C4
330
1F
100
AcDbEntity
  8
0
 62
    48
100
AcDbLine
 10
1251.079643030683
 20
394.7023002511495
 30
0.0
 11
1251.079643030683
 21
384.7013123860373
 31
0.0
  0
LINE
  5
1C5
330
1F
100
AcDbEntity
  8
0
 62
    48
100
AcDbLine
 10
1251.079643030683
 20
384.7013123860373
 30
0.0
 11
1263.079643022804
 21
384.6994006089207
 31
0.0
  0
LINE
  5
1C6
330
1F
100
AcDbEntity
  8
0
 62
    48
100
AcDbLine
 10
1263.079643022804
 20
384.6994006089207
 30
0.0
 11
1263.080017190671
 21
387.0480082817239
 31
0.0
  0
LINE
  5
1C7
330
1F
100
AcDbEntity
  8
0
 62
    48
100
AcDbLine
 10
1266.280017116428
 20
387.0474984745042
 30
0.0
 11
1270.080017101837
 21
387.0468930784192
 31
0.0
  0
LINE
  5
1C8
330
1F
100
AcDbEntity
  8
0
 62
    48
100
AcDbLine
 10
1272.078312408548
 20
376.3465745846929
 30
0.0
 11
1272.07969844694
 21
385.0465744742846
 31
0.0
  0
LINE
  5
1C9
330
1F
100
AcDbEntity
  8
0
 62
    48
100
AcDbLine
 10
1270.077993804413
 20
374.3468932395901
 30
0.0
 11
1266.277993796592
 21
374.3474986356787
 31
0.0
  0
LINE
  5
1CA
330
1F
100
AcDbEntity
  8
0
 62
    48
100
AcDbLine
 10
1263.077993893247
 20
374.3480084428948
 30
0.0
 11
1263.078368504742
 21
376.6994007104462
 31
0.0
  0
LINE
  5
1CB
330
1F
100
AcDbEntity
  8
0
 62
    48
100
AcDbLine
 10
1263.078368504742
 20
376.6994007104461
 30
0.0
 11
1251.079643030684
 21
376.7013122845131
 31
0.0
  0
LINE
  5
1CC
330
1F
100
AcDbEntity
  8
0
 62
    48
100
AcDbLine
 10
1194.779643469313
 20
75.58022530623481
 30
0.0
 11
1182.94059951011
 21
75.58211144067975
 31
0.0
  0
ARC
  5
1CD
330
1F
100
AcDbEntity
  8
0
 62
    48
100
AcDbCircle
 10
1181.340225501147
 20
73.23452357883492
 30
-0.0000000000000012
 40
1.59999999999995
100
AcDbArc
 50
179.9825455486993
 51
359.9991983247718
  0
ARC
  5
1CE
330
1F
100
AcDbEntity
  8
0
 62
    48
100
AcDbCircle
 10
1175.940544219497
 20
75.23561636976267
 30
-0.0000000000000019
 40
2.0
100
AcDbArc
 50
179.9908719367001
 51
269.9908719367251
  0
ARC
  5
1CF
330
1F
100
AcDbEntity
  8
0
 62
    48
100
AcDbCircle
 10
1141.159643469313
 20
30.28499999999922
 30
0.0000000000000021
 40
41.0
100
AcDbArc
 50
90.04192374484788
 51
269.9580762551533
  0
ARC
  5
1D0
330
1F
100
AcDbEntity
  8
0
 62
    48
100
AcDbCircle
 10
1093.289643469313
 20
115.4349999999995
 30
-0.0000000000000026
 40
6.000000000000001
100
AcDbArc
 50
89.99999999999278
 51
179.9999999999999
  0
ARC
  5
1D1
330
1F
100
AcDbEntity
  8
0
 62
    48
100
AcDbCircle
 10
1031.139643469311
 20
-9.715000000000243
 30
0.0000000000000051
 40
2.0
100
AcDbArc
 50
359.9999999999999
 51
90.00000000003119
  0
ARC
  5
1D2
330
1F
100
AcDbEntity
  8
0
 62
    48
100
AcDbCircle
 10
1022.439643469311
 20
-9.715000000000233
 30
0.0000000000000052
 40
2.0
100
AcDbArc
 50
89.99999999999994
 51
180.0000000000095
  0
ARC
  5
1D3
330
1F
100
AcDbEntity
  8
0
 62
    48
100
AcDbCircle
 10
1125.129643469316
 20
-38.71500000000049
 30
0.0000000000000014
 40
2.0
100
AcDbArc
 50
179.9999999999574
 51
269.9999999999998
  0
ARC
  5
1D4
330
1F
100
AcDbEntity
  8
0
 62
    48
100
AcDbCircle
 10
1100.429643469312
 20
-9.714999999950587
 30
0.0000000000000043
 40
2.0
100
AcDbArc
 50
89.99999999996855
 51
179.9999999999998
  0
ARC
  5
1D5
330
1F
100
AcDbEntity
  8
0
 62
    48
100
AcDbCircle
 10
1109.129643469312
 20
-9.714999999950376
 30
0.0000000000000042
 40
2.0
100
AcDbArc
 50
359.9999999999579
 51
90.0000000000005
  0
ARC
  5
1D6
330
1F
100
AcDbEntity
  8
0
 62
    48
100
AcDbCircle
 10
1040.290000000001
 20
-18.7150000000016
 30
-0.0000000000000054
 40
30.0
100
AcDbArc
 50
89.99999999999856
 51
179.9999999999998
  0
ARC
  5
1D7
330
1F
100
AcDbEntity
  8
0
 62
    48
100
AcDbCircle
 10
1141.099643469313
 20
30.28499999999922
 30
0.0000000000000021
 40
41.0
100
AcDbArc
 50
270.0419237448469
 51
89.95807625515181
  0
ARC
  5
1D8
330
1F
100
AcDbEntity
  8
0
 62
    48
100
AcDbCircle
 10
1188.969643469313
 20
115.4349999999992
 30
-0.0000000000000038
 40
6.000000000000001
100
AcDbArc
 50
359.9999999999997
 51
90.00000000000698
  0
ARC
  5
1D9
330
1F
100
AcDbEntity
  8
0
 62
    48
100
AcDbCircle
 10
1251.119643469315
 20
-9.715000000000922
 30
0.0000000000000025
 40
2.0
100
AcDbArc
 50
89.99999999996973
 51
179.9999999999997
  0
ARC
  5
1DA
330
1F
100
AcDbEntity
  8
0
 62
    48
100
AcDbCircle
 10
1259.819643469315
 20
-9.715000000000932
 30
0.0000000000000024
 40
2.0
100
AcDbArc
 50
359.9999999999903
 51
89.99999999999969
  0
ARC
  5
1DB
330
1F
100
AcDbEntity
  8
0
 62
    48
100
AcDbCircle
 10
1157.129643469309
 20
-38.71500000000056
 30
0.000000000000001
 40
2.0
100
AcDbArc
 50
269.9999999999998
 51
0.000000000042136
  0
ARC
  5
1DC
330
1F
100
AcDbEntity
  8
0
 62
    48
100
AcDbCircle
 10
1181.829643469314
 20
-9.714999999950823
 30
0.0000000000000033
 40
2.0
100
AcDbArc
 50
359.9999999999998
 51
90.00000000003094
  0
ARC
  5
1DD
330
1F
100
AcDbEntity
  8
0
 62
    48
100
AcDbCircle
 10
1173.129643469314
 20
-9.714999999950564
 30
0.0000000000000034
 40
2.0
100
AcDbArc
 50
89.99999999999908
 51
180.000000000041
  0
ARC
  5
1DE
330
1F
100
AcDbEntity
  8
0
 62
    48
100
AcDbCircle
 10
1241.969286938625
 20
-18.71500000000222
 30
0.0000000000000061
 40
30.0
100
AcDbArc
 50
359.9999999999998
 51
89.99999999999883
  0
ARC
  5
1DF
330
1F
100
AcDbEntity
  8
0
 62
    48
100
AcDbCircle
 10
1106.318742719129
 20
75.2356163697629
 30
-0.000000000000001
 40
2.0
100
AcDbArc
 50
270.0091280632647
 51
0.0091280632763585
  0
ARC
  5
1E0
330
1F
100
AcDbEntity
  8
0
 62
    48
100
AcDbCircle
 10
1100.919061437479
 20
73.23452357883515
 30
-0.0000000000000002
 40
1.59999999999995
100
AcDbArc
 50
180.0008016752476
 51
0.0174544513213024
  0
ARC
  5
1E1
330
1F
100
AcDbEntity
  8
0
 62
    48
100
AcDbCircle
 10
1106.317356680736
 20
83.93561625935469
 30
-0.0000000000000044
 40
2.0
100
AcDbArc
 50
0.0091280632589037
 51
90.00912806327314
  0
ARC
  5
1E2
330
1F
100
AcDbEntity
  8
0
 62
    48
100
AcDbCircle
 10
1100.917038140055
 20
85.93445469408962
 30
-0.0000000000000051
 40
1.600000000000036
100
AcDbArc
 50
0.0199154330785678
 51
179.9983406934825
  0
ARC
  5
1E3
330
1F
100
AcDbEntity
  8
0
 62
    48
100
AcDbCircle
 10
1175.94193025789
 20
83.93561625935448
 30
-0.0000000000000053
 40
2.0
100
AcDbArc
 50
89.9908719367472
 51
179.9908719367227
  0
ARC
  5
1E4
330
1F
100
AcDbEntity
  8
0
 62
    48
100
AcDbCircle
 10
1181.342248798572
 20
85.9344546940894
 30
-0.0000000000000061
 40
1.600000000000036
100
AcDbArc
 50
0.001659306525698
 51
179.9800845669305
  0
ARC
  5
1E5
330
1F
100
AcDbEntity
  8
0
 62
    48
100
AcDbCircle
 10
1204.969643469313
 20
57.58019996816035
 30
0.0000000000000046
 40
2.0
100
AcDbArc
 50
359.9999999999877
 51
89.99999999999994
  0
ARC
  5
1E6
330
1F
100
AcDbEntity
  8
0
 62
    48
100
AcDbCircle
 10
1204.969643469313
 20
41.58019996816056
 30
-0.000000000000003
 40
2.0
100
AcDbArc
 50
269.9999999999651
 51
359.9999999999999
  0
ARC
  5
1E7
330
1F
100
AcDbEntity
  8
0
 62
    48
100
AcDbCircle
 10
1077.289643469313
 20
41.58019996816093
 30
-0.0000000000000015
 40
2.0
100
AcDbArc
 50
179.9999999999877
 51
269.9999999999999
  0
ARC
  5
1E8
330
1F
100
AcDbEntity
  8
0
 62
    48
100
AcDbCircle
 10
1077.289643469313
 20
57.58019996816073
 30
0.0000000000000062
 40
2.0
100
AcDbArc
 50
89.9999999999656
 51
179.9999999999999
  0
LINE
  5
1E9
330
1F
100
AcDbEntity
  8
0
 62
    48
100
AcDbLine
 10
1075.289643469313
 20
57.58019996816073
 30
0.0
 11
1075.289643469313
 21
41.58019996816094
 31
0.0
  0
LINE
  5
1EA
330
1F
100
AcDbEntity
  8
0
 62
    48
100
AcDbLine
 10
1077.289643469313
 20
39.58019996816093
 30
0.0
 11
1087.289643469313
 21
39.58019996816093
 31
0.0
  0
LINE
  5
1EB
330
1F
100
AcDbEntity
  8
0
 62
    48
100
AcDbLine
 10
1087.289643469313
 20
39.58019996816093
 30
0.0
 11
1087.289643469313
 21
11.28499999999826
 31
0.0
  0
LINE
  5
1EC
330
1F
100
AcDbEntity
  8
0
 62
    48
100
AcDbLine
 10
1087.289643469309
 20
11.28499999999826
 30
0.0
 11
1040.290000000001
 21
11.2849999999984
 31
0.0
  0
LINE
  5
1ED
330
1F
100
AcDbEntity
  8
0
 62
    48
100
AcDbLine
 10
1010.289999999997
 20
-18.7150000000015
 30
0.0
 11
1010.289999999997
 21
-28.71500000000043
 31
0.0
  0
LINE
  5
1EE
330
1F
100
AcDbEntity
  8
0
 62
    48
100
AcDbLine
 10
1022.789643469311
 20
-28.71500000000044
 30
0.0
 11
1010.290000000001
 21
-28.71500000000043
 31
0.0
  0
LINE
  5
1EF
330
1F
100
AcDbEntity
  8
0
 62
    48
100
AcDbLine
 10
1022.78964346931
 20
-16.71500000000013
 30
0.0
 11
1022.789643469311
 21
-28.71500000000044
 31
0.0
  0
LINE
  5
1F0
330
1F
100
AcDbEntity
  8
0
 62
    48
100
AcDbLine
 10
1020.439643469311
 20
-16.71500000000018
 30
0.0
 11
1022.789643469311
 21
-16.71500000000018
 31
0.0
  0
ARC
  5
1F1
330
1F
100
AcDbEntity
  8
0
 62
    48
100
AcDbCircle
 10
1020.439643469311
 20
-15.11500000000008
 30
-0.0000000000000065
 40
1.599999999999988
100
AcDbArc
 50
90.00000000000192
 51
269.9999999999979
  0
LINE
  5
1F2
330
1F
100
AcDbEntity
  8
0
 62
    48
100
AcDbLine
 10
1020.439643469311
 20
-9.71500000000023
 30
0.0
 11
1020.439643469311
 21
-13.51500000000003
 31
0.0
  0
LINE
  5
1F3
330
1F
100
AcDbEntity
  8
0
 62
    48
100
AcDbLine
 10
1031.139643469311
 20
-7.715000000000268
 30
0.0
 11
1022.439643469311
 21
-7.715000000000287
 31
0.0
  0
LINE
  5
1F4
330
1F
100
AcDbEntity
  8
0
 62
    48
100
AcDbLine
 10
1033.139643469311
 20
-13.51500000000005
 30
0.0
 11
1033.139643469311
 21
-9.715000000000247
 31
0.0
  0
ARC
  5
1F5
330
1F
100
AcDbEntity
  8
0
 62
    48
100
AcDbCircle
 10
1033.139643469311
 20
-15.1150000000001
 30
-0.0000000000000067
 40
1.600000000000044
100
AcDbArc
 50
269.9999999999999
 51
89.99999999999991
  0
LINE
  5
1F6
330
1F
100
AcDbEntity
  8
0
 62
    48
100
AcDbLine
 10
1030.789643469311
 20
-16.71500000000017
 30
0.0
 11
1033.139643469311
 21
-16.71500000000017
 31
0.0
  0
LINE
  5
1F7
330
1F
100
AcDbEntity
  8
0
 62
    48
100
AcDbLine
 10
1030.789643469311
 20
-28.71500000000048
 30
0.0
 11
1030.78964346931
 21
-16.71500000000014
 31
0.0
  0
LINE
  5
1F8
330
1F
100
AcDbEntity
  8
0
 62
    48
100
AcDbLine
 10
1038.289643469309
 20
-28.71500000000049
 30
0.0
 11
1030.789643469311
 21
-28.71500000000048
 31
0.0
  0
LINE
  5
1F9
330
1F
100
AcDbEntity
  8
0
 62
    48
100
AcDbLine
 10
1038.289643469309
 20
-28.71500000000155
 30
0.0
 11
1038.289643469309
 21
-40.71500000000155
 31
0.0
  0
LINE
  5
1FA
330
1F
100
AcDbEntity
  8
0
 62
    48
100
AcDbLine
 10
1038.289643469309
 20
-40.71500000000272
 30
0.0
 11
1075.28964346931
 21
-40.71500000000282
 31
0.0
  0
LINE
  5
1FB
330
1F
100
AcDbEntity
  8
0
 62
    48
100
AcDbLine
 10
1075.28964346931
 20
-28.71500000000164
 30
0.0
 11
1075.28964346931
 21
-40.71500000000165
 31
0.0
  0
LINE
  5
1FC
330
1F
100
AcDbEntity
  8
0
 62
    48
100
AcDbLine
 10
1100.779643469312
 20
-28.71500000000071
 30
0.0
 11
1075.28964346931
 21
-28.71500000000059
 31
0.0
  0
LINE
  5
1FD
330
1F
100
AcDbEntity
  8
0
 62
    48
100
AcDbLine
 10
1100.779643469312
 20
-28.71500000000071
 30
0.0
 11
1100.779643469312
 21
-16.71499999995071
 31
0.0
  0
LINE
  5
1FE
330
1F
100
AcDbEntity
  8
0
 62
    48
100
AcDbLine
 10
1100.779643469312
 20
-16.71499999995073
 30
0.0
 11
1098.429643469312
 21
-16.71499999995076
 31
0.0
  0
ARC
  5
1FF
330
1F
100
AcDbEntity
  8
0
 62
    48
100
AcDbCircle
 10
1098.429643469312
 20
-15.11499999995066
 30
0.0000000000000064
 40
1.599999999999964
100
AcDbArc
 50
90.00000000000074
 51
269.9999999999987
  0
LINE
  5
200
330
1F
100
AcDbEntity
  8
0
 62
    48
100
AcDbLine
 10
1098.429643469312
 20
-13.51499999995061
 30
0.0
 11
1098.429643469312
 21
-9.714999999950587
 31
0.0
  0
LINE
  5
201
330
1F
100
AcDbEntity
  8
0
 62
    48
100
AcDbLine
 10
1100.429643469312
 20
-7.714999999950419
 30
0.0
 11
1109.129643469312
 21
-7.714999999950402
 31
0.0
  0
LINE
  5
202
330
1F
100
AcDbEntity
  8
0
 62
    48
100
AcDbLine
 10
1111.129643469312
 20
-9.714999999950377
 30
0.0
 11
1111.129643469312
 21
-13.51499999995062
 31
0.0
  0
ARC
  5
203
330
1F
100
AcDbEntity
  8
0
 62
    48
100
AcDbCircle
 10
1111.129643469312
 20
-15.11499999995067
 30
0.0000000000000063
 40
1.599999999999976
100
AcDbArc
 50
269.9999999999998
 51
89.99999999999875
  0
LINE
  5
204
330
1F
100
AcDbEntity
  8
0
 62
    48
100
AcDbLine
 10
1111.129643469312
 20
-16.71499999995075
 30
0.0
 11
1108.779643469312
 21
-16.71499999995074
 31
0.0
  0
LINE
  5
205
330
1F
100
AcDbEntity
  8
0
 62
    48
100
AcDbLine
 10
1108.779643469312
 20
-16.71499999995049
 30
0.0
 11
1108.779643469312
 21
-28.71500000000049
 31
0.0
  0
LINE
  5
206
330
1F
100
AcDbEntity
  8
0
 62
    48
100
AcDbLine
 10
1123.129643469316
 20
-28.71500000000042
 30
0.0
 11
1108.779643469312
 21
-28.71500000000038
 31
0.0
  0
LINE
  5
207
330
1F
100
AcDbEntity
  8
0
 62
    48
100
AcDbLine
 10
1123.129643469316
 20
-38.71500000000049
 30
0.0
 11
1123.129643469316
 21
-28.71500000000026
 31
0.0
  0
LINE
  5
208
330
1F
100
AcDbEntity
  8
0
 62
    48
100
AcDbLine
 10
1157.129643469309
 20
-40.71500000000078
 30
0.0
 11
1125.129643469316
 21
-40.71500000000065
 31
0.0
  0
LINE
  5
209
330
1F
100
AcDbEntity
  8
0
 62
    48
100
AcDbLine
 10
1159.129643469309
 20
-38.71500000000061
 30
0.0
 11
1159.129643469309
 21
-28.71500000000038
 31
0.0
  0
LINE
  5
20A
330
1F
100
AcDbEntity
  8
0
 62
    48
100
AcDbLine
 10
1159.129643469309
 20
-28.71500000000055
 30
0.0
 11
1173.479643469314
 21
-28.71500000000054
 31
0.0
  0
LINE
  5
20B
330
1F
100
AcDbEntity
  8
0
 62
    48
100
AcDbLine
 10
1173.479643469314
 20
-16.71499999995068
 30
0.0
 11
1173.479643469314
 21
-28.71500000000065
 31
0.0
  0
LINE
  5
20C
330
1F
100
AcDbEntity
  8
0
 62
    48
100
AcDbLine
 10
1171.129643469314
 20
-16.71499999995093
 30
0.0
 11
1173.479643469314
 21
-16.71499999995093
 31
0.0
  0
ARC
  5
20D
330
1F
100
AcDbEntity
  8
0
 62
    48
100
AcDbCircle
 10
1171.129643469314
 20
-15.11499999995086
 30
0.0000000000000055
 40
1.599999999999976
100
AcDbArc
 50
90.0000000000009
 51
269.9999999999999
  0
LINE
  5
20E
330
1F
100
AcDbEntity
  8
0
 62
    48
100
AcDbLine
 10
1171.129643469314
 20
-9.714999999950562
 30
0.0
 11
1171.129643469314
 21
-13.51499999995081
 31
0.0
  0
LINE
  5
20F
330
1F
100
AcDbEntity
  8
0
 62
    48
100
AcDbLine
 10
1181.829643469314
 20
-7.714999999950655
 30
0.0
 11
1173.129643469314
 21
-7.71499999995059
 31
0.0
  0
LINE
  5
210
330
1F
100
AcDbEntity
  8
0
 62
    48
100
AcDbLine
 10
1183.829643469314
 20
-13.51499999995088
 30
0.0
 11
1183.829643469314
 21
-9.714999999950853
 31
0.0
  0
ARC
  5
211
330
1F
100
AcDbEntity
  8
0
 62
    48
100
AcDbCircle
 10
1183.829643469314
 20
-15.11499999995092
 30
0.0000000000000054
 40
1.599999999999964
100
AcDbArc
 50
270.0000000000009
 51
89.9999999999989
  0
LINE
  5
212
330
1F
100
AcDbEntity
  8
0
 62
    48
100
AcDbLine
 10
1181.479643469314
 20
-16.71499999995099
 30
0.0
 11
1183.829643469314
 21
-16.71499999995103
 31
0.0
  0
LINE
  5
213
330
1F
100
AcDbEntity
  8
0
 62
    48
100
AcDbLine
 10
1181.479643469314
 20
-28.71500000000094
 30
0.0
 11
1181.479643469314
 21
-16.71499999995097
 31
0.0
  0
LINE
  5
214
330
1F
100
AcDbEntity
  8
0
 62
    48
100
AcDbLine
 10
1181.479643469314
 20
-28.71500000000099
 30
0.0
 11
1206.969643469316
 21
-28.71500000000105
 31
0.0
  0
LINE
  5
215
330
1F
100
AcDbEntity
  8
0
 62
    48
100
AcDbLine
 10
1206.969643469316
 20
-28.71500000000205
 30
0.0
 11
1206.969643469316
 21
-40.71500000000211
 31
0.0
  0
LINE
  5
216
330
1F
100
AcDbEntity
  8
0
 62
    48
100
AcDbLine
 10
1243.969643469316
 20
-40.71500000000338
 30
0.0
 11
1206.969643469316
 21
-40.71500000000329
 31
0.0
  0
LINE
  5
217
330
1F
100
AcDbEntity
  8
0
 62
    48
100
AcDbLine
 10
1243.969643469316
 20
-28.71500000000221
 30
0.0
 11
1243.969643469316
 21
-40.71500000000221
 31
0.0
  0
LINE
  5
218
330
1F
100
AcDbEntity
  8
0
 62
    48
100
AcDbLine
 10
1243.969643469316
 20
-28.71500000000115
 30
0.0
 11
1251.469643469315
 21
-28.71500000000116
 31
0.0
  0
LINE
  5
219
330
1F
100
AcDbEntity
  8
0
 62
    48
100
AcDbLine
 10
1251.469643469315
 20
-28.71500000000116
 30
0.0
 11
1251.469643469315
 21
-16.71500000000082
 31
0.0
  0
LINE
  5
21A
330
1F
100
AcDbEntity
  8
0
 62
    48
100
AcDbLine
 10
1251.469643469315
 20
-16.71500000000085
 30
0.0
 11
1249.119643469315
 21
-16.71500000000085
 31
0.0
  0
ARC
  5
21B
330
1F
100
AcDbEntity
  8
0
 62
    48
100
AcDbCircle
 10
1249.119643469315
 20
-15.11500000000077
 30
0.0000000000000046
 40
1.600000000000044
100
AcDbArc
 50
89.99999999999972
 51
269.9999999999998
  0
LINE
  5
21C
330
1F
100
AcDbEntity
  8
0
 62
    48
100
AcDbLine
 10
1249.119643469315
 20
-13.51500000000072
 30
0.0
 11
1249.119643469315
 21
-9.715000000000918
 31
0.0
  0
LINE
  5
21D
330
1F
100
AcDbEntity
  8
0
 62
    48
100
AcDbLine
 10
1251.119643469315
 20
-7.715000000000975
 30
0.0
 11
1259.819643469315
 21
-7.715000000001013
 31
0.0
  0
LINE
  5
21E
330
1F
100
AcDbEntity
  8
0
 62
    48
100
AcDbLine
 10
1261.819643469315
 20
-9.715000000000963
 30
0.0
 11
1261.819643469315
 21
-13.51500000000077
 31
0.0
  0
ARC
  5
21F
330
1F
100
AcDbEntity
  8
0
 62
    48
100
AcDbCircle
 10
1261.819643469315
 20
-15.11500000000084
 30
0.0000000000000044
 40
1.599999999999988
100
AcDbArc
 50
270.0000000000017
 51
89.99999999999773
  0
LINE
  5
220
330
1F
100
AcDbEntity
  8
0
 62
    48
100
AcDbLine
 10
1261.819643469315
 20
-16.71500000000094
 30
0.0
 11
1259.469643469315
 21
-16.71500000000088
 31
0.0
  0
LINE
  5
221
330
1F
100
AcDbEntity
  8
0
 62
    48
100
AcDbLine
 10
1259.469643469315
 20
-16.71500000000083
 30
0.0
 11
1259.469643469315
 21
-28.7150000000012
 31
0.0
  0
LINE
  5
222
330
1F
100
AcDbEntity
  8
0
 62
    48
100
AcDbLine
 10
1259.469643469315
 20
-28.7150000000012
 30
0.0
 11
1271.969286938625
 21
-28.71500000000126
 31
0.0
  0
LINE
  5
223
330
1F
100
AcDbEntity
  8
0
 62
    48
100
AcDbLine
 10
1271.969286938629
 20
-18.71500000000231
 30
0.0
 11
1271.969286938629
 21
-28.71500000000127
 31
0.0
  0
LINE
  5
224
330
1F
100
AcDbEntity
  8
0
 62
    48
100
AcDbLine
 10
1194.969643469316
 20
11.28499999999794
 30
0.0
 11
1241.969286938625
 21
11.2849999999978
 31
0.0
  0
LINE
  5
225
330
1F
100
AcDbEntity
  8
0
 62
    48
100
AcDbLine
 10
1194.969643469313
 20
39.5801999681606
 30
0.0
 11
1194.969643469313
 21
11.28499999999794
 31
0.0
  0
LINE
  5
226
330
1F
100
AcDbEntity
  8
0
 62
    48
100
AcDbLine
 10
1194.969643469313
 20
39.5801999681606
 30
0.0
 11
1204.969643469313
 21
39.58019996816055
 31
0.0
  0
LINE
  5
227
330
1F
100
AcDbEntity
  8
0
 62
    48
100
AcDbLine
 10
1206.969643469313
 20
57.58019996816035
 30
0.0
 11
1206.969643469313
 21
41.58019996816056
 31
0.0
  0
LINE
  5
228
330
1F
100
AcDbEntity
  8
0
 62
    48
100
AcDbLine
 10
1204.969643469313
 20
59.58019996816035
 30
0.0
 11
1194.779643469313
 21
59.5801999681604
 31
0.0
  0
LINE
  5
229
330
1F
100
AcDbEntity
  8
0
 62
    48
100
AcDbLine
 10
1194.779643469313
 20
75.58022530623481
 30
0.0
 11
1194.779643469313
 21
59.58019996816039
 31
0.0
  0
LINE
  5
22A
330
1F
100
AcDbEntity
  8
0
 62
    48
100
AcDbLine
 10
1182.94059951011
 20
75.58211144067972
 30
0.0
 11
1182.940225501147
 21
73.2345011918393
 31
0.0
  0
LINE
  5
22B
330
1F
100
AcDbEntity
  8
0
 62
    48
100
AcDbLine
 10
1179.740225575391
 20
73.23501099905889
 30
0.0
 11
1175.940225589981
 21
73.2356163951439
 31
0.0
  0
LINE
  5
22C
330
1F
100
AcDbEntity
  8
0
 62
    48
100
AcDbLine
 10
1173.940544244878
 20
75.23593499927838
 30
0.0
 11
1173.941930283271
 21
83.9359348888702
 31
0.0
  0
LINE
  5
22D
330
1F
100
AcDbEntity
  8
0
 62
    48
100
AcDbLine
 10
1175.942248887405
 20
85.93561623397316
 30
0.0
 11
1179.742248895226
 21
85.93501083788458
 31
0.0
  0
LINE
  5
22E
330
1F
100
AcDbEntity
  8
0
 62
    48
100
AcDbLine
 10
1182.942248798571
 20
85.93450103066851
 30
0.0
 11
1182.941874028173
 21
83.58211133915432
 31
0.0
  0
LINE
  5
22F
330
1F
100
AcDbEntity
  8
0
 62
    48
100
AcDbLine
 10
1182.941874028173
 20
83.58211133915431
 30
0.0
 11
1194.969643469313
 21
83.58019513795455
 31
0.0
  0
LINE
  5
230
330
1F
100
AcDbEntity
  8
0
 62
    48
100
AcDbLine
 10
1194.969643469313
 20
115.4349999999992
 30
0.0
 11
1194.969643469313
 21
83.58019513795452
 31
0.0
  0
LINE
  5
231
330
1F
100
AcDbEntity
  8
0
 62
    48
100
AcDbLine
 10
1188.969643469313
 20
121.4349999999993
 30
0.0
 11
1093.289643469313
 21
121.4349999999996
 31
0.0
  0
LINE
  5
232
330
1F
100
AcDbEntity
  8
0
 62
    48
100
AcDbLine
 10
1087.289643469313
 20
115.4349999999996
 30
0.0
 11
1087.289643469313
 21
83.58019513795483
 31
0.0
  0
LINE
  5
233
330
1F
100
AcDbEntity
  8
0
 62
    48
100
AcDbLine
 10
1087.289643469313
 20
83.58019513795486
 30
0.0
 11
1099.317412910453
 21
83.58211133915454
 31
0.0
  0
LINE
  5
234
330
1F
100
AcDbEntity
  8
0
 62
    48
100
AcDbLine
 10
1099.317412910453
 20
83.58211133915454
 30
0.0
 11
1099.317038140055
 21
85.93450103066878
 31
0.0
  0
LINE
  5
235
330
1F
100
AcDbEntity
  8
0
 62
    48
100
AcDbLine
 10
1102.5170380434
 20
85.93501083788482
 30
0.0
 11
1106.317038051221
 21
85.93561623397339
 31
0.0
  0
LINE
  5
236
330
1F
100
AcDbEntity
  8
0
 62
    48
100
AcDbLine
 10
1108.317356655355
 20
83.93593488887038
 30
0.0
 11
1108.318742693748
 21
75.23593499927858
 31
0.0
  0
LINE
  5
237
330
1F
100
AcDbEntity
  8
0
 62
    48
100
AcDbLine
 10
1106.319061348645
 20
73.23561639514406
 30
0.0
 11
1102.519061363235
 21
73.23501099905907
 31
0.0
  0
LINE
  5
238
330
1F
100
AcDbEntity
  8
0
 62
    48
100
AcDbLine
 10
1099.319061437479
 20
73.2345011918396
 30
0.0
 11
1099.318687428516
 21
75.58211144067998
 31
0.0
  0
LINE
  5
239
330
1F
100
AcDbEntity
  8
0
 62
    48
100
AcDbLine
 10
1099.318687428516
 20
75.58211144067998
 30
0.0
 11
1087.479643469313
 21
75.58022530623512
 31
0.0
  0
LINE
  5
23A
330
1F
100
AcDbEntity
  8
0
 62
    48
100
AcDbLine
 10
1087.479643469313
 20
75.58022530623512
 30
0.0
 11
1087.479643469313
 21
59.58019996816071
 31
0.0
  0
LINE
  5
23B
330
1F
100
AcDbEntity
  8
0
 62
    48
100
AcDbLine
 10
1087.479643469313
 20
59.58019996816071
 30
0.0
 11
1077.289643469313
 21
59.58019996816073
 31
0.0
  0
LINE
  5
23C
330
1F
100
AcDbEntity
  8
0
 62
    48
100
AcDbLine
 10
1125.319643115251
 20
108.6099999999994
 30
0.0
 11
1121.319643551633
 21
108.6099999999994
 31
0.0
  0
ARC
  5
23D
330
1F
100
AcDbEntity
  8
0
 62
    48
100
AcDbCircle
 10
1125.319643115251
 20
104.3599999999994
 30
0.0000000000000013
 40
4.250000000000004
100
AcDbArc
 50
269.9999999999999
 51
89.99999999999991
  0
LINE
  5
23E
330
1F
100
AcDbEntity
  8
0
 62
    48
100
AcDbLine
 10
1121.319643551633
 20
100.1099999999994
 30
0.0
 11
1125.319643115251
 21
100.1099999999994
 31
0.0
  0
ARC
  5
23F
330
1F
100
AcDbEntity
  8
0
 62
    48
100
AcDbCircle
 10
1121.319643551633
 20
104.3599999999994
 30
0.0000000000000013
 40
4.250000000000004
100
AcDbArc
 50
89.99999999999991
 51
269.9999999999999
  0
LINE
  5
240
330
1F
100
AcDbEntity
  8
0
 62
    48
100
AcDbLine
 10
1160.939643386994
 20
100.1099999999993
 30
0.0
 11
1156.939643823375
 21
100.1099999999993
 31
0.0
  0
ARC
  5
241
330
1F
100
AcDbEntity
  8
0
 62
    48
100
AcDbCircle
 10
1156.939643823375
 20
104.3599999999993
 30
0.0000000000000009
 40
4.250000000000004
100
AcDbArc
 50
89.99999999999969
 51
269.9999999999997
  0
LINE
  5
242
330
1F
100
AcDbEntity
  8
0
 62
    48
100
AcDbLine
 10
1156.939643823375
 20
108.6099999999992
 30
0.0
 11
1160.939643386994
 21
108.6099999999992
 31
0.0
  0
ARC
  5
243
330
1F
100
AcDbEntity
  8
0
 62
    48
100
AcDbCircle
 10
1160.939643386994
 20
104.3599999999993
 30
0.0000000000000009
 40
4.250000000000004
100
AcDbArc
 50
269.9999999999998
 51
89.99999999999972
  0
ARC
  5
244
330
1F
100
AcDbEntity
  8
0
 62
    48
100
AcDbCircle
 10
628.8196434693164
 20
19.22499999999859
 30
-0.0000000000000012
 40
41.25
100
AcDbArc
 50
92.61220341291042
 51
87.04013797892615
  0
ARC
  5
245
330
1F
100
AcDbEntity
  8
0
 62
    48
100
AcDbCircle
 10
618.9496434693093
 20
-49.77500000000129
 30
-0.0000000000000021
 40
2.0
100
AcDbArc
 50
179.9999999999905
 51
269.9999999999999
  0
ARC
  5
246
330
1F
100
AcDbEntity
  8
0
 62
    48
100
AcDbCircle
 10
638.9496434693093
 20
-49.77500000000134
 30
-0.0000000000000023
 40
2.0
100
AcDbArc
 50
270.0000000000041
 51
359.9999999999999
  0
ARC
  5
247
330
1F
100
AcDbEntity
  8
0
 62
    48
100
AcDbCircle
 10
581.1096434693095
 20
104.3749999999989
 30
-0.000000000000006
 40
6.000000000000001
100
AcDbArc
 50
89.9999999999998
 51
179.9999999999999
  0
ARC
  5
248
330
1F
100
AcDbEntity
  8
0
 62
    48
100
AcDbCircle
 10
676.7946434693093
 20
104.3749999999987
 30
0.0000000000000067
 40
6.000000000000001
100
AcDbArc
 50
0.0000000000039693
 51
89.99999999999994
  0
CIRCLE
  5
249
330
1F
100
AcDbEntity
  8
0
 62
    48
100
AcDbCircle
 10
-611.1396434693146
 20
93.29999999999897
 30
-0.0000000000003488
 40
4.25
210
-1.214306433184197E-17
220
-3.680893480642600E-15
230
-1.0
  0
CIRCLE
  5
24A
330
1F
100
AcDbEntity
  8
0
 62
    48
100
AcDbCircle
 10
-646.7596434693113
 20
93.29999999999872
 30
-0.0000000000003488
 40
4.25
210
-1.214306433184197E-17
220
-3.680893480642614E-15
230
-1.0
  0
ARC
  5
24B
330
1F
100
AcDbEntity
  8
0
 62
    48
100
AcDbCircle
 10
649.649643469313
 20
81.64999999999941
 30
0.000000000000002
 40
1.600000000000109
100
AcDbArc
 50
359.9999999998615
 51
179.9999999999999
  0
ARC
  5
24C
330
1F
100
AcDbEntity
  8
0
 62
    48
100
AcDbCircle
 10
649.649643469313
 20
68.94999999999881
 30
-0.0000000000000069
 40
1.600000000000023
100
AcDbArc
 50
179.9999999999494
 51
0.0000000000018829
  0
ARC
  5
24D
330
1F
100
AcDbEntity
  8
0
 62
    48
100
AcDbCircle
 10
608.349643469313
 20
67.29999999999896
 30
-0.0000000000000058
 40
2.999999999999986
100
AcDbArc
 50
179.9999999999999
 51
359.9999999999232
  0
ARC
  5
24E
330
1F
100
AcDbEntity
  8
0
 62
    48
100
AcDbCircle
 10
608.349643469313
 20
83.29999999999897
 30
0.0000000000000019
 40
2.999999999999988
100
AcDbArc
 50
359.9999999999999
 51
179.9999999999754
  0
ARC
  5
24F
330
1F
100
AcDbEntity
  8
0
 62
    48
100
AcDbCircle
 10
565.1096434693094
 20
30.52019996816031
 30
-0.0000000000000048
 40
2.0
100
AcDbArc
 50
179.9999999999903
 51
269.9999999999999
  0
ARC
  5
250
330
1F
100
AcDbEntity
  8
0
 62
    48
100
AcDbCircle
 10
565.1096434693095
 20
46.5201999681601
 30
0.0000000000000028
 40
2.0
100
AcDbArc
 50
90.00000000000418
 51
179.9999999999999
  0
ARC
  5
251
330
1F
100
AcDbEntity
  8
0
 62
    48
100
AcDbCircle
 10
692.7896434693092
 20
30.52019996815977
 30
-0.0000000000000064
 40
2.0
100
AcDbArc
 50
270.0000000000046
 51
359.9999999999999
  0
ARC
  5
252
330
1F
100
AcDbEntity
  8
0
 62
    48
100
AcDbCircle
 10
692.7896434693095
 20
46.52019996815984
 30
0.0000000000000013
 40
2.0
100
AcDbArc
 50
359.9999999999897
 51
89.99999999999994
  0
LINE
  5
253
330
1F
100
AcDbEntity
  8
0
 62
    48
100
AcDbLine
 10
587.1386874285159
 20
71.5235451719741
 30
0.0
 11
596.1374127962381
 21
71.52354517197409
 31
0.0
  0
LINE
  5
254
330
1F
100
AcDbEntity
  8
0
 62
    48
100
AcDbLine
 10
596.1374127962381
 20
71.52354517197409
 30
0.0
 11
596.1374127962381
 21
70.79999999999856
 31
0.0
  0
LINE
  5
255
330
1F
100
AcDbEntity
  8
0
 62
    48
100
AcDbLine
 10
596.1374127962381
 20
70.79999999999878
 30
0.0
 11
596.1374127962381
 21
65.52211144067935
 31
0.0
  0
LINE
  5
256
330
1F
100
AcDbEntity
  8
0
 62
    48
100
AcDbLine
 10
587.1386874285159
 20
70.7999999999986
 30
0.0
 11
587.1386874285159
 21
71.5235451719741
 31
0.0
  0
LINE
  5
257
330
1F
100
AcDbEntity
  8
0
 62
    48
100
AcDbLine
 10
587.1386874285159
 20
65.52211144067937
 30
0.0
 11
587.1386874285159
 21
70.79999999999882
 31
0.0
  0
LINE
  5
258
330
1F
100
AcDbEntity
  8
0
 62
    48
100
AcDbLine
 10
596.1374127962381
 20
65.52211144067935
 30
0.0
 11
587.1386874285159
 21
65.52211144067937
 31
0.0
  0
LINE
  5
259
330
1F
100
AcDbEntity
  8
0
 62
    48
100
AcDbLine
 10
605.3496434693132
 20
70.79999999999876
 30
0.0
 11
605.3496434693132
 21
79.79999999999866
 31
0.0
  0
LINE
  5
25A
330
1F
100
AcDbEntity
  8
0
 62
    48
100
AcDbLine
 10
575.1096434693096
 20
70.79999999999862
 30
0.0
 11
575.1096434693096
 21
79.79999999999893
 31
0.0
  0
LINE
  5
25B
330
1F
100
AcDbEntity
  8
0
 62
    48
100
AcDbLine
 10
605.3496434693132
 20
70.79999999999876
 30
0.0
 11
596.1374127962381
 21
70.79999999999878
 31
0.0
  0
LINE
  5
25C
330
1F
100
AcDbEntity
  8
0
 62
    48
100
AcDbLine
 10
661.761884823724
 20
71.52211144067915
 30
0.0
 11
664.049643469313
 21
71.52211144067915
 31
0.0
  0
LINE
  5
25D
330
1F
100
AcDbEntity
  8
0
 62
    48
100
AcDbLine
 10
664.049643469313
 20
71.52211144067915
 30
0.0
 11
670.7605995101102
 21
71.52211144067915
 31
0.0
  0
LINE
  5
25E
330
1F
100
AcDbEntity
  8
0
 62
    48
100
AcDbLine
 10
670.7605995101102
 20
71.52211144067913
 30
0.0
 11
670.7605995101102
 21
65.52211144067913
 31
0.0
  0
LINE
  5
25F
330
1F
100
AcDbEntity
  8
0
 62
    48
100
AcDbLine
 10
670.7605995101102
 20
65.52211144067915
 30
0.0
 11
661.761884823724
 21
65.52211144067915
 31
0.0
  0
LINE
  5
260
330
1F
100
AcDbEntity
  8
0
 62
    48
100
AcDbLine
 10
661.761884823724
 20
71.29999999999886
 30
0.0
 11
661.761884823724
 21
71.52211144067913
 31
0.0
  0
LINE
  5
261
330
1F
100
AcDbEntity
  8
0
 62
    48
100
AcDbLine
 10
661.761884823724
 20
65.52211144067913
 30
0.0
 11
661.761884823724
 21
71.29999999999886
 31
0.0
  0
LINE
  5
262
330
1F
100
AcDbEntity
  8
0
 62
    48
100
AcDbLine
 10
631.3275839819585
 20
79.29999999999913
 30
0.0
 11
631.1674399465975
 21
71.2999999999989
 31
0.0
  0
LINE
  5
263
330
1F
100
AcDbEntity
  8
0
 62
    48
100
AcDbLine
 10
664.049643469313
 20
79.29999999999909
 30
0.0
 11
664.049643469313
 21
71.52211144067915
 31
0.0
  0
LINE
  5
264
330
1F
100
AcDbEntity
  8
0
 62
    48
100
AcDbLine
 10
692.7896434693095
 20
48.52019996815984
 30
0.0
 11
682.7946434693093
 21
48.52019996815985
 31
0.0
  0
LINE
  5
265
330
1F
100
AcDbEntity
  8
0
 62
    48
100
AcDbLine
 10
587.1386874285159
 20
70.79999999999882
 30
0.0
 11
575.1096434693094
 21
70.79999999999883
 31
0.0
  0
LINE
  5
266
330
1F
100
AcDbEntity
  8
0
 62
    48
100
AcDbLine
 10
575.1096434693096
 20
70.7999999999988
 30
0.0
 11
575.1096434693095
 21
48.5201999681601
 31
0.0
  0
LINE
  5
267
330
1F
100
AcDbEntity
  8
0
 62
    48
100
AcDbLine
 10
575.1096434693095
 20
48.52019996816009
 30
0.0
 11
565.1096434693095
 21
48.5201999681601
 31
0.0
  0
LINE
  5
268
330
1F
100
AcDbEntity
  8
0
 62
    48
100
AcDbLine
 10
563.1096434693096
 20
46.52019996816011
 30
0.0
 11
563.1096434693095
 21
30.52019996816031
 31
0.0
  0
LINE
  5
269
330
1F
100
AcDbEntity
  8
0
 62
    48
100
AcDbLine
 10
565.1096434693094
 20
28.52019996816031
 30
0.0
 11
575.1096434693093
 21
28.5201999681603
 31
0.0
  0
LINE
  5
26A
330
1F
100
AcDbEntity
  8
0
 62
    48
100
AcDbLine
 10
575.1096434693093
 20
28.52019996816029
 30
0.0
 11
575.1096434693092
 21
-39.77500000000128
 31
0.0
  0
LINE
  5
26B
330
1F
100
AcDbEntity
  8
0
 62
    48
100
AcDbLine
 10
616.9496434693093
 20
-39.77500000000128
 30
0.0
 11
575.1096434693093
 21
-39.77500000000117
 31
0.0
  0
LINE
  5
26C
330
1F
100
AcDbEntity
  8
0
 62
    48
100
AcDbLine
 10
616.9496434693092
 20
-49.77500000000129
 30
0.0
 11
616.9496434693092
 21
-39.77500000000106
 31
0.0
  0
LINE
  5
26D
330
1F
100
AcDbEntity
  8
0
 62
    48
100
AcDbLine
 10
638.9496434693093
 20
-51.77500000000134
 30
0.0
 11
618.9496434693093
 21
-51.7750000000013
 31
0.0
  0
LINE
  5
26E
330
1F
100
AcDbEntity
  8
0
 62
    48
100
AcDbLine
 10
640.9496434693094
 20
-39.77500000000133
 30
0.0
 11
640.9496434693094
 21
-49.77500000000135
 31
0.0
  0
LINE
  5
26F
330
1F
100
AcDbEntity
  8
0
 62
    48
100
AcDbLine
 10
682.794643469309
 20
-39.77500000000144
 30
0.0
 11
640.9496434693094
 21
-39.77500000000133
 31
0.0
  0
LINE
  5
270
330
1F
100
AcDbEntity
  8
0
 62
    48
100
AcDbLine
 10
682.7946434693091
 20
-39.77500000000138
 30
0.0
 11
682.7946434693093
 21
28.5201999681598
 31
0.0
  0
LINE
  5
271
330
1F
100
AcDbEntity
  8
0
 62
    48
100
AcDbLine
 10
682.7946434693092
 20
28.5201999681598
 30
0.0
 11
692.7896434693092
 21
28.52019996815979
 31
0.0
  0
LINE
  5
272
330
1F
100
AcDbEntity
  8
0
 62
    48
100
AcDbLine
 10
694.7896434693092
 20
30.52019996815977
 30
0.0
 11
694.7896434693093
 21
46.52019996815984
 31
0.0
  0
LINE
  5
273
330
1F
100
AcDbEntity
  8
0
 62
    48
100
AcDbLine
 10
682.7946434693093
 20
48.52019996815988
 30
0.0
 11
682.7946434693094
 21
104.3749999999987
 31
0.0
  0
LINE
  5
274
330
1F
100
AcDbEntity
  8
0
 62
    48
100
AcDbLine
 10
676.7946434693093
 20
110.3749999999987
 30
0.0
 11
631.9496434693131
 21
110.3749999999988
 31
0.0
  0
LINE
  5
275
330
1F
100
AcDbEntity
  8
0
 62
    48
100
AcDbLine
 10
631.9496434693131
 20
110.3749999999988
 30
0.0
 11
631.3275839819585
 21
79.29999999999916
 31
0.0
  0
LINE
  5
276
330
1F
100
AcDbEntity
  8
0
 62
    48
100
AcDbLine
 10
631.3275839819585
 20
79.29999999999916
 30
0.0
 11
648.049643469313
 21
79.29999999999913
 31
0.0
  0
LINE
  5
277
330
1F
100
AcDbEntity
  8
0
 62
    48
100
AcDbLine
 10
648.049643469313
 20
79.29999999999912
 30
0.0
 11
648.049643469313
 21
81.64999999999942
 31
0.0
  0
LINE
  5
278
330
1F
100
AcDbEntity
  8
0
 62
    48
100
AcDbLine
 10
651.249643469313
 20
81.64999999999921
 30
0.0
 11
655.0496434693131
 21
81.64999999999924
 31
0.0
  0
LINE
  5
279
330
1F
100
AcDbEntity
  8
0
 62
    48
100
AcDbLine
 10
655.0496434693131
 20
81.64999999999924
 30
0.0
 11
655.0496434693131
 21
79.29999999999913
 31
0.0
  0
LINE
  5
27A
330
1F
100
AcDbEntity
  8
0
 62
    48
100
AcDbLine
 10
655.0496434693131
 20
79.29999999999913
 30
0.0
 11
664.049643469313
 21
79.29999999999909
 31
0.0
  0
LINE
  5
27B
330
1F
100
AcDbEntity
  8
0
 62
    48
100
AcDbLine
 10
661.761884823724
 20
71.29999999999886
 30
0.0
 11
655.0496434693131
 21
71.2999999999989
 31
0.0
  0
LINE
  5
27C
330
1F
100
AcDbEntity
  8
0
 62
    48
100
AcDbLine
 10
655.0496434693131
 20
68.94999999999884
 30
0.0
 11
655.0496434693131
 21
71.2999999999989
 31
0.0
  0
LINE
  5
27D
330
1F
100
AcDbEntity
  8
0
 62
    48
100
AcDbLine
 10
655.0496434693131
 20
68.94999999999887
 30
0.0
 11
651.249643469313
 21
68.94999999999884
 31
0.0
  0
LINE
  5
27E
330
1F
100
AcDbEntity
  8
0
 62
    48
100
AcDbLine
 10
648.049643469313
 20
68.94999999999882
 30
0.0
 11
648.049643469313
 21
71.29999999999889
 31
0.0
  0
LINE
  5
27F
330
1F
100
AcDbEntity
  8
0
 62
    48
100
AcDbLine
 10
648.049643469313
 20
71.29999999999889
 30
0.0
 11
631.1674399465975
 21
71.29999999999892
 31
0.0
  0
LINE
  5
280
330
1F
100
AcDbEntity
  8
0
 62
    48
100
AcDbLine
 10
631.1674399465975
 20
71.29999999999893
 30
0.0
 11
630.9496434693131
 21
60.41997056680467
 31
0.0
  0
LINE
  5
281
330
1F
100
AcDbEntity
  8
0
 62
    48
100
AcDbLine
 10
626.939643469313
 20
60.43213651783962
 30
0.0
 11
626.7220375347625
 21
71.2999999999989
 31
0.0
  0
LINE
  5
282
330
1F
100
AcDbEntity
  8
0
 62
    48
100
AcDbLine
 10
626.7220375347625
 20
71.2999999999989
 30
0.0
 11
611.3496434693129
 21
71.29999999999893
 31
0.0
  0
LINE
  5
283
330
1F
100
AcDbEntity
  8
0
 62
    48
100
AcDbLine
 10
611.3496434693129
 20
71.29999999999893
 30
0.0
 11
611.3496434693129
 21
67.29999999999893
 31
0.0
  0
LINE
  5
284
330
1F
100
AcDbEntity
  8
0
 62
    48
100
AcDbLine
 10
605.3496434693132
 20
67.29999999999893
 30
0.0
 11
605.3496434693132
 21
70.79999999999876
 31
0.0
  0
LINE
  5
285
330
1F
100
AcDbEntity
  8
0
 62
    48
100
AcDbLine
 10
668.2996434693139
 20
-18.77499999995139
 30
0.0
 11
668.2996434693137
 21
-27.77499999995148
 31
0.0
  0
LINE
  5
286
330
1F
100
AcDbEntity
  8
0
 62
    48
100
AcDbLine
 10
662.2996434693137
 20
-27.77499999995136
 30
0.0
 11
668.2996434693137
 21
-27.77499999995148
 31
0.0
  0
LINE
  5
287
330
1F
100
AcDbEntity
  8
0
 62
    48
100
AcDbLine
 10
662.2996434693139
 20
-27.77499999995136
 30
0.0
 11
662.2996434693139
 21
-18.77499999995133
 31
0.0
  0
LINE
  5
288
330
1F
100
AcDbEntity
  8
0
 62
    48
100
AcDbLine
 10
662.2996434693139
 20
-18.77499999995133
 30
0.0
 11
668.2996434693139
 21
-18.77499999995139
 31
0.0
  0
LINE
  5
289
330
1F
100
AcDbEntity
  8
0
 62
    48
100
AcDbLine
 10
589.5996434693119
 20
-27.77499999995086
 30
0.0
 11
589.5996434693119
 21
-18.77499999995071
 31
0.0
  0
LINE
  5
28A
330
1F
100
AcDbEntity
  8
0
 62
    48
100
AcDbLine
 10
589.5996434693119
 20
-18.77499999995071
 30
0.0
 11
595.5996434693119
 21
-18.77499999995075
 31
0.0
  0
LINE
  5
28B
330
1F
100
AcDbEntity
  8
0
 62
    48
100
AcDbLine
 10
595.5996434693119
 20
-18.77499999995075
 30
0.0
 11
595.5996434693119
 21
-27.77499999995087
 31
0.0
  0
LINE
  5
28C
330
1F
100
AcDbEntity
  8
0
 62
    48
100
AcDbLine
 10
589.5996434693119
 20
-27.77499999995086
 30
0.0
 11
595.5996434693119
 21
-27.77499999995087
 31
0.0
  0
LINE
  5
28D
330
1F
100
AcDbEntity
  8
0
 62
    48
100
AcDbLine
 10
575.1096434693095
 20
104.374999999999
 30
0.0
 11
575.1096434693096
 21
79.79999999999893
 31
0.0
  0
LINE
  5
28E
330
1F
100
AcDbEntity
  8
0
 62
    48
100
AcDbLine
 10
626.7220375347625
 20
71.2999999999989
 30
0.0
 11
626.5618544887334
 21
79.29999999999872
 31
0.0
  0
LINE
  5
28F
330
1F
100
AcDbEntity
  8
0
 62
    48
100
AcDbLine
 10
626.5618544887334
 20
79.29999999999872
 30
0.0
 11
625.939643469313
 21
110.3749999999988
 31
0.0
  0
LINE
  5
290
330
1F
100
AcDbEntity
  8
0
 62
    48
100
AcDbLine
 10
625.939643469313
 20
110.3749999999988
 30
0.0
 11
581.1096434693095
 21
110.3749999999989
 31
0.0
  0
LINE
  5
291
330
1F
100
AcDbEntity
  8
0
 62
    48
100
AcDbLine
 10
611.3496434693129
 20
79.29999999999895
 30
0.0
 11
611.3496434693129
 21
71.29999999999893
 31
0.0
  0
LINE
  5
292
330
1F
100
AcDbEntity
  8
0
 62
    48
100
AcDbLine
 10
611.3496434693129
 20
83.29999999999895
 30
0.0
 11
611.3496434693129
 21
79.29999999999895
 31
0.0
  0
LINE
  5
293
330
1F
100
AcDbEntity
  8
0
 62
    48
100
AcDbLine
 10
611.3496434693129
 20
79.2999999999988
 30
0.0
 11
626.5618544887334
 21
79.29999999999872
 31
0.0
  0
LINE
  5
294
330
1F
100
AcDbEntity
  8
0
 62
    48
100
AcDbLine
 10
575.1096434693096
 20
79.7999999999989
 30
0.0
 11
605.3496434693132
 21
79.79999999999875
 31
0.0
  0
LINE
  5
295
330
1F
100
AcDbEntity
  8
0
 62
    48
100
AcDbLine
 10
605.3496434693132
 20
79.79999999999889
 30
0.0
 11
605.3496434693132
 21
83.29999999999895
 31
0.0
  0
LINE
  5
296
330
1F
100
AcDbEntity
  8
0
 62
    48
100
AcDbLine
 10
762.6796434693129
 20
-38.82500000000173
 30
0.0
 11
720.8446434693129
 21
-38.82500000000189
 31
0.0
  0
ARC
  5
297
330
1F
100
AcDbEntity
  8
0
 62
    48
100
AcDbCircle
 10
764.6796434693127
 20
-48.82500000000174
 30
-0.0000000000000042
 40
2.0
100
AcDbArc
 50
179.9999999999899
 51
270.0000000000001
  0
ARC
  5
298
330
1F
100
AcDbEntity
  8
0
 62
    48
100
AcDbCircle
 10
784.6796434693127
 20
-48.82500000000162
 30
-0.0000000000000044
 40
2.0
100
AcDbArc
 50
270.0000000000043
 51
0.0000000000001018
  0
ARC
  5
299
330
1F
100
AcDbEntity
  8
0
 62
    48
100
AcDbCircle
 10
774.8096434693057
 20
20.17499999999829
 30
-0.0000000000000034
 40
41.25
100
AcDbArc
 50
92.95986202107386
 51
87.38779658708972
  0
ARC
  5
29A
330
1F
100
AcDbEntity
  8
0
 62
    48
100
AcDbCircle
 10
822.5196434693124
 20
105.3249999999987
 30
0.0000000000000046
 40
6.000000000000001
100
AcDbArc
 50
0.0000000000041729
 51
90.0000000000001
  0
ARC
  5
29B
330
1F
100
AcDbEntity
  8
0
 62
    48
100
AcDbCircle
 10
726.8446434693124
 20
105.3249999999983
 30
0.0000000000000058
 40
6.000000000000001
100
AcDbArc
 50
89.99999999999929
 51
180.0000000000001
  0
ARC
  5
29C
330
1F
100
AcDbEntity
  8
0
 62
    48
100
AcDbCircle
 10
753.9796434693081
 20
69.89999999999846
 30
0.0000000000000053
 40
1.600000000000106
100
AcDbArc
 50
179.9999999999981
 51
0.0000000001323111
  0
ARC
  5
29D
330
1F
100
AcDbEntity
  8
0
 62
    48
100
AcDbCircle
 10
753.9796434693081
 20
82.59999999999906
 30
0.0000000000000004
 40
1.599999999999992
100
AcDbArc
 50
0.0000000000001018
 51
179.9999999999969
  0
CIRCLE
  5
29E
330
1F
100
AcDbEntity
  8
0
 62
    48
100
AcDbCircle
 10
792.4896434693063
 20
94.24999999999847
 30
-0.0000000000000046
 40
4.25
  0
CIRCLE
  5
29F
330
1F
100
AcDbEntity
  8
0
 62
    48
100
AcDbCircle
 10
756.8696434693092
 20
94.24999999999861
 30
-0.0000000000000042
 40
4.25
  0
ARC
  5
2A0
330
1F
100
AcDbEntity
  8
0
 62
    48
100
AcDbCircle
 10
795.3083218903304
 20
84.24999999999865
 30
-0.0000000000000008
 40
2.999999999999977
100
AcDbArc
 50
13.65284984670738
 51
186.1231988575813
  0
ARC
  5
2A1
330
1F
100
AcDbEntity
  8
0
 62
    48
100
AcDbCircle
 10
795.3025174744882
 20
68.2270595852703
 30
0.0000000000000055
 40
3.0
100
AcDbArc
 50
179.9163598631607
 51
0.2705277865006461
  0
ARC
  5
2A2
330
1F
100
AcDbEntity
  8
0
 62
    48
100
AcDbCircle
 10
838.5196434693127
 20
31.47019996816004
 30
0.0000000000000053
 40
2.0
100
AcDbArc
 50
270.0000000000046
 51
0.0000000000001018
  0
ARC
  5
2A3
330
1F
100
AcDbEntity
  8
0
 62
    48
100
AcDbCircle
 10
838.5196434693127
 20
47.47019996815983
 30
-0.0000000000000009
 40
2.0
100
AcDbArc
 50
359.9999999999899
 51
90.0000000000001
  0
ARC
  5
2A4
330
1F
100
AcDbEntity
  8
0
 62
    48
100
AcDbCircle
 10
710.8396434693092
 20
31.47019996815939
 30
0.0000000000000069
 40
2.0
100
AcDbArc
 50
179.9999999999906
 51
270.0000000000001
  0
ARC
  5
2A5
330
1F
100
AcDbEntity
  8
0
 62
    48
100
AcDbCircle
 10
710.8396434693092
 20
47.47019996815919
 30
0.0000000000000007
 40
2.0
100
AcDbArc
 50
90.00000000000428
 51
180.0000000000001
  0
LINE
  5
2A6
330
1F
100
AcDbEntity
  8
0
 62
    48
100
AcDbLine
 10
816.4905995101061
 20
72.47354517197387
 30
0.0
 11
816.4905995101061
 21
71.7499999999988
 31
0.0
  0
LINE
  5
2A7
330
1F
100
AcDbEntity
  8
0
 62
    48
100
AcDbLine
 10
816.4905995101061
 20
71.7499999999988
 30
0.0
 11
816.4905995101061
 21
66.47211144067911
 31
0.0
  0
LINE
  5
2A8
330
1F
100
AcDbEntity
  8
0
 62
    48
100
AcDbLine
 10
816.4905995101061
 20
66.47211144067911
 30
0.0
 11
807.4918741423838
 21
66.47211144067907
 31
0.0
  0
LINE
  5
2A9
330
1F
100
AcDbEntity
  8
0
 62
    48
100
AcDbLine
 10
807.4918741423838
 20
72.47354517197383
 30
0.0
 11
816.4905995101061
 21
72.47354517197387
 31
0.0
  0
LINE
  5
2AA
330
1F
100
AcDbEntity
  8
0
 62
    48
100
AcDbLine
 10
807.4918741423838
 20
71.74999999999874
 30
0.0
 11
807.4918741423838
 21
72.47354517197383
 31
0.0
  0
LINE
  5
2AB
330
1F
100
AcDbEntity
  8
0
 62
    48
100
AcDbLine
 10
807.4918741423838
 20
66.47211144067907
 30
0.0
 11
807.4918741423838
 21
71.74999999999874
 31
0.0
  0
LINE
  5
2AC
330
1F
100
AcDbEntity
  8
0
 62
    48
100
AcDbLine
 10
816.4905995101061
 20
71.7499999999988
 30
0.0
 11
828.5196434693127
 21
71.74999999999879
 31
0.0
  0
LINE
  5
2AD
330
1F
100
AcDbEntity
  8
0
 62
    48
100
AcDbLine
 10
798.2859168739068
 20
71.74999999999872
 30
0.0
 11
807.4918741423838
 21
71.74999999999872
 31
0.0
  0
LINE
  5
2AE
330
1F
100
AcDbEntity
  8
0
 62
    48
100
AcDbLine
 10
798.3024840342821
 20
68.24122433441755
 30
0.0
 11
798.2859168739067
 21
71.74999999999872
 31
0.0
  0
LINE
  5
2AF
330
1F
100
AcDbEntity
  8
0
 62
    48
100
AcDbLine
 10
792.3083869535707
 20
72.24999999999864
 30
0.0
 11
792.3025206709933
 21
68.23143897103888
 31
0.0
  0
LINE
  5
2B0
330
1F
100
AcDbEntity
  8
0
 62
    48
100
AcDbLine
 10
776.9072494038596
 20
72.2499999999986
 30
0.0
 11
792.3083869535707
 21
72.24999999999864
 31
0.0
  0
LINE
  5
2B1
330
1F
100
AcDbEntity
  8
0
 62
    48
100
AcDbLine
 10
776.6896434693092
 20
61.38213651783931
 30
0.0
 11
776.9072494038596
 21
72.2499999999986
 31
0.0
  0
LINE
  5
2B2
330
1F
100
AcDbEntity
  8
0
 62
    48
100
AcDbLine
 10
772.4618469920246
 20
72.24999999999861
 30
0.0
 11
772.6796434693092
 21
61.36997056680434
 31
0.0
  0
LINE
  5
2B3
330
1F
100
AcDbEntity
  8
0
 62
    48
100
AcDbLine
 10
755.579643469308
 20
72.24999999999856
 30
0.0
 11
772.4618469920246
 21
72.24999999999861
 31
0.0
  0
LINE
  5
2B4
330
1F
100
AcDbEntity
  8
0
 62
    48
100
AcDbLine
 10
755.579643469308
 20
69.89999999999849
 30
0.0
 11
755.579643469308
 21
72.24999999999856
 31
0.0
  0
LINE
  5
2B5
330
1F
100
AcDbEntity
  8
0
 62
    48
100
AcDbLine
 10
748.579643469308
 20
69.8999999999985
 30
0.0
 11
752.3796434693081
 21
69.89999999999851
 31
0.0
  0
LINE
  5
2B6
330
1F
100
AcDbEntity
  8
0
 62
    48
100
AcDbLine
 10
748.579643469308
 20
72.24999999999855
 30
0.0
 11
748.579643469308
 21
69.8999999999985
 31
0.0
  0
LINE
  5
2B7
330
1F
100
AcDbEntity
  8
0
 62
    48
100
AcDbLine
 10
741.8674021148983
 20
72.24999999999852
 30
0.0
 11
748.579643469308
 21
72.24999999999854
 31
0.0
  0
LINE
  5
2B8
330
1F
100
AcDbEntity
  8
0
 62
    48
100
AcDbLine
 10
741.8674021148981
 20
72.24999999999852
 30
0.0
 11
741.8674021148981
 21
66.47211144067879
 31
0.0
  0
LINE
  5
2B9
330
1F
100
AcDbEntity
  8
0
 62
    48
100
AcDbLine
 10
741.8674021148983
 20
66.47211144067882
 30
0.0
 11
732.8686874285119
 21
66.4721114406788
 31
0.0
  0
LINE
  5
2BA
330
1F
100
AcDbEntity
  8
0
 62
    48
100
AcDbLine
 10
732.8686874285119
 20
66.47211144067877
 30
0.0
 11
732.8686874285119
 21
72.47211144067877
 31
0.0
  0
LINE
  5
2BB
330
1F
100
AcDbEntity
  8
0
 62
    48
100
AcDbLine
 10
732.8686874285119
 20
72.4721114406788
 30
0.0
 11
739.579643469308
 21
72.47211144067883
 31
0.0
  0
LINE
  5
2BC
330
1F
100
AcDbEntity
  8
0
 62
    48
100
AcDbLine
 10
739.5796434693082
 20
80.24999999999876
 30
0.0
 11
739.579643469308
 21
72.47211144067883
 31
0.0
  0
LINE
  5
2BD
330
1F
100
AcDbEntity
  8
0
 62
    48
100
AcDbLine
 10
748.579643469308
 20
80.24999999999878
 30
0.0
 11
739.5796434693082
 21
80.24999999999878
 31
0.0
  0
LINE
  5
2BE
330
1F
100
AcDbEntity
  8
0
 62
    48
100
AcDbLine
 10
748.579643469308
 20
82.59999999999889
 30
0.0
 11
748.579643469308
 21
80.24999999999878
 31
0.0
  0
LINE
  5
2BF
330
1F
100
AcDbEntity
  8
0
 62
    48
100
AcDbLine
 10
752.3796434693083
 20
82.59999999999889
 30
0.0
 11
748.579643469308
 21
82.59999999999887
 31
0.0
  0
LINE
  5
2C0
330
1F
100
AcDbEntity
  8
0
 62
    48
100
AcDbLine
 10
755.5796434693082
 20
80.24999999999879
 30
0.0
 11
755.5796434693082
 21
82.59999999999908
 31
0.0
  0
LINE
  5
2C1
330
1F
100
AcDbEntity
  8
0
 62
    48
100
AcDbLine
 10
772.3017029566638
 20
80.24999999999883
 30
0.0
 11
755.5796434693082
 21
80.24999999999879
 31
0.0
  0
LINE
  5
2C2
330
1F
100
AcDbEntity
  8
0
 62
    48
100
AcDbLine
 10
771.679643469309
 20
111.3249999999985
 30
0.0
 11
772.3017029566638
 21
80.24999999999883
 31
0.0
  0
LINE
  5
2C3
330
1F
100
AcDbEntity
  8
0
 62
    48
100
AcDbLine
 10
726.8446434693122
 20
111.3249999999983
 30
0.0
 11
771.679643469309
 21
111.3249999999984
 31
0.0
  0
LINE
  5
2C4
330
1F
100
AcDbEntity
  8
0
 62
    48
100
AcDbLine
 10
720.8446434693126
 20
49.47019996815926
 30
0.0
 11
720.8446434693124
 21
105.3249999999983
 31
0.0
  0
LINE
  5
2C5
330
1F
100
AcDbEntity
  8
0
 62
    48
100
AcDbLine
 10
710.8396434693091
 20
49.47019996815921
 30
0.0
 11
720.8446434693126
 21
49.47019996815926
 31
0.0
  0
LINE
  5
2C6
330
1F
100
AcDbEntity
  8
0
 62
    48
100
AcDbLine
 10
708.8396434693091
 20
47.47019996815919
 30
0.0
 11
708.8396434693093
 21
31.4701999681594
 31
0.0
  0
LINE
  5
2C7
330
1F
100
AcDbEntity
  8
0
 62
    48
100
AcDbLine
 10
720.8446434693126
 20
29.47019996815946
 30
0.0
 11
710.8396434693092
 21
29.47019996815942
 31
0.0
  0
LINE
  5
2C8
330
1F
100
AcDbEntity
  8
0
 62
    48
100
AcDbLine
 10
720.8446434693129
 20
-38.82500000000195
 30
0.0
 11
720.8446434693127
 21
29.47019996815947
 31
0.0
  0
LINE
  5
2C9
330
1F
100
AcDbEntity
  8
0
 62
    48
100
AcDbLine
 10
762.6796434693129
 20
-38.82500000000167
 30
0.0
 11
762.6796434693129
 21
-48.82500000000174
 31
0.0
  0
LINE
  5
2CA
330
1F
100
AcDbEntity
  8
0
 62
    48
100
AcDbLine
 10
784.6796434693127
 20
-50.82500000000162
 30
0.0
 11
764.6796434693127
 21
-50.82500000000174
 31
0.0
  0
LINE
  5
2CB
330
1F
100
AcDbEntity
  8
0
 62
    48
100
AcDbLine
 10
786.6796434693127
 20
-48.82500000000162
 30
0.0
 11
786.6796434693127
 21
-38.8250000000014
 31
0.0
  0
LINE
  5
2CC
330
1F
100
AcDbEntity
  8
0
 62
    48
100
AcDbLine
 10
828.5196434693132
 20
-38.82500000000144
 30
0.0
 11
786.6796434693129
 21
-38.82500000000162
 31
0.0
  0
LINE
  5
2CD
330
1F
100
AcDbEntity
  8
0
 62
    48
100
AcDbLine
 10
828.5196434693128
 20
29.47019996816003
 30
0.0
 11
828.5196434693129
 21
-38.82500000000144
 31
0.0
  0
LINE
  5
2CE
330
1F
100
AcDbEntity
  8
0
 62
    48
100
AcDbLine
 10
838.5196434693127
 20
29.47019996816005
 30
0.0
 11
828.5196434693128
 21
29.47019996816003
 31
0.0
  0
LINE
  5
2CF
330
1F
100
AcDbEntity
  8
0
 62
    48
100
AcDbLine
 10
840.5196434693127
 20
31.4701999681601
 30
0.0
 11
840.5196434693125
 21
47.47019996815989
 31
0.0
  0
LINE
  5
2D0
330
1F
100
AcDbEntity
  8
0
 62
    48
100
AcDbLine
 10
828.5196434693127
 20
49.47019996815983
 30
0.0
 11
838.5196434693127
 21
49.47019996815983
 31
0.0
  0
LINE
  5
2D1
330
1F
100
AcDbEntity
  8
0
 62
    48
100
AcDbLine
 10
828.5196434693127
 20
71.74999999999876
 30
0.0
 11
828.5196434693128
 21
49.47019996815983
 31
0.0
  0
LINE
  5
2D2
330
1F
100
AcDbEntity
  8
0
 62
    48
100
AcDbLine
 10
735.3296434693084
 20
-17.82499999995169
 30
0.0
 11
741.3296434693084
 21
-17.82499999995166
 31
0.0
  0
LINE
  5
2D3
330
1F
100
AcDbEntity
  8
0
 62
    48
100
AcDbLine
 10
741.3296434693084
 20
-17.82499999995166
 30
0.0
 11
741.3296434693084
 21
-26.82499999995181
 31
0.0
  0
LINE
  5
2D4
330
1F
100
AcDbEntity
  8
0
 62
    48
100
AcDbLine
 10
741.3296434693084
 20
-26.82499999995181
 30
0.0
 11
735.3296434693084
 21
-26.8249999999518
 31
0.0
  0
LINE
  5
2D5
330
1F
100
AcDbEntity
  8
0
 62
    48
100
AcDbLine
 10
735.3296434693084
 20
-26.8249999999518
 30
0.0
 11
735.3296434693084
 21
-17.82499999995169
 31
0.0
  0
LINE
  5
2D6
330
1F
100
AcDbEntity
  8
0
 62
    48
100
AcDbLine
 10
808.0296434693104
 20
-17.82499999995099
 30
0.0
 11
814.0296434693103
 21
-17.824999999951
 31
0.0
  0
LINE
  5
2D7
330
1F
100
AcDbEntity
  8
0
 62
    48
100
AcDbLine
 10
814.0296434693103
 20
-17.824999999951
 30
0.0
 11
814.0296434693104
 21
-26.82499999995115
 31
0.0
  0
LINE
  5
2D8
330
1F
100
AcDbEntity
  8
0
 62
    48
100
AcDbLine
 10
814.0296434693104
 20
-26.82499999995115
 30
0.0
 11
808.0296434693104
 21
-26.82499999995114
 31
0.0
  0
LINE
  5
2D9
330
1F
100
AcDbEntity
  8
0
 62
    48
100
AcDbLine
 10
808.0296434693104
 20
-26.82499999995114
 30
0.0
 11
808.0296434693104
 21
-17.82499999995099
 31
0.0
  0
LINE
  5
2DA
330
1F
100
AcDbEntity
  8
0
 62
    48
100
AcDbLine
 10
741.8674021148983
 20
72.47211144067879
 30
0.0
 11
741.8674021148983
 21
72.24999999999852
 31
0.0
  0
LINE
  5
2DB
330
1F
100
AcDbEntity
  8
0
 62
    48
100
AcDbLine
 10
739.579643469308
 20
72.47211144067883
 30
0.0
 11
741.8674021148983
 21
72.47211144067882
 31
0.0
  0
LINE
  5
2DC
330
1F
100
AcDbEntity
  8
0
 62
    48
100
AcDbLine
 10
792.3254373803304
 20
83.93000000022145
 30
0.0
 11
792.3200653280634
 21
80.24999999999851
 31
0.0
  0
LINE
  5
2DD
330
1F
100
AcDbEntity
  8
0
 62
    48
100
AcDbLine
 10
798.2434221527877
 20
80.74999999999825
 30
0.0
 11
798.22355296374
 21
84.95811566048643
 31
0.0
  0
LINE
  5
2DE
330
1F
100
AcDbEntity
  8
0
 62
    48
100
AcDbLine
 10
828.5196434693127
 20
80.74999999999841
 30
0.0
 11
798.2434221527877
 21
80.74999999999827
 31
0.0
  0
LINE
  5
2DF
330
1F
100
AcDbEntity
  8
0
 62
    48
100
AcDbLine
 10
828.5196434693125
 20
105.3249999999987
 30
0.0
 11
828.5196434693127
 21
80.74999999999841
 31
0.0
  0
LINE
  5
2E0
330
1F
100
AcDbEntity
  8
0
 62
    48
100
AcDbLine
 10
777.689643469309
 20
111.3249999999985
 30
0.0
 11
822.5196434693124
 21
111.3249999999987
 31
0.0
  0
LINE
  5
2E1
330
1F
100
AcDbEntity
  8
0
 62
    48
100
AcDbLine
 10
777.0674324498889
 20
80.24999999999841
 30
0.0
 11
777.689643469309
 21
111.3249999999985
 31
0.0
  0
LINE
  5
2E2
330
1F
100
AcDbEntity
  8
0
 62
    48
100
AcDbLine
 10
792.3200653280634
 20
80.24999999999851
 30
0.0
 11
777.0674324498889
 21
80.24999999999841
 31
0.0
  0
LINE
  5
2E3
330
1F
100
AcDbEntity
  8
0
 62
    48
100
AcDbLine
 10
798.2434221527877
 20
80.74999999999828
 30
0.0
 11
798.2859168739067
 21
71.74999999999872
 31
0.0
  0
LINE
  5
2E4
330
1F
100
AcDbEntity
  8
0
 62
    48
100
AcDbLine
 10
792.3083869535707
 20
72.24999999999864
 30
0.0
 11
792.3200653280634
 21
80.24999999999851
 31
0.0
  0
LINE
  5
2E5
330
1F
100
AcDbEntity
  8
0
 62
    48
100
AcDbLine
 10
828.5196434693127
 20
80.74999999999844
 30
0.0
 11
828.5196434693127
 21
71.74999999999876
 31
0.0
  0
LINE
  5
2E6
330
1F
100
AcDbEntity
  8
0
 62
    48
100
AcDbLine
 10
772.4618469920246
 20
72.24999999999861
 30
0.0
 11
772.3017029566638
 21
80.24999999999883
 31
0.0
  0
LINE
  5
2E7
330
1F
100
AcDbEntity
  8
0
 62
    48
100
AcDbLine
 10
777.0674324498889
 20
80.24999999999841
 30
0.0
 11
776.9072494038596
 21
72.2499999999986
 31
0.0
  0
LINE
  5
2E8
330
1F
100
AcDbEntity
  8
0
 62
    48
100
AcDbLine
 10
866.819643469313
 20
20.01980003183746
 30
0.0
 11
866.819643469313
 21
36.01980003183725
 31
0.0
  0
CIRCLE
  5
2E9
330
1F
100
AcDbEntity
  8
0
 62
    48
100
AcDbCircle
 10
-932.689643469313
 20
47.31499999999885
 30
-0.0000000000004304
 40
41.0
210
-4.407552881697218E-16
220
-4.498083763099170E-16
230
-1.0
  0
ARC
  5
2EA
330
1F
100
AcDbEntity
  8
0
 62
    48
100
AcDbCircle
 10
900.6596434693121
 20
87.31499999994848
 30
-0.0000000000000032
 40
2.0
100
AcDbArc
 50
269.9999999999993
 51
359.9999999999969
  0
ARC
  5
2EB
330
1F
100
AcDbEntity
  8
0
 62
    48
100
AcDbCircle
 10
891.9596434693121
 20
87.31499999994872
 30
-0.0000000000000031
 40
2.0
100
AcDbArc
 50
180.0000000000001
 51
269.9999999999964
  0
ARC
  5
2EC
330
1F
100
AcDbEntity
  8
0
 62
    48
100
AcDbCircle
 10
973.3596434693139
 20
87.31499999994863
 30
-0.0000000000000041
 40
2.0
100
AcDbArc
 50
270.0000000000009
 51
359.9999999999969
  0
ARC
  5
2ED
330
1F
100
AcDbEntity
  8
0
 62
    48
100
AcDbCircle
 10
948.6596434693095
 20
116.3149999999987
 30
-0.0000000000000012
 40
2.0
100
AcDbArc
 50
0.0000000000034604
 51
90.00000000000016
  0
ARC
  5
2EE
330
1F
100
AcDbEntity
  8
0
 62
    48
100
AcDbCircle
 10
916.6596434693163
 20
116.3149999999986
 30
-0.0000000000000008
 40
2.0
100
AcDbArc
 50
89.99999999998535
 51
180.0000000000001
  0
ARC
  5
2EF
330
1F
100
AcDbEntity
  8
0
 62
    48
100
AcDbCircle
 10
964.6596434693139
 20
87.31499999994863
 30
-0.000000000000004
 40
2.0
100
AcDbArc
 50
180.0000000000001
 51
270.0000000000151
  0
ARC
  5
2F0
330
1F
100
AcDbEntity
  8
0
 62
    48
100
AcDbCircle
 10
980.4996434693131
 20
-37.83500000000132
 30
0.0000000000000028
 40
6.000000000000001
100
AcDbArc
 50
269.9999999999997
 51
359.9999999999999
  0
ARC
  5
2F1
330
1F
100
AcDbEntity
  8
0
 62
    48
100
AcDbCircle
 10
884.819643469313
 20
-37.83500000000141
 30
0.000000000000004
 40
6.000000000000001
100
AcDbArc
 50
180.0000000000039
 51
269.9999999999999
  0
ARC
  5
2F2
330
1F
100
AcDbEntity
  8
0
 62
    48
100
AcDbCircle
 10
892.4477858534549
 20
4.358785607604283
 30
0.0000000000000013
 40
1.59999999999995
100
AcDbArc
 50
359.9825455486786
 51
179.9991983247488
  0
ARC
  5
2F3
330
1F
100
AcDbEntity
  8
0
 62
    48
100
AcDbCircle
 10
897.8474671351051
 20
2.357692816676527
 30
0.0000000000000021
 40
2.0
100
AcDbArc
 50
359.9908719367235
 51
89.99087193673458
  0
ARC
  5
2F4
330
1F
100
AcDbEntity
  8
0
 62
    48
100
AcDbCircle
 10
892.4457625560308
 20
-8.341145507650188
 30
0.0000000000000063
 40
1.600000000000036
100
AcDbArc
 50
180.0016593065174
 51
359.9800845669792
  0
ARC
  5
2F5
330
1F
100
AcDbEntity
  8
0
 62
    48
100
AcDbCircle
 10
897.8460810967123
 20
-6.342307072915276
 30
0.0000000000000054
 40
2.0
100
AcDbArc
 50
269.9908719367266
 51
359.9908719367363
  0
ARC
  5
2F6
330
1F
100
AcDbEntity
  8
0
 62
    48
100
AcDbCircle
 10
972.8714995717664
 20
4.368285070578704
 30
0.0000000000000004
 40
1.59999999999995
100
AcDbArc
 50
0.0008016752270255
 51
180.0174544512974
  0
ARC
  5
2F7
330
1F
100
AcDbEntity
  8
0
 62
    48
100
AcDbCircle
 10
967.4718182901162
 20
2.36719227965096
 30
0.0000000000000012
 40
2.0
100
AcDbArc
 50
90.00912806327479
 51
180.0091280632835
  0
ARC
  5
2F8
330
1F
100
AcDbEntity
  8
0
 62
    48
100
AcDbCircle
 10
972.8735228691907
 20
-8.331646044675766
 30
0.0000000000000053
 40
1.600000000000036
100
AcDbArc
 50
180.0199154330694
 51
359.9983406935316
  0
ARC
  5
2F9
330
1F
100
AcDbEntity
  8
0
 62
    48
100
AcDbCircle
 10
967.4732043285092
 20
-6.332807609940843
 30
0.0000000000000046
 40
2.0
100
AcDbArc
 50
180.0091280632763
 51
270.0091280632898
  0
ARC
  5
2FA
330
1F
100
AcDbEntity
  8
0
 62
    48
100
AcDbCircle
 10
868.819643469313
 20
36.01980003183725
 30
0.0000000000000032
 40
2.0
100
AcDbArc
 50
90.00000000000418
 51
179.9999999999999
  0
ARC
  5
2FB
330
1F
100
AcDbEntity
  8
0
 62
    48
100
AcDbCircle
 10
868.819643469313
 20
20.01980003183746
 30
-0.0000000000000045
 40
2.0
100
AcDbArc
 50
179.9999999999903
 51
269.9999999999999
  0
ARC
  5
2FC
330
1F
100
AcDbEntity
  8
0
 62
    48
100
AcDbCircle
 10
996.499643469313
 20
36.01980003183746
 30
0.0000000000000017
 40
2.0
100
AcDbArc
 50
359.9999999999908
 51
89.99999999999994
  0
ARC
  5
2FD
330
1F
100
AcDbEntity
  8
0
 62
    48
100
AcDbCircle
 10
996.499643469313
 20
20.01980003183767
 30
-0.000000000000006
 40
2.0
100
AcDbArc
 50
270.0000000000046
 51
359.9999999999999
  0
LINE
  5
2FE
330
1F
100
AcDbEntity
  8
0
 62
    48
100
AcDbLine
 10
948.4696436875034
 20
-22.51000000000137
 30
0.0
 11
952.469643251122
 21
-22.51000000000137
 31
0.0
  0
ARC
  5
2FF
330
1F
100
AcDbEntity
  8
0
 62
    48
100
AcDbCircle
 10
952.469643251122
 20
-26.7600000000014
 30
-0.0000000000000012
 40
4.250000000000032
100
AcDbArc
 50
269.9999999999999
 51
89.99999999999991
  0
LINE
  5
300
330
1F
100
AcDbEntity
  8
0
 62
    48
100
AcDbLine
 10
952.469643251122
 20
-31.01000000000144
 30
0.0
 11
948.4696436875034
 21
-31.01000000000143
 31
0.0
  0
ARC
  5
301
330
1F
100
AcDbEntity
  8
0
 62
    48
100
AcDbCircle
 10
948.4696436875034
 20
-26.7600000000014
 30
-0.0000000000000011
 40
4.250000000000032
100
AcDbArc
 50
89.99999999999994
 51
269.9999999999999
  0
ARC
  5
302
330
1F
100
AcDbEntity
  8
0
 62
    48
100
AcDbCircle
 10
916.8496431152511
 20
-26.76000000000133
 30
-0.0000000000000007
 40
4.250000000000032
100
AcDbArc
 50
269.9999999999999
 51
89.99999999999991
  0
LINE
  5
303
330
1F
100
AcDbEntity
  8
0
 62
    48
100
AcDbLine
 10
916.8496431152511
 20
-31.01000000000136
 30
0.0
 11
912.8496435516325
 21
-31.01000000000136
 31
0.0
  0
ARC
  5
304
330
1F
100
AcDbEntity
  8
0
 62
    48
100
AcDbCircle
 10
912.8496435516325
 20
-26.76000000000133
 30
-0.0000000000000007
 40
4.250000000000032
100
AcDbArc
 50
89.99999999999994
 51
269.9999999999999
  0
LINE
  5
305
330
1F
100
AcDbEntity
  8
0
 62
    48
100
AcDbLine
 10
912.8496435516325
 20
-22.51000000000129
 30
0.0
 11
916.8496431152511
 21
-22.5100000000013
 31
0.0
  0
LINE
  5
306
330
1F
100
AcDbEntity
  8
0
 62
    48
100
AcDbLine
 10
996.499643469313
 20
18.01980003183764
 30
0.0
 11
986.3096434693126
 21
18.01980003183765
 31
0.0
  0
LINE
  5
307
330
1F
100
AcDbEntity
  8
0
 62
    48
100
AcDbLine
 10
986.499643469313
 20
38.01980003183745
 30
0.0
 11
996.499643469313
 21
38.01980003183743
 31
0.0
  0
LINE
  5
308
330
1F
100
AcDbEntity
  8
0
 62
    48
100
AcDbLine
 10
879.0096434693133
 20
18.01980003183745
 30
0.0
 11
868.819643469313
 21
18.01980003183746
 31
0.0
  0
LINE
  5
309
330
1F
100
AcDbEntity
  8
0
 62
    48
100
AcDbLine
 10
998.499643469313
 20
36.01980003183746
 30
0.0
 11
998.4996434693131
 21
20.01980003183766
 31
0.0
  0
LINE
  5
30A
330
1F
100
AcDbEntity
  8
0
 62
    48
100
AcDbLine
 10
986.499643469313
 20
106.3149999999987
 30
0.0
 11
986.499643469313
 21
38.01980003183726
 31
0.0
  0
LINE
  5
30B
330
1F
100
AcDbEntity
  8
0
 62
    48
100
AcDbLine
 10
986.499643469313
 20
106.3149999999988
 30
0.0
 11
973.0096434693137
 21
106.3149999999988
 31
0.0
  0
LINE
  5
30C
330
1F
100
AcDbEntity
  8
0
 62
    48
100
AcDbLine
 10
973.0096434693138
 20
94.31499999994874
 30
0.0
 11
973.0096434693137
 21
106.3149999999987
 31
0.0
  0
LINE
  5
30D
330
1F
100
AcDbEntity
  8
0
 62
    48
100
AcDbLine
 10
975.3596434693139
 20
94.3149999999486
 30
0.0
 11
973.0096434693137
 21
94.31499999994858
 31
0.0
  0
ARC
  5
30E
330
1F
100
AcDbEntity
  8
0
 62
    48
100
AcDbCircle
 10
975.3596434693139
 20
92.71499999994869
 30
-0.0000000000000062
 40
1.599999999999964
100
AcDbArc
 50
270.0000000000011
 51
89.9999999999991
  0
LINE
  5
30F
330
1F
100
AcDbEntity
  8
0
 62
    48
100
AcDbLine
 10
975.3596434693139
 20
87.31499999994861
 30
0.0
 11
975.3596434693139
 21
91.11499999994864
 31
0.0
  0
LINE
  5
310
330
1F
100
AcDbEntity
  8
0
 62
    48
100
AcDbLine
 10
964.659643469314
 20
85.31499999994843
 30
0.0
 11
973.359643469314
 21
85.31499999994848
 31
0.0
  0
LINE
  5
311
330
1F
100
AcDbEntity
  8
0
 62
    48
100
AcDbLine
 10
962.6596434693139
 20
91.11499999994865
 30
0.0
 11
962.6596434693139
 21
87.31499999994863
 31
0.0
  0
ARC
  5
312
330
1F
100
AcDbEntity
  8
0
 62
    48
100
AcDbCircle
 10
962.6596434693139
 20
92.7149999999487
 30
-0.0000000000000061
 40
1.599999999999976
100
AcDbArc
 50
90.0000000000001
 51
270.0000000000011
  0
LINE
  5
313
330
1F
100
AcDbEntity
  8
0
 62
    48
100
AcDbLine
 10
965.0096434693138
 20
94.3149999999488
 30
0.0
 11
962.6596434693139
 21
94.31499999994877
 31
0.0
  0
LINE
  5
314
330
1F
100
AcDbEntity
  8
0
 62
    48
100
AcDbLine
 10
965.0096434693137
 20
106.3149999999987
 30
0.0
 11
965.0096434693138
 21
94.31499999994874
 31
0.0
  0
LINE
  5
315
330
1F
100
AcDbEntity
  8
0
 62
    48
100
AcDbLine
 10
965.0096434693137
 20
106.3149999999988
 30
0.0
 11
950.6596434693095
 21
106.3149999999988
 31
0.0
  0
LINE
  5
316
330
1F
100
AcDbEntity
  8
0
 62
    48
100
AcDbLine
 10
950.6596434693095
 20
106.3149999999987
 30
0.0
 11
950.6596434693095
 21
116.3149999999987
 31
0.0
  0
LINE
  5
317
330
1F
100
AcDbEntity
  8
0
 62
    48
100
AcDbLine
 10
948.6596434693095
 20
118.3149999999988
 30
0.0
 11
916.6596434693163
 21
118.3149999999988
 31
0.0
  0
LINE
  5
318
330
1F
100
AcDbEntity
  8
0
 62
    48
100
AcDbLine
 10
914.6596434693164
 20
116.3149999999986
 30
0.0
 11
914.6596434693164
 21
106.3149999999986
 31
0.0
  0
LINE
  5
319
330
1F
100
AcDbEntity
  8
0
 62
    48
100
AcDbLine
 10
900.309643469312
 20
106.3149999999987
 30
0.0
 11
914.6596434693164
 21
106.3149999999988
 31
0.0
  0
LINE
  5
31A
330
1F
100
AcDbEntity
  8
0
 62
    48
100
AcDbLine
 10
900.309643469312
 20
94.31499999994861
 30
0.0
 11
900.309643469312
 21
106.3149999999988
 31
0.0
  0
LINE
  5
31B
330
1F
100
AcDbEntity
  8
0
 62
    48
100
AcDbLine
 10
902.6596434693121
 20
94.31499999994864
 30
0.0
 11
900.309643469312
 21
94.31499999994863
 31
0.0
  0
ARC
  5
31C
330
1F
100
AcDbEntity
  8
0
 62
    48
100
AcDbCircle
 10
902.659643469312
 20
92.71499999994879
 30
-0.0000000000000054
 40
1.599999999999976
100
AcDbArc
 50
269.9999999999991
 51
90.00000000000011
  0
LINE
  5
31D
330
1F
100
AcDbEntity
  8
0
 62
    48
100
AcDbLine
 10
902.6596434693121
 20
87.31499999994848
 30
0.0
 11
902.659643469312
 21
91.11499999994874
 31
0.0
  0
LINE
  5
31E
330
1F
100
AcDbEntity
  8
0
 62
    48
100
AcDbLine
 10
891.9596434693121
 20
85.31499999994855
 30
0.0
 11
900.6596434693121
 21
85.31499999994847
 31
0.0
  0
LINE
  5
31F
330
1F
100
AcDbEntity
  8
0
 62
    48
100
AcDbLine
 10
889.959643469312
 20
91.11499999994875
 30
0.0
 11
889.9596434693121
 21
87.31499999994872
 31
0.0
  0
ARC
  5
320
330
1F
100
AcDbEntity
  8
0
 62
    48
100
AcDbCircle
 10
889.959643469312
 20
92.7149999999488
 30
-0.0000000000000052
 40
1.599999999999964
100
AcDbArc
 50
90.00000000000112
 51
269.9999999999991
  0
LINE
  5
321
330
1F
100
AcDbEntity
  8
0
 62
    48
100
AcDbLine
 10
892.3096434693122
 20
94.31499999994865
 30
0.0
 11
889.959643469312
 21
94.31499999994865
 31
0.0
  0
LINE
  5
322
330
1F
100
AcDbEntity
  8
0
 62
    48
100
AcDbLine
 10
892.309643469312
 20
106.3149999999988
 30
0.0
 11
892.309643469312
 21
94.31499999994884
 31
0.0
  0
LINE
  5
323
330
1F
100
AcDbEntity
  8
0
 62
    48
100
AcDbLine
 10
892.309643469312
 20
106.3149999999989
 30
0.0
 11
878.8196434693128
 21
106.3149999999988
 31
0.0
  0
LINE
  5
324
330
1F
100
AcDbEntity
  8
0
 62
    48
100
AcDbLine
 10
878.819643469313
 20
38.01980003183724
 30
0.0
 11
878.8196434693128
 21
106.3149999999988
 31
0.0
  0
LINE
  5
325
330
1F
100
AcDbEntity
  8
0
 62
    48
100
AcDbLine
 10
868.819643469313
 20
38.01980003183726
 30
0.0
 11
878.819643469313
 21
38.01980003183724
 31
0.0
  0
LINE
  5
326
330
1F
100
AcDbEntity
  8
0
 62
    48
100
AcDbLine
 10
879.0096434693133
 20
2.01308367698499
 30
0.0
 11
879.0096434693133
 21
18.01980003183745
 31
0.0
  0
LINE
  5
327
330
1F
100
AcDbEntity
  8
0
 62
    48
100
AcDbLine
 10
890.8474118444921
 20
2.011197745759456
 30
0.0
 11
879.0096434693133
 21
2.01308367698499
 31
0.0
  0
LINE
  5
328
330
1F
100
AcDbEntity
  8
0
 62
    48
100
AcDbLine
 10
890.8477858534549
 20
4.358807994599877
 30
0.0
 11
890.8474118444921
 21
2.011197745759456
 31
0.0
  0
LINE
  5
329
330
1F
100
AcDbEntity
  8
0
 62
    48
100
AcDbLine
 10
897.8477857646208
 20
4.357692791295332
 30
0.0
 11
894.0477857792115
 21
4.358298187380321
 31
0.0
  0
LINE
  5
32A
330
1F
100
AcDbEntity
  8
0
 62
    48
100
AcDbLine
 10
899.8460810713312
 20
-6.342625702430967
 30
0.0
 11
899.847467109724
 21
2.357374187160864
 31
0.0
  0
LINE
  5
32B
330
1F
100
AcDbEntity
  8
0
 62
    48
100
AcDbLine
 10
894.045762459376
 20
-8.3417016514454
 30
0.0
 11
897.8457624671968
 21
-8.34230704753397
 31
0.0
  0
LINE
  5
32C
330
1F
100
AcDbEntity
  8
0
 62
    48
100
AcDbLine
 10
890.8461373264297
 20
-5.988802152715124
 30
0.0
 11
890.845762556031
 21
-8.341191844229343
 31
0.0
  0
LINE
  5
32D
330
1F
100
AcDbEntity
  8
0
 62
    48
100
AcDbLine
 10
878.8196434693128
 20
-5.986886154734782
 30
0.0
 11
890.8461373264297
 21
-5.988802152715124
 31
0.0
  0
LINE
  5
32E
330
1F
100
AcDbEntity
  8
0
 62
    48
100
AcDbLine
 10
878.8196434693128
 20
-37.8350000000014
 30
0.0
 11
878.8196434693128
 21
-5.986886154734757
 31
0.0
  0
LINE
  5
32F
330
1F
100
AcDbEntity
  8
0
 62
    48
100
AcDbLine
 10
980.4996434693131
 20
-43.83500000000133
 30
0.0
 11
884.819643469313
 21
-43.83500000000142
 31
0.0
  0
LINE
  5
330
330
1F
100
AcDbEntity
  8
0
 62
    48
100
AcDbLine
 10
986.4996434693132
 20
-5.97738669151917
 30
0.0
 11
986.4996434693132
 21
-37.83500000000133
 31
0.0
  0
LINE
  5
331
330
1F
100
AcDbEntity
  8
0
 62
    48
100
AcDbLine
 10
974.4731480987919
 20
-5.979302689740654
 30
0.0
 11
986.4996434693132
 21
-5.977386691519171
 31
0.0
  0
LINE
  5
332
330
1F
100
AcDbEntity
  8
0
 62
    48
100
AcDbLine
 10
974.4731480987919
 20
-5.979302689740654
 30
0.0
 11
974.4735228691906
 21
-8.3316923812549
 31
0.0
  0
LINE
  5
333
330
1F
100
AcDbEntity
  8
0
 62
    48
100
AcDbLine
 10
967.4735229580247
 20
-8.332807584559536
 30
0.0
 11
971.2735229658455
 21
-8.332202188470976
 31
0.0
  0
LINE
  5
334
330
1F
100
AcDbEntity
  8
0
 62
    48
100
AcDbLine
 10
965.4718183154974
 20
2.366873650135302
 30
0.0
 11
965.4732043538903
 21
-6.333126239456501
 31
0.0
  0
LINE
  5
335
330
1F
100
AcDbEntity
  8
0
 62
    48
100
AcDbLine
 10
971.2714996460098
 20
4.367797650354801
 30
0.0
 11
967.4714996606007
 21
4.367192254269792
 31
0.0
  0
LINE
  5
336
330
1F
100
AcDbEntity
  8
0
 62
    48
100
AcDbLine
 10
974.4714995717665
 20
4.368307457574292
 30
0.0
 11
974.4718735807294
 21
2.020697208733927
 31
0.0
  0
LINE
  5
337
330
1F
100
AcDbEntity
  8
0
 62
    48
100
AcDbLine
 10
986.3096434693126
 20
2.022583140200574
 30
0.0
 11
974.4718735807294
 21
2.020697208733928
 31
0.0
  0
LINE
  5
338
330
1F
100
AcDbEntity
  8
0
 62
    48
100
AcDbLine
 10
986.3096434693126
 20
18.01980003183746
 30
0.0
 11
986.3096434693126
 21
2.022583140200575
 31
0.0
  0
LINE
  5
339
330
1F
100
AcDbEntity
  8
0
 62
    48
100
AcDbLine
 10
1292.35964346931
 20
148.0799999999985
 30
0.0
 11
1302.359643469309
 21
148.0799999999985
 31
0.0
  0
ARC
  5
33A
330
1F
100
AcDbEntity
  8
0
 62
    48
100
AcDbCircle
 10
1315.959643469309
 20
171.9299999999984
 30
0.0000000000000005
 40
1.599999999999904
100
AcDbArc
 50
0.0000000000001145
 51
179.9999999999864
  0
ARC
  5
33B
330
1F
100
AcDbEntity
  8
0
 62
    48
100
AcDbCircle
 10
1315.959643469309
 20
159.2299999999982
 30
0.0000000000000054
 40
1.599999999999968
100
AcDbArc
 50
180.0000000000001
 51
0.0000000000025953
  0
ARC
  5
33C
330
1F
100
AcDbEntity
  8
0
 62
    48
100
AcDbCircle
 10
1317.359286938619
 20
162.0799999999987
 30
0.0000000000000043
 40
50.0
100
AcDbArc
 50
269.9999999999987
 51
0.0000000000001018
  0
ARC
  5
33D
330
1F
100
AcDbEntity
  8
0
 62
    48
100
AcDbCircle
 10
1355.209643469309
 20
184.0799999999984
 30
-0.0000000000000047
 40
2.0
100
AcDbArc
 50
270.0000000000002
 51
0.0000000000082949
  0
ARC
  5
33E
330
1F
100
AcDbEntity
  8
0
 62
    48
100
AcDbCircle
 10
1346.509643469309
 20
184.0799999999985
 30
-0.0000000000000046
 40
2.0
100
AcDbArc
 50
180.0000000000001
 51
270.0000000000319
  0
ARC
  5
33F
330
1F
100
AcDbEntity
  8
0
 62
    48
100
AcDbCircle
 10
1321.359643469309
 20
169.9299999999984
 30
0.0000000000000012
 40
2.0
100
AcDbArc
 50
0.0000000000001527
 51
89.99999999999343
  0
ARC
  5
340
330
1F
100
AcDbEntity
  8
0
 62
    48
100
AcDbCircle
 10
1321.359643469309
 20
161.2299999999985
 30
0.0000000000000046
 40
2.0
100
AcDbArc
 50
270.0000000000002
 51
0.0000000000088547
  0
ARC
  5
341
330
1F
100
AcDbEntity
  8
0
 62
    48
100
AcDbCircle
 10
1292.35964346931
 20
114.0799999999985
 30
-0.0000000000000045
 40
2.0
100
AcDbArc
 50
179.9999999999892
 51
270.0000000000001
  0
ARC
  5
342
330
1F
100
AcDbEntity
  8
0
 62
    48
100
AcDbCircle
 10
1292.35964346931
 20
146.0799999999985
 30
-0.0000000000000031
 40
2.0
100
AcDbArc
 50
89.99999999996865
 51
180.0000000000002
  0
ARC
  5
343
330
1F
100
AcDbEntity
  8
0
 62
    48
100
AcDbCircle
 10
1304.359643469309
 20
213.0799999999984
 30
-0.0000000000000015
 40
2.0
100
AcDbArc
 50
89.99999999996834
 51
180.0000000000002
  0
ARC
  5
344
330
1F
100
AcDbEntity
  8
0
 62
    48
100
AcDbCircle
 10
1337.359643469309
 20
213.0799999999984
 30
-0.0000000000000019
 40
2.0
100
AcDbArc
 50
359.9999999999927
 51
90.0000000000001
  0
LINE
  5
345
330
1F
100
AcDbEntity
  8
0
 62
    48
100
AcDbLine
 10
1337.359643469309
 20
215.0799999999985
 30
0.0
 11
1304.359643469309
 21
215.0799999999984
 31
0.0
  0
LINE
  5
346
330
1F
100
AcDbEntity
  8
0
 62
    48
100
AcDbLine
 10
1302.35964346931
 20
169.5799999999983
 30
0.0
 11
1302.359643469309
 21
213.0799999999984
 31
0.0
  0
LINE
  5
347
330
1F
100
AcDbEntity
  8
0
 62
    48
100
AcDbLine
 10
1314.359643469309
 20
169.5799999999983
 30
0.0
 11
1302.359643469309
 21
169.5799999999983
 31
0.0
  0
LINE
  5
348
330
1F
100
AcDbEntity
  8
0
 62
    48
100
AcDbLine
 10
1314.35964346931
 20
171.9299999999984
 30
0.0
 11
1314.35964346931
 21
169.5799999999985
 31
0.0
  0
LINE
  5
349
330
1F
100
AcDbEntity
  8
0
 62
    48
100
AcDbLine
 10
1321.359643469309
 20
171.9299999999985
 30
0.0
 11
1317.559643469309
 21
171.9299999999984
 31
0.0
  0
LINE
  5
34A
330
1F
100
AcDbEntity
  8
0
 62
    48
100
AcDbLine
 10
1323.35964346931
 20
161.2299999999985
 30
0.0
 11
1323.359643469309
 21
169.9299999999984
 31
0.0
  0
LINE
  5
34B
330
1F
100
AcDbEntity
  8
0
 62
    48
100
AcDbLine
 10
1317.559643469309
 20
159.2299999999985
 30
0.0
 11
1321.359643469309
 21
159.2299999999985
 31
0.0
  0
LINE
  5
34C
330
1F
100
AcDbEntity
  8
0
 62
    48
100
AcDbLine
 10
1314.35964346931
 20
161.5799999999988
 30
0.0
 11
1314.35964346931
 21
159.2299999999982
 31
0.0
  0
LINE
  5
34D
330
1F
100
AcDbEntity
  8
0
 62
    48
100
AcDbLine
 10
1302.35964346931
 20
161.5799999999987
 30
0.0
 11
1314.35964346931
 21
161.5799999999988
 31
0.0
  0
LINE
  5
34E
330
1F
100
AcDbEntity
  8
0
 62
    48
100
AcDbLine
 10
1302.359643469309
 20
148.0799999999987
 30
0.0
 11
1302.35964346931
 21
161.5799999999986
 31
0.0
  0
LINE
  5
34F
330
1F
100
AcDbEntity
  8
0
 62
    48
100
AcDbLine
 10
1290.35964346931
 20
114.0799999999985
 30
0.0
 11
1290.359643469309
 21
146.0799999999985
 31
0.0
  0
LINE
  5
350
330
1F
100
AcDbEntity
  8
0
 62
    48
100
AcDbLine
 10
1317.359286938619
 20
112.0799999999986
 30
0.0
 11
1292.35964346931
 21
112.0799999999986
 31
0.0
  0
LINE
  5
351
330
1F
100
AcDbEntity
  8
0
 62
    48
100
AcDbLine
 10
1367.359286938618
 20
203.0799999999986
 30
0.0
 11
1367.359286938618
 21
162.0799999999989
 31
0.0
  0
LINE
  5
352
330
1F
100
AcDbEntity
  8
0
 62
    48
100
AcDbLine
 10
1367.359286938618
 20
203.0799999999985
 30
0.0
 11
1354.859643469309
 21
203.0799999999985
 31
0.0
  0
LINE
  5
353
330
1F
100
AcDbEntity
  8
0
 62
    48
100
AcDbLine
 10
1354.859643469309
 20
191.0799999999983
 30
0.0
 11
1354.859643469309
 21
203.0799999999983
 31
0.0
  0
LINE
  5
354
330
1F
100
AcDbEntity
  8
0
 62
    48
100
AcDbLine
 10
1357.209643469309
 20
191.0799999999985
 30
0.0
 11
1354.859643469309
 21
191.0799999999984
 31
0.0
  0
ARC
  5
355
330
1F
100
AcDbEntity
  8
0
 62
    48
100
AcDbCircle
 10
1357.209643469309
 20
189.4799999999983
 30
-0.0000000000000068
 40
1.599999999999988
100
AcDbArc
 50
270.0000000000021
 51
90.00000000000011
  0
LINE
  5
356
330
1F
100
AcDbEntity
  8
0
 62
    48
100
AcDbLine
 10
1357.209643469309
 20
184.0799999999984
 30
0.0
 11
1357.209643469309
 21
187.8799999999982
 31
0.0
  0
LINE
  5
357
330
1F
100
AcDbEntity
  8
0
 62
    48
100
AcDbLine
 10
1346.509643469309
 20
182.0799999999985
 30
0.0
 11
1355.209643469309
 21
182.0799999999985
 31
0.0
  0
LINE
  5
358
330
1F
100
AcDbEntity
  8
0
 62
    48
100
AcDbLine
 10
1344.509643469309
 20
187.8799999999983
 30
0.0
 11
1344.509643469309
 21
184.0799999999985
 31
0.0
  0
ARC
  5
359
330
1F
100
AcDbEntity
  8
0
 62
    48
100
AcDbCircle
 10
1344.509643469309
 20
189.4799999999983
 30
-0.0000000000000067
 40
1.600000000000044
100
AcDbArc
 50
90.0000000000001
 51
270.0000000000001
  0
LINE
  5
35A
330
1F
100
AcDbEntity
  8
0
 62
    48
100
AcDbLine
 10
1346.859643469309
 20
191.0799999999985
 30
0.0
 11
1344.509643469309
 21
191.0799999999985
 31
0.0
  0
LINE
  5
35B
330
1F
100
AcDbEntity
  8
0
 62
    48
100
AcDbLine
 10
1346.859643469309
 20
203.0799999999984
 30
0.0
 11
1346.859643469309
 21
191.0799999999984
 31
0.0
  0
LINE
  5
35C
330
1F
100
AcDbEntity
  8
0
 62
    48
100
AcDbLine
 10
1346.859643469309
 20
203.0799999999985
 30
0.0
 11
1339.359643469309
 21
203.0799999999984
 31
0.0
  0
LINE
  5
35D
330
1F
100
AcDbEntity
  8
0
 62
    48
100
AcDbLine
 10
1339.359643469309
 20
213.0799999999984
 30
0.0
 11
1339.359643469309
 21
203.0799999999984
 31
0.0
  0
LINE
  5
35E
330
1F
100
AcDbEntity
  8
0
 62
    48
100
AcDbLine
 10
1296.549643469309
 20
20.82999999999848
 30
0.0
 11
1306.549643469309
 21
20.8299999999985
 31
0.0
  0
ARC
  5
35F
330
1F
100
AcDbEntity
  8
0
 62
    48
100
AcDbCircle
 10
1320.149643469309
 20
44.67999999999838
 30
-0.0000000000000056
 40
1.599999999999904
100
AcDbArc
 50
0.0000000000001145
 51
179.9999999999853
  0
ARC
  5
360
330
1F
100
AcDbEntity
  8
0
 62
    48
100
AcDbCircle
 10
1320.149643469309
 20
31.97999999999822
 30
-0.0000000000000007
 40
1.599999999999968
100
AcDbArc
 50
180.0000000000001
 51
0.0000000000016793
  0
ARC
  5
361
330
1F
100
AcDbEntity
  8
0
 62
    48
100
AcDbCircle
 10
1321.549286938618
 20
34.82999999999869
 30
-0.0000000000000018
 40
50.0
100
AcDbArc
 50
269.9999999999987
 51
0.0000000000001018
  0
ARC
  5
362
330
1F
100
AcDbEntity
  8
0
 62
    48
100
AcDbCircle
 10
1359.399643469309
 20
56.82999999999844
 30
0.000000000000003
 40
2.0
100
AcDbArc
 50
270.0000000000002
 51
0.0000000000086002
  0
ARC
  5
363
330
1F
100
AcDbEntity
  8
0
 62
    48
100
AcDbCircle
 10
1350.699643469309
 20
56.82999999999845
 30
0.0000000000000031
 40
2.0
100
AcDbArc
 50
180.0000000000001
 51
270.0000000000318
  0
ARC
  5
364
330
1F
100
AcDbEntity
  8
0
 62
    48
100
AcDbCircle
 10
1325.549643469309
 20
42.67999999999838
 30
-0.0000000000000049
 40
2.0
100
AcDbArc
 50
0.0000000000001527
 51
89.99999999999568
  0
ARC
  5
365
330
1F
100
AcDbEntity
  8
0
 62
    48
100
AcDbCircle
 10
1325.549643469309
 20
33.97999999999845
 30
-0.0000000000000015
 40
2.0
100
AcDbArc
 50
270.0000000000002
 51
0.0000000000091091
  0
ARC
  5
366
330
1F
100
AcDbEntity
  8
0
 62
    48
100
AcDbCircle
 10
1296.549643469309
 20
-13.17000000000155
 30
0.0000000000000033
 40
2.0
100
AcDbArc
 50
179.9999999999909
 51
270.0000000000001
  0
ARC
  5
367
330
1F
100
AcDbEntity
  8
0
 62
    48
100
AcDbCircle
 10
1296.549643469309
 20
18.82999999999848
 30
0.0000000000000047
 40
2.0
100
AcDbArc
 50
89.99999999996861
 51
180.0000000000002
  0
ARC
  5
368
330
1F
100
AcDbEntity
  8
0
 62
    48
100
AcDbCircle
 10
1308.549643469309
 20
85.82999999999845
 30
0.0000000000000063
 40
2.0
100
AcDbArc
 50
89.99999999996834
 51
180.0000000000002
  0
ARC
  5
369
330
1F
100
AcDbEntity
  8
0
 62
    48
100
AcDbCircle
 10
1341.549643469309
 20
85.8299999999984
 30
0.0000000000000059
 40
2.0
100
AcDbArc
 50
359.99999999999
 51
90.0000000000001
  0
LINE
  5
36A
330
1F
100
AcDbEntity
  8
0
 62
    48
100
AcDbLine
 10
1341.549643469309
 20
87.82999999999846
 30
0.0
 11
1308.549643469309
 21
87.8299999999984
 31
0.0
  0
LINE
  5
36B
330
1F
100
AcDbEntity
  8
0
 62
    48
100
AcDbLine
 10
1306.549643469309
 20
42.32999999999833
 30
0.0
 11
1306.549643469309
 21
85.82999999999844
 31
0.0
  0
LINE
  5
36C
330
1F
100
AcDbEntity
  8
0
 62
    48
100
AcDbLine
 10
1318.549643469309
 20
42.32999999999834
 30
0.0
 11
1306.549643469309
 21
42.3299999999983
 31
0.0
  0
LINE
  5
36D
330
1F
100
AcDbEntity
  8
0
 62
    48
100
AcDbLine
 10
1318.549643469309
 20
44.67999999999839
 30
0.0
 11
1318.549643469309
 21
42.32999999999853
 31
0.0
  0
LINE
  5
36E
330
1F
100
AcDbEntity
  8
0
 62
    48
100
AcDbLine
 10
1325.549643469309
 20
44.67999999999846
 30
0.0
 11
1321.749643469309
 21
44.67999999999844
 31
0.0
  0
LINE
  5
36F
330
1F
100
AcDbEntity
  8
0
 62
    48
100
AcDbLine
 10
1327.549643469309
 20
33.97999999999844
 30
0.0
 11
1327.549643469309
 21
42.67999999999837
 31
0.0
  0
LINE
  5
370
330
1F
100
AcDbEntity
  8
0
 62
    48
100
AcDbLine
 10
1321.749643469309
 20
31.9799999999985
 30
0.0
 11
1325.549643469309
 21
31.97999999999853
 31
0.0
  0
LINE
  5
371
330
1F
100
AcDbEntity
  8
0
 62
    48
100
AcDbLine
 10
1318.549643469309
 20
34.32999999999875
 30
0.0
 11
1318.549643469309
 21
31.97999999999823
 31
0.0
  0
LINE
  5
372
330
1F
100
AcDbEntity
  8
0
 62
    48
100
AcDbLine
 10
1306.549643469309
 20
34.32999999999873
 30
0.0
 11
1318.549643469309
 21
34.32999999999878
 31
0.0
  0
LINE
  5
373
330
1F
100
AcDbEntity
  8
0
 62
    48
100
AcDbLine
 10
1306.549643469309
 20
20.8299999999987
 30
0.0
 11
1306.549643469309
 21
34.32999999999854
 31
0.0
  0
LINE
  5
374
330
1F
100
AcDbEntity
  8
0
 62
    48
100
AcDbLine
 10
1294.549643469309
 20
-13.17000000000154
 30
0.0
 11
1294.549643469309
 21
18.82999999999849
 31
0.0
  0
LINE
  5
375
330
1F
100
AcDbEntity
  8
0
 62
    48
100
AcDbLine
 10
1321.549286938618
 20
-15.17000000000138
 30
0.0
 11
1296.549643469309
 21
-15.17000000000144
 31
0.0
  0
LINE
  5
376
330
1F
100
AcDbEntity
  8
0
 62
    48
100
AcDbLine
 10
1371.549286938618
 20
75.82999999999858
 30
0.0
 11
1371.549286938618
 21
34.82999999999885
 31
0.0
  0
LINE
  5
377
330
1F
100
AcDbEntity
  8
0
 62
    48
100
AcDbLine
 10
1371.549286938618
 20
75.82999999999852
 30
0.0
 11
1359.049643469309
 21
75.82999999999848
 31
0.0
  0
LINE
  5
378
330
1F
100
AcDbEntity
  8
0
 62
    48
100
AcDbLine
 10
1359.049643469309
 20
63.82999999999834
 30
0.0
 11
1359.049643469309
 21
75.82999999999836
 31
0.0
  0
LINE
  5
379
330
1F
100
AcDbEntity
  8
0
 62
    48
100
AcDbLine
 10
1361.399643469309
 20
63.82999999999847
 30
0.0
 11
1359.049643469309
 21
63.82999999999844
 31
0.0
  0
ARC
  5
37A
330
1F
100
AcDbEntity
  8
0
 62
    48
100
AcDbCircle
 10
1361.399643469309
 20
62.22999999999828
 30
0.0000000000000009
 40
1.599999999999988
100
AcDbArc
 50
270.0000000000021
 51
90.00000000000011
  0
LINE
  5
37B
330
1F
100
AcDbEntity
  8
0
 62
    48
100
AcDbLine
 10
1361.399643469309
 20
56.82999999999844
 30
0.0
 11
1361.399643469309
 21
60.62999999999824
 31
0.0
  0
LINE
  5
37C
330
1F
100
AcDbEntity
  8
0
 62
    48
100
AcDbLine
 10
1350.699643469309
 20
54.82999999999853
 30
0.0
 11
1359.399643469309
 21
54.82999999999856
 31
0.0
  0
LINE
  5
37D
330
1F
100
AcDbEntity
  8
0
 62
    48
100
AcDbLine
 10
1348.699643469309
 20
60.62999999999826
 30
0.0
 11
1348.699643469309
 21
56.82999999999846
 31
0.0
  0
ARC
  5
37E
330
1F
100
AcDbEntity
  8
0
 62
    48
100
AcDbCircle
 10
1348.699643469309
 20
62.22999999999831
 30
0.0000000000000011
 40
1.600000000000044
100
AcDbArc
 50
90.0000000000001
 51
270.0000000000001
  0
LINE
  5
37F
330
1F
100
AcDbEntity
  8
0
 62
    48
100
AcDbLine
 10
1351.049643469309
 20
63.82999999999846
 30
0.0
 11
1348.699643469309
 21
63.82999999999846
 31
0.0
  0
LINE
  5
380
330
1F
100
AcDbEntity
  8
0
 62
    48
100
AcDbLine
 10
1351.049643469309
 20
75.82999999999838
 30
0.0
 11
1351.049643469309
 21
63.82999999999835
 31
0.0
  0
LINE
  5
381
330
1F
100
AcDbEntity
  8
0
 62
    48
100
AcDbLine
 10
1351.049643469309
 20
75.82999999999846
 30
0.0
 11
1343.549643469309
 21
75.82999999999846
 31
0.0
  0
LINE
  5
382
330
1F
100
AcDbEntity
  8
0
 62
    48
100
AcDbLine
 10
1343.549643469309
 20
85.8299999999984
 30
0.0
 11
1343.549643469309
 21
75.82999999999839
 31
0.0
  0
ENDSEC
  0
SECTION
  2
OBJECTS
  0
DICTIONARY
  5
C
330
0
100
AcDbDictionary
  3
ACAD_GROUP
350
D
  3
ACAD_LAYOUT
350
1A
  3
ACAD_MATERIAL
350
43
  3
ACAD_MLEADERSTYLE
350
5B
  3
ACAD_MLINESTYLE
350
17
  3
ACAD_PLOTSETTINGS
350
19
  3
ACAD_SCALELIST
350
47
  3
ACAD_VISUALSTYLE
350
2A
  3
ACDBHEADERROUNDTRIPXREC
350
385
  3
ACDBVARIABLEDICTIONARY
350
3A6
  3
DWGPROPS
350
3B1
  0
DICTIONARY
  5
3B2
330
8
100
AcDbDictionary
280
     1
  3
ACAD_XREC_ROUNDTRIP
360
3B3
  0
DICTIONARY
  5
D
102
{ACAD_REACTORS
330
C
102
}
330
C
100
AcDbDictionary
  0
DICTIONARY
  5
1A
102
{ACAD_REACTORS
330
C
102
}
330
C
100
AcDbDictionary
  0
DICTIONARY
  5
43
102
{ACAD_REACTORS
330
C
102
}
330
C
100
AcDbDictionary
  3
BYBLOCK
350
45
  3
BYLAYER
350
44
  3
GLOBAL
350
46
  0
DICTIONARY
  5
5B
102
{ACAD_REACTORS
330
C
102
}
330
C
100
AcDbDictionary
  3
STANDARD
350
5C
  0
DICTIONARY
  5
17
102
{ACAD_REACTORS
330
C
102
}
330
C
100
AcDbDictionary
  3
STANDARD
350
18
  0
DICTIONARY
  5
19
102
{ACAD_REACTORS
330
C
102
}
330
C
100
AcDbDictionary
  0
DICTIONARY
  5
47
102
{ACAD_REACTORS
330
C
102
}
330
C
100
AcDbDictionary
  3
A0
350
48
  3
A1
350
49
  3
A2
350
4A
  3
A3
350
4B
  3
A4
350
4C
  3
A5
350
4D
  3
A6
350
4E
  3
A7
350
4F
  3
A8
350
50
  3
A9
350
51
  3
B0
350
52
  3
B1
350
53
  3
B2
350
54
  3
B3
350
55
  3
B4
350
56
  3
B5
350
57
  3
B6
350
58
  0
DICTIONARY
  5
2A
102
{ACAD_REACTORS
330
C
102
}
330
C
100
AcDbDictionary
  3
2DWIREFRAME
350
2F
  3
BASIC
350
32
  3
BRIGHTEN
350
36
  3
COLORCHANGE
350
3A
  3
CONCEPTUAL
350
34
  3
DIM
350
35
  3
EDGECOLOROFF
350
3D
  3
FACEPATTERN
350
39
  3
FLAT
350
2B
  3
FLATWITHEDGES
350
2C
  3
GOURAUD
350
2D
  3
GOURAUDWITHEDGES
350
2E
  3
HIDDEN
350
31
  3
JITTEROFF
350
3B
  3
LINEPATTERN
350
38
  3
OVERHANGOFF
350
3C
  3
REALISTIC
350
33
  3
SHADED
350
42
  3
SHADED_WITH_EDGES
350
41
  3
SHADES_OF_GRAY
350
3E
  3
SKETCHY
350
3F
  3
THICKEN
350
37
  3
WIREFRAME
350
30
  3
X-RAY
350
40
  0
DICTIONARY
  5
385
102
{ACAD_REACTORS
330
C
102
}
330
C
100
AcDbDictionary
  3
CEPSNID
350
38F
  3
CEPSNTYPE
350
38E
  3
DIMSTYLEDATA
350
3A5
  3
FINGERPRINTGUID
350
390
  3
HYPERLINKBASE
350
388
  3
INSUNITS
350
38D
  3
LAYOUTDICT
350
38A
  3
LWETCUNION
350
38C
  3
PLOTSETDICT
350
38B
  3
PSVPSCALE
350
392
  3
PUCSBASE
350
395
  3
PUCSORGBACK
350
39B
  3
PUCSORGBOTTOM
350
397
  3
PUCSORGFRONT
350
39A
  3
PUCSORGLEFT
350
398
  3
PUCSORGRIGHT
350
399
  3
PUCSORGTOP
350
396
  3
PUCSORTHOREF
350
393
  3
PUCSORTHOVIEW
350
394
  3
STYLESHEET
350
389
  3
TSTACKALIGN
350
386
  3
TSTACKSIZE
350
387
  3
UCSBASE
350
39E
  3
UCSORGBACK
350
3A4
  3
UCSORGBOTTOM
350
3A0
  3
UCSORGFRONT
350
3A3
  3
UCSORGLEFT
350
3A1
  3
UCSORGRIGHT
350
3A2
  3
UCSORGTOP
350
39F
  3
UCSORTHOREF
350
39C
  3
UCSORTHOVIEW
350
39D
  3
VERSIONGUID
350
391
  0
DICTIONARY
  5
3A6
102
{ACAD_REACTORS
330
C
102
}
330
C
100
AcDbDictionary
  3
CANNOSCALE
350
3B4
  3
CENTEREXE
350
3AD
  3
CENTERLTYPEFILE
350
3AE
  3
CMLEADERSTYLE
350
3A8
  3
CTABLESTYLE
350
3A7
  3
DIMASSOC
350
3AF
  3
HIDETEXT
350
3B0
  3
MSLTSCALE
350
3B5
  3
PSOLHEIGHT
350
3AA
  3
PSOLWIDTH
350
3A9
  0
XRECORD
  5
3B1
102
{ACAD_REACTORS
330
C
102
}
330
C
100
AcDbXrecord
  1
DWGPROPS COOKIE
  2

  3

  4

  6
File was created by SpaceClaim
  7

  8
rlwoo
  9

300
=
301
=
302
=
303
=
304
=
305
=
306
=
307
=
308
=
309
=
 40
0.0
 41
2460227.800825417
 42
2460227.80082662
  1

 90
        0
  0
XRECORD
  5
3B3
102
{ACAD_REACTORS
330
3B2
102
}
330
3B2
100
AcDbXrecord
102
VTR_0.000_0.000_1.000_1.000_VISUALSTYLE
340
2F
102
VTR_0.000_0.000_1.000_1.000_GRIDDISPLAY
 70
     3
102
VTR_0.000_0.000_1.000_1.000_GRIDMAJOR
 70
     5
102
VTR_0.000_0.000_1.000_1.000_DEFAULTLIGHTING
280
     1
102
VTR_0.000_0.000_1.000_1.000_DEFAULTLIGHTINGTYPE
 70
     1
102
VTR_0.000_0.000_1.000_1.000_BRIGHTNESS
141
0.0
102
VTR_0.000_0.000_1.000_1.000_CONTRAST
142
0.0
  0
MATERIAL
  5
45
102
{ACAD_REACTORS
330
43
102
}
102
{ACAD_XDICTIONARY
360
3B8
102
}
330
43
100
AcDbMaterial
  1
BYBLOCK
  0
MATERIAL
  5
44
102
{ACAD_REACTORS
330
43
102
}
102
{ACAD_XDICTIONARY
360
3B6
102
}
330
43
100
AcDbMaterial
  1
BYLAYER
  0
MATERIAL
  5
46
102
{ACAD_REACTORS
330
43
102
}
102
{ACAD_XDICTIONARY
360
3BA
102
}
330
43
100
AcDbMaterial
  1
GLOBAL
  0
ACAD_PROXY_OBJECT
  5
5C
102
{ACAD_REACTORS
330
5B
102
}
330
5B
100
AcDbProxyObject
 90
      499
 91
      505
 93
      610
310
40901902A4063FBFFFFFE0000000000000020400000000000020404214DD185B99185C990000000000000104090141901A00000000000004100000000000000041025764000000000000039000
340
14
340
0
340
11
340
0
 94
        0
1001
ACAD_MLEADERVER
1070
     2
  0
MLINESTYLE
  5
18
102
{ACAD_REACTORS
330
17
102
}
330
17
100
AcDbMlineStyle
  2
Standard
 70
     0
  3

 62
   256
 51
90.0
 52
90.0
 71
     2
 49
0.5
 62
   256
  6
BYLAYER
 49
-0.5
 62
   256
  6
BYLAYER
  0
ACAD_PROXY_OBJECT
  5
48
102
{ACAD_REACTORS
330
47
102
}
330
47
100
AcDbProxyObject
 90
      499
 91
      503
 93
       41
310
903313A31580
  0
ACAD_PROXY_OBJECT
  5
49
102
{ACAD_REACTORS
330
47
102
}
330
47
100
AcDbProxyObject
 90
      499
 91
      503
 93
      105
310
903313A324000000000000004000
  0
ACAD_PROXY_OBJECT
  5
4A
102
{ACAD_REACTORS
330
47
102
}
330
47
100
AcDbProxyObject
 90
      499
 91
      503
 93
      105
310
903313A344000000000000104000
  0
ACAD_PROXY_OBJECT
  5
4B
102
{ACAD_REACTORS
330
47
102
}
330
47
100
AcDbProxyObject
 90
      499
 91
      503
 93
      105
310
903313A354000000000000144000
  0
ACAD_PROXY_OBJECT
  5
4C
102
{ACAD_REACTORS
330
47
102
}
330
47
100
AcDbProxyObject
 90
      499
 91
      503
 93
      105
310
903313A384000000000000204000
  0
ACAD_PROXY_OBJECT
  5
4D
102
{ACAD_REACTORS
330
47
102
}
330
47
100
AcDbProxyObject
 90
      499
 91
      503
 93
      113
310
904313A31304000000000000244000
  0
ACAD_PROXY_OBJECT
  5
4E
102
{ACAD_REACTORS
330
47
102
}
330
47
100
AcDbProxyObject
 90
      499
 91
      503
 93
      113
310
904313A31364000000000000304000
  0
ACAD_PROXY_OBJECT
  5
4F
102
{ACAD_REACTORS
330
47
102
}
330
47
100
AcDbProxyObject
 90
      499
 91
      503
 93
      113
310
904313A32304000000000000344000
  0
ACAD_PROXY_OBJECT
  5
50
102
{ACAD_REACTORS
330
47
102
}
330
47
100
AcDbProxyObject
 90
      499
 91
      503
 93
      113
310
904313A333040000000000003E4000
  0
ACAD_PROXY_OBJECT
  5
51
102
{ACAD_REACTORS
330
47
102
}
330
47
100
AcDbProxyObject
 90
      499
 91
      503
 93
      113
310
904313A34304000000000000444000
  0
ACAD_PROXY_OBJECT
  5
52
102
{ACAD_REACTORS
330
47
102
}
330
47
100
AcDbProxyObject
 90
      499
 91
      503
 93
      113
310
904313A35304000000000000494000
  0
ACAD_PROXY_OBJECT
  5
53
102
{ACAD_REACTORS
330
47
102
}
330
47
100
AcDbProxyObject
 90
      499
 91
      503
 93
      121
310
905313A3130304000000000000594000
  0
ACAD_PROXY_OBJECT
  5
54
102
{ACAD_REACTORS
330
47
102
}
330
47
100
AcDbProxyObject
 90
      499
 91
      503
 93
      105
310
903323A310000000000000010100
  0
ACAD_PROXY_OBJECT
  5
55
102
{ACAD_REACTORS
330
47
102
}
330
47
100
AcDbProxyObject
 90
      499
 91
      503
 93
      105
310
903343A310000000000000410100
  0
ACAD_PROXY_OBJECT
  5
56
102
{ACAD_REACTORS
330
47
102
}
330
47
100
AcDbProxyObject
 90
      499
 91
      503
 93
      105
310
903383A310000000000000810100
  0
ACAD_PROXY_OBJECT
  5
57
102
{ACAD_REACTORS
330
47
102
}
330
47
100
AcDbProxyObject
 90
      499
 91
      503
 93
      113
310
90431303A310000000000000910100
  0
ACAD_PROXY_OBJECT
  5
58
102
{ACAD_REACTORS
330
47
102
}
330
47
100
AcDbProxyObject
 90
      499
 91
      503
 93
      121
310
9053130303A310000000000001650100
  0
ACAD_PROXY_OBJECT
  5
2F
102
{ACAD_REACTORS
330
2A
102
}
330
2A
100
AcDbProxyObject
 90
      499
 91
      501
 93
      436
310
42CC9915DA5C99599C985B595049028333333333333E33F0000000000000F90107901411070040501600405405064090741402480A0340
1001
ACAD
1000
AcDbSavedByObjectVersion
1070
     0
  0
ACAD_PROXY_OBJECT
  5
32
102
{ACAD_REACTORS
330
2A
102
}
330
2A
100
AcDbProxyObject
 90
      499
 91
      501
 93
      388
310
4150985CDA58D07406404333333333333E33F0000000000000F90107A41107004050150841D405064090741402480A0350
1001
ACAD
1000
AcDbSavedByObjectVersion
1070
     0
  0
ACAD_PROXY_OBJECT
  5
36
102
{ACAD_REACTORS
330
2A
102
}
330
2A
100
AcDbProxyObject
 90
      499
 91
      501
 93
      428
310
42109C9A59DA1D195B90C409028333333333333E33F0000000000000F9010790141107004050150841D405064090741402480A029950
1001
ACAD
1000
AcDbSavedByObjectVersion
1070
     0
  0
ACAD_PROXY_OBJECT
  5
3A
102
{ACAD_REACTORS
330
2A
102
}
330
2A
100
AcDbProxyObject
 90
      499
 91
      501
 93
      452
310
42D0DBDB1BDC90DA185B99D95104090240C333333333333E33F0000000000000F90108901411070040501508421405064090741402480A0350
1001
ACAD
1000
AcDbSavedByObjectVersion
1070
     0
  0
ACAD_PROXY_OBJECT
  5
34
102
{ACAD_REACTORS
330
2A
102
}
330
2A
100
AcDbProxyObject
 90
      499
 91
      501
 93
      500
310
4290DBDB98D95C1D1D585B10940D028333333333333E33F0000000000000F90107902409070040501000000000018199010841D405064090740C02480A0340
1001
ACAD
1000
AcDbSavedByObjectVersion
1070
     0
  0
ACAD_PROXY_OBJECT
  5
35
102
{ACAD_REACTORS
330
2A
102
}
330
2A
100
AcDbProxyObject
 90
      499
 91
      501
 93
      412
310
40D11A5B50B409028333333333333E33F0000000000000F9010790141107004050150841D405064090741402480A02677FFFFFD0
1001
ACAD
1000
AcDbSavedByObjectVersion
1070
     0
  0
ACAD_PROXY_OBJECT
  5
3D
102
{ACAD_REACTORS
330
2A
102
}
330
2A
100
AcDbProxyObject
 90
      499
 91
      501
 93
      452
310
43115919D950DBDB1BDC93D999916409028333333333333E33F0000000000000F9010790141107004050150841D405064090741402480A0350
1001
ACAD
1000
AcDbSavedByObjectVersion
1070
     0
  0
ACAD_PROXY_OBJECT
  5
39
102
{ACAD_REACTORS
330
2A
102
}
330
2A
100
AcDbProxyObject
 90
      499
 91
      501
 93
      444
310
42D19858D95C185D1D195C9B90F409028333333333333E33F0000000000000F9010790141107004050150841D405064090741402480A0350
1001
ACAD
1000
AcDbSavedByObjectVersion
1070
     0
  0
ACAD_PROXY_OBJECT
  5
2B
102
{ACAD_REACTORS
330
2A
102
}
330
2A
100
AcDbProxyObject
 90
      499
 91
      501
 93
      380
310
41119B185D240901404333333333333E33F0000000000000F9010740A907004050150841D405064090741402480A1B50
1001
ACAD
1000
AcDbSavedByObjectVersion
1070
     0
  0
ACAD_PROXY_OBJECT
  5
2C
102
{ACAD_REACTORS
330
2A
102
}
330
2A
100
AcDbProxyObject
 90
      499
 91
      501
 93
      468
310
43519B185D15DA5D1A115919D95CD0140901404333333333333E33F0000000000000F90107409019070040501600405405064090741402480A1B50
1001
ACAD
1000
AcDbSavedByObjectVersion
1070
     0
  0
ACAD_PROXY_OBJECT
  5
2D
102
{ACAD_REACTORS
330
2A
102
}
330
2A
100
AcDbProxyObject
 90
      499
 91
      501
 93
      404
310
41D1DBDD5C985D5910240902404333333333333E33F0000000000000F9010740A9070040501641D405064090741402480A1B50
1001
ACAD
1000
AcDbSavedByObjectVersion
1070
     0
  0
ACAD_PROXY_OBJECT
  5
2E
102
{ACAD_REACTORS
330
2A
102
}
330
2A
100
AcDbProxyObject
 90
      499
 91
      501
 93
      492
310
4411DBDD5C985D5915DA5D1A115919D95CD0340902404333333333333E33F0000000000000F90107409019070040501600405405064090741402480A1B50
1001
ACAD
1000
AcDbSavedByObjectVersion
1070
     0
  0
ACAD_PROXY_OBJECT
  5
31
102
{ACAD_REACTORS
330
2A
102
}
330
2A
100
AcDbProxyObject
 90
      499
 91
      501
 93
      476
310
41921A5919195B90640502408333333333333E33F0000000000000F901079024090700405020000000000001110200405405064090740C02480A0340
1001
ACAD
1000
AcDbSavedByObjectVersion
1070
     0
  0
ACAD_PROXY_OBJECT
  5
3B
102
{ACAD_REACTORS
330
2A
102
}
330
2A
100
AcDbProxyObject
 90
      499
 91
      501
 93
      428
310
42529A5D1D195C93D999914409028333333333333E33F0000000000000F9010790141107004050150A41D405064090741402480A0350
1001
ACAD
1000
AcDbSavedByObjectVersion
1070
     0
  0
ACAD_PROXY_OBJECT
  5
38
102
{ACAD_REACTORS
330
2A
102
}
330
2A
100
AcDbProxyObject
 90
      499
 91
      501
 93
      444
310
42D31A5B995C185D1D195C9B90E409028333333333333E33F0000000000000F9010790141107004050750841D405064090741402483A0350
1001
ACAD
1000
AcDbSavedByObjectVersion
1070
     0
  0
ACAD_PROXY_OBJECT
  5
3C
102
{ACAD_REACTORS
330
2A
102
}
330
2A
100
AcDbProxyObject
 90
      499
 91
      501
 93
      444
310
42D3DD995C9A185B99D3D999915409028333333333333E33F0000000000000F9010790141107004050150941D405064090741402480A0350
1001
ACAD
1000
AcDbSavedByObjectVersion
1070
     0
  0
ACAD_PROXY_OBJECT
  5
33
102
{ACAD_REACTORS
330
2A
102
}
330
2A
100
AcDbProxyObject
 90
      499
 91
      501
 93
      428
310
425499585B1A5CDD1A58D08409038333333333333E33F0000000000000F9010740A907004050150800405405064090740C02480A1B40
1001
ACAD
1000
AcDbSavedByObjectVersion
1070
     0
  0
ACAD_PROXY_OBJECT
  5
42
102
{ACAD_REACTORS
330
2A
102
}
330
2A
100
AcDbProxyObject
 90
      499
 91
      501
 93
      420
310
4194DA1859195911B40902404333333333333E33F0000000000000F9010740A41107004050150800405405064090840C02480A0B40
1001
ACAD
1000
AcDbSavedByObjectVersion
1070
     0
  0
ACAD_PROXY_OBJECT
  5
41
102
{ACAD_REACTORS
330
2A
102
}
330
2A
100
AcDbProxyObject
 90
      499
 91
      501
 93
      516
310
4454DA18591959081DDA5D1A08195919D95CD1A40902404333333333333E33F0000000000000F901074090142907004050250800405405064090740C02480A0B40
1001
ACAD
1000
AcDbSavedByObjectVersion
1070
     0
  0
ACAD_PROXY_OBJECT
  5
3E
102
{ACAD_REACTORS
330
2A
102
}
330
2A
100
AcDbProxyObject
 90
      499
 91
      501
 93
      532
310
4394DA1859195CC81BD98811DC985E5174090240C333333333333E33F0000000000000F901079024090741D01000000000000111010841D405064090740C02480A0340
1001
ACAD
1000
AcDbSavedByObjectVersion
1070
     0
  0
ACAD_PROXY_OBJECT
  5
3F
102
{ACAD_REACTORS
330
2A
102
}
330
2A
100
AcDbProxyObject
 90
      499
 91
      501
 93
      476
310
41D4DAD95D18DA1E51840502408333333333333E33F0000000000000F901079024090741D01000000000000111010B41D405064090741802480A0340
1001
ACAD
1000
AcDbSavedByObjectVersion
1070
     0
  0
ACAD_PROXY_OBJECT
  5
37
102
{ACAD_REACTORS
330
2A
102
}
330
2A
100
AcDbProxyObject
 90
      499
 91
      501
 93
      412
310
41D51A1A58DAD95B90D409028333333333333E33F0000000000000F9010790141107004050150C41D405064090741402480A0350
1001
ACAD
1000
AcDbSavedByObjectVersion
1070
     0
  0
ACAD_PROXY_OBJECT
  5
30
102
{ACAD_REACTORS
330
2A
102
}
330
2A
100
AcDbProxyObject
 90
      499
 91
      501
 93
      420
310
4255DA5C99599C985B595059028333333333333E33F0000000000000F90107901411070040501600405405064090740C02480A0340
1001
ACAD
1000
AcDbSavedByObjectVersion
1070
     0
  0
ACAD_PROXY_OBJECT
  5
40
102
{ACAD_REACTORS
330
2A
102
}
330
2A
100
AcDbProxyObject
 90
      499
 91
      501
 93
      404
310
41560B54985E51940902404000000000000E03F0000000000000F9010740501907004050150841D405064090740C02480A1B40
1001
ACAD
1000
AcDbSavedByObjectVersion
1070
     0
  0
XRECORD
  5
38F
102
{ACAD_REACTORS
330
385
102
}
330
385
100
AcDbXrecord
340
0
  0
XRECORD
  5
38E
102
{ACAD_REACTORS
330
385
102
}
330
385
100
AcDbXrecord
 90
        0
  0
XRECORD
  5
3A5
102
{ACAD_REACTORS
330
385
102
}
330
385
100
AcDbXrecord
1000
DSTYLE
1002
{
1070
   179
 70
     1
1070
   143
 40
0.0393700787401575
1070
   286
 70
     8
1070
   278
 70
    46
1070
     3
  1
mm
1070
    73
 70
     1
1070
   340
340
11
1002
}
  0
XRECORD
  5
390
102
{ACAD_REACTORS
330
385
102
}
330
385
100
AcDbXrecord
  1
{0cfea427-eab3-4396-a260-ebc85a20ded8}
  0
XRECORD
  5
388
102
{ACAD_REACTORS
330
385
102
}
330
385
100
AcDbXrecord
  1

  0
XRECORD
  5
38D
102
{ACAD_REACTORS
330
385
102
}
330
385
100
AcDbXrecord
 90
        4
  0
XRECORD
  5
38A
102
{ACAD_REACTORS
330
385
102
}
330
385
100
AcDbXrecord
340
1A
  0
XRECORD
  5
38C
102
{ACAD_REACTORS
330
385
102
}
330
385
100
AcDbXrecord
 90
    10781
  0
XRECORD
  5
38B
102
{ACAD_REACTORS
330
385
102
}
330
385
100
AcDbXrecord
340
19
  0
XRECORD
  5
392
102
{ACAD_REACTORS
330
385
102
}
330
385
100
AcDbXrecord
 40
0.0
  0
XRECORD
  5
395
102
{ACAD_REACTORS
330
385
102
}
330
385
100
AcDbXrecord
340
0
  0
XRECORD
  5
39B
102
{ACAD_REACTORS
330
385
102
}
330
385
100
AcDbXrecord
 10
0.0
 20
0.0
 30
0.0
  0
XRECORD
  5
397
102
{ACAD_REACTORS
330
385
102
}
330
385
100
AcDbXrecord
 10
0.0
 20
0.0
 30
0.0
  0
XRECORD
  5
39A
102
{ACAD_REACTORS
330
385
102
}
330
385
100
AcDbXrecord
 10
0.0
 20
0.0
 30
0.0
  0
XRECORD
  5
398
102
{ACAD_REACTORS
330
385
102
}
330
385
100
AcDbXrecord
 10
0.0
 20
0.0
 30
0.0
  0
XRECORD
  5
399
102
{ACAD_REACTORS
330
385
102
}
330
385
100
AcDbXrecord
 10
0.0
 20
0.0
 30
0.0
  0
XRECORD
  5
396
102
{ACAD_REACTORS
330
385
102
}
330
385
100
AcDbXrecord
 10
0.0
 20
0.0
 30
0.0
  0
XRECORD
  5
393
102
{ACAD_REACTORS
330
385
102
}
330
385
100
AcDbXrecord
340
0
  0
XRECORD
  5
394
102
{ACAD_REACTORS
330
385
102
}
330
385
100
AcDbXrecord
 70
     0
  0
XRECORD
  5
389
102
{ACAD_REACTORS
330
385
102
}
330
385
100
AcDbXrecord
  1

  0
XRECORD
  5
386
102
{ACAD_REACTORS
330
385
102
}
330
385
100
AcDbXrecord
 90
        1
  0
XRECORD
  5
387
102
{ACAD_REACTORS
330
385
102
}
330
385
100
AcDbXrecord
 90
       70
  0
XRECORD
  5
39E
102
{ACAD_REACTORS
330
385
102
}
330
385
100
AcDbXrecord
340
0
  0
XRECORD
  5
3A4
102
{ACAD_REACTORS
330
385
102
}
330
385
100
AcDbXrecord
 10
0.0
 20
0.0
 30
0.0
  0
XRECORD
  5
3A0
102
{ACAD_REACTORS
330
385
102
}
330
385
100
AcDbXrecord
 10
0.0
 20
0.0
 30
0.0
  0
XRECORD
  5
3A3
102
{ACAD_REACTORS
330
385
102
}
330
385
100
AcDbXrecord
 10
0.0
 20
0.0
 30
0.0
  0
XRECORD
  5
3A1
102
{ACAD_REACTORS
330
385
102
}
330
385
100
AcDbXrecord
 10
0.0
 20
0.0
 30
0.0
  0
XRECORD
  5
3A2
102
{ACAD_REACTORS
330
385
102
}
330
385
100
AcDbXrecord
 10
0.0
 20
0.0
 30
0.0
  0
XRECORD
  5
39F
102
{ACAD_REACTORS
330
385
102
}
330
385
100
AcDbXrecord
 10
0.0
 20
0.0
 30
0.0
  0
XRECORD
  5
39C
102
{ACAD_REACTORS
330
385
102
}
330
385
100
AcDbXrecord
340
0
  0
XRECORD
  5
39D
102
{ACAD_REACTORS
330
385
102
}
330
385
100
AcDbXrecord
 70
     0
  0
XRECORD
  5
391
102
{ACAD_REACTORS
330
385
102
}
330
385
100
AcDbXrecord
  1
{FAEB1C32-E019-11D5-929B-00C0DF256EC4}
  0
DICTIONARYVAR
  5
3B4
102
{ACAD_REACTORS
330
3A6
102
}
330
3A6
100
DictionaryVariables
280
     0
  1
1:1
  0
DICTIONARYVAR
  5
3AD
102
{ACAD_REACTORS
330
3A6
102
}
330
3A6
100
DictionaryVariables
280
     0
  1
3.500000
  0
DICTIONARYVAR
  5
3AE
102
{ACAD_REACTORS
330
3A6
102
}
330
3A6
100
DictionaryVariables
280
     0
  1
acadiso.lin
  0
DICTIONARYVAR
  5
3A8
102
{ACAD_REACTORS
330
3A6
102
}
330
3A6
100
DictionaryVariables
280
     0
  1
Standard
  0
DICTIONARYVAR
  5
3A7
102
{ACAD_REACTORS
330
3A6
102
}
330
3A6
100
DictionaryVariables
280
     0
  1
Standard
  0
DICTIONARYVAR
  5
3AF
102
{ACAD_REACTORS
330
3A6
102
}
330
3A6
100
DictionaryVariables
280
     0
  1
2
  0
DICTIONARYVAR
  5
3B0
102
{ACAD_REACTORS
330
3A6
102
}
330
3A6
100
DictionaryVariables
280
     0
  1
1
  0
DICTIONARYVAR
  5
3B5
102
{ACAD_REACTORS
330
3A6
102
}
330
3A6
100
DictionaryVariables
280
     0
  1
1
  0
DICTIONARYVAR
  5
3AA
102
{ACAD_REACTORS
330
3A6
102
}
330
3A6
100
DictionaryVariables
280
     0
  1
80.000000
  0
DICTIONARYVAR
  5
3A9
102
{ACAD_REACTORS
330
3A6
102
}
330
3A6
100
DictionaryVariables
280
     0
  1
5.000000
  0
DICTIONARY
  5
3B8
330
45
100
AcDbDictionary
280
     1
  3
ACAD_XREC_ROUNDTRIP
360
3B9
  0
DICTIONARY
  5
3B6
330
44
100
AcDbDictionary
280
     1
  3
ACAD_XREC_ROUNDTRIP
360
3B7
  0
DICTIONARY
  5
3BA
330
46
100
AcDbDictionary
280
     1
  3
ACAD_XREC_ROUNDTRIP
360
3BB
  0
XRECORD
  5
3B9
102
{ACAD_REACTORS
330
3B8
102
}
330
3B8
100
AcDbXrecord
102
MATERIAL
148
0.0
149
0.0
149
0.0
 93
        0
 94
      127
282
     0
 72
     1
 77
     1
171
     1
175
     1
179
     1
273
     0
  0
XRECORD
  5
3B7
102
{ACAD_REACTORS
330
3B6
102
}
330
3B6
100
AcDbXrecord
102
MATERIAL
148
0.0
149
0.0
149
0.0
 93
        0
 94
      127
282
     0
 72
     1
 77
     1
171
     1
175
     1
179
     1
273
     0
  0
XRECORD
  5
3BB
102
{ACAD_REACTORS
330
3BA
102
}
330
3BA
100
AcDbXrecord
102
MATERIAL
148
0.0
149
0.0
149
0.0
 93
        0
 94
      127
282
     0
 72
     1
 77
     1
171
     1
175
     1
179
     1
273
     0
  0
ENDSEC
  0
EOF
