  0
SECTION
  2
HEADER
  9
$ACADVER
  1
AC1009
  9
$DWGCODEPAGE
  3
ansi_1252
  9
$INSBASE
 10
0.0
 20
0.0
 30
0.0
  9
$EXTMIN
 10
-1274.964157834343
 20
-407.0699999999991
 30
-454.6699970960619
  9
$EXTMAX
 10
-1112.814157834343
 20
40.9000000000011
 30
-454.6699970960616
  9
$LIMMIN
 10
0.0
 20
0.0
  9
$LIMMAX
 10
420.0
 20
297.0
  9
$ORTHOMODE
 70
     0
  9
$REGENMODE
 70
     1
  9
$FILLMODE
 70
     1
  9
$QTEXTMODE
 70
     0
  9
$MIRRTEXT
 70
     1
  9
$DRAGMODE
 70
     2
  9
$LTSCALE
 40
1.0
  9
$OSMODE
 70
    37
  9
$ATTMODE
 70
     1
  9
$TEXTSIZE
 40
2.5
  9
$TRACEWID
 40
1.0
  9
$TEXTSTYLE
  7
STANDARD
  9
$CLAYER
  8
0
  9
$CELTYPE
  6
BYLAYER
  9
$CECOLOR
 62
   256
  9
$DIMSCALE
 40
1.0
  9
$DIMASZ
 40
2.5
  9
$DIMEXO
 40
0.625
  9
$DIMDLI
 40
3.75
  9
$DIMRND
 40
0.0
  9
$DIMDLE
 40
0.0
  9
$DIMEXE
 40
1.25
  9
$DIMTP
 40
0.0
  9
$DIMTM
 40
0.0
  9
$DIMTXT
 40
2.5
  9
$DIMCEN
 40
2.5
  9
$DIMTSZ
 40
0.0
  9
$DIMTOL
 70
     0
  9
$DIMLIM
 70
     0
  9
$DIMTIH
 70
     1
  9
$DIMTOH
 70
     0
  9
$DIMSE1
 70
     0
  9
$DIMSE2
 70
     0
  9
$DIMTAD
 70
     1
  9
$DIMZIN
 70
     8
  9
$DIMBLK
  1

  9
$DIMASO
 70
     1
  9
$DIMSHO
 70
     1
  9
$DIMPOST
  1
mm
  9
$DIMAPOST
  1

  9
$DIMALT
 70
     0
  9
$DIMALTD
 70
     3
  9
$DIMALTF
 40
0.0393700787401575
  9
$DIMLFAC
 40
1.0
  9
$DIMTOFL
 70
     1
  9
$DIMTVP
 40
0.0
  9
$DIMTIX
 70
     0
  9
$DIMSOXD
 70
     0
  9
$DIMSAH
 70
     0
  9
$DIMBLK1
  1

  9
$DIMBLK2
  1

  9
$DIMSTYLE
  2
ISO-25
  9
$DIMCLRD
 70
     0
  9
$DIMCLRE
 70
     0
  9
$DIMCLRT
 70
     0
  9
$DIMTFAC
 40
1.0
  9
$DIMGAP
 40
0.625
  9
$LUNITS
 70
     2
  9
$LUPREC
 70
     4
  9
$SKETCHINC
 40
1.0
  9
$FILLETRAD
 40
0.0
  9
$AUNITS
 70
     0
  9
$AUPREC
 70
     0
  9
$MENU
  1
.
  9
$ELEVATION
 40
0.0
  9
$PELEVATION
 40
0.0
  9
$THICKNESS
 40
0.0
  9
$LIMCHECK
 70
     0
  9
$CHAMFERA
 40
0.0
  9
$CHAMFERB
 40
0.0
  9
$SKPOLY
 70
     0
  9
$TDCREATE
 40
2459482.468016215
  9
$TDUPDATE
 40
2459482.468016412
  9
$TDINDWG
 40
0.0000000116
  9
$TDUSRTIMER
 40
0.0000000116
  9
$USRTIMER
 70
     1
  9
$ANGBASE
 50
0.0
  9
$ANGDIR
 70
     0
  9
$PDMODE
 70
     0
  9
$PDSIZE
 40
0.0
  9
$PLINEWID
 40
0.0
  9
$COORDS
 70
     1
  9
$SPLFRAME
 70
     0
  9
$SPLINETYPE
 70
     6
  9
$SPLINESEGS
 70
     8
  9
$ATTDIA
 70
     0
  9
$ATTREQ
 70
     1
  9
$HANDLING
 70
     1
  9
$HANDSEED
  5
168
  9
$SURFTAB1
 70
     6
  9
$SURFTAB2
 70
     6
  9
$SURFTYPE
 70
     6
  9
$SURFU
 70
     6
  9
$SURFV
 70
     6
  9
$UCSNAME
  2

  9
$UCSORG
 10
0.0
 20
0.0
 30
0.0
  9
$UCSXDIR
 10
1.0
 20
0.0
 30
0.0
  9
$UCSYDIR
 10
0.0
 20
1.0
 30
0.0
  9
$PUCSNAME
  2

  9
$PUCSORG
 10
0.0
 20
0.0
 30
0.0
  9
$PUCSXDIR
 10
1.0
 20
0.0
 30
0.0
  9
$PUCSYDIR
 10
0.0
 20
1.0
 30
0.0
  9
$USERI1
 70
     0
  9
$USERI2
 70
     0
  9
$USERI3
 70
     0
  9
$USERI4
 70
     0
  9
$USERI5
 70
     0
  9
$USERR1
 40
0.0
  9
$USERR2
 40
0.0
  9
$USERR3
 40
0.0
  9
$USERR4
 40
0.0
  9
$USERR5
 40
0.0
  9
$WORLDVIEW
 70
     1
  9
$SHADEDGE
 70
     3
  9
$SHADEDIF
 70
    70
  9
$TILEMODE
 70
     1
  9
$MAXACTVP
 70
    64
  9
$PLIMCHECK
 70
     0
  9
$PEXTMIN
 10
1.000000000000000E+20
 20
1.000000000000000E+20
 30
1.000000000000000E+20
  9
$PEXTMAX
 10
-1.000000000000000E+20
 20
-1.000000000000000E+20
 30
-1.000000000000000E+20
  9
$PLIMMIN
 10
0.0
 20
0.0
  9
$PLIMMAX
 10
420.0
 20
297.0
  9
$UNITMODE
 70
     0
  9
$VISRETAIN
 70
     1
  9
$PLINEGEN
 70
     0
  9
$PSLTSCALE
 70
     1
  0
ENDSEC
  0
SECTION
  2
TABLES
  0
TABLE
  2
VPORT
 70
     1
  0
VPORT
  2
*ACTIVE
 70
     0
 10
0.0
 20
0.0
 11
1.0
 21
1.0
 12
-1193.889157834343
 22
-183.084999999999
 13
0.0
 23
0.0
 14
10.0
 24
10.0
 15
10.0
 25
10.0
 16
0.0
 26
0.0
 36
1.0
 17
0.0
 27
0.0
 37
0.0
 40
447.9700000000002
 41
0.3619662030939572
 42
50.0
 43
0.0
 44
0.0
 50
0.0
 51
0.0
 71
     0
 72
   100
 73
     1
 74
     3
 75
     0
 76
     0
 77
     0
 78
     0
  0
ENDTAB
  0
TABLE
  2
LTYPE
 70
     2
  0
LTYPE
  2
CONTINUOUS
 70
     0
  3
Solid line
 72
    65
 73
     0
 40
0.0
  0
LTYPE
  2
HIDDEN
 70
     0
  3
- - - - - - - - - - - - - - - - - - - - -
 72
    65
 73
     2
 40
9.524999999999999
 49
6.35
 49
-3.175
  0
ENDTAB
  0
TABLE
  2
LAYER
 70
     3
  0
LAYER
  2
0
 70
     0
 62
     7
  6
CONTINUOUS
  0
LAYER
  2
NONE
 70
     0
 62
     7
  6
CONTINUOUS
  0
LAYER
  2
HIDDEN
 70
     0
 62
     7
  6
HIDDEN
  0
ENDTAB
  0
TABLE
  2
STYLE
 70
     1
  0
STYLE
  2
STANDARD
 70
     0
 40
0.0
 41
1.0
 50
0.0
 71
     0
 42
2.5
  3
txt
  4

  0
ENDTAB
  0
TABLE
  2
VIEW
 70
     0
  0
ENDTAB
  0
TABLE
  2
UCS
 70
     0
  0
ENDTAB
  0
TABLE
  2
APPID
 70
     1
  0
APPID
  2
ACAD
 70
     0
  0
ENDTAB
  0
TABLE
  2
DIMSTYLE
 70
     1
  0
DIMSTYLE
  2
ISO-25
 70
     0
  3

  4

  5

  6

  7

 40
1.0
 41
2.5
 42
0.625
 43
3.75
 44
1.25
 45
0.0
 46
0.0
 47
0.0
 48
0.0
140
2.5
141
2.5
142
0.0
143
0.03937007874016
144
1.0
145
0.0
146
1.0
147
0.625
 71
     0
 72
     0
 73
     0
 74
     0
 75
     0
 76
     0
 77
     1
 78
     8
170
     0
171
     3
172
     1
173
     0
174
     0
175
     0
176
     0
177
     0
178
     0
  0
ENDTAB
  0
ENDSEC
  0
SECTION
  2
BLOCKS
  0
BLOCK
  8
0
  2
$MODEL_SPACE
 70
     0
 10
0.0
 20
0.0
 30
0.0
  3
$MODEL_SPACE
  1

  0
ENDBLK
  5
21
  8
0
  0
BLOCK
 67
     1
  8
0
  2
$PAPER_SPACE
 70
     0
 10
0.0
 20
0.0
 30
0.0
  3
$PAPER_SPACE
  1

  0
ENDBLK
  5
1D
 67
     1
  8
0
  0
ENDSEC
  0
SECTION
  2
ENTITIES
  0
LINE
  5
5F
  8
0
 62
     7
 10
-1262.964157834343
 20
-373.5799999999999
 30
0.0
 11
-1250.964157834294
 21
-373.58
 31
0.0
  0
ARC
  5
60
  8
0
 62
     7
 10
-1243.964157834293
 20
-373.2300000000001
 30
0.0000000000000105
 40
2.0
 50
359.999999999993
 51
89.99999999999994
  0
ARC
  5
61
  8
0
 62
     7
 10
-1175.014633950933
 20
-381.4396261433228
 30
-0.0000000000000045
 40
1.59999999999995
 50
89.98254554858545
 51
269.9991983247729
  0
ARC
  5
62
  8
0
 62
     7
 10
-1162.314702835679
 20
-381.4416494407468
 30
-0.0000000000000058
 40
1.600000000000036
 50
270.0016593065388
 51
89.98008456692256
  0
ARC
  5
63
  8
0
 62
     7
 10
-1175.014633950933
 20
-301.0203738566753
 30
0.000000000000023
 40
1.59999999999995
 50
90.00080167522722
 51
270.0174544514146
  0
ARC
  5
64
  8
0
 62
     7
 10
-1162.314702835679
 20
-301.0183505592512
 30
0.0000000000000218
 40
1.600000000000036
 50
270.0199154330776
 51
89.99834069346117
  0
ARC
  5
65
  8
0
 62
     7
 10
-1173.013541160006
 20
-376.0399448616726
 30
0.0000000000000008
 40
2.0
 50
89.99087193672354
 51
179.9908719367392
  0
ARC
  5
66
  8
0
 62
     7
 10
-1173.013541160006
 20
-306.4200551383255
 30
0.0000000000000173
 40
2.0
 50
180.0091280632748
 51
270.009128063253
  0
ARC
  5
67
  8
0
 62
     7
 10
-1164.313541270414
 20
-376.0413309000654
 30
0.0
 40
2.0
 50
359.9908719367243
 51
89.99087193672634
  0
ARC
  5
68
  8
0
 62
     7
 10
-1164.313541270414
 20
-306.4186690999326
 30
0.0000000000000164
 40
2.0
 50
270.0091280632764
 51
0.0091280633047545
  0
ARC
  5
69
  8
0
 62
     7
 10
-1200.668957866182
 20
-277.389999999999
 30
-0.0000000000000056
 40
2.0
 50
90.00000000000345
 51
179.9999999999999
  0
ARC
  5
6A
  8
0
 62
     7
 10
-1184.668957866182
 20
-277.389999999999
 30
-0.0000000000000071
 40
2.0
 50
359.9999999999932
 51
89.99999999999994
  0
ARC
  5
6B
  8
0
 62
     7
 10
-1272.964157834343
 20
-325.2300000000025
 30
0.0000000000000074
 40
2.0
 50
89.99999999997569
 51
180.0
  0
ARC
  5
6C
  8
0
 62
     7
 10
-1272.964157834343
 20
-357.2299999999956
 30
-0.0000000000000257
 40
2.0
 50
179.9999999999941
 51
269.9999999999999
  0
ARC
  5
6D
  8
0
 62
     7
 10
-1184.668957866182
 20
-405.069999999999
 30
0.0000000000000275
 40
2.0
 50
270.0000000000035
 51
359.9999999999999
  0
ARC
  5
6E
  8
0
 62
     7
 10
-1200.668957866182
 20
-405.069999999999
 30
-0.0000000000000265
 40
2.0
 50
179.9999999999992
 51
270.0
  0
ARC
  5
6F
  8
0
 62
     7
 10
-1243.964157834293
 20
-381.9300000000001
 30
0.0000000000000015
 40
2.0
 50
269.9999999999762
 51
360.0
  0
ARC
  5
70
  8
0
 62
     7
 10
-1243.964157834293
 20
-300.5299999999982
 30
-0.0000000000000254
 40
2.0
 50
359.9999999999547
 51
90.0
  0
ARC
  5
71
  8
0
 62
     7
 10
-1243.964157834293
 20
-309.2299999999981
 30
0.0000000000000211
 40
2.0
 50
269.9999999999751
 51
0.0000000000007633
  0
CIRCLE
  5
72
  8
0
 62
     7
 10
-1203.964157834343
 20
-341.259999999999
 30
-0.0000000000000158
 40
40.0
  0
LINE
  5
73
  8
0
 62
     7
 10
-1250.964157834293
 20
-308.8799999999982
 30
0.0
 11
-1262.964157834343
 21
-308.8799999999983
 31
0.0
  0
LINE
  5
74
  8
0
 62
     7
 10
-1250.964157834294
 20
-311.2299999999981
 30
0.0
 11
-1250.964157834294
 21
-308.8799999999982
 31
0.0
  0
ARC
  5
75
  8
0
 62
     7
 10
-1249.364157834294
 20
-311.2299999999981
 30
0.0000000000000196
 40
1.599999999999976
 50
180.0
 51
359.999999999999
  0
LINE
  5
76
  8
0
 62
     7
 10
-1243.964157834293
 20
-311.2299999999981
 30
0.0
 11
-1247.764157834293
 21
-311.2299999999982
 31
0.0
  0
LINE
  5
77
  8
0
 62
     7
 10
-1241.964157834293
 20
-300.5299999999982
 30
0.0
 11
-1241.964157834293
 21
-309.2299999999981
 31
0.0
  0
LINE
  5
78
  8
0
 62
     7
 10
-1247.764157834293
 20
-298.5299999999982
 30
0.0
 11
-1243.964157834293
 21
-298.5299999999982
 31
0.0
  0
ARC
  5
79
  8
0
 62
     7
 10
-1249.364157834294
 20
-298.5299999999982
 30
-0.0000000000000228
 40
1.599999999999964
 50
0.0000000000009764
 51
179.9999999999989
  0
LINE
  5
7A
  8
0
 62
     7
 10
-1250.964157834294
 20
-300.8799999999983
 30
0.0
 11
-1250.964157834294
 21
-298.5299999999982
 31
0.0
  0
LINE
  5
7B
  8
0
 62
     7
 10
-1262.964157834343
 20
-300.8799999999982
 30
0.0
 11
-1250.964157834294
 21
-300.8799999999982
 31
0.0
  0
LINE
  5
7C
  8
0
 62
     7
 10
-1250.964157834294
 20
-381.58
 30
0.0
 11
-1262.964157834343
 21
-381.5799999999999
 31
0.0
  0
LINE
  5
7D
  8
0
 62
     7
 10
-1250.964157834293
 20
-383.9300000000001
 30
0.0
 11
-1250.964157834293
 21
-381.5799999999999
 31
0.0
  0
ARC
  5
7E
  8
0
 62
     7
 10
-1249.364157834294
 20
-383.93
 30
0.0
 40
1.599999999999964
 50
180.000000000001
 51
359.999999999999
  0
LINE
  5
7F
  8
0
 62
     7
 10
-1243.964157834293
 20
-383.9300000000001
 30
0.0
 11
-1247.764157834293
 21
-383.9300000000001
 31
0.0
  0
LINE
  5
80
  8
0
 62
     7
 10
-1241.964157834293
 20
-373.2300000000001
 30
0.0
 11
-1241.964157834293
 21
-381.9300000000001
 31
0.0
  0
LINE
  5
81
  8
0
 62
     7
 10
-1262.964157834343
 20
-323.2300000000026
 30
0.0
 11
-1262.964157834343
 21
-308.8799999999982
 31
0.0
  0
LINE
  5
82
  8
0
 62
     7
 10
-1272.964157834343
 20
-323.2300000000025
 30
0.0
 11
-1262.964157834343
 21
-323.2300000000025
 31
0.0
  0
LINE
  5
83
  8
0
 62
     7
 10
-1274.964157834343
 20
-357.2299999999956
 30
0.0
 11
-1274.964157834343
 21
-325.2300000000025
 31
0.0
  0
LINE
  5
84
  8
0
 62
     7
 10
-1262.964157834343
 20
-359.2299999999956
 30
0.0
 11
-1272.964157834343
 21
-359.2299999999956
 31
0.0
  0
LINE
  5
85
  8
0
 62
     7
 10
-1262.964157834343
 20
-359.2299999999956
 30
0.0
 11
-1262.964157834343
 21
-373.58
 31
0.0
  0
LINE
  5
86
  8
0
 62
     7
 10
-1250.964157834294
 20
-373.58
 30
0.0
 11
-1250.964157834294
 21
-371.23
 31
0.0
  0
ARC
  5
87
  8
0
 62
     7
 10
-1249.364157834294
 20
-371.23
 30
0.0000000000000131
 40
1.599999999999976
 50
360.0
 51
180.0
  0
LINE
  5
88
  8
0
 62
     7
 10
-1247.764157834293
 20
-371.23
 30
0.0
 11
-1243.964157834293
 21
-371.23
 31
0.0
  0
LINE
  5
89
  8
0
 62
     7
 10
-1262.964157834343
 20
-381.58
 30
0.0
 11
-1262.964157834343
 21
-395.0699999999991
 31
0.0
  0
LINE
  5
8A
  8
0
 62
     7
 10
-1262.964157834343
 20
-395.0699999999991
 30
0.0
 11
-1202.668957866182
 21
-395.069999999999
 31
0.0
  0
LINE
  5
8B
  8
0
 62
     7
 10
-1202.668957866182
 20
-395.069999999999
 30
0.0
 11
-1202.668957866182
 21
-405.0699999999991
 31
0.0
  0
LINE
  5
8C
  8
0
 62
     7
 10
-1200.668957866182
 20
-407.0699999999991
 30
0.0
 11
-1184.668957866182
 21
-407.0699999999991
 31
0.0
  0
LINE
  5
8D
  8
0
 62
     7
 10
-1182.668957866182
 20
-405.069999999999
 30
0.0
 11
-1182.668957866182
 21
-394.8799999999986
 31
0.0
  0
LINE
  5
8E
  8
0
 62
     7
 10
-1182.668957866182
 20
-394.8799999999986
 30
0.0
 11
-1172.668922816935
 21
-394.8799999999986
 31
0.0
  0
LINE
  5
8F
  8
0
 62
     7
 10
-1172.66893237582
 20
-394.8799999984758
 30
0.0
 11
-1172.667046089088
 21
-383.0400001522858
 31
0.0
  0
LINE
  5
90
  8
0
 62
     7
 10
-1172.667046089088
 20
-383.0400001522857
 30
0.0
 11
-1175.014656337929
 21
-383.0396261433228
 31
0.0
  0
LINE
  5
91
  8
0
 62
     7
 10
-1175.014146530709
 20
-379.8396262175661
 30
0.0
 11
-1175.013541134624
 21
-376.039626232157
 31
0.0
  0
LINE
  5
92
  8
0
 62
     7
 10
-1173.01322253049
 20
-374.0399448870538
 30
0.0
 11
-1164.313222640898
 21
-374.0413309254467
 31
0.0
  0
LINE
  5
93
  8
0
 62
     7
 10
-1162.313541295795
 20
-376.041649529581
 30
0.0
 11
-1162.314146691884
 21
-379.8416495374017
 31
0.0
  0
LINE
  5
94
  8
0
 62
     7
 10
-1162.3146564991
 20
-383.0416494407468
 30
0.0
 11
-1164.667046190614
 21
-383.0412746703481
 31
0.0
  0
LINE
  5
95
  8
0
 62
     7
 10
-1164.667046190614
 20
-383.0412746703481
 30
0.0
 11
-1164.668962544101
 21
-395.0699999984764
 31
0.0
  0
LINE
  5
96
  8
0
 62
     7
 10
-1164.668952985215
 20
-395.0699999999992
 30
0.0
 11
-1148.664157834344
 21
-395.0699999999991
 31
0.0
  0
LINE
  5
97
  8
0
 62
     7
 10
-1148.664157834344
 20
-395.0699999999991
 30
0.0
 11
-1148.664157834344
 21
-287.3899999999988
 31
0.0
  0
LINE
  5
98
  8
0
 62
     7
 10
-1148.664157834344
 20
-287.3899999999988
 30
0.0
 11
-1164.668952985215
 21
-287.3899999999988
 31
0.0
  0
LINE
  5
99
  8
0
 62
     7
 10
-1164.667046190614
 20
-299.4187253296499
 30
0.0
 11
-1164.6689625441
 21
-287.3900000015217
 31
0.0
  0
LINE
  5
9A
  8
0
 62
     7
 10
-1162.3146564991
 20
-299.4183505592512
 30
0.0
 11
-1164.667046190614
 21
-299.4187253296499
 31
0.0
  0
LINE
  5
9B
  8
0
 62
     7
 10
-1162.313541295795
 20
-306.418350470417
 30
0.0
 11
-1162.314146691884
 21
-302.6183504625962
 31
0.0
  0
LINE
  5
9C
  8
0
 62
     7
 10
-1164.313222640898
 20
-308.4186690745514
 30
0.0
 11
-1173.01322253049
 21
-308.4200551129443
 31
0.0
  0
LINE
  5
9D
  8
0
 62
     7
 10
-1175.014146530709
 20
-302.620373782432
 30
0.0
 11
-1175.013541134624
 21
-306.4203737678411
 31
0.0
  0
LINE
  5
9E
  8
0
 62
     7
 10
-1172.667046089088
 20
-299.4199998477123
 30
0.0
 11
-1175.014656337929
 21
-299.4203738566753
 31
0.0
  0
LINE
  5
9F
  8
0
 62
     7
 10
-1172.66893237582
 20
-287.5800000015223
 30
0.0
 11
-1172.667046089088
 21
-299.4199998477123
 31
0.0
  0
LINE
  5
A0
  8
0
 62
     7
 10
-1172.668922816935
 20
-287.5799999999994
 30
0.0
 11
-1182.668957866182
 21
-287.5799999999994
 31
0.0
  0
LINE
  5
A1
  8
0
 62
     7
 10
-1182.668957866182
 20
-287.5799999999994
 30
0.0
 11
-1182.668957866182
 21
-277.389999999999
 31
0.0
  0
LINE
  5
A2
  8
0
 62
     7
 10
-1184.668957866182
 20
-275.3899999999989
 30
0.0
 11
-1200.668957866182
 21
-275.389999999999
 31
0.0
  0
LINE
  5
A3
  8
0
 62
     7
 10
-1202.668957866182
 20
-277.389999999999
 30
0.0
 11
-1202.668957866182
 21
-287.389999999999
 31
0.0
  0
LINE
  5
A4
  8
0
 62
     7
 10
-1202.668957866182
 20
-287.389999999999
 30
0.0
 11
-1262.964157834343
 21
-287.389999999999
 31
0.0
  0
LINE
  5
A5
  8
0
 62
     7
 10
-1262.964157834343
 20
-300.8799999999982
 30
0.0
 11
-1262.964157834343
 21
-287.3899999999991
 31
0.0
  0
LINE
  5
A6
  8
0
 62
     7
 10
-1149.889157834343
 20
-23.4999999999984
 30
0.0
 11
-1157.889157834343
 21
-23.49999999999837
 31
0.0
  0
ARC
  5
A7
  8
0
 62
     7
 10
-1118.814157834343
 20
-85.10999999999925
 30
0.0000000000000187
 40
6.000000000000001
 50
269.999999999979
 51
0.0000000000003053
  0
ARC
  5
A8
  8
0
 62
     7
 10
-1118.814157834343
 20
34.90000000000085
 30
-0.0000000000000238
 40
6.000000000000001
 50
359.9999999999902
 51
89.99999999999994
  0
ARC
  5
A9
  8
0
 62
     7
 10
-1160.239157834343
 20
-4.399999999998276
 30
-0.0000000000000049
 40
1.600000000000106
 50
89.99999999999999
 51
270.0000000000145
  0
ARC
  5
AA
  8
0
 62
     7
 10
-1147.539157834343
 20
-4.399999999998334
 30
-0.0000000000000061
 40
1.599999999999992
 50
269.999999999992
 51
89.99999999998784
  0
ARC
  5
AB
  8
0
 62
     7
 10
-1145.889157834343
 20
-45.7286784210207
 30
0.0000000000000065
 40
2.999999999999977
 50
269.99999999999
 51
90.00000000000428
  0
ARC
  5
AC
  8
0
 62
     7
 10
-1161.889157834343
 20
-45.69999999999822
 30
0.0000000000000081
 40
2.999999999999947
 50
90.00000000001293
 51
269.8973030795004
  0
ARC
  5
AD
  8
0
 62
     7
 10
-1243.964157834293
 20
-68.74999999999818
 30
-0.0000000000000079
 40
2.0
 50
359.9999999999992
 51
89.99999999999497
  0
ARC
  5
AE
  8
0
 62
     7
 10
-1243.964157834293
 20
-77.44999999999811
 30
-0.0000000000000169
 40
2.0
 50
269.9999999999999
 51
0.0000000000417798
  0
ARC
  5
AF
  8
0
 62
     7
 10
-1243.964157834293
 20
27.25000000000193
 30
-0.0000000000000197
 40
2.0
 50
359.9999999999992
 51
90.00000000002814
  0
ARC
  5
B0
  8
0
 62
     7
 10
-1243.964157834293
 20
18.55000000000194
 30
0.0000000000000268
 40
2.0
 50
270.0
 51
0.0000000000119589
  0
ARC
  5
B1
  8
0
 62
     7
 10
-1272.964157834343
 20
-7.099999999998054
 30
0.000000000000003
 40
2.0
 50
89.9999999999716
 51
180.0
  0
ARC
  5
B2
  8
0
 62
     7
 10
-1272.964157834343
 20
-43.09999999999808
 30
0.0000000000000213
 40
2.0
 50
179.999999999989
 51
269.9999999999999
  0
CIRCLE
  5
B3
  8
0
 62
     7
 10
-1172.814157834343
 20
-64.14377502713927
 30
-0.0000000000000099
 40
7.0
  0
CIRCLE
  5
B4
  8
0
 62
     7
 10
-1172.814157834343
 20
13.94377502714308
 30
0.0000000000000152
 40
7.0
  0
CIRCLE
  5
B5
  8
0
 62
     7
 10
-1266.964157834343
 20
-25.09999999999816
 30
-0.0000000000000161
 40
4.25
  0
CIRCLE
  5
B6
  8
0
 62
     7
 10
-1164.814157834343
 20
-82.90999999999674
 30
0.0000000000000254
 40
4.25
  0
CIRCLE
  5
B7
  8
0
 62
     7
 10
-1136.814157834343
 20
-42.90999999999674
 30
0.0000000000000086
 40
4.25
  0
CIRCLE
  5
B8
  8
0
 62
     7
 10
-1136.814157834343
 20
-7.289999999999535
 30
-0.0000000000000101
 40
4.25
  0
CIRCLE
  5
B9
  8
0
 62
     7
 10
-1164.814157834343
 20
32.71000000000046
 30
-0.0000000000000217
 40
4.25
  0
ARC
  5
BA
  8
0
 62
     7
 10
-1203.964157834343
 20
-25.22999999999556
 30
-0.0000000000000223
 40
40.0
 50
2.478815670512434
 51
357.8939058527271
  0
LINE
  5
BB
  8
0
 62
     7
 10
-1161.89453502101
 20
-48.69999036192175
 30
0.0
 11
-1158.389157834343
 21
-48.70627340459686
 31
0.0
  0
LINE
  5
BC
  8
0
 62
     7
 10
-1149.389157834344
 20
-48.72240501642204
 30
0.0
 11
-1158.389157834343
 21
-48.70627340459691
 31
0.0
  0
LINE
  5
BD
  8
0
 62
     7
 10
-1149.389157834344
 20
-48.72240501642198
 30
0.0
 11
-1145.889157834343
 21
-48.72867842102064
 31
0.0
  0
LINE
  5
BE
  8
0
 62
     7
 10
-1274.964157834343
 20
-43.09999999999808
 30
0.0
 11
-1274.964157834343
 21
-7.099999999998053
 31
0.0
  0
LINE
  5
BF
  8
0
 62
     7
 10
-1241.964157834293
 20
18.55000000000191
 30
0.0
 11
-1241.964157834293
 21
27.2500000000019
 31
0.0
  0
LINE
  5
C0
  8
0
 62
     7
 10
-1243.964157834293
 20
29.2500000000019
 30
0.0
 11
-1247.764157834293
 21
29.2500000000019
 31
0.0
  0
LINE
  5
C1
  8
0
 62
     7
 10
-1247.764157834293
 20
-79.44999999999814
 30
0.0
 11
-1243.964157834293
 21
-79.44999999999814
 31
0.0
  0
LINE
  5
C2
  8
0
 62
     7
 10
-1241.964157834293
 20
-77.44999999999814
 30
0.0
 11
-1241.964157834293
 21
-68.74999999999821
 31
0.0
  0
LINE
  5
C3
  8
0
 62
     7
 10
-1158.389157834343
 20
-48.70627340459689
 30
0.0
 11
-1158.389157834343
 21
-91.10999999999913
 31
0.0
  0
LINE
  5
C4
  8
0
 62
     7
 10
-1149.389157834344
 20
-91.10999999999916
 30
0.0
 11
-1149.389157834344
 21
-48.72240501642202
 31
0.0
  0
LINE
  5
C5
  8
0
 62
     7
 10
-1118.814157834343
 20
-91.10999999999923
 30
0.0
 11
-1149.389157834344
 21
-91.10999999999915
 31
0.0
  0
LINE
  5
C6
  8
0
 62
     7
 10
-1112.814157834343
 20
-26.69999999999847
 30
0.0
 11
-1112.814157834343
 21
-85.10999999999923
 31
0.0
  0
LINE
  5
C7
  8
0
 62
     7
 10
-1149.889157834343
 20
-26.69999999999835
 30
0.0
 11
-1112.814157834343
 21
-26.69999999999847
 31
0.0
  0
LINE
  5
C8
  8
0
 62
     7
 10
-1149.889157834343
 20
-42.69999999999819
 30
0.0
 11
-1149.889157834343
 21
-26.69999999999835
 31
0.0
  0
LINE
  5
C9
  8
0
 62
     7
 10
-1145.889157834344
 20
-42.6999999999982
 30
0.0
 11
-1149.889157834343
 21
-42.6999999999982
 31
0.0
  0
LINE
  5
CA
  8
0
 62
     7
 10
-1145.889157834344
 20
-42.72867842102072
 30
0.0
 11
-1145.889157834344
 21
-42.6999999999982
 31
0.0
  0
LINE
  5
CB
  8
0
 62
     7
 10
-1158.389157834343
 20
-91.10999999999916
 30
0.0
 11
-1149.389157834344
 21
-91.10999999999919
 31
0.0
  0
LINE
  5
CC
  8
0
 62
     7
 10
-1157.889157834343
 20
-42.69999999999822
 30
0.0
 11
-1161.889157834343
 21
-42.69999999999822
 31
0.0
  0
LINE
  5
CD
  8
0
 62
     7
 10
-1157.889157834343
 20
-42.69999999999822
 30
0.0
 11
-1149.889157834343
 21
-42.69999999999825
 31
0.0
  0
LINE
  5
CE
  8
0
 62
     7
 10
-1157.889157834343
 20
-26.69999999999838
 30
0.0
 11
-1149.889157834343
 21
-26.6999999999984
 31
0.0
  0
LINE
  5
CF
  8
0
 62
     7
 10
-1158.389157834343
 20
-91.10999999999915
 30
0.0
 11
-1262.964157834343
 21
-91.10999999999885
 31
0.0
  0
LINE
  5
D0
  8
0
 62
     7
 10
-1147.539157834343
 20
1.000000000001682
 30
0.0
 11
-1149.889157834343
 21
1.00000000000171
 31
0.0
  0
LINE
  5
D1
  8
0
 62
     7
 10
-1147.539157834343
 20
-2.799999999998344
 30
0.0
 11
-1147.539157834343
 21
1.000000000001681
 31
0.0
  0
LINE
  5
D2
  8
0
 62
     7
 10
-1149.889157834343
 20
-5.999999999998268
 30
0.0
 11
-1147.539157834343
 21
-5.999999999998269
 31
0.0
  0
LINE
  5
D3
  8
0
 62
     7
 10
-1149.889157834343
 20
-23.49999999999837
 30
0.0
 11
-1149.889157834343
 21
-5.999999999998298
 31
0.0
  0
LINE
  5
D4
  8
0
 62
     7
 10
-1157.889157834343
 20
-23.49999999999834
 30
0.0
 11
-1164.001586595733
 21
-23.49999999999831
 31
0.0
  0
LINE
  5
D5
  8
0
 62
     7
 10
-1112.814157834343
 20
-23.49999999999849
 30
0.0
 11
-1149.889157834343
 21
-23.49999999999837
 31
0.0
  0
LINE
  5
D6
  8
0
 62
     7
 10
-1157.889157834343
 20
-5.999999999998265
 30
0.0
 11
-1157.889157834343
 21
-23.49999999999836
 31
0.0
  0
LINE
  5
D7
  8
0
 62
     7
 10
-1160.239157834343
 20
-5.999999999998265
 30
0.0
 11
-1157.889157834343
 21
-5.999999999998266
 31
0.0
  0
LINE
  5
D8
  8
0
 62
     7
 10
-1160.239157834343
 20
1.000000000001741
 30
0.0
 11
-1160.239157834343
 21
-2.799999999998174
 31
0.0
  0
LINE
  5
D9
  8
0
 62
     7
 10
-1157.889157834343
 20
1.00000000000174
 30
0.0
 11
-1160.239157834343
 21
1.000000000001741
 31
0.0
  0
LINE
  5
DA
  8
0
 62
     7
 10
-1157.889157834343
 20
10.00000000000178
 30
0.0
 11
-1157.889157834343
 21
1.000000000001741
 31
0.0
  0
LINE
  5
DB
  8
0
 62
     7
 10
-1149.889157834343
 20
10.00000000000172
 30
0.0
 11
-1157.889157834343
 21
10.00000000000175
 31
0.0
  0
LINE
  5
DC
  8
0
 62
     7
 10
-1149.889157834343
 20
1.000000000001682
 30
0.0
 11
-1149.889157834343
 21
10.00000000000172
 31
0.0
  0
LINE
  5
DD
  8
0
 62
     7
 10
-1157.889157834343
 20
-26.69999999999835
 30
0.0
 11
-1157.889157834343
 21
-42.69999999999822
 31
0.0
  0
LINE
  5
DE
  8
0
 62
     7
 10
-1163.991178210598
 20
-26.69999999999829
 30
0.0
 11
-1157.889157834343
 21
-26.69999999999832
 31
0.0
  0
LINE
  5
DF
  8
0
 62
     7
 10
-1250.964157834293
 20
-59.09999999999894
 30
0.0
 11
-1243.964157834293
 21
-59.09999999999896
 31
0.0
  0
LINE
  5
E0
  8
0
 62
     7
 10
-1250.964157834293
 20
-63.09999999999885
 30
0.0
 11
-1250.964157834293
 21
-59.09999999999893
 31
0.0
  0
LINE
  5
E1
  8
0
 62
     7
 10
-1243.964157834293
 20
-63.09999999999889
 30
0.0
 11
-1250.964157834293
 21
-63.09999999999886
 31
0.0
  0
LINE
  5
E2
  8
0
 62
     7
 10
-1243.964157834293
 20
-59.09999999999896
 30
0.0
 11
-1243.964157834293
 21
-63.09999999999888
 31
0.0
  0
LINE
  5
E3
  8
0
 62
     7
 10
-1250.964157834293
 20
12.90000000000096
 30
0.0
 11
-1243.964157834293
 21
12.90000000000093
 31
0.0
  0
LINE
  5
E4
  8
0
 62
     7
 10
-1250.964157834293
 20
8.900000000000981
 30
0.0
 11
-1250.964157834293
 21
12.90000000000096
 31
0.0
  0
LINE
  5
E5
  8
0
 62
     7
 10
-1243.964157834293
 20
8.900000000000952
 30
0.0
 11
-1250.964157834293
 21
8.900000000000981
 31
0.0
  0
LINE
  5
E6
  8
0
 62
     7
 10
-1243.964157834293
 20
12.90000000000093
 30
0.0
 11
-1243.964157834293
 21
8.900000000000952
 31
0.0
  0
LINE
  5
E7
  8
0
 62
     7
 10
-1112.814157834343
 20
34.90000000000085
 30
0.0
 11
-1112.814157834343
 21
-23.49999999999849
 31
0.0
  0
LINE
  5
E8
  8
0
 62
     7
 10
-1262.964157834343
 20
40.9000000000011
 30
0.0
 11
-1118.814157834343
 21
40.90000000000084
 31
0.0
  0
LINE
  5
E9
  8
0
 62
     7
 10
-1262.964157834343
 20
26.90000000000186
 30
0.0
 11
-1262.964157834343
 21
40.90000000000099
 31
0.0
  0
LINE
  5
EA
  8
0
 62
     7
 10
-1250.964157834293
 20
26.90000000000183
 30
0.0
 11
-1262.964157834343
 21
26.90000000000183
 31
0.0
  0
LINE
  5
EB
  8
0
 62
     7
 10
-1250.964157834294
 20
29.25000000000185
 30
0.0
 11
-1250.964157834293
 21
26.90000000000183
 31
0.0
  0
ARC
  5
EC
  8
0
 62
     7
 10
-1249.364157834293
 20
29.25000000000185
 30
-0.0000000000000172
 40
1.600000000000015
 50
0.0000000000009764
 51
180.0
  0
LINE
  5
ED
  8
0
 62
     7
 10
-1247.764157834293
 20
16.55000000000189
 30
0.0
 11
-1243.964157834293
 21
16.55000000000192
 31
0.0
  0
ARC
  5
EE
  8
0
 62
     7
 10
-1249.364157834293
 20
16.55000000000175
 30
0.0000000000000252
 40
1.600000000000021
 50
180.0
 51
0.000000000005946
  0
LINE
  5
EF
  8
0
 62
     7
 10
-1250.964157834293
 20
18.90000000000182
 30
0.0
 11
-1250.964157834293
 21
16.55000000000175
 31
0.0
  0
LINE
  5
F0
  8
0
 62
     7
 10
-1262.964157834343
 20
18.90000000000182
 30
0.0
 11
-1250.964157834293
 21
18.90000000000182
 31
0.0
  0
LINE
  5
F1
  8
0
 62
     7
 10
-1262.964157834343
 20
-5.099999999998083
 30
0.0
 11
-1262.964157834343
 21
18.90000000000166
 31
0.0
  0
LINE
  5
F2
  8
0
 62
     7
 10
-1262.964157834343
 20
-5.099999999998055
 30
0.0
 11
-1272.964157834343
 21
-5.099999999998051
 31
0.0
  0
LINE
  5
F3
  8
0
 62
     7
 10
-1272.964157834343
 20
-45.09999999999808
 30
0.0
 11
-1262.964157834343
 21
-45.09999999999808
 31
0.0
  0
LINE
  5
F4
  8
0
 62
     7
 10
-1262.964157834343
 20
-69.09999999999826
 30
0.0
 11
-1262.964157834343
 21
-45.09999999999811
 31
0.0
  0
LINE
  5
F5
  8
0
 62
     7
 10
-1250.964157834293
 20
-69.0999999999981
 30
0.0
 11
-1262.964157834343
 21
-69.09999999999812
 31
0.0
  0
LINE
  5
F6
  8
0
 62
     7
 10
-1250.964157834293
 20
-66.74999999999814
 30
0.0
 11
-1250.964157834293
 21
-69.09999999999808
 31
0.0
  0
ARC
  5
F7
  8
0
 62
     7
 10
-1249.364157834293
 20
-66.74999999999815
 30
-0.0000000000000053
 40
1.600000000000056
 50
359.999999999998
 51
180.0
  0
LINE
  5
F8
  8
0
 62
     7
 10
-1243.964157834293
 20
-66.74999999999821
 30
0.0
 11
-1247.764157834293
 21
-66.74999999999821
 31
0.0
  0
ARC
  5
F9
  8
0
 62
     7
 10
-1249.364157834293
 20
-79.4499999999981
 30
-0.0000000000000185
 40
1.600000000000024
 50
180.0
 51
359.999999999999
  0
LINE
  5
FA
  8
0
 62
     7
 10
-1250.964157834293
 20
-77.09999999999806
 30
0.0
 11
-1250.964157834293
 21
-79.44999999999808
 31
0.0
  0
LINE
  5
FB
  8
0
 62
     7
 10
-1262.964157834343
 20
-77.09999999999808
 30
0.0
 11
-1250.964157834293
 21
-77.09999999999806
 31
0.0
  0
LINE
  5
FC
  8
0
 62
     7
 10
-1262.964157834343
 20
-91.10999999999885
 30
0.0
 11
-1262.964157834343
 21
-77.09999999999802
 31
0.0
  0
ARC
  5
FD
  8
0
 62
     7
 10
-1118.814157834343
 20
-125.0999999999999
 30
-0.0000000000000226
 40
6.000000000000001
 50
0.0000000000000509
 51
90.0
  0
ARC
  5
FE
  8
0
 62
     7
 10
-1118.814157834343
 20
-245.1199999999997
 30
0.0000000000000199
 40
6.000000000000001
 50
269.9999999999935
 51
360.0
  0
ARC
  5
FF
  8
0
 62
     7
 10
-1160.239157834343
 20
-205.8099999999999
 30
0.000000000000009
 40
1.600000000000023
 50
90.0
 51
269.9999999999922
  0
ARC
  5
100
  8
0
 62
     7
 10
-1147.539157834343
 20
-205.8099999999997
 30
0.0000000000000078
 40
1.600000000000109
 50
269.9999999999841
 51
90.00000000001974
  0
ARC
  5
101
  8
0
 62
     7
 10
-1161.889157834343
 20
-164.51
 30
-0.0000000000000037
 40
2.999999999999986
 50
89.99999999998947
 51
270.0
  0
ARC
  5
102
  8
0
 62
     7
 10
-1145.889157834343
 20
-164.5099999999999
 30
-0.0000000000000052
 40
2.999999999999988
 50
269.9999999999964
 51
90.0
  0
ARC
  5
103
  8
0
 62
     7
 10
-1243.964157834293
 20
-216.7600000000001
 30
0.0000000000000057
 40
2.0
 50
359.9999999999999
 51
90.00000000002764
  0
ARC
  5
104
  8
0
 62
     7
 10
-1243.964157834293
 20
-153.46
 30
0.0000000000000156
 40
2.0
 50
269.9999999999999
 51
0.000000000039388
  0
ARC
  5
105
  8
0
 62
     7
 10
-1243.964157834293
 20
-225.46
 30
-0.0000000000000033
 40
2.0
 50
270.0
 51
0.0000000000118571
  0
ARC
  5
106
  8
0
 62
     7
 10
-1243.964157834293
 20
-144.7600000000001
 30
0.0000000000000246
 40
2.0
 50
0.0
 51
89.99999999999343
  0
ARC
  5
107
  8
0
 62
     7
 10
-1272.964157834343
 20
-203.11
 30
0.0000000000000225
 40
2.0
 50
179.9999999999892
 51
269.9999999999999
  0
ARC
  5
108
  8
0
 62
     7
 10
-1272.964157834343
 20
-167.11
 30
0.0000000000000042
 40
2.0
 50
89.9999999999712
 51
180.0
  0
CIRCLE
  5
109
  8
0
 62
     7
 10
1172.814157834343
 20
-146.1099999999956
 30
-0.00000000000056
 40
6.999999999999996
210
-9.536472248776375E-17
220
4.486474441266879E-15
230
-1.0
  0
CIRCLE
  5
10A
  8
0
 62
     7
 10
1172.814157834343
 20
-224.1100000000042
 30
-0.0000000000008849
 40
6.999999999999996
210
-9.536472248777758E-17
220
4.486474441266880E-15
230
-1.0
  0
CIRCLE
  5
10B
  8
0
 62
     7
 10
1266.964157834343
 20
-185.1100000000009
 30
-0.0000000000006947
 40
4.25
210
-9.536472248776375E-17
220
4.486474441266879E-15
230
-1.0
  0
CIRCLE
  5
10C
  8
0
 62
     7
 10
1164.814157834343
 20
-127.3000000000014
 30
-0.0000000000002969
 40
4.25
210
-2.178253578700071E-16
220
4.486474441266879E-15
230
-1.0
  0
CIRCLE
  5
10D
  8
0
 62
     7
 10
1164.814157834343
 20
-242.9199999999983
 30
-0.0000000000008627
 40
4.25
210
-2.178253578700209E-16
220
4.486474441266879E-15
230
-1.0
  0
CIRCLE
  5
10E
  8
0
 62
     7
 10
1136.814157834343
 20
-167.3000000000013
 30
-0.000000000000494
 40
4.25
210
-2.178253578700071E-16
220
4.486474441266879E-15
230
-1.0
  0
CIRCLE
  5
10F
  8
0
 62
     7
 10
1136.814157834343
 20
-202.9199999999982
 30
-0.0000000000006725
 40
4.25
210
-2.178253578700209E-16
220
4.486474441266879E-15
230
-1.0
  0
ARC
  5
110
  8
0
 62
     7
 10
-1203.964157834343
 20
-184.9800000000035
 30
-0.0000000000000208
 40
40.0
 50
2.106094147273164
 51
357.5211843294888
  0
LINE
  5
111
  8
0
 62
     7
 10
-1262.964157834343
 20
-165.11
 30
0.0
 11
-1272.964157834343
 21
-165.11
 31
0.0
  0
LINE
  5
112
  8
0
 62
     7
 10
-1157.889157834343
 20
-186.7099999999998
 30
0.0
 11
-1157.889157834343
 21
-204.2099999999999
 31
0.0
  0
LINE
  5
113
  8
0
 62
     7
 10
-1164.001586595733
 20
-186.7099999999999
 30
0.0
 11
-1157.889157834343
 21
-186.7099999999999
 31
0.0
  0
LINE
  5
114
  8
0
 62
     7
 10
-1157.889157834343
 20
-183.5099999999999
 30
0.0
 11
-1163.991178210598
 21
-183.5099999999999
 31
0.0
  0
LINE
  5
115
  8
0
 62
     7
 10
-1157.889157834343
 20
-167.5099999999998
 30
0.0
 11
-1157.889157834343
 21
-183.5099999999998
 31
0.0
  0
LINE
  5
116
  8
0
 62
     7
 10
-1157.889157834343
 20
-167.5099999999999
 30
0.0
 11
-1161.889157834343
 21
-167.5099999999999
 31
0.0
  0
LINE
  5
117
  8
0
 62
     7
 10
-1161.889157834343
 20
-161.5100000000001
 30
0.0
 11
-1158.389157834343
 21
-161.5100000000001
 31
0.0
  0
LINE
  5
118
  8
0
 62
     7
 10
-1158.389157834343
 20
-161.51
 30
0.0
 11
-1158.389157834344
 21
-119.1
 31
0.0
  0
LINE
  5
119
  8
0
 62
     7
 10
-1158.389157834343
 20
-119.1
 30
0.0
 11
-1262.964157834343
 21
-119.1000000000002
 31
0.0
  0
LINE
  5
11A
  8
0
 62
     7
 10
-1262.964157834343
 20
-145.1099999999999
 30
0.0
 11
-1262.964157834343
 21
-119.1000000000002
 31
0.0
  0
LINE
  5
11B
  8
0
 62
     7
 10
-1250.964157834293
 20
-145.1100000000002
 30
0.0
 11
-1262.964157834343
 21
-145.1100000000001
 31
0.0
  0
LINE
  5
11C
  8
0
 62
     7
 10
-1250.964157834293
 20
-142.76
 30
0.0
 11
-1250.964157834293
 21
-145.1100000000002
 31
0.0
  0
ARC
  5
11D
  8
0
 62
     7
 10
-1249.364157834293
 20
-142.7600000000001
 30
0.0000000000000271
 40
1.599999999999977
 50
359.999999999999
 51
179.999999999998
  0
LINE
  5
11E
  8
0
 62
     7
 10
-1243.964157834293
 20
-142.7600000000001
 30
0.0
 11
-1247.764157834293
 21
-142.7600000000001
 31
0.0
  0
LINE
  5
11F
  8
0
 62
     7
 10
-1241.964157834293
 20
-144.7600000000001
 30
0.0
 11
-1241.964157834293
 21
-153.46
 31
0.0
  0
LINE
  5
120
  8
0
 62
     7
 10
-1247.764157834293
 20
-155.46
 30
0.0
 11
-1243.964157834293
 21
-155.46
 31
0.0
  0
ARC
  5
121
  8
0
 62
     7
 10
-1249.364157834293
 20
-155.46
 30
0.000000000000014
 40
1.599999999999997
 50
180.000000000002
 51
359.999999999998
  0
LINE
  5
122
  8
0
 62
     7
 10
-1250.964157834293
 20
-153.1100000000001
 30
0.0
 11
-1250.964157834293
 21
-155.46
 31
0.0
  0
LINE
  5
123
  8
0
 62
     7
 10
-1262.964157834343
 20
-153.11
 30
0.0
 11
-1250.964157834293
 21
-153.1100000000001
 31
0.0
  0
LINE
  5
124
  8
0
 62
     7
 10
-1262.964157834343
 20
-165.11
 30
0.0
 11
-1262.964157834343
 21
-153.1099999999999
 31
0.0
  0
LINE
  5
125
  8
0
 62
     7
 10
-1274.964157834343
 20
-203.11
 30
0.0
 11
-1274.964157834343
 21
-167.11
 31
0.0
  0
LINE
  5
126
  8
0
 62
     7
 10
-1272.964157834343
 20
-205.1100000000001
 30
0.0
 11
-1262.964157834343
 21
-205.11
 31
0.0
  0
LINE
  5
127
  8
0
 62
     7
 10
-1262.964157834343
 20
-217.1099999999998
 30
0.0
 11
-1262.964157834343
 21
-205.11
 31
0.0
  0
LINE
  5
128
  8
0
 62
     7
 10
-1250.964157834293
 20
-217.1099999999999
 30
0.0
 11
-1262.964157834343
 21
-217.1099999999999
 31
0.0
  0
LINE
  5
129
  8
0
 62
     7
 10
-1250.964157834293
 20
-214.7599999999999
 30
0.0
 11
-1250.964157834293
 21
-217.1099999999999
 31
0.0
  0
ARC
  5
12A
  8
0
 62
     7
 10
-1249.364157834293
 20
-214.76
 30
0.0000000000000082
 40
1.600000000000017
 50
360.0
 51
179.999999999998
  0
LINE
  5
12B
  8
0
 62
     7
 10
-1243.964157834293
 20
-214.76
 30
0.0
 11
-1247.764157834293
 21
-214.76
 31
0.0
  0
LINE
  5
12C
  8
0
 62
     7
 10
-1241.964157834293
 20
-216.7600000000001
 30
0.0
 11
-1241.964157834293
 21
-225.46
 31
0.0
  0
LINE
  5
12D
  8
0
 62
     7
 10
-1247.764157834293
 20
-227.4600000000001
 30
0.0
 11
-1243.964157834293
 21
-227.4600000000001
 31
0.0
  0
ARC
  5
12E
  8
0
 62
     7
 10
-1249.364157834293
 20
-227.46
 30
-0.0000000000000049
 40
1.600000000000007
 50
180.000000000001
 51
359.999999999999
  0
LINE
  5
12F
  8
0
 62
     7
 10
-1250.964157834293
 20
-225.11
 30
0.0
 11
-1250.964157834293
 21
-227.46
 31
0.0
  0
LINE
  5
130
  8
0
 62
     7
 10
-1262.964157834343
 20
-225.11
 30
0.0
 11
-1250.964157834293
 21
-225.11
 31
0.0
  0
LINE
  5
131
  8
0
 62
     7
 10
-1262.964157834343
 20
-251.1199999999998
 30
0.0
 11
-1262.964157834343
 21
-225.11
 31
0.0
  0
LINE
  5
132
  8
0
 62
     7
 10
-1262.964157834343
 20
-251.1199999999999
 30
0.0
 11
-1144.814157834342
 21
-251.1199999999998
 31
0.0
  0
LINE
  5
133
  8
0
 62
     7
 10
-1144.814157834343
 20
-251.1199999999998
 30
0.0
 11
-1144.814157834343
 21
-238.7899999999999
 31
0.0
  0
LINE
  5
134
  8
0
 62
     7
 10
-1144.814157834343
 20
-238.7899999999999
 30
0.0
 11
-1124.814157834343
 21
-238.7899999999998
 31
0.0
  0
LINE
  5
135
  8
0
 62
     7
 10
-1124.814157834343
 20
-238.7899999999999
 30
0.0
 11
-1124.814157834343
 21
-251.1199999999997
 31
0.0
  0
LINE
  5
136
  8
0
 62
     7
 10
-1124.814157834343
 20
-251.1199999999997
 30
0.0
 11
-1118.814157834343
 21
-251.1199999999997
 31
0.0
  0
LINE
  5
137
  8
0
 62
     7
 10
-1112.814157834343
 20
-245.1199999999997
 30
0.0
 11
-1112.814157834343
 21
-186.7099999999997
 31
0.0
  0
LINE
  5
138
  8
0
 62
     7
 10
-1149.889157834343
 20
-186.7099999999998
 30
0.0
 11
-1112.814157834343
 21
-186.7099999999997
 31
0.0
  0
LINE
  5
139
  8
0
 62
     7
 10
-1149.889157834343
 20
-204.2099999999999
 30
0.0
 11
-1149.889157834343
 21
-186.7099999999998
 31
0.0
  0
LINE
  5
13A
  8
0
 62
     7
 10
-1147.539157834343
 20
-204.2099999999998
 30
0.0
 11
-1149.889157834343
 21
-204.2099999999998
 31
0.0
  0
LINE
  5
13B
  8
0
 62
     7
 10
-1147.539157834343
 20
-211.2099999999998
 30
0.0
 11
-1147.539157834343
 21
-207.4099999999999
 31
0.0
  0
LINE
  5
13C
  8
0
 62
     7
 10
-1149.889157834343
 20
-211.2099999999998
 30
0.0
 11
-1147.539157834343
 21
-211.2099999999998
 31
0.0
  0
LINE
  5
13D
  8
0
 62
     7
 10
-1149.889157834343
 20
-220.2099999999999
 30
0.0
 11
-1149.889157834343
 21
-211.2099999999998
 31
0.0
  0
LINE
  5
13E
  8
0
 62
     7
 10
-1157.889157834343
 20
-220.2099999999999
 30
0.0
 11
-1149.889157834343
 21
-220.2099999999999
 31
0.0
  0
LINE
  5
13F
  8
0
 62
     7
 10
-1157.889157834343
 20
-211.2099999999999
 30
0.0
 11
-1157.889157834343
 21
-220.2099999999999
 31
0.0
  0
LINE
  5
140
  8
0
 62
     7
 10
-1160.239157834343
 20
-211.2099999999999
 30
0.0
 11
-1157.889157834343
 21
-211.2099999999999
 31
0.0
  0
LINE
  5
141
  8
0
 62
     7
 10
-1160.239157834343
 20
-207.4099999999999
 30
0.0
 11
-1160.239157834343
 21
-211.2099999999999
 31
0.0
  0
LINE
  5
142
  8
0
 62
     7
 10
-1157.889157834343
 20
-204.2099999999999
 30
0.0
 11
-1160.239157834343
 21
-204.2099999999999
 31
0.0
  0
LINE
  5
143
  8
0
 62
     7
 10
-1250.965034010977
 20
-235.1100000000008
 30
0.0
 11
-1243.964157834293
 21
-235.1100000000009
 31
0.0
  0
LINE
  5
144
  8
0
 62
     7
 10
-1250.965034010977
 20
-235.1100000000008
 30
0.0
 11
-1250.965034010977
 21
-231.1100000000008
 31
0.0
  0
LINE
  5
145
  8
0
 62
     7
 10
-1243.964157834293
 20
-231.1100000000009
 30
0.0
 11
-1250.965034010977
 21
-231.1100000000008
 31
0.0
  0
LINE
  5
146
  8
0
 62
     7
 10
-1243.964157834293
 20
-231.1100000000009
 30
0.0
 11
-1243.964157834293
 21
-235.1100000000009
 31
0.0
  0
LINE
  5
147
  8
0
 62
     7
 10
-1243.964157834293
 20
-139.110000000001
 30
0.0
 11
-1250.964157834293
 21
-139.1100000000009
 31
0.0
  0
LINE
  5
148
  8
0
 62
     7
 10
-1250.964157834293
 20
-139.110000000001
 30
0.0
 11
-1250.964157834293
 21
-135.110000000001
 31
0.0
  0
LINE
  5
149
  8
0
 62
     7
 10
-1250.964157834293
 20
-135.110000000001
 30
0.0
 11
-1243.964157834293
 21
-135.110000000001
 31
0.0
  0
LINE
  5
14A
  8
0
 62
     7
 10
-1243.964157834293
 20
-135.110000000001
 30
0.0
 11
-1243.964157834293
 21
-139.110000000001
 31
0.0
  0
LINE
  5
14B
  8
0
 62
     7
 10
-1149.889157834343
 20
-167.5099999999999
 30
0.0
 11
-1157.889157834343
 21
-167.5099999999999
 31
0.0
  0
LINE
  5
14C
  8
0
 62
     7
 10
-1149.889157834343
 20
-183.5099999999998
 30
0.0
 11
-1157.889157834343
 21
-183.5099999999998
 31
0.0
  0
LINE
  5
14D
  8
0
 62
     7
 10
-1158.389157834343
 20
-161.51
 30
0.0
 11
-1149.389157834344
 21
-161.51
 31
0.0
  0
LINE
  5
14E
  8
0
 62
     7
 10
-1149.389157834343
 20
-119.1
 30
0.0
 11
-1158.389157834343
 21
-119.1
 31
0.0
  0
LINE
  5
14F
  8
0
 62
     7
 10
-1149.389157834343
 20
-161.51
 30
0.0
 11
-1145.889157834343
 21
-161.51
 31
0.0
  0
LINE
  5
150
  8
0
 62
     7
 10
-1145.889157834343
 20
-167.5099999999998
 30
0.0
 11
-1149.889157834343
 21
-167.5099999999998
 31
0.0
  0
LINE
  5
151
  8
0
 62
     7
 10
-1149.889157834343
 20
-167.5099999999998
 30
0.0
 11
-1149.889157834343
 21
-183.5099999999998
 31
0.0
  0
LINE
  5
152
  8
0
 62
     7
 10
-1149.889157834343
 20
-183.5099999999998
 30
0.0
 11
-1112.814157834343
 21
-183.5099999999997
 31
0.0
  0
LINE
  5
153
  8
0
 62
     7
 10
-1112.814157834343
 20
-183.5099999999997
 30
0.0
 11
-1112.814157834343
 21
-125.0999999999999
 31
0.0
  0
LINE
  5
154
  8
0
 62
     7
 10
-1118.814157834343
 20
-119.0999999999999
 30
0.0
 11
-1124.814157834344
 21
-119.0999999999999
 31
0.0
  0
LINE
  5
155
  8
0
 62
     7
 10
-1124.814157834343
 20
-119.0999999999999
 30
0.0
 11
-1124.814157834343
 21
-131.11
 31
0.0
  0
LINE
  5
156
  8
0
 62
     7
 10
-1124.814157834343
 20
-131.11
 30
0.0
 11
-1144.814157834343
 21
-131.11
 31
0.0
  0
LINE
  5
157
  8
0
 62
     7
 10
-1144.814157834343
 20
-131.11
 30
0.0
 11
-1144.814157834343
 21
-119.0999999999999
 31
0.0
  0
LINE
  5
158
  8
0
 62
     7
 10
-1144.814157834343
 20
-119.0999999999999
 30
0.0
 11
-1149.389157834343
 21
-119.1
 31
0.0
  0
LINE
  5
159
  8
0
 62
     7
 10
-1149.389157834343
 20
-119.1
 30
0.0
 11
-1149.389157834343
 21
-161.51
 31
0.0
  0
LINE
  5
15A
  8
0
 62
     7
 10
-1157.889157834343
 20
-186.7099999999998
 30
0.0
 11
-1149.889157834343
 21
-186.7099999999998
 31
0.0
  0
ENDSEC
  0
EOF
