999
dxfrw 0.6.3
  0
SECTION
  2
HEADER
  9
$ACADVER
  1
AC1021
  9
$DWGCODEPAGE
  3
ANSI_1252
  9
$INSBASE
 10
0
 20
0
 30
0
  9
$EXTMIN
 10
-2184.067856720667
 20
908.161315629377
 30
0
  9
$EXTMAX
 10
268.8042735558973
 20
2135.396439291112
 30
0
  9
$LIMMIN
 10
0
 20
0
  9
$LIMMAX
 10
420
 20
297
  9
$ORTHOMODE
 70
    0
  9
$REGENMODE
 70
    1
  9
$FILLMODE
 70
    1
  9
$QTEXTMODE
 70
    0
  9
$MIRRTEXT
 70
    1
  9
$LTSCALE
 40
1
  9
$ATTMODE
 70
    1
  9
$TEXTSIZE
 40
2.5
  9
$TRACEWID
 40
1
  9
$TEXTSTYLE
  7
Standard
  9
$CLAYER
  8
0
  9
$CELTYPE
  6
ByLayer
  9
$CECOLOR
 62
  256
  9
$CELTSCALE
 40
1
  9
$DISPSILH
 70
    0
  9
$DIMSCALE
 40
1
  9
$DIMASZ
 40
2.5
  9
$DIMEXO
 40
0.625
  9
$DIMDLI
 40
3.75
  9
$DIMRND
 40
0
  9
$DIMDLE
 40
0
  9
$DIMEXE
 40
1.25
  9
$DIMTP
 40
0
  9
$DIMTM
 40
0
  9
$DIMTXT
 40
2.5
  9
$DIMCEN
 40
2.5
  9
$DIMTSZ
 40
0
  9
$DIMTOL
 70
    0
  9
$DIMLIM
 70
    0
  9
$DIMTIH
 70
    1
  9
$DIMTOH
 70
    0
  9
$DIMSE1
 70
    0
  9
$DIMSE2
 70
    0
  9
$DIMTAD
 70
    1
  9
$DIMZIN
 70
    8
  9
$DIMBLK
  1

  9
$DIMASO
 70
    1
  9
$DIMSHO
 70
    1
  9
$DIMPOST
  1
mm
  9
$DIMAPOST
  1

  9
$DIMALT
 70
    0
  9
$DIMALTD
 70
    3
  9
$DIMALTF
 40
0.0393700787401575
  9
$DIMLFAC
 40
1
  9
$DIMTOFL
 70
    1
  9
$DIMTVP
 40
0
  9
$DIMTIX
 70
    0
  9
$DIMSOXD
 70
    0
  9
$DIMSAH
 70
    0
  9
$DIMBLK1
  1

  9
$DIMBLK2
  1

  9
$DIMSTYLE
  2
ISO-25
  9
$DIMCLRD
 70
    0
  9
$DIMCLRE
 70
    0
  9
$DIMCLRT
 70
    0
  9
$DIMTFAC
 40
1
  9
$DIMGAP
 40
0.625
  9
$DIMJUST
 70
    0
  9
$DIMSD1
 70
    0
  9
$DIMSD2
 70
    0
  9
$DIMTOLJ
 70
    0
  9
$DIMTZIN
 70
    8
  9
$DIMALTZ
 70
    0
  9
$DIMALTTZ
 70
    8
  9
$DIMUPT
 70
    0
  9
$DIMDEC
 70
    2
  9
$DIMTDEC
 70
    2
  9
$DIMALTU
 70
    2
  9
$DIMALTTD
 70
    3
  9
$DIMTXSTY
  7
Standard
  9
$DIMAUNIT
 70
    0
  9
$DIMADEC
 70
    0
  9
$DIMALTRND
 40
0
  9
$DIMAZIN
 70
    0
  9
$DIMDSEP
 70
   46
  9
$DIMATFIT
 70
    3
  9
$DIMFRAC
 70
    0
  9
$DIMLDRBLK
  1

  9
$DIMLUNIT
 70
    2
  9
$DIMLWD
 70
   -2
  9
$DIMLWE
 70
   -2
  9
$DIMTMOVE
 70
    0
  9
$DIMFXL
 40
1
  9
$DIMFXLON
 70
    0
  9
$DIMJOGANG
 40
0.7853981633974483
  9
$DIMTFILL
 70
    0
  9
$DIMTFILLCLR
 70
    0
  9
$DIMARCSYM
 70
    0
  9
$DIMLTYPE
  6

  9
$DIMLTEX1
  6

  9
$DIMLTEX2
  6

  9
$LUNITS
 70
    2
  9
$LUPREC
 70
    4
  9
$SKETCHINC
 40
1
  9
$FILLETRAD
 40
10
  9
$AUNITS
 70
    0
  9
$AUPREC
 70
    0
  9
$MENU
  1
.
  9
$ELEVATION
 40
0
  9
$PELEVATION
 40
0
  9
$THICKNESS
 40
0
  9
$LIMCHECK
 70
    0
  9
$CHAMFERA
 40
0
  9
$CHAMFERB
 40
0
  9
$CHAMFERC
 40
0
  9
$CHAMFERD
 40
0
  9
$SKPOLY
 70
    0
  9
$USRTIMER
 70
    1
  9
$ANGBASE
 50
0
  9
$ANGDIR
 70
    0
  9
$PDMODE
 70
    0
  9
$PDSIZE
 40
0
  9
$PLINEWID
 40
0
  9
$SPLFRAME
 70
    0
  9
$SPLINETYPE
 70
    6
  9
$SPLINESEGS
 70
    8
  9
$HANDSEED
  5
20000
  9
$SURFTAB1
 70
    6
  9
$SURFTAB2
 70
    6
  9
$SURFTYPE
 70
    6
  9
$SURFU
 70
    6
  9
$SURFV
 70
    6
  9
$UCSBASE
  2

  9
$UCSNAME
  2

  9
$UCSORG
 10
0
 20
0
 30
0
  9
$UCSXDIR
 10
1
 20
0
 30
0
  9
$UCSYDIR
 10
0
 20
1
 30
0
  9
$UCSORTHOREF
  2

  9
$UCSORTHOVIEW
 70
    0
  9
$UCSORGTOP
 10
0
 20
0
 30
0
  9
$UCSORGBOTTOM
 10
0
 20
0
 30
0
  9
$UCSORGLEFT
 10
0
 20
0
 30
0
  9
$UCSORGRIGHT
 10
0
 20
0
 30
0
  9
$UCSORGFRONT
 10
0
 20
0
 30
0
  9
$UCSORGBACK
 10
0
 20
0
 30
0
  9
$PUCSBASE
  2

  9
$PUCSNAME
  2

  9
$PUCSORG
 10
0
 20
0
 30
0
  9
$PUCSXDIR
 10
1
 20
0
 30
0
  9
$PUCSYDIR
 10
0
 20
1
 30
0
  9
$PUCSORTHOREF
  2

  9
$PUCSORTHOVIEW
 70
    0
  9
$PUCSORGTOP
 10
0
 20
0
 30
0
  9
$PUCSORGBOTTOM
 10
0
 20
0
 30
0
  9
$PUCSORGLEFT
 10
0
 20
0
 30
0
  9
$PUCSORGRIGHT
 10
0
 20
0
 30
0
  9
$PUCSORGFRONT
 10
0
 20
0
 30
0
  9
$PUCSORGBACK
 10
0
 20
0
 30
0
  9
$USERI1
 70
    0
  9
$USERI2
 70
    0
  9
$USERI3
 70
    0
  9
$USERI4
 70
    0
  9
$USERI5
 70
    0
  9
$USERR1
 40
0
  9
$USERR2
 40
0
  9
$USERR3
 40
0
  9
$USERR4
 40
0
  9
$USERR5
 40
0
  9
$WORLDVIEW
 70
    1
  9
$SHADEDGE
 70
    3
  9
$SHADEDIF
 70
   70
  9
$TILEMODE
 70
    1
  9
$MAXACTVP
 70
   64
  9
$PINSBASE
 10
0
 20
0
 30
0
  9
$PLIMCHECK
 70
    0
  9
$PEXTMIN
 10
1e+020
 20
1e+020
 30
1e+020
  9
$PEXTMAX
 10
-1e+020
 20
-1e+020
 30
-1e+020
  9
$GRIDMODE
 70
    0
  9
$SNAPSTYLE
 70
    0
  9
$PLIMMIN
 10
0
 20
0
  9
$PLIMMAX
 10
420
 20
297
  9
$UNITMODE
 70
    0
  9
$VISRETAIN
 70
    1
  9
$PLINEGEN
 70
    0
  9
$PSLTSCALE
 70
    1
  9
$TREEDEPTH
 70
 3020
  9
$CMLSTYLE
  2
Standard
  9
$CMLJUST
 70
    0
  9
$CMLSCALE
 40
20
  9
$PROXYGRAPHICS
 70
    1
  9
$MEASUREMENT
 70
    1
  9
$CELWEIGHT
370
   -1
  9
$ENDCAPS
280
    0
  9
$JOINSTYLE
280
    0
  9
$LWDISPLAY
290
    0
  9
$INSUNITS
 70
    4
  9
$HYPERLINKBASE
  1

  9
$STYLESHEET
  1

  9
$XEDIT
290
    1
  9
$CEPSNTYPE
380
    0
  9
$PSTYLEMODE
290
    1
  9
$EXTNAMES
290
    1
  9
$PSVPSCALE
 40
0
  9
$OLESTARTUP
290
    0
  9
$SORTENTS
280
  127
  9
$INDEXCTL
280
    0
  9
$HIDETEXT
280
    1
  9
$XCLIPFRAME
290
    2
  9
$HALOGAP
280
    0
  9
$OBSCOLOR
 70
  257
  9
$OBSLTYPE
280
    0
  9
$INTERSECTIONDISPLAY
280
    0
  9
$INTERSECTIONCOLOR
 70
  257
  9
$DIMASSOC
280
    2
  9
$PROJECTNAME
  1

  9
$CAMERADISPLAY
290
    0
  9
$LENSLENGTH
 40
50
  9
$CAMERAHEIGHT
 40
0
  9
$STEPSPERSEC
 40
2
  9
$STEPSIZE
 40
6
  9
$3DDWFPREC
 40
2
  9
$PSOLWIDTH
 40
5
  9
$PSOLHEIGHT
 40
80
  9
$LOFTANG1
 40
1.570796326794897
  9
$LOFTANG2
 40
1.570796326794897
  9
$LOFTMAG1
 40
0
  9
$LOFTMAG2
 40
0
  9
$LOFTPARAM
 70
    7
  9
$LOFTNORMALS
280
    1
  9
$LATITUDE
 40
37.795
  9
$LONGITUDE
 40
-122.394
  9
$NORTHDIRECTION
 40
0
  9
$TIMEZONE
 70
-8000
  9
$LIGHTGLYPHDISPLAY
280
    1
  9
$TILEMODELIGHTSYNCH
280
    1
  9
$SOLIDHIST
280
    0
  9
$SHOWHIST
280
    1
  9
$DWFFRAME
280
    2
  9
$DGNFRAME
280
    2
  9
$REALWORLDSCALE
290
    1
  9
$INTERFERECOLOR
 62
  256
  9
$CSHADOW
280
    0
  9
$SHADOWPLANELOCATION
 40
0
  0
ENDSEC
  0
SECTION
  2
CLASSES
  0
ENDSEC
  0
SECTION
  2
TABLES
  0
TABLE
  2
VPORT
  5
8
330
0
100
AcDbSymbolTable
 70
    1
  0
VPORT
  5
31
330
2
100
AcDbSymbolTableRecord
100
AcDbViewportTableRecord
  2
*ACTIVE
 70
    0
 10
0
 20
0
 11
1
 21
1
 12
-612.966491894345
 22
536.9903862647224
 13
0
 23
0
 14
10
 24
10
 15
10
 25
10
 16
0
 26
0
 36
1
 17
0
 27
0
 37
0
 40
166.4332966664581
 41
1.889153754469607
 42
50
 43
0
 44
0
 50
0
 51
0
 71
    0
 72
  100
 73
    1
 74
    3
 75
    0
 76
    0
 77
    0
 78
    0
281
    0
 65
    1
110
0
120
0
130
0
111
1
121
0
131
0
112
0
122
1
132
0
 79
    0
146
0
348
10020
 60
    7
 61
    5
292
1
282
    1
141
0
142
0
 63
  250
421
3358443
  0
ENDTAB
  0
TABLE
  2
LTYPE
  5
5
330
0
100
AcDbSymbolTable
 70
    4
  0
LTYPE
  5
14
330
5
100
AcDbSymbolTableRecord
100
AcDbLinetypeTableRecord
  2
ByBlock
 70
    0
  3

 72
   65
 73
    0
 40
0
  0
LTYPE
  5
15
330
5
100
AcDbSymbolTableRecord
100
AcDbLinetypeTableRecord
  2
ByLayer
 70
    0
  3

 72
   65
 73
    0
 40
0
  0
LTYPE
  5
16
330
5
100
AcDbSymbolTableRecord
100
AcDbLinetypeTableRecord
  2
Continuous
 70
    0
  3
Solid line
 72
   65
 73
    0
 40
0
  0
LTYPE
  5
32
330
5
100
AcDbSymbolTableRecord
100
AcDbLinetypeTableRecord
  2
DOT
 70
    0
  3
Dot . . . . . . . . . . . . . . . . . . . . . .
 72
   65
 73
    2
 40
6.35
 49
0
 74
    0
 49
-6.35
 74
    0
  0
LTYPE
  5
33
330
5
100
AcDbSymbolTableRecord
100
AcDbLinetypeTableRecord
  2
DOTTINY
 70
    0
  3
Dot (.15x) .....................................
 72
   65
 73
    2
 40
0.9525
 49
0
 74
    0
 49
-0.9525
 74
    0
  0
LTYPE
  5
34
330
5
100
AcDbSymbolTableRecord
100
AcDbLinetypeTableRecord
  2
DOT2
 70
    0
  3
Dot (.5x) .....................................
 72
   65
 73
    2
 40
3.175
 49
0
 74
    0
 49
-3.175
 74
    0
  0
LTYPE
  5
35
330
5
100
AcDbSymbolTableRecord
100
AcDbLinetypeTableRecord
  2
DOTX2
 70
    0
  3
Dot (2x) .  .  .  .  .  .  .  .  .  .  .  .  .
 72
   65
 73
    2
 40
12.7
 49
0
 74
    0
 49
-12.7
 74
    0
  0
LTYPE
  5
36
330
5
100
AcDbSymbolTableRecord
100
AcDbLinetypeTableRecord
  2
DASHED
 70
    0
  3
Dashed _ _ _ _ _ _ _ _ _ _ _ _ _ _ _ _ _
 72
   65
 73
    2
 40
19.05
 49
12.7
 74
    0
 49
-6.35
 74
    0
  0
LTYPE
  5
37
330
5
100
AcDbSymbolTableRecord
100
AcDbLinetypeTableRecord
  2
DASHEDTINY
 70
    0
  3
Dashed (.15x) _ _ _ _ _ _ _ _ _ _ _ _ _ _ _ _ _
 72
   65
 73
    2
 40
2.8575
 49
1.905
 74
    0
 49
-0.9525
 74
    0
  0
LTYPE
  5
38
330
5
100
AcDbSymbolTableRecord
100
AcDbLinetypeTableRecord
  2
DASHED2
 70
    0
  3
Dashed (.5x) _ _ _ _ _ _ _ _ _ _ _ _ _ _ _ _ _
 72
   65
 73
    2
 40
9.524999999999999
 49
6.35
 74
    0
 49
-3.175
 74
    0
  0
LTYPE
  5
39
330
5
100
AcDbSymbolTableRecord
100
AcDbLinetypeTableRecord
  2
DASHEDX2
 70
    0
  3
Dashed (2x) ____  ____  ____  ____  ____  ___
 72
   65
 73
    2
 40
38.09999999999999
 49
25.4
 74
    0
 49
-12.7
 74
    0
  0
LTYPE
  5
3A
330
5
100
AcDbSymbolTableRecord
100
AcDbLinetypeTableRecord
  2
DASHDOT
 70
    0
  3
Dash dot __ . __ . __ . __ . __ . __ . __ . __
 72
   65
 73
    4
 40
25.4
 49
12.7
 74
    0
 49
-6.35
 74
    0
 49
0
 74
    0
 49
-6.35
 74
    0
  0
LTYPE
  5
3B
330
5
100
AcDbSymbolTableRecord
100
AcDbLinetypeTableRecord
  2
DASHDOTTINY
 70
    0
  3
Dash dot (.15x) _._._._._._._._._._._._._._._.
 72
   65
 73
    4
 40
3.81
 49
1.905
 74
    0
 49
-0.9525
 74
    0
 49
0
 74
    0
 49
-0.9525
 74
    0
  0
LTYPE
  5
3C
330
5
100
AcDbSymbolTableRecord
100
AcDbLinetypeTableRecord
  2
DASHDOT2
 70
    0
  3
Dash dot (.5x) _._._._._._._._._._._._._._._.
 72
   65
 73
    4
 40
12.7
 49
6.35
 74
    0
 49
-3.175
 74
    0
 49
0
 74
    0
 49
-3.175
 74
    0
  0
LTYPE
  5
3D
330
5
100
AcDbSymbolTableRecord
100
AcDbLinetypeTableRecord
  2
DASHDOTX2
 70
    0
  3
Dash dot (2x) ____  .  ____  .  ____  .  ___
 72
   65
 73
    4
 40
50.8
 49
25.4
 74
    0
 49
-12.7
 74
    0
 49
0
 74
    0
 49
-12.7
 74
    0
  0
LTYPE
  5
3E
330
5
100
AcDbSymbolTableRecord
100
AcDbLinetypeTableRecord
  2
DIVIDE
 70
    0
  3
Divide ____ . . ____ . . ____ . . ____ . . ____
 72
   65
 73
    6
 40
31.75
 49
12.7
 74
    0
 49
-6.35
 74
    0
 49
0
 74
    0
 49
-6.35
 74
    0
 49
0
 74
    0
 49
-6.35
 74
    0
  0
LTYPE
  5
3F
330
5
100
AcDbSymbolTableRecord
100
AcDbLinetypeTableRecord
  2
DIVIDETINY
 70
    0
  3
Divide (.15x) __..__..__..__..__..__..__..__.._
 72
   65
 73
    6
 40
4.7625
 49
1.905
 74
    0
 49
-0.9525
 74
    0
 49
0
 74
    0
 49
-0.9525
 74
    0
 49
0
 74
    0
 49
-0.9525
 74
    0
  0
LTYPE
  5
40
330
5
100
AcDbSymbolTableRecord
100
AcDbLinetypeTableRecord
  2
DIVIDE2
 70
    0
  3
Divide (.5x) __..__..__..__..__..__..__..__.._
 72
   65
 73
    6
 40
15.875
 49
6.35
 74
    0
 49
-3.175
 74
    0
 49
0
 74
    0
 49
-3.175
 74
    0
 49
0
 74
    0
 49
-3.175
 74
    0
  0
LTYPE
  5
41
330
5
100
AcDbSymbolTableRecord
100
AcDbLinetypeTableRecord
  2
DIVIDEX2
 70
    0
  3
Divide (2x) ________  .  .  ________  .  .  _
 72
   65
 73
    6
 40
63.5
 49
25.4
 74
    0
 49
-12.7
 74
    0
 49
0
 74
    0
 49
-12.7
 74
    0
 49
0
 74
    0
 49
-12.7
 74
    0
  0
LTYPE
  5
42
330
5
100
AcDbSymbolTableRecord
100
AcDbLinetypeTableRecord
  2
BORDER
 70
    0
  3
Border __ __ . __ __ . __ __ . __ __ . __ __ .
 72
   65
 73
    6
 40
44.45
 49
12.7
 74
    0
 49
-6.35
 74
    0
 49
12.7
 74
    0
 49
-6.35
 74
    0
 49
0
 74
    0
 49
-6.35
 74
    0
  0
LTYPE
  5
43
330
5
100
AcDbSymbolTableRecord
100
AcDbLinetypeTableRecord
  2
BORDERTINY
 70
    0
  3
Border (.15x) __.__.__.__.__.__.__.__.__.__.__.
 72
   65
 73
    6
 40
6.6675
 49
1.905
 74
    0
 49
-0.9525
 74
    0
 49
1.905
 74
    0
 49
-0.9525
 74
    0
 49
0
 74
    0
 49
-0.9525
 74
    0
  0
LTYPE
  5
44
330
5
100
AcDbSymbolTableRecord
100
AcDbLinetypeTableRecord
  2
BORDER2
 70
    0
  3
Border (.5x) __.__.__.__.__.__.__.__.__.__.__.
 72
   65
 73
    6
 40
22.225
 49
6.35
 74
    0
 49
-3.175
 74
    0
 49
6.35
 74
    0
 49
-3.175
 74
    0
 49
0
 74
    0
 49
-3.175
 74
    0
  0
LTYPE
  5
45
330
5
100
AcDbSymbolTableRecord
100
AcDbLinetypeTableRecord
  2
BORDERX2
 70
    0
  3
Border (2x) ____  ____  .  ____  ____  .  ___
 72
   65
 73
    6
 40
88.89999999999999
 49
25.4
 74
    0
 49
-12.7
 74
    0
 49
25.4
 74
    0
 49
-12.7
 74
    0
 49
0
 74
    0
 49
-12.7
 74
    0
  0
LTYPE
  5
46
330
5
100
AcDbSymbolTableRecord
100
AcDbLinetypeTableRecord
  2
CENTER
 70
    0
  3
Center ____ _ ____ _ ____ _ ____ _ ____ _ ____
 72
   65
 73
    4
 40
50.8
 49
31.75
 74
    0
 49
-6.35
 74
    0
 49
6.35
 74
    0
 49
-6.35
 74
    0
  0
LTYPE
  5
47
330
5
100
AcDbSymbolTableRecord
100
AcDbLinetypeTableRecord
  2
CENTERTINY
 70
    0
  3
Center (.15x) ___ _ ___ _ ___ _ ___ _ ___ _ ___
 72
   65
 73
    4
 40
7.62
 49
4.7625
 74
    0
 49
-0.9525
 74
    0
 49
0.9525
 74
    0
 49
-0.9525
 74
    0
  0
LTYPE
  5
48
330
5
100
AcDbSymbolTableRecord
100
AcDbLinetypeTableRecord
  2
CENTER2
 70
    0
  3
Center (.5x) ___ _ ___ _ ___ _ ___ _ ___ _ ___
 72
   65
 73
    4
 40
28.575
 49
19.05
 74
    0
 49
-3.175
 74
    0
 49
3.175
 74
    0
 49
-3.175
 74
    0
  0
LTYPE
  5
49
330
5
100
AcDbSymbolTableRecord
100
AcDbLinetypeTableRecord
  2
CENTERX2
 70
    0
  3
Center (2x) ________  __  ________  __  _____
 72
   65
 73
    4
 40
101.6
 49
63.5
 74
    0
 49
-12.7
 74
    0
 49
12.7
 74
    0
 49
-12.7
 74
    0
  0
ENDTAB
  0
TABLE
  2
LAYER
  5
2
330
0
100
AcDbSymbolTable
 70
    1
  0
LAYER
  5
10
330
2
100
AcDbSymbolTableRecord
100
AcDbLayerTableRecord
  2
0
 70
    0
 62
    7
  6
CONTINUOUS
370
   70
390
F
  0
ENDTAB
  0
TABLE
  2
STYLE
  5
3
330
0
100
AcDbSymbolTable
 70
    3
  0
STYLE
  5
4A
330
2
100
AcDbSymbolTableRecord
100
AcDbTextStyleTableRecord
  2
Standard
 70
    0
 40
0
 41
1
 50
0
 71
    0
 42
1
  3
txt
  4

  0
ENDTAB
  0
TABLE
  2
VIEW
  5
6
330
0
100
AcDbSymbolTable
 70
    0
  0
ENDTAB
  0
TABLE
  2
UCS
  5
7
330
0
100
AcDbSymbolTable
 70
    0
  0
ENDTAB
  0
TABLE
  2
APPID
  5
9
330
0
100
AcDbSymbolTable
 70
    1
  0
APPID
  5
12
330
9
100
AcDbSymbolTableRecord
100
AcDbRegAppTableRecord
  2
ACAD
 70
    0
  0
APPID
  5
4B
330
9
100
AcDbSymbolTableRecord
100
AcDbRegAppTableRecord
  2
LibreCad
 70
    0
  0
ENDTAB
  0
TABLE
  2
DIMSTYLE
  5
A
330
0
100
AcDbSymbolTable
 70
    1
100
AcDbDimStyleTable
 71
    1
  0
DIMSTYLE
105
4C
330
A
100
AcDbSymbolTableRecord
100
AcDbDimStyleTableRecord
  2
Standard
 70
    0
 40
1
 41
2.5
 42
0.625
 43
0.38
 44
1.25
 45
0
 46
0
 47
0
 48
0
 49
1
140
2.5
141
0.09
142
0
143
25.4
144
1
145
0
146
1
147
0.625
148
0
 71
    0
 72
    0
 73
    1
 74
    1
 75
    0
 76
    0
 77
    0
 78
    8
 79
    0
170
    0
171
    2
172
    0
173
    0
174
    0
175
    0
176
    0
177
    0
178
    0
179
    0
271
    2
272
    4
273
    2
274
    2
275
    0
276
    0
277
    2
278
   46
279
    0
280
    0
281
    0
282
    0
283
    1
284
    0
285
    0
286
    0
288
    0
289
    3
340
Standard
341

371
   -2
372
   -2
  0
ENDTAB
  0
TABLE
  2
BLOCK_RECORD
  5
1
330
0
100
AcDbSymbolTable
 70
    2
  0
BLOCK_RECORD
  5
1F
330
1
100
AcDbSymbolTableRecord
100
AcDbBlockTableRecord
  2
*Model_Space
 70
    0
280
    1
281
    0
  0
BLOCK_RECORD
  5
1E
330
1
100
AcDbSymbolTableRecord
100
AcDbBlockTableRecord
  2
*Paper_Space
 70
    0
280
    1
281
    0
  0
ENDTAB
  0
ENDSEC
  0
SECTION
  2
BLOCKS
  0
BLOCK
  5
20
330
1F
100
AcDbEntity
  8
0
100
AcDbBlockBegin
  2
*Model_Space
 70
    0
 10
0
 20
0
 30
0
  3
*Model_Space
  1

  0
ENDBLK
  5
21
330
1F
100
AcDbEntity
  8
0
100
AcDbBlockEnd
  0
BLOCK
  5
1C
330
1B
100
AcDbEntity
  8
0
100
AcDbBlockBegin
  2
*Paper_Space
 70
    0
 10
0
 20
0
 30
0
  3
*Paper_Space
  1

  0
ENDBLK
  5
1D
330
1F
100
AcDbEntity
  8
0
100
AcDbBlockEnd
  0
ENDSEC
  0
SECTION
  2
ENTITIES
  0
LINE
  5
4D
100
AcDbEntity
  8
0
  6
ByLayer
 62
    7
370
   -3
100
AcDbLine
 10
-544.0621212844977
 20
1181.855023778498
 11
-544.0620835463626
 21
1178.855023778749
  0
LINE
  5
4E
100
AcDbEntity
  8
0
  6
ByLayer
 62
    7
370
   -3
100
AcDbLine
 10
-544.060876581305
 20
1082.907113743455
 11
-544.0608388431701
 21
1079.907113743706
  0
LINE
  5
4F
100
AcDbEntity
  8
0
  6
ByLayer
 62
    7
370
   -3
100
AcDbLine
 10
-544.0608766031593
 20
1082.907107680692
 11
-544.062083568217
 21
1178.855017715985
  0
LINE
  5
50
100
AcDbEntity
  8
0
  6
ByLayer
 62
    7
370
   -3
100
AcDbLine
 10
268.8035418863028
 20
1082.917339010562
 11
268.8035796244374
 21
1079.917339010812
  0
LINE
  5
51
100
AcDbEntity
  8
0
  6
ByLayer
 62
    7
370
   -3
100
AcDbLine
 10
-544.0608388431701
 20
1079.907113743706
 11
268.8035796244377
 21
1079.917339010812
  0
LINE
  5
52
100
AcDbEntity
  8
0
  6
ByLayer
 62
    7
370
   -3
100
AcDbLine
 10
-544.0608766031593
 20
1082.907107680691
 11
268.803491553799
 21
1082.917332947165
  0
LINE
  5
53
100
AcDbEntity
  8
0
  6
ByLayer
 62
    7
370
   -3
100
AcDbLine
 10
268.8022845887416
 20
1178.865242982459
 11
-544.0620835682168
 21
1178.855017715985
  0
LINE
  5
54
100
AcDbEntity
  8
0
  6
ByLayer
 62
    7
370
   -3
100
AcDbLine
 10
268.8022845887418
 20
1178.865242982459
 11
268.8034915537991
 21
1082.917332947165
  0
LINE
  5
55
100
AcDbEntity
  8
0
  6
ByLayer
 62
    7
370
   -3
100
AcDbLine
 10
268.8022971831103
 20
1181.865249045604
 11
268.8023349212451
 21
1178.865249045856
  0
LINE
  5
56
100
AcDbEntity
  8
0
  6
ByLayer
 62
    7
370
   -3
100
AcDbLine
 10
-544.0621212844977
 20
1181.855023778498
 11
268.8022971831105
 21
1181.865249045604
  0
LINE
  5
57
100
AcDbEntity
  8
0
  6
ByLayer
 62
    7
370
   -3
100
AcDbLine
 10
-544.0652268445335
 20
1287.802933792078
 11
-544.0651891063985
 21
1284.802933792329
  0
LINE
  5
58
100
AcDbEntity
  8
0
  6
ByLayer
 62
    7
370
   -3
100
AcDbLine
 10
-544.0639821413409
 20
1188.855023757035
 11
-544.0639444032062
 21
1185.855023757287
  0
LINE
  5
59
100
AcDbEntity
  8
0
  6
ByLayer
 62
    7
370
   -3
100
AcDbLine
 10
-544.0639821631951
 20
1188.855017694272
 11
-544.0651891282528
 21
1284.802927729565
  0
LINE
  5
5A
100
AcDbEntity
  8
0
  6
ByLayer
 62
    7
370
   -3
100
AcDbLine
 10
268.8004363262668
 20
1188.865249024142
 11
268.8004740644014
 21
1185.865249024392
  0
LINE
  5
5B
100
AcDbEntity
  8
0
  6
ByLayer
 62
    7
370
   -3
100
AcDbLine
 10
-544.0639444032062
 20
1185.855023757287
 11
268.8004740644018
 21
1185.865249024392
  0
LINE
  5
5C
100
AcDbEntity
  8
0
  6
ByLayer
 62
    7
370
   -3
100
AcDbLine
 10
-544.0639821631953
 20
1188.855017694271
 11
268.800385993763
 21
1188.865242960745
  0
LINE
  5
5D
100
AcDbEntity
  8
0
  6
ByLayer
 62
    7
370
   -3
100
AcDbLine
 10
268.7991790287057
 20
1284.813152996039
 11
-544.0651891282528
 21
1284.802927729565
  0
LINE
  5
5E
100
AcDbEntity
  8
0
  6
ByLayer
 62
    7
370
   -3
100
AcDbLine
 10
268.7991790287057
 20
1284.813152996039
 11
268.800385993763
 21
1188.865242960745
  0
LINE
  5
5F
100
AcDbEntity
  8
0
  6
ByLayer
 62
    7
370
   -3
100
AcDbLine
 10
268.7991916230744
 20
1287.813159059184
 11
268.7992293612093
 21
1284.813159059436
  0
LINE
  5
60
100
AcDbEntity
  8
0
  6
ByLayer
 62
    7
370
   -3
100
AcDbLine
 10
-544.0652268445335
 20
1287.802933792078
 11
268.7991916230744
 21
1287.813159059184
  0
LINE
  5
61
100
AcDbEntity
  8
0
  6
ByLayer
 62
    7
370
   -3
100
AcDbLine
 10
-544.0614273534101
 20
1393.750843892457
 11
-544.0613896152752
 21
1390.750843892708
  0
LINE
  5
62
100
AcDbEntity
  8
0
  6
ByLayer
 62
    7
370
   -3
100
AcDbLine
 10
-544.0601826502175
 20
1294.802933857414
 11
-544.0601449120827
 21
1291.802933857665
  0
LINE
  5
63
100
AcDbEntity
  8
0
  6
ByLayer
 62
    7
370
   -3
100
AcDbLine
 10
-544.0601826720717
 20
1294.802927794651
 11
-544.0613896371293
 21
1390.750837829944
  0
LINE
  5
64
100
AcDbEntity
  8
0
  6
ByLayer
 62
    7
370
   -3
100
AcDbLine
 10
268.80423581739
 20
1294.813159124521
 11
268.8042735555248
 21
1291.813159124771
  0
LINE
  5
65
100
AcDbEntity
  8
0
  6
ByLayer
 62
    7
370
   -3
100
AcDbLine
 10
-544.0601449120827
 20
1291.802933857665
 11
268.8042735555253
 21
1291.813159124771
  0
LINE
  5
66
100
AcDbEntity
  8
0
  6
ByLayer
 62
    7
370
   -3
100
AcDbLine
 10
-544.0601826720718
 20
1294.80292779465
 11
268.8041854848865
 21
1294.813153061124
  0
LINE
  5
67
100
AcDbEntity
  8
0
  6
ByLayer
 62
    7
370
   -3
100
AcDbLine
 10
268.8029785198293
 20
1390.761063096418
 11
-544.0613896371294
 21
1390.750837829944
  0
LINE
  5
68
100
AcDbEntity
  8
0
  6
ByLayer
 62
    7
370
   -3
100
AcDbLine
 10
268.8029785198293
 20
1390.761063096418
 11
268.8041854848865
 21
1294.813153061124
  0
LINE
  5
69
100
AcDbEntity
  8
0
  6
ByLayer
 62
    7
370
   -3
100
AcDbLine
 10
268.8029911141979
 20
1393.761069159563
 11
268.8030288523328
 21
1390.761069159815
  0
LINE
  5
6A
100
AcDbEntity
  8
0
  6
ByLayer
 62
    7
370
   -3
100
AcDbLine
 10
-544.0614273534101
 20
1393.750843892457
 11
268.8029911141981
 21
1393.761069159563
  0
LINE
  5
6B
100
AcDbEntity
  8
0
  6
ByLayer
 62
    7
370
   -3
100
AcDbLine
 10
-544.064532913446
 20
1499.698753906038
 11
-544.0644951753111
 21
1496.698753906289
  0
LINE
  5
6C
100
AcDbEntity
  8
0
  6
ByLayer
 62
    7
370
   -3
100
AcDbLine
 10
-544.0632882102535
 20
1400.750843870995
 11
-544.0632504721185
 21
1397.750843871246
  0
LINE
  5
6D
100
AcDbEntity
  8
0
  6
ByLayer
 62
    7
370
   -3
100
AcDbLine
 10
-544.0632882321075
 20
1400.750837808231
 11
-544.0644951971652
 21
1496.698747843524
  0
LINE
  5
6E
100
AcDbEntity
  8
0
  6
ByLayer
 62
    7
370
   -3
100
AcDbLine
 10
268.8011302573542
 20
1400.761069138101
 11
268.801167995489
 21
1397.761069138352
  0
LINE
  5
6F
100
AcDbEntity
  8
0
  6
ByLayer
 62
    7
370
   -3
100
AcDbLine
 10
-544.0632504721185
 20
1397.750843871246
 11
268.8011679954894
 21
1397.761069138352
  0
LINE
  5
70
100
AcDbEntity
  8
0
  6
ByLayer
 62
    7
370
   -3
100
AcDbLine
 10
-544.0632882321077
 20
1400.75083780823
 11
268.8010799248507
 21
1400.761063074704
  0
LINE
  5
71
100
AcDbEntity
  8
0
  6
ByLayer
 62
    7
370
   -3
100
AcDbLine
 10
268.7998729597933
 20
1496.708973109998
 11
-544.0644951971651
 21
1496.698747843524
  0
LINE
  5
72
100
AcDbEntity
  8
0
  6
ByLayer
 62
    7
370
   -3
100
AcDbLine
 10
268.7998729597935
 20
1496.708973109998
 11
268.8010799248507
 21
1400.761063074704
  0
LINE
  5
73
100
AcDbEntity
  8
0
  6
ByLayer
 62
    7
370
   -3
100
AcDbLine
 10
268.799885554162
 20
1499.708979173143
 11
268.7999232922968
 21
1496.708979173395
  0
LINE
  5
74
100
AcDbEntity
  8
0
  6
ByLayer
 62
    7
370
   -3
100
AcDbLine
 10
-544.064532913446
 20
1499.698753906038
 11
268.7998855541621
 21
1499.708979173143
  0
LINE
  5
75
100
AcDbEntity
  8
0
  6
ByLayer
 62
    7
370
   -3
100
AcDbLine
 10
-544.067831691562
 20
1605.646663917329
 11
-544.0677939534271
 21
1602.64666391758
  0
LINE
  5
76
100
AcDbEntity
  8
0
  6
ByLayer
 62
    7
370
   -3
100
AcDbLine
 10
-544.0665869883694
 20
1506.698753882285
 11
-544.0665492502344
 21
1503.698753882536
  0
LINE
  5
77
100
AcDbEntity
  8
0
  6
ByLayer
 62
    7
370
   -3
100
AcDbLine
 10
-544.0665870102235
 20
1506.698747819522
 11
-544.0677939752811
 21
1602.646657854815
  0
LINE
  5
78
100
AcDbEntity
  8
0
  6
ByLayer
 62
    7
370
   -3
100
AcDbLine
 10
268.7978314792383
 20
1506.708979149392
 11
268.7978692173731
 21
1503.708979149642
  0
LINE
  5
79
100
AcDbEntity
  8
0
  6
ByLayer
 62
    7
370
   -3
100
AcDbLine
 10
-544.0665492502344
 20
1503.698753882536
 11
268.7978692173734
 21
1503.708979149642
  0
LINE
  5
7A
100
AcDbEntity
  8
0
  6
ByLayer
 62
    7
370
   -3
100
AcDbLine
 10
-544.0665870102235
 20
1506.698747819521
 11
268.7977811467347
 21
1506.708973085995
  0
LINE
  5
7B
100
AcDbEntity
  8
0
  6
ByLayer
 62
    7
370
   -3
100
AcDbLine
 10
268.7965741816773
 20
1602.656883121289
 11
-544.0677939752811
 21
1602.646657854815
  0
LINE
  5
7C
100
AcDbEntity
  8
0
  6
ByLayer
 62
    7
370
   -3
100
AcDbLine
 10
268.7965741816775
 20
1602.656883121289
 11
268.7977811467347
 21
1506.708973085995
  0
LINE
  5
7D
100
AcDbEntity
  8
0
  6
ByLayer
 62
    7
370
   -3
100
AcDbLine
 10
268.796586776046
 20
1605.656889184434
 11
268.7966245141808
 21
1602.656889184686
  0
LINE
  5
7E
100
AcDbEntity
  8
0
  6
ByLayer
 62
    7
370
   -3
100
AcDbLine
 10
-544.067831691562
 20
1605.646663917329
 11
268.7965867760461
 21
1605.656889184434
  0
LINE
  5
7F
100
AcDbEntity
  8
0
  6
ByLayer
 62
    7
370
   -3
100
AcDbLine
 10
-544.0680342733751
 20
965.6612011464083
 11
268.8018058652864
 21
965.6509757492058
  0
LINE
  5
80
100
AcDbEntity
  8
0
  6
ByLayer
 62
    7
370
   -3
100
AcDbLine
 10
-544.0679965352402
 20
968.6612011461848
 11
-544.0680342733751
 21
965.6612011464358
  0
LINE
  5
81
100
AcDbEntity
  8
0
  6
ByLayer
 62
    7
370
   -3
100
AcDbLine
 10
-544.0679965134282
 20
968.6611950950543
 11
-544.0673935283854
 21
1016.595602379133
  0
LINE
  5
82
100
AcDbEntity
  8
0
  6
ByLayer
 62
    7
370
   -3
100
AcDbLine
 10
268.8018436034213
 20
968.6509757489824
 11
268.8018058652865
 21
965.6509757492335
  0
LINE
  5
83
100
AcDbEntity
  8
0
  6
ByLayer
 62
    7
370
   -3
100
AcDbLine
 10
268.8018436252335
 20
968.6509696978513
 11
268.8024466102763
 21
1016.585376981873
  0
LINE
  5
84
100
AcDbEntity
  8
0
  6
ByLayer
 62
    7
370
   -3
100
AcDbLine
 10
-544.0673935283854
 20
1016.595602379133
 11
268.802446610276
 21
1016.585376981873
  0
LINE
  5
85
100
AcDbEntity
  8
0
  6
ByLayer
 62
    7
370
   -3
100
AcDbLine
 10
-544.0679965134284
 20
968.6611950950542
 11
268.8018436252339
 21
968.6509696978516
  0
LINE
  5
86
100
AcDbEntity
  8
0
  6
ByLayer
 62
    7
370
   -3
100
AcDbLine
 10
-544.0680342733749
 20
1022.439366560685
 11
268.8018058652867
 21
1022.429141163483
  0
LINE
  5
87
100
AcDbEntity
  8
0
  6
ByLayer
 62
    7
370
   -3
100
AcDbLine
 10
-544.0679965352401
 20
1025.439366560461
 11
-544.0680342733749
 21
1022.439366560712
  0
LINE
  5
88
100
AcDbEntity
  8
0
  6
ByLayer
 62
    7
370
   -3
100
AcDbLine
 10
-544.0679965134279
 20
1025.439360509331
 11
-544.0673935283852
 21
1073.373767793409
  0
LINE
  5
89
100
AcDbEntity
  8
0
  6
ByLayer
 62
    7
370
   -3
100
AcDbLine
 10
268.8018436034216
 20
1025.429141163259
 11
268.8018058652867
 21
1022.42914116351
  0
LINE
  5
8A
100
AcDbEntity
  8
0
  6
ByLayer
 62
    7
370
   -3
100
AcDbLine
 10
268.8018436252337
 20
1025.429135112128
 11
268.8024466102765
 21
1073.363542396149
  0
LINE
  5
8B
100
AcDbEntity
  8
0
  6
ByLayer
 62
    7
370
   -3
100
AcDbLine
 10
-544.0673935283852
 20
1073.373767793409
 11
268.8024466102762
 21
1073.36354239615
  0
LINE
  5
8C
100
AcDbEntity
  8
0
  6
ByLayer
 62
    7
370
   -3
100
AcDbLine
 10
-544.0679965134282
 20
1025.439360509331
 11
268.8018436252341
 21
1025.429135112128
  0
LINE
  5
8D
100
AcDbEntity
  8
0
  6
ByLayer
 62
    7
370
   -3
100
AcDbLine
 10
-544.0678316911898
 20
1923.490393977326
 11
-544.0677939530549
 21
1920.490393977577
  0
LINE
  5
8E
100
AcDbEntity
  8
0
  6
ByLayer
 62
    7
370
   -3
100
AcDbLine
 10
-544.0665869879973
 20
1824.542483942283
 11
-544.0665492498622
 21
1821.542483942534
  0
LINE
  5
8F
100
AcDbEntity
  8
0
  6
ByLayer
 62
    7
370
   -3
100
AcDbLine
 10
-544.0665870098513
 20
1824.542477879519
 11
-544.067793974909
 21
1920.490387914813
  0
LINE
  5
90
100
AcDbEntity
  8
0
  6
ByLayer
 62
    7
370
   -3
100
AcDbLine
 10
268.7978314796104
 20
1824.552709209389
 11
268.797869217745
 21
1821.552709209639
  0
LINE
  5
91
100
AcDbEntity
  8
0
  6
ByLayer
 62
    7
370
   -3
100
AcDbLine
 10
-544.0665492498622
 20
1821.542483942534
 11
268.7978692177454
 21
1821.552709209639
  0
LINE
  5
92
100
AcDbEntity
  8
0
  6
ByLayer
 62
    7
370
   -3
100
AcDbLine
 10
-544.0665870098516
 20
1824.542477879518
 11
268.7977811471067
 21
1824.552703145992
  0
LINE
  5
93
100
AcDbEntity
  8
0
  6
ByLayer
 62
    7
370
   -3
100
AcDbLine
 10
268.7965741820494
 20
1920.500613181286
 11
-544.0677939749091
 21
1920.490387914813
  0
LINE
  5
94
100
AcDbEntity
  8
0
  6
ByLayer
 62
    7
370
   -3
100
AcDbLine
 10
268.7965741820494
 20
1920.500613181286
 11
268.7977811471066
 21
1824.552703145992
  0
LINE
  5
95
100
AcDbEntity
  8
0
  6
ByLayer
 62
    7
370
   -3
100
AcDbLine
 10
268.7965867764181
 20
1923.500619244431
 11
268.7966245145529
 21
1920.500619244683
  0
LINE
  5
96
100
AcDbEntity
  8
0
  6
ByLayer
 62
    7
370
   -3
100
AcDbLine
 10
-544.0678316911898
 20
1923.490393977326
 11
268.7965867764184
 21
1923.500619244431
  0
LINE
  5
97
100
AcDbEntity
  8
0
  6
ByLayer
 62
    7
370
   -3
100
AcDbLine
 10
-544.0645329130738
 20
1817.542483966035
 11
-544.0644951749389
 21
1814.542483966286
  0
LINE
  5
98
100
AcDbEntity
  8
0
  6
ByLayer
 62
    7
370
   -3
100
AcDbLine
 10
-544.0632882098814
 20
1718.594573930992
 11
-544.0632504717465
 21
1715.594573931243
  0
LINE
  5
99
100
AcDbEntity
  8
0
  6
ByLayer
 62
    7
370
   -3
100
AcDbLine
 10
-544.0632882317356
 20
1718.594567868228
 11
-544.0644951967931
 21
1814.542477903522
  0
LINE
  5
9A
100
AcDbEntity
  8
0
  6
ByLayer
 62
    7
370
   -3
100
AcDbLine
 10
268.8011302577264
 20
1718.604799198098
 11
268.801167995861
 21
1715.604799198349
  0
LINE
  5
9B
100
AcDbEntity
  8
0
  6
ByLayer
 62
    7
370
   -3
100
AcDbLine
 10
-544.0632504717465
 20
1715.594573931243
 11
268.8011679958613
 21
1715.604799198349
  0
LINE
  5
9C
100
AcDbEntity
  8
0
  6
ByLayer
 62
    7
370
   -3
100
AcDbLine
 10
-544.0632882317357
 20
1718.594567868228
 11
268.8010799252226
 21
1718.604793134702
  0
LINE
  5
9D
100
AcDbEntity
  8
0
  6
ByLayer
 62
    7
370
   -3
100
AcDbLine
 10
268.7998729601651
 20
1814.552703169996
 11
-544.0644951967934
 21
1814.542477903522
  0
LINE
  5
9E
100
AcDbEntity
  8
0
  6
ByLayer
 62
    7
370
   -3
100
AcDbLine
 10
268.7998729601654
 20
1814.552703169996
 11
268.8010799252227
 21
1718.604793134702
  0
LINE
  5
9F
100
AcDbEntity
  8
0
  6
ByLayer
 62
    7
370
   -3
100
AcDbLine
 10
268.7998855545338
 20
1817.552709233141
 11
268.7999232926687
 21
1814.552709233392
  0
LINE
  5
A0
100
AcDbEntity
  8
0
  6
ByLayer
 62
    7
370
   -3
100
AcDbLine
 10
-544.0645329130738
 20
1817.542483966035
 11
268.7998855545342
 21
1817.552709233141
  0
LINE
  5
A1
100
AcDbEntity
  8
0
  6
ByLayer
 62
    7
370
   -3
100
AcDbLine
 10
-544.0614273530381
 20
1711.594573952455
 11
-544.0613896149032
 21
1708.594573952706
  0
LINE
  5
A2
100
AcDbEntity
  8
0
  6
ByLayer
 62
    7
370
   -3
100
AcDbLine
 10
-544.0601826498456
 20
1612.646663917412
 11
-544.0601449117106
 21
1609.646663917663
  0
LINE
  5
A3
100
AcDbEntity
  8
0
  6
ByLayer
 62
    7
370
   -3
100
AcDbLine
 10
-544.0601826716996
 20
1612.646657854648
 11
-544.0613896367573
 21
1708.594567889941
  0
LINE
  5
A4
100
AcDbEntity
  8
0
  6
ByLayer
 62
    7
370
   -3
100
AcDbLine
 10
268.8042358177622
 20
1612.656889184518
 11
268.8042735558971
 21
1609.656889184768
  0
LINE
  5
A5
100
AcDbEntity
  8
0
  6
ByLayer
 62
    7
370
   -3
100
AcDbLine
 10
-544.0601449117106
 20
1609.646663917663
 11
268.8042735558973
 21
1609.656889184768
  0
LINE
  5
A6
100
AcDbEntity
  8
0
  6
ByLayer
 62
    7
370
   -3
100
AcDbLine
 10
-544.0601826716997
 20
1612.646657854647
 11
268.8041854852586
 21
1612.656883121121
  0
LINE
  5
A7
100
AcDbEntity
  8
0
  6
ByLayer
 62
    7
370
   -3
100
AcDbLine
 10
268.8029785202012
 20
1708.604793156415
 11
-544.0613896367572
 21
1708.594567889941
  0
LINE
  5
A8
100
AcDbEntity
  8
0
  6
ByLayer
 62
    7
370
   -3
100
AcDbLine
 10
268.8029785202015
 20
1708.604793156415
 11
268.8041854852587
 21
1612.656883121121
  0
LINE
  5
A9
100
AcDbEntity
  8
0
  6
ByLayer
 62
    7
370
   -3
100
AcDbLine
 10
268.8029911145699
 20
1711.60479921956
 11
268.8030288527048
 21
1708.604799219812
  0
LINE
  5
AA
100
AcDbEntity
  8
0
  6
ByLayer
 62
    7
370
   -3
100
AcDbLine
 10
-544.0614273530381
 20
1711.594573952455
 11
268.8029911145701
 21
1711.60479921956
  0
LINE
  5
AB
100
AcDbEntity
  8
0
  6
ByLayer
 62
    7
370
   -3
100
AcDbLine
 10
-544.064532912786
 20
2029.438304012715
 11
-544.0644951746511
 21
2026.438304012966
  0
LINE
  5
AC
100
AcDbEntity
  8
0
  6
ByLayer
 62
    7
370
   -3
100
AcDbLine
 10
-544.0632882095935
 20
1930.490393977673
 11
-544.0632504714587
 21
1927.490393977924
  0
LINE
  5
AD
100
AcDbEntity
  8
0
  6
ByLayer
 62
    7
370
   -3
100
AcDbLine
 10
-544.0632882314476
 20
1930.490387914909
 11
-544.0644951965053
 21
2026.438297950202
  0
LINE
  5
AE
100
AcDbEntity
  8
0
  6
ByLayer
 62
    7
370
   -3
100
AcDbLine
 10
268.8011302580141
 20
1930.500619244779
 11
268.8011679961487
 21
1927.500619245029
  0
LINE
  5
AF
100
AcDbEntity
  8
0
  6
ByLayer
 62
    7
370
   -3
100
AcDbLine
 10
-544.0632504714587
 20
1927.490393977924
 11
268.8011679961492
 21
1927.500619245029
  0
LINE
  5
B0
100
AcDbEntity
  8
0
  6
ByLayer
 62
    7
370
   -3
100
AcDbLine
 10
-544.0632882314478
 20
1930.490387914908
 11
268.8010799255105
 21
1930.500613181382
  0
LINE
  5
B1
100
AcDbEntity
  8
0
  6
ByLayer
 62
    7
370
   -3
100
AcDbLine
 10
268.7998729604529
 20
2026.448523216676
 11
-544.0644951965056
 21
2026.438297950202
  0
LINE
  5
B2
100
AcDbEntity
  8
0
  6
ByLayer
 62
    7
370
   -3
100
AcDbLine
 10
268.7998729604532
 20
2026.448523216676
 11
268.8010799255104
 21
1930.500613181382
  0
LINE
  5
B3
100
AcDbEntity
  8
0
  6
ByLayer
 62
    7
370
   -3
100
AcDbLine
 10
268.7998855548216
 20
2029.448529279821
 11
268.7999232929564
 21
2026.448529280073
  0
LINE
  5
B4
100
AcDbEntity
  8
0
  6
ByLayer
 62
    7
370
   -3
100
AcDbLine
 10
-544.064532912786
 20
2029.438304012716
 11
268.7998855548219
 21
2029.448529279821
  0
LINE
  5
B5
100
AcDbEntity
  8
0
  6
ByLayer
 62
    7
370
   -3
100
AcDbLine
 10
-544.0678316909022
 20
2135.386214024006
 11
-544.0677939527673
 21
2132.386214024257
  0
LINE
  5
B6
100
AcDbEntity
  8
0
  6
ByLayer
 62
    7
370
   -3
100
AcDbLine
 10
-544.0665869877095
 20
2036.438303988963
 11
-544.0665492495745
 21
2033.438303989215
  0
LINE
  5
B7
100
AcDbEntity
  8
0
  6
ByLayer
 62
    7
370
   -3
100
AcDbLine
 10
-544.0665870095636
 20
2036.4382979262
 11
-544.0677939746214
 21
2132.386207961493
  0
LINE
  5
B8
100
AcDbEntity
  8
0
  6
ByLayer
 62
    7
370
   -3
100
AcDbLine
 10
268.7978314798982
 20
2036.448529256069
 11
268.7978692180328
 21
2033.44852925632
  0
LINE
  5
B9
100
AcDbEntity
  8
0
  6
ByLayer
 62
    7
370
   -3
100
AcDbLine
 10
-544.0665492495745
 20
2033.438303989215
 11
268.7978692180332
 21
2033.44852925632
  0
LINE
  5
BA
100
AcDbEntity
  8
0
  6
ByLayer
 62
    7
370
   -3
100
AcDbLine
 10
-544.0665870095638
 20
2036.438297926199
 11
268.7977811473945
 21
2036.448523192673
  0
LINE
  5
BB
100
AcDbEntity
  8
0
  6
ByLayer
 62
    7
370
   -3
100
AcDbLine
 10
268.7965741823372
 20
2132.396433227967
 11
-544.0677939746213
 21
2132.386207961493
  0
LINE
  5
BC
100
AcDbEntity
  8
0
  6
ByLayer
 62
    7
370
   -3
100
AcDbLine
 10
268.7965741823372
 20
2132.396433227967
 11
268.7977811473945
 21
2036.448523192673
  0
LINE
  5
BD
100
AcDbEntity
  8
0
  6
ByLayer
 62
    7
370
   -3
100
AcDbLine
 10
268.7965867767059
 20
2135.396439291112
 11
268.7966245148407
 21
2132.396439291364
  0
LINE
  5
BE
100
AcDbEntity
  8
0
  6
ByLayer
 62
    7
370
   -3
100
AcDbLine
 10
-544.0678316909022
 20
2135.386214024007
 11
268.796586776706
 21
2135.396439291112
  0
LINE
  5
BF
100
AcDbEntity
  8
0
  6
ByLayer
 62
    7
370
   -3
100
AcDbLine
 10
-544.068034273375
 20
908.1920477479935
 11
268.8018058652866
 21
908.181822350791
  0
LINE
  5
C0
100
AcDbEntity
  8
0
  6
ByLayer
 62
    7
370
   -3
100
AcDbLine
 10
-544.0679965352401
 20
911.1920477477697
 11
-544.068034273375
 21
908.192047748021
  0
LINE
  5
C1
100
AcDbEntity
  8
0
  6
ByLayer
 62
    7
370
   -3
100
AcDbLine
 10
-544.0679965134281
 20
911.1920416966393
 11
-544.0673935283854
 21
959.1264489807177
  0
LINE
  5
C2
100
AcDbEntity
  8
0
  6
ByLayer
 62
    7
370
   -3
100
AcDbLine
 10
268.8018436034213
 20
911.1818223505674
 11
268.8018058652865
 21
908.1818223508186
  0
LINE
  5
C3
100
AcDbEntity
  8
0
  6
ByLayer
 62
    7
370
   -3
100
AcDbLine
 10
268.8018436252335
 20
911.1818162994364
 11
268.8024466102763
 21
959.1162235834582
  0
LINE
  5
C4
100
AcDbEntity
  8
0
  6
ByLayer
 62
    7
370
   -3
100
AcDbLine
 10
-544.0673935283854
 20
959.1264489807176
 11
268.802446610276
 21
959.1162235834585
  0
LINE
  5
C5
100
AcDbEntity
  8
0
  6
ByLayer
 62
    7
370
   -3
100
AcDbLine
 10
-544.0679965134283
 20
911.1920416966393
 11
268.801843625234
 21
911.1818162994367
  0
LINE
  5
C6
100
AcDbEntity
  8
0
  6
ByLayer
 62
    7
370
   -3
100
AcDbLine
 10
-1364.062121284497
 20
1181.855023778498
 11
-1364.062083546363
 21
1178.855023778749
  0
LINE
  5
C7
100
AcDbEntity
  8
0
  6
ByLayer
 62
    7
370
   -3
100
AcDbLine
 10
-1364.060876581305
 20
1082.907113743455
 11
-1364.06083884317
 21
1079.907113743706
  0
LINE
  5
C8
100
AcDbEntity
  8
0
  6
ByLayer
 62
    7
370
   -3
100
AcDbLine
 10
-1364.060876603159
 20
1082.907107680692
 11
-1364.062083568217
 21
1178.855017715985
  0
LINE
  5
C9
100
AcDbEntity
  8
0
  6
ByLayer
 62
    7
370
   -3
100
AcDbLine
 10
-551.1964581136973
 20
1082.917339010561
 11
-551.1964203755628
 21
1079.917339010812
  0
LINE
  5
CA
100
AcDbEntity
  8
0
  6
ByLayer
 62
    7
370
   -3
100
AcDbLine
 10
-1364.06083884317
 20
1079.907113743706
 11
-551.1964203755623
 21
1079.917339010812
  0
LINE
  5
CB
100
AcDbEntity
  8
0
  6
ByLayer
 62
    7
370
   -3
100
AcDbLine
 10
-1364.060876603159
 20
1082.907107680691
 11
-551.1965084462012
 21
1082.917332947165
  0
LINE
  5
CC
100
AcDbEntity
  8
0
  6
ByLayer
 62
    7
370
   -3
100
AcDbLine
 10
-551.1977154112583
 20
1178.865242982459
 11
-1364.062083568217
 21
1178.855017715985
  0
LINE
  5
CD
100
AcDbEntity
  8
0
  6
ByLayer
 62
    7
370
   -3
100
AcDbLine
 10
-551.1977154112583
 20
1178.865242982459
 11
-551.1965084462011
 21
1082.917332947165
  0
LINE
  5
CE
100
AcDbEntity
  8
0
  6
ByLayer
 62
    7
370
   -3
100
AcDbLine
 10
-551.1977028168897
 20
1181.865249045604
 11
-551.1976650787548
 21
1178.865249045855
  0
LINE
  5
CF
100
AcDbEntity
  8
0
  6
ByLayer
 62
    7
370
   -3
100
AcDbLine
 10
-1364.062121284497
 20
1181.855023778498
 11
-551.1977028168895
 21
1181.865249045604
  0
LINE
  5
D0
100
AcDbEntity
  8
0
  6
ByLayer
 62
    7
370
   -3
100
AcDbLine
 10
-1364.065226844533
 20
1287.802933792079
 11
-1364.065189106398
 21
1284.80293379233
  0
LINE
  5
D1
100
AcDbEntity
  8
0
  6
ByLayer
 62
    7
370
   -3
100
AcDbLine
 10
-1364.063982141341
 20
1188.855023757036
 11
-1364.063944403206
 21
1185.855023757287
  0
LINE
  5
D2
100
AcDbEntity
  8
0
  6
ByLayer
 62
    7
370
   -3
100
AcDbLine
 10
-1364.063982163195
 20
1188.855017694272
 11
-1364.065189128253
 21
1284.802927729565
  0
LINE
  5
D3
100
AcDbEntity
  8
0
  6
ByLayer
 62
    7
370
   -3
100
AcDbLine
 10
-551.1995636737331
 20
1188.865249024142
 11
-551.1995259355986
 21
1185.865249024392
  0
LINE
  5
D4
100
AcDbEntity
  8
0
  6
ByLayer
 62
    7
370
   -3
100
AcDbLine
 10
-1364.063944403206
 20
1185.855023757287
 11
-551.1995259355979
 21
1185.865249024392
  0
LINE
  5
D5
100
AcDbEntity
  8
0
  6
ByLayer
 62
    7
370
   -3
100
AcDbLine
 10
-1364.063982163195
 20
1188.855017694271
 11
-551.1996140062367
 21
1188.865242960745
  0
LINE
  5
D6
100
AcDbEntity
  8
0
  6
ByLayer
 62
    7
370
   -3
100
AcDbLine
 10
-551.2008209712941
 20
1284.813152996039
 11
-1364.065189128253
 21
1284.802927729565
  0
LINE
  5
D7
100
AcDbEntity
  8
0
  6
ByLayer
 62
    7
370
   -3
100
AcDbLine
 10
-551.200820971294
 20
1284.813152996039
 11
-551.1996140062369
 21
1188.865242960745
  0
LINE
  5
D8
100
AcDbEntity
  8
0
  6
ByLayer
 62
    7
370
   -3
100
AcDbLine
 10
-551.2008083769255
 20
1287.813159059184
 11
-551.2007706387906
 21
1284.813159059436
  0
LINE
  5
D9
100
AcDbEntity
  8
0
  6
ByLayer
 62
    7
370
   -3
100
AcDbLine
 10
-1364.065226844533
 20
1287.802933792079
 11
-551.2008083769251
 21
1287.813159059184
  0
LINE
  5
DA
100
AcDbEntity
  8
0
  6
ByLayer
 62
    7
370
   -3
100
AcDbLine
 10
-1364.06142735341
 20
1393.750843892458
 11
-1364.061389615275
 21
1390.750843892709
  0
LINE
  5
DB
100
AcDbEntity
  8
0
  6
ByLayer
 62
    7
370
   -3
100
AcDbLine
 10
-1364.060182650217
 20
1294.802933857414
 11
-1364.060144912082
 21
1291.802933857665
  0
LINE
  5
DC
100
AcDbEntity
  8
0
  6
ByLayer
 62
    7
370
   -3
100
AcDbLine
 10
-1364.060182672072
 20
1294.802927794651
 11
-1364.061389637129
 21
1390.750837829944
  0
LINE
  5
DD
100
AcDbEntity
  8
0
  6
ByLayer
 62
    7
370
   -3
100
AcDbLine
 10
-551.1957641826099
 20
1294.813159124521
 11
-551.1957264444751
 21
1291.813159124771
  0
LINE
  5
DE
100
AcDbEntity
  8
0
  6
ByLayer
 62
    7
370
   -3
100
AcDbLine
 10
-1364.060144912082
 20
1291.802933857665
 11
-551.1957264444745
 21
1291.813159124771
  0
LINE
  5
DF
100
AcDbEntity
  8
0
  6
ByLayer
 62
    7
370
   -3
100
AcDbLine
 10
-1364.060182672072
 20
1294.80292779465
 11
-551.1958145151134
 21
1294.813153061124
  0
LINE
  5
E0
100
AcDbEntity
  8
0
  6
ByLayer
 62
    7
370
   -3
100
AcDbLine
 10
-551.1970214801707
 20
1390.761063096418
 11
-1364.061389637129
 21
1390.750837829944
  0
LINE
  5
E1
100
AcDbEntity
  8
0
  6
ByLayer
 62
    7
370
   -3
100
AcDbLine
 10
-551.1970214801706
 20
1390.761063096418
 11
-551.1958145151135
 21
1294.813153061124
  0
LINE
  5
E2
100
AcDbEntity
  8
0
  6
ByLayer
 62
    7
370
   -3
100
AcDbLine
 10
-551.1970088858021
 20
1393.761069159563
 11
-551.1969711476673
 21
1390.761069159814
  0
LINE
  5
E3
100
AcDbEntity
  8
0
  6
ByLayer
 62
    7
370
   -3
100
AcDbLine
 10
-1364.06142735341
 20
1393.750843892458
 11
-551.1970088858018
 21
1393.761069159563
  0
LINE
  5
E4
100
AcDbEntity
  8
0
  6
ByLayer
 62
    7
370
   -3
100
AcDbLine
 10
-1364.064532913446
 20
1499.698753906038
 11
-1364.064495175311
 21
1496.698753906289
  0
LINE
  5
E5
100
AcDbEntity
  8
0
  6
ByLayer
 62
    7
370
   -3
100
AcDbLine
 10
-1364.063288210253
 20
1400.750843870995
 11
-1364.063250472118
 21
1397.750843871246
  0
LINE
  5
E6
100
AcDbEntity
  8
0
  6
ByLayer
 62
    7
370
   -3
100
AcDbLine
 10
-1364.063288232108
 20
1400.750837808231
 11
-1364.064495197165
 21
1496.698747843525
  0
LINE
  5
E7
100
AcDbEntity
  8
0
  6
ByLayer
 62
    7
370
   -3
100
AcDbLine
 10
-551.1988697426459
 20
1400.761069138101
 11
-551.1988320045111
 21
1397.761069138352
  0
LINE
  5
E8
100
AcDbEntity
  8
0
  6
ByLayer
 62
    7
370
   -3
100
AcDbLine
 10
-1364.063250472118
 20
1397.750843871246
 11
-551.1988320045106
 21
1397.761069138352
  0
LINE
  5
E9
100
AcDbEntity
  8
0
  6
ByLayer
 62
    7
370
   -3
100
AcDbLine
 10
-1364.063288232108
 20
1400.750837808231
 11
-551.1989200751493
 21
1400.761063074704
  0
LINE
  5
EA
100
AcDbEntity
  8
0
  6
ByLayer
 62
    7
370
   -3
100
AcDbLine
 10
-551.2001270402068
 20
1496.708973109998
 11
-1364.064495197165
 21
1496.698747843524
  0
LINE
  5
EB
100
AcDbEntity
  8
0
  6
ByLayer
 62
    7
370
   -3
100
AcDbLine
 10
-551.2001270402067
 20
1496.708973109998
 11
-551.1989200751494
 21
1400.761063074704
  0
LINE
  5
EC
100
AcDbEntity
  8
0
  6
ByLayer
 62
    7
370
   -3
100
AcDbLine
 10
-551.2001144458382
 20
1499.708979173143
 11
-551.2000767077034
 21
1496.708979173395
  0
LINE
  5
ED
100
AcDbEntity
  8
0
  6
ByLayer
 62
    7
370
   -3
100
AcDbLine
 10
-1364.064532913446
 20
1499.698753906038
 11
-551.2001144458378
 21
1499.708979173144
  0
LINE
  5
EE
100
AcDbEntity
  8
0
  6
ByLayer
 62
    7
370
   -3
100
AcDbLine
 10
-1364.067831691562
 20
1605.646663917329
 11
-1364.067793953427
 21
1602.64666391758
  0
LINE
  5
EF
100
AcDbEntity
  8
0
  6
ByLayer
 62
    7
370
   -3
100
AcDbLine
 10
-1364.066586988369
 20
1506.698753882286
 11
-1364.066549250234
 21
1503.698753882537
  0
LINE
  5
F0
100
AcDbEntity
  8
0
  6
ByLayer
 62
    7
370
   -3
100
AcDbLine
 10
-1364.066587010223
 20
1506.698747819522
 11
-1364.067793975281
 21
1602.646657854815
  0
LINE
  5
F1
100
AcDbEntity
  8
0
  6
ByLayer
 62
    7
370
   -3
100
AcDbLine
 10
-551.2021685207617
 20
1506.708979149392
 11
-551.2021307826269
 21
1503.708979149642
  0
LINE
  5
F2
100
AcDbEntity
  8
0
  6
ByLayer
 62
    7
370
   -3
100
AcDbLine
 10
-1364.066549250234
 20
1503.698753882537
 11
-551.2021307826263
 21
1503.708979149643
  0
LINE
  5
F3
100
AcDbEntity
  8
0
  6
ByLayer
 62
    7
370
   -3
100
AcDbLine
 10
-1364.066587010223
 20
1506.698747819521
 11
-551.2022188532651
 21
1506.708973085995
  0
LINE
  5
F4
100
AcDbEntity
  8
0
  6
ByLayer
 62
    7
370
   -3
100
AcDbLine
 10
-551.2034258183226
 20
1602.656883121289
 11
-1364.067793975281
 21
1602.646657854815
  0
LINE
  5
F5
100
AcDbEntity
  8
0
  6
ByLayer
 62
    7
370
   -3
100
AcDbLine
 10
-551.2034258183224
 20
1602.656883121289
 11
-551.2022188532652
 21
1506.708973085995
  0
LINE
  5
F6
100
AcDbEntity
  8
0
  6
ByLayer
 62
    7
370
   -3
100
AcDbLine
 10
-551.2034132239539
 20
1605.656889184434
 11
-551.2033754858192
 21
1602.656889184686
  0
LINE
  5
F7
100
AcDbEntity
  8
0
  6
ByLayer
 62
    7
370
   -3
100
AcDbLine
 10
-1364.067831691562
 20
1605.646663917329
 11
-551.2034132239536
 21
1605.656889184434
  0
LINE
  5
F8
100
AcDbEntity
  8
0
  6
ByLayer
 62
    7
370
   -3
100
AcDbLine
 10
-1364.068034273375
 20
965.6612011464084
 11
-551.1981941347135
 21
965.6509757492058
  0
LINE
  5
F9
100
AcDbEntity
  8
0
  6
ByLayer
 62
    7
370
   -3
100
AcDbLine
 10
-1364.06799653524
 20
968.6612011461849
 11
-1364.068034273375
 21
965.6612011464359
  0
LINE
  5
FA
100
AcDbEntity
  8
0
  6
ByLayer
 62
    7
370
   -3
100
AcDbLine
 10
-1364.067996513428
 20
968.6611950950544
 11
-1364.067393528385
 21
1016.595602379133
  0
LINE
  5
FB
100
AcDbEntity
  8
0
  6
ByLayer
 62
    7
370
   -3
100
AcDbLine
 10
-551.1981563965785
 20
968.6509757489823
 11
-551.1981941347134
 21
965.6509757492333
  0
LINE
  5
FC
100
AcDbEntity
  8
0
  6
ByLayer
 62
    7
370
   -3
100
AcDbLine
 10
-551.1981563747664
 20
968.6509696978512
 11
-551.1975533897237
 21
1016.585376981873
  0
LINE
  5
FD
100
AcDbEntity
  8
0
  6
ByLayer
 62
    7
370
   -3
100
AcDbLine
 10
-1364.067393528385
 20
1016.595602379133
 11
-551.197553389724
 21
1016.585376981874
  0
LINE
  5
FE
100
AcDbEntity
  8
0
  6
ByLayer
 62
    7
370
   -3
100
AcDbLine
 10
-1364.067996513428
 20
968.6611950950543
 11
-551.1981563747661
 21
968.6509696978516
  0
LINE
  5
FF
100
AcDbEntity
  8
0
  6
ByLayer
 62
    7
370
   -3
100
AcDbLine
 10
-1364.068034273375
 20
1022.439366560685
 11
-551.1981941347135
 21
1022.429141163483
  0
LINE
  5
100
100
AcDbEntity
  8
0
  6
ByLayer
 62
    7
370
   -3
100
AcDbLine
 10
-1364.06799653524
 20
1025.439366560461
 11
-1364.068034273375
 21
1022.439366560713
  0
LINE
  5
101
100
AcDbEntity
  8
0
  6
ByLayer
 62
    7
370
   -3
100
AcDbLine
 10
-1364.067996513428
 20
1025.439360509331
 11
-1364.067393528385
 21
1073.373767793409
  0
LINE
  5
102
100
AcDbEntity
  8
0
  6
ByLayer
 62
    7
370
   -3
100
AcDbLine
 10
-551.1981563965785
 20
1025.429141163258
 11
-551.1981941347134
 21
1022.42914116351
  0
LINE
  5
103
100
AcDbEntity
  8
0
  6
ByLayer
 62
    7
370
   -3
100
AcDbLine
 10
-551.1981563747664
 20
1025.429135112128
 11
-551.1975533897237
 21
1073.363542396149
  0
LINE
  5
104
100
AcDbEntity
  8
0
  6
ByLayer
 62
    7
370
   -3
100
AcDbLine
 10
-1364.067393528385
 20
1073.373767793409
 11
-551.197553389724
 21
1073.36354239615
  0
LINE
  5
105
100
AcDbEntity
  8
0
  6
ByLayer
 62
    7
370
   -3
100
AcDbLine
 10
-1364.067996513428
 20
1025.439360509331
 11
-551.1981563747661
 21
1025.429135112128
  0
LINE
  5
106
100
AcDbEntity
  8
0
  6
ByLayer
 62
    7
370
   -3
100
AcDbLine
 10
-1364.06783169119
 20
1923.490393977326
 11
-1364.067793953055
 21
1920.490393977577
  0
LINE
  5
107
100
AcDbEntity
  8
0
  6
ByLayer
 62
    7
370
   -3
100
AcDbLine
 10
-1364.066586987997
 20
1824.542483942283
 11
-1364.066549249862
 21
1821.542483942534
  0
LINE
  5
108
100
AcDbEntity
  8
0
  6
ByLayer
 62
    7
370
   -3
100
AcDbLine
 10
-1364.066587009851
 20
1824.542477879519
 11
-1364.067793974909
 21
1920.490387914813
  0
LINE
  5
109
100
AcDbEntity
  8
0
  6
ByLayer
 62
    7
370
   -3
100
AcDbLine
 10
-551.2021685203896
 20
1824.552709209389
 11
-551.2021307822548
 21
1821.552709209639
  0
LINE
  5
10A
100
AcDbEntity
  8
0
  6
ByLayer
 62
    7
370
   -3
100
AcDbLine
 10
-1364.066549249862
 20
1821.542483942534
 11
-551.2021307822545
 21
1821.55270920964
  0
LINE
  5
10B
100
AcDbEntity
  8
0
  6
ByLayer
 62
    7
370
   -3
100
AcDbLine
 10
-1364.066587009851
 20
1824.542477879519
 11
-551.2022188528931
 21
1824.552703145992
  0
LINE
  5
10C
100
AcDbEntity
  8
0
  6
ByLayer
 62
    7
370
   -3
100
AcDbLine
 10
-551.2034258179506
 20
1920.500613181286
 11
-1364.067793974909
 21
1920.490387914813
  0
LINE
  5
10D
100
AcDbEntity
  8
0
  6
ByLayer
 62
    7
370
   -3
100
AcDbLine
 10
-551.2034258179503
 20
1920.500613181286
 11
-551.2022188528931
 21
1824.552703145992
  0
LINE
  5
10E
100
AcDbEntity
  8
0
  6
ByLayer
 62
    7
370
   -3
100
AcDbLine
 10
-551.2034132235819
 20
1923.500619244431
 11
-551.2033754854471
 21
1920.500619244683
  0
LINE
  5
10F
100
AcDbEntity
  8
0
  6
ByLayer
 62
    7
370
   -3
100
AcDbLine
 10
-1364.06783169119
 20
1923.490393977326
 11
-551.2034132235817
 21
1923.500619244432
  0
LINE
  5
110
100
AcDbEntity
  8
0
  6
ByLayer
 62
    7
370
   -3
100
AcDbLine
 10
-1364.064532913074
 20
1817.542483966035
 11
-1364.064495174939
 21
1814.542483966286
  0
LINE
  5
111
100
AcDbEntity
  8
0
  6
ByLayer
 62
    7
370
   -3
100
AcDbLine
 10
-1364.063288209881
 20
1718.594573930992
 11
-1364.063250471746
 21
1715.594573931243
  0
LINE
  5
112
100
AcDbEntity
  8
0
  6
ByLayer
 62
    7
370
   -3
100
AcDbLine
 10
-1364.063288231735
 20
1718.594567868229
 11
-1364.064495196793
 21
1814.542477903522
  0
LINE
  5
113
100
AcDbEntity
  8
0
  6
ByLayer
 62
    7
370
   -3
100
AcDbLine
 10
-551.1988697422737
 20
1718.604799198098
 11
-551.198832004139
 21
1715.604799198349
  0
LINE
  5
114
100
AcDbEntity
  8
0
  6
ByLayer
 62
    7
370
   -3
100
AcDbLine
 10
-1364.063250471746
 20
1715.594573931243
 11
-551.1988320041385
 21
1715.604799198349
  0
LINE
  5
115
100
AcDbEntity
  8
0
  6
ByLayer
 62
    7
370
   -3
100
AcDbLine
 10
-1364.063288231735
 20
1718.594567868228
 11
-551.1989200747772
 21
1718.604793134702
  0
LINE
  5
116
100
AcDbEntity
  8
0
  6
ByLayer
 62
    7
370
   -3
100
AcDbLine
 10
-551.2001270398346
 20
1814.552703169996
 11
-1364.064495196793
 21
1814.542477903522
  0
LINE
  5
117
100
AcDbEntity
  8
0
  6
ByLayer
 62
    7
370
   -3
100
AcDbLine
 10
-551.2001270398343
 20
1814.552703169996
 11
-551.1989200747772
 21
1718.604793134702
  0
LINE
  5
118
100
AcDbEntity
  8
0
  6
ByLayer
 62
    7
370
   -3
100
AcDbLine
 10
-551.2001144454659
 20
1817.552709233141
 11
-551.200076707331
 21
1814.552709233392
  0
LINE
  5
119
100
AcDbEntity
  8
0
  6
ByLayer
 62
    7
370
   -3
100
AcDbLine
 10
-1364.064532913074
 20
1817.542483966035
 11
-551.2001144454657
 21
1817.552709233141
  0
LINE
  5
11A
100
AcDbEntity
  8
0
  6
ByLayer
 62
    7
370
   -3
100
AcDbLine
 10
-1364.061427353038
 20
1711.594573952455
 11
-1364.061389614903
 21
1708.594573952706
  0
LINE
  5
11B
100
AcDbEntity
  8
0
  6
ByLayer
 62
    7
370
   -3
100
AcDbLine
 10
-1364.060182649846
 20
1612.646663917412
 11
-1364.06014491171
 21
1609.646663917663
  0
LINE
  5
11C
100
AcDbEntity
  8
0
  6
ByLayer
 62
    7
370
   -3
100
AcDbLine
 10
-1364.0601826717
 20
1612.646657854648
 11
-1364.061389636757
 21
1708.594567889942
  0
LINE
  5
11D
100
AcDbEntity
  8
0
  6
ByLayer
 62
    7
370
   -3
100
AcDbLine
 10
-551.1957641822379
 20
1612.656889184518
 11
-551.1957264441032
 21
1609.656889184768
  0
LINE
  5
11E
100
AcDbEntity
  8
0
  6
ByLayer
 62
    7
370
   -3
100
AcDbLine
 10
-1364.06014491171
 20
1609.646663917663
 11
-551.1957264441027
 21
1609.656889184768
  0
LINE
  5
11F
100
AcDbEntity
  8
0
  6
ByLayer
 62
    7
370
   -3
100
AcDbLine
 10
-1364.0601826717
 20
1612.646657854647
 11
-551.1958145147414
 21
1612.656883121121
  0
LINE
  5
120
100
AcDbEntity
  8
0
  6
ByLayer
 62
    7
370
   -3
100
AcDbLine
 10
-551.1970214797989
 20
1708.604793156415
 11
-1364.061389636757
 21
1708.594567889941
  0
LINE
  5
121
100
AcDbEntity
  8
0
  6
ByLayer
 62
    7
370
   -3
100
AcDbLine
 10
-551.1970214797988
 20
1708.604793156415
 11
-551.1958145147415
 21
1612.656883121121
  0
LINE
  5
122
100
AcDbEntity
  8
0
  6
ByLayer
 62
    7
370
   -3
100
AcDbLine
 10
-551.1970088854303
 20
1711.60479921956
 11
-551.1969711472954
 21
1708.604799219812
  0
LINE
  5
123
100
AcDbEntity
  8
0
  6
ByLayer
 62
    7
370
   -3
100
AcDbLine
 10
-1364.061427353038
 20
1711.594573952455
 11
-551.1970088854299
 21
1711.60479921956
  0
LINE
  5
124
100
AcDbEntity
  8
0
  6
ByLayer
 62
    7
370
   -3
100
AcDbLine
 10
-1364.064532912786
 20
2029.438304012715
 11
-1364.064495174651
 21
2026.438304012966
  0
LINE
  5
125
100
AcDbEntity
  8
0
  6
ByLayer
 62
    7
370
   -3
100
AcDbLine
 10
-1364.063288209594
 20
1930.490393977673
 11
-1364.063250471459
 21
1927.490393977924
  0
LINE
  5
126
100
AcDbEntity
  8
0
  6
ByLayer
 62
    7
370
   -3
100
AcDbLine
 10
-1364.063288231448
 20
1930.490387914909
 11
-1364.064495196505
 21
2026.438297950203
  0
LINE
  5
127
100
AcDbEntity
  8
0
  6
ByLayer
 62
    7
370
   -3
100
AcDbLine
 10
-551.1988697419858
 20
1930.500619244779
 11
-551.198832003851
 21
1927.500619245029
  0
LINE
  5
128
100
AcDbEntity
  8
0
  6
ByLayer
 62
    7
370
   -3
100
AcDbLine
 10
-1364.063250471459
 20
1927.490393977924
 11
-551.1988320038507
 21
1927.500619245029
  0
LINE
  5
129
100
AcDbEntity
  8
0
  6
ByLayer
 62
    7
370
   -3
100
AcDbLine
 10
-1364.063288231448
 20
1930.490387914909
 11
-551.1989200744894
 21
1930.500613181382
  0
LINE
  5
12A
100
AcDbEntity
  8
0
  6
ByLayer
 62
    7
370
   -3
100
AcDbLine
 10
-551.2001270395468
 20
2026.448523216676
 11
-1364.064495196505
 21
2026.438297950202
  0
LINE
  5
12B
100
AcDbEntity
  8
0
  6
ByLayer
 62
    7
370
   -3
100
AcDbLine
 10
-551.2001270395466
 20
2026.448523216676
 11
-551.1989200744894
 21
1930.500613181382
  0
LINE
  5
12C
100
AcDbEntity
  8
0
  6
ByLayer
 62
    7
370
   -3
100
AcDbLine
 10
-551.2001144451781
 20
2029.448529279821
 11
-551.2000767070433
 21
2026.448529280073
  0
LINE
  5
12D
100
AcDbEntity
  8
0
  6
ByLayer
 62
    7
370
   -3
100
AcDbLine
 10
-1364.064532912786
 20
2029.438304012716
 11
-551.2001144451779
 21
2029.448529279821
  0
LINE
  5
12E
100
AcDbEntity
  8
0
  6
ByLayer
 62
    7
370
   -3
100
AcDbLine
 10
-1364.067831690902
 20
2135.386214024006
 11
-1364.067793952767
 21
2132.386214024257
  0
LINE
  5
12F
100
AcDbEntity
  8
0
  6
ByLayer
 62
    7
370
   -3
100
AcDbLine
 10
-1364.06658698771
 20
2036.438303988963
 11
-1364.066549249575
 21
2033.438303989215
  0
LINE
  5
130
100
AcDbEntity
  8
0
  6
ByLayer
 62
    7
370
   -3
100
AcDbLine
 10
-1364.066587009564
 20
2036.4382979262
 11
-1364.067793974621
 21
2132.386207961493
  0
LINE
  5
131
100
AcDbEntity
  8
0
  6
ByLayer
 62
    7
370
   -3
100
AcDbLine
 10
-551.2021685201018
 20
2036.448529256069
 11
-551.202130781967
 21
2033.44852925632
  0
LINE
  5
132
100
AcDbEntity
  8
0
  6
ByLayer
 62
    7
370
   -3
100
AcDbLine
 10
-1364.066549249575
 20
2033.438303989215
 11
-551.2021307819666
 21
2033.44852925632
  0
LINE
  5
133
100
AcDbEntity
  8
0
  6
ByLayer
 62
    7
370
   -3
100
AcDbLine
 10
-1364.066587009564
 20
2036.438297926199
 11
-551.2022188526054
 21
2036.448523192673
  0
LINE
  5
134
100
AcDbEntity
  8
0
  6
ByLayer
 62
    7
370
   -3
100
AcDbLine
 10
-551.2034258176629
 20
2132.396433227967
 11
-1364.067793974621
 21
2132.386207961493
  0
LINE
  5
135
100
AcDbEntity
  8
0
  6
ByLayer
 62
    7
370
   -3
100
AcDbLine
 10
-551.2034258176627
 20
2132.396433227967
 11
-551.2022188526054
 21
2036.448523192673
  0
LINE
  5
136
100
AcDbEntity
  8
0
  6
ByLayer
 62
    7
370
   -3
100
AcDbLine
 10
-551.2034132232942
 20
2135.396439291112
 11
-551.2033754851594
 21
2132.396439291364
  0
LINE
  5
137
100
AcDbEntity
  8
0
  6
ByLayer
 62
    7
370
   -3
100
AcDbLine
 10
-1364.067831690902
 20
2135.386214024007
 11
-551.2034132232939
 21
2135.396439291112
  0
LINE
  5
138
100
AcDbEntity
  8
0
  6
ByLayer
 62
    7
370
   -3
100
AcDbLine
 10
-1364.068034273375
 20
908.1920477479936
 11
-551.1981941347134
 21
908.181822350791
  0
LINE
  5
139
100
AcDbEntity
  8
0
  6
ByLayer
 62
    7
370
   -3
100
AcDbLine
 10
-1364.06799653524
 20
911.1920477477698
 11
-1364.068034273375
 21
908.1920477480211
  0
LINE
  5
13A
100
AcDbEntity
  8
0
  6
ByLayer
 62
    7
370
   -3
100
AcDbLine
 10
-1364.067996513428
 20
911.1920416966394
 11
-1364.067393528385
 21
959.1264489807178
  0
LINE
  5
13B
100
AcDbEntity
  8
0
  6
ByLayer
 62
    7
370
   -3
100
AcDbLine
 10
-551.1981563965784
 20
911.1818223505672
 11
-551.1981941347133
 21
908.1818223508185
  0
LINE
  5
13C
100
AcDbEntity
  8
0
  6
ByLayer
 62
    7
370
   -3
100
AcDbLine
 10
-551.1981563747663
 20
911.1818162994363
 11
-551.1975533897237
 21
959.1162235834581
  0
LINE
  5
13D
100
AcDbEntity
  8
0
  6
ByLayer
 62
    7
370
   -3
100
AcDbLine
 10
-1364.067393528385
 20
959.1264489807177
 11
-551.197553389724
 21
959.1162235834585
  0
LINE
  5
13E
100
AcDbEntity
  8
0
  6
ByLayer
 62
    7
370
   -3
100
AcDbLine
 10
-1364.067996513428
 20
911.1920416966394
 11
-551.198156374766
 21
911.1818162994367
  0
LINE
  5
13F
100
AcDbEntity
  8
0
  6
ByLayer
 62
    7
370
   -3
100
AcDbLine
 10
-2184.067856720666
 20
1923.480078886727
 11
-2184.067818982532
 21
1920.480078886978
  0
LINE
  5
140
100
AcDbEntity
  8
0
  6
ByLayer
 62
    7
370
   -3
100
AcDbLine
 10
-2184.066612017474
 20
1824.532168851684
 11
-2184.066574279339
 21
1821.532168851935
  0
LINE
  5
141
100
AcDbEntity
  8
0
  6
ByLayer
 62
    7
370
   -3
100
AcDbLine
 10
-2184.066612039328
 20
1824.53216278892
 11
-2184.067819004386
 21
1920.480072824214
  0
LINE
  5
142
100
AcDbEntity
  8
0
  6
ByLayer
 62
    7
370
   -3
100
AcDbLine
 10
-1371.202193549866
 20
1824.54239411879
 11
-1371.202155811731
 21
1821.542394119041
  0
LINE
  5
143
100
AcDbEntity
  8
0
  6
ByLayer
 62
    7
370
   -3
100
AcDbLine
 10
-2184.066574279339
 20
1821.532168851935
 11
-1371.202155811731
 21
1821.542394119041
  0
LINE
  5
144
100
AcDbEntity
  8
0
  6
ByLayer
 62
    7
370
   -3
100
AcDbLine
 10
-2184.066612039328
 20
1824.53216278892
 11
-1371.20224388237
 21
1824.542388055394
  0
LINE
  5
145
100
AcDbEntity
  8
0
  6
ByLayer
 62
    7
370
   -3
100
AcDbLine
 10
-1371.203450847427
 20
1920.490298090688
 11
-2184.067819004386
 21
1920.480072824214
  0
LINE
  5
146
100
AcDbEntity
  8
0
  6
ByLayer
 62
    7
370
   -3
100
AcDbLine
 10
-1371.203450847427
 20
1920.490298090688
 11
-1371.20224388237
 21
1824.542388055394
  0
LINE
  5
147
100
AcDbEntity
  8
0
  6
ByLayer
 62
    7
370
   -3
100
AcDbLine
 10
-1371.203438253059
 20
1923.490304153833
 11
-1371.203400514924
 21
1920.490304154084
  0
LINE
  5
148
100
AcDbEntity
  8
0
  6
ByLayer
 62
    7
370
   -3
100
AcDbLine
 10
-2184.067856720667
 20
1923.480078886727
 11
-1371.203438253059
 21
1923.490304153833
  0
LINE
  5
149
100
AcDbEntity
  8
0
  6
ByLayer
 62
    7
370
   -3
100
AcDbLine
 10
-2184.064557942551
 20
1817.532168875436
 11
-2184.064520204416
 21
1814.532168875687
  0
LINE
  5
14A
100
AcDbEntity
  8
0
  6
ByLayer
 62
    7
370
   -3
100
AcDbLine
 10
-2184.063313239359
 20
1718.584258840393
 11
-2184.063275501224
 21
1715.584258840644
  0
LINE
  5
14B
100
AcDbEntity
  8
0
  6
ByLayer
 62
    7
370
   -3
100
AcDbLine
 10
-2184.063313261212
 20
1718.58425277763
 11
-2184.06452022627
 21
1814.532162812923
  0
LINE
  5
14C
100
AcDbEntity
  8
0
  6
ByLayer
 62
    7
370
   -3
100
AcDbLine
 10
-1371.198894771751
 20
1718.5944841075
 11
-1371.198857033616
 21
1715.59448410775
  0
LINE
  5
14D
100
AcDbEntity
  8
0
  6
ByLayer
 62
    7
370
   -3
100
AcDbLine
 10
-2184.063275501224
 20
1715.584258840644
 11
-1371.198857033616
 21
1715.59448410775
  0
LINE
  5
14E
100
AcDbEntity
  8
0
  6
ByLayer
 62
    7
370
   -3
100
AcDbLine
 10
-2184.063313261212
 20
1718.584252777629
 11
-1371.198945104255
 21
1718.594478044103
  0
LINE
  5
14F
100
AcDbEntity
  8
0
  6
ByLayer
 62
    7
370
   -3
100
AcDbLine
 10
-1371.200152069312
 20
1814.542388079397
 11
-2184.06452022627
 21
1814.532162812923
  0
LINE
  5
150
100
AcDbEntity
  8
0
  6
ByLayer
 62
    7
370
   -3
100
AcDbLine
 10
-1371.200152069312
 20
1814.542388079397
 11
-1371.198945104254
 21
1718.594478044103
  0
LINE
  5
151
100
AcDbEntity
  8
0
  6
ByLayer
 62
    7
370
   -3
100
AcDbLine
 10
-1371.200139474943
 20
1817.542394142542
 11
-1371.200101736808
 21
1814.542394142794
  0
LINE
  5
152
100
AcDbEntity
  8
0
  6
ByLayer
 62
    7
370
   -3
100
AcDbLine
 10
-2184.064557942551
 20
1817.532168875436
 11
-1371.200139474943
 21
1817.542394142542
  0
LINE
  5
153
100
AcDbEntity
  8
0
  6
ByLayer
 62
    7
370
   -3
100
AcDbLine
 10
-2184.061452382515
 20
1711.584258861856
 11
-2184.06141464438
 21
1708.584258862107
  0
LINE
  5
154
100
AcDbEntity
  8
0
  6
ByLayer
 62
    7
370
   -3
100
AcDbLine
 10
-2184.060207679323
 20
1612.636348826813
 11
-2184.060169941187
 21
1609.636348827064
  0
LINE
  5
155
100
AcDbEntity
  8
0
  6
ByLayer
 62
    7
370
   -3
100
AcDbLine
 10
-2184.060207701177
 20
1612.636342764049
 11
-2184.061414666234
 21
1708.584252799343
  0
LINE
  5
156
100
AcDbEntity
  8
0
  6
ByLayer
 62
    7
370
   -3
100
AcDbLine
 10
-1371.195789211715
 20
1612.646574093919
 11
-1371.19575147358
 21
1609.64657409417
  0
LINE
  5
157
100
AcDbEntity
  8
0
  6
ByLayer
 62
    7
370
   -3
100
AcDbLine
 10
-2184.060169941187
 20
1609.636348827064
 11
-1371.19575147358
 21
1609.64657409417
  0
LINE
  5
158
100
AcDbEntity
  8
0
  6
ByLayer
 62
    7
370
   -3
100
AcDbLine
 10
-2184.060207701177
 20
1612.636342764049
 11
-1371.195839544218
 21
1612.646568030523
  0
LINE
  5
159
100
AcDbEntity
  8
0
  6
ByLayer
 62
    7
370
   -3
100
AcDbLine
 10
-1371.197046509276
 20
1708.594478065816
 11
-2184.061414666235
 21
1708.584252799343
  0
LINE
  5
15A
100
AcDbEntity
  8
0
  6
ByLayer
 62
    7
370
   -3
100
AcDbLine
 10
-1371.197046509275
 20
1708.594478065816
 11
-1371.195839544218
 21
1612.646568030523
  0
LINE
  5
15B
100
AcDbEntity
  8
0
  6
ByLayer
 62
    7
370
   -3
100
AcDbLine
 10
-1371.197033914907
 20
1711.594484128962
 11
-1371.196996176772
 21
1708.594484129213
  0
LINE
  5
15C
100
AcDbEntity
  8
0
  6
ByLayer
 62
    7
370
   -3
100
AcDbLine
 10
-2184.061452382515
 20
1711.584258861856
 11
-1371.197033914907
 21
1711.594484128962
  0
LINE
  5
15D
100
AcDbEntity
  8
0
  6
ByLayer
 62
    7
370
   -3
100
AcDbLine
 10
-2184.064557942263
 20
2029.427988922117
 11
-2184.064520204128
 21
2026.427988922368
  0
LINE
  5
15E
100
AcDbEntity
  8
0
  6
ByLayer
 62
    7
370
   -3
100
AcDbLine
 10
-2184.063313239071
 20
1930.480078887074
 11
-2184.063275500936
 21
1927.480078887325
  0
LINE
  5
15F
100
AcDbEntity
  8
0
  6
ByLayer
 62
    7
370
   -3
100
AcDbLine
 10
-2184.063313260925
 20
1930.48007282431
 11
-2184.064520225983
 21
2026.427982859603
  0
LINE
  5
160
100
AcDbEntity
  8
0
  6
ByLayer
 62
    7
370
   -3
100
AcDbLine
 10
-1371.198894771463
 20
1930.49030415418
 11
-1371.198857033328
 21
1927.490304154431
  0
LINE
  5
161
100
AcDbEntity
  8
0
  6
ByLayer
 62
    7
370
   -3
100
AcDbLine
 10
-2184.063275500936
 20
1927.480078887325
 11
-1371.198857033328
 21
1927.490304154431
  0
LINE
  5
162
100
AcDbEntity
  8
0
  6
ByLayer
 62
    7
370
   -3
100
AcDbLine
 10
-2184.063313260925
 20
1930.48007282431
 11
-1371.198945103967
 21
1930.490298090783
  0
LINE
  5
163
100
AcDbEntity
  8
0
  6
ByLayer
 62
    7
370
   -3
100
AcDbLine
 10
-1371.200152069024
 20
2026.438208126077
 11
-2184.064520225983
 21
2026.427982859603
  0
LINE
  5
164
100
AcDbEntity
  8
0
  6
ByLayer
 62
    7
370
   -3
100
AcDbLine
 10
-1371.200152069024
 20
2026.438208126077
 11
-1371.198945103966
 21
1930.490298090783
  0
LINE
  5
165
100
AcDbEntity
  8
0
  6
ByLayer
 62
    7
370
   -3
100
AcDbLine
 10
-1371.200139474655
 20
2029.438214189223
 11
-1371.20010173652
 21
2026.438214189474
  0
LINE
  5
166
100
AcDbEntity
  8
0
  6
ByLayer
 62
    7
370
   -3
100
AcDbLine
 10
-2184.064557942263
 20
2029.427988922117
 11
-1371.200139474655
 21
2029.438214189223
  0
LINE
  5
167
100
AcDbEntity
  8
0
  6
ByLayer
 62
    7
370
   -3
100
AcDbLine
 10
-2184.067856720379
 20
2135.375898933407
 11
-2184.067818982244
 21
2132.375898933659
  0
LINE
  5
168
100
AcDbEntity
  8
0
  6
ByLayer
 62
    7
370
   -3
100
AcDbLine
 10
-2184.066612017186
 20
2036.427988898365
 11
-2184.066574279052
 21
2033.427988898615
  0
LINE
  5
169
100
AcDbEntity
  8
0
  6
ByLayer
 62
    7
370
   -3
100
AcDbLine
 10
-2184.066612039041
 20
2036.427982835601
 11
-2184.067819004098
 21
2132.375892870894
  0
LINE
  5
16A
100
AcDbEntity
  8
0
  6
ByLayer
 62
    7
370
   -3
100
AcDbLine
 10
-1371.202193549579
 20
2036.438214165471
 11
-1371.202155811444
 21
2033.438214165722
  0
LINE
  5
16B
100
AcDbEntity
  8
0
  6
ByLayer
 62
    7
370
   -3
100
AcDbLine
 10
-2184.066574279052
 20
2033.427988898615
 11
-1371.202155811444
 21
2033.438214165722
  0
LINE
  5
16C
100
AcDbEntity
  8
0
  6
ByLayer
 62
    7
370
   -3
100
AcDbLine
 10
-2184.066612039041
 20
2036.4279828356
 11
-1371.202243882082
 21
2036.438208102074
  0
LINE
  5
16D
100
AcDbEntity
  8
0
  6
ByLayer
 62
    7
370
   -3
100
AcDbLine
 10
-1371.203450847139
 20
2132.386118137368
 11
-2184.067819004098
 21
2132.375892870894
  0
LINE
  5
16E
100
AcDbEntity
  8
0
  6
ByLayer
 62
    7
370
   -3
100
AcDbLine
 10
-1371.203450847139
 20
2132.386118137368
 11
-1371.202243882082
 21
2036.438208102074
  0
LINE
  5
16F
100
AcDbEntity
  8
0
  6
ByLayer
 62
    7
370
   -3
100
AcDbLine
 10
-1371.203438252771
 20
2135.386124200513
 11
-1371.203400514636
 21
2132.386124200765
  0
LINE
  5
170
100
AcDbEntity
  8
0
  6
ByLayer
 62
    7
370
   -3
100
AcDbLine
 10
-2184.067856720379
 20
2135.375898933407
 11
-1371.203438252771
 21
2135.386124200513
  0
LINE
  5
171
100
AcDbEntity
  8
0
  6
ByLayer
 62
    7
370
   -3
100
AcDbLine
 10
-2184.061534503916
 20
1499.688438756207
 11
-2184.061496765782
 21
1496.688438756458
  0
LINE
  5
172
100
AcDbEntity
  8
0
  6
ByLayer
 62
    7
370
   -3
100
AcDbLine
 10
-2184.060289800724
 20
1400.740528721164
 11
-2184.060252062589
 21
1397.740528721415
  0
LINE
  5
173
100
AcDbEntity
  8
0
  6
ByLayer
 62
    7
370
   -3
100
AcDbLine
 10
-2184.060289822578
 20
1400.740522658401
 11
-2184.061496787636
 21
1496.688432693694
  0
LINE
  5
174
100
AcDbEntity
  8
0
  6
ByLayer
 62
    7
370
   -3
100
AcDbLine
 10
-1371.195871333116
 20
1400.75075398827
 11
-1371.195833594981
 21
1397.750753988521
  0
LINE
  5
175
100
AcDbEntity
  8
0
  6
ByLayer
 62
    7
370
   -3
100
AcDbLine
 10
-2184.060252062589
 20
1397.740528721415
 11
-1371.195833594981
 21
1397.750753988521
  0
LINE
  5
176
100
AcDbEntity
  8
0
  6
ByLayer
 62
    7
370
   -3
100
AcDbLine
 10
-2184.060289822578
 20
1400.7405226584
 11
-1371.19592166562
 21
1400.750747924874
  0
LINE
  5
177
100
AcDbEntity
  8
0
  6
ByLayer
 62
    7
370
   -3
100
AcDbLine
 10
-1371.197128630677
 20
1496.698657960168
 11
-2184.061496787636
 21
1496.688432693694
  0
LINE
  5
178
100
AcDbEntity
  8
0
  6
ByLayer
 62
    7
370
   -3
100
AcDbLine
 10
-1371.197128630677
 20
1496.698657960168
 11
-1371.19592166562
 21
1400.750747924874
  0
LINE
  5
179
100
AcDbEntity
  8
0
  6
ByLayer
 62
    7
370
   -3
100
AcDbLine
 10
-1371.197116036309
 20
1499.698664023313
 11
-1371.197078298174
 21
1496.698664023564
  0
LINE
  5
17A
100
AcDbEntity
  8
0
  6
ByLayer
 62
    7
370
   -3
100
AcDbLine
 10
-2184.061534503917
 20
1499.688438756207
 11
-1371.197116036309
 21
1499.698664023313
  0
LINE
  5
17B
100
AcDbEntity
  8
0
  6
ByLayer
 62
    7
370
   -3
100
AcDbLine
 10
-2184.064640063953
 20
1605.636348769787
 11
-2184.064602325818
 21
1602.636348770039
  0
LINE
  5
17C
100
AcDbEntity
  8
0
  6
ByLayer
 62
    7
370
   -3
100
AcDbLine
 10
-2184.06339536076
 20
1506.688438734745
 11
-2184.063357622626
 21
1503.688438734996
  0
LINE
  5
17D
100
AcDbEntity
  8
0
  6
ByLayer
 62
    7
370
   -3
100
AcDbLine
 10
-2184.063395382614
 20
1506.688432671981
 11
-2184.064602347672
 21
1602.636342707274
  0
LINE
  5
17E
100
AcDbEntity
  8
0
  6
ByLayer
 62
    7
370
   -3
100
AcDbLine
 10
-1371.198976893152
 20
1506.698664001851
 11
-1371.198939155018
 21
1503.698664002101
  0
LINE
  5
17F
100
AcDbEntity
  8
0
  6
ByLayer
 62
    7
370
   -3
100
AcDbLine
 10
-2184.063357622626
 20
1503.688438734996
 11
-1371.198939155017
 21
1503.698664002101
  0
LINE
  5
180
100
AcDbEntity
  8
0
  6
ByLayer
 62
    7
370
   -3
100
AcDbLine
 10
-2184.063395382614
 20
1506.688432671981
 11
-1371.199027225656
 21
1506.698657938454
  0
LINE
  5
181
100
AcDbEntity
  8
0
  6
ByLayer
 62
    7
370
   -3
100
AcDbLine
 10
-1371.200234190713
 20
1602.646567973748
 11
-2184.064602347672
 21
1602.636342707274
  0
LINE
  5
182
100
AcDbEntity
  8
0
  6
ByLayer
 62
    7
370
   -3
100
AcDbLine
 10
-1371.200234190713
 20
1602.646567973748
 11
-1371.199027225656
 21
1506.698657938454
  0
LINE
  5
183
100
AcDbEntity
  8
0
  6
ByLayer
 62
    7
370
   -3
100
AcDbLine
 10
-1371.200221596345
 20
1605.646574036894
 11
-1371.20018385821
 21
1602.646574037145
  0
LINE
  5
184
100
AcDbEntity
  8
0
  6
ByLayer
 62
    7
370
   -3
100
AcDbLine
 10
-2184.064640063953
 20
1605.636348769787
 11
-1371.200221596345
 21
1605.646574036894
  0
LINE
  5
185
100
AcDbEntity
  8
0
  6
ByLayer
 62
    7
370
   -3
100
AcDbLine
 10
-2183.9597707793
 20
1246.6794163827
 11
-1371.159745684853
 21
1246.689640901673
  0
ELLIPSE
  5
186
100
AcDbEntity
  8
0
  6
ByLayer
 62
    7
370
   -3
100
AcDbEllipse
 10
-2132.171574749037
 20
1301.685389154929
 30
0
 11
2.04998668188752
 21
0.007389457604386572
 31
0
 40
0.9999999999954122
 41
0
 42
6.283185307179586
  0
ELLIPSE
  5
187
100
AcDbEntity
  8
0
  6
ByLayer
 62
    7
370
   -3
100
AcDbEllipse
 10
-2132.171574781794
 20
1301.685380067392
 30
0
 11
3.999974013439123
 21
-0.01441845386221793
 31
0
 40
0.9999999999954121
 41
0
 42
6.283185307179586
  0
ELLIPSE
  5
188
100
AcDbEntity
  8
0
  6
ByLayer
 62
    7
370
   -3
100
AcDbEllipse
 10
-1960.578183599281
 20
1301.685389154923
 30
0
 11
2.04998668188752
 21
0.007389457604386572
 31
0
 40
0.9999999999954122
 41
0
 42
6.283185307179586
  0
ELLIPSE
  5
189
100
AcDbEntity
  8
0
  6
ByLayer
 62
    7
370
   -3
100
AcDbEllipse
 10
-1960.578183632038
 20
1301.685380067386
 30
0
 11
3.999974013439123
 21
-0.01441845386221793
 31
0
 40
0.9999999999954121
 41
0
 42
6.283185307179586
  0
ELLIPSE
  5
18A
100
AcDbEntity
  8
0
  6
ByLayer
 62
    7
370
   -3
100
AcDbEllipse
 10
-1802.600956424689
 20
1301.685389154918
 30
0
 11
2.04998668188752
 21
0.007389457604386572
 31
0
 40
0.9999999999954122
 41
0
 42
6.283185307179586
  0
ELLIPSE
  5
18B
100
AcDbEntity
  8
0
  6
ByLayer
 62
    7
370
   -3
100
AcDbEllipse
 10
-1802.600956457446
 20
1301.685380067381
 30
0
 11
3.999974013439123
 21
-0.01441845386221793
 31
0
 40
0.9999999999954121
 41
0
 42
6.283185307179586
  0
ELLIPSE
  5
18C
100
AcDbEntity
  8
0
  6
ByLayer
 62
    7
370
   -3
100
AcDbEllipse
 10
-1709.875881153153
 20
1301.685389154915
 30
0
 11
2.04998668188752
 21
0.007389457604386572
 31
0
 40
0.9999999999954122
 41
0
 42
6.283185307179586
  0
ELLIPSE
  5
18D
100
AcDbEntity
  8
0
  6
ByLayer
 62
    7
370
   -3
100
AcDbEllipse
 10
-1709.875881185911
 20
1301.685380067378
 30
0
 11
3.999974013439123
 21
-0.01441845386221793
 31
0
 40
0.9999999999954121
 41
0
 42
6.283185307179586
  0
ELLIPSE
  5
18E
100
AcDbEntity
  8
0
  6
ByLayer
 62
    7
370
   -3
100
AcDbEllipse
 10
-1549.875567592836
 20
1301.68538915491
 30
0
 11
2.04998668188752
 21
0.007389457604386572
 31
0
 40
0.9999999999954122
 41
0
 42
6.283185307179586
  0
ELLIPSE
  5
18F
100
AcDbEntity
  8
0
  6
ByLayer
 62
    7
370
   -3
100
AcDbEllipse
 10
-1549.875567625593
 20
1301.685380067373
 30
0
 11
3.999974013439123
 21
-0.01441845386221793
 31
0
 40
0.9999999999954121
 41
0
 42
6.283185307179586
  0
ELLIPSE
  5
190
100
AcDbEntity
  8
0
  6
ByLayer
 62
    7
370
   -3
100
AcDbEllipse
 10
-1378.169919397807
 20
1301.689649988894
 30
0
 11
2.04998668188752
 21
-0.007389457604386574
 31
0
 40
0.9999999999954122
 41
0
 42
6.283185307179586
  0
ELLIPSE
  5
191
100
AcDbEntity
  8
0
  6
ByLayer
 62
    7
370
   -3
100
AcDbEllipse
 10
-1378.169919430564
 20
1301.685380067376
 30
0
 11
3.999974013439123
 21
0.01441845386221793
 31
0
 40
0.9999999999954121
 41
0
 42
6.283185307179586
  0
LINE
  5
192
100
AcDbEntity
  8
0
  6
ByLayer
 62
    7
370
   -3
100
AcDbLine
 10
-1371.159745684853
 20
1246.689640901672
 11
-1371.161129391147
 21
1356.687628187992
  0
LINE
  5
193
100
AcDbEntity
  8
0
  6
ByLayer
 62
    7
370
   -3
100
AcDbLine
 10
-1371.161129391147
 20
1356.687628187992
 11
-2183.961154485595
 21
1356.67740366902
  0
LINE
  5
194
100
AcDbEntity
  8
0
  6
ByLayer
 62
    7
370
   -3
100
AcDbLine
 10
-2183.9597707793
 20
1246.6794163827
 11
-2183.961154485595
 21
1356.67740366902
  0
LINE
  5
195
100
AcDbEntity
  8
0
  6
ByLayer
 62
    7
370
   -3
100
AcDbLine
 10
-2183.960420277926
 20
1136.681429058442
 11
-1371.160395183478
 21
1136.691653577415
  0
ELLIPSE
  5
196
100
AcDbEntity
  8
0
  6
ByLayer
 62
    7
370
   -3
100
AcDbEllipse
 10
-2132.172224247662
 20
1191.687401830671
 30
0
 11
2.04998668188752
 21
0.007389457604386572
 31
0
 40
0.9999999999954122
 41
0
 42
6.283185307179586
  0
ELLIPSE
  5
197
100
AcDbEntity
  8
0
  6
ByLayer
 62
    7
370
   -3
100
AcDbEllipse
 10
-2132.172224280419
 20
1191.687392743134
 30
0
 11
3.999974013439123
 21
-0.01441845386221793
 31
0
 40
0.9999999999954121
 41
0
 42
6.283185307179586
  0
ELLIPSE
  5
198
100
AcDbEntity
  8
0
  6
ByLayer
 62
    7
370
   -3
100
AcDbEllipse
 10
-1960.578833097906
 20
1191.687401830665
 30
0
 11
2.04998668188752
 21
0.007389457604386572
 31
0
 40
0.9999999999954122
 41
0
 42
6.283185307179586
  0
ELLIPSE
  5
199
100
AcDbEntity
  8
0
  6
ByLayer
 62
    7
370
   -3
100
AcDbEllipse
 10
-1960.578833130663
 20
1191.687392743128
 30
0
 11
3.999974013439123
 21
-0.01441845386221793
 31
0
 40
0.9999999999954121
 41
0
 42
6.283185307179586
  0
ELLIPSE
  5
19A
100
AcDbEntity
  8
0
  6
ByLayer
 62
    7
370
   -3
100
AcDbEllipse
 10
-1802.601605923315
 20
1191.68740183066
 30
0
 11
2.04998668188752
 21
0.007389457604386572
 31
0
 40
0.9999999999954122
 41
0
 42
6.283185307179586
  0
ELLIPSE
  5
19B
100
AcDbEntity
  8
0
  6
ByLayer
 62
    7
370
   -3
100
AcDbEllipse
 10
-1802.601605956072
 20
1191.687392743123
 30
0
 11
3.999974013439123
 21
-0.01441845386221793
 31
0
 40
0.9999999999954121
 41
0
 42
6.283185307179586
  0
ELLIPSE
  5
19C
100
AcDbEntity
  8
0
  6
ByLayer
 62
    7
370
   -3
100
AcDbEllipse
 10
-1709.876530651779
 20
1191.687401830657
 30
0
 11
2.04998668188752
 21
0.007389457604386572
 31
0
 40
0.9999999999954122
 41
0
 42
6.283185307179586
  0
ELLIPSE
  5
19D
100
AcDbEntity
  8
0
  6
ByLayer
 62
    7
370
   -3
100
AcDbEllipse
 10
-1709.876530684536
 20
1191.68739274312
 30
0
 11
3.999974013439123
 21
-0.01441845386221793
 31
0
 40
0.9999999999954121
 41
0
 42
6.283185307179586
  0
ELLIPSE
  5
19E
100
AcDbEntity
  8
0
  6
ByLayer
 62
    7
370
   -3
100
AcDbEllipse
 10
-1549.876217091462
 20
1191.687401830652
 30
0
 11
2.04998668188752
 21
0.007389457604386572
 31
0
 40
0.9999999999954122
 41
0
 42
6.283185307179586
  0
ELLIPSE
  5
19F
100
AcDbEntity
  8
0
  6
ByLayer
 62
    7
370
   -3
100
AcDbEllipse
 10
-1549.876217124219
 20
1191.687392743115
 30
0
 11
3.999974013439123
 21
-0.01441845386221793
 31
0
 40
0.9999999999954121
 41
0
 42
6.283185307179586
  0
ELLIPSE
  5
1A0
100
AcDbEntity
  8
0
  6
ByLayer
 62
    7
370
   -3
100
AcDbEllipse
 10
-1378.170568896432
 20
1191.691662664636
 30
0
 11
2.04998668188752
 21
-0.007389457604386574
 31
0
 40
0.9999999999954122
 41
0
 42
6.283185307179586
  0
ELLIPSE
  5
1A1
100
AcDbEntity
  8
0
  6
ByLayer
 62
    7
370
   -3
100
AcDbEllipse
 10
-1378.170568929189
 20
1191.687392743118
 30
0
 11
3.999974013439123
 21
0.01441845386221793
 31
0
 40
0.9999999999954121
 41
0
 42
6.283185307179586
  0
LINE
  5
1A2
100
AcDbEntity
  8
0
  6
ByLayer
 62
    7
370
   -3
100
AcDbLine
 10
-1371.160395183478
 20
1136.691653577415
 11
-1371.161778889773
 21
1246.689640863734
  0
LINE
  5
1A3
100
AcDbEntity
  8
0
  6
ByLayer
 62
    7
370
   -3
100
AcDbLine
 10
-1371.161778889773
 20
1246.689640863735
 11
-2183.961803984221
 21
1246.679416344762
  0
LINE
  5
1A4
100
AcDbEntity
  8
0
  6
ByLayer
 62
    7
370
   -3
100
AcDbLine
 10
-2183.960420277926
 20
1136.681429058442
 11
-2183.961803984221
 21
1246.679416344762
  0
LINE
  5
1A5
100
AcDbEntity
  8
0
  6
ByLayer
 62
    7
370
   -3
100
AcDbLine
 10
-2183.96040568442
 20
908.161315629377
 11
-1371.160380589973
 21
908.1715401483495
  0
ELLIPSE
  5
1A6
100
AcDbEntity
  8
0
  6
ByLayer
 62
    7
370
   -3
100
AcDbEllipse
 10
-2132.172209654157
 20
963.1672884016059
 30
0
 11
2.04998668188752
 21
0.007389457604386572
 31
0
 40
0.9999999999954122
 41
0
 42
6.283185307179586
  0
ELLIPSE
  5
1A7
100
AcDbEntity
  8
0
  6
ByLayer
 62
    7
370
   -3
100
AcDbEllipse
 10
-2132.172209686914
 20
963.1672793140685
 30
0
 11
3.999974013439123
 21
-0.01441845386221793
 31
0
 40
0.9999999999954121
 41
0
 42
6.283185307179586
  0
ELLIPSE
  5
1A8
100
AcDbEntity
  8
0
  6
ByLayer
 62
    7
370
   -3
100
AcDbEllipse
 10
-1960.578818504401
 20
963.1672884016003
 30
0
 11
2.04998668188752
 21
0.007389457604386572
 31
0
 40
0.9999999999954122
 41
0
 42
6.283185307179586
  0
ELLIPSE
  5
1A9
100
AcDbEntity
  8
0
  6
ByLayer
 62
    7
370
   -3
100
AcDbEllipse
 10
-1960.578818537158
 20
963.1672793140631
 30
0
 11
3.999974013439123
 21
-0.01441845386221793
 31
0
 40
0.9999999999954121
 41
0
 42
6.283185307179586
  0
ELLIPSE
  5
1AA
100
AcDbEntity
  8
0
  6
ByLayer
 62
    7
370
   -3
100
AcDbEllipse
 10
-1802.601591329809
 20
963.1672884015952
 30
0
 11
2.04998668188752
 21
0.007389457604386572
 31
0
 40
0.9999999999954122
 41
0
 42
6.283185307179586
  0
ELLIPSE
  5
1AB
100
AcDbEntity
  8
0
  6
ByLayer
 62
    7
370
   -3
100
AcDbEllipse
 10
-1802.601591362566
 20
963.1672793140579
 30
0
 11
3.999974013439123
 21
-0.01441845386221793
 31
0
 40
0.9999999999954121
 41
0
 42
6.283185307179586
  0
ELLIPSE
  5
1AC
100
AcDbEntity
  8
0
  6
ByLayer
 62
    7
370
   -3
100
AcDbEllipse
 10
-1709.876516058273
 20
963.167288401592
 30
0
 11
2.04998668188752
 21
0.007389457604386572
 31
0
 40
0.9999999999954122
 41
0
 42
6.283185307179586
  0
ELLIPSE
  5
1AD
100
AcDbEntity
  8
0
  6
ByLayer
 62
    7
370
   -3
100
AcDbEllipse
 10
-1709.876516091031
 20
963.1672793140547
 30
0
 11
3.999974013439123
 21
-0.01441845386221793
 31
0
 40
0.9999999999954121
 41
0
 42
6.283185307179586
  0
ELLIPSE
  5
1AE
100
AcDbEntity
  8
0
  6
ByLayer
 62
    7
370
   -3
100
AcDbEllipse
 10
-1549.876202497956
 20
963.1672884015867
 30
0
 11
2.04998668188752
 21
0.007389457604386572
 31
0
 40
0.9999999999954122
 41
0
 42
6.283185307179586
  0
ELLIPSE
  5
1AF
100
AcDbEntity
  8
0
  6
ByLayer
 62
    7
370
   -3
100
AcDbEllipse
 10
-1549.876202530713
 20
963.1672793140494
 30
0
 11
3.999974013439123
 21
-0.01441845386221793
 31
0
 40
0.9999999999954121
 41
0
 42
6.283185307179586
  0
ELLIPSE
  5
1B0
100
AcDbEntity
  8
0
  6
ByLayer
 62
    7
370
   -3
100
AcDbEllipse
 10
-1378.170554302927
 20
963.1715492355705
 30
0
 11
2.04998668188752
 21
-0.007389457604386574
 31
0
 40
0.9999999999954122
 41
0
 42
6.283185307179586
  0
ELLIPSE
  5
1B1
100
AcDbEntity
  8
0
  6
ByLayer
 62
    7
370
   -3
100
AcDbEllipse
 10
-1378.170554335684
 20
963.1672793140527
 30
0
 11
3.999974013439123
 21
0.01441845386221793
 31
0
 40
0.9999999999954121
 41
0
 42
6.283185307179586
  0
LINE
  5
1B2
100
AcDbEntity
  8
0
  6
ByLayer
 62
    7
370
   -3
100
AcDbLine
 10
-1371.160380589973
 20
908.1715401483493
 11
-1371.161764296267
 21
1018.169527434669
  0
LINE
  5
1B3
100
AcDbEntity
  8
0
  6
ByLayer
 62
    7
370
   -3
100
AcDbLine
 10
-1371.161764296267
 20
1018.169527434669
 11
-2183.961789390715
 21
1018.159302915697
  0
LINE
  5
1B4
100
AcDbEntity
  8
0
  6
ByLayer
 62
    7
370
   -3
100
AcDbLine
 10
-2183.96040568442
 20
908.161315629377
 11
-2183.961789390715
 21
1018.159302915697
  0
LINE
  5
1B5
100
AcDbEntity
  8
0
  6
ByLayer
 62
    7
370
   -3
100
AcDbLine
 10
-2183.959756185795
 20
1018.159302953635
 11
-1371.159731091348
 21
1018.169527472607
  0
ELLIPSE
  5
1B6
100
AcDbEntity
  8
0
  6
ByLayer
 62
    7
370
   -3
100
AcDbEllipse
 10
-2132.171560155532
 20
1073.165275725864
 30
0
 11
2.04998668188752
 21
0.007389457604386572
 31
0
 40
0.9999999999954122
 41
0
 42
6.283185307179586
  0
ELLIPSE
  5
1B7
100
AcDbEntity
  8
0
  6
ByLayer
 62
    7
370
   -3
100
AcDbEllipse
 10
-2132.171560188289
 20
1073.165266638326
 30
0
 11
3.999974013439123
 21
-0.01441845386221793
 31
0
 40
0.9999999999954121
 41
0
 42
6.283185307179586
  0
ELLIPSE
  5
1B8
100
AcDbEntity
  8
0
  6
ByLayer
 62
    7
370
   -3
100
AcDbEllipse
 10
-1960.578169005775
 20
1073.165275725858
 30
0
 11
2.04998668188752
 21
0.007389457604386572
 31
0
 40
0.9999999999954122
 41
0
 42
6.283185307179586
  0
ELLIPSE
  5
1B9
100
AcDbEntity
  8
0
  6
ByLayer
 62
    7
370
   -3
100
AcDbEllipse
 10
-1960.578169038532
 20
1073.165266638321
 30
0
 11
3.999974013439123
 21
-0.01441845386221793
 31
0
 40
0.9999999999954121
 41
0
 42
6.283185307179586
  0
ELLIPSE
  5
1BA
100
AcDbEntity
  8
0
  6
ByLayer
 62
    7
370
   -3
100
AcDbEllipse
 10
-1802.600941831184
 20
1073.165275725853
 30
0
 11
2.04998668188752
 21
0.007389457604386572
 31
0
 40
0.9999999999954122
 41
0
 42
6.283185307179586
  0
ELLIPSE
  5
1BB
100
AcDbEntity
  8
0
  6
ByLayer
 62
    7
370
   -3
100
AcDbEllipse
 10
-1802.600941863941
 20
1073.165266638316
 30
0
 11
3.999974013439123
 21
-0.01441845386221793
 31
0
 40
0.9999999999954121
 41
0
 42
6.283185307179586
  0
ELLIPSE
  5
1BC
100
AcDbEntity
  8
0
  6
ByLayer
 62
    7
370
   -3
100
AcDbEllipse
 10
-1709.875866559648
 20
1073.16527572585
 30
0
 11
2.04998668188752
 21
0.007389457604386572
 31
0
 40
0.9999999999954122
 41
0
 42
6.283185307179586
  0
ELLIPSE
  5
1BD
100
AcDbEntity
  8
0
  6
ByLayer
 62
    7
370
   -3
100
AcDbEllipse
 10
-1709.875866592405
 20
1073.165266638312
 30
0
 11
3.999974013439123
 21
-0.01441845386221793
 31
0
 40
0.9999999999954121
 41
0
 42
6.283185307179586
  0
ELLIPSE
  5
1BE
100
AcDbEntity
  8
0
  6
ByLayer
 62
    7
370
   -3
100
AcDbEllipse
 10
-1549.875552999331
 20
1073.165275725845
 30
0
 11
2.04998668188752
 21
0.007389457604386572
 31
0
 40
0.9999999999954122
 41
0
 42
6.283185307179586
  0
ELLIPSE
  5
1BF
100
AcDbEntity
  8
0
  6
ByLayer
 62
    7
370
   -3
100
AcDbEllipse
 10
-1549.875553032088
 20
1073.165266638307
 30
0
 11
3.999974013439123
 21
-0.01441845386221793
 31
0
 40
0.9999999999954121
 41
0
 42
6.283185307179586
  0
ELLIPSE
  5
1C0
100
AcDbEntity
  8
0
  6
ByLayer
 62
    7
370
   -3
100
AcDbEllipse
 10
-1378.169904804302
 20
1073.169536559828
 30
0
 11
2.04998668188752
 21
-0.007389457604386574
 31
0
 40
0.9999999999954122
 41
0
 42
6.283185307179586
  0
ELLIPSE
  5
1C1
100
AcDbEntity
  8
0
  6
ByLayer
 62
    7
370
   -3
100
AcDbEllipse
 10
-1378.169904837059
 20
1073.165266638311
 30
0
 11
3.999974013439123
 21
0.01441845386221793
 31
0
 40
0.9999999999954121
 41
0
 42
6.283185307179586
  0
LINE
  5
1C2
100
AcDbEntity
  8
0
  6
ByLayer
 62
    7
370
   -3
100
AcDbLine
 10
-1371.159731091348
 20
1018.169527472607
 11
-1371.161114797642
 21
1128.167514758927
  0
LINE
  5
1C3
100
AcDbEntity
  8
0
  6
ByLayer
 62
    7
370
   -3
100
AcDbLine
 10
-1371.161114797642
 20
1128.167514758927
 11
-2183.96113989209
 21
1128.157290239954
  0
LINE
  5
1C4
100
AcDbEntity
  8
0
  6
ByLayer
 62
    7
370
   -3
100
AcDbLine
 10
-2183.959756185795
 20
1018.159302953635
 11
-2183.96113989209
 21
1128.157290239954
  0
ENDSEC
  0
SECTION
  2
OBJECTS
  0
DICTIONARY
  5
C
330
0
100
AcDbDictionary
281
    1
  3
ACAD_GROUP
350
D
  0
DICTIONARY
  5
D
330
C
100
AcDbDictionary
281
    1
  0
ENDSEC
  0
EOF
