  0
SECTION
  2
HEADER
  9
$ACADVER
  1
AC1014
  9
$ACADMAINTVER
 70
     9
  9
$DWGCODEPAGE
  3
ANSI_1252
  9
$INSBASE
 10
0.0
 20
0.0
 30
0.0
  9
$EXTMIN
 10
25.00000000000324
 20
1349.314999999992
 30
0.0000033051739623
  9
$EXTMAX
 10
2413.560138500985
 20
2488.093999999992
 30
0.000003305174698
  9
$LIMMIN
 10
0.0
 20
0.0
  9
$LIMMAX
 10
420.0
 20
297.0
  9
$ORTHOMODE
 70
     0
  9
$REGENMODE
 70
     1
  9
$FILLMODE
 70
     1
  9
$QTEXTMODE
 70
     0
  9
$MIRRTEXT
 70
     1
  9
$DRAGMODE
 70
     2
  9
$LTSCALE
 40
1.0
  9
$OSMODE
 70
    37
  9
$ATTMODE
 70
     1
  9
$TEXTSIZE
 40
2.5
  9
$TRACEWID
 40
1.0
  9
$TEXTSTYLE
  7
STANDARD
  9
$CLAYER
  8
0
  9
$CELTYPE
  6
BYLAYER
  9
$CECOLOR
 62
   256
  9
$CELTSCALE
 40
1.0
  9
$DELOBJ
 70
     1
  9
$DISPSILH
 70
     0
  9
$DIMSCALE
 40
1.0
  9
$DIMASZ
 40
2.5
  9
$DIMEXO
 40
0.625
  9
$DIMDLI
 40
3.75
  9
$DIMRND
 40
0.0
  9
$DIMDLE
 40
0.0
  9
$DIMEXE
 40
1.25
  9
$DIMTP
 40
0.0
  9
$DIMTM
 40
0.0
  9
$DIMTXT
 40
2.5
  9
$DIMCEN
 40
2.5
  9
$DIMTSZ
 40
0.0
  9
$DIMTOL
 70
     0
  9
$DIMLIM
 70
     0
  9
$DIMTIH
 70
     1
  9
$DIMTOH
 70
     0
  9
$DIMSE1
 70
     0
  9
$DIMSE2
 70
     0
  9
$DIMTAD
 70
     1
  9
$DIMZIN
 70
     8
  9
$DIMBLK
  1

  9
$DIMASO
 70
     1
  9
$DIMSHO
 70
     1
  9
$DIMPOST
  1
mm
  9
$DIMAPOST
  1

  9
$DIMALT
 70
     0
  9
$DIMALTD
 70
     3
  9
$DIMALTF
 40
0.0393700787401575
  9
$DIMLFAC
 40
1.0
  9
$DIMTOFL
 70
     1
  9
$DIMTVP
 40
0.0
  9
$DIMTIX
 70
     0
  9
$DIMSOXD
 70
     0
  9
$DIMSAH
 70
     0
  9
$DIMBLK1
  1

  9
$DIMBLK2
  1

  9
$DIMSTYLE
  2
ISO-25
  9
$DIMCLRD
 70
     0
  9
$DIMCLRE
 70
     0
  9
$DIMCLRT
 70
     0
  9
$DIMTFAC
 40
1.0
  9
$DIMGAP
 40
0.625
  9
$DIMJUST
 70
     0
  9
$DIMSD1
 70
     0
  9
$DIMSD2
 70
     0
  9
$DIMTOLJ
 70
     0
  9
$DIMTZIN
 70
     8
  9
$DIMALTZ
 70
     0
  9
$DIMALTTZ
 70
     8
  9
$DIMFIT
 70
     3
  9
$DIMUPT
 70
     0
  9
$DIMUNIT
 70
     2
  9
$DIMDEC
 70
     2
  9
$DIMTDEC
 70
     2
  9
$DIMALTU
 70
     2
  9
$DIMALTTD
 70
     3
  9
$DIMTXSTY
  7
STANDARD
  9
$DIMAUNIT
 70
     0
  9
$LUNITS
 70
     2
  9
$LUPREC
 70
     4
  9
$SKETCHINC
 40
1.0
  9
$FILLETRAD
 40
0.0
  9
$AUNITS
 70
     0
  9
$AUPREC
 70
     0
  9
$MENU
  1
.
  9
$ELEVATION
 40
0.0
  9
$PELEVATION
 40
0.0
  9
$THICKNESS
 40
0.0
  9
$LIMCHECK
 70
     0
  9
$CHAMFERA
 40
0.0
  9
$CHAMFERB
 40
0.0
  9
$CHAMFERC
 40
0.0
  9
$CHAMFERD
 40
0.0
  9
$SKPOLY
 70
     0
  9
$TDCREATE
 40
2460262.382409803
  9
$TDUPDATE
 40
2460262.382410069
  9
$TDINDWG
 40
0.0000000116
  9
$TDUSRTIMER
 40
0.0000000116
  9
$USRTIMER
 70
     1
  9
$ANGBASE
 50
0.0
  9
$ANGDIR
 70
     0
  9
$PDMODE
 70
     0
  9
$PDSIZE
 40
0.0
  9
$PLINEWID
 40
0.0
  9
$COORDS
 70
     1
  9
$SPLFRAME
 70
     0
  9
$SPLINETYPE
 70
     6
  9
$SPLINESEGS
 70
     8
  9
$ATTDIA
 70
     0
  9
$ATTREQ
 70
     1
  9
$HANDLING
 70
     1
  9
$HANDSEED
  5
37F
  9
$SURFTAB1
 70
     6
  9
$SURFTAB2
 70
     6
  9
$SURFTYPE
 70
     6
  9
$SURFU
 70
     6
  9
$SURFV
 70
     6
  9
$UCSNAME
  2

  9
$UCSORG
 10
0.0
 20
0.0
 30
0.0
  9
$UCSXDIR
 10
1.0
 20
0.0
 30
0.0
  9
$UCSYDIR
 10
0.0
 20
1.0
 30
0.0
  9
$PUCSNAME
  2

  9
$PUCSORG
 10
0.0
 20
0.0
 30
0.0
  9
$PUCSXDIR
 10
1.0
 20
0.0
 30
0.0
  9
$PUCSYDIR
 10
0.0
 20
1.0
 30
0.0
  9
$USERI1
 70
     0
  9
$USERI2
 70
     0
  9
$USERI3
 70
     0
  9
$USERI4
 70
     0
  9
$USERI5
 70
     0
  9
$USERR1
 40
0.0
  9
$USERR2
 40
0.0
  9
$USERR3
 40
0.0
  9
$USERR4
 40
0.0
  9
$USERR5
 40
0.0
  9
$WORLDVIEW
 70
     1
  9
$SHADEDGE
 70
     3
  9
$SHADEDIF
 70
    70
  9
$TILEMODE
 70
     1
  9
$MAXACTVP
 70
    64
  9
$PINSBASE
 10
0.0
 20
0.0
 30
0.0
  9
$PLIMCHECK
 70
     0
  9
$PEXTMIN
 10
1.000000000000000E+20
 20
1.000000000000000E+20
 30
1.000000000000000E+20
  9
$PEXTMAX
 10
-1.000000000000000E+20
 20
-1.000000000000000E+20
 30
-1.000000000000000E+20
  9
$PLIMMIN
 10
0.0
 20
0.0
  9
$PLIMMAX
 10
420.0
 20
297.0
  9
$UNITMODE
 70
     0
  9
$VISRETAIN
 70
     1
  9
$PLINEGEN
 70
     0
  9
$PSLTSCALE
 70
     1
  9
$TREEDEPTH
 70
  3020
  9
$PICKSTYLE
 70
     1
  9
$CMLSTYLE
  2
STANDARD
  9
$CMLJUST
 70
     0
  9
$CMLSCALE
 40
20.0
  9
$PROXYGRAPHICS
 70
     1
  9
$MEASUREMENT
 70
     1
  0
ENDSEC
  0
SECTION
  2
CLASSES
  0
CLASS
  1
ACDBDICTIONARYWDFLT
  2
AcDbDictionaryWithDefault
  3
ObjectDBX Classes
 90
        0
280
     0
281
     0
  0
CLASS
  1
VISUALSTYLE
  2
AcDbVisualStyle
  3
ObjectDBX Classes
 90
     4095
280
     0
281
     0
  0
CLASS
  1
MATERIAL
  2
AcDbMaterial
  3
ObjectDBX Classes
 90
     1153
280
     0
281
     0
  0
CLASS
  1
SCALE
  2
AcDbScale
  3
ObjectDBX Classes
 90
     1153
280
     0
281
     0
  0
CLASS
  1
TABLESTYLE
  2
AcDbTableStyle
  3
ObjectDBX Classes
 90
     4095
280
     0
281
     0
  0
CLASS
  1
MLEADERSTYLE
  2
AcDbMLeaderStyle
  3
ACDB_MLEADERSTYLE_CLASS
 90
     4095
280
     0
281
     0
  0
CLASS
  1
SUN
  2
AcDbSun
  3
SCENEOE
 90
     1153
280
     0
281
     0
  0
CLASS
  1
DICTIONARYVAR
  2
AcDbDictionaryVar
  3
ObjectDBX Classes
 90
        0
280
     0
281
     0
  0
CLASS
  1
XRECORD
  2
AcDbXrecord
  3
ObjectDBX Classes
 90
        0
280
     0
281
     0
  0
CLASS
  1
LWPOLYLINE
  2
AcDbPolyline
  3
ObjectDBX Classes
 90
        0
280
     0
281
     1
  0
CLASS
  1
HATCH
  2
AcDbHatch
  3
ObjectDBX Classes
 90
        0
280
     0
281
     1
  0
CLASS
  1
ACDBPLACEHOLDER
  2
AcDbPlaceHolder
  3
ObjectDBX Classes
 90
        0
280
     0
281
     0
  0
CLASS
  1
LAYOUT
  2
AcDbLayout
  3
ObjectDBX Classes
 90
        0
280
     0
281
     0
  0
ENDSEC
  0
SECTION
  2
TABLES
  0
TABLE
  2
VPORT
  5
8
102
{ACAD_XDICTIONARY
360
374
102
}
330
0
100
AcDbSymbolTable
 70
     1
  0
VPORT
  5
29
330
8
100
AcDbSymbolTableRecord
100
AcDbViewportTableRecord
  2
*ACTIVE
 70
     0
 10
0.0
 20
0.0
 11
1.0
 21
1.0
 12
1219.280069250494
 22
1918.704499999992
 13
0.0
 23
0.0
 14
10.0
 24
10.0
 15
10.0
 25
10.0
 16
0.0
 26
0.0
 36
1.0
 17
0.0
 27
0.0
 37
0.0
 40
1138.779000000001
 41
2.097474697461914
 42
50.0
 43
0.0
 44
0.0
 50
0.0
 51
0.0
 71
     0
 72
   100
 73
     1
 74
     3
 75
     0
 76
     0
 77
     0
 78
     0
  0
ENDTAB
  0
TABLE
  2
LTYPE
  5
5
330
0
100
AcDbSymbolTable
 70
     2
  0
LTYPE
  5
14
330
5
100
AcDbSymbolTableRecord
100
AcDbLinetypeTableRecord
  2
BYBLOCK
 70
     0
  3

 72
    65
 73
     0
 40
0.0
  0
LTYPE
  5
15
330
5
100
AcDbSymbolTableRecord
100
AcDbLinetypeTableRecord
  2
BYLAYER
 70
     0
  3

 72
    65
 73
     0
 40
0.0
  0
LTYPE
  5
16
330
5
100
AcDbSymbolTableRecord
100
AcDbLinetypeTableRecord
  2
CONTINUOUS
 70
     0
  3
Solid line
 72
    65
 73
     0
 40
0.0
  0
LTYPE
  5
346
330
5
100
AcDbSymbolTableRecord
100
AcDbLinetypeTableRecord
  2
HIDDEN
 70
     0
  3
- - - - - - - - - - - - - - - - - - - - -
 72
    65
 73
     2
 40
9.524999999999999
 49
6.35
 74
     0
 49
-3.175
 74
     0
  0
ENDTAB
  0
TABLE
  2
LAYER
  5
2
330
0
100
AcDbSymbolTable
 70
     2
  0
LAYER
  5
10
330
2
100
AcDbSymbolTableRecord
100
AcDbLayerTableRecord
  2
0
 70
     0
 62
   253
  6
CONTINUOUS
  0
LAYER
  5
345
330
2
100
AcDbSymbolTableRecord
100
AcDbLayerTableRecord
  2
HIDDEN
 70
     0
 62
    58
  6
HIDDEN
  0
ENDTAB
  0
TABLE
  2
STYLE
  5
3
330
0
100
AcDbSymbolTable
 70
     1
  0
STYLE
  5
11
330
3
100
AcDbSymbolTableRecord
100
AcDbTextStyleTableRecord
  2
STANDARD
 70
     0
 40
0.0
 41
1.0
 50
0.0
 71
     0
 42
2.5
  3
txt
  4

  0
ENDTAB
  0
TABLE
  2
VIEW
  5
6
330
0
100
AcDbSymbolTable
 70
     0
  0
ENDTAB
  0
TABLE
  2
UCS
  5
7
330
0
100
AcDbSymbolTable
 70
     0
  0
ENDTAB
  0
TABLE
  2
APPID
  5
9
330
0
100
AcDbSymbolTable
 70
     2
  0
APPID
  5
12
330
9
100
AcDbSymbolTableRecord
100
AcDbRegAppTableRecord
  2
ACAD
 70
     0
  0
APPID
  5
37E
330
9
100
AcDbSymbolTableRecord
100
AcDbRegAppTableRecord
  2
ACAD_MLEADERVER
 70
     0
  0
ENDTAB
  0
TABLE
  2
DIMSTYLE
  5
A
330
0
100
AcDbSymbolTable
 70
     1
  0
DIMSTYLE
105
27
330
A
100
AcDbSymbolTableRecord
100
AcDbDimStyleTableRecord
  2
ISO-25
 70
     0
  3

  4

  5

  6

  7

 40
1.0
 41
2.5
 42
0.625
 43
3.75
 44
1.25
 45
0.0
 46
0.0
 47
0.0
 48
0.0
140
2.5
141
2.5
142
0.0
143
0.03937007874016
144
1.0
145
0.0
146
1.0
147
0.625
 71
     0
 72
     0
 73
     0
 74
     0
 75
     0
 76
     0
 77
     1
 78
     8
170
     0
171
     3
172
     1
173
     0
174
     0
175
     0
176
     0
177
     0
178
     0
270
     2
271
     2
272
     2
273
     2
274
     3
340
11
275
     0
280
     0
281
     0
282
     0
283
     0
284
     8
285
     0
286
     0
287
     3
288
     0
  0
ENDTAB
  0
TABLE
  2
BLOCK_RECORD
  5
1
330
0
100
AcDbSymbolTable
 70
     0
  0
BLOCK_RECORD
  5
1F
330
1
100
AcDbSymbolTableRecord
100
AcDbBlockTableRecord
  2
*MODEL_SPACE
  0
BLOCK_RECORD
  5
1B
330
1
100
AcDbSymbolTableRecord
100
AcDbBlockTableRecord
  2
*PAPER_SPACE
  0
ENDTAB
  0
ENDSEC
  0
SECTION
  2
BLOCKS
  0
BLOCK
  5
20
330
1F
100
AcDbEntity
  8
0
100
AcDbBlockBegin
  2
*MODEL_SPACE
 70
     0
 10
0.0
 20
0.0
 30
0.0
  3
*MODEL_SPACE
  1

  0
ENDBLK
  5
21
330
1F
100
AcDbEntity
  8
0
100
AcDbBlockEnd
  0
BLOCK
  5
1C
330
1B
100
AcDbEntity
 67
     1
  8
0
100
AcDbBlockBegin
  2
*PAPER_SPACE
 70
     0
 10
0.0
 20
0.0
 30
0.0
  3
*PAPER_SPACE
  1

  0
ENDBLK
  5
1D
330
1B
100
AcDbEntity
 67
     1
  8
0
100
AcDbBlockEnd
  0
ENDSEC
  0
SECTION
  2
ENTITIES
  0
CIRCLE
  5
5E
330
1F
100
AcDbEntity
  8
0
 62
    58
100
AcDbCircle
 10
-845.0000000000061
 20
2349.669999999998
 30
-0.0000000000076808
 40
4.249999999999976
210
-1.051101629436332E-16
220
-3.231085104332675E-15
230
-1.0
  0
CIRCLE
  5
5F
330
1F
100
AcDbEntity
  8
0
 62
    58
100
AcDbCircle
 10
845.0000000000059
 20
2254.669999999998
 30
0.0
 40
4.249999999999938
  0
CIRCLE
  5
60
330
1F
100
AcDbEntity
  8
0
 62
    58
100
AcDbCircle
 10
216.000000000004
 20
2275.970000000001
 30
0.0
 40
4.249999999999891
  0
CIRCLE
  5
61
330
1F
100
AcDbEntity
  8
0
 62
    58
100
AcDbCircle
 10
348.0000000000039
 20
2275.97
 30
0.0
 40
4.24999999999993
  0
CIRCLE
  5
62
330
1F
100
AcDbEntity
  8
0
 62
    58
100
AcDbCircle
 10
158.3645000000044
 20
2324.970000000002
 30
0.0
 40
4.249999999999833
  0
CIRCLE
  5
63
330
1F
100
AcDbEntity
  8
0
 62
    58
100
AcDbCircle
 10
142.8645000000046
 20
2433.67
 30
0.0
 40
4.24999999999993
  0
CIRCLE
  5
64
330
1F
100
AcDbEntity
  8
0
 62
    58
100
AcDbCircle
 10
139.0000000000058
 20
2174.33
 30
0.0
 40
4.24999999999993
  0
CIRCLE
  5
65
330
1F
100
AcDbEntity
  8
0
 62
    58
100
AcDbCircle
 10
139.000000000006
 20
2278.32
 30
0.0
 40
4.24999999999993
  0
ARC
  5
66
330
1F
100
AcDbEntity
  8
0
 62
    58
100
AcDbCircle
 10
191.7290000000029
 20
2442.67
 30
0.0
 40
29.99999999999999
100
AcDbArc
 50
359.9999999999998
 51
90.00000000000198
  0
CIRCLE
  5
67
330
1F
100
AcDbEntity
  8
0
 62
    58
100
AcDbCircle
 10
39.0000000000057
 20
2388.107618936679
 30
0.0
 40
6.500000000000003
  0
CIRCLE
  5
68
330
1F
100
AcDbEntity
  8
0
 62
    58
100
AcDbCircle
 10
-1474.000000000008
 20
2275.969999999997
 30
-0.0000000000075088
 40
4.249999999999891
210
-1.051101629436332E-16
220
-3.231085104332675E-15
230
-1.0
  0
CIRCLE
  5
69
330
1F
100
AcDbEntity
  8
0
 62
    58
100
AcDbCircle
 10
-1342.000000000008
 20
2275.969999999998
 30
-0.0000000000074949
 40
4.24999999999993
210
-1.051101629436332E-16
220
-3.231085104332675E-15
230
-1.0
  0
CIRCLE
  5
6A
330
1F
100
AcDbEntity
  8
0
 62
    58
100
AcDbCircle
 10
-1531.635500000007
 20
2324.969999999998
 30
-0.0000000000076732
 40
4.249999999999833
210
-1.051101629436332E-16
220
-3.231085104332675E-15
230
-1.0
  0
CIRCLE
  5
6B
330
1F
100
AcDbEntity
  8
0
 62
    58
100
AcDbCircle
 10
-1547.135500000008
 20
2433.669999999997
 30
-0.000000000008026
 40
4.24999999999993
210
-1.051101629436332E-16
220
-3.231085104332675E-15
230
-1.0
  0
CIRCLE
  5
6C
330
1F
100
AcDbEntity
  8
0
 62
    58
100
AcDbCircle
 10
-1551.000000000006
 20
2174.329999999997
 30
-0.0000000000071885
 40
4.24999999999993
210
-1.051101629436332E-16
220
-3.231085104332675E-15
230
-1.0
  0
CIRCLE
  5
6D
330
1F
100
AcDbEntity
  8
0
 62
    58
100
AcDbCircle
 10
-1551.000000000006
 20
2278.319999999997
 30
-0.0000000000075245
 40
4.24999999999993
210
-1.051101629436332E-16
220
-3.231085104332675E-15
230
-1.0
  0
ARC
  5
6E
330
1F
100
AcDbEntity
  8
0
 62
    58
100
AcDbCircle
 10
1498.27100000001
 20
2442.669999999997
 30
0.0
 40
29.99999999999999
100
AcDbArc
 50
89.99999999999929
 51
179.9999999999999
  0
CIRCLE
  5
6F
330
1F
100
AcDbEntity
  8
0
 62
    58
100
AcDbCircle
 10
-1651.000000000007
 20
2388.107618936675
 30
0.000000000000797
 40
6.500000000000003
210
-1.051101629436238E-16
220
4.064117357197161E-16
230
-1.0
  0
CIRCLE
  5
70
330
1F
100
AcDbEntity
  8
0
 62
    58
100
AcDbCircle
 10
-216.0000000000038
 20
2195.969999999999
 30
-0.0000000000071181
 40
4.249999999999891
210
-1.051101629436332E-16
220
-3.231085104332675E-15
230
-1.0
  0
CIRCLE
  5
71
330
1F
100
AcDbEntity
  8
0
 62
    58
100
AcDbCircle
 10
-1474.000000000008
 20
2195.969999999996
 30
-0.0000000000072503
 40
4.249999999999891
210
-1.051101629436332E-16
220
-3.231085104332675E-15
230
-1.0
  0
CIRCLE
  5
72
330
1F
100
AcDbEntity
  8
0
 62
    58
100
AcDbCircle
 10
-348.0000000000036
 20
2195.969999999998
 30
-0.0000000000071319
 40
4.24999999999993
210
-1.051101629436332E-16
220
-3.231085104332675E-15
230
-1.0
  0
CIRCLE
  5
73
330
1F
100
AcDbEntity
  8
0
 62
    58
100
AcDbCircle
 10
-1342.000000000008
 20
2195.969999999996
 30
-0.0000000000072364
 40
4.24999999999993
210
-1.051101629436332E-16
220
-3.231085104332675E-15
230
-1.0
  0
ARC
  5
74
330
1F
100
AcDbEntity
  8
0
 62
    58
100
AcDbCircle
 10
55.00000000000615
 20
2442.670000000001
 30
0.0
 40
29.99999999999998
100
AcDbArc
 50
89.99999999999797
 51
179.9999999999999
  0
ARC
  5
75
330
1F
100
AcDbEntity
  8
0
 62
    58
100
AcDbCircle
 10
55.00000000000549
 20
2174.670000000001
 30
0.0
 40
29.99999999999998
100
AcDbArc
 50
179.9999999999988
 51
269.9999999999998
  0
ARC
  5
76
330
1F
100
AcDbEntity
  8
0
 62
    58
100
AcDbCircle
 10
1635.000000000007
 20
2442.669999999996
 30
0.0
 40
29.99999999999998
100
AcDbArc
 50
359.9999999999987
 51
89.9999999999999
  0
ARC
  5
77
330
1F
100
AcDbEntity
  8
0
 62
    58
100
AcDbCircle
 10
1635.000000000006
 20
2174.669999999996
 30
0.0
 40
29.99999999999998
100
AcDbArc
 50
269.9999999999963
 51
359.9999999999998
  0
LINE
  5
78
330
1F
100
AcDbEntity
  8
0
 62
    58
100
AcDbLine
 10
1665.000000000006
 20
2174.669999999996
 30
0.0
 11
1665.000000000007
 21
2442.669999999996
 31
0.0
  0
LINE
  5
79
330
1F
100
AcDbEntity
  8
0
 62
    58
100
AcDbLine
 10
1635.000000000007
 20
2472.669999999996
 30
0.0
 11
1498.27100000001
 21
2472.669999999997
 31
0.0
  0
LINE
  5
7A
330
1F
100
AcDbEntity
  8
0
 62
    58
100
AcDbLine
 10
25.00000000000612
 20
2442.670000000001
 30
0.0
 11
25.00000000000546
 21
2174.670000000001
 31
0.0
  0
LINE
  5
7B
330
1F
100
AcDbEntity
  8
0
 62
    58
100
AcDbLine
 10
1468.27100000001
 20
2442.669999999997
 30
0.0
 11
1468.27100000001
 21
2424.669999999997
 31
0.0
  0
LINE
  5
7C
330
1F
100
AcDbEntity
  8
0
 62
    58
100
AcDbLine
 10
221.7290000000028
 20
2424.67
 30
0.0
 11
1468.27100000001
 21
2424.669999999997
 31
0.0
  0
LINE
  5
7D
330
1F
100
AcDbEntity
  8
0
 62
    58
100
AcDbLine
 10
221.7290000000028
 20
2442.67
 30
0.0
 11
221.7290000000028
 21
2424.67
 31
0.0
  0
LINE
  5
7E
330
1F
100
AcDbEntity
  8
0
 62
    58
100
AcDbLine
 10
55.00000000000615
 20
2472.670000000001
 30
0.0
 11
191.7290000000029
 21
2472.670000000001
 31
0.0
  0
LINE
  5
7F
330
1F
100
AcDbEntity
  8
0
 62
    58
100
AcDbLine
 10
1635.000000000006
 20
2144.669999999996
 30
0.0
 11
55.00000000000527
 21
2144.670000000001
 31
0.0
  0
LINE
  5
80
330
1F
100
AcDbEntity
  8
0
 62
    58
100
AcDbLine
 10
119.0000000000062
 20
2442.67
 30
0.0
 11
79.00000000000617
 21
2442.670000000001
 31
0.0
  0
LINE
  5
81
330
1F
100
AcDbEntity
  8
0
 62
    58
100
AcDbLine
 10
119.0000000000062
 20
2424.67
 30
0.0
 11
119.0000000000062
 21
2442.67
 31
0.0
  0
LINE
  5
82
330
1F
100
AcDbEntity
  8
0
 62
    58
100
AcDbLine
 10
79.00000000000617
 20
2424.670000000001
 30
0.0
 11
119.0000000000062
 21
2424.670000000001
 31
0.0
  0
LINE
  5
83
330
1F
100
AcDbEntity
  8
0
 62
    58
100
AcDbLine
 10
79.00000000000617
 20
2442.670000000001
 30
0.0
 11
79.00000000000617
 21
2424.670000000001
 31
0.0
  0
LINE
  5
84
330
1F
100
AcDbEntity
  8
0
 62
    58
100
AcDbLine
 10
191.7290000000029
 20
2333.97
 30
0.0
 11
191.7290000000027
 21
2315.970000000001
 31
0.0
  0
LINE
  5
85
330
1F
100
AcDbEntity
  8
0
 62
    58
100
AcDbLine
 10
221.7290000000028
 20
2333.97
 30
0.0
 11
191.7290000000031
 21
2333.97
 31
0.0
  0
LINE
  5
86
330
1F
100
AcDbEntity
  8
0
 62
    58
100
AcDbLine
 10
221.7290000000028
 20
2315.970000000001
 30
0.0
 11
221.7290000000029
 21
2333.97
 31
0.0
  0
LINE
  5
87
330
1F
100
AcDbEntity
  8
0
 62
    58
100
AcDbLine
 10
191.7290000000029
 20
2315.970000000001
 30
0.0
 11
221.7290000000028
 21
2315.970000000001
 31
0.0
  0
LINE
  5
88
330
1F
100
AcDbEntity
  8
0
 62
    58
100
AcDbLine
 10
196.7290000000031
 20
2442.67
 30
0.0
 11
166.729000000003
 21
2442.67
 31
0.0
  0
LINE
  5
89
330
1F
100
AcDbEntity
  8
0
 62
    58
100
AcDbLine
 10
196.7290000000031
 20
2424.67
 30
0.0
 11
196.7290000000031
 21
2442.67
 31
0.0
  0
LINE
  5
8A
330
1F
100
AcDbEntity
  8
0
 62
    58
100
AcDbLine
 10
166.7290000000032
 20
2424.67
 30
0.0
 11
196.7290000000031
 21
2424.67
 31
0.0
  0
LINE
  5
8B
330
1F
100
AcDbEntity
  8
0
 62
    58
100
AcDbLine
 10
166.7290000000032
 20
2442.67
 30
0.0
 11
166.7290000000032
 21
2424.67
 31
0.0
  0
LINE
  5
8C
330
1F
100
AcDbEntity
  8
0
 62
    58
100
AcDbLine
 10
130.0000000000059
 20
2254.67
 30
0.0
 11
130.0000000000057
 21
2194.670000000001
 31
0.0
  0
LINE
  5
8D
330
1F
100
AcDbEntity
  8
0
 62
    58
100
AcDbLine
 10
148.0000000000059
 20
2254.67
 30
0.0
 11
130.0000000000059
 21
2254.67
 31
0.0
  0
LINE
  5
8E
330
1F
100
AcDbEntity
  8
0
 62
    58
100
AcDbLine
 10
148.0000000000055
 20
2194.670000000001
 30
0.0
 11
148.0000000000057
 21
2254.67
 31
0.0
  0
LINE
  5
8F
330
1F
100
AcDbEntity
  8
0
 62
    58
100
AcDbLine
 10
130.0000000000057
 20
2194.670000000001
 30
0.0
 11
148.0000000000057
 21
2194.670000000001
 31
0.0
  0
LINE
  5
90
330
1F
100
AcDbEntity
  8
0
 62
    58
100
AcDbLine
 10
85.00000000000594
 20
2333.97
 30
0.0
 11
85.00000000000573
 21
2315.970000000001
 31
0.0
  0
LINE
  5
91
330
1F
100
AcDbEntity
  8
0
 62
    58
100
AcDbLine
 10
125.0000000000062
 20
2333.97
 30
0.0
 11
85.00000000000594
 21
2333.97
 31
0.0
  0
LINE
  5
92
330
1F
100
AcDbEntity
  8
0
 62
    58
100
AcDbLine
 10
125.000000000006
 20
2315.970000000001
 30
0.0
 11
125.0000000000062
 21
2333.97
 31
0.0
  0
LINE
  5
93
330
1F
100
AcDbEntity
  8
0
 62
    58
100
AcDbLine
 10
85.00000000000594
 20
2315.970000000001
 30
0.0
 11
125.000000000006
 21
2315.970000000001
 31
0.0
  0
LINE
  5
94
330
1F
100
AcDbEntity
  8
0
 62
    58
100
AcDbLine
 10
107.0000000000058
 20
2353.97
 30
0.0
 11
107.0000000000057
 21
2378.97
 31
0.0
  0
LINE
  5
95
330
1F
100
AcDbEntity
  8
0
 62
    58
100
AcDbLine
 10
107.0000000000057
 20
2378.97
 30
0.0
 11
125.0000000000058
 21
2378.97
 31
0.0
  0
LINE
  5
96
330
1F
100
AcDbEntity
  8
0
 62
    58
100
AcDbLine
 10
125.0000000000062
 20
2378.97
 30
0.0
 11
125.0000000000062
 21
2353.97
 31
0.0
  0
LINE
  5
97
330
1F
100
AcDbEntity
  8
0
 62
    58
100
AcDbLine
 10
125.0000000000058
 20
2353.97
 30
0.0
 11
107.0000000000058
 21
2353.97
 31
0.0
  0
LINE
  5
98
330
1F
100
AcDbEntity
  8
0
 62
    58
100
AcDbLine
 10
1611.000000000007
 20
2424.669999999996
 30
0.0
 11
1571.000000000007
 21
2424.669999999996
 31
0.0
  0
LINE
  5
99
330
1F
100
AcDbEntity
  8
0
 62
    58
100
AcDbLine
 10
1571.000000000007
 20
2424.669999999996
 30
0.0
 11
1571.000000000007
 21
2442.669999999996
 31
0.0
  0
LINE
  5
9A
330
1F
100
AcDbEntity
  8
0
 62
    58
100
AcDbLine
 10
1571.000000000007
 20
2442.669999999996
 30
0.0
 11
1611.000000000007
 21
2442.669999999996
 31
0.0
  0
LINE
  5
9B
330
1F
100
AcDbEntity
  8
0
 62
    58
100
AcDbLine
 10
1611.000000000007
 20
2442.669999999996
 30
0.0
 11
1611.000000000007
 21
2424.669999999996
 31
0.0
  0
LINE
  5
9C
330
1F
100
AcDbEntity
  8
0
 62
    58
100
AcDbLine
 10
1468.271000000009
 20
2315.969999999997
 30
0.0
 11
1468.271000000009
 21
2333.969999999997
 31
0.0
  0
LINE
  5
9D
330
1F
100
AcDbEntity
  8
0
 62
    58
100
AcDbLine
 10
1468.271000000009
 20
2333.969999999997
 30
0.0
 11
1498.271000000009
 21
2333.969999999997
 31
0.0
  0
LINE
  5
9E
330
1F
100
AcDbEntity
  8
0
 62
    58
100
AcDbLine
 10
1498.27100000001
 20
2333.969999999997
 30
0.0
 11
1498.27100000001
 21
2315.969999999997
 31
0.0
  0
LINE
  5
9F
330
1F
100
AcDbEntity
  8
0
 62
    58
100
AcDbLine
 10
1498.271000000009
 20
2315.969999999997
 30
0.0
 11
1468.271000000009
 21
2315.969999999997
 31
0.0
  0
LINE
  5
A0
330
1F
100
AcDbEntity
  8
0
 62
    58
100
AcDbLine
 10
1523.271000000009
 20
2424.669999999997
 30
0.0
 11
1493.27100000001
 21
2424.669999999997
 31
0.0
  0
LINE
  5
A1
330
1F
100
AcDbEntity
  8
0
 62
    58
100
AcDbLine
 10
1493.27100000001
 20
2424.669999999997
 30
0.0
 11
1493.27100000001
 21
2442.669999999997
 31
0.0
  0
LINE
  5
A2
330
1F
100
AcDbEntity
  8
0
 62
    58
100
AcDbLine
 10
1493.27100000001
 20
2442.669999999997
 30
0.0
 11
1523.27100000001
 21
2442.669999999997
 31
0.0
  0
LINE
  5
A3
330
1F
100
AcDbEntity
  8
0
 62
    58
100
AcDbLine
 10
1523.27100000001
 20
2442.669999999997
 30
0.0
 11
1523.271000000009
 21
2424.669999999997
 31
0.0
  0
LINE
  5
A4
330
1F
100
AcDbEntity
  8
0
 62
    58
100
AcDbLine
 10
1542.000000000006
 20
2194.669999999997
 30
0.0
 11
1542.000000000006
 21
2254.669999999997
 31
0.0
  0
LINE
  5
A5
330
1F
100
AcDbEntity
  8
0
 62
    58
100
AcDbLine
 10
1542.000000000006
 20
2254.669999999997
 30
0.0
 11
1560.000000000006
 21
2254.669999999997
 31
0.0
  0
LINE
  5
A6
330
1F
100
AcDbEntity
  8
0
 62
    58
100
AcDbLine
 10
1560.000000000006
 20
2254.669999999996
 30
0.0
 11
1560.000000000006
 21
2194.669999999996
 31
0.0
  0
LINE
  5
A7
330
1F
100
AcDbEntity
  8
0
 62
    58
100
AcDbLine
 10
1560.000000000006
 20
2194.669999999996
 30
0.0
 11
1542.000000000006
 21
2194.669999999996
 31
0.0
  0
LINE
  5
A8
330
1F
100
AcDbEntity
  8
0
 62
    58
100
AcDbLine
 10
1565.000000000006
 20
2315.969999999997
 30
0.0
 11
1565.000000000006
 21
2333.969999999996
 31
0.0
  0
LINE
  5
A9
330
1F
100
AcDbEntity
  8
0
 62
    58
100
AcDbLine
 10
1565.000000000006
 20
2333.969999999996
 30
0.0
 11
1605.000000000006
 21
2333.969999999996
 31
0.0
  0
LINE
  5
AA
330
1F
100
AcDbEntity
  8
0
 62
    58
100
AcDbLine
 10
1605.000000000006
 20
2333.969999999996
 30
0.0
 11
1605.000000000006
 21
2315.969999999997
 31
0.0
  0
LINE
  5
AB
330
1F
100
AcDbEntity
  8
0
 62
    58
100
AcDbLine
 10
1605.000000000006
 20
2315.969999999997
 30
0.0
 11
1565.000000000006
 21
2315.969999999997
 31
0.0
  0
LINE
  5
AC
330
1F
100
AcDbEntity
  8
0
 62
    58
100
AcDbLine
 10
1565.000000000006
 20
2378.969999999996
 30
0.0
 11
1565.000000000006
 21
2353.969999999996
 31
0.0
  0
LINE
  5
AD
330
1F
100
AcDbEntity
  8
0
 62
    58
100
AcDbLine
 10
1583.000000000007
 20
2378.969999999996
 30
0.0
 11
1565.000000000007
 21
2378.969999999996
 31
0.0
  0
LINE
  5
AE
330
1F
100
AcDbEntity
  8
0
 62
    58
100
AcDbLine
 10
1583.000000000007
 20
2353.969999999996
 30
0.0
 11
1583.000000000007
 21
2378.969999999996
 31
0.0
  0
LINE
  5
AF
330
1F
100
AcDbEntity
  8
0
 62
    58
100
AcDbLine
 10
1565.000000000007
 20
2353.969999999996
 30
0.0
 11
1583.000000000007
 21
2353.969999999996
 31
0.0
  0
LINE
  5
B0
330
1F
100
AcDbEntity
  8
0
 62
    58
100
AcDbLine
 10
854.0000000000065
 20
2369.669999999998
 30
0.0
 11
854.0000000000067
 21
2399.669999999998
 31
0.0
  0
LINE
  5
B1
330
1F
100
AcDbEntity
  8
0
 62
    58
100
AcDbLine
 10
854.0000000000065
 20
2369.669999999998
 30
0.0
 11
836.0000000000058
 21
2369.669999999998
 31
0.0
  0
LINE
  5
B2
330
1F
100
AcDbEntity
  8
0
 62
    58
100
AcDbLine
 10
836.0000000000058
 20
2369.669999999998
 30
0.0
 11
836.0000000000058
 21
2399.669999999998
 31
0.0
  0
LINE
  5
B3
330
1F
100
AcDbEntity
  8
0
 62
    58
100
AcDbLine
 10
836.0000000000057
 20
2399.669999999998
 30
0.0
 11
854.0000000000066
 21
2399.669999999998
 31
0.0
  0
LINE
  5
B4
330
1F
100
AcDbEntity
  8
0
 62
    58
100
AcDbLine
 10
854.0000000000057
 20
2204.669999999998
 30
0.0
 11
854.0000000000058
 21
2234.669999999998
 31
0.0
  0
LINE
  5
B5
330
1F
100
AcDbEntity
  8
0
 62
    58
100
AcDbLine
 10
854.0000000000057
 20
2204.669999999998
 30
0.0
 11
836.000000000006
 21
2204.669999999998
 31
0.0
  0
LINE
  5
B6
330
1F
100
AcDbEntity
  8
0
 62
    58
100
AcDbLine
 10
836.000000000006
 20
2204.669999999998
 30
0.0
 11
836.0000000000059
 21
2234.669999999998
 31
0.0
  0
LINE
  5
B7
330
1F
100
AcDbEntity
  8
0
 62
    58
100
AcDbLine
 10
836.0000000000059
 20
2234.669999999998
 30
0.0
 11
854.0000000000058
 21
2234.669999999998
 31
0.0
  0
LINE
  5
B8
330
1F
100
AcDbEntity
  8
0
 62
    58
100
AcDbLine
 10
386.000000000003
 20
1546.299999999999
 30
0.0
 11
426.0000000000031
 21
1546.299999999999
 31
0.0
  0
CIRCLE
  5
B9
330
1F
100
AcDbEntity
  8
0
 62
    58
100
AcDbCircle
 10
411.5000000000034
 20
1503.299999999999
 30
0.0
 40
4.249999999999995
  0
CIRCLE
  5
BA
330
1F
100
AcDbEntity
  8
0
 62
    58
100
AcDbCircle
 10
411.5000000000032
 20
1416.999999999999
 30
0.0
 40
4.249999999999989
  0
ARC
  5
BB
330
1F
100
AcDbEntity
  8
0
 62
    58
100
AcDbCircle
 10
46.60000000000331
 20
1394.2
 30
0.0
 40
1.600000000000002
100
AcDbArc
 50
0.000000000010992
 51
179.9999999999999
  0
ARC
  5
BC
330
1F
100
AcDbEntity
  8
0
 62
    58
100
AcDbCircle
 10
52.40000000000332
 20
1392.6
 30
0.0
 40
1.6
100
AcDbArc
 50
0.0000000000086002
 51
89.9999999999999
  0
ARC
  5
BD
330
1F
100
AcDbEntity
  8
0
 62
    58
100
AcDbCircle
 10
46.60000000000352
 20
1497.85
 30
0.0
 40
1.600000000000002
100
AcDbArc
 50
0.000000000010992
 51
179.9999999999999
  0
ARC
  5
BE
330
1F
100
AcDbEntity
  8
0
 62
    58
100
AcDbCircle
 10
52.40000000000356
 20
1496.25
 30
0.0
 40
1.6
100
AcDbArc
 50
0.0000000000080913
 51
89.9999999999999
  0
ARC
  5
BF
330
1F
100
AcDbEntity
  8
0
 62
    58
100
AcDbCircle
 10
52.40000000000356
 20
1485.05
 30
0.0
 40
1.6
100
AcDbArc
 50
269.9999999999939
 51
359.9999999999993
  0
ARC
  5
C0
330
1F
100
AcDbEntity
  8
0
 62
    58
100
AcDbCircle
 10
46.60000000000352
 20
1483.45
 30
0.0
 40
1.600000000000004
100
AcDbArc
 50
180.0000000000353
 51
359.9999999999994
  0
CIRCLE
  5
C1
330
1F
100
AcDbEntity
  8
0
 62
    58
100
AcDbCircle
 10
246.0000000000032
 20
1488.299999999999
 30
0.0
 40
4.24999999999993
  0
ARC
  5
C2
330
1F
100
AcDbEntity
  8
0
 62
    58
100
AcDbCircle
 10
52.40000000000332
 20
1381.4
 30
0.0
 40
1.6
100
AcDbArc
 50
269.9999999999935
 51
359.9999999999998
  0
ARC
  5
C3
330
1F
100
AcDbEntity
  8
0
 62
    58
100
AcDbCircle
 10
46.60000000000331
 20
1379.8
 30
0.0
 40
1.600000000000004
100
AcDbArc
 50
180.0000000000353
 51
359.9999999999999
  0
CIRCLE
  5
C4
330
1F
100
AcDbEntity
  8
0
 62
    58
100
AcDbCircle
 10
799.0000000000033
 20
1503.299999999998
 30
0.0
 40
4.249999999999995
  0
CIRCLE
  5
C5
330
1F
100
AcDbEntity
  8
0
 62
    58
100
AcDbCircle
 10
-799.0000000000033
 20
1416.999999999998
 30
-0.0000000000004854
 40
4.249999999999989
210
-1.051101629436260E-16
220
-2.832749226161497E-16
230
-1.0
  0
CIRCLE
  5
C6
330
1F
100
AcDbEntity
  8
0
 62
    58
100
AcDbCircle
 10
94.00000000000318
 20
1488.3
 30
0.0
 40
4.249999999999891
  0
CIRCLE
  5
C7
330
1F
100
AcDbEntity
  8
0
 62
    58
100
AcDbCircle
 10
246.000000000003
 20
1396.999999999999
 30
0.0
 40
4.24999999999993
  0
CIRCLE
  5
C8
330
1F
100
AcDbEntity
  8
0
 62
    58
100
AcDbCircle
 10
94.00000000000296
 20
1397.0
 30
0.0
 40
4.249999999999891
  0
CIRCLE
  5
C9
330
1F
100
AcDbEntity
  8
0
 62
    58
100
AcDbCircle
 10
-1186.500000000003
 20
1503.299999999997
 30
-0.0000000000005506
 40
4.249999999999995
210
-1.051101629436260E-16
220
-2.832749226161497E-16
230
-1.0
  0
CIRCLE
  5
CA
330
1F
100
AcDbEntity
  8
0
 62
    58
100
AcDbCircle
 10
-1186.500000000003
 20
1416.999999999997
 30
-0.0000000000005261
 40
4.249999999999989
210
-1.051101629436260E-16
220
-2.832749226161497E-16
230
-1.0
  0
ARC
  5
CB
330
1F
100
AcDbEntity
  8
0
 62
    58
100
AcDbCircle
 10
1551.400000000003
 20
1394.199999999996
 30
0.0
 40
1.600000000000002
100
AcDbArc
 50
359.9999999999999
 51
179.99999999998
  0
ARC
  5
CC
330
1F
100
AcDbEntity
  8
0
 62
    58
100
AcDbCircle
 10
1545.600000000003
 20
1392.599999999996
 30
0.0
 40
1.6
100
AcDbArc
 50
89.99999999999984
 51
179.9999999999921
  0
ARC
  5
CD
330
1F
100
AcDbEntity
  8
0
 62
    58
100
AcDbCircle
 10
1551.400000000004
 20
1497.849999999996
 30
0.0
 40
1.600000000000002
100
AcDbArc
 50
359.9999999999999
 51
179.99999999998
  0
ARC
  5
CE
330
1F
100
AcDbEntity
  8
0
 62
    58
100
AcDbCircle
 10
1545.600000000003
 20
1496.249999999997
 30
0.0
 40
1.6
100
AcDbArc
 50
89.99999999999984
 51
179.9999999999927
  0
ARC
  5
CF
330
1F
100
AcDbEntity
  8
0
 62
    58
100
AcDbCircle
 10
1545.600000000003
 20
1485.049999999996
 30
0.0
 40
1.6
100
AcDbArc
 50
180.0000000000004
 51
269.9999999999914
  0
ARC
  5
D0
330
1F
100
AcDbEntity
  8
0
 62
    58
100
AcDbCircle
 10
1551.400000000003
 20
1483.449999999996
 30
0.0
 40
1.600000000000004
100
AcDbArc
 50
180.0000000000004
 51
359.9999999999316
  0
CIRCLE
  5
D1
330
1F
100
AcDbEntity
  8
0
 62
    58
100
AcDbCircle
 10
-1352.000000000004
 20
1488.299999999997
 30
-0.0000000000005637
 40
4.24999999999993
210
-1.051101629436260E-16
220
-2.832749226161497E-16
230
-1.0
  0
ARC
  5
D2
330
1F
100
AcDbEntity
  8
0
 62
    58
100
AcDbCircle
 10
1545.600000000003
 20
1381.399999999996
 30
0.0
 40
1.6
100
AcDbArc
 50
179.9999999999999
 51
269.9999999999914
  0
ARC
  5
D3
330
1F
100
AcDbEntity
  8
0
 62
    58
100
AcDbCircle
 10
1551.400000000003
 20
1379.799999999997
 30
0.0
 40
1.600000000000004
100
AcDbArc
 50
179.9999999999999
 51
359.9999999999316
  0
CIRCLE
  5
D4
330
1F
100
AcDbEntity
  8
0
 62
    58
100
AcDbCircle
 10
-1504.000000000004
 20
1488.299999999997
 30
-0.0000000000005797
 40
4.249999999999891
210
-1.051101629436260E-16
220
-2.832749226161497E-16
230
-1.0
  0
CIRCLE
  5
D5
330
1F
100
AcDbEntity
  8
0
 62
    58
100
AcDbCircle
 10
-1352.000000000003
 20
1396.999999999997
 30
-0.0000000000005378
 40
4.24999999999993
210
-1.051101629436260E-16
220
-2.832749226161497E-16
230
-1.0
  0
CIRCLE
  5
D6
330
1F
100
AcDbEntity
  8
0
 62
    58
100
AcDbCircle
 10
-1504.000000000003
 20
1396.999999999997
 30
-0.0000000000005538
 40
4.249999999999891
210
-1.051101629436260E-16
220
-2.832749226161497E-16
230
-1.0
  0
CIRCLE
  5
D7
330
1F
100
AcDbEntity
  8
0
 62
    58
100
AcDbCircle
 10
851.0000000000033
 20
1416.999999999998
 30
0.0
 40
4.249999999999996
  0
CIRCLE
  5
D8
330
1F
100
AcDbEntity
  8
0
 62
    58
100
AcDbCircle
 10
851.0000000000035
 20
1476.999999999998
 30
0.0
 40
4.250000000000004
  0
CIRCLE
  5
D9
330
1F
100
AcDbEntity
  8
0
 62
    58
100
AcDbCircle
 10
747.0000000000032
 20
1416.999999999998
 30
0.0
 40
4.249999999999996
  0
CIRCLE
  5
DA
330
1F
100
AcDbEntity
  8
0
 62
    58
100
AcDbCircle
 10
747.0000000000034
 20
1476.999999999998
 30
0.0
 40
4.250000000000004
  0
CIRCLE
  5
DB
330
1F
100
AcDbEntity
  8
0
 62
    58
100
AcDbCircle
 10
1306.000000000003
 20
1416.999999999997
 30
0.0
 40
4.249999999999964
  0
CIRCLE
  5
DC
330
1F
100
AcDbEntity
  8
0
 62
    58
100
AcDbCircle
 10
1306.000000000001
 20
1476.999999999997
 30
0.0
 40
4.250000000000004
  0
CIRCLE
  5
DD
330
1F
100
AcDbEntity
  8
0
 62
    58
100
AcDbCircle
 10
292.0000000000053
 20
1476.999999999999
 30
0.0
 40
4.250000000000004
  0
CIRCLE
  5
DE
330
1F
100
AcDbEntity
  8
0
 62
    58
100
AcDbCircle
 10
292.0000000000032
 20
1416.999999999999
 30
0.0
 40
4.249999999999964
  0
LINE
  5
DF
330
1F
100
AcDbEntity
  8
0
 62
    58
100
AcDbLine
 10
1177.500000000004
 20
1440.999999999997
 30
0.0
 11
1195.500000000003
 21
1440.999999999997
 31
0.0
  0
LINE
  5
E0
330
1F
100
AcDbEntity
  8
0
 62
    58
100
AcDbLine
 10
1195.500000000004
 20
1440.999999999997
 30
0.0
 11
1195.500000000004
 21
1479.299999999997
 31
0.0
  0
LINE
  5
E1
330
1F
100
AcDbEntity
  8
0
 62
    58
100
AcDbLine
 10
1177.500000000004
 20
1479.299999999997
 30
0.0
 11
1177.500000000004
 21
1440.999999999997
 31
0.0
  0
LINE
  5
E2
330
1F
100
AcDbEntity
  8
0
 62
    58
100
AcDbLine
 10
1195.500000000003
 20
1479.299999999997
 30
0.0
 11
1177.500000000004
 21
1479.299999999997
 31
0.0
  0
LINE
  5
E3
330
1F
100
AcDbEntity
  8
0
 62
    58
100
AcDbLine
 10
808.0000000000034
 20
1440.999999999998
 30
0.0
 11
808.0000000000035
 21
1479.299999999998
 31
0.0
  0
LINE
  5
E4
330
1F
100
AcDbEntity
  8
0
 62
    58
100
AcDbLine
 10
819.0000000000035
 20
1528.299999999998
 30
0.0
 11
819.0000000000035
 21
1546.299999999998
 31
0.0
  0
LINE
  5
E5
330
1F
100
AcDbEntity
  8
0
 62
    58
100
AcDbLine
 10
1172.000000000004
 20
1528.299999999997
 30
0.0
 11
819.0000000000036
 21
1528.299999999998
 31
0.0
  0
LINE
  5
E6
330
1F
100
AcDbEntity
  8
0
 62
    58
100
AcDbLine
 10
1172.000000000004
 20
1546.299999999997
 30
0.0
 11
1172.000000000004
 21
1528.299999999997
 31
0.0
  0
LINE
  5
E7
330
1F
100
AcDbEntity
  8
0
 62
    58
100
AcDbLine
 10
1212.000000000004
 20
1528.299999999997
 30
0.0
 11
1212.000000000004
 21
1546.299999999997
 31
0.0
  0
LINE
  5
E8
330
1F
100
AcDbEntity
  8
0
 62
    58
100
AcDbLine
 10
1565.000000000003
 20
1528.299999999997
 30
0.0
 11
1212.000000000004
 21
1528.299999999997
 31
0.0
  0
LINE
  5
E9
330
1F
100
AcDbEntity
  8
0
 62
    58
100
AcDbLine
 10
1553.000000000003
 20
1382.999999999996
 30
0.0
 11
1565.000000000003
 21
1382.999999999996
 31
0.0
  0
LINE
  5
EA
330
1F
100
AcDbEntity
  8
0
 62
    58
100
AcDbLine
 10
1553.000000000003
 20
1379.799999999997
 30
0.0
 11
1553.000000000003
 21
1382.999999999996
 31
0.0
  0
LINE
  5
EB
330
1F
100
AcDbEntity
  8
0
 62
    58
100
AcDbLine
 10
1545.600000000003
 20
1379.799999999997
 30
0.0
 11
1549.800000000003
 21
1379.799999999997
 31
0.0
  0
LINE
  5
EC
330
1F
100
AcDbEntity
  8
0
 62
    58
100
AcDbLine
 10
1544.000000000003
 20
1392.599999999996
 30
0.0
 11
1544.000000000003
 21
1381.399999999996
 31
0.0
  0
LINE
  5
ED
330
1F
100
AcDbEntity
  8
0
 62
    58
100
AcDbLine
 10
1565.000000000003
 20
1406.999999999996
 30
0.0
 11
1565.000000000003
 21
1390.999999999996
 31
0.0
  0
LINE
  5
EE
330
1F
100
AcDbEntity
  8
0
 62
    58
100
AcDbLine
 10
1573.000000000003
 20
1406.999999999996
 30
0.0
 11
1565.000000000003
 21
1406.999999999996
 31
0.0
  0
LINE
  5
EF
330
1F
100
AcDbEntity
  8
0
 62
    58
100
AcDbLine
 10
1565.000000000003
 20
1382.999999999996
 30
0.0
 11
1565.000000000003
 21
1356.999999999996
 31
0.0
  0
LINE
  5
F0
330
1F
100
AcDbEntity
  8
0
 62
    58
100
AcDbLine
 10
1573.000000000003
 20
1466.999999999996
 30
0.0
 11
1573.000000000003
 21
1406.999999999996
 31
0.0
  0
LINE
  5
F1
330
1F
100
AcDbEntity
  8
0
 62
    58
100
AcDbLine
 10
1565.000000000003
 20
1466.999999999996
 30
0.0
 11
1573.000000000003
 21
1466.999999999996
 31
0.0
  0
LINE
  5
F2
330
1F
100
AcDbEntity
  8
0
 62
    58
100
AcDbLine
 10
1565.000000000003
 20
1486.649999999996
 30
0.0
 11
1565.000000000003
 21
1466.999999999996
 31
0.0
  0
LINE
  5
F3
330
1F
100
AcDbEntity
  8
0
 62
    58
100
AcDbLine
 10
1553.000000000003
 20
1486.649999999996
 30
0.0
 11
1565.000000000003
 21
1486.649999999996
 31
0.0
  0
LINE
  5
F4
330
1F
100
AcDbEntity
  8
0
 62
    58
100
AcDbLine
 10
1553.000000000003
 20
1483.449999999996
 30
0.0
 11
1553.000000000003
 21
1486.649999999996
 31
0.0
  0
LINE
  5
F5
330
1F
100
AcDbEntity
  8
0
 62
    58
100
AcDbLine
 10
1545.600000000003
 20
1483.449999999997
 30
0.0
 11
1549.800000000003
 21
1483.449999999997
 31
0.0
  0
LINE
  5
F6
330
1F
100
AcDbEntity
  8
0
 62
    58
100
AcDbLine
 10
1544.000000000003
 20
1496.249999999997
 30
0.0
 11
1544.000000000003
 21
1485.049999999996
 31
0.0
  0
LINE
  5
F7
330
1F
100
AcDbEntity
  8
0
 62
    58
100
AcDbLine
 10
1549.800000000003
 20
1497.849999999996
 30
0.0
 11
1545.600000000003
 21
1497.849999999996
 31
0.0
  0
LINE
  5
F8
330
1F
100
AcDbEntity
  8
0
 62
    58
100
AcDbLine
 10
1553.000000000003
 20
1494.649999999996
 30
0.0
 11
1553.000000000003
 21
1497.849999999996
 31
0.0
  0
LINE
  5
F9
330
1F
100
AcDbEntity
  8
0
 62
    58
100
AcDbLine
 10
1565.000000000003
 20
1494.649999999996
 30
0.0
 11
1553.000000000003
 21
1494.649999999996
 31
0.0
  0
LINE
  5
FA
330
1F
100
AcDbEntity
  8
0
 62
    58
100
AcDbLine
 10
1565.000000000003
 20
1528.299999999997
 30
0.0
 11
1565.000000000003
 21
1494.649999999996
 31
0.0
  0
LINE
  5
FB
330
1F
100
AcDbEntity
  8
0
 62
    58
100
AcDbLine
 10
1549.800000000003
 20
1394.199999999996
 30
0.0
 11
1545.600000000003
 21
1394.199999999996
 31
0.0
  0
LINE
  5
FC
330
1F
100
AcDbEntity
  8
0
 62
    58
100
AcDbLine
 10
1565.000000000003
 20
1390.999999999996
 30
0.0
 11
1553.000000000003
 21
1390.999999999996
 31
0.0
  0
LINE
  5
FD
330
1F
100
AcDbEntity
  8
0
 62
    58
100
AcDbLine
 10
1553.000000000003
 20
1390.999999999996
 30
0.0
 11
1553.000000000003
 21
1394.199999999996
 31
0.0
  0
LINE
  5
FE
330
1F
100
AcDbEntity
  8
0
 62
    58
100
AcDbLine
 10
1212.000000000004
 20
1546.299999999997
 30
0.0
 11
1172.000000000004
 21
1546.299999999997
 31
0.0
  0
LINE
  5
FF
330
1F
100
AcDbEntity
  8
0
 62
    58
100
AcDbLine
 10
33.00000000000324
 20
1383.0
 30
0.0
 11
33.00000000000325
 21
1357.0
 31
0.0
  0
LINE
  5
100
330
1F
100
AcDbEntity
  8
0
 62
    58
100
AcDbLine
 10
1565.000000000003
 20
1356.999999999996
 30
0.0
 11
33.00000000000325
 21
1357.0
 31
0.0
  0
LINE
  5
101
330
1F
100
AcDbEntity
  8
0
 62
    58
100
AcDbLine
 10
819.0000000000036
 20
1546.299999999998
 30
0.0
 11
779.0000000000035
 21
1546.299999999998
 31
0.0
  0
LINE
  5
102
330
1F
100
AcDbEntity
  8
0
 62
    58
100
AcDbLine
 10
779.0000000000034
 20
1528.299999999998
 30
0.0
 11
779.0000000000034
 21
1546.299999999998
 31
0.0
  0
LINE
  5
103
330
1F
100
AcDbEntity
  8
0
 62
    58
100
AcDbLine
 10
426.000000000003
 20
1528.299999999999
 30
0.0
 11
779.0000000000036
 21
1528.299999999998
 31
0.0
  0
LINE
  5
104
330
1F
100
AcDbEntity
  8
0
 62
    58
100
AcDbLine
 10
426.0000000000031
 20
1546.299999999999
 30
0.0
 11
426.000000000003
 21
1528.299999999999
 31
0.0
  0
LINE
  5
105
330
1F
100
AcDbEntity
  8
0
 62
    58
100
AcDbLine
 10
386.0000000000029
 20
1528.299999999999
 30
0.0
 11
386.000000000003
 21
1546.299999999999
 31
0.0
  0
LINE
  5
106
330
1F
100
AcDbEntity
  8
0
 62
    58
100
AcDbLine
 10
33.00000000000369
 20
1528.3
 30
0.0
 11
386.0000000000029
 21
1528.299999999999
 31
0.0
  0
LINE
  5
107
330
1F
100
AcDbEntity
  8
0
 62
    58
100
AcDbLine
 10
33.00000000000369
 20
1528.3
 30
0.0
 11
33.00000000000347
 21
1494.65
 31
0.0
  0
LINE
  5
108
330
1F
100
AcDbEntity
  8
0
 62
    58
100
AcDbLine
 10
33.00000000000347
 20
1494.65
 30
0.0
 11
45.00000000000347
 21
1494.65
 31
0.0
  0
LINE
  5
109
330
1F
100
AcDbEntity
  8
0
 62
    58
100
AcDbLine
 10
45.00000000000347
 20
1494.65
 30
0.0
 11
45.00000000000347
 21
1497.85
 31
0.0
  0
LINE
  5
10A
330
1F
100
AcDbEntity
  8
0
 62
    58
100
AcDbLine
 10
48.20000000000357
 20
1497.85
 30
0.0
 11
52.40000000000355
 21
1497.85
 31
0.0
  0
LINE
  5
10B
330
1F
100
AcDbEntity
  8
0
 62
    58
100
AcDbLine
 10
54.00000000000338
 20
1496.25
 30
0.0
 11
54.00000000000338
 21
1485.05
 31
0.0
  0
LINE
  5
10C
330
1F
100
AcDbEntity
  8
0
 62
    58
100
AcDbLine
 10
52.40000000000355
 20
1483.45
 30
0.0
 11
48.20000000000357
 21
1483.45
 31
0.0
  0
LINE
  5
10D
330
1F
100
AcDbEntity
  8
0
 62
    58
100
AcDbLine
 10
45.00000000000347
 20
1483.45
 30
0.0
 11
45.00000000000347
 21
1486.65
 31
0.0
  0
LINE
  5
10E
330
1F
100
AcDbEntity
  8
0
 62
    58
100
AcDbLine
 10
45.00000000000347
 20
1486.65
 30
0.0
 11
33.00000000000347
 21
1486.65
 31
0.0
  0
LINE
  5
10F
330
1F
100
AcDbEntity
  8
0
 62
    58
100
AcDbLine
 10
33.00000000000347
 20
1486.65
 30
0.0
 11
33.00000000000347
 21
1467.0
 31
0.0
  0
LINE
  5
110
330
1F
100
AcDbEntity
  8
0
 62
    58
100
AcDbLine
 10
33.00000000000347
 20
1467.0
 30
0.0
 11
25.00000000000346
 21
1467.0
 31
0.0
  0
LINE
  5
111
330
1F
100
AcDbEntity
  8
0
 62
    58
100
AcDbLine
 10
25.00000000000346
 20
1467.0
 30
0.0
 11
25.00000000000324
 21
1407.0
 31
0.0
  0
LINE
  5
112
330
1F
100
AcDbEntity
  8
0
 62
    58
100
AcDbLine
 10
25.00000000000324
 20
1407.0
 30
0.0
 11
33.00000000000325
 21
1407.0
 31
0.0
  0
LINE
  5
113
330
1F
100
AcDbEntity
  8
0
 62
    58
100
AcDbLine
 10
33.00000000000324
 20
1407.0
 30
0.0
 11
33.00000000000324
 21
1391.0
 31
0.0
  0
LINE
  5
114
330
1F
100
AcDbEntity
  8
0
 62
    58
100
AcDbLine
 10
33.00000000000325
 20
1391.0
 30
0.0
 11
45.00000000000326
 21
1391.0
 31
0.0
  0
LINE
  5
115
330
1F
100
AcDbEntity
  8
0
 62
    58
100
AcDbLine
 10
45.00000000000326
 20
1391.0
 30
0.0
 11
45.00000000000326
 21
1394.2
 31
0.0
  0
LINE
  5
116
330
1F
100
AcDbEntity
  8
0
 62
    58
100
AcDbLine
 10
48.20000000000335
 20
1394.2
 30
0.0
 11
52.40000000000333
 21
1394.2
 31
0.0
  0
LINE
  5
117
330
1F
100
AcDbEntity
  8
0
 62
    58
100
AcDbLine
 10
54.00000000000315
 20
1392.6
 30
0.0
 11
54.00000000000315
 21
1381.399999999999
 31
0.0
  0
LINE
  5
118
330
1F
100
AcDbEntity
  8
0
 62
    58
100
AcDbLine
 10
52.40000000000333
 20
1379.8
 30
0.0
 11
48.20000000000335
 21
1379.8
 31
0.0
  0
LINE
  5
119
330
1F
100
AcDbEntity
  8
0
 62
    58
100
AcDbLine
 10
45.00000000000326
 20
1379.8
 30
0.0
 11
45.00000000000325
 21
1383.0
 31
0.0
  0
LINE
  5
11A
330
1F
100
AcDbEntity
  8
0
 62
    58
100
AcDbLine
 10
45.00000000000325
 20
1383.0
 30
0.0
 11
33.00000000000324
 21
1383.0
 31
0.0
  0
LINE
  5
11B
330
1F
100
AcDbEntity
  8
0
 62
    58
100
AcDbLine
 10
808.0000000000032
 20
1440.999999999998
 30
0.0
 11
790.0000000000036
 21
1440.999999999998
 31
0.0
  0
LINE
  5
11C
330
1F
100
AcDbEntity
  8
0
 62
    58
100
AcDbLine
 10
790.0000000000034
 20
1440.999999999998
 30
0.0
 11
790.0000000000035
 21
1479.299999999998
 31
0.0
  0
LINE
  5
11D
330
1F
100
AcDbEntity
  8
0
 62
    58
100
AcDbLine
 10
808.0000000000032
 20
1479.299999999998
 30
0.0
 11
790.0000000000036
 21
1479.299999999998
 31
0.0
  0
LINE
  5
11E
330
1F
100
AcDbEntity
  8
0
 62
    58
100
AcDbLine
 10
420.5000000000032
 20
1479.299999999999
 30
0.0
 11
420.5000000000032
 21
1440.999999999999
 31
0.0
  0
LINE
  5
11F
330
1F
100
AcDbEntity
  8
0
 62
    58
100
AcDbLine
 10
420.5000000000032
 20
1440.999999999999
 30
0.0
 11
402.5000000000034
 21
1440.999999999999
 31
0.0
  0
LINE
  5
120
330
1F
100
AcDbEntity
  8
0
 62
    58
100
AcDbLine
 10
402.5000000000032
 20
1440.999999999999
 30
0.0
 11
402.5000000000032
 21
1479.299999999999
 31
0.0
  0
LINE
  5
121
330
1F
100
AcDbEntity
  8
0
 62
    58
100
AcDbLine
 10
402.5000000000034
 20
1479.299999999999
 30
0.0
 11
420.5000000000032
 21
1479.299999999999
 31
0.0
  0
CIRCLE
  5
122
330
1F
100
AcDbEntity
  8
0
 62
    58
100
AcDbCircle
 10
-845.0000000000053
 20
1989.899999999998
 30
-0.0000000000065184
 40
4.249999999999976
210
-1.051101629436332E-16
220
-3.231085104332675E-15
230
-1.0
  0
CIRCLE
  5
123
330
1F
100
AcDbEntity
  8
0
 62
    58
100
AcDbCircle
 10
845.0000000000051
 20
1894.899999999998
 30
0.0
 40
4.249999999999938
  0
CIRCLE
  5
124
330
1F
100
AcDbEntity
  8
0
 62
    58
100
AcDbCircle
 10
216.0000000000031
 20
1916.2
 30
0.0
 40
4.249999999999891
  0
CIRCLE
  5
125
330
1F
100
AcDbEntity
  8
0
 62
    58
100
AcDbCircle
 10
348.000000000003
 20
1916.2
 30
0.0
 40
4.24999999999993
  0
CIRCLE
  5
126
330
1F
100
AcDbEntity
  8
0
 62
    58
100
AcDbCircle
 10
158.3645000000038
 20
1965.200000000002
 30
0.0
 40
4.249999999999833
  0
CIRCLE
  5
127
330
1F
100
AcDbEntity
  8
0
 62
    58
100
AcDbCircle
 10
142.8645000000037
 20
2073.9
 30
0.0
 40
4.24999999999993
  0
CIRCLE
  5
128
330
1F
100
AcDbEntity
  8
0
 62
    58
100
AcDbCircle
 10
139.0000000000049
 20
1814.56
 30
0.0
 40
4.24999999999993
  0
CIRCLE
  5
129
330
1F
100
AcDbEntity
  8
0
 62
    58
100
AcDbCircle
 10
139.0000000000051
 20
1918.55
 30
0.0
 40
4.24999999999993
  0
ARC
  5
12A
330
1F
100
AcDbEntity
  8
0
 62
    58
100
AcDbCircle
 10
191.729000000002
 20
2082.9
 30
0.0
 40
29.99999999999999
100
AcDbArc
 50
359.9999999999998
 51
90.00000000000198
  0
CIRCLE
  5
12B
330
1F
100
AcDbEntity
  8
0
 62
    58
100
AcDbCircle
 10
39.00000000000481
 20
2028.337618936679
 30
0.0
 40
6.500000000000003
  0
CIRCLE
  5
12C
330
1F
100
AcDbEntity
  8
0
 62
    58
100
AcDbCircle
 10
-1474.000000000007
 20
1916.199999999997
 30
-0.0000000000063463
 40
4.249999999999891
210
-1.051101629436332E-16
220
-3.231085104332675E-15
230
-1.0
  0
CIRCLE
  5
12D
330
1F
100
AcDbEntity
  8
0
 62
    58
100
AcDbCircle
 10
-1342.000000000007
 20
1916.199999999997
 30
-0.0000000000063325
 40
4.24999999999993
210
-1.051101629436332E-16
220
-3.231085104332675E-15
230
-1.0
  0
CIRCLE
  5
12E
330
1F
100
AcDbEntity
  8
0
 62
    58
100
AcDbCircle
 10
-1531.635500000006
 20
1965.199999999998
 30
-0.0000000000065107
 40
4.249999999999833
210
-1.051101629436332E-16
220
-3.231085104332675E-15
230
-1.0
  0
CIRCLE
  5
12F
330
1F
100
AcDbEntity
  8
0
 62
    58
100
AcDbCircle
 10
-1547.135500000007
 20
2073.899999999997
 30
-0.0000000000068636
 40
4.24999999999993
210
-1.051101629436332E-16
220
-3.231085104332675E-15
230
-1.0
  0
CIRCLE
  5
130
330
1F
100
AcDbEntity
  8
0
 62
    58
100
AcDbCircle
 10
-1551.000000000005
 20
1814.559999999996
 30
-0.000000000006026
 40
4.24999999999993
210
-1.051101629436332E-16
220
-3.231085104332675E-15
230
-1.0
  0
CIRCLE
  5
131
330
1F
100
AcDbEntity
  8
0
 62
    58
100
AcDbCircle
 10
-1551.000000000005
 20
1918.549999999996
 30
-0.000000000006362
 40
4.24999999999993
210
-1.051101629436332E-16
220
-3.231085104332675E-15
230
-1.0
  0
ARC
  5
132
330
1F
100
AcDbEntity
  8
0
 62
    58
100
AcDbCircle
 10
1498.271000000009
 20
2082.899999999997
 30
0.0
 40
29.99999999999999
100
AcDbArc
 50
89.99999999999929
 51
179.9999999999999
  0
CIRCLE
  5
133
330
1F
100
AcDbEntity
  8
0
 62
    58
100
AcDbCircle
 10
-1651.000000000006
 20
2028.337618936675
 30
0.0000000000006508
 40
6.500000000000003
210
-1.051101629436238E-16
220
4.064117357197161E-16
230
-1.0
  0
CIRCLE
  5
134
330
1F
100
AcDbEntity
  8
0
 62
    58
100
AcDbCircle
 10
-216.0000000000028
 20
1836.199999999999
 30
-0.0000000000059556
 40
4.249999999999891
210
-1.051101629436332E-16
220
-3.231085104332675E-15
230
-1.0
  0
CIRCLE
  5
135
330
1F
100
AcDbEntity
  8
0
 62
    58
100
AcDbCircle
 10
-1474.000000000007
 20
1836.199999999996
 30
-0.0000000000060879
 40
4.249999999999891
210
-1.051101629436332E-16
220
-3.231085104332675E-15
230
-1.0
  0
CIRCLE
  5
136
330
1F
100
AcDbEntity
  8
0
 62
    58
100
AcDbCircle
 10
-348.0000000000027
 20
1836.199999999998
 30
-0.0000000000059695
 40
4.24999999999993
210
-1.051101629436332E-16
220
-3.231085104332675E-15
230
-1.0
  0
CIRCLE
  5
137
330
1F
100
AcDbEntity
  8
0
 62
    58
100
AcDbCircle
 10
-1342.000000000007
 20
1836.199999999996
 30
-0.000000000006074
 40
4.24999999999993
210
-1.051101629436332E-16
220
-3.231085104332675E-15
230
-1.0
  0
ARC
  5
138
330
1F
100
AcDbEntity
  8
0
 62
    58
100
AcDbCircle
 10
55.00000000000527
 20
2082.900000000001
 30
0.0
 40
29.99999999999998
100
AcDbArc
 50
89.99999999999797
 51
179.9999999999999
  0
ARC
  5
139
330
1F
100
AcDbEntity
  8
0
 62
    58
100
AcDbCircle
 10
55.0000000000046
 20
1814.9
 30
0.0
 40
29.99999999999998
100
AcDbArc
 50
180.0000000000008
 51
269.9999999999998
  0
ARC
  5
13A
330
1F
100
AcDbEntity
  8
0
 62
    58
100
AcDbCircle
 10
1635.000000000006
 20
2082.899999999996
 30
0.0
 40
29.99999999999998
100
AcDbArc
 50
359.9999999999987
 51
89.9999999999999
  0
ARC
  5
13B
330
1F
100
AcDbEntity
  8
0
 62
    58
100
AcDbCircle
 10
1635.000000000005
 20
1814.899999999996
 30
0.0
 40
29.99999999999998
100
AcDbArc
 50
270.0
 51
359.9999999999998
  0
LINE
  5
13C
330
1F
100
AcDbEntity
  8
0
 62
    58
100
AcDbLine
 10
1665.000000000005
 20
1814.899999999996
 30
0.0
 11
1665.000000000006
 21
2082.899999999996
 31
0.0
  0
LINE
  5
13D
330
1F
100
AcDbEntity
  8
0
 62
    58
100
AcDbLine
 10
1635.000000000006
 20
2112.899999999996
 30
0.0
 11
1498.271000000009
 21
2112.899999999996
 31
0.0
  0
LINE
  5
13E
330
1F
100
AcDbEntity
  8
0
 62
    58
100
AcDbLine
 10
25.00000000000524
 20
2082.900000000001
 30
0.0
 11
25.00000000000457
 21
1814.9
 31
0.0
  0
LINE
  5
13F
330
1F
100
AcDbEntity
  8
0
 62
    58
100
AcDbLine
 10
1468.271000000009
 20
2082.899999999997
 30
0.0
 11
1468.271000000009
 21
2064.899999999996
 31
0.0
  0
LINE
  5
140
330
1F
100
AcDbEntity
  8
0
 62
    58
100
AcDbLine
 10
221.7290000000019
 20
2064.9
 30
0.0
 11
1468.271000000009
 21
2064.899999999996
 31
0.0
  0
LINE
  5
141
330
1F
100
AcDbEntity
  8
0
 62
    58
100
AcDbLine
 10
221.7290000000021
 20
2082.9
 30
0.0
 11
221.7290000000019
 21
2064.9
 31
0.0
  0
LINE
  5
142
330
1F
100
AcDbEntity
  8
0
 62
    58
100
AcDbLine
 10
55.00000000000527
 20
2112.900000000001
 30
0.0
 11
191.729000000002
 21
2112.9
 31
0.0
  0
LINE
  5
143
330
1F
100
AcDbEntity
  8
0
 62
    58
100
AcDbLine
 10
1635.000000000005
 20
1784.899999999996
 30
0.0
 11
55.0000000000046
 21
1784.9
 31
0.0
  0
LINE
  5
144
330
1F
100
AcDbEntity
  8
0
 62
    58
100
AcDbLine
 10
119.0000000000053
 20
2082.9
 30
0.0
 11
79.00000000000529
 21
2082.900000000001
 31
0.0
  0
LINE
  5
145
330
1F
100
AcDbEntity
  8
0
 62
    58
100
AcDbLine
 10
119.0000000000053
 20
2064.9
 30
0.0
 11
119.0000000000053
 21
2082.9
 31
0.0
  0
LINE
  5
146
330
1F
100
AcDbEntity
  8
0
 62
    58
100
AcDbLine
 10
79.00000000000527
 20
2064.9
 30
0.0
 11
119.0000000000053
 21
2064.9
 31
0.0
  0
LINE
  5
147
330
1F
100
AcDbEntity
  8
0
 62
    58
100
AcDbLine
 10
79.00000000000529
 20
2082.900000000001
 30
0.0
 11
79.00000000000529
 21
2064.9
 31
0.0
  0
LINE
  5
148
330
1F
100
AcDbEntity
  8
0
 62
    58
100
AcDbLine
 10
191.729000000002
 20
1974.2
 30
0.0
 11
191.7290000000018
 21
1956.2
 31
0.0
  0
LINE
  5
149
330
1F
100
AcDbEntity
  8
0
 62
    58
100
AcDbLine
 10
221.7290000000019
 20
1974.2
 30
0.0
 11
191.7290000000023
 21
1974.2
 31
0.0
  0
LINE
  5
14A
330
1F
100
AcDbEntity
  8
0
 62
    58
100
AcDbLine
 10
221.7290000000019
 20
1956.2
 30
0.0
 11
221.7290000000019
 21
1974.2
 31
0.0
  0
LINE
  5
14B
330
1F
100
AcDbEntity
  8
0
 62
    58
100
AcDbLine
 10
191.729000000002
 20
1956.2
 30
0.0
 11
221.7290000000019
 21
1956.2
 31
0.0
  0
LINE
  5
14C
330
1F
100
AcDbEntity
  8
0
 62
    58
100
AcDbLine
 10
196.7290000000021
 20
2082.9
 30
0.0
 11
166.7290000000021
 21
2082.9
 31
0.0
  0
LINE
  5
14D
330
1F
100
AcDbEntity
  8
0
 62
    58
100
AcDbLine
 10
196.7290000000021
 20
2064.9
 30
0.0
 11
196.7290000000022
 21
2082.9
 31
0.0
  0
LINE
  5
14E
330
1F
100
AcDbEntity
  8
0
 62
    58
100
AcDbLine
 10
166.7290000000023
 20
2064.9
 30
0.0
 11
196.7290000000021
 21
2064.9
 31
0.0
  0
LINE
  5
14F
330
1F
100
AcDbEntity
  8
0
 62
    58
100
AcDbLine
 10
166.7290000000023
 20
2082.9
 30
0.0
 11
166.7290000000023
 21
2064.9
 31
0.0
  0
LINE
  5
150
330
1F
100
AcDbEntity
  8
0
 62
    58
100
AcDbLine
 10
130.000000000005
 20
1894.9
 30
0.0
 11
130.0000000000048
 21
1834.9
 31
0.0
  0
LINE
  5
151
330
1F
100
AcDbEntity
  8
0
 62
    58
100
AcDbLine
 10
148.000000000005
 20
1894.9
 30
0.0
 11
130.000000000005
 21
1894.9
 31
0.0
  0
LINE
  5
152
330
1F
100
AcDbEntity
  8
0
 62
    58
100
AcDbLine
 10
148.0000000000046
 20
1834.9
 30
0.0
 11
148.0000000000048
 21
1894.9
 31
0.0
  0
LINE
  5
153
330
1F
100
AcDbEntity
  8
0
 62
    58
100
AcDbLine
 10
130.0000000000048
 20
1834.9
 30
0.0
 11
148.0000000000048
 21
1834.9
 31
0.0
  0
LINE
  5
154
330
1F
100
AcDbEntity
  8
0
 62
    58
100
AcDbLine
 10
85.00000000000506
 20
1974.2
 30
0.0
 11
85.00000000000483
 21
1956.2
 31
0.0
  0
LINE
  5
155
330
1F
100
AcDbEntity
  8
0
 62
    58
100
AcDbLine
 10
125.0000000000053
 20
1974.2
 30
0.0
 11
85.00000000000507
 21
1974.2
 31
0.0
  0
LINE
  5
156
330
1F
100
AcDbEntity
  8
0
 62
    58
100
AcDbLine
 10
125.0000000000051
 20
1956.2
 30
0.0
 11
125.0000000000053
 21
1974.2
 31
0.0
  0
LINE
  5
157
330
1F
100
AcDbEntity
  8
0
 62
    58
100
AcDbLine
 10
85.00000000000506
 20
1956.2
 30
0.0
 11
125.0000000000051
 21
1956.2
 31
0.0
  0
LINE
  5
158
330
1F
100
AcDbEntity
  8
0
 62
    58
100
AcDbLine
 10
107.0000000000049
 20
1994.2
 30
0.0
 11
107.0000000000049
 21
2019.2
 31
0.0
  0
LINE
  5
159
330
1F
100
AcDbEntity
  8
0
 62
    58
100
AcDbLine
 10
107.0000000000049
 20
2019.2
 30
0.0
 11
125.0000000000049
 21
2019.2
 31
0.0
  0
LINE
  5
15A
330
1F
100
AcDbEntity
  8
0
 62
    58
100
AcDbLine
 10
125.0000000000053
 20
2019.2
 30
0.0
 11
125.0000000000053
 21
1994.2
 31
0.0
  0
LINE
  5
15B
330
1F
100
AcDbEntity
  8
0
 62
    58
100
AcDbLine
 10
125.0000000000049
 20
1994.2
 30
0.0
 11
107.0000000000049
 21
1994.2
 31
0.0
  0
LINE
  5
15C
330
1F
100
AcDbEntity
  8
0
 62
    58
100
AcDbLine
 10
1611.000000000006
 20
2064.899999999996
 30
0.0
 11
1571.000000000006
 21
2064.899999999996
 31
0.0
  0
LINE
  5
15D
330
1F
100
AcDbEntity
  8
0
 62
    58
100
AcDbLine
 10
1571.000000000006
 20
2064.899999999996
 30
0.0
 11
1571.000000000006
 21
2082.899999999996
 31
0.0
  0
LINE
  5
15E
330
1F
100
AcDbEntity
  8
0
 62
    58
100
AcDbLine
 10
1571.000000000006
 20
2082.899999999996
 30
0.0
 11
1611.000000000006
 21
2082.899999999996
 31
0.0
  0
LINE
  5
15F
330
1F
100
AcDbEntity
  8
0
 62
    58
100
AcDbLine
 10
1611.000000000006
 20
2082.899999999996
 30
0.0
 11
1611.000000000006
 21
2064.899999999996
 31
0.0
  0
LINE
  5
160
330
1F
100
AcDbEntity
  8
0
 62
    58
100
AcDbLine
 10
1468.271000000008
 20
1956.199999999997
 30
0.0
 11
1468.271000000008
 21
1974.199999999997
 31
0.0
  0
LINE
  5
161
330
1F
100
AcDbEntity
  8
0
 62
    58
100
AcDbLine
 10
1468.271000000009
 20
1974.199999999997
 30
0.0
 11
1498.271000000008
 21
1974.199999999997
 31
0.0
  0
LINE
  5
162
330
1F
100
AcDbEntity
  8
0
 62
    58
100
AcDbLine
 10
1498.271000000009
 20
1974.199999999997
 30
0.0
 11
1498.271000000009
 21
1956.199999999997
 31
0.0
  0
LINE
  5
163
330
1F
100
AcDbEntity
  8
0
 62
    58
100
AcDbLine
 10
1498.271000000008
 20
1956.199999999997
 30
0.0
 11
1468.271000000008
 21
1956.199999999997
 31
0.0
  0
LINE
  5
164
330
1F
100
AcDbEntity
  8
0
 62
    58
100
AcDbLine
 10
1523.271000000008
 20
2064.899999999996
 30
0.0
 11
1493.271000000009
 21
2064.899999999996
 31
0.0
  0
LINE
  5
165
330
1F
100
AcDbEntity
  8
0
 62
    58
100
AcDbLine
 10
1493.271000000009
 20
2064.899999999996
 30
0.0
 11
1493.271000000009
 21
2082.899999999997
 31
0.0
  0
LINE
  5
166
330
1F
100
AcDbEntity
  8
0
 62
    58
100
AcDbLine
 10
1493.271000000009
 20
2082.899999999997
 30
0.0
 11
1523.271000000009
 21
2082.899999999997
 31
0.0
  0
LINE
  5
167
330
1F
100
AcDbEntity
  8
0
 62
    58
100
AcDbLine
 10
1523.271000000009
 20
2082.899999999997
 30
0.0
 11
1523.271000000008
 21
2064.899999999996
 31
0.0
  0
LINE
  5
168
330
1F
100
AcDbEntity
  8
0
 62
    58
100
AcDbLine
 10
1542.000000000005
 20
1834.899999999996
 30
0.0
 11
1542.000000000005
 21
1894.899999999996
 31
0.0
  0
LINE
  5
169
330
1F
100
AcDbEntity
  8
0
 62
    58
100
AcDbLine
 10
1542.000000000005
 20
1894.899999999996
 30
0.0
 11
1560.000000000005
 21
1894.899999999996
 31
0.0
  0
LINE
  5
16A
330
1F
100
AcDbEntity
  8
0
 62
    58
100
AcDbLine
 10
1560.000000000005
 20
1894.899999999996
 30
0.0
 11
1560.000000000005
 21
1834.899999999996
 31
0.0
  0
LINE
  5
16B
330
1F
100
AcDbEntity
  8
0
 62
    58
100
AcDbLine
 10
1560.000000000005
 20
1834.899999999996
 30
0.0
 11
1542.000000000005
 21
1834.899999999996
 31
0.0
  0
LINE
  5
16C
330
1F
100
AcDbEntity
  8
0
 62
    58
100
AcDbLine
 10
1565.000000000005
 20
1956.199999999997
 30
0.0
 11
1565.000000000005
 21
1974.199999999996
 31
0.0
  0
LINE
  5
16D
330
1F
100
AcDbEntity
  8
0
 62
    58
100
AcDbLine
 10
1565.000000000005
 20
1974.199999999996
 30
0.0
 11
1605.000000000005
 21
1974.199999999996
 31
0.0
  0
LINE
  5
16E
330
1F
100
AcDbEntity
  8
0
 62
    58
100
AcDbLine
 10
1605.000000000005
 20
1974.199999999996
 30
0.0
 11
1605.000000000006
 21
1956.199999999996
 31
0.0
  0
LINE
  5
16F
330
1F
100
AcDbEntity
  8
0
 62
    58
100
AcDbLine
 10
1605.000000000005
 20
1956.199999999996
 30
0.0
 11
1565.000000000005
 21
1956.199999999996
 31
0.0
  0
LINE
  5
170
330
1F
100
AcDbEntity
  8
0
 62
    58
100
AcDbLine
 10
1565.000000000005
 20
2019.199999999996
 30
0.0
 11
1565.000000000005
 21
1994.199999999996
 31
0.0
  0
LINE
  5
171
330
1F
100
AcDbEntity
  8
0
 62
    58
100
AcDbLine
 10
1583.000000000006
 20
2019.199999999996
 30
0.0
 11
1565.000000000006
 21
2019.199999999996
 31
0.0
  0
LINE
  5
172
330
1F
100
AcDbEntity
  8
0
 62
    58
100
AcDbLine
 10
1583.000000000006
 20
1994.199999999996
 30
0.0
 11
1583.000000000006
 21
2019.199999999996
 31
0.0
  0
LINE
  5
173
330
1F
100
AcDbEntity
  8
0
 62
    58
100
AcDbLine
 10
1565.000000000006
 20
1994.199999999996
 30
0.0
 11
1583.000000000006
 21
1994.199999999996
 31
0.0
  0
LINE
  5
174
330
1F
100
AcDbEntity
  8
0
 62
    58
100
AcDbLine
 10
854.0000000000057
 20
2009.899999999998
 30
0.0
 11
854.0000000000059
 21
2039.899999999998
 31
0.0
  0
LINE
  5
175
330
1F
100
AcDbEntity
  8
0
 62
    58
100
AcDbLine
 10
854.0000000000057
 20
2009.899999999998
 30
0.0
 11
836.000000000005
 21
2009.899999999998
 31
0.0
  0
LINE
  5
176
330
1F
100
AcDbEntity
  8
0
 62
    58
100
AcDbLine
 10
836.000000000005
 20
2009.899999999998
 30
0.0
 11
836.000000000005
 21
2039.899999999998
 31
0.0
  0
LINE
  5
177
330
1F
100
AcDbEntity
  8
0
 62
    58
100
AcDbLine
 10
836.000000000005
 20
2039.899999999998
 30
0.0
 11
854.0000000000059
 21
2039.899999999998
 31
0.0
  0
LINE
  5
178
330
1F
100
AcDbEntity
  8
0
 62
    58
100
AcDbLine
 10
854.0000000000048
 20
1844.899999999998
 30
0.0
 11
854.0000000000049
 21
1874.899999999998
 31
0.0
  0
LINE
  5
179
330
1F
100
AcDbEntity
  8
0
 62
    58
100
AcDbLine
 10
854.0000000000048
 20
1844.899999999998
 30
0.0
 11
836.0000000000052
 21
1844.899999999998
 31
0.0
  0
LINE
  5
17A
330
1F
100
AcDbEntity
  8
0
 62
    58
100
AcDbLine
 10
836.0000000000052
 20
1844.899999999998
 30
0.0
 11
836.0000000000051
 21
1874.899999999998
 31
0.0
  0
LINE
  5
17B
330
1F
100
AcDbEntity
  8
0
 62
    58
100
AcDbLine
 10
836.0000000000051
 20
1874.899999999998
 30
0.0
 11
854.0000000000049
 21
1874.899999999998
 31
0.0
  0
LINE
  5
17C
330
1F
100
AcDbEntity
  8
0
 62
    58
100
AcDbLine
 10
386.0000000000036
 20
1765.53
 30
0.0
 11
426.0000000000036
 21
1765.53
 31
0.0
  0
CIRCLE
  5
17D
330
1F
100
AcDbEntity
  8
0
 62
    58
100
AcDbCircle
 10
411.500000000004
 20
1722.53
 30
0.0
 40
4.249999999999995
  0
CIRCLE
  5
17E
330
1F
100
AcDbEntity
  8
0
 62
    58
100
AcDbCircle
 10
411.5000000000038
 20
1636.229999999999
 30
0.0
 40
4.249999999999989
  0
ARC
  5
17F
330
1F
100
AcDbEntity
  8
0
 62
    58
100
AcDbCircle
 10
46.60000000000397
 20
1613.43
 30
0.0
 40
1.600000000000002
100
AcDbArc
 50
0.000000000010992
 51
179.9999999999999
  0
ARC
  5
180
330
1F
100
AcDbEntity
  8
0
 62
    58
100
AcDbCircle
 10
52.40000000000399
 20
1611.83
 30
0.0
 40
1.6
100
AcDbArc
 50
0.0000000000086002
 51
89.9999999999999
  0
ARC
  5
181
330
1F
100
AcDbEntity
  8
0
 62
    58
100
AcDbCircle
 10
46.60000000000419
 20
1717.08
 30
0.0
 40
1.600000000000002
100
AcDbArc
 50
0.000000000010992
 51
179.9999999999999
  0
ARC
  5
182
330
1F
100
AcDbEntity
  8
0
 62
    58
100
AcDbCircle
 10
52.40000000000421
 20
1715.48
 30
0.0
 40
1.6
100
AcDbArc
 50
0.0000000000080913
 51
89.9999999999999
  0
ARC
  5
183
330
1F
100
AcDbEntity
  8
0
 62
    58
100
AcDbCircle
 10
52.40000000000421
 20
1704.28
 30
0.0
 40
1.6
100
AcDbArc
 50
269.9999999999939
 51
359.9999999999993
  0
ARC
  5
184
330
1F
100
AcDbEntity
  8
0
 62
    58
100
AcDbCircle
 10
46.60000000000419
 20
1702.68
 30
0.0
 40
1.600000000000004
100
AcDbArc
 50
180.0000000000353
 51
359.9999999999994
  0
CIRCLE
  5
185
330
1F
100
AcDbEntity
  8
0
 62
    58
100
AcDbCircle
 10
246.0000000000036
 20
1707.53
 30
0.0
 40
4.24999999999993
  0
ARC
  5
186
330
1F
100
AcDbEntity
  8
0
 62
    58
100
AcDbCircle
 10
52.40000000000399
 20
1600.63
 30
0.0
 40
1.6
100
AcDbArc
 50
269.9999999999935
 51
359.9999999999998
  0
ARC
  5
187
330
1F
100
AcDbEntity
  8
0
 62
    58
100
AcDbCircle
 10
46.60000000000397
 20
1599.03
 30
0.0
 40
1.600000000000004
100
AcDbArc
 50
180.0000000000353
 51
359.9999999999999
  0
CIRCLE
  5
188
330
1F
100
AcDbEntity
  8
0
 62
    58
100
AcDbCircle
 10
799.0000000000038
 20
1722.529999999999
 30
0.0
 40
4.249999999999995
  0
CIRCLE
  5
189
330
1F
100
AcDbEntity
  8
0
 62
    58
100
AcDbCircle
 10
-799.0000000000039
 20
1636.229999999998
 30
-0.0000000000005475
 40
4.249999999999989
210
-1.051101629436260E-16
220
-2.832749226161497E-16
230
-1.0
  0
CIRCLE
  5
18A
330
1F
100
AcDbEntity
  8
0
 62
    58
100
AcDbCircle
 10
94.00000000000387
 20
1707.53
 30
0.0
 40
4.249999999999891
  0
CIRCLE
  5
18B
330
1F
100
AcDbEntity
  8
0
 62
    58
100
AcDbCircle
 10
246.0000000000034
 20
1616.23
 30
0.0
 40
4.24999999999993
  0
CIRCLE
  5
18C
330
1F
100
AcDbEntity
  8
0
 62
    58
100
AcDbCircle
 10
94.00000000000364
 20
1616.23
 30
0.0
 40
4.249999999999891
  0
CIRCLE
  5
18D
330
1F
100
AcDbEntity
  8
0
 62
    58
100
AcDbCircle
 10
-1186.500000000004
 20
1722.529999999998
 30
-0.0000000000006127
 40
4.249999999999995
210
-1.051101629436260E-16
220
-2.832749226161497E-16
230
-1.0
  0
CIRCLE
  5
18E
330
1F
100
AcDbEntity
  8
0
 62
    58
100
AcDbCircle
 10
-1186.500000000004
 20
1636.229999999998
 30
-0.0000000000005882
 40
4.249999999999989
210
-1.051101629436260E-16
220
-2.832749226161497E-16
230
-1.0
  0
ARC
  5
18F
330
1F
100
AcDbEntity
  8
0
 62
    58
100
AcDbCircle
 10
1551.400000000004
 20
1613.429999999997
 30
0.0
 40
1.600000000000002
100
AcDbArc
 50
359.9999999999999
 51
179.99999999998
  0
ARC
  5
190
330
1F
100
AcDbEntity
  8
0
 62
    58
100
AcDbCircle
 10
1545.600000000004
 20
1611.829999999997
 30
0.0
 40
1.6
100
AcDbArc
 50
89.99999999999984
 51
179.9999999999921
  0
ARC
  5
191
330
1F
100
AcDbEntity
  8
0
 62
    58
100
AcDbCircle
 10
1551.400000000004
 20
1717.079999999997
 30
0.0
 40
1.600000000000002
100
AcDbArc
 50
359.9999999999999
 51
179.99999999998
  0
ARC
  5
192
330
1F
100
AcDbEntity
  8
0
 62
    58
100
AcDbCircle
 10
1545.600000000004
 20
1715.479999999997
 30
0.0
 40
1.6
100
AcDbArc
 50
89.99999999999984
 51
179.9999999999927
  0
ARC
  5
193
330
1F
100
AcDbEntity
  8
0
 62
    58
100
AcDbCircle
 10
1545.600000000004
 20
1704.279999999997
 30
0.0
 40
1.6
100
AcDbArc
 50
180.0000000000004
 51
269.9999999999914
  0
ARC
  5
194
330
1F
100
AcDbEntity
  8
0
 62
    58
100
AcDbCircle
 10
1551.400000000004
 20
1702.679999999997
 30
0.0
 40
1.600000000000004
100
AcDbArc
 50
180.0000000000004
 51
359.9999999999316
  0
CIRCLE
  5
195
330
1F
100
AcDbEntity
  8
0
 62
    58
100
AcDbCircle
 10
-1352.000000000004
 20
1707.529999999997
 30
-0.0000000000006258
 40
4.24999999999993
210
-1.051101629436260E-16
220
-2.832749226161497E-16
230
-1.0
  0
ARC
  5
196
330
1F
100
AcDbEntity
  8
0
 62
    58
100
AcDbCircle
 10
1545.600000000004
 20
1600.629999999997
 30
0.0
 40
1.6
100
AcDbArc
 50
179.9999999999999
 51
269.9999999999914
  0
ARC
  5
197
330
1F
100
AcDbEntity
  8
0
 62
    58
100
AcDbCircle
 10
1551.400000000003
 20
1599.029999999997
 30
0.0
 40
1.600000000000004
100
AcDbArc
 50
179.9999999999999
 51
359.9999999999316
  0
CIRCLE
  5
198
330
1F
100
AcDbEntity
  8
0
 62
    58
100
AcDbCircle
 10
-1504.000000000004
 20
1707.529999999997
 30
-0.0000000000006418
 40
4.249999999999891
210
-1.051101629436260E-16
220
-2.832749226161497E-16
230
-1.0
  0
CIRCLE
  5
199
330
1F
100
AcDbEntity
  8
0
 62
    58
100
AcDbCircle
 10
-1352.000000000004
 20
1616.229999999997
 30
-0.0000000000005999
 40
4.24999999999993
210
-1.051101629436260E-16
220
-2.832749226161497E-16
230
-1.0
  0
CIRCLE
  5
19A
330
1F
100
AcDbEntity
  8
0
 62
    58
100
AcDbCircle
 10
-1504.000000000004
 20
1616.229999999997
 30
-0.0000000000006159
 40
4.249999999999891
210
-1.051101629436260E-16
220
-2.832749226161497E-16
230
-1.0
  0
CIRCLE
  5
19B
330
1F
100
AcDbEntity
  8
0
 62
    58
100
AcDbCircle
 10
851.0000000000039
 20
1636.229999999998
 30
0.0
 40
4.249999999999996
  0
CIRCLE
  5
19C
330
1F
100
AcDbEntity
  8
0
 62
    58
100
AcDbCircle
 10
851.000000000004
 20
1696.229999999998
 30
0.0
 40
4.250000000000004
  0
CIRCLE
  5
19D
330
1F
100
AcDbEntity
  8
0
 62
    58
100
AcDbCircle
 10
747.0000000000038
 20
1636.229999999998
 30
0.0
 40
4.249999999999996
  0
CIRCLE
  5
19E
330
1F
100
AcDbEntity
  8
0
 62
    58
100
AcDbCircle
 10
747.0000000000039
 20
1696.229999999999
 30
0.0
 40
4.250000000000004
  0
CIRCLE
  5
19F
330
1F
100
AcDbEntity
  8
0
 62
    58
100
AcDbCircle
 10
1306.000000000004
 20
1636.229999999997
 30
0.0
 40
4.249999999999964
  0
CIRCLE
  5
1A0
330
1F
100
AcDbEntity
  8
0
 62
    58
100
AcDbCircle
 10
1306.000000000002
 20
1696.229999999997
 30
0.0
 40
4.250000000000004
  0
CIRCLE
  5
1A1
330
1F
100
AcDbEntity
  8
0
 62
    58
100
AcDbCircle
 10
292.0000000000059
 20
1696.23
 30
0.0
 40
4.250000000000004
  0
CIRCLE
  5
1A2
330
1F
100
AcDbEntity
  8
0
 62
    58
100
AcDbCircle
 10
292.0000000000038
 20
1636.23
 30
0.0
 40
4.249999999999964
  0
LINE
  5
1A3
330
1F
100
AcDbEntity
  8
0
 62
    58
100
AcDbLine
 10
1177.500000000004
 20
1660.229999999998
 30
0.0
 11
1195.500000000004
 21
1660.229999999998
 31
0.0
  0
LINE
  5
1A4
330
1F
100
AcDbEntity
  8
0
 62
    58
100
AcDbLine
 10
1195.500000000004
 20
1660.229999999998
 30
0.0
 11
1195.500000000004
 21
1698.529999999998
 31
0.0
  0
LINE
  5
1A5
330
1F
100
AcDbEntity
  8
0
 62
    58
100
AcDbLine
 10
1177.500000000004
 20
1698.529999999998
 30
0.0
 11
1177.500000000004
 21
1660.229999999998
 31
0.0
  0
LINE
  5
1A6
330
1F
100
AcDbEntity
  8
0
 62
    58
100
AcDbLine
 10
1195.500000000004
 20
1698.529999999998
 30
0.0
 11
1177.500000000004
 21
1698.529999999998
 31
0.0
  0
LINE
  5
1A7
330
1F
100
AcDbEntity
  8
0
 62
    58
100
AcDbLine
 10
808.0000000000039
 20
1660.229999999998
 30
0.0
 11
808.000000000004
 21
1698.529999999999
 31
0.0
  0
LINE
  5
1A8
330
1F
100
AcDbEntity
  8
0
 62
    58
100
AcDbLine
 10
819.0000000000042
 20
1747.529999999998
 30
0.0
 11
819.0000000000041
 21
1765.529999999998
 31
0.0
  0
LINE
  5
1A9
330
1F
100
AcDbEntity
  8
0
 62
    58
100
AcDbLine
 10
1172.000000000005
 20
1747.529999999997
 30
0.0
 11
819.000000000004
 21
1747.529999999998
 31
0.0
  0
LINE
  5
1AA
330
1F
100
AcDbEntity
  8
0
 62
    58
100
AcDbLine
 10
1172.000000000005
 20
1765.529999999998
 30
0.0
 11
1172.000000000005
 21
1747.529999999997
 31
0.0
  0
LINE
  5
1AB
330
1F
100
AcDbEntity
  8
0
 62
    58
100
AcDbLine
 10
1212.000000000005
 20
1747.529999999997
 30
0.0
 11
1212.000000000005
 21
1765.529999999998
 31
0.0
  0
LINE
  5
1AC
330
1F
100
AcDbEntity
  8
0
 62
    58
100
AcDbLine
 10
1565.000000000004
 20
1747.529999999997
 30
0.0
 11
1212.000000000005
 21
1747.529999999997
 31
0.0
  0
LINE
  5
1AD
330
1F
100
AcDbEntity
  8
0
 62
    58
100
AcDbLine
 10
1553.000000000004
 20
1602.229999999997
 30
0.0
 11
1565.000000000004
 21
1602.229999999997
 31
0.0
  0
LINE
  5
1AE
330
1F
100
AcDbEntity
  8
0
 62
    58
100
AcDbLine
 10
1553.000000000003
 20
1599.029999999997
 30
0.0
 11
1553.000000000003
 21
1602.229999999997
 31
0.0
  0
LINE
  5
1AF
330
1F
100
AcDbEntity
  8
0
 62
    58
100
AcDbLine
 10
1545.600000000003
 20
1599.029999999997
 30
0.0
 11
1549.800000000003
 21
1599.029999999997
 31
0.0
  0
LINE
  5
1B0
330
1F
100
AcDbEntity
  8
0
 62
    58
100
AcDbLine
 10
1544.000000000004
 20
1611.829999999997
 30
0.0
 11
1544.000000000004
 21
1600.629999999997
 31
0.0
  0
LINE
  5
1B1
330
1F
100
AcDbEntity
  8
0
 62
    58
100
AcDbLine
 10
1565.000000000004
 20
1626.229999999997
 30
0.0
 11
1565.000000000004
 21
1610.229999999997
 31
0.0
  0
LINE
  5
1B2
330
1F
100
AcDbEntity
  8
0
 62
    58
100
AcDbLine
 10
1573.000000000004
 20
1626.229999999997
 30
0.0
 11
1565.000000000004
 21
1626.229999999997
 31
0.0
  0
LINE
  5
1B3
330
1F
100
AcDbEntity
  8
0
 62
    58
100
AcDbLine
 10
1565.000000000004
 20
1602.229999999997
 30
0.0
 11
1565.000000000004
 21
1576.229999999997
 31
0.0
  0
LINE
  5
1B4
330
1F
100
AcDbEntity
  8
0
 62
    58
100
AcDbLine
 10
1573.000000000004
 20
1686.229999999997
 30
0.0
 11
1573.000000000003
 21
1626.229999999997
 31
0.0
  0
LINE
  5
1B5
330
1F
100
AcDbEntity
  8
0
 62
    58
100
AcDbLine
 10
1565.000000000004
 20
1686.229999999997
 30
0.0
 11
1573.000000000004
 21
1686.229999999997
 31
0.0
  0
LINE
  5
1B6
330
1F
100
AcDbEntity
  8
0
 62
    58
100
AcDbLine
 10
1565.000000000004
 20
1705.879999999997
 30
0.0
 11
1565.000000000004
 21
1686.229999999997
 31
0.0
  0
LINE
  5
1B7
330
1F
100
AcDbEntity
  8
0
 62
    58
100
AcDbLine
 10
1553.000000000004
 20
1705.879999999997
 30
0.0
 11
1565.000000000004
 21
1705.879999999997
 31
0.0
  0
LINE
  5
1B8
330
1F
100
AcDbEntity
  8
0
 62
    58
100
AcDbLine
 10
1553.000000000004
 20
1702.679999999997
 30
0.0
 11
1553.000000000004
 21
1705.879999999997
 31
0.0
  0
LINE
  5
1B9
330
1F
100
AcDbEntity
  8
0
 62
    58
100
AcDbLine
 10
1545.600000000004
 20
1702.679999999997
 30
0.0
 11
1549.800000000004
 21
1702.679999999997
 31
0.0
  0
LINE
  5
1BA
330
1F
100
AcDbEntity
  8
0
 62
    58
100
AcDbLine
 10
1544.000000000004
 20
1715.479999999997
 30
0.0
 11
1544.000000000004
 21
1704.279999999997
 31
0.0
  0
LINE
  5
1BB
330
1F
100
AcDbEntity
  8
0
 62
    58
100
AcDbLine
 10
1549.800000000004
 20
1717.079999999997
 30
0.0
 11
1545.600000000004
 21
1717.079999999997
 31
0.0
  0
LINE
  5
1BC
330
1F
100
AcDbEntity
  8
0
 62
    58
100
AcDbLine
 10
1553.000000000004
 20
1713.879999999997
 30
0.0
 11
1553.000000000004
 21
1717.079999999997
 31
0.0
  0
LINE
  5
1BD
330
1F
100
AcDbEntity
  8
0
 62
    58
100
AcDbLine
 10
1565.000000000004
 20
1713.879999999997
 30
0.0
 11
1553.000000000004
 21
1713.879999999997
 31
0.0
  0
LINE
  5
1BE
330
1F
100
AcDbEntity
  8
0
 62
    58
100
AcDbLine
 10
1565.000000000004
 20
1747.529999999997
 30
0.0
 11
1565.000000000004
 21
1713.879999999997
 31
0.0
  0
LINE
  5
1BF
330
1F
100
AcDbEntity
  8
0
 62
    58
100
AcDbLine
 10
1549.800000000004
 20
1613.429999999997
 30
0.0
 11
1545.600000000004
 21
1613.429999999997
 31
0.0
  0
LINE
  5
1C0
330
1F
100
AcDbEntity
  8
0
 62
    58
100
AcDbLine
 10
1565.000000000004
 20
1610.229999999997
 30
0.0
 11
1553.000000000004
 21
1610.229999999997
 31
0.0
  0
LINE
  5
1C1
330
1F
100
AcDbEntity
  8
0
 62
    58
100
AcDbLine
 10
1553.000000000004
 20
1610.229999999997
 30
0.0
 11
1553.000000000004
 21
1613.429999999997
 31
0.0
  0
LINE
  5
1C2
330
1F
100
AcDbEntity
  8
0
 62
    58
100
AcDbLine
 10
1212.000000000005
 20
1765.529999999998
 30
0.0
 11
1172.000000000005
 21
1765.529999999998
 31
0.0
  0
LINE
  5
1C3
330
1F
100
AcDbEntity
  8
0
 62
    58
100
AcDbLine
 10
33.00000000000392
 20
1602.23
 30
0.0
 11
33.00000000000369
 21
1576.23
 31
0.0
  0
LINE
  5
1C4
330
1F
100
AcDbEntity
  8
0
 62
    58
100
AcDbLine
 10
1565.000000000003
 20
1576.229999999997
 30
0.0
 11
33.00000000000369
 21
1576.23
 31
0.0
  0
LINE
  5
1C5
330
1F
100
AcDbEntity
  8
0
 62
    58
100
AcDbLine
 10
819.0000000000042
 20
1765.529999999998
 30
0.0
 11
779.0000000000041
 21
1765.529999999998
 31
0.0
  0
LINE
  5
1C6
330
1F
100
AcDbEntity
  8
0
 62
    58
100
AcDbLine
 10
779.0000000000041
 20
1747.529999999998
 30
0.0
 11
779.000000000004
 21
1765.529999999998
 31
0.0
  0
LINE
  5
1C7
330
1F
100
AcDbEntity
  8
0
 62
    58
100
AcDbLine
 10
426.0000000000034
 20
1747.529999999999
 30
0.0
 11
779.0000000000041
 21
1747.529999999998
 31
0.0
  0
LINE
  5
1C8
330
1F
100
AcDbEntity
  8
0
 62
    58
100
AcDbLine
 10
426.0000000000036
 20
1765.529999999999
 30
0.0
 11
426.0000000000034
 21
1747.529999999999
 31
0.0
  0
LINE
  5
1C9
330
1F
100
AcDbEntity
  8
0
 62
    58
100
AcDbLine
 10
386.0000000000034
 20
1747.53
 30
0.0
 11
386.0000000000036
 21
1765.53
 31
0.0
  0
LINE
  5
1CA
330
1F
100
AcDbEntity
  8
0
 62
    58
100
AcDbLine
 10
33.00000000000414
 20
1747.53
 30
0.0
 11
386.0000000000035
 21
1747.53
 31
0.0
  0
LINE
  5
1CB
330
1F
100
AcDbEntity
  8
0
 62
    58
100
AcDbLine
 10
33.00000000000414
 20
1747.53
 30
0.0
 11
33.00000000000414
 21
1713.88
 31
0.0
  0
LINE
  5
1CC
330
1F
100
AcDbEntity
  8
0
 62
    58
100
AcDbLine
 10
33.00000000000414
 20
1713.88
 30
0.0
 11
45.00000000000415
 21
1713.88
 31
0.0
  0
LINE
  5
1CD
330
1F
100
AcDbEntity
  8
0
 62
    58
100
AcDbLine
 10
45.00000000000415
 20
1713.88
 30
0.0
 11
45.00000000000415
 21
1717.08
 31
0.0
  0
LINE
  5
1CE
330
1F
100
AcDbEntity
  8
0
 62
    58
100
AcDbLine
 10
48.20000000000424
 20
1717.08
 30
0.0
 11
52.40000000000422
 21
1717.08
 31
0.0
  0
LINE
  5
1CF
330
1F
100
AcDbEntity
  8
0
 62
    58
100
AcDbLine
 10
54.00000000000404
 20
1715.48
 30
0.0
 11
54.00000000000404
 21
1704.28
 31
0.0
  0
LINE
  5
1D0
330
1F
100
AcDbEntity
  8
0
 62
    58
100
AcDbLine
 10
52.40000000000422
 20
1702.68
 30
0.0
 11
48.20000000000424
 21
1702.68
 31
0.0
  0
LINE
  5
1D1
330
1F
100
AcDbEntity
  8
0
 62
    58
100
AcDbLine
 10
45.00000000000415
 20
1702.680000000001
 30
0.0
 11
45.00000000000414
 21
1705.88
 31
0.0
  0
LINE
  5
1D2
330
1F
100
AcDbEntity
  8
0
 62
    58
100
AcDbLine
 10
45.00000000000414
 20
1705.880000000001
 30
0.0
 11
33.00000000000413
 21
1705.880000000001
 31
0.0
  0
LINE
  5
1D3
330
1F
100
AcDbEntity
  8
0
 62
    58
100
AcDbLine
 10
33.00000000000413
 20
1705.880000000001
 30
0.0
 11
33.00000000000391
 21
1686.23
 31
0.0
  0
LINE
  5
1D4
330
1F
100
AcDbEntity
  8
0
 62
    58
100
AcDbLine
 10
33.00000000000391
 20
1686.23
 30
0.0
 11
25.0000000000039
 21
1686.23
 31
0.0
  0
LINE
  5
1D5
330
1F
100
AcDbEntity
  8
0
 62
    58
100
AcDbLine
 10
25.0000000000039
 20
1686.23
 30
0.0
 11
25.0000000000039
 21
1626.23
 31
0.0
  0
LINE
  5
1D6
330
1F
100
AcDbEntity
  8
0
 62
    58
100
AcDbLine
 10
25.0000000000039
 20
1626.23
 30
0.0
 11
33.00000000000391
 21
1626.23
 31
0.0
  0
LINE
  5
1D7
330
1F
100
AcDbEntity
  8
0
 62
    58
100
AcDbLine
 10
33.00000000000391
 20
1626.23
 30
0.0
 11
33.00000000000391
 21
1610.23
 31
0.0
  0
LINE
  5
1D8
330
1F
100
AcDbEntity
  8
0
 62
    58
100
AcDbLine
 10
33.00000000000392
 20
1610.23
 30
0.0
 11
45.00000000000392
 21
1610.23
 31
0.0
  0
LINE
  5
1D9
330
1F
100
AcDbEntity
  8
0
 62
    58
100
AcDbLine
 10
45.00000000000392
 20
1610.23
 30
0.0
 11
45.00000000000392
 21
1613.43
 31
0.0
  0
LINE
  5
1DA
330
1F
100
AcDbEntity
  8
0
 62
    58
100
AcDbLine
 10
48.20000000000402
 20
1613.43
 30
0.0
 11
52.400000000004
 21
1613.43
 31
0.0
  0
LINE
  5
1DB
330
1F
100
AcDbEntity
  8
0
 62
    58
100
AcDbLine
 10
54.00000000000382
 20
1611.83
 30
0.0
 11
54.00000000000382
 21
1600.63
 31
0.0
  0
LINE
  5
1DC
330
1F
100
AcDbEntity
  8
0
 62
    58
100
AcDbLine
 10
52.400000000004
 20
1599.03
 30
0.0
 11
48.20000000000402
 21
1599.03
 31
0.0
  0
LINE
  5
1DD
330
1F
100
AcDbEntity
  8
0
 62
    58
100
AcDbLine
 10
45.00000000000392
 20
1599.03
 30
0.0
 11
45.00000000000392
 21
1602.23
 31
0.0
  0
LINE
  5
1DE
330
1F
100
AcDbEntity
  8
0
 62
    58
100
AcDbLine
 10
45.00000000000392
 20
1602.23
 30
0.0
 11
33.00000000000392
 21
1602.23
 31
0.0
  0
LINE
  5
1DF
330
1F
100
AcDbEntity
  8
0
 62
    58
100
AcDbLine
 10
808.0000000000036
 20
1660.229999999998
 30
0.0
 11
790.000000000004
 21
1660.229999999998
 31
0.0
  0
LINE
  5
1E0
330
1F
100
AcDbEntity
  8
0
 62
    58
100
AcDbLine
 10
790.0000000000039
 20
1660.229999999998
 30
0.0
 11
790.0000000000039
 21
1698.529999999999
 31
0.0
  0
LINE
  5
1E1
330
1F
100
AcDbEntity
  8
0
 62
    58
100
AcDbLine
 10
808.0000000000038
 20
1698.529999999999
 30
0.0
 11
790.0000000000041
 21
1698.529999999999
 31
0.0
  0
LINE
  5
1E2
330
1F
100
AcDbEntity
  8
0
 62
    58
100
AcDbLine
 10
420.5000000000038
 20
1698.53
 30
0.0
 11
420.5000000000036
 21
1660.229999999999
 31
0.0
  0
LINE
  5
1E3
330
1F
100
AcDbEntity
  8
0
 62
    58
100
AcDbLine
 10
420.5000000000036
 20
1660.229999999999
 30
0.0
 11
402.5000000000039
 21
1660.229999999999
 31
0.0
  0
LINE
  5
1E4
330
1F
100
AcDbEntity
  8
0
 62
    58
100
AcDbLine
 10
402.5000000000036
 20
1660.229999999999
 30
0.0
 11
402.5000000000038
 21
1698.53
 31
0.0
  0
LINE
  5
1E5
330
1F
100
AcDbEntity
  8
0
 62
    58
100
AcDbLine
 10
402.500000000004
 20
1698.53
 30
0.0
 11
420.5000000000038
 21
1698.53
 31
0.0
  0
LINE
  5
1E6
330
1F
100
AcDbEntity
  8
0
 62
    58
100
AcDbLine
 10
1720.650138500986
 20
2284.368999999993
 30
0.0
 11
1720.650138500986
 21
2277.923999999995
 31
0.0
  0
ARC
  5
1E7
330
1F
100
AcDbEntity
  8
0
 62
    58
100
AcDbCircle
 10
1765.650138500986
 20
2277.923999999994
 30
0.0
 40
44.99999999999999
100
AcDbArc
 50
180.0000000000026
 51
269.9999999999999
  0
ARC
  5
1E8
330
1F
100
AcDbEntity
  8
0
 62
    58
100
AcDbCircle
 10
1765.650138500986
 20
2443.093999999992
 30
0.0
 40
44.99999999999999
100
AcDbArc
 50
89.99999999999984
 51
179.9999999999971
  0
LINE
  5
1E9
330
1F
100
AcDbEntity
  8
0
 62
    58
100
AcDbLine
 10
1759.650138500986
 20
2418.508999999995
 30
0.0
 11
1759.650138500986
 21
2436.648999999994
 31
0.0
  0
LINE
  5
1EA
330
1F
100
AcDbEntity
  8
0
 62
    58
100
AcDbLine
 10
1900.370138500986
 20
2488.093999999992
 30
0.0
 11
1765.650138500986
 21
2488.093999999993
 31
0.0
  0
LINE
  5
1EB
330
1F
100
AcDbEntity
  8
0
 62
    58
100
AcDbLine
 10
1720.650138500986
 20
2436.648999999995
 30
0.0
 11
1759.650138500986
 21
2436.648999999995
 31
0.0
  0
LINE
  5
1EC
330
1F
100
AcDbEntity
  8
0
 62
    58
100
AcDbLine
 10
1759.650138500986
 20
2418.508999999995
 30
0.0
 11
1720.650138500986
 21
2418.508999999995
 31
0.0
  0
LINE
  5
1ED
330
1F
100
AcDbEntity
  8
0
 62
    58
100
AcDbLine
 10
1882.370138500986
 20
2418.508999999994
 30
0.0
 11
1812.936997382693
 21
2418.508999999994
 31
0.0
  0
LINE
  5
1EE
330
1F
100
AcDbEntity
  8
0
 62
    58
100
AcDbLine
 10
1870.370138500986
 20
2449.537999989992
 30
0.0
 11
1882.370138500986
 21
2449.537999989992
 31
0.0
  0
LINE
  5
1EF
330
1F
100
AcDbEntity
  8
0
 62
    58
100
AcDbLine
 10
1870.370138500986
 20
2446.337999989992
 30
0.0
 11
1870.370138500986
 21
2449.537999989992
 31
0.0
  0
ARC
  5
1F0
330
1F
100
AcDbEntity
  8
0
 62
    58
100
AcDbCircle
 10
1868.770138500986
 20
2446.337999989992
 30
0.0
 40
1.599999999999989
100
AcDbArc
 50
179.9999999999999
 51
359.9999999999999
  0
LINE
  5
1F1
330
1F
100
AcDbEntity
  8
0
 62
    58
100
AcDbLine
 10
1861.370138500986
 20
2446.337999989992
 30
0.0
 11
1867.170138500986
 21
2446.337999989992
 31
0.0
  0
LINE
  5
1F2
330
1F
100
AcDbEntity
  8
0
 62
    58
100
AcDbLine
 10
1861.370138500986
 20
2460.737999989992
 30
0.0
 11
1861.370138500986
 21
2446.337999989992
 31
0.0
  0
LINE
  5
1F3
330
1F
100
AcDbEntity
  8
0
 62
    58
100
AcDbLine
 10
1867.170138500986
 20
2460.737999989992
 30
0.0
 11
1861.370138500986
 21
2460.737999989992
 31
0.0
  0
ARC
  5
1F4
330
1F
100
AcDbEntity
  8
0
 62
    58
100
AcDbCircle
 10
1868.770138500986
 20
2460.737999989992
 30
0.0
 40
1.600000000000015
100
AcDbArc
 50
359.9999999999999
 51
179.9999999999999
  0
LINE
  5
1F5
330
1F
100
AcDbEntity
  8
0
 62
    58
100
AcDbLine
 10
1870.370138500986
 20
2457.537999989992
 30
0.0
 11
1870.370138500986
 21
2460.737999989992
 31
0.0
  0
LINE
  5
1F6
330
1F
100
AcDbEntity
  8
0
 62
    58
100
AcDbLine
 10
1882.370138500986
 20
2457.537999989992
 30
0.0
 11
1870.370138500986
 21
2457.537999989992
 31
0.0
  0
LINE
  5
1F7
330
1F
100
AcDbEntity
  8
0
 62
    58
100
AcDbLine
 10
1882.370138500986
 20
2457.537999989992
 30
0.0
 11
1882.370138500986
 21
2468.537999989991
 31
0.0
  0
LINE
  5
1F8
330
1F
100
AcDbEntity
  8
0
 62
    58
100
AcDbLine
 10
1900.370138500986
 20
2468.537999989991
 30
0.0
 11
1882.370138500986
 21
2468.537999989991
 31
0.0
  0
LINE
  5
1F9
330
1F
100
AcDbEntity
  8
0
 62
    58
100
AcDbLine
 10
1900.370138500986
 20
2468.537999989991
 30
0.0
 11
1900.370138500986
 21
2488.093999999992
 31
0.0
  0
LINE
  5
1FA
330
1F
100
AcDbEntity
  8
0
 62
    58
100
AcDbLine
 10
1882.370138500986
 20
2418.508999999994
 30
0.0
 11
1882.370138500986
 21
2449.537999989992
 31
0.0
  0
LINE
  5
1FB
330
1F
100
AcDbEntity
  8
0
 62
    58
100
AcDbLine
 10
1720.650138500986
 20
2436.648999999995
 30
0.0
 11
1720.650138500986
 21
2443.093999999993
 31
0.0
  0
ARC
  5
1FC
330
1F
100
AcDbEntity
  8
0
 62
    58
100
AcDbCircle
 10
1812.936997382692
 20
2360.508999999993
 30
0.0
 40
57.99999999999997
100
AcDbArc
 50
89.99999999999984
 51
269.9999999999998
  0
LINE
  5
1FD
330
1F
100
AcDbEntity
  8
0
 62
    58
100
AcDbLine
 10
1882.370138500986
 20
2302.508999999994
 30
0.0
 11
1882.370138500986
 21
2271.480000009995
 31
0.0
  0
LINE
  5
1FE
330
1F
100
AcDbEntity
  8
0
 62
    58
100
AcDbLine
 10
1882.370138500986
 20
2302.508999999994
 30
0.0
 11
1812.936997382692
 21
2302.508999999994
 31
0.0
  0
LINE
  5
1FF
330
1F
100
AcDbEntity
  8
0
 62
    58
100
AcDbLine
 10
1720.650138500986
 20
2418.508999999995
 30
0.0
 11
1720.650138500986
 21
2302.508999999993
 31
0.0
  0
LINE
  5
200
330
1F
100
AcDbEntity
  8
0
 62
    58
100
AcDbLine
 10
1759.650138500986
 20
2302.508999999993
 30
0.0
 11
1720.650138500986
 21
2302.508999999993
 31
0.0
  0
LINE
  5
201
330
1F
100
AcDbEntity
  8
0
 62
    58
100
AcDbLine
 10
1759.650138500986
 20
2302.508999999993
 30
0.0
 11
1759.650138500986
 21
2284.368999999993
 31
0.0
  0
LINE
  5
202
330
1F
100
AcDbEntity
  8
0
 62
    58
100
AcDbLine
 10
1720.650138500986
 20
2284.368999999993
 30
0.0
 11
1759.650138500986
 21
2284.368999999993
 31
0.0
  0
LINE
  5
203
330
1F
100
AcDbEntity
  8
0
 62
    58
100
AcDbLine
 10
1900.370138500986
 20
2232.923999999995
 30
0.0
 11
1765.650138500986
 21
2232.923999999995
 31
0.0
  0
LINE
  5
204
330
1F
100
AcDbEntity
  8
0
 62
    58
100
AcDbLine
 10
1900.370138500986
 20
2252.480000009995
 30
0.0
 11
1900.370138500986
 21
2232.923999999995
 31
0.0
  0
LINE
  5
205
330
1F
100
AcDbEntity
  8
0
 62
    58
100
AcDbLine
 10
1900.370138500986
 20
2252.480000009995
 30
0.0
 11
1882.370138500985
 21
2252.480000009995
 31
0.0
  0
LINE
  5
206
330
1F
100
AcDbEntity
  8
0
 62
    58
100
AcDbLine
 10
1882.370138500986
 20
2263.480000009995
 30
0.0
 11
1882.370138500985
 21
2252.480000009995
 31
0.0
  0
LINE
  5
207
330
1F
100
AcDbEntity
  8
0
 62
    58
100
AcDbLine
 10
1882.370138500986
 20
2263.480000009995
 30
0.0
 11
1870.370138500986
 21
2263.480000009995
 31
0.0
  0
LINE
  5
208
330
1F
100
AcDbEntity
  8
0
 62
    58
100
AcDbLine
 10
1870.370138500986
 20
2263.480000009995
 30
0.0
 11
1870.370138500985
 21
2260.280000009995
 31
0.0
  0
ARC
  5
209
330
1F
100
AcDbEntity
  8
0
 62
    58
100
AcDbCircle
 10
1868.770138500986
 20
2260.280000009995
 30
0.0
 40
1.600000000000015
100
AcDbArc
 50
179.9999999999999
 51
359.9999999999999
  0
LINE
  5
20A
330
1F
100
AcDbEntity
  8
0
 62
    58
100
AcDbLine
 10
1867.170138500986
 20
2260.280000009995
 30
0.0
 11
1861.370138500986
 21
2260.280000009995
 31
0.0
  0
LINE
  5
20B
330
1F
100
AcDbEntity
  8
0
 62
    58
100
AcDbLine
 10
1861.370138500986
 20
2260.280000009995
 30
0.0
 11
1861.370138500986
 21
2274.680000009995
 31
0.0
  0
LINE
  5
20C
330
1F
100
AcDbEntity
  8
0
 62
    58
100
AcDbLine
 10
1861.370138500986
 20
2274.680000009995
 30
0.0
 11
1867.170138500986
 21
2274.680000009995
 31
0.0
  0
ARC
  5
20D
330
1F
100
AcDbEntity
  8
0
 62
    58
100
AcDbCircle
 10
1868.770138500986
 20
2274.680000009995
 30
0.0
 40
1.599999999999989
100
AcDbArc
 50
359.9999999999999
 51
179.9999999999999
  0
LINE
  5
20E
330
1F
100
AcDbEntity
  8
0
 62
    58
100
AcDbLine
 10
1870.370138500986
 20
2274.680000009995
 30
0.0
 11
1870.370138500986
 21
2271.480000009995
 31
0.0
  0
LINE
  5
20F
330
1F
100
AcDbEntity
  8
0
 62
    58
100
AcDbLine
 10
1870.370138500986
 20
2271.480000009995
 30
0.0
 11
1882.370138500986
 21
2271.480000009995
 31
0.0
  0
LINE
  5
210
330
1F
100
AcDbEntity
  8
0
 62
    58
100
AcDbLine
 10
1847.600138500985
 20
2086.877999989992
 30
0.0
 11
1847.600138500985
 21
2102.877999989992
 31
0.0
  0
ARC
  5
211
330
1F
100
AcDbEntity
  8
0
 62
    58
100
AcDbCircle
 10
1759.880138500985
 20
2081.877999989991
 30
0.0
 40
49.99999999999999
100
AcDbArc
 50
90.0000000000004
 51
179.9999999999998
  0
ARC
  5
212
330
1F
100
AcDbEntity
  8
0
 62
    58
100
AcDbCircle
 10
1759.880138500985
 20
1927.820000009995
 30
0.0
 40
49.99999999999999
100
AcDbArc
 50
179.9999999999982
 51
269.9999999999998
  0
CIRCLE
  5
213
330
1F
100
AcDbEntity
  8
0
 62
    58
100
AcDbCircle
 10
1746.880138500985
 20
2071.848999999993
 30
0.0
 40
4.25
  0
CIRCLE
  5
214
330
1F
100
AcDbEntity
  8
0
 62
    58
100
AcDbCircle
 10
1746.880138500985
 20
1937.848999999994
 30
0.0
 40
4.25
  0
CIRCLE
  5
215
330
1F
100
AcDbEntity
  8
0
 62
    58
100
AcDbCircle
 10
1790.166997382692
 20
2004.848999999993
 30
0.0
 40
41.0
  0
LINE
  5
216
330
1F
100
AcDbEntity
  8
0
 62
    58
100
AcDbLine
 10
1767.600138500985
 20
1928.848999999993
 30
0.0
 11
1767.600138500985
 21
1946.848999999993
 31
0.0
  0
LINE
  5
217
330
1F
100
AcDbEntity
  8
0
 62
    58
100
AcDbLine
 10
1811.880138500985
 20
1946.848999999993
 30
0.0
 11
1767.600138500985
 21
1946.848999999993
 31
0.0
  0
LINE
  5
218
330
1F
100
AcDbEntity
  8
0
 62
    58
100
AcDbLine
 10
1811.880138500985
 20
1946.848999999993
 30
0.0
 11
1811.880138500985
 21
1928.848999999993
 31
0.0
  0
LINE
  5
219
330
1F
100
AcDbEntity
  8
0
 62
    58
100
AcDbLine
 10
1811.880138500985
 20
1928.848999999993
 30
0.0
 11
1767.600138500985
 21
1928.848999999993
 31
0.0
  0
LINE
  5
21A
330
1F
100
AcDbEntity
  8
0
 62
    58
100
AcDbLine
 10
1767.600138500985
 20
2062.848999999993
 30
0.0
 11
1767.600138500985
 21
2080.848999999993
 31
0.0
  0
LINE
  5
21B
330
1F
100
AcDbEntity
  8
0
 62
    58
100
AcDbLine
 10
1767.600138500985
 20
2062.848999999993
 30
0.0
 11
1811.880138500985
 21
2062.848999999993
 31
0.0
  0
LINE
  5
21C
330
1F
100
AcDbEntity
  8
0
 62
    58
100
AcDbLine
 10
1811.880138500985
 20
2080.848999999993
 30
0.0
 11
1811.880138500985
 21
2062.848999999993
 31
0.0
  0
LINE
  5
21D
330
1F
100
AcDbEntity
  8
0
 62
    58
100
AcDbLine
 10
1767.600138500985
 20
2080.848999999993
 30
0.0
 11
1811.880138500985
 21
2080.848999999993
 31
0.0
  0
LINE
  5
21E
330
1F
100
AcDbEntity
  8
0
 62
    58
100
AcDbLine
 10
1759.880138500984
 20
1877.820000009995
 30
0.0
 11
1847.600138500984
 21
1877.820000009995
 31
0.0
  0
LINE
  5
21F
330
1F
100
AcDbEntity
  8
0
 62
    58
100
AcDbLine
 10
1847.600138500985
 20
1898.820000009995
 30
0.0
 11
1847.600138500984
 21
1877.820000009995
 31
0.0
  0
LINE
  5
220
330
1F
100
AcDbEntity
  8
0
 62
    58
100
AcDbLine
 10
1847.600138500985
 20
1898.820000009995
 30
0.0
 11
1835.600138500985
 21
1898.820000009995
 31
0.0
  0
LINE
  5
221
330
1F
100
AcDbEntity
  8
0
 62
    58
100
AcDbLine
 10
1835.600138500985
 20
1898.820000009995
 30
0.0
 11
1835.600138500984
 21
1895.620000009995
 31
0.0
  0
ARC
  5
222
330
1F
100
AcDbEntity
  8
0
 62
    58
100
AcDbCircle
 10
1834.000138500985
 20
1895.620000009995
 30
0.0
 40
1.599999999999999
100
AcDbArc
 50
179.9999999999998
 51
359.9999999999998
  0
LINE
  5
223
330
1F
100
AcDbEntity
  8
0
 62
    58
100
AcDbLine
 10
1832.400138500985
 20
1895.620000009995
 30
0.0
 11
1826.600138500985
 21
1895.620000009995
 31
0.0
  0
LINE
  5
224
330
1F
100
AcDbEntity
  8
0
 62
    58
100
AcDbLine
 10
1826.600138500985
 20
1895.620000009995
 30
0.0
 11
1826.600138500985
 21
1910.020000009995
 31
0.0
  0
LINE
  5
225
330
1F
100
AcDbEntity
  8
0
 62
    58
100
AcDbLine
 10
1826.600138500985
 20
1910.020000009995
 30
0.0
 11
1832.400138500985
 21
1910.020000009995
 31
0.0
  0
ARC
  5
226
330
1F
100
AcDbEntity
  8
0
 62
    58
100
AcDbCircle
 10
1834.000138500985
 20
1910.020000009995
 30
0.0
 40
1.6
100
AcDbArc
 50
359.9999999999998
 51
179.9999999999998
  0
LINE
  5
227
330
1F
100
AcDbEntity
  8
0
 62
    58
100
AcDbLine
 10
1835.600138500985
 20
1910.020000009995
 30
0.0
 11
1835.600138500985
 21
1906.820000009995
 31
0.0
  0
LINE
  5
228
330
1F
100
AcDbEntity
  8
0
 62
    58
100
AcDbLine
 10
1835.600138500985
 20
1906.820000009995
 30
0.0
 11
1847.600138500985
 21
1906.820000009995
 31
0.0
  0
LINE
  5
229
330
1F
100
AcDbEntity
  8
0
 62
    58
100
AcDbLine
 10
1847.600138500985
 20
1922.820000009995
 30
0.0
 11
1847.600138500985
 21
1906.820000009995
 31
0.0
  0
LINE
  5
22A
330
1F
100
AcDbEntity
  8
0
 62
    58
100
AcDbLine
 10
1865.600138500985
 20
1922.820000009995
 30
0.0
 11
1847.600138500985
 21
1922.820000009995
 31
0.0
  0
LINE
  5
22B
330
1F
100
AcDbEntity
  8
0
 62
    58
100
AcDbLine
 10
1865.600138500985
 20
1922.820000009995
 30
0.0
 11
1865.600138500985
 21
1957.820000009995
 31
0.0
  0
LINE
  5
22C
330
1F
100
AcDbEntity
  8
0
 62
    58
100
AcDbLine
 10
1865.600138500985
 20
1957.820000009995
 30
0.0
 11
1847.600138500985
 21
1957.820000009995
 31
0.0
  0
LINE
  5
22D
330
1F
100
AcDbEntity
  8
0
 62
    58
100
AcDbLine
 10
1847.600138500985
 20
1957.820000009995
 30
0.0
 11
1847.600138500985
 21
2051.877999989992
 31
0.0
  0
LINE
  5
22E
330
1F
100
AcDbEntity
  8
0
 62
    58
100
AcDbLine
 10
1865.600138500985
 20
2051.877999989992
 30
0.0
 11
1847.600138500985
 21
2051.877999989992
 31
0.0
  0
LINE
  5
22F
330
1F
100
AcDbEntity
  8
0
 62
    58
100
AcDbLine
 10
1865.600138500985
 20
2086.877999989992
 30
0.0
 11
1865.600138500985
 21
2051.877999989992
 31
0.0
  0
LINE
  5
230
330
1F
100
AcDbEntity
  8
0
 62
    58
100
AcDbLine
 10
1847.600138500985
 20
2086.877999989992
 30
0.0
 11
1865.600138500985
 21
2086.877999989992
 31
0.0
  0
LINE
  5
231
330
1F
100
AcDbEntity
  8
0
 62
    58
100
AcDbLine
 10
1835.600138500985
 20
2102.877999989992
 30
0.0
 11
1847.600138500985
 21
2102.877999989992
 31
0.0
  0
LINE
  5
232
330
1F
100
AcDbEntity
  8
0
 62
    58
100
AcDbLine
 10
1835.600138500985
 20
2099.677999989991
 30
0.0
 11
1835.600138500985
 21
2102.877999989992
 31
0.0
  0
ARC
  5
233
330
1F
100
AcDbEntity
  8
0
 62
    58
100
AcDbCircle
 10
1834.000138500985
 20
2099.677999989991
 30
0.0
 40
1.6
100
AcDbArc
 50
179.9999999999999
 51
359.9999999999999
  0
LINE
  5
234
330
1F
100
AcDbEntity
  8
0
 62
    58
100
AcDbLine
 10
1826.600138500985
 20
2099.677999989991
 30
0.0
 11
1832.400138500985
 21
2099.677999989991
 31
0.0
  0
LINE
  5
235
330
1F
100
AcDbEntity
  8
0
 62
    58
100
AcDbLine
 10
1826.600138500985
 20
2114.077999989991
 30
0.0
 11
1826.600138500985
 21
2099.677999989991
 31
0.0
  0
LINE
  5
236
330
1F
100
AcDbEntity
  8
0
 62
    58
100
AcDbLine
 10
1832.400138500985
 20
2114.077999989991
 30
0.0
 11
1826.600138500985
 21
2114.077999989991
 31
0.0
  0
ARC
  5
237
330
1F
100
AcDbEntity
  8
0
 62
    58
100
AcDbCircle
 10
1834.000138500985
 20
2114.077999989991
 30
0.0
 40
1.599999999999999
100
AcDbArc
 50
359.9999999999999
 51
179.9999999999999
  0
LINE
  5
238
330
1F
100
AcDbEntity
  8
0
 62
    58
100
AcDbLine
 10
1835.600138500985
 20
2110.877999989992
 30
0.0
 11
1835.600138500985
 21
2114.077999989991
 31
0.0
  0
LINE
  5
239
330
1F
100
AcDbEntity
  8
0
 62
    58
100
AcDbLine
 10
1847.600138500985
 20
2110.877999989992
 30
0.0
 11
1835.600138500985
 21
2110.877999989992
 31
0.0
  0
LINE
  5
23A
330
1F
100
AcDbEntity
  8
0
 62
    58
100
AcDbLine
 10
1847.600138500985
 20
2110.877999989992
 30
0.0
 11
1847.600138500985
 21
2131.877999989992
 31
0.0
  0
LINE
  5
23B
330
1F
100
AcDbEntity
  8
0
 62
    58
100
AcDbLine
 10
1759.880138500985
 20
2131.877999989992
 30
0.0
 11
1847.600138500985
 21
2131.877999989992
 31
0.0
  0
LINE
  5
23C
330
1F
100
AcDbEntity
  8
0
 62
    58
100
AcDbLine
 10
1709.880138500985
 20
1927.820000009995
 30
0.0
 11
1709.880138500985
 21
2081.877999989992
 31
0.0
  0
LINE
  5
23D
330
1F
100
AcDbEntity
  8
0
 62
    58
100
AcDbLine
 10
2073.420138500986
 20
2440.058999999992
 30
0.0
 11
2085.420138500986
 21
2440.058999999992
 31
0.0
  0
CIRCLE
  5
23E
330
1F
100
AcDbEntity
  8
0
 62
    58
100
AcDbCircle
 10
-2093.420138500988
 20
2470.643999999982
 30
0.0000000000038612
 40
6.499999999999999
210
-5.740872274359239E-15
220
6.427181690374810E-15
230
-1.0
  0
ARC
  5
23F
330
1F
100
AcDbEntity
  8
0
 62
    58
100
AcDbCircle
 10
1968.700138500987
 20
2440.643999999991
 30
0.0
 40
44.99999999999999
100
AcDbArc
 50
90.00000000000016
 51
179.9999999999999
  0
CIRCLE
  5
240
330
1F
100
AcDbEntity
  8
0
 62
    58
100
AcDbCircle
 10
2093.420138500987
 20
2245.473999999998
 30
0.0
 40
6.499999999999999
  0
ARC
  5
241
330
1F
100
AcDbEntity
  8
0
 62
    58
100
AcDbCircle
 10
1968.700138500987
 20
2275.47399999999
 30
0.0
 40
44.99999999999999
100
AcDbArc
 50
179.9999999999998
 51
269.9999999999996
  0
CIRCLE
  5
242
330
1F
100
AcDbEntity
  8
0
 62
    58
100
AcDbCircle
 10
-2007.700138500986
 20
2425.058999999992
 30
0.0000000000149295
 40
4.249999999999995
210
-3.271547678686408E-16
220
6.427181690374794E-15
230
-1.0
  0
CIRCLE
  5
243
330
1F
100
AcDbEntity
  8
0
 62
    58
100
AcDbCircle
 10
-2007.700138500986
 20
2291.058999999988
 30
0.0000000000140682
 40
4.249999999999995
210
-3.271547678686454E-16
220
6.427181690374793E-15
230
-1.0
  0
LINE
  5
244
330
1F
100
AcDbEntity
  8
0
 62
    58
100
AcDbLine
 10
1977.700138500987
 20
2282.05899999999
 30
0.0
 11
1977.700138500987
 21
2300.19899999999
 31
0.0
  0
LINE
  5
245
330
1F
100
AcDbEntity
  8
0
 62
    58
100
AcDbLine
 10
1947.700138500987
 20
2300.19899999999
 30
0.0
 11
1947.700138500987
 21
2282.05899999999
 31
0.0
  0
LINE
  5
246
330
1F
100
AcDbEntity
  8
0
 62
    58
100
AcDbLine
 10
1977.700138500987
 20
2300.19899999999
 30
0.0
 11
1947.700138500987
 21
2300.19899999999
 31
0.0
  0
LINE
  5
247
330
1F
100
AcDbEntity
  8
0
 62
    58
100
AcDbLine
 10
1947.700138500987
 20
2282.05899999999
 30
0.0
 11
1977.700138500987
 21
2282.05899999999
 31
0.0
  0
LINE
  5
248
330
1F
100
AcDbEntity
  8
0
 62
    58
100
AcDbLine
 10
2085.420138500985
 20
2260.473999999987
 30
0.0
 11
2085.420138500985
 21
2276.058999999987
 31
0.0
  0
LINE
  5
249
330
1F
100
AcDbEntity
  8
0
 62
    58
100
AcDbLine
 10
2085.420138500985
 20
2260.473999999987
 30
0.0
 11
2103.420138500984
 21
2260.473999999986
 31
0.0
  0
LINE
  5
24A
330
1F
100
AcDbEntity
  8
0
 62
    58
100
AcDbLine
 10
2103.420138500983
 20
2230.473999999986
 30
0.0
 11
2103.420138500984
 21
2260.473999999986
 31
0.0
  0
LINE
  5
24B
330
1F
100
AcDbEntity
  8
0
 62
    58
100
AcDbLine
 10
2103.420138500983
 20
2230.473999999986
 30
0.0
 11
1968.700138500986
 21
2230.47399999999
 31
0.0
  0
LINE
  5
24C
330
1F
100
AcDbEntity
  8
0
 62
    58
100
AcDbLine
 10
2015.986997382692
 20
2300.058999999989
 30
0.0
 11
2085.420138500986
 21
2300.058999999987
 31
0.0
  0
LINE
  5
24D
330
1F
100
AcDbEntity
  8
0
 62
    58
100
AcDbLine
 10
2085.420138500985
 20
2284.058999999987
 30
0.0
 11
2085.420138500986
 21
2300.058999999987
 31
0.0
  0
LINE
  5
24E
330
1F
100
AcDbEntity
  8
0
 62
    58
100
AcDbLine
 10
2085.420138500985
 20
2284.058999999987
 30
0.0
 11
2073.420138500985
 21
2284.058999999988
 31
0.0
  0
LINE
  5
24F
330
1F
100
AcDbEntity
  8
0
 62
    58
100
AcDbLine
 10
2073.420138500985
 20
2284.058999999988
 30
0.0
 11
2073.420138500985
 21
2287.258999999988
 31
0.0
  0
ARC
  5
250
330
1F
100
AcDbEntity
  8
0
 62
    58
100
AcDbCircle
 10
2071.820138500986
 20
2287.258999999988
 30
0.0
 40
1.599999999999999
100
AcDbArc
 50
359.9999999999983
 51
179.9999999999983
  0
LINE
  5
251
330
1F
100
AcDbEntity
  8
0
 62
    58
100
AcDbLine
 10
2070.220138500986
 20
2287.258999999988
 30
0.0
 11
2064.420138500986
 21
2287.258999999988
 31
0.0
  0
LINE
  5
252
330
1F
100
AcDbEntity
  8
0
 62
    58
100
AcDbLine
 10
2064.420138500986
 20
2287.258999999988
 30
0.0
 11
2064.420138500985
 21
2272.858999999988
 31
0.0
  0
LINE
  5
253
330
1F
100
AcDbEntity
  8
0
 62
    58
100
AcDbLine
 10
2064.420138500985
 20
2272.858999999988
 30
0.0
 11
2070.220138500985
 21
2272.858999999988
 31
0.0
  0
ARC
  5
254
330
1F
100
AcDbEntity
  8
0
 62
    58
100
AcDbCircle
 10
2071.820138500985
 20
2272.858999999988
 30
0.0
 40
1.600000000000007
100
AcDbArc
 50
179.9999999999983
 51
359.9999999999983
  0
LINE
  5
255
330
1F
100
AcDbEntity
  8
0
 62
    58
100
AcDbLine
 10
2073.420138500985
 20
2272.858999999988
 30
0.0
 11
2073.420138500985
 21
2276.058999999988
 31
0.0
  0
LINE
  5
256
330
1F
100
AcDbEntity
  8
0
 62
    58
100
AcDbLine
 10
2073.420138500985
 20
2276.058999999988
 30
0.0
 11
2085.420138500985
 21
2276.058999999987
 31
0.0
  0
ARC
  5
257
330
1F
100
AcDbEntity
  8
0
 62
    58
100
AcDbCircle
 10
2015.986997382694
 20
2358.058999999991
 30
0.0
 40
57.99999999999997
100
AcDbArc
 50
90.00000000000139
 51
269.9999999999983
  0
LINE
  5
258
330
1F
100
AcDbEntity
  8
0
 62
    58
100
AcDbLine
 10
1923.700138500988
 20
2440.643999999991
 30
0.0
 11
1923.700138500987
 21
2275.47399999999
 31
0.0
  0
LINE
  5
259
330
1F
100
AcDbEntity
  8
0
 62
    58
100
AcDbLine
 10
2015.986997382692
 20
2416.05899999999
 30
0.0
 11
2085.420138500986
 21
2416.058999999992
 31
0.0
  0
LINE
  5
25A
330
1F
100
AcDbEntity
  8
0
 62
    58
100
AcDbLine
 10
2085.420138500986
 20
2432.058999999992
 30
0.0
 11
2085.420138500986
 21
2416.058999999992
 31
0.0
  0
LINE
  5
25B
330
1F
100
AcDbEntity
  8
0
 62
    58
100
AcDbLine
 10
2085.420138500986
 20
2432.058999999992
 30
0.0
 11
2073.420138500986
 21
2432.058999999992
 31
0.0
  0
LINE
  5
25C
330
1F
100
AcDbEntity
  8
0
 62
    58
100
AcDbLine
 10
2073.420138500986
 20
2432.058999999992
 30
0.0
 11
2073.420138500986
 21
2428.858999999992
 31
0.0
  0
ARC
  5
25D
330
1F
100
AcDbEntity
  8
0
 62
    58
100
AcDbCircle
 10
2071.820138500986
 20
2428.858999999992
 30
0.0
 40
1.599999999999999
100
AcDbArc
 50
180.0000000000014
 51
0.0000000000014117
  0
LINE
  5
25E
330
1F
100
AcDbEntity
  8
0
 62
    58
100
AcDbLine
 10
2070.220138500986
 20
2428.858999999992
 30
0.0
 11
2064.420138500986
 21
2428.858999999992
 31
0.0
  0
LINE
  5
25F
330
1F
100
AcDbEntity
  8
0
 62
    58
100
AcDbLine
 10
2064.420138500986
 20
2428.858999999992
 30
0.0
 11
2064.420138500985
 21
2443.258999999992
 31
0.0
  0
LINE
  5
260
330
1F
100
AcDbEntity
  8
0
 62
    58
100
AcDbLine
 10
2064.420138500985
 20
2443.258999999992
 30
0.0
 11
2070.220138500985
 21
2443.258999999992
 31
0.0
  0
ARC
  5
261
330
1F
100
AcDbEntity
  8
0
 62
    58
100
AcDbCircle
 10
2071.820138500985
 20
2443.258999999992
 30
0.0
 40
1.600000000000007
100
AcDbArc
 50
0.0000000000014117
 51
180.0000000000014
  0
LINE
  5
262
330
1F
100
AcDbEntity
  8
0
 62
    58
100
AcDbLine
 10
2073.420138500985
 20
2443.258999999992
 30
0.0
 11
2073.420138500986
 21
2440.058999999992
 31
0.0
  0
LINE
  5
263
330
1F
100
AcDbEntity
  8
0
 62
    58
100
AcDbLine
 10
2085.420138500985
 20
2455.643999999994
 30
0.0
 11
2085.420138500986
 21
2440.058999999992
 31
0.0
  0
LINE
  5
264
330
1F
100
AcDbEntity
  8
0
 62
    58
100
AcDbLine
 10
2085.420138500985
 20
2455.643999999993
 30
0.0
 11
2103.420138500985
 21
2455.643999999994
 31
0.0
  0
LINE
  5
265
330
1F
100
AcDbEntity
  8
0
 62
    58
100
AcDbLine
 10
2103.420138500984
 20
2485.643999999993
 30
0.0
 11
2103.420138500985
 21
2455.643999999994
 31
0.0
  0
LINE
  5
266
330
1F
100
AcDbEntity
  8
0
 62
    58
100
AcDbLine
 10
2103.420138500984
 20
2485.643999999993
 30
0.0
 11
1968.700138500987
 21
2485.64399999999
 31
0.0
  0
LINE
  5
267
330
1F
100
AcDbEntity
  8
0
 62
    58
100
AcDbLine
 10
1947.700138500988
 20
2415.91899999999
 30
0.0
 11
1947.700138500987
 21
2434.05899999999
 31
0.0
  0
LINE
  5
268
330
1F
100
AcDbEntity
  8
0
 62
    58
100
AcDbLine
 10
1947.700138500988
 20
2434.05899999999
 30
0.0
 11
1977.700138500988
 21
2434.05899999999
 31
0.0
  0
LINE
  5
269
330
1F
100
AcDbEntity
  8
0
 62
    58
100
AcDbLine
 10
1977.700138500988
 20
2434.05899999999
 30
0.0
 11
1977.700138500988
 21
2415.91899999999
 31
0.0
  0
LINE
  5
26A
330
1F
100
AcDbEntity
  8
0
 62
    58
100
AcDbLine
 10
1977.700138500988
 20
2415.91899999999
 30
0.0
 11
1947.700138500988
 21
2415.91899999999
 31
0.0
  0
LINE
  5
26B
330
1F
100
AcDbEntity
  8
0
 62
    58
100
AcDbLine
 10
2267.340138500986
 20
2449.543499994993
 30
0.0
 11
2267.340138500986
 21
2446.893499994992
 31
0.0
  0
ARC
  5
26C
330
1F
100
AcDbEntity
  8
0
 62
    58
100
AcDbCircle
 10
2199.920138500986
 20
2283.450000009995
 30
0.0
 40
49.99999999999999
100
AcDbArc
 50
180.0000000000013
 51
269.9999999999998
  0
ARC
  5
26D
330
1F
100
AcDbEntity
  8
0
 62
    58
100
AcDbCircle
 10
2184.920138500986
 20
2293.478999999993
 30
0.0
 40
4.25
100
AcDbArc
 50
89.9999999999999
 51
269.9999999999368
  0
ARC
  5
26E
330
1F
100
AcDbEntity
  8
0
 62
    58
100
AcDbCircle
 10
2186.920138500986
 20
2293.478999999993
 30
0.0
 40
4.25
100
AcDbArc
 50
269.9999999999999
 51
89.9999999997997
  0
CIRCLE
  5
26F
330
1F
100
AcDbEntity
  8
0
 62
    58
100
AcDbCircle
 10
2230.206997382693
 20
2360.478999999993
 30
0.0
 40
41.0
  0
ARC
  5
270
330
1F
100
AcDbEntity
  8
0
 62
    58
100
AcDbCircle
 10
2199.920138500986
 20
2437.507999989991
 30
0.0
 40
49.99999999999999
100
AcDbArc
 50
89.9999999999999
 51
179.9999999999985
  0
ARC
  5
271
330
1F
100
AcDbEntity
  8
0
 62
    58
100
AcDbCircle
 10
2184.920138500986
 20
2427.478999999993
 30
0.0
 40
4.25
100
AcDbArc
 50
90.00000000006288
 51
269.9999999999999
  0
ARC
  5
272
330
1F
100
AcDbEntity
  8
0
 62
    58
100
AcDbCircle
 10
2186.920138500986
 20
2427.478999999993
 30
0.0
 40
4.25
100
AcDbArc
 50
270.0000000002
 51
89.99999999999987
  0
ARC
  5
273
330
1F
100
AcDbEntity
  8
0
 62
    58
100
AcDbCircle
 10
2262.940138500986
 20
2460.643499994992
 30
0.0
 40
1.6
100
AcDbArc
 50
89.9999999999999
 51
180.0000000000657
  0
ARC
  5
274
330
1F
100
AcDbEntity
  8
0
 62
    58
100
AcDbCircle
 10
2262.940138500986
 20
2451.143499994992
 30
0.0
 40
1.6
100
AcDbArc
 50
179.9999999999998
 51
270.0000000000667
  0
ARC
  5
275
330
1F
100
AcDbEntity
  8
0
 62
    58
100
AcDbCircle
 10
2262.940138500986
 20
2260.314500004994
 30
0.0
 40
1.6
100
AcDbArc
 50
179.9999999999998
 51
270.0000000000662
  0
ARC
  5
276
330
1F
100
AcDbEntity
  8
0
 62
    58
100
AcDbCircle
 10
2262.940138500986
 20
2269.814500004994
 30
0.0
 40
1.6
100
AcDbArc
 50
89.9999999999999
 51
180.0000000000655
  0
LINE
  5
277
330
1F
100
AcDbEntity
  8
0
 62
    58
100
AcDbLine
 10
2267.340138500986
 20
2271.414500004994
 30
0.0
 11
2262.940138500986
 21
2271.414500004994
 31
0.0
  0
LINE
  5
278
330
1F
100
AcDbEntity
  8
0
 62
    58
100
AcDbLine
 10
2262.940138500986
 20
2258.714500004994
 30
0.0
 11
2267.340138500986
 21
2258.714500004994
 31
0.0
  0
LINE
  5
279
330
1F
100
AcDbEntity
  8
0
 62
    58
100
AcDbLine
 10
2267.340138500986
 20
2449.543499994993
 30
0.0
 11
2262.940138500986
 21
2449.543499994993
 31
0.0
  0
LINE
  5
27A
330
1F
100
AcDbEntity
  8
0
 62
    58
100
AcDbLine
 10
2262.940138500986
 20
2462.243499994992
 30
0.0
 11
2267.340138500986
 21
2462.243499994992
 31
0.0
  0
LINE
  5
27B
330
1F
100
AcDbEntity
  8
0
 62
    58
100
AcDbLine
 10
2261.340138500987
 20
2460.643499994992
 30
0.0
 11
2261.340138500987
 21
2451.143499994992
 31
0.0
  0
LINE
  5
27C
330
1F
100
AcDbEntity
  8
0
 62
    58
100
AcDbLine
 10
2270.540138500986
 20
2446.893499994992
 30
0.0
 11
2270.540138500986
 21
2451.893499994992
 31
0.0
  0
ARC
  5
27D
330
1F
100
AcDbEntity
  8
0
 62
    58
100
AcDbCircle
 10
2268.940138500986
 20
2446.893499994992
 30
0.0
 40
1.59999999999999
100
AcDbArc
 50
179.9999999999999
 51
359.9999999999999
  0
LINE
  5
27E
330
1F
100
AcDbEntity
  8
0
 62
    58
100
AcDbLine
 10
2267.340138500986
 20
2464.893499994992
 30
0.0
 11
2267.340138500986
 21
2462.243499994992
 31
0.0
  0
ARC
  5
27F
330
1F
100
AcDbEntity
  8
0
 62
    58
100
AcDbCircle
 10
2268.940138500986
 20
2464.893499994992
 30
0.0
 40
1.59999999999999
100
AcDbArc
 50
359.9999999999998
 51
179.9999999999999
  0
LINE
  5
280
330
1F
100
AcDbEntity
  8
0
 62
    58
100
AcDbLine
 10
2270.540138500986
 20
2459.893499994992
 30
0.0
 11
2270.540138500986
 21
2464.893499994992
 31
0.0
  0
LINE
  5
281
330
1F
100
AcDbEntity
  8
0
 62
    58
100
AcDbLine
 10
2270.540138500986
 20
2459.893499994992
 30
0.0
 11
2285.640138500986
 21
2459.893499994992
 31
0.0
  0
LINE
  5
282
330
1F
100
AcDbEntity
  8
0
 62
    58
100
AcDbLine
 10
2285.640138500986
 20
2459.893499994992
 30
0.0
 11
2285.640138500986
 21
2487.507999989991
 31
0.0
  0
LINE
  5
283
330
1F
100
AcDbEntity
  8
0
 62
    58
100
AcDbLine
 10
2199.920138500987
 20
2487.507999989991
 30
0.0
 11
2285.640138500987
 21
2487.507999989991
 31
0.0
  0
LINE
  5
284
330
1F
100
AcDbEntity
  8
0
 62
    58
100
AcDbLine
 10
2149.920138500986
 20
2283.450000009995
 30
0.0
 11
2149.920138500986
 21
2437.507999989991
 31
0.0
  0
LINE
  5
285
330
1F
100
AcDbEntity
  8
0
 62
    58
100
AcDbLine
 10
2199.920138500986
 20
2233.450000009995
 30
0.0
 11
2285.640138500986
 21
2233.450000009995
 31
0.0
  0
LINE
  5
286
330
1F
100
AcDbEntity
  8
0
 62
    58
100
AcDbLine
 10
2285.640138500986
 20
2261.064500004994
 30
0.0
 11
2285.640138500986
 21
2233.450000009995
 31
0.0
  0
LINE
  5
287
330
1F
100
AcDbEntity
  8
0
 62
    58
100
AcDbLine
 10
2270.540138500986
 20
2261.064500004994
 30
0.0
 11
2285.640138500986
 21
2261.064500004994
 31
0.0
  0
LINE
  5
288
330
1F
100
AcDbEntity
  8
0
 62
    58
100
AcDbLine
 10
2270.540138500986
 20
2256.064500004994
 30
0.0
 11
2270.540138500986
 21
2261.064500004994
 31
0.0
  0
ARC
  5
289
330
1F
100
AcDbEntity
  8
0
 62
    58
100
AcDbCircle
 10
2268.940138500986
 20
2256.064500004994
 30
0.0
 40
1.59999999999999
100
AcDbArc
 50
179.9999999999999
 51
359.9999999999998
  0
LINE
  5
28A
330
1F
100
AcDbEntity
  8
0
 62
    58
100
AcDbLine
 10
2267.340138500986
 20
2258.714500004994
 30
0.0
 11
2267.340138500986
 21
2256.064500004994
 31
0.0
  0
LINE
  5
28B
330
1F
100
AcDbEntity
  8
0
 62
    58
100
AcDbLine
 10
2261.340138500986
 20
2269.814500004994
 30
0.0
 11
2261.340138500986
 21
2260.314500004994
 31
0.0
  0
LINE
  5
28C
330
1F
100
AcDbEntity
  8
0
 62
    58
100
AcDbLine
 10
2267.340138500986
 20
2274.064500004994
 30
0.0
 11
2267.340138500986
 21
2271.414500004994
 31
0.0
  0
ARC
  5
28D
330
1F
100
AcDbEntity
  8
0
 62
    58
100
AcDbCircle
 10
2268.940138500986
 20
2274.064500004994
 30
0.0
 40
1.59999999999999
100
AcDbArc
 50
359.9999999999999
 51
179.9999999999999
  0
LINE
  5
28E
330
1F
100
AcDbEntity
  8
0
 62
    58
100
AcDbLine
 10
2270.540138500986
 20
2269.064500004994
 30
0.0
 11
2270.540138500986
 21
2274.064500004994
 31
0.0
  0
LINE
  5
28F
330
1F
100
AcDbEntity
  8
0
 62
    58
100
AcDbLine
 10
2285.640138500986
 20
2269.064500004994
 30
0.0
 11
2270.540138500986
 21
2269.064500004994
 31
0.0
  0
LINE
  5
290
330
1F
100
AcDbEntity
  8
0
 62
    58
100
AcDbLine
 10
2285.640138500986
 20
2335.478999999993
 30
0.0
 11
2285.640138500986
 21
2269.064500004994
 31
0.0
  0
LINE
  5
291
330
1F
100
AcDbEntity
  8
0
 62
    58
100
AcDbLine
 10
2285.640138500986
 20
2335.478999999993
 30
0.0
 11
2305.640138500987
 21
2335.478999999993
 31
0.0
  0
LINE
  5
292
330
1F
100
AcDbEntity
  8
0
 62
    58
100
AcDbLine
 10
2305.640138500987
 20
2335.478999999993
 30
0.0
 11
2305.640138500986
 21
2385.478999999993
 31
0.0
  0
LINE
  5
293
330
1F
100
AcDbEntity
  8
0
 62
    58
100
AcDbLine
 10
2285.640138500986
 20
2385.478999999993
 30
0.0
 11
2305.640138500986
 21
2385.478999999993
 31
0.0
  0
LINE
  5
294
330
1F
100
AcDbEntity
  8
0
 62
    58
100
AcDbLine
 10
2285.640138500986
 20
2385.478999999993
 30
0.0
 11
2285.640138500986
 21
2451.893499994992
 31
0.0
  0
LINE
  5
295
330
1F
100
AcDbEntity
  8
0
 62
    58
100
AcDbLine
 10
2285.640138500986
 20
2451.893499994992
 30
0.0
 11
2270.540138500986
 21
2451.893499994992
 31
0.0
  0
LINE
  5
296
330
1F
100
AcDbEntity
  8
0
 62
    58
100
AcDbLine
 10
2184.920138500986
 20
2423.228999999993
 30
0.0
 11
2186.920138500986
 21
2423.228999999993
 31
0.0
  0
LINE
  5
297
330
1F
100
AcDbEntity
  8
0
 62
    58
100
AcDbLine
 10
2186.920138500986
 20
2431.728999999993
 30
0.0
 11
2184.920138500986
 21
2431.728999999993
 31
0.0
  0
LINE
  5
298
330
1F
100
AcDbEntity
  8
0
 62
    58
100
AcDbLine
 10
2251.920138500986
 20
2418.478999999993
 30
0.0
 11
2204.640138500986
 21
2418.478999999993
 31
0.0
  0
LINE
  5
299
330
1F
100
AcDbEntity
  8
0
 62
    58
100
AcDbLine
 10
2204.640138500986
 20
2436.478999999993
 30
0.0
 11
2204.640138500986
 21
2418.478999999993
 31
0.0
  0
LINE
  5
29A
330
1F
100
AcDbEntity
  8
0
 62
    58
100
AcDbLine
 10
2251.920138500986
 20
2436.478999999993
 30
0.0
 11
2204.640138500986
 21
2436.478999999993
 31
0.0
  0
LINE
  5
29B
330
1F
100
AcDbEntity
  8
0
 62
    58
100
AcDbLine
 10
2251.920138500986
 20
2418.478999999993
 30
0.0
 11
2251.920138500986
 21
2436.478999999993
 31
0.0
  0
LINE
  5
29C
330
1F
100
AcDbEntity
  8
0
 62
    58
100
AcDbLine
 10
2184.920138500986
 20
2297.728999999993
 30
0.0
 11
2186.920138500986
 21
2297.728999999993
 31
0.0
  0
LINE
  5
29D
330
1F
100
AcDbEntity
  8
0
 62
    58
100
AcDbLine
 10
2186.920138500986
 20
2289.228999999993
 30
0.0
 11
2184.920138500986
 21
2289.228999999993
 31
0.0
  0
LINE
  5
29E
330
1F
100
AcDbEntity
  8
0
 62
    58
100
AcDbLine
 10
2251.920138500986
 20
2284.478999999993
 30
0.0
 11
2204.640138500986
 21
2284.478999999993
 31
0.0
  0
LINE
  5
29F
330
1F
100
AcDbEntity
  8
0
 62
    58
100
AcDbLine
 10
2204.640138500986
 20
2284.478999999993
 30
0.0
 11
2204.640138500986
 21
2302.478999999993
 31
0.0
  0
LINE
  5
2A0
330
1F
100
AcDbEntity
  8
0
 62
    58
100
AcDbLine
 10
2251.920138500986
 20
2302.478999999993
 30
0.0
 11
2204.640138500986
 21
2302.478999999993
 31
0.0
  0
LINE
  5
2A1
330
1F
100
AcDbEntity
  8
0
 62
    58
100
AcDbLine
 10
2251.920138500986
 20
2302.478999999993
 30
0.0
 11
2251.920138500986
 21
2284.478999999993
 31
0.0
  0
CIRCLE
  5
2A2
330
1F
100
AcDbEntity
  8
0
 62
    58
100
AcDbCircle
 10
-2368.560138500985
 20
2102.963499994991
 30
-0.0000000000002652
 40
4.25
210
-1.663404806347440E-16
220
6.123031769111947E-17
230
-1.0
  0
CIRCLE
  5
2A3
330
1F
100
AcDbEntity
  8
0
 62
    58
100
AcDbCircle
 10
-2368.560138500983
 20
1912.134500004991
 30
-0.0000000000002769
 40
4.25
210
-1.663404806347441E-16
220
6.123031769111947E-17
230
-1.0
  0
CIRCLE
  5
2A4
330
1F
100
AcDbEntity
  8
0
 62
    58
100
AcDbCircle
 10
-2129.573456263527
 20
2025.048999999992
 30
-0.0000000000335345
 40
2.0
210
-1.663404806345327E-16
220
-1.638489625061886E-14
230
-1.0
  0
CIRCLE
  5
2A5
330
1F
100
AcDbEntity
  8
0
 62
    58
100
AcDbCircle
 10
-2105.573456263527
 20
2025.048999999992
 30
-0.000000000033582
 40
2.0
210
-1.663404806346786E-16
220
-1.641033972653101E-14
230
-1.0
  0
ARC
  5
2A6
330
1F
100
AcDbEntity
  8
0
 62
    58
100
AcDbCircle
 10
2395.560138500985
 20
2117.133999999992
 30
0.0
 40
18.0
100
AcDbArc
 50
0.0000000000117553
 51
89.99999999999969
  0
CIRCLE
  5
2A7
330
1F
100
AcDbEntity
  8
0
 62
    58
100
AcDbCircle
 10
2292.750138500984
 20
2092.548999999992
 30
0.0
 40
2.499999999999984
  0
CIRCLE
  5
2A8
330
1F
100
AcDbEntity
  8
0
 62
    58
100
AcDbCircle
 10
2292.750138500985
 20
2124.548999999992
 30
0.0
 40
2.5
  0
CIRCLE
  5
2A9
330
1F
100
AcDbEntity
  8
0
 62
    58
100
AcDbCircle
 10
2256.750138500985
 20
2092.548999999993
 30
0.0
 40
2.500000000000014
  0
CIRCLE
  5
2AA
330
1F
100
AcDbEntity
  8
0
 62
    58
100
AcDbCircle
 10
2256.750138500985
 20
2124.548999999993
 30
0.0
 40
2.500000000000002
  0
CIRCLE
  5
2AB
330
1F
100
AcDbEntity
  8
0
 62
    58
100
AcDbCircle
 10
-2350.560138500985
 20
2109.577999989991
 30
-0.0000000000002618
 40
4.249999999999988
210
-1.663404806347441E-16
220
6.123031769111947E-17
230
-1.0
  0
CIRCLE
  5
2AC
330
1F
100
AcDbEntity
  8
0
 62
    58
100
AcDbCircle
 10
-2386.560138500985
 20
2109.577999989991
 30
-0.0000000000002678
 40
4.249999999999988
210
-1.663404806347441E-16
220
6.123031769111947E-17
230
-1.0
  0
CIRCLE
  5
2AD
330
1F
100
AcDbEntity
  8
0
 62
    58
100
AcDbCircle
 10
-2240.635671734688
 20
2074.548999999993
 30
-0.0000000000002457
 40
4.249999999999954
210
-1.663404806347441E-16
220
6.123031769111947E-17
230
-1.0
  0
CIRCLE
  5
2AE
330
1F
100
AcDbEntity
  8
0
 62
    58
100
AcDbCircle
 10
-2316.445671734687
 20
2074.548999999992
 30
-0.0000000000002583
 40
4.24999999999998
210
-1.663404806347441E-16
220
6.123031769111947E-17
230
-1.0
  0
CIRCLE
  5
2AF
330
1F
100
AcDbEntity
  8
0
 62
    58
100
AcDbCircle
 10
-2206.750138500985
 20
2100.57799998999
 30
-0.0000000000002385
 40
4.249999999999976
210
-1.663404806347441E-16
220
6.123031769111947E-17
230
-1.0
  0
CIRCLE
  5
2B0
330
1F
100
AcDbEntity
  8
0
 62
    58
100
AcDbCircle
 10
2123.750138500985
 20
2092.548999999994
 30
0.0
 40
2.500000000000002
  0
CIRCLE
  5
2B1
330
1F
100
AcDbEntity
  8
0
 62
    58
100
AcDbCircle
 10
2123.750138500985
 20
2124.548999999994
 30
0.0
 40
2.500000000000008
  0
CIRCLE
  5
2B2
330
1F
100
AcDbEntity
  8
0
 62
    58
100
AcDbCircle
 10
2159.750138500985
 20
2092.548999999994
 30
0.0
 40
2.500000000000012
  0
CIRCLE
  5
2B3
330
1F
100
AcDbEntity
  8
0
 62
    58
100
AcDbCircle
 10
2159.750138500985
 20
2124.548999999994
 30
0.0
 40
2.499999999999993
  0
CIRCLE
  5
2B4
330
1F
100
AcDbEntity
  8
0
 62
    58
100
AcDbCircle
 10
2129.573456263528
 20
1990.048999999992
 30
0.0
 40
2.0
  0
CIRCLE
  5
2B5
330
1F
100
AcDbEntity
  8
0
 62
    58
100
AcDbCircle
 10
2105.573456263528
 20
1990.048999999992
 30
0.0
 40
2.0
  0
ARC
  5
2B6
330
1F
100
AcDbEntity
  8
0
 62
    58
100
AcDbCircle
 10
2395.560138500984
 20
1897.96399999999
 30
0.0
 40
18.0
100
AcDbArc
 50
269.9999999999997
 51
0.0000000000008142
  0
CIRCLE
  5
2B7
330
1F
100
AcDbEntity
  8
0
 62
    58
100
AcDbCircle
 10
-2292.750138500984
 20
1922.54899999999
 30
-0.0000000000002637
 40
2.499999999999984
210
-1.663404806347441E-16
220
6.123031769111947E-17
230
-1.0
  0
CIRCLE
  5
2B8
330
1F
100
AcDbEntity
  8
0
 62
    58
100
AcDbCircle
 10
-2292.750138500983
 20
1890.54899999999
 30
-0.0000000000002656
 40
2.5
210
-1.663404806347441E-16
220
6.123031769111947E-17
230
-1.0
  0
CIRCLE
  5
2B9
330
1F
100
AcDbEntity
  8
0
 62
    58
100
AcDbCircle
 10
-2256.750138500984
 20
1922.54899999999
 30
-0.0000000000002577
 40
2.500000000000014
210
-1.663404806347441E-16
220
6.123031769111947E-17
230
-1.0
  0
CIRCLE
  5
2BA
330
1F
100
AcDbEntity
  8
0
 62
    58
100
AcDbCircle
 10
-2256.750138500983
 20
1890.54899999999
 30
-0.0000000000002596
 40
2.500000000000002
210
-1.663404806347441E-16
220
6.123031769111947E-17
230
-1.0
  0
CIRCLE
  5
2BB
330
1F
100
AcDbEntity
  8
0
 62
    58
100
AcDbCircle
 10
2350.560138500983
 20
1905.520000009991
 30
0.0
 40
4.249999999999988
  0
CIRCLE
  5
2BC
330
1F
100
AcDbEntity
  8
0
 62
    58
100
AcDbCircle
 10
2386.560138500983
 20
1905.520000009991
 30
0.0
 40
4.249999999999988
  0
CIRCLE
  5
2BD
330
1F
100
AcDbEntity
  8
0
 62
    58
100
AcDbCircle
 10
2240.635671734687
 20
1940.54899999999
 30
0.0
 40
4.249999999999954
  0
CIRCLE
  5
2BE
330
1F
100
AcDbEntity
  8
0
 62
    58
100
AcDbCircle
 10
2316.445671734687
 20
1940.54899999999
 30
0.0
 40
4.24999999999998
  0
CIRCLE
  5
2BF
330
1F
100
AcDbEntity
  8
0
 62
    58
100
AcDbCircle
 10
2206.750138500984
 20
1914.520000009994
 30
0.0
 40
4.249999999999976
  0
CIRCLE
  5
2C0
330
1F
100
AcDbEntity
  8
0
 62
    58
100
AcDbCircle
 10
-2123.750138500984
 20
1922.54899999999
 30
-0.0000000000002355
 40
2.500000000000002
210
-1.663404806347441E-16
220
6.123031769111947E-17
230
-1.0
  0
CIRCLE
  5
2C1
330
1F
100
AcDbEntity
  8
0
 62
    58
100
AcDbCircle
 10
-2123.750138500984
 20
1890.54899999999
 30
-0.0000000000002375
 40
2.500000000000008
210
-1.663404806347441E-16
220
6.123031769111947E-17
230
-1.0
  0
CIRCLE
  5
2C2
330
1F
100
AcDbEntity
  8
0
 62
    58
100
AcDbCircle
 10
-2159.750138500984
 20
1922.54899999999
 30
-0.0000000000002415
 40
2.500000000000012
210
-1.663404806347441E-16
220
6.123031769111947E-17
230
-1.0
  0
CIRCLE
  5
2C3
330
1F
100
AcDbEntity
  8
0
 62
    58
100
AcDbCircle
 10
-2159.750138500984
 20
1890.54899999999
 30
-0.0000000000002435
 40
2.499999999999993
210
-1.663404806347441E-16
220
6.123031769111947E-17
230
-1.0
  0
CIRCLE
  5
2C4
330
1F
100
AcDbEntity
  8
0
 62
    58
100
AcDbCircle
 10
-2100.000138500984
 20
2085.548999999994
 30
-0.0000000000002216
 40
4.24999999999998
210
-1.663404806347441E-16
220
6.123031769111947E-17
230
-1.0
  0
CIRCLE
  5
2C5
330
1F
100
AcDbEntity
  8
0
 62
    58
100
AcDbCircle
 10
-2100.000138500983
 20
1929.548999999991
 30
-0.0000000000002312
 40
4.24999999999998
210
-1.663404806347441E-16
220
6.123031769111947E-17
230
-1.0
  0
CIRCLE
  5
2C6
330
1F
100
AcDbEntity
  8
0
 62
    58
100
AcDbCircle
 10
-2133.885671734686
 20
1940.548999999991
 30
-0.0000000000002361
 40
4.249999999999976
210
-1.663404806347441E-16
220
6.123031769111947E-17
230
-1.0
  0
CIRCLE
  5
2C7
330
1F
100
AcDbEntity
  8
0
 62
    58
100
AcDbCircle
 10
-2133.885671734687
 20
2074.548999999993
 30
-0.0000000000002279
 40
4.249999999999976
210
-1.663404806347441E-16
220
6.123031769111947E-17
230
-1.0
  0
LINE
  5
2C8
330
1F
100
AcDbEntity
  8
0
 62
    58
100
AcDbLine
 10
2147.750138500985
 20
2083.548999999994
 30
0.0
 11
2177.750138500985
 21
2083.548999999993
 31
0.0
  0
LINE
  5
2C9
330
1F
100
AcDbEntity
  8
0
 62
    58
100
AcDbLine
 10
2147.750138500985
 20
2065.548999999993
 30
0.0
 11
2147.750138500985
 21
2083.548999999994
 31
0.0
  0
LINE
  5
2CA
330
1F
100
AcDbEntity
  8
0
 62
    58
100
AcDbLine
 10
2147.750138500985
 20
2065.548999999993
 30
0.0
 11
2177.750138500985
 21
2065.548999999993
 31
0.0
  0
LINE
  5
2CB
330
1F
100
AcDbEntity
  8
0
 62
    58
100
AcDbLine
 10
2177.750138500985
 20
2083.548999999993
 30
0.0
 11
2177.750138500985
 21
2065.548999999993
 31
0.0
  0
LINE
  5
2CC
330
1F
100
AcDbEntity
  8
0
 62
    58
100
AcDbLine
 10
2177.750138500984
 20
1931.548999999991
 30
0.0
 11
2147.750138500984
 21
1931.548999999991
 31
0.0
  0
LINE
  5
2CD
330
1F
100
AcDbEntity
  8
0
 62
    58
100
AcDbLine
 10
2147.750138500984
 20
1931.548999999991
 30
0.0
 11
2147.750138500984
 21
1949.548999999991
 31
0.0
  0
LINE
  5
2CE
330
1F
100
AcDbEntity
  8
0
 62
    58
100
AcDbLine
 10
2177.750138500984
 20
1949.548999999991
 30
0.0
 11
2147.750138500984
 21
1949.548999999991
 31
0.0
  0
LINE
  5
2CF
330
1F
100
AcDbEntity
  8
0
 62
    58
100
AcDbLine
 10
2177.750138500984
 20
1949.548999999991
 30
0.0
 11
2177.750138500984
 21
1931.548999999991
 31
0.0
  0
LINE
  5
2D0
330
1F
100
AcDbEntity
  8
0
 62
    58
100
AcDbLine
 10
2109.000138500985
 20
2135.133999999993
 30
0.0
 11
2109.000138500985
 21
2105.133999999993
 31
0.0
  0
LINE
  5
2D1
330
1F
100
AcDbEntity
  8
0
 62
    58
100
AcDbLine
 10
2109.000138500985
 20
2105.133999999993
 30
0.0
 11
2091.000138500984
 21
2105.133999999993
 31
0.0
  0
LINE
  5
2D2
330
1F
100
AcDbEntity
  8
0
 62
    58
100
AcDbLine
 10
2109.000138500983
 20
1909.963999999991
 30
0.0
 11
2109.000138500983
 21
1879.963999999991
 31
0.0
  0
LINE
  5
2D3
330
1F
100
AcDbEntity
  8
0
 62
    58
100
AcDbLine
 10
2091.000138500983
 20
1909.963999999991
 30
0.0
 11
2091.000138500984
 21
2105.133999999993
 31
0.0
  0
LINE
  5
2D4
330
1F
100
AcDbEntity
  8
0
 62
    58
100
AcDbLine
 10
2091.000138500983
 20
1909.963999999991
 30
0.0
 11
2109.000138500983
 21
1909.963999999991
 31
0.0
  0
LINE
  5
2D5
330
1F
100
AcDbEntity
  8
0
 62
    58
100
AcDbLine
 10
2215.750138500984
 20
1899.520000009993
 30
0.0
 11
2197.750138500984
 21
1899.520000009993
 31
0.0
  0
LINE
  5
2D6
330
1F
100
AcDbEntity
  8
0
 62
    58
100
AcDbLine
 10
2260.750138500984
 20
1931.54899999999
 30
0.0
 11
2295.750138500985
 21
1931.54899999999
 31
0.0
  0
LINE
  5
2D7
330
1F
100
AcDbEntity
  8
0
 62
    58
100
AcDbLine
 10
2260.750138500984
 20
1949.54899999999
 30
0.0
 11
2260.750138500984
 21
1931.54899999999
 31
0.0
  0
LINE
  5
2D8
330
1F
100
AcDbEntity
  8
0
 62
    58
100
AcDbLine
 10
2260.750138500984
 20
1949.54899999999
 30
0.0
 11
2295.750138500985
 21
1949.54899999999
 31
0.0
  0
LINE
  5
2D9
330
1F
100
AcDbEntity
  8
0
 62
    58
100
AcDbLine
 10
2295.750138500985
 20
1931.54899999999
 30
0.0
 11
2295.750138500985
 21
1949.54899999999
 31
0.0
  0
LINE
  5
2DA
330
1F
100
AcDbEntity
  8
0
 62
    58
100
AcDbLine
 10
2341.560138500985
 20
1925.520000009991
 30
0.0
 11
2359.560138500984
 21
1925.520000009991
 31
0.0
  0
LINE
  5
2DB
330
1F
100
AcDbEntity
  8
0
 62
    58
100
AcDbLine
 10
2377.560138500985
 20
1925.520000009991
 30
0.0
 11
2395.560138500984
 21
1925.520000009991
 31
0.0
  0
LINE
  5
2DC
330
1F
100
AcDbEntity
  8
0
 62
    58
100
AcDbLine
 10
2109.000138500983
 20
1879.963999999991
 30
0.0
 11
2197.750138500984
 21
1879.963999999991
 31
0.0
  0
LINE
  5
2DD
330
1F
100
AcDbEntity
  8
0
 62
    58
100
AcDbLine
 10
2377.560138500985
 20
1960.520000009991
 30
0.0
 11
2377.560138500984
 21
1925.520000009991
 31
0.0
  0
LINE
  5
2DE
330
1F
100
AcDbEntity
  8
0
 62
    58
100
AcDbLine
 10
2395.560138500984
 20
1960.520000009991
 30
0.0
 11
2377.560138500985
 21
1960.520000009991
 31
0.0
  0
LINE
  5
2DF
330
1F
100
AcDbEntity
  8
0
 62
    58
100
AcDbLine
 10
2395.560138500984
 20
1925.520000009991
 30
0.0
 11
2395.560138500984
 21
1960.520000009991
 31
0.0
  0
LINE
  5
2E0
330
1F
100
AcDbEntity
  8
0
 62
    58
100
AcDbLine
 10
2341.560138500985
 20
1960.520000009992
 30
0.0
 11
2341.560138500985
 21
1925.520000009991
 31
0.0
  0
LINE
  5
2E1
330
1F
100
AcDbEntity
  8
0
 62
    58
100
AcDbLine
 10
2359.560138500985
 20
1960.520000009991
 30
0.0
 11
2341.560138500985
 21
1960.520000009992
 31
0.0
  0
LINE
  5
2E2
330
1F
100
AcDbEntity
  8
0
 62
    58
100
AcDbLine
 10
2359.560138500984
 20
1925.520000009991
 30
0.0
 11
2359.560138500984
 21
1960.520000009992
 31
0.0
  0
LINE
  5
2E3
330
1F
100
AcDbEntity
  8
0
 62
    58
100
AcDbLine
 10
2359.560138500985
 20
1982.54899999999
 30
0.0
 11
2377.560138500985
 21
1982.54899999999
 31
0.0
  0
LINE
  5
2E4
330
1F
100
AcDbEntity
  8
0
 62
    58
100
AcDbLine
 10
2215.750138500984
 20
1879.963999999991
 30
0.0
 11
2395.560138500984
 21
1879.96399999999
 31
0.0
  0
LINE
  5
2E5
330
1F
100
AcDbEntity
  8
0
 62
    58
100
AcDbLine
 10
2197.750138500984
 20
1899.520000009993
 30
0.0
 11
2197.750138500984
 21
1879.963999999991
 31
0.0
  0
LINE
  5
2E6
330
1F
100
AcDbEntity
  8
0
 62
    58
100
AcDbLine
 10
2215.750138500984
 20
1879.963999999991
 30
0.0
 11
2215.750138500984
 21
1899.520000009993
 31
0.0
  0
LINE
  5
2E7
330
1F
100
AcDbEntity
  8
0
 62
    58
100
AcDbLine
 10
2215.750138500985
 20
2115.577999989991
 30
0.0
 11
2197.750138500985
 21
2115.577999989991
 31
0.0
  0
LINE
  5
2E8
330
1F
100
AcDbEntity
  8
0
 62
    58
100
AcDbLine
 10
2260.750138500985
 20
2083.548999999993
 30
0.0
 11
2295.750138500985
 21
2083.548999999993
 31
0.0
  0
LINE
  5
2E9
330
1F
100
AcDbEntity
  8
0
 62
    58
100
AcDbLine
 10
2260.750138500985
 20
2065.548999999993
 30
0.0
 11
2260.750138500985
 21
2083.548999999993
 31
0.0
  0
LINE
  5
2EA
330
1F
100
AcDbEntity
  8
0
 62
    58
100
AcDbLine
 10
2260.750138500985
 20
2065.548999999993
 30
0.0
 11
2295.750138500985
 21
2065.548999999993
 31
0.0
  0
LINE
  5
2EB
330
1F
100
AcDbEntity
  8
0
 62
    58
100
AcDbLine
 10
2295.750138500985
 20
2083.548999999993
 30
0.0
 11
2295.750138500985
 21
2065.548999999992
 31
0.0
  0
LINE
  5
2EC
330
1F
100
AcDbEntity
  8
0
 62
    58
100
AcDbLine
 10
2341.560138500985
 20
2089.577999989991
 30
0.0
 11
2359.560138500985
 21
2089.57799998999
 31
0.0
  0
LINE
  5
2ED
330
1F
100
AcDbEntity
  8
0
 62
    58
100
AcDbLine
 10
2377.560138500985
 20
2089.57799998999
 30
0.0
 11
2395.560138500985
 21
2089.57799998999
 31
0.0
  0
LINE
  5
2EE
330
1F
100
AcDbEntity
  8
0
 62
    58
100
AcDbLine
 10
2109.000138500985
 20
2135.133999999993
 30
0.0
 11
2197.750138500985
 21
2135.133999999993
 31
0.0
  0
LINE
  5
2EF
330
1F
100
AcDbEntity
  8
0
 62
    58
100
AcDbLine
 10
2377.560138500984
 20
2054.577999989991
 30
0.0
 11
2377.560138500985
 21
2089.57799998999
 31
0.0
  0
LINE
  5
2F0
330
1F
100
AcDbEntity
  8
0
 62
    58
100
AcDbLine
 10
2395.560138500985
 20
2054.577999989991
 30
0.0
 11
2377.560138500984
 21
2054.577999989991
 31
0.0
  0
LINE
  5
2F1
330
1F
100
AcDbEntity
  8
0
 62
    58
100
AcDbLine
 10
2395.560138500985
 20
2089.57799998999
 30
0.0
 11
2395.560138500985
 21
2054.57799998999
 31
0.0
  0
LINE
  5
2F2
330
1F
100
AcDbEntity
  8
0
 62
    58
100
AcDbLine
 10
2341.560138500985
 20
2054.577999989991
 30
0.0
 11
2341.560138500985
 21
2089.57799998999
 31
0.0
  0
LINE
  5
2F3
330
1F
100
AcDbEntity
  8
0
 62
    58
100
AcDbLine
 10
2359.560138500984
 20
2054.577999989991
 30
0.0
 11
2341.560138500985
 21
2054.577999989991
 31
0.0
  0
LINE
  5
2F4
330
1F
100
AcDbEntity
  8
0
 62
    58
100
AcDbLine
 10
2359.560138500985
 20
2089.57799998999
 30
0.0
 11
2359.560138500984
 21
2054.57799998999
 31
0.0
  0
LINE
  5
2F5
330
1F
100
AcDbEntity
  8
0
 62
    58
100
AcDbLine
 10
2359.560138500984
 20
2032.548999999992
 30
0.0
 11
2377.560138500984
 21
2032.548999999992
 31
0.0
  0
LINE
  5
2F6
330
1F
100
AcDbEntity
  8
0
 62
    58
100
AcDbLine
 10
2215.750138500985
 20
2135.133999999993
 30
0.0
 11
2395.560138500985
 21
2135.133999999992
 31
0.0
  0
LINE
  5
2F7
330
1F
100
AcDbEntity
  8
0
 62
    58
100
AcDbLine
 10
2197.750138500985
 20
2115.577999989991
 30
0.0
 11
2197.750138500985
 21
2135.133999999993
 31
0.0
  0
LINE
  5
2F8
330
1F
100
AcDbEntity
  8
0
 62
    58
100
AcDbLine
 10
2215.750138500985
 20
2135.133999999993
 30
0.0
 11
2215.750138500985
 21
2115.577999989991
 31
0.0
  0
LINE
  5
2F9
330
1F
100
AcDbEntity
  8
0
 62
    58
100
AcDbLine
 10
2413.560138500985
 20
2117.133999999992
 30
0.0
 11
2413.560138500984
 21
1897.96399999999
 31
0.0
  0
LINE
  5
2FA
330
1F
100
AcDbEntity
  8
0
 62
    58
100
AcDbLine
 10
2377.560138500984
 20
2032.548999999992
 30
0.0
 11
2377.560138500985
 21
1982.54899999999
 31
0.0
  0
LINE
  5
2FB
330
1F
100
AcDbEntity
  8
0
 62
    58
100
AcDbLine
 10
2359.560138500985
 20
1982.54899999999
 30
0.0
 11
2359.560138500984
 21
2032.548999999992
 31
0.0
  0
LINE
  5
2FC
330
1F
100
AcDbEntity
  8
0
 62
    58
100
AcDbLine
 10
2028.690138500985
 20
2086.877999989991
 30
0.0
 11
2028.690138500985
 21
2102.877999989991
 31
0.0
  0
ARC
  5
2FD
330
1F
100
AcDbEntity
  8
0
 62
    58
100
AcDbCircle
 10
1940.970138500985
 20
2081.877999989991
 30
0.0
 40
49.99999999999999
100
AcDbArc
 50
90.0000000000004
 51
179.9999999999998
  0
ARC
  5
2FE
330
1F
100
AcDbEntity
  8
0
 62
    58
100
AcDbCircle
 10
1940.970138500985
 20
1927.820000009995
 30
0.0
 40
49.99999999999999
100
AcDbArc
 50
179.9999999999982
 51
269.9999999999998
  0
CIRCLE
  5
2FF
330
1F
100
AcDbEntity
  8
0
 62
    58
100
AcDbCircle
 10
1927.970138500985
 20
2071.848999999993
 30
0.0
 40
4.25
  0
CIRCLE
  5
300
330
1F
100
AcDbEntity
  8
0
 62
    58
100
AcDbCircle
 10
1927.970138500985
 20
1937.848999999993
 30
0.0
 40
4.25
  0
CIRCLE
  5
301
330
1F
100
AcDbEntity
  8
0
 62
    58
100
AcDbCircle
 10
1971.256997382691
 20
2004.848999999993
 30
0.0
 40
41.0
  0
LINE
  5
302
330
1F
100
AcDbEntity
  8
0
 62
    58
100
AcDbLine
 10
1948.690138500984
 20
1928.848999999993
 30
0.0
 11
1948.690138500985
 21
1946.848999999993
 31
0.0
  0
LINE
  5
303
330
1F
100
AcDbEntity
  8
0
 62
    58
100
AcDbLine
 10
1992.970138500985
 20
1946.848999999993
 30
0.0
 11
1948.690138500985
 21
1946.848999999993
 31
0.0
  0
LINE
  5
304
330
1F
100
AcDbEntity
  8
0
 62
    58
100
AcDbLine
 10
1992.970138500985
 20
1946.848999999993
 30
0.0
 11
1992.970138500985
 21
1928.848999999993
 31
0.0
  0
LINE
  5
305
330
1F
100
AcDbEntity
  8
0
 62
    58
100
AcDbLine
 10
1992.970138500985
 20
1928.848999999993
 30
0.0
 11
1948.690138500984
 21
1928.848999999993
 31
0.0
  0
LINE
  5
306
330
1F
100
AcDbEntity
  8
0
 62
    58
100
AcDbLine
 10
1948.690138500985
 20
2062.848999999993
 30
0.0
 11
1948.690138500985
 21
2080.848999999992
 31
0.0
  0
LINE
  5
307
330
1F
100
AcDbEntity
  8
0
 62
    58
100
AcDbLine
 10
1948.690138500985
 20
2062.848999999992
 30
0.0
 11
1992.970138500985
 21
2062.848999999992
 31
0.0
  0
LINE
  5
308
330
1F
100
AcDbEntity
  8
0
 62
    58
100
AcDbLine
 10
1992.970138500985
 20
2080.848999999992
 30
0.0
 11
1992.970138500985
 21
2062.848999999993
 31
0.0
  0
LINE
  5
309
330
1F
100
AcDbEntity
  8
0
 62
    58
100
AcDbLine
 10
1948.690138500985
 20
2080.848999999992
 30
0.0
 11
1992.970138500985
 21
2080.848999999992
 31
0.0
  0
LINE
  5
30A
330
1F
100
AcDbEntity
  8
0
 62
    58
100
AcDbLine
 10
1940.970138500984
 20
1877.820000009995
 30
0.0
 11
2028.690138500984
 21
1877.820000009994
 31
0.0
  0
LINE
  5
30B
330
1F
100
AcDbEntity
  8
0
 62
    58
100
AcDbLine
 10
2028.690138500984
 20
1898.820000009994
 30
0.0
 11
2028.690138500984
 21
1877.820000009994
 31
0.0
  0
LINE
  5
30C
330
1F
100
AcDbEntity
  8
0
 62
    58
100
AcDbLine
 10
2028.690138500984
 20
1898.820000009994
 30
0.0
 11
2016.690138500985
 21
1898.820000009994
 31
0.0
  0
LINE
  5
30D
330
1F
100
AcDbEntity
  8
0
 62
    58
100
AcDbLine
 10
2016.690138500984
 20
1898.820000009994
 30
0.0
 11
2016.690138500984
 21
1895.620000009994
 31
0.0
  0
ARC
  5
30E
330
1F
100
AcDbEntity
  8
0
 62
    58
100
AcDbCircle
 10
2015.090138500984
 20
1895.620000009994
 30
0.0
 40
1.599999999999999
100
AcDbArc
 50
179.9999999999998
 51
359.9999999999998
  0
LINE
  5
30F
330
1F
100
AcDbEntity
  8
0
 62
    58
100
AcDbLine
 10
2013.490138500984
 20
1895.620000009994
 30
0.0
 11
2007.690138500984
 21
1895.620000009994
 31
0.0
  0
LINE
  5
310
330
1F
100
AcDbEntity
  8
0
 62
    58
100
AcDbLine
 10
2007.690138500984
 20
1895.620000009994
 30
0.0
 11
2007.690138500984
 21
1910.020000009994
 31
0.0
  0
LINE
  5
311
330
1F
100
AcDbEntity
  8
0
 62
    58
100
AcDbLine
 10
2007.690138500984
 20
1910.020000009994
 30
0.0
 11
2013.490138500984
 21
1910.020000009994
 31
0.0
  0
ARC
  5
312
330
1F
100
AcDbEntity
  8
0
 62
    58
100
AcDbCircle
 10
2015.090138500984
 20
1910.020000009994
 30
0.0
 40
1.6
100
AcDbArc
 50
359.9999999999998
 51
179.9999999999998
  0
LINE
  5
313
330
1F
100
AcDbEntity
  8
0
 62
    58
100
AcDbLine
 10
2016.690138500985
 20
1910.020000009994
 30
0.0
 11
2016.690138500985
 21
1906.820000009994
 31
0.0
  0
LINE
  5
314
330
1F
100
AcDbEntity
  8
0
 62
    58
100
AcDbLine
 10
2016.690138500985
 20
1906.820000009994
 30
0.0
 11
2028.690138500984
 21
1906.820000009994
 31
0.0
  0
LINE
  5
315
330
1F
100
AcDbEntity
  8
0
 62
    58
100
AcDbLine
 10
2028.690138500985
 20
1922.820000009994
 30
0.0
 11
2028.690138500985
 21
1906.820000009994
 31
0.0
  0
LINE
  5
316
330
1F
100
AcDbEntity
  8
0
 62
    58
100
AcDbLine
 10
2046.690138500985
 20
1922.820000009994
 30
0.0
 11
2028.690138500985
 21
1922.820000009994
 31
0.0
  0
LINE
  5
317
330
1F
100
AcDbEntity
  8
0
 62
    58
100
AcDbLine
 10
2046.690138500985
 20
1922.820000009994
 30
0.0
 11
2046.690138500985
 21
1957.820000009995
 31
0.0
  0
LINE
  5
318
330
1F
100
AcDbEntity
  8
0
 62
    58
100
AcDbLine
 10
2046.690138500985
 20
1957.820000009994
 30
0.0
 11
2028.690138500985
 21
1957.820000009994
 31
0.0
  0
LINE
  5
319
330
1F
100
AcDbEntity
  8
0
 62
    58
100
AcDbLine
 10
2028.690138500985
 20
1957.820000009995
 30
0.0
 11
2028.690138500986
 21
2051.877999989991
 31
0.0
  0
LINE
  5
31A
330
1F
100
AcDbEntity
  8
0
 62
    58
100
AcDbLine
 10
2046.690138500985
 20
2051.877999989991
 30
0.0
 11
2028.690138500985
 21
2051.877999989991
 31
0.0
  0
LINE
  5
31B
330
1F
100
AcDbEntity
  8
0
 62
    58
100
AcDbLine
 10
2046.690138500985
 20
2086.877999989991
 30
0.0
 11
2046.690138500985
 21
2051.877999989991
 31
0.0
  0
LINE
  5
31C
330
1F
100
AcDbEntity
  8
0
 62
    58
100
AcDbLine
 10
2028.690138500985
 20
2086.877999989991
 30
0.0
 11
2046.690138500985
 21
2086.877999989991
 31
0.0
  0
LINE
  5
31D
330
1F
100
AcDbEntity
  8
0
 62
    58
100
AcDbLine
 10
2016.690138500986
 20
2102.877999989991
 30
0.0
 11
2028.690138500986
 21
2102.877999989991
 31
0.0
  0
LINE
  5
31E
330
1F
100
AcDbEntity
  8
0
 62
    58
100
AcDbLine
 10
2016.690138500985
 20
2099.677999989991
 30
0.0
 11
2016.690138500985
 21
2102.877999989991
 31
0.0
  0
ARC
  5
31F
330
1F
100
AcDbEntity
  8
0
 62
    58
100
AcDbCircle
 10
2015.090138500985
 20
2099.677999989991
 30
0.0
 40
1.6
100
AcDbArc
 50
179.9999999999999
 51
359.9999999999999
  0
LINE
  5
320
330
1F
100
AcDbEntity
  8
0
 62
    58
100
AcDbLine
 10
2007.690138500985
 20
2099.677999989991
 30
0.0
 11
2013.490138500985
 21
2099.677999989991
 31
0.0
  0
LINE
  5
321
330
1F
100
AcDbEntity
  8
0
 62
    58
100
AcDbLine
 10
2007.690138500985
 20
2114.077999989991
 30
0.0
 11
2007.690138500985
 21
2099.677999989991
 31
0.0
  0
LINE
  5
322
330
1F
100
AcDbEntity
  8
0
 62
    58
100
AcDbLine
 10
2013.490138500985
 20
2114.077999989991
 30
0.0
 11
2007.690138500985
 21
2114.077999989991
 31
0.0
  0
ARC
  5
323
330
1F
100
AcDbEntity
  8
0
 62
    58
100
AcDbCircle
 10
2015.090138500985
 20
2114.077999989991
 30
0.0
 40
1.599999999999999
100
AcDbArc
 50
359.9999999999999
 51
179.9999999999999
  0
LINE
  5
324
330
1F
100
AcDbEntity
  8
0
 62
    58
100
AcDbLine
 10
2016.690138500986
 20
2110.877999989991
 30
0.0
 11
2016.690138500986
 21
2114.077999989991
 31
0.0
  0
LINE
  5
325
330
1F
100
AcDbEntity
  8
0
 62
    58
100
AcDbLine
 10
2028.690138500986
 20
2110.877999989991
 30
0.0
 11
2016.690138500986
 21
2110.877999989991
 31
0.0
  0
LINE
  5
326
330
1F
100
AcDbEntity
  8
0
 62
    58
100
AcDbLine
 10
2028.690138500986
 20
2110.877999989991
 30
0.0
 11
2028.690138500986
 21
2131.877999989991
 31
0.0
  0
LINE
  5
327
330
1F
100
AcDbEntity
  8
0
 62
    58
100
AcDbLine
 10
1940.970138500985
 20
2131.877999989991
 30
0.0
 11
2028.690138500985
 21
2131.877999989991
 31
0.0
  0
LINE
  5
328
330
1F
100
AcDbEntity
  8
0
 62
    58
100
AcDbLine
 10
1890.970138500985
 20
1927.820000009995
 30
0.0
 11
1890.970138500985
 21
2081.877999989992
 31
0.0
  0
ARC
  5
329
330
1F
100
AcDbEntity
  8
0
 62
    58
100
AcDbCircle
 10
2362.988809468345
 20
1784.624999999992
 30
0.0
 40
29.99999999999999
100
AcDbArc
 50
359.9999999999987
 51
89.99999999999964
  0
ARC
  5
32A
330
1F
100
AcDbEntity
  8
0
 62
    58
100
AcDbCircle
 10
1742.988809468344
 20
1784.624999999995
 30
0.0
 40
29.99999999999999
100
AcDbArc
 50
90.0000000000005
 51
179.9999999999997
  0
ARC
  5
32B
330
1F
100
AcDbEntity
  8
0
 62
    58
100
AcDbCircle
 10
2362.988809468343
 20
1379.314999999992
 30
0.0
 40
29.99999999999999
100
AcDbArc
 50
269.9999999999987
 51
359.9999999999998
  0
ARC
  5
32C
330
1F
100
AcDbEntity
  8
0
 62
    58
100
AcDbCircle
 10
1742.988809468342
 20
1379.314999999996
 30
0.0
 40
29.99999999999999
100
AcDbArc
 50
180.0000000000005
 51
269.9999999999997
  0
CIRCLE
  5
32D
330
1F
100
AcDbEntity
  8
0
 62
    58
100
AcDbCircle
 10
-2252.988809468343
 20
1409.314999999993
 30
-0.0000000000003062
 40
30.0
210
-1.359067354421686E-16
220
4.413268925092090E-31
230
-1.0
  0
CIRCLE
  5
32E
330
1F
100
AcDbEntity
  8
0
 62
    58
100
AcDbCircle
 10
-1852.988809468342
 20
1409.314999999996
 30
-0.0000000000002518
 40
30.0
210
-1.359067354421686E-16
220
4.413268925092090E-31
230
-1.0
  0
CIRCLE
  5
32F
330
1F
100
AcDbEntity
  8
0
 62
    58
100
AcDbCircle
 10
2293.988809468344
 20
1577.096186515067
 30
0.0
 40
4.249999999999976
  0
CIRCLE
  5
330
330
1F
100
AcDbEntity
  8
0
 62
    58
100
AcDbCircle
 10
1811.988809468344
 20
1577.09618651507
 30
0.0
 40
4.249999999999976
  0
LINE
  5
331
330
1F
100
AcDbEntity
  8
0
 62
    58
100
AcDbLine
 10
1820.988809468339
 20
1503.096186515069
 30
0.0
 11
1802.988809468338
 21
1503.096186515069
 31
0.0
  0
LINE
  5
332
330
1F
100
AcDbEntity
  8
0
 62
    58
100
AcDbLine
 10
1802.988809468338
 20
1503.096186515069
 30
0.0
 11
1802.988809468338
 21
1453.09618651507
 31
0.0
  0
LINE
  5
333
330
1F
100
AcDbEntity
  8
0
 62
    58
100
AcDbLine
 10
1820.988809468339
 20
1503.096186515069
 30
0.0
 11
1820.988809468338
 21
1453.09618651507
 31
0.0
  0
LINE
  5
334
330
1F
100
AcDbEntity
  8
0
 62
    58
100
AcDbLine
 10
1802.988809468338
 20
1453.09618651507
 30
0.0
 11
1820.988809468338
 21
1453.09618651507
 31
0.0
  0
LINE
  5
335
330
1F
100
AcDbEntity
  8
0
 62
    58
100
AcDbLine
 10
1820.988809468339
 20
1703.09618651507
 30
0.0
 11
1820.988809468339
 21
1653.09618651507
 31
0.0
  0
LINE
  5
336
330
1F
100
AcDbEntity
  8
0
 62
    58
100
AcDbLine
 10
1820.988809468339
 20
1703.09618651507
 30
0.0
 11
1802.988809468339
 21
1703.09618651507
 31
0.0
  0
LINE
  5
337
330
1F
100
AcDbEntity
  8
0
 62
    58
100
AcDbLine
 10
1802.988809468339
 20
1653.096186515069
 30
0.0
 11
1820.988809468339
 21
1653.09618651507
 31
0.0
  0
LINE
  5
338
330
1F
100
AcDbEntity
  8
0
 62
    58
100
AcDbLine
 10
1802.988809468339
 20
1703.09618651507
 30
0.0
 11
1802.988809468339
 21
1653.096186515069
 31
0.0
  0
LINE
  5
339
330
1F
100
AcDbEntity
  8
0
 62
    58
100
AcDbLine
 10
2284.988809468347
 20
1453.096186515067
 30
0.0
 11
2302.988809468347
 21
1453.096186515067
 31
0.0
  0
LINE
  5
33A
330
1F
100
AcDbEntity
  8
0
 62
    58
100
AcDbLine
 10
2284.988809468347
 20
1453.096186515067
 30
0.0
 11
2284.988809468348
 21
1503.096186515067
 31
0.0
  0
LINE
  5
33B
330
1F
100
AcDbEntity
  8
0
 62
    58
100
AcDbLine
 10
2302.988809468347
 20
1503.096186515067
 30
0.0
 11
2284.988809468348
 21
1503.096186515067
 31
0.0
  0
LINE
  5
33C
330
1F
100
AcDbEntity
  8
0
 62
    58
100
AcDbLine
 10
2302.988809468347
 20
1453.096186515067
 30
0.0
 11
2302.988809468347
 21
1503.096186515067
 31
0.0
  0
LINE
  5
33D
330
1F
100
AcDbEntity
  8
0
 62
    58
100
AcDbLine
 10
2284.988809468349
 20
1653.096186515067
 30
0.0
 11
2302.988809468348
 21
1653.096186515067
 31
0.0
  0
LINE
  5
33E
330
1F
100
AcDbEntity
  8
0
 62
    58
100
AcDbLine
 10
2284.988809468349
 20
1653.096186515067
 30
0.0
 11
2284.988809468349
 21
1703.096186515067
 31
0.0
  0
LINE
  5
33F
330
1F
100
AcDbEntity
  8
0
 62
    58
100
AcDbLine
 10
2302.988809468349
 20
1703.096186515067
 30
0.0
 11
2284.988809468349
 21
1703.096186515067
 31
0.0
  0
LINE
  5
340
330
1F
100
AcDbEntity
  8
0
 62
    58
100
AcDbLine
 10
2302.988809468348
 20
1653.096186515067
 30
0.0
 11
2302.988809468349
 21
1703.096186515067
 31
0.0
  0
LINE
  5
341
330
1F
100
AcDbEntity
  8
0
 62
    58
100
AcDbLine
 10
1742.988809468342
 20
1349.314999999995
 30
0.0
 11
2362.988809468342
 21
1349.314999999992
 31
0.0
  0
LINE
  5
342
330
1F
100
AcDbEntity
  8
0
 62
    58
100
AcDbLine
 10
2392.988809468342
 20
1379.314999999992
 30
0.0
 11
2392.988809468345
 21
1784.624999999991
 31
0.0
  0
LINE
  5
343
330
1F
100
AcDbEntity
  8
0
 62
    58
100
AcDbLine
 10
2362.988809468345
 20
1814.624999999992
 30
0.0
 11
1742.988809468345
 21
1814.624999999995
 31
0.0
  0
LINE
  5
344
330
1F
100
AcDbEntity
  8
0
 62
    58
100
AcDbLine
 10
1712.988809468345
 20
1784.624999999995
 30
0.0
 11
1712.988809468342
 21
1379.314999999995
 31
0.0
  0
ENDSEC
  0
SECTION
  2
OBJECTS
  0
DICTIONARY
  5
C
330
0
100
AcDbDictionary
  3
ACAD_GROUP
350
D
  3
ACAD_LAYOUT
350
1A
  3
ACAD_MATERIAL
350
43
  3
ACAD_MLEADERSTYLE
350
5B
  3
ACAD_MLINESTYLE
350
17
  3
ACAD_PLOTSETTINGS
350
19
  3
ACAD_SCALELIST
350
47
  3
ACAD_VISUALSTYLE
350
2A
  3
ACDBHEADERROUNDTRIPXREC
350
347
  3
ACDBVARIABLEDICTIONARY
350
368
  3
DWGPROPS
350
373
  0
DICTIONARY
  5
374
330
8
100
AcDbDictionary
280
     1
  3
ACAD_XREC_ROUNDTRIP
360
375
  0
DICTIONARY
  5
D
102
{ACAD_REACTORS
330
C
102
}
330
C
100
AcDbDictionary
  0
DICTIONARY
  5
1A
102
{ACAD_REACTORS
330
C
102
}
330
C
100
AcDbDictionary
  0
DICTIONARY
  5
43
102
{ACAD_REACTORS
330
C
102
}
330
C
100
AcDbDictionary
  3
BYBLOCK
350
45
  3
BYLAYER
350
44
  3
GLOBAL
350
46
  0
DICTIONARY
  5
5B
102
{ACAD_REACTORS
330
C
102
}
330
C
100
AcDbDictionary
  3
STANDARD
350
5C
  0
DICTIONARY
  5
17
102
{ACAD_REACTORS
330
C
102
}
330
C
100
AcDbDictionary
  3
STANDARD
350
18
  0
DICTIONARY
  5
19
102
{ACAD_REACTORS
330
C
102
}
330
C
100
AcDbDictionary
  0
DICTIONARY
  5
47
102
{ACAD_REACTORS
330
C
102
}
330
C
100
AcDbDictionary
  3
A0
350
48
  3
A1
350
49
  3
A2
350
4A
  3
A3
350
4B
  3
A4
350
4C
  3
A5
350
4D
  3
A6
350
4E
  3
A7
350
4F
  3
A8
350
50
  3
A9
350
51
  3
B0
350
52
  3
B1
350
53
  3
B2
350
54
  3
B3
350
55
  3
B4
350
56
  3
B5
350
57
  3
B6
350
58
  0
DICTIONARY
  5
2A
102
{ACAD_REACTORS
330
C
102
}
330
C
100
AcDbDictionary
  3
2DWIREFRAME
350
2F
  3
BASIC
350
32
  3
BRIGHTEN
350
36
  3
COLORCHANGE
350
3A
  3
CONCEPTUAL
350
34
  3
DIM
350
35
  3
EDGECOLOROFF
350
3D
  3
FACEPATTERN
350
39
  3
FLAT
350
2B
  3
FLATWITHEDGES
350
2C
  3
GOURAUD
350
2D
  3
GOURAUDWITHEDGES
350
2E
  3
HIDDEN
350
31
  3
JITTEROFF
350
3B
  3
LINEPATTERN
350
38
  3
OVERHANGOFF
350
3C
  3
REALISTIC
350
33
  3
SHADED
350
42
  3
SHADED_WITH_EDGES
350
41
  3
SHADES_OF_GRAY
350
3E
  3
SKETCHY
350
3F
  3
THICKEN
350
37
  3
WIREFRAME
350
30
  3
X-RAY
350
40
  0
DICTIONARY
  5
347
102
{ACAD_REACTORS
330
C
102
}
330
C
100
AcDbDictionary
  3
CEPSNID
350
351
  3
CEPSNTYPE
350
350
  3
DIMSTYLEDATA
350
367
  3
FINGERPRINTGUID
350
352
  3
HYPERLINKBASE
350
34A
  3
INSUNITS
350
34F
  3
LAYOUTDICT
350
34C
  3
LWETCUNION
350
34E
  3
PLOTSETDICT
350
34D
  3
PSVPSCALE
350
354
  3
PUCSBASE
350
357
  3
PUCSORGBACK
350
35D
  3
PUCSORGBOTTOM
350
359
  3
PUCSORGFRONT
350
35C
  3
PUCSORGLEFT
350
35A
  3
PUCSORGRIGHT
350
35B
  3
PUCSORGTOP
350
358
  3
PUCSORTHOREF
350
355
  3
PUCSORTHOVIEW
350
356
  3
STYLESHEET
350
34B
  3
TSTACKALIGN
350
348
  3
TSTACKSIZE
350
349
  3
UCSBASE
350
360
  3
UCSORGBACK
350
366
  3
UCSORGBOTTOM
350
362
  3
UCSORGFRONT
350
365
  3
UCSORGLEFT
350
363
  3
UCSORGRIGHT
350
364
  3
UCSORGTOP
350
361
  3
UCSORTHOREF
350
35E
  3
UCSORTHOVIEW
350
35F
  3
VERSIONGUID
350
353
  0
DICTIONARY
  5
368
102
{ACAD_REACTORS
330
C
102
}
330
C
100
AcDbDictionary
  3
CANNOSCALE
350
376
  3
CENTEREXE
350
36F
  3
CENTERLTYPEFILE
350
370
  3
CMLEADERSTYLE
350
36A
  3
CTABLESTYLE
350
369
  3
DIMASSOC
350
371
  3
HIDETEXT
350
372
  3
MSLTSCALE
350
377
  3
PSOLHEIGHT
350
36C
  3
PSOLWIDTH
350
36B
  0
XRECORD
  5
373
102
{ACAD_REACTORS
330
C
102
}
330
C
100
AcDbXrecord
  1
DWGPROPS COOKIE
  2

  3

  4

  6
File was created by SpaceClaim
  7

  8
rlwoo
  9

300
=
301
=
302
=
303
=
304
=
305
=
306
=
307
=
308
=
309
=
 40
0.0
 41
2460262.632409803
 42
2460262.632410069
  1

 90
        0
  0
XRECORD
  5
375
102
{ACAD_REACTORS
330
374
102
}
330
374
100
AcDbXrecord
102
VTR_0.000_0.000_1.000_1.000_VISUALSTYLE
340
2F
102
VTR_0.000_0.000_1.000_1.000_GRIDDISPLAY
 70
     3
102
VTR_0.000_0.000_1.000_1.000_GRIDMAJOR
 70
     5
102
VTR_0.000_0.000_1.000_1.000_DEFAULTLIGHTING
280
     1
102
VTR_0.000_0.000_1.000_1.000_DEFAULTLIGHTINGTYPE
 70
     1
102
VTR_0.000_0.000_1.000_1.000_BRIGHTNESS
141
0.0
102
VTR_0.000_0.000_1.000_1.000_CONTRAST
142
0.0
  0
MATERIAL
  5
45
102
{ACAD_REACTORS
330
43
102
}
102
{ACAD_XDICTIONARY
360
37A
102
}
330
43
100
AcDbMaterial
  1
BYBLOCK
  0
MATERIAL
  5
44
102
{ACAD_REACTORS
330
43
102
}
102
{ACAD_XDICTIONARY
360
378
102
}
330
43
100
AcDbMaterial
  1
BYLAYER
  0
MATERIAL
  5
46
102
{ACAD_REACTORS
330
43
102
}
102
{ACAD_XDICTIONARY
360
37C
102
}
330
43
100
AcDbMaterial
  1
GLOBAL
  0
ACAD_PROXY_OBJECT
  5
5C
102
{ACAD_REACTORS
330
5B
102
}
330
5B
100
AcDbProxyObject
 90
      499
 91
      505
 93
      610
310
40901902A4063FBFFFFFE0000000000000020400000000000020404214DD185B99185C990000000000000104090141901A00000000000004100000000000000041025764000000000000039000
340
14
340
0
340
11
340
0
 94
        0
1001
ACAD_MLEADERVER
1070
     2
  0
MLINESTYLE
  5
18
102
{ACAD_REACTORS
330
17
102
}
330
17
100
AcDbMlineStyle
  2
Standard
 70
     0
  3

 62
   256
 51
90.0
 52
90.0
 71
     2
 49
0.5
 62
   256
  6
BYLAYER
 49
-0.5
 62
   256
  6
BYLAYER
  0
ACAD_PROXY_OBJECT
  5
48
102
{ACAD_REACTORS
330
47
102
}
330
47
100
AcDbProxyObject
 90
      499
 91
      503
 93
       41
310
903313A31580
  0
ACAD_PROXY_OBJECT
  5
49
102
{ACAD_REACTORS
330
47
102
}
330
47
100
AcDbProxyObject
 90
      499
 91
      503
 93
      105
310
903313A324000000000000004000
  0
ACAD_PROXY_OBJECT
  5
4A
102
{ACAD_REACTORS
330
47
102
}
330
47
100
AcDbProxyObject
 90
      499
 91
      503
 93
      105
310
903313A344000000000000104000
  0
ACAD_PROXY_OBJECT
  5
4B
102
{ACAD_REACTORS
330
47
102
}
330
47
100
AcDbProxyObject
 90
      499
 91
      503
 93
      105
310
903313A354000000000000144000
  0
ACAD_PROXY_OBJECT
  5
4C
102
{ACAD_REACTORS
330
47
102
}
330
47
100
AcDbProxyObject
 90
      499
 91
      503
 93
      105
310
903313A384000000000000204000
  0
ACAD_PROXY_OBJECT
  5
4D
102
{ACAD_REACTORS
330
47
102
}
330
47
100
AcDbProxyObject
 90
      499
 91
      503
 93
      113
310
904313A31304000000000000244000
  0
ACAD_PROXY_OBJECT
  5
4E
102
{ACAD_REACTORS
330
47
102
}
330
47
100
AcDbProxyObject
 90
      499
 91
      503
 93
      113
310
904313A31364000000000000304000
  0
ACAD_PROXY_OBJECT
  5
4F
102
{ACAD_REACTORS
330
47
102
}
330
47
100
AcDbProxyObject
 90
      499
 91
      503
 93
      113
310
904313A32304000000000000344000
  0
ACAD_PROXY_OBJECT
  5
50
102
{ACAD_REACTORS
330
47
102
}
330
47
100
AcDbProxyObject
 90
      499
 91
      503
 93
      113
310
904313A333040000000000003E4000
  0
ACAD_PROXY_OBJECT
  5
51
102
{ACAD_REACTORS
330
47
102
}
330
47
100
AcDbProxyObject
 90
      499
 91
      503
 93
      113
310
904313A34304000000000000444000
  0
ACAD_PROXY_OBJECT
  5
52
102
{ACAD_REACTORS
330
47
102
}
330
47
100
AcDbProxyObject
 90
      499
 91
      503
 93
      113
310
904313A35304000000000000494000
  0
ACAD_PROXY_OBJECT
  5
53
102
{ACAD_REACTORS
330
47
102
}
330
47
100
AcDbProxyObject
 90
      499
 91
      503
 93
      121
310
905313A3130304000000000000594000
  0
ACAD_PROXY_OBJECT
  5
54
102
{ACAD_REACTORS
330
47
102
}
330
47
100
AcDbProxyObject
 90
      499
 91
      503
 93
      105
310
903323A310000000000000010100
  0
ACAD_PROXY_OBJECT
  5
55
102
{ACAD_REACTORS
330
47
102
}
330
47
100
AcDbProxyObject
 90
      499
 91
      503
 93
      105
310
903343A310000000000000410100
  0
ACAD_PROXY_OBJECT
  5
56
102
{ACAD_REACTORS
330
47
102
}
330
47
100
AcDbProxyObject
 90
      499
 91
      503
 93
      105
310
903383A310000000000000810100
  0
ACAD_PROXY_OBJECT
  5
57
102
{ACAD_REACTORS
330
47
102
}
330
47
100
AcDbProxyObject
 90
      499
 91
      503
 93
      113
310
90431303A310000000000000910100
  0
ACAD_PROXY_OBJECT
  5
58
102
{ACAD_REACTORS
330
47
102
}
330
47
100
AcDbProxyObject
 90
      499
 91
      503
 93
      121
310
9053130303A310000000000001650100
  0
ACAD_PROXY_OBJECT
  5
2F
102
{ACAD_REACTORS
330
2A
102
}
330
2A
100
AcDbProxyObject
 90
      499
 91
      501
 93
      436
310
42CC9915DA5C99599C985B595049028333333333333E33F0000000000000F90107901411070040501600405405064090741402480A0340
1001
ACAD
1000
AcDbSavedByObjectVersion
1070
     0
  0
ACAD_PROXY_OBJECT
  5
32
102
{ACAD_REACTORS
330
2A
102
}
330
2A
100
AcDbProxyObject
 90
      499
 91
      501
 93
      388
310
4150985CDA58D07406404333333333333E33F0000000000000F90107A41107004050150841D405064090741402480A0350
1001
ACAD
1000
AcDbSavedByObjectVersion
1070
     0
  0
ACAD_PROXY_OBJECT
  5
36
102
{ACAD_REACTORS
330
2A
102
}
330
2A
100
AcDbProxyObject
 90
      499
 91
      501
 93
      428
310
42109C9A59DA1D195B90C409028333333333333E33F0000000000000F9010790141107004050150841D405064090741402480A029950
1001
ACAD
1000
AcDbSavedByObjectVersion
1070
     0
  0
ACAD_PROXY_OBJECT
  5
3A
102
{ACAD_REACTORS
330
2A
102
}
330
2A
100
AcDbProxyObject
 90
      499
 91
      501
 93
      452
310
42D0DBDB1BDC90DA185B99D95104090240C333333333333E33F0000000000000F90108901411070040501508421405064090741402480A0350
1001
ACAD
1000
AcDbSavedByObjectVersion
1070
     0
  0
ACAD_PROXY_OBJECT
  5
34
102
{ACAD_REACTORS
330
2A
102
}
330
2A
100
AcDbProxyObject
 90
      499
 91
      501
 93
      500
310
4290DBDB98D95C1D1D585B10940D028333333333333E33F0000000000000F90107902409070040501000000000018199010841D405064090740C02480A0340
1001
ACAD
1000
AcDbSavedByObjectVersion
1070
     0
  0
ACAD_PROXY_OBJECT
  5
35
102
{ACAD_REACTORS
330
2A
102
}
330
2A
100
AcDbProxyObject
 90
      499
 91
      501
 93
      412
310
40D11A5B50B409028333333333333E33F0000000000000F9010790141107004050150841D405064090741402480A02677FFFFFD0
1001
ACAD
1000
AcDbSavedByObjectVersion
1070
     0
  0
ACAD_PROXY_OBJECT
  5
3D
102
{ACAD_REACTORS
330
2A
102
}
330
2A
100
AcDbProxyObject
 90
      499
 91
      501
 93
      452
310
43115919D950DBDB1BDC93D999916409028333333333333E33F0000000000000F9010790141107004050150841D405064090741402480A0350
1001
ACAD
1000
AcDbSavedByObjectVersion
1070
     0
  0
ACAD_PROXY_OBJECT
  5
39
102
{ACAD_REACTORS
330
2A
102
}
330
2A
100
AcDbProxyObject
 90
      499
 91
      501
 93
      444
310
42D19858D95C185D1D195C9B90F409028333333333333E33F0000000000000F9010790141107004050150841D405064090741402480A0350
1001
ACAD
1000
AcDbSavedByObjectVersion
1070
     0
  0
ACAD_PROXY_OBJECT
  5
2B
102
{ACAD_REACTORS
330
2A
102
}
330
2A
100
AcDbProxyObject
 90
      499
 91
      501
 93
      380
310
41119B185D240901404333333333333E33F0000000000000F9010740A907004050150841D405064090741402480A1B50
1001
ACAD
1000
AcDbSavedByObjectVersion
1070
     0
  0
ACAD_PROXY_OBJECT
  5
2C
102
{ACAD_REACTORS
330
2A
102
}
330
2A
100
AcDbProxyObject
 90
      499
 91
      501
 93
      468
310
43519B185D15DA5D1A115919D95CD0140901404333333333333E33F0000000000000F90107409019070040501600405405064090741402480A1B50
1001
ACAD
1000
AcDbSavedByObjectVersion
1070
     0
  0
ACAD_PROXY_OBJECT
  5
2D
102
{ACAD_REACTORS
330
2A
102
}
330
2A
100
AcDbProxyObject
 90
      499
 91
      501
 93
      404
310
41D1DBDD5C985D5910240902404333333333333E33F0000000000000F9010740A9070040501641D405064090741402480A1B50
1001
ACAD
1000
AcDbSavedByObjectVersion
1070
     0
  0
ACAD_PROXY_OBJECT
  5
2E
102
{ACAD_REACTORS
330
2A
102
}
330
2A
100
AcDbProxyObject
 90
      499
 91
      501
 93
      492
310
4411DBDD5C985D5915DA5D1A115919D95CD0340902404333333333333E33F0000000000000F90107409019070040501600405405064090741402480A1B50
1001
ACAD
1000
AcDbSavedByObjectVersion
1070
     0
  0
ACAD_PROXY_OBJECT
  5
31
102
{ACAD_REACTORS
330
2A
102
}
330
2A
100
AcDbProxyObject
 90
      499
 91
      501
 93
      476
310
41921A5919195B90640502408333333333333E33F0000000000000F901079024090700405020000000000001110200405405064090740C02480A0340
1001
ACAD
1000
AcDbSavedByObjectVersion
1070
     0
  0
ACAD_PROXY_OBJECT
  5
3B
102
{ACAD_REACTORS
330
2A
102
}
330
2A
100
AcDbProxyObject
 90
      499
 91
      501
 93
      428
310
42529A5D1D195C93D999914409028333333333333E33F0000000000000F9010790141107004050150A41D405064090741402480A0350
1001
ACAD
1000
AcDbSavedByObjectVersion
1070
     0
  0
ACAD_PROXY_OBJECT
  5
38
102
{ACAD_REACTORS
330
2A
102
}
330
2A
100
AcDbProxyObject
 90
      499
 91
      501
 93
      444
310
42D31A5B995C185D1D195C9B90E409028333333333333E33F0000000000000F9010790141107004050750841D405064090741402483A0350
1001
ACAD
1000
AcDbSavedByObjectVersion
1070
     0
  0
ACAD_PROXY_OBJECT
  5
3C
102
{ACAD_REACTORS
330
2A
102
}
330
2A
100
AcDbProxyObject
 90
      499
 91
      501
 93
      444
310
42D3DD995C9A185B99D3D999915409028333333333333E33F0000000000000F9010790141107004050150941D405064090741402480A0350
1001
ACAD
1000
AcDbSavedByObjectVersion
1070
     0
  0
ACAD_PROXY_OBJECT
  5
33
102
{ACAD_REACTORS
330
2A
102
}
330
2A
100
AcDbProxyObject
 90
      499
 91
      501
 93
      428
310
425499585B1A5CDD1A58D08409038333333333333E33F0000000000000F9010740A907004050150800405405064090740C02480A1B40
1001
ACAD
1000
AcDbSavedByObjectVersion
1070
     0
  0
ACAD_PROXY_OBJECT
  5
42
102
{ACAD_REACTORS
330
2A
102
}
330
2A
100
AcDbProxyObject
 90
      499
 91
      501
 93
      420
310
4194DA1859195911B40902404333333333333E33F0000000000000F9010740A41107004050150800405405064090840C02480A0B40
1001
ACAD
1000
AcDbSavedByObjectVersion
1070
     0
  0
ACAD_PROXY_OBJECT
  5
41
102
{ACAD_REACTORS
330
2A
102
}
330
2A
100
AcDbProxyObject
 90
      499
 91
      501
 93
      516
310
4454DA18591959081DDA5D1A08195919D95CD1A40902404333333333333E33F0000000000000F901074090142907004050250800405405064090740C02480A0B40
1001
ACAD
1000
AcDbSavedByObjectVersion
1070
     0
  0
ACAD_PROXY_OBJECT
  5
3E
102
{ACAD_REACTORS
330
2A
102
}
330
2A
100
AcDbProxyObject
 90
      499
 91
      501
 93
      532
310
4394DA1859195CC81BD98811DC985E5174090240C333333333333E33F0000000000000F901079024090741D01000000000000111010841D405064090740C02480A0340
1001
ACAD
1000
AcDbSavedByObjectVersion
1070
     0
  0
ACAD_PROXY_OBJECT
  5
3F
102
{ACAD_REACTORS
330
2A
102
}
330
2A
100
AcDbProxyObject
 90
      499
 91
      501
 93
      476
310
41D4DAD95D18DA1E51840502408333333333333E33F0000000000000F901079024090741D01000000000000111010B41D405064090741802480A0340
1001
ACAD
1000
AcDbSavedByObjectVersion
1070
     0
  0
ACAD_PROXY_OBJECT
  5
37
102
{ACAD_REACTORS
330
2A
102
}
330
2A
100
AcDbProxyObject
 90
      499
 91
      501
 93
      412
310
41D51A1A58DAD95B90D409028333333333333E33F0000000000000F9010790141107004050150C41D405064090741402480A0350
1001
ACAD
1000
AcDbSavedByObjectVersion
1070
     0
  0
ACAD_PROXY_OBJECT
  5
30
102
{ACAD_REACTORS
330
2A
102
}
330
2A
100
AcDbProxyObject
 90
      499
 91
      501
 93
      420
310
4255DA5C99599C985B595059028333333333333E33F0000000000000F90107901411070040501600405405064090740C02480A0340
1001
ACAD
1000
AcDbSavedByObjectVersion
1070
     0
  0
ACAD_PROXY_OBJECT
  5
40
102
{ACAD_REACTORS
330
2A
102
}
330
2A
100
AcDbProxyObject
 90
      499
 91
      501
 93
      404
310
41560B54985E51940902404000000000000E03F0000000000000F9010740501907004050150841D405064090740C02480A1B40
1001
ACAD
1000
AcDbSavedByObjectVersion
1070
     0
  0
XRECORD
  5
351
102
{ACAD_REACTORS
330
347
102
}
330
347
100
AcDbXrecord
340
0
  0
XRECORD
  5
350
102
{ACAD_REACTORS
330
347
102
}
330
347
100
AcDbXrecord
 90
        0
  0
XRECORD
  5
367
102
{ACAD_REACTORS
330
347
102
}
330
347
100
AcDbXrecord
1000
DSTYLE
1002
{
1070
   179
 70
     1
1070
   143
 40
0.0393700787401575
1070
   286
 70
     8
1070
   278
 70
    46
1070
     3
  1
mm
1070
    73
 70
     1
1070
   340
340
11
1002
}
  0
XRECORD
  5
352
102
{ACAD_REACTORS
330
347
102
}
330
347
100
AcDbXrecord
  1
{3d896e93-b629-463e-bede-c4f7dee0ebcf}
  0
XRECORD
  5
34A
102
{ACAD_REACTORS
330
347
102
}
330
347
100
AcDbXrecord
  1

  0
XRECORD
  5
34F
102
{ACAD_REACTORS
330
347
102
}
330
347
100
AcDbXrecord
 90
        4
  0
XRECORD
  5
34C
102
{ACAD_REACTORS
330
347
102
}
330
347
100
AcDbXrecord
340
1A
  0
XRECORD
  5
34E
102
{ACAD_REACTORS
330
347
102
}
330
347
100
AcDbXrecord
 90
    10781
  0
XRECORD
  5
34D
102
{ACAD_REACTORS
330
347
102
}
330
347
100
AcDbXrecord
340
19
  0
XRECORD
  5
354
102
{ACAD_REACTORS
330
347
102
}
330
347
100
AcDbXrecord
 40
0.0
  0
XRECORD
  5
357
102
{ACAD_REACTORS
330
347
102
}
330
347
100
AcDbXrecord
340
0
  0
XRECORD
  5
35D
102
{ACAD_REACTORS
330
347
102
}
330
347
100
AcDbXrecord
 10
0.0
 20
0.0
 30
0.0
  0
XRECORD
  5
359
102
{ACAD_REACTORS
330
347
102
}
330
347
100
AcDbXrecord
 10
0.0
 20
0.0
 30
0.0
  0
XRECORD
  5
35C
102
{ACAD_REACTORS
330
347
102
}
330
347
100
AcDbXrecord
 10
0.0
 20
0.0
 30
0.0
  0
XRECORD
  5
35A
102
{ACAD_REACTORS
330
347
102
}
330
347
100
AcDbXrecord
 10
0.0
 20
0.0
 30
0.0
  0
XRECORD
  5
35B
102
{ACAD_REACTORS
330
347
102
}
330
347
100
AcDbXrecord
 10
0.0
 20
0.0
 30
0.0
  0
XRECORD
  5
358
102
{ACAD_REACTORS
330
347
102
}
330
347
100
AcDbXrecord
 10
0.0
 20
0.0
 30
0.0
  0
XRECORD
  5
355
102
{ACAD_REACTORS
330
347
102
}
330
347
100
AcDbXrecord
340
0
  0
XRECORD
  5
356
102
{ACAD_REACTORS
330
347
102
}
330
347
100
AcDbXrecord
 70
     0
  0
XRECORD
  5
34B
102
{ACAD_REACTORS
330
347
102
}
330
347
100
AcDbXrecord
  1

  0
XRECORD
  5
348
102
{ACAD_REACTORS
330
347
102
}
330
347
100
AcDbXrecord
 90
        1
  0
XRECORD
  5
349
102
{ACAD_REACTORS
330
347
102
}
330
347
100
AcDbXrecord
 90
       70
  0
XRECORD
  5
360
102
{ACAD_REACTORS
330
347
102
}
330
347
100
AcDbXrecord
340
0
  0
XRECORD
  5
366
102
{ACAD_REACTORS
330
347
102
}
330
347
100
AcDbXrecord
 10
0.0
 20
0.0
 30
0.0
  0
XRECORD
  5
362
102
{ACAD_REACTORS
330
347
102
}
330
347
100
AcDbXrecord
 10
0.0
 20
0.0
 30
0.0
  0
XRECORD
  5
365
102
{ACAD_REACTORS
330
347
102
}
330
347
100
AcDbXrecord
 10
0.0
 20
0.0
 30
0.0
  0
XRECORD
  5
363
102
{ACAD_REACTORS
330
347
102
}
330
347
100
AcDbXrecord
 10
0.0
 20
0.0
 30
0.0
  0
XRECORD
  5
364
102
{ACAD_REACTORS
330
347
102
}
330
347
100
AcDbXrecord
 10
0.0
 20
0.0
 30
0.0
  0
XRECORD
  5
361
102
{ACAD_REACTORS
330
347
102
}
330
347
100
AcDbXrecord
 10
0.0
 20
0.0
 30
0.0
  0
XRECORD
  5
35E
102
{ACAD_REACTORS
330
347
102
}
330
347
100
AcDbXrecord
340
0
  0
XRECORD
  5
35F
102
{ACAD_REACTORS
330
347
102
}
330
347
100
AcDbXrecord
 70
     0
  0
XRECORD
  5
353
102
{ACAD_REACTORS
330
347
102
}
330
347
100
AcDbXrecord
  1
{FAEB1C32-E019-11D5-929B-00C0DF256EC4}
  0
DICTIONARYVAR
  5
376
102
{ACAD_REACTORS
330
368
102
}
330
368
100
DictionaryVariables
280
     0
  1
1:1
  0
DICTIONARYVAR
  5
36F
102
{ACAD_REACTORS
330
368
102
}
330
368
100
DictionaryVariables
280
     0
  1
3.500000
  0
DICTIONARYVAR
  5
370
102
{ACAD_REACTORS
330
368
102
}
330
368
100
DictionaryVariables
280
     0
  1
acadiso.lin
  0
DICTIONARYVAR
  5
36A
102
{ACAD_REACTORS
330
368
102
}
330
368
100
DictionaryVariables
280
     0
  1
Standard
  0
DICTIONARYVAR
  5
369
102
{ACAD_REACTORS
330
368
102
}
330
368
100
DictionaryVariables
280
     0
  1
Standard
  0
DICTIONARYVAR
  5
371
102
{ACAD_REACTORS
330
368
102
}
330
368
100
DictionaryVariables
280
     0
  1
2
  0
DICTIONARYVAR
  5
372
102
{ACAD_REACTORS
330
368
102
}
330
368
100
DictionaryVariables
280
     0
  1
1
  0
DICTIONARYVAR
  5
377
102
{ACAD_REACTORS
330
368
102
}
330
368
100
DictionaryVariables
280
     0
  1
1
  0
DICTIONARYVAR
  5
36C
102
{ACAD_REACTORS
330
368
102
}
330
368
100
DictionaryVariables
280
     0
  1
80.000000
  0
DICTIONARYVAR
  5
36B
102
{ACAD_REACTORS
330
368
102
}
330
368
100
DictionaryVariables
280
     0
  1
5.000000
  0
DICTIONARY
  5
37A
330
45
100
AcDbDictionary
280
     1
  3
ACAD_XREC_ROUNDTRIP
360
37B
  0
DICTIONARY
  5
378
330
44
100
AcDbDictionary
280
     1
  3
ACAD_XREC_ROUNDTRIP
360
379
  0
DICTIONARY
  5
37C
330
46
100
AcDbDictionary
280
     1
  3
ACAD_XREC_ROUNDTRIP
360
37D
  0
XRECORD
  5
37B
102
{ACAD_REACTORS
330
37A
102
}
330
37A
100
AcDbXrecord
102
MATERIAL
148
0.0
149
0.0
149
0.0
 93
        0
 94
      127
282
     0
 72
     1
 77
     1
171
     1
175
     1
179
     1
273
     0
  0
XRECORD
  5
379
102
{ACAD_REACTORS
330
378
102
}
330
378
100
AcDbXrecord
102
MATERIAL
148
0.0
149
0.0
149
0.0
 93
        0
 94
      127
282
     0
 72
     1
 77
     1
171
     1
175
     1
179
     1
273
     0
  0
XRECORD
  5
37D
102
{ACAD_REACTORS
330
37C
102
}
330
37C
100
AcDbXrecord
102
MATERIAL
148
0.0
149
0.0
149
0.0
 93
        0
 94
      127
282
     0
 72
     1
 77
     1
171
     1
175
     1
179
     1
273
     0
  0
ENDSEC
  0
EOF
