  0
SECTION
  2
HEADER
  9
$ACADVER
  1
AC1014
  9
$ACADMAINTVER
 70
     9
  9
$DWGCODEPAGE
  3
ANSI_1252
  9
$INSBASE
 10
0.0
 20
0.0
 30
0.0
  9
$EXTMIN
 10
26.43880946833891
 20
19.79363011795714
 30
0.0000039587047595
  9
$EXTMAX
 10
2418.858809468341
 20
1197.05655525793
 30
0.0000039587051386
  9
$LIMMIN
 10
0.0
 20
0.0
  9
$LIMMAX
 10
420.0
 20
297.0
  9
$ORTHOMODE
 70
     0
  9
$REGENMODE
 70
     1
  9
$FILLMODE
 70
     1
  9
$QTEXTMODE
 70
     0
  9
$MIRRTEXT
 70
     1
  9
$DRAGMODE
 70
     2
  9
$LTSCALE
 40
1.0
  9
$OSMODE
 70
    37
  9
$ATTMODE
 70
     1
  9
$TEXTSIZE
 40
2.5
  9
$TRACEWID
 40
1.0
  9
$TEXTSTYLE
  7
STANDARD
  9
$CLAYER
  8
0
  9
$CELTYPE
  6
BYLAYER
  9
$CECOLOR
 62
   256
  9
$CELTSCALE
 40
1.0
  9
$DELOBJ
 70
     1
  9
$DISPSILH
 70
     0
  9
$DIMSCALE
 40
1.0
  9
$DIMASZ
 40
2.5
  9
$DIMEXO
 40
0.625
  9
$DIMDLI
 40
3.75
  9
$DIMRND
 40
0.0
  9
$DIMDLE
 40
0.0
  9
$DIMEXE
 40
1.25
  9
$DIMTP
 40
0.0
  9
$DIMTM
 40
0.0
  9
$DIMTXT
 40
2.5
  9
$DIMCEN
 40
2.5
  9
$DIMTSZ
 40
0.0
  9
$DIMTOL
 70
     0
  9
$DIMLIM
 70
     0
  9
$DIMTIH
 70
     1
  9
$DIMTOH
 70
     0
  9
$DIMSE1
 70
     0
  9
$DIMSE2
 70
     0
  9
$DIMTAD
 70
     1
  9
$DIMZIN
 70
     8
  9
$DIMBLK
  1

  9
$DIMASO
 70
     1
  9
$DIMSHO
 70
     1
  9
$DIMPOST
  1
mm
  9
$DIMAPOST
  1

  9
$DIMALT
 70
     0
  9
$DIMALTD
 70
     3
  9
$DIMALTF
 40
0.0393700787401575
  9
$DIMLFAC
 40
1.0
  9
$DIMTOFL
 70
     1
  9
$DIMTVP
 40
0.0
  9
$DIMTIX
 70
     0
  9
$DIMSOXD
 70
     0
  9
$DIMSAH
 70
     0
  9
$DIMBLK1
  1

  9
$DIMBLK2
  1

  9
$DIMSTYLE
  2
ISO-25
  9
$DIMCLRD
 70
     0
  9
$DIMCLRE
 70
     0
  9
$DIMCLRT
 70
     0
  9
$DIMTFAC
 40
1.0
  9
$DIMGAP
 40
0.625
  9
$DIMJUST
 70
     0
  9
$DIMSD1
 70
     0
  9
$DIMSD2
 70
     0
  9
$DIMTOLJ
 70
     0
  9
$DIMTZIN
 70
     8
  9
$DIMALTZ
 70
     0
  9
$DIMALTTZ
 70
     8
  9
$DIMFIT
 70
     3
  9
$DIMUPT
 70
     0
  9
$DIMUNIT
 70
     2
  9
$DIMDEC
 70
     2
  9
$DIMTDEC
 70
     2
  9
$DIMALTU
 70
     2
  9
$DIMALTTD
 70
     3
  9
$DIMTXSTY
  7
STANDARD
  9
$DIMAUNIT
 70
     0
  9
$LUNITS
 70
     2
  9
$LUPREC
 70
     4
  9
$SKETCHINC
 40
1.0
  9
$FILLETRAD
 40
0.0
  9
$AUNITS
 70
     0
  9
$AUPREC
 70
     0
  9
$MENU
  1
.
  9
$ELEVATION
 40
0.0
  9
$PELEVATION
 40
0.0
  9
$THICKNESS
 40
0.0
  9
$LIMCHECK
 70
     0
  9
$CHAMFERA
 40
0.0
  9
$CHAMFERB
 40
0.0
  9
$CHAMFERC
 40
0.0
  9
$CHAMFERD
 40
0.0
  9
$SKPOLY
 70
     0
  9
$TDCREATE
 40
2460262.38214147
  9
$TDUPDATE
 40
2460262.382141817
  9
$TDINDWG
 40
0.0000000116
  9
$TDUSRTIMER
 40
0.0000000116
  9
$USRTIMER
 70
     1
  9
$ANGBASE
 50
0.0
  9
$ANGDIR
 70
     0
  9
$PDMODE
 70
     0
  9
$PDSIZE
 40
0.0
  9
$PLINEWID
 40
0.0
  9
$COORDS
 70
     1
  9
$SPLFRAME
 70
     0
  9
$SPLINETYPE
 70
     6
  9
$SPLINESEGS
 70
     8
  9
$ATTDIA
 70
     0
  9
$ATTREQ
 70
     1
  9
$HANDLING
 70
     1
  9
$HANDSEED
  5
412
  9
$SURFTAB1
 70
     6
  9
$SURFTAB2
 70
     6
  9
$SURFTYPE
 70
     6
  9
$SURFU
 70
     6
  9
$SURFV
 70
     6
  9
$UCSNAME
  2

  9
$UCSORG
 10
0.0
 20
0.0
 30
0.0
  9
$UCSXDIR
 10
1.0
 20
0.0
 30
0.0
  9
$UCSYDIR
 10
0.0
 20
1.0
 30
0.0
  9
$PUCSNAME
  2

  9
$PUCSORG
 10
0.0
 20
0.0
 30
0.0
  9
$PUCSXDIR
 10
1.0
 20
0.0
 30
0.0
  9
$PUCSYDIR
 10
0.0
 20
1.0
 30
0.0
  9
$USERI1
 70
     0
  9
$USERI2
 70
     0
  9
$USERI3
 70
     0
  9
$USERI4
 70
     0
  9
$USERI5
 70
     0
  9
$USERR1
 40
0.0
  9
$USERR2
 40
0.0
  9
$USERR3
 40
0.0
  9
$USERR4
 40
0.0
  9
$USERR5
 40
0.0
  9
$WORLDVIEW
 70
     1
  9
$SHADEDGE
 70
     3
  9
$SHADEDIF
 70
    70
  9
$TILEMODE
 70
     1
  9
$MAXACTVP
 70
    64
  9
$PINSBASE
 10
0.0
 20
0.0
 30
0.0
  9
$PLIMCHECK
 70
     0
  9
$PEXTMIN
 10
1.000000000000000E+20
 20
1.000000000000000E+20
 30
1.000000000000000E+20
  9
$PEXTMAX
 10
-1.000000000000000E+20
 20
-1.000000000000000E+20
 30
-1.000000000000000E+20
  9
$PLIMMIN
 10
0.0
 20
0.0
  9
$PLIMMAX
 10
420.0
 20
297.0
  9
$UNITMODE
 70
     0
  9
$VISRETAIN
 70
     1
  9
$PLINEGEN
 70
     0
  9
$PSLTSCALE
 70
     1
  9
$TREEDEPTH
 70
  3020
  9
$PICKSTYLE
 70
     1
  9
$CMLSTYLE
  2
STANDARD
  9
$CMLJUST
 70
     0
  9
$CMLSCALE
 40
20.0
  9
$PROXYGRAPHICS
 70
     1
  9
$MEASUREMENT
 70
     1
  0
ENDSEC
  0
SECTION
  2
CLASSES
  0
CLASS
  1
ACDBDICTIONARYWDFLT
  2
AcDbDictionaryWithDefault
  3
ObjectDBX Classes
 90
        0
280
     0
281
     0
  0
CLASS
  1
VISUALSTYLE
  2
AcDbVisualStyle
  3
ObjectDBX Classes
 90
     4095
280
     0
281
     0
  0
CLASS
  1
MATERIAL
  2
AcDbMaterial
  3
ObjectDBX Classes
 90
     1153
280
     0
281
     0
  0
CLASS
  1
SCALE
  2
AcDbScale
  3
ObjectDBX Classes
 90
     1153
280
     0
281
     0
  0
CLASS
  1
TABLESTYLE
  2
AcDbTableStyle
  3
ObjectDBX Classes
 90
     4095
280
     0
281
     0
  0
CLASS
  1
MLEADERSTYLE
  2
AcDbMLeaderStyle
  3
ACDB_MLEADERSTYLE_CLASS
 90
     4095
280
     0
281
     0
  0
CLASS
  1
SUN
  2
AcDbSun
  3
SCENEOE
 90
     1153
280
     0
281
     0
  0
CLASS
  1
DICTIONARYVAR
  2
AcDbDictionaryVar
  3
ObjectDBX Classes
 90
        0
280
     0
281
     0
  0
CLASS
  1
XRECORD
  2
AcDbXrecord
  3
ObjectDBX Classes
 90
        0
280
     0
281
     0
  0
CLASS
  1
LWPOLYLINE
  2
AcDbPolyline
  3
ObjectDBX Classes
 90
        0
280
     0
281
     1
  0
CLASS
  1
HATCH
  2
AcDbHatch
  3
ObjectDBX Classes
 90
        0
280
     0
281
     1
  0
CLASS
  1
ACDBPLACEHOLDER
  2
AcDbPlaceHolder
  3
ObjectDBX Classes
 90
        0
280
     0
281
     0
  0
CLASS
  1
LAYOUT
  2
AcDbLayout
  3
ObjectDBX Classes
 90
        0
280
     0
281
     0
  0
ENDSEC
  0
SECTION
  2
TABLES
  0
TABLE
  2
VPORT
  5
8
102
{ACAD_XDICTIONARY
360
407
102
}
330
0
100
AcDbSymbolTable
 70
     1
  0
VPORT
  5
29
330
8
100
AcDbSymbolTableRecord
100
AcDbViewportTableRecord
  2
*ACTIVE
 70
     0
 10
0.0
 20
0.0
 11
1.0
 21
1.0
 12
1222.64880946834
 22
608.4250926879434
 13
0.0
 23
0.0
 14
10.0
 24
10.0
 15
10.0
 25
10.0
 16
0.0
 26
0.0
 36
1.0
 17
0.0
 27
0.0
 37
0.0
 40
1177.262925139973
 41
2.032188348847859
 42
50.0
 43
0.0
 44
0.0
 50
0.0
 51
0.0
 71
     0
 72
   100
 73
     1
 74
     3
 75
     0
 76
     0
 77
     0
 78
     0
  0
ENDTAB
  0
TABLE
  2
LTYPE
  5
5
330
0
100
AcDbSymbolTable
 70
     2
  0
LTYPE
  5
14
330
5
100
AcDbSymbolTableRecord
100
AcDbLinetypeTableRecord
  2
BYBLOCK
 70
     0
  3

 72
    65
 73
     0
 40
0.0
  0
LTYPE
  5
15
330
5
100
AcDbSymbolTableRecord
100
AcDbLinetypeTableRecord
  2
BYLAYER
 70
     0
  3

 72
    65
 73
     0
 40
0.0
  0
LTYPE
  5
16
330
5
100
AcDbSymbolTableRecord
100
AcDbLinetypeTableRecord
  2
CONTINUOUS
 70
     0
  3
Solid line
 72
    65
 73
     0
 40
0.0
  0
LTYPE
  5
3D9
330
5
100
AcDbSymbolTableRecord
100
AcDbLinetypeTableRecord
  2
HIDDEN
 70
     0
  3
- - - - - - - - - - - - - - - - - - - - -
 72
    65
 73
     2
 40
9.524999999999999
 49
6.35
 74
     0
 49
-3.175
 74
     0
  0
ENDTAB
  0
TABLE
  2
LAYER
  5
2
330
0
100
AcDbSymbolTable
 70
     2
  0
LAYER
  5
10
330
2
100
AcDbSymbolTableRecord
100
AcDbLayerTableRecord
  2
0
 70
     0
 62
   253
  6
CONTINUOUS
  0
LAYER
  5
3D8
330
2
100
AcDbSymbolTableRecord
100
AcDbLayerTableRecord
  2
HIDDEN
 70
     0
 62
    58
  6
HIDDEN
  0
ENDTAB
  0
TABLE
  2
STYLE
  5
3
330
0
100
AcDbSymbolTable
 70
     1
  0
STYLE
  5
11
330
3
100
AcDbSymbolTableRecord
100
AcDbTextStyleTableRecord
  2
STANDARD
 70
     0
 40
0.0
 41
1.0
 50
0.0
 71
     0
 42
2.5
  3
txt
  4

  0
ENDTAB
  0
TABLE
  2
VIEW
  5
6
330
0
100
AcDbSymbolTable
 70
     0
  0
ENDTAB
  0
TABLE
  2
UCS
  5
7
330
0
100
AcDbSymbolTable
 70
     0
  0
ENDTAB
  0
TABLE
  2
APPID
  5
9
330
0
100
AcDbSymbolTable
 70
     2
  0
APPID
  5
12
330
9
100
AcDbSymbolTableRecord
100
AcDbRegAppTableRecord
  2
ACAD
 70
     0
  0
APPID
  5
411
330
9
100
AcDbSymbolTableRecord
100
AcDbRegAppTableRecord
  2
ACAD_MLEADERVER
 70
     0
  0
ENDTAB
  0
TABLE
  2
DIMSTYLE
  5
A
330
0
100
AcDbSymbolTable
 70
     1
  0
DIMSTYLE
105
27
330
A
100
AcDbSymbolTableRecord
100
AcDbDimStyleTableRecord
  2
ISO-25
 70
     0
  3

  4

  5

  6

  7

 40
1.0
 41
2.5
 42
0.625
 43
3.75
 44
1.25
 45
0.0
 46
0.0
 47
0.0
 48
0.0
140
2.5
141
2.5
142
0.0
143
0.03937007874016
144
1.0
145
0.0
146
1.0
147
0.625
 71
     0
 72
     0
 73
     0
 74
     0
 75
     0
 76
     0
 77
     1
 78
     8
170
     0
171
     3
172
     1
173
     0
174
     0
175
     0
176
     0
177
     0
178
     0
270
     2
271
     2
272
     2
273
     2
274
     3
340
11
275
     0
280
     0
281
     0
282
     0
283
     0
284
     8
285
     0
286
     0
287
     3
288
     0
  0
ENDTAB
  0
TABLE
  2
BLOCK_RECORD
  5
1
330
0
100
AcDbSymbolTable
 70
     0
  0
BLOCK_RECORD
  5
1F
330
1
100
AcDbSymbolTableRecord
100
AcDbBlockTableRecord
  2
*MODEL_SPACE
  0
BLOCK_RECORD
  5
1B
330
1
100
AcDbSymbolTableRecord
100
AcDbBlockTableRecord
  2
*PAPER_SPACE
  0
ENDTAB
  0
ENDSEC
  0
SECTION
  2
BLOCKS
  0
BLOCK
  5
20
330
1F
100
AcDbEntity
  8
0
100
AcDbBlockBegin
  2
*MODEL_SPACE
 70
     0
 10
0.0
 20
0.0
 30
0.0
  3
*MODEL_SPACE
  1

  0
ENDBLK
  5
21
330
1F
100
AcDbEntity
  8
0
100
AcDbBlockEnd
  0
BLOCK
  5
1C
330
1B
100
AcDbEntity
 67
     1
  8
0
100
AcDbBlockBegin
  2
*PAPER_SPACE
 70
     0
 10
0.0
 20
0.0
 30
0.0
  3
*PAPER_SPACE
  1

  0
ENDBLK
  5
1D
330
1B
100
AcDbEntity
 67
     1
  8
0
100
AcDbBlockEnd
  0
ENDSEC
  0
SECTION
  2
ENTITIES
  0
LINE
  5
5E
330
1F
100
AcDbEntity
  8
0
 62
    58
100
AcDbLine
 10
1470.638809468343
 20
1140.199999999997
 30
0.0
 11
1470.638809468343
 21
1101.899999999996
 31
0.0
  0
ARC
  5
5F
330
1F
100
AcDbEntity
  8
0
 62
    58
100
AcDbCircle
 10
1439.038809468343
 20
1070.699999999996
 30
0.0
 40
1.600000000000004
100
AcDbArc
 50
180.0000000000192
 51
0.0000000000003562
  0
ARC
  5
60
330
1F
100
AcDbEntity
  8
0
 62
    58
100
AcDbCircle
 10
1433.238809468343
 20
1072.299999999996
 30
0.0
 40
1.6
100
AcDbArc
 50
180.0000000000078
 51
269.9999999999998
  0
ARC
  5
61
330
1F
100
AcDbEntity
  8
0
 62
    58
100
AcDbCircle
 10
1439.038809468343
 20
1085.099999999996
 30
0.0
 40
1.600000000000002
100
AcDbArc
 50
0.0000000000681402
 51
179.9999999999998
  0
ARC
  5
62
330
1F
100
AcDbEntity
  8
0
 62
    58
100
AcDbCircle
 10
1433.238809468343
 20
1083.499999999996
 30
0.0
 40
1.6
100
AcDbArc
 50
90.0000000000081
 51
179.9999999999998
  0
ARC
  5
63
330
1F
100
AcDbEntity
  8
0
 62
    58
100
AcDbCircle
 10
1462.038809468343
 20
1007.699999999997
 30
0.0
 40
1.600000000000004
100
AcDbArc
 50
180.0000000000196
 51
359.9999999999998
  0
ARC
  5
64
330
1F
100
AcDbEntity
  8
0
 62
    58
100
AcDbCircle
 10
1456.238809468342
 20
1009.299999999997
 30
0.0
 40
1.6
100
AcDbArc
 50
180.0000000000078
 51
269.9999999999998
  0
ARC
  5
65
330
1F
100
AcDbEntity
  8
0
 62
    58
100
AcDbCircle
 10
1456.238809468342
 20
1020.499999999997
 30
0.0
 40
1.6
100
AcDbArc
 50
90.0000000000081
 51
179.9999999999998
  0
ARC
  5
66
330
1F
100
AcDbEntity
  8
0
 62
    58
100
AcDbCircle
 10
1462.038809468342
 20
1022.099999999997
 30
0.0
 40
1.600000000000002
100
AcDbArc
 50
0.0000000000683946
 51
179.9999999999998
  0
ARC
  5
67
330
1F
100
AcDbEntity
  8
0
 62
    58
100
AcDbCircle
 10
1406.938809468342
 20
963.6999999999967
 30
0.0
 40
1.5
100
AcDbArc
 50
89.9999999999596
 51
179.9999999999999
  0
ARC
  5
68
330
1F
100
AcDbEntity
  8
0
 62
    58
100
AcDbCircle
 10
1418.238809468342
 20
963.5999999999968
 30
0.0
 40
1.6
100
AcDbArc
 50
359.9999999999885
 51
89.99999999999984
  0
ARC
  5
69
330
1F
100
AcDbEntity
  8
0
 62
    58
100
AcDbCircle
 10
1439.038809468343
 20
1171.399999999996
 30
0.0
 40
1.600000000000002
100
AcDbArc
 50
359.9999999999998
 51
179.9999999999316
  0
ARC
  5
6A
330
1F
100
AcDbEntity
  8
0
 62
    58
100
AcDbCircle
 10
1433.238809468343
 20
1169.799999999996
 30
0.0
 40
1.6
100
AcDbArc
 50
89.9999999999999
 51
179.9999999999919
  0
ARC
  5
6B
330
1F
100
AcDbEntity
  8
0
 62
    58
100
AcDbCircle
 10
1433.238809468343
 20
1158.599999999996
 30
0.0
 40
1.6
100
AcDbArc
 50
179.9999999999999
 51
269.9999999999916
  0
ARC
  5
6C
330
1F
100
AcDbEntity
  8
0
 62
    58
100
AcDbCircle
 10
1439.038809468343
 20
1156.999999999996
 30
0.0
 40
1.600000000000004
100
AcDbArc
 50
179.9999999999998
 51
359.99999999998
  0
ARC
  5
6D
330
1F
100
AcDbEntity
  8
0
 62
    58
100
AcDbCircle
 10
72.23880946834207
 20
1070.700000000004
 30
0.0
 40
1.600000000000004
100
AcDbArc
 50
179.999999999999
 51
359.9999999999922
  0
ARC
  5
6E
330
1F
100
AcDbEntity
  8
0
 62
    58
100
AcDbCircle
 10
78.03880946834211
 20
1072.300000000004
 30
0.0
 40
1.6
100
AcDbArc
 50
269.9999999999995
 51
359.99999999999
  0
ARC
  5
6F
330
1F
100
AcDbEntity
  8
0
 62
    58
100
AcDbCircle
 10
72.23880946834208
 20
1085.100000000004
 30
0.0
 40
1.600000000000002
100
AcDbArc
 50
359.9999999999995
 51
179.9999999999755
  0
ARC
  5
70
330
1F
100
AcDbEntity
  8
0
 62
    58
100
AcDbCircle
 10
78.03880946834211
 20
1083.500000000004
 30
0.0
 40
1.6
100
AcDbArc
 50
359.9999999999995
 51
90.00000000000477
  0
ARC
  5
71
330
1F
100
AcDbEntity
  8
0
 62
    58
100
AcDbCircle
 10
49.23880946834151
 20
1007.700000000005
 30
0.0
 40
1.600000000000004
100
AcDbArc
 50
179.9999999999995
 51
359.9999999999919
  0
ARC
  5
72
330
1F
100
AcDbEntity
  8
0
 62
    58
100
AcDbCircle
 10
55.03880946834153
 20
1009.300000000005
 30
0.0
 40
1.6
100
AcDbArc
 50
269.9999999999995
 51
359.9999999999909
  0
ARC
  5
73
330
1F
100
AcDbEntity
  8
0
 62
    58
100
AcDbCircle
 10
55.03880946834175
 20
1020.500000000005
 30
0.0
 40
1.6
100
AcDbArc
 50
359.9999999999995
 51
90.0000000000032
  0
ARC
  5
74
330
1F
100
AcDbEntity
  8
0
 62
    58
100
AcDbCircle
 10
49.23880946834173
 20
1022.100000000005
 30
0.0
 40
1.600000000000002
100
AcDbArc
 50
359.9999999999995
 51
179.9999999999753
  0
ARC
  5
75
330
1F
100
AcDbEntity
  8
0
 62
    58
100
AcDbCircle
 10
104.3388094683412
 20
963.7000000000045
 30
0.0
 40
1.5
100
AcDbArc
 50
359.9999999999995
 51
89.9999999999913
  0
ARC
  5
76
330
1F
100
AcDbEntity
  8
0
 62
    58
100
AcDbCircle
 10
93.03880946834136
 20
963.6000000000042
 30
0.0
 40
1.6
100
AcDbArc
 50
89.99999999999949
 51
180.0000000000298
  0
ARC
  5
77
330
1F
100
AcDbEntity
  8
0
 62
    58
100
AcDbCircle
 10
72.23880946834296
 20
1171.400000000004
 30
0.0
 40
1.600000000000002
100
AcDbArc
 50
0.0000000000239687
 51
179.9999999999995
  0
ARC
  5
78
330
1F
100
AcDbEntity
  8
0
 62
    58
100
AcDbCircle
 10
78.038809468343
 20
1169.800000000005
 30
0.0
 40
1.6
100
AcDbArc
 50
0.0000000000097198
 51
89.99999999999945
  0
ARC
  5
79
330
1F
100
AcDbEntity
  8
0
 62
    58
100
AcDbCircle
 10
78.03880946834278
 20
1158.600000000004
 30
0.0
 40
1.6
100
AcDbArc
 50
269.9999999999932
 51
359.9999999999995
  0
ARC
  5
7A
330
1F
100
AcDbEntity
  8
0
 62
    58
100
AcDbCircle
 10
72.23880946834274
 20
1157.000000000005
 30
0.0
 40
1.600000000000004
100
AcDbArc
 50
180.0000000000072
 51
359.9999999999995
  0
LINE
  5
7B
330
1F
100
AcDbEntity
  8
0
 62
    58
100
AcDbLine
 10
40.63880946834223
 20
1101.900000000005
 30
0.0
 11
58.63880946834225
 21
1101.900000000005
 31
0.0
  0
LINE
  5
7C
330
1F
100
AcDbEntity
  8
0
 62
    58
100
AcDbLine
 10
58.63880946834269
 20
1140.200000000005
 30
0.0
 11
40.63880946834268
 21
1140.200000000005
 31
0.0
  0
LINE
  5
7D
330
1F
100
AcDbEntity
  8
0
 62
    58
100
AcDbLine
 10
58.63880946834225
 20
1081.900000000004
 30
0.0
 11
58.63880946834225
 21
1101.900000000004
 31
0.0
  0
LINE
  5
7E
330
1F
100
AcDbEntity
  8
0
 62
    58
100
AcDbLine
 10
70.63880946834291
 20
1160.200000000004
 30
0.0
 11
58.63880946834291
 21
1160.200000000005
 31
0.0
  0
LINE
  5
7F
330
1F
100
AcDbEntity
  8
0
 62
    58
100
AcDbLine
 10
70.63880946834291
 20
1157.000000000005
 30
0.0
 11
70.63880946834291
 21
1160.200000000004
 31
0.0
  0
LINE
  5
80
330
1F
100
AcDbEntity
  8
0
 62
    58
100
AcDbLine
 10
78.03880946834276
 20
1157.000000000004
 30
0.0
 11
73.83880946834279
 21
1157.000000000005
 31
0.0
  0
LINE
  5
81
330
1F
100
AcDbEntity
  8
0
 62
    58
100
AcDbLine
 10
79.63880946834283
 20
1169.800000000005
 30
0.0
 11
79.63880946834283
 21
1158.600000000004
 31
0.0
  0
LINE
  5
82
330
1F
100
AcDbEntity
  8
0
 62
    58
100
AcDbLine
 10
73.83880946834279
 20
1171.400000000004
 30
0.0
 11
78.03880946834276
 21
1171.400000000004
 31
0.0
  0
LINE
  5
83
330
1F
100
AcDbEntity
  8
0
 62
    58
100
AcDbLine
 10
58.63880946834291
 20
1168.200000000005
 30
0.0
 11
70.63880946834291
 21
1168.200000000004
 31
0.0
  0
LINE
  5
84
330
1F
100
AcDbEntity
  8
0
 62
    58
100
AcDbLine
 10
70.63880946834291
 20
1168.200000000004
 30
0.0
 11
70.63880946834291
 21
1171.400000000004
 31
0.0
  0
LINE
  5
85
330
1F
100
AcDbEntity
  8
0
 62
    58
100
AcDbLine
 10
746.6388094683422
 20
1024.199999999998
 30
0.0
 11
746.6388094683417
 21
944.1999999999986
 31
0.0
  0
LINE
  5
86
330
1F
100
AcDbEntity
  8
0
 62
    58
100
AcDbLine
 10
35.63880946834078
 20
926.2000000000049
 30
0.0
 11
35.63880946834145
 21
1010.900000000005
 31
0.0
  0
LINE
  5
87
330
1F
100
AcDbEntity
  8
0
 62
    58
100
AcDbLine
 10
75.63880946834081
 20
926.2000000000045
 30
0.0
 11
35.63880946834078
 21
926.2000000000049
 31
0.0
  0
LINE
  5
88
330
1F
100
AcDbEntity
  8
0
 62
    58
100
AcDbLine
 10
75.63880946834104
 20
944.2000000000045
 30
0.0
 11
75.63880946834081
 21
926.2000000000045
 31
0.0
  0
LINE
  5
89
330
1F
100
AcDbEntity
  8
0
 62
    58
100
AcDbLine
 10
94.63880946834117
 20
944.2000000000044
 30
0.0
 11
75.63880946834104
 21
944.2000000000045
 31
0.0
  0
LINE
  5
8A
330
1F
100
AcDbEntity
  8
0
 62
    58
100
AcDbLine
 10
94.63880946834117
 20
956.2000000000044
 30
0.0
 11
94.63880946834117
 21
944.2000000000044
 31
0.0
  0
LINE
  5
8B
330
1F
100
AcDbEntity
  8
0
 62
    58
100
AcDbLine
 10
91.43880946834129
 20
956.2000000000044
 30
0.0
 11
94.63880946834138
 21
956.2000000000044
 31
0.0
  0
ARC
  5
8C
330
1F
100
AcDbEntity
  8
0
 62
    58
100
AcDbCircle
 10
91.4388094683413
 20
957.8000000000044
 30
0.0
 40
1.599999999999997
100
AcDbArc
 50
89.99999999999949
 51
269.9999999999995
  0
LINE
  5
8D
330
1F
100
AcDbEntity
  8
0
 62
    58
100
AcDbLine
 10
91.4388094683413
 20
963.6000000000045
 30
0.0
 11
91.4388094683413
 21
959.4000000000043
 31
0.0
  0
LINE
  5
8E
330
1F
100
AcDbEntity
  8
0
 62
    58
100
AcDbLine
 10
104.3388094683412
 20
965.2000000000043
 30
0.0
 11
93.03880946834136
 21
965.2000000000043
 31
0.0
  0
LINE
  5
8F
330
1F
100
AcDbEntity
  8
0
 62
    58
100
AcDbLine
 10
105.8388094683413
 20
959.4000000000045
 30
0.0
 11
105.8388094683413
 21
963.7000000000045
 31
0.0
  0
ARC
  5
90
330
1F
100
AcDbEntity
  8
0
 62
    58
100
AcDbCircle
 10
105.8388094683413
 20
957.8000000000044
 30
0.0
 40
1.600000000000004
100
AcDbArc
 50
269.9999999999995
 51
89.99999999999947
  0
LINE
  5
91
330
1F
100
AcDbEntity
  8
0
 62
    58
100
AcDbLine
 10
102.6388094683412
 20
956.2000000000044
 30
0.0
 11
105.8388094683413
 21
956.2000000000044
 31
0.0
  0
LINE
  5
92
330
1F
100
AcDbEntity
  8
0
 62
    58
100
AcDbLine
 10
102.6388094683412
 20
944.2000000000044
 30
0.0
 11
102.6388094683412
 21
956.2000000000041
 31
0.0
  0
LINE
  5
93
330
1F
100
AcDbEntity
  8
0
 62
    58
100
AcDbLine
 10
85.63880946834193
 20
1052.900000000004
 30
0.0
 11
58.63880946834202
 21
1052.900000000004
 31
0.0
  0
LINE
  5
94
330
1F
100
AcDbEntity
  8
0
 62
    58
100
AcDbLine
 10
85.63880946834193
 20
1034.900000000004
 30
0.0
 11
85.63880946834193
 21
1052.900000000004
 31
0.0
  0
LINE
  5
95
330
1F
100
AcDbEntity
  8
0
 62
    58
100
AcDbLine
 10
35.63880946834167
 20
1034.900000000005
 30
0.0
 11
85.6388094683417
 21
1034.900000000004
 31
0.0
  0
LINE
  5
96
330
1F
100
AcDbEntity
  8
0
 62
    58
100
AcDbLine
 10
35.63880946834145
 20
1018.900000000005
 30
0.0
 11
35.6388094683419
 21
1034.900000000005
 31
0.0
  0
LINE
  5
97
330
1F
100
AcDbEntity
  8
0
 62
    58
100
AcDbLine
 10
47.63880946834168
 20
1022.100000000005
 30
0.0
 11
47.63880946834146
 21
1018.900000000005
 31
0.0
  0
LINE
  5
98
330
1F
100
AcDbEntity
  8
0
 62
    58
100
AcDbLine
 10
47.63880946834146
 20
1018.900000000005
 30
0.0
 11
35.63880946834145
 21
1018.900000000005
 31
0.0
  0
LINE
  5
99
330
1F
100
AcDbEntity
  8
0
 62
    58
100
AcDbLine
 10
55.03880946834175
 20
1022.100000000005
 30
0.0
 11
50.83880946834177
 21
1022.100000000005
 31
0.0
  0
LINE
  5
9A
330
1F
100
AcDbEntity
  8
0
 62
    58
100
AcDbLine
 10
56.63880946834136
 20
1009.300000000005
 30
0.0
 11
56.63880946834158
 21
1020.500000000005
 31
0.0
  0
LINE
  5
9B
330
1F
100
AcDbEntity
  8
0
 62
    58
100
AcDbLine
 10
50.83880946834133
 20
1007.700000000005
 30
0.0
 11
55.03880946834131
 21
1007.700000000005
 31
0.0
  0
LINE
  5
9C
330
1F
100
AcDbEntity
  8
0
 62
    58
100
AcDbLine
 10
47.63880946834146
 20
1010.900000000005
 30
0.0
 11
47.63880946834146
 21
1007.700000000005
 31
0.0
  0
LINE
  5
9D
330
1F
100
AcDbEntity
  8
0
 62
    58
100
AcDbLine
 10
35.63880946834145
 20
1010.900000000005
 30
0.0
 11
47.63880946834146
 21
1010.900000000005
 31
0.0
  0
LINE
  5
9E
330
1F
100
AcDbEntity
  8
0
 62
    58
100
AcDbLine
 10
58.63880946834269
 20
1140.200000000005
 30
0.0
 11
58.63880946834291
 21
1160.200000000005
 31
0.0
  0
LINE
  5
9F
330
1F
100
AcDbEntity
  8
0
 62
    58
100
AcDbLine
 10
58.63880946834291
 20
1168.200000000005
 30
0.0
 11
58.63880946834313
 21
1194.200000000004
 31
0.0
  0
LINE
  5
A0
330
1F
100
AcDbEntity
  8
0
 62
    58
100
AcDbLine
 10
58.6388094683418
 20
1052.900000000004
 30
0.0
 11
58.63880946834202
 21
1073.900000000004
 31
0.0
  0
LINE
  5
A1
330
1F
100
AcDbEntity
  8
0
 62
    58
100
AcDbLine
 10
70.63880946834226
 20
1085.100000000004
 30
0.0
 11
70.63880946834203
 21
1081.900000000004
 31
0.0
  0
LINE
  5
A2
330
1F
100
AcDbEntity
  8
0
 62
    58
100
AcDbLine
 10
70.63880946834203
 20
1081.900000000004
 30
0.0
 11
58.63880946834202
 21
1081.900000000004
 31
0.0
  0
LINE
  5
A3
330
1F
100
AcDbEntity
  8
0
 62
    58
100
AcDbLine
 10
78.03880946834234
 20
1085.100000000004
 30
0.0
 11
73.83880946834213
 21
1085.100000000004
 31
0.0
  0
LINE
  5
A4
330
1F
100
AcDbEntity
  8
0
 62
    58
100
AcDbLine
 10
79.63880946834193
 20
1072.300000000004
 30
0.0
 11
79.63880946834216
 21
1083.500000000004
 31
0.0
  0
LINE
  5
A5
330
1F
100
AcDbEntity
  8
0
 62
    58
100
AcDbLine
 10
73.83880946834189
 20
1070.700000000004
 30
0.0
 11
78.03880946834211
 21
1070.700000000004
 31
0.0
  0
LINE
  5
A6
330
1F
100
AcDbEntity
  8
0
 62
    58
100
AcDbLine
 10
70.63880946834205
 20
1073.900000000004
 30
0.0
 11
70.63880946834203
 21
1070.700000000004
 31
0.0
  0
LINE
  5
A7
330
1F
100
AcDbEntity
  8
0
 62
    58
100
AcDbLine
 10
58.63880946834202
 20
1073.900000000004
 30
0.0
 11
70.63880946834205
 21
1073.900000000004
 31
0.0
  0
LINE
  5
A8
330
1F
100
AcDbEntity
  8
0
 62
    58
100
AcDbLine
 10
746.6388094683418
 20
944.1999999999986
 30
0.0
 11
102.6388094683413
 21
944.2000000000044
 31
0.0
  0
LINE
  5
A9
330
1F
100
AcDbEntity
  8
0
 62
    58
100
AcDbLine
 10
40.63880946834268
 20
1140.200000000005
 30
0.0
 11
40.63880946834223
 21
1101.900000000005
 31
0.0
  0
LINE
  5
AA
330
1F
100
AcDbEntity
  8
0
 62
    58
100
AcDbLine
 10
1470.638809468343
 20
1101.899999999996
 30
0.0
 11
1452.638809468343
 21
1101.899999999996
 31
0.0
  0
LINE
  5
AB
330
1F
100
AcDbEntity
  8
0
 62
    58
100
AcDbLine
 10
1452.638809468343
 20
1140.199999999997
 30
0.0
 11
1470.638809468343
 21
1140.199999999997
 31
0.0
  0
LINE
  5
AC
330
1F
100
AcDbEntity
  8
0
 62
    58
100
AcDbLine
 10
1452.638809468343
 20
1081.899999999996
 30
0.0
 11
1452.638809468343
 21
1101.899999999996
 31
0.0
  0
LINE
  5
AD
330
1F
100
AcDbEntity
  8
0
 62
    58
100
AcDbLine
 10
1452.638809468343
 20
1140.199999999997
 30
0.0
 11
1452.638809468343
 21
1160.199999999997
 31
0.0
  0
LINE
  5
AE
330
1F
100
AcDbEntity
  8
0
 62
    58
100
AcDbLine
 10
1440.638809468343
 20
1160.199999999997
 30
0.0
 11
1452.638809468343
 21
1160.199999999997
 31
0.0
  0
LINE
  5
AF
330
1F
100
AcDbEntity
  8
0
 62
    58
100
AcDbLine
 10
1440.638809468343
 20
1156.999999999996
 30
0.0
 11
1440.638809468343
 21
1160.199999999997
 31
0.0
  0
LINE
  5
B0
330
1F
100
AcDbEntity
  8
0
 62
    58
100
AcDbLine
 10
1433.238809468343
 20
1156.999999999996
 30
0.0
 11
1437.438809468343
 21
1156.999999999996
 31
0.0
  0
LINE
  5
B1
330
1F
100
AcDbEntity
  8
0
 62
    58
100
AcDbLine
 10
1431.638809468343
 20
1169.799999999996
 30
0.0
 11
1431.638809468343
 21
1158.599999999996
 31
0.0
  0
LINE
  5
B2
330
1F
100
AcDbEntity
  8
0
 62
    58
100
AcDbLine
 10
1437.438809468343
 20
1171.399999999996
 30
0.0
 11
1433.238809468343
 21
1171.399999999996
 31
0.0
  0
LINE
  5
B3
330
1F
100
AcDbEntity
  8
0
 62
    58
100
AcDbLine
 10
1440.638809468343
 20
1168.199999999997
 30
0.0
 11
1440.638809468343
 21
1171.399999999996
 31
0.0
  0
LINE
  5
B4
330
1F
100
AcDbEntity
  8
0
 62
    58
100
AcDbLine
 10
1452.638809468343
 20
1168.199999999997
 30
0.0
 11
1440.638809468343
 21
1168.199999999997
 31
0.0
  0
LINE
  5
B5
330
1F
100
AcDbEntity
  8
0
 62
    58
100
AcDbLine
 10
1452.638809468343
 20
1168.199999999997
 30
0.0
 11
1452.638809468343
 21
1194.199999999996
 31
0.0
  0
LINE
  5
B6
330
1F
100
AcDbEntity
  8
0
 62
    58
100
AcDbLine
 10
58.63880946834313
 20
1194.2
 30
0.0
 11
1452.638809468343
 21
1194.199999999996
 31
0.0
  0
LINE
  5
B7
330
1F
100
AcDbEntity
  8
0
 62
    58
100
AcDbLine
 10
764.6388094683421
 20
1024.199999999998
 30
0.0
 11
746.6388094683422
 21
1024.199999999998
 31
0.0
  0
LINE
  5
B8
330
1F
100
AcDbEntity
  8
0
 62
    58
100
AcDbLine
 10
764.6388094683421
 20
1024.199999999998
 30
0.0
 11
764.6388094683417
 21
944.1999999999983
 31
0.0
  0
LINE
  5
B9
330
1F
100
AcDbEntity
  8
0
 62
    58
100
AcDbLine
 10
764.6388094683418
 20
944.1999999999983
 30
0.0
 11
1408.638809468343
 21
944.1999999999967
 31
0.0
  0
LINE
  5
BA
330
1F
100
AcDbEntity
  8
0
 62
    58
100
AcDbLine
 10
1408.638809468342
 20
944.1999999999967
 30
0.0
 11
1408.638809468342
 21
956.1999999999967
 31
0.0
  0
LINE
  5
BB
330
1F
100
AcDbEntity
  8
0
 62
    58
100
AcDbLine
 10
1408.638809468342
 20
956.1999999999967
 30
0.0
 11
1405.438809468342
 21
956.1999999999967
 31
0.0
  0
ARC
  5
BC
330
1F
100
AcDbEntity
  8
0
 62
    58
100
AcDbCircle
 10
1405.438809468342
 20
957.7999999999968
 30
0.0
 40
1.600000000000004
100
AcDbArc
 50
89.99999999999984
 51
269.9999999999998
  0
LINE
  5
BD
330
1F
100
AcDbEntity
  8
0
 62
    58
100
AcDbLine
 10
1405.438809468342
 20
959.3999999999968
 30
0.0
 11
1405.438809468342
 21
963.6999999999967
 31
0.0
  0
LINE
  5
BE
330
1F
100
AcDbEntity
  8
0
 62
    58
100
AcDbLine
 10
1406.938809468342
 20
965.1999999999967
 30
0.0
 11
1418.238809468342
 21
965.1999999999966
 31
0.0
  0
LINE
  5
BF
330
1F
100
AcDbEntity
  8
0
 62
    58
100
AcDbLine
 10
1419.838809468343
 20
963.5999999999968
 30
0.0
 11
1419.838809468343
 21
959.3999999999966
 31
0.0
  0
ARC
  5
C0
330
1F
100
AcDbEntity
  8
0
 62
    58
100
AcDbCircle
 10
1419.838809468342
 20
957.7999999999968
 30
0.0
 40
1.599999999999997
100
AcDbArc
 50
269.9999999999998
 51
89.99999999999986
  0
LINE
  5
C1
330
1F
100
AcDbEntity
  8
0
 62
    58
100
AcDbLine
 10
1419.838809468342
 20
956.1999999999967
 30
0.0
 11
1416.638809468342
 21
956.1999999999967
 31
0.0
  0
LINE
  5
C2
330
1F
100
AcDbEntity
  8
0
 62
    58
100
AcDbLine
 10
1416.638809468342
 20
956.1999999999967
 30
0.0
 11
1416.638809468342
 21
944.1999999999967
 31
0.0
  0
LINE
  5
C3
330
1F
100
AcDbEntity
  8
0
 62
    58
100
AcDbLine
 10
1416.638809468342
 20
944.1999999999967
 30
0.0
 11
1435.638809468342
 21
944.1999999999967
 31
0.0
  0
LINE
  5
C4
330
1F
100
AcDbEntity
  8
0
 62
    58
100
AcDbLine
 10
1435.638809468342
 20
944.1999999999967
 30
0.0
 11
1435.638809468342
 21
926.1999999999967
 31
0.0
  0
LINE
  5
C5
330
1F
100
AcDbEntity
  8
0
 62
    58
100
AcDbLine
 10
1435.638809468342
 20
926.1999999999967
 30
0.0
 11
1475.638809468342
 21
926.1999999999966
 31
0.0
  0
LINE
  5
C6
330
1F
100
AcDbEntity
  8
0
 62
    58
100
AcDbLine
 10
1475.638809468342
 20
926.1999999999966
 30
0.0
 11
1475.638809468343
 21
1010.899999999997
 31
0.0
  0
LINE
  5
C7
330
1F
100
AcDbEntity
  8
0
 62
    58
100
AcDbLine
 10
1475.638809468343
 20
1010.899999999997
 30
0.0
 11
1463.638809468343
 21
1010.899999999997
 31
0.0
  0
LINE
  5
C8
330
1F
100
AcDbEntity
  8
0
 62
    58
100
AcDbLine
 10
1463.638809468343
 20
1010.899999999997
 30
0.0
 11
1463.638809468343
 21
1007.699999999997
 31
0.0
  0
LINE
  5
C9
330
1F
100
AcDbEntity
  8
0
 62
    58
100
AcDbLine
 10
1460.438809468342
 20
1007.699999999997
 30
0.0
 11
1456.238809468342
 21
1007.699999999997
 31
0.0
  0
LINE
  5
CA
330
1F
100
AcDbEntity
  8
0
 62
    58
100
AcDbLine
 10
1454.638809468343
 20
1009.299999999997
 30
0.0
 11
1454.638809468343
 21
1020.499999999997
 31
0.0
  0
LINE
  5
CB
330
1F
100
AcDbEntity
  8
0
 62
    58
100
AcDbLine
 10
1456.238809468342
 20
1022.099999999997
 30
0.0
 11
1460.438809468342
 21
1022.099999999997
 31
0.0
  0
LINE
  5
CC
330
1F
100
AcDbEntity
  8
0
 62
    58
100
AcDbLine
 10
1463.638809468343
 20
1022.099999999997
 30
0.0
 11
1463.638809468343
 21
1018.899999999997
 31
0.0
  0
LINE
  5
CD
330
1F
100
AcDbEntity
  8
0
 62
    58
100
AcDbLine
 10
1463.638809468343
 20
1018.899999999997
 30
0.0
 11
1475.638809468343
 21
1018.899999999997
 31
0.0
  0
LINE
  5
CE
330
1F
100
AcDbEntity
  8
0
 62
    58
100
AcDbLine
 10
1475.638809468343
 20
1018.899999999997
 30
0.0
 11
1475.638809468343
 21
1034.899999999997
 31
0.0
  0
LINE
  5
CF
330
1F
100
AcDbEntity
  8
0
 62
    58
100
AcDbLine
 10
1475.638809468343
 20
1034.899999999997
 30
0.0
 11
1425.638809468343
 21
1034.899999999997
 31
0.0
  0
LINE
  5
D0
330
1F
100
AcDbEntity
  8
0
 62
    58
100
AcDbLine
 10
1425.638809468343
 20
1034.899999999997
 30
0.0
 11
1425.638809468343
 21
1052.899999999996
 31
0.0
  0
LINE
  5
D1
330
1F
100
AcDbEntity
  8
0
 62
    58
100
AcDbLine
 10
1425.638809468343
 20
1052.899999999996
 30
0.0
 11
1452.638809468343
 21
1052.899999999996
 31
0.0
  0
LINE
  5
D2
330
1F
100
AcDbEntity
  8
0
 62
    58
100
AcDbLine
 10
1452.638809468343
 20
1052.899999999996
 30
0.0
 11
1452.638809468343
 21
1073.899999999996
 31
0.0
  0
LINE
  5
D3
330
1F
100
AcDbEntity
  8
0
 62
    58
100
AcDbLine
 10
1452.638809468343
 20
1073.899999999996
 30
0.0
 11
1440.638809468343
 21
1073.899999999996
 31
0.0
  0
LINE
  5
D4
330
1F
100
AcDbEntity
  8
0
 62
    58
100
AcDbLine
 10
1440.638809468343
 20
1073.899999999996
 30
0.0
 11
1440.638809468343
 21
1070.699999999996
 31
0.0
  0
LINE
  5
D5
330
1F
100
AcDbEntity
  8
0
 62
    58
100
AcDbLine
 10
1437.438809468343
 20
1070.699999999996
 30
0.0
 11
1433.238809468343
 21
1070.699999999996
 31
0.0
  0
LINE
  5
D6
330
1F
100
AcDbEntity
  8
0
 62
    58
100
AcDbLine
 10
1431.638809468343
 20
1072.299999999996
 30
0.0
 11
1431.638809468343
 21
1083.499999999996
 31
0.0
  0
LINE
  5
D7
330
1F
100
AcDbEntity
  8
0
 62
    58
100
AcDbLine
 10
1433.238809468343
 20
1085.099999999996
 30
0.0
 11
1437.438809468343
 21
1085.099999999996
 31
0.0
  0
LINE
  5
D8
330
1F
100
AcDbEntity
  8
0
 62
    58
100
AcDbLine
 10
1440.638809468343
 20
1085.099999999996
 30
0.0
 11
1440.638809468343
 21
1081.899999999996
 31
0.0
  0
LINE
  5
D9
330
1F
100
AcDbEntity
  8
0
 62
    58
100
AcDbLine
 10
1440.638809468343
 20
1081.899999999996
 30
0.0
 11
1452.638809468343
 21
1081.899999999996
 31
0.0
  0
LINE
  5
DA
330
1F
100
AcDbEntity
  8
0
 62
    58
100
AcDbLine
 10
1463.118809468342
 20
550.7399999999967
 30
0.0
 11
1463.118809468342
 21
512.4399999999964
 31
0.0
  0
ARC
  5
DB
330
1F
100
AcDbEntity
  8
0
 62
    58
100
AcDbCircle
 10
1431.518809468341
 20
481.2399999999965
 30
0.0
 40
1.600000000000004
100
AcDbArc
 50
180.0000000000049
 51
0.0000000000003562
  0
ARC
  5
DC
330
1F
100
AcDbEntity
  8
0
 62
    58
100
AcDbCircle
 10
1425.718809468341
 20
482.8399999999965
 30
0.0
 40
1.6
100
AcDbArc
 50
179.9999999999885
 51
269.9999999999998
  0
ARC
  5
DD
330
1F
100
AcDbEntity
  8
0
 62
    58
100
AcDbCircle
 10
1431.518809468341
 20
495.6399999999965
 30
0.0
 40
1.600000000000002
100
AcDbArc
 50
0.0000000000227473
 51
179.9999999999998
  0
ARC
  5
DE
330
1F
100
AcDbEntity
  8
0
 62
    58
100
AcDbCircle
 10
1425.718809468341
 20
494.0399999999965
 30
0.0
 40
1.6
100
AcDbArc
 50
90.0000000000081
 51
179.9999999999998
  0
ARC
  5
DF
330
1F
100
AcDbEntity
  8
0
 62
    58
100
AcDbCircle
 10
1454.518809468341
 20
418.2399999999967
 30
0.0
 40
1.600000000000004
100
AcDbArc
 50
180.0000000000053
 51
359.9999999999998
  0
ARC
  5
E0
330
1F
100
AcDbEntity
  8
0
 62
    58
100
AcDbCircle
 10
1448.718809468341
 20
419.8399999999968
 30
0.0
 40
1.6
100
AcDbArc
 50
179.9999999999886
 51
269.9999999999998
  0
ARC
  5
E1
330
1F
100
AcDbEntity
  8
0
 62
    58
100
AcDbCircle
 10
1448.718809468341
 20
431.0399999999968
 30
0.0
 40
1.6
100
AcDbArc
 50
90.0000000000081
 51
179.9999999999998
  0
ARC
  5
E2
330
1F
100
AcDbEntity
  8
0
 62
    58
100
AcDbCircle
 10
1454.518809468341
 20
432.6399999999967
 30
0.0
 40
1.600000000000002
100
AcDbArc
 50
0.0000000000230018
 51
179.9999999999998
  0
ARC
  5
E3
330
1F
100
AcDbEntity
  8
0
 62
    58
100
AcDbCircle
 10
1399.418809468341
 20
374.2399999999969
 30
0.0
 40
1.5
100
AcDbArc
 50
89.99999999995818
 51
179.9999999999999
  0
ARC
  5
E4
330
1F
100
AcDbEntity
  8
0
 62
    58
100
AcDbCircle
 10
1410.718809468341
 20
374.1399999999969
 30
0.0
 40
1.6
100
AcDbArc
 50
359.9999999999885
 51
89.99999999999984
  0
ARC
  5
E5
330
1F
100
AcDbEntity
  8
0
 62
    58
100
AcDbCircle
 10
1431.518809468341
 20
581.9399999999968
 30
0.0
 40
1.600000000000002
100
AcDbArc
 50
359.9999999999998
 51
179.9999999999679
  0
ARC
  5
E6
330
1F
100
AcDbEntity
  8
0
 62
    58
100
AcDbCircle
 10
1425.718809468342
 20
580.3399999999967
 30
0.0
 40
1.6
100
AcDbArc
 50
89.9999999999999
 51
180.0000000000112
  0
ARC
  5
E7
330
1F
100
AcDbEntity
  8
0
 62
    58
100
AcDbCircle
 10
1425.718809468342
 20
569.1399999999968
 30
0.0
 40
1.6
100
AcDbArc
 50
179.9999999999999
 51
269.9999999999769
  0
ARC
  5
E8
330
1F
100
AcDbEntity
  8
0
 62
    58
100
AcDbCircle
 10
1431.518809468341
 20
567.5399999999967
 30
0.0
 40
1.600000000000004
100
AcDbArc
 50
179.9999999999998
 51
359.9999999999916
  0
ARC
  5
E9
330
1F
100
AcDbEntity
  8
0
 62
    58
100
AcDbCircle
 10
64.71880946834077
 20
481.2400000000044
 30
0.0
 40
1.600000000000004
100
AcDbArc
 50
179.999999999999
 51
0.0000000000069718
  0
ARC
  5
EA
330
1F
100
AcDbEntity
  8
0
 62
    58
100
AcDbCircle
 10
70.5188094683408
 20
482.8400000000043
 30
0.0
 40
1.6
100
AcDbArc
 50
269.9999999999995
 51
359.9999999999966
  0
ARC
  5
EB
330
1F
100
AcDbEntity
  8
0
 62
    58
100
AcDbCircle
 10
64.71880946834078
 20
495.6400000000044
 30
0.0
 40
1.600000000000002
100
AcDbArc
 50
359.9999999999995
 51
180.0000000000208
  0
ARC
  5
EC
330
1F
100
AcDbEntity
  8
0
 62
    58
100
AcDbCircle
 10
70.5188094683408
 20
494.0400000000043
 30
0.0
 40
1.6
100
AcDbArc
 50
359.9999999999995
 51
90.00000000000477
  0
ARC
  5
ED
330
1F
100
AcDbEntity
  8
0
 62
    58
100
AcDbCircle
 10
41.7188094683402
 20
418.2400000000048
 30
0.0
 40
1.600000000000004
100
AcDbArc
 50
179.9999999999995
 51
0.000000000006412
  0
ARC
  5
EE
330
1F
100
AcDbEntity
  8
0
 62
    58
100
AcDbCircle
 10
47.51880946834023
 20
419.8400000000049
 30
0.0
 40
1.6
100
AcDbArc
 50
269.9999999999995
 51
359.9999999999976
  0
ARC
  5
EF
330
1F
100
AcDbEntity
  8
0
 62
    58
100
AcDbCircle
 10
47.51880946834023
 20
431.0400000000049
 30
0.0
 40
1.6
100
AcDbArc
 50
359.9999999999995
 51
90.0000000000032
  0
ARC
  5
F0
330
1F
100
AcDbEntity
  8
0
 62
    58
100
AcDbCircle
 10
41.7188094683402
 20
432.6400000000049
 30
0.0
 40
1.600000000000002
100
AcDbArc
 50
359.9999999999995
 51
180.0000000000206
  0
ARC
  5
F1
330
1F
100
AcDbEntity
  8
0
 62
    58
100
AcDbCircle
 10
96.81880946833968
 20
374.2400000000044
 30
0.0
 40
1.5
100
AcDbArc
 50
359.9999999999995
 51
90.00000000000718
  0
ARC
  5
F2
330
1F
100
AcDbEntity
  8
0
 62
    58
100
AcDbCircle
 10
85.51880946833981
 20
374.1400000000045
 30
0.0
 40
1.6
100
AcDbArc
 50
89.99999999999949
 51
179.9999999999966
  0
ARC
  5
F3
330
1F
100
AcDbEntity
  8
0
 62
    58
100
AcDbCircle
 10
64.71880946834168
 20
581.9400000000047
 30
0.0
 40
1.600000000000002
100
AcDbArc
 50
359.9999999999876
 51
179.9999999999995
  0
ARC
  5
F4
330
1F
100
AcDbEntity
  8
0
 62
    58
100
AcDbCircle
 10
70.5188094683417
 20
580.3400000000045
 30
0.0
 40
1.6
100
AcDbArc
 50
359.9999999999917
 51
89.99999999999945
  0
ARC
  5
F5
330
1F
100
AcDbEntity
  8
0
 62
    58
100
AcDbCircle
 10
70.51880946834147
 20
569.1400000000045
 30
0.0
 40
1.6
100
AcDbArc
 50
270.000000000013
 51
359.9999999999995
  0
ARC
  5
F6
330
1F
100
AcDbEntity
  8
0
 62
    58
100
AcDbCircle
 10
64.71880946834143
 20
567.5400000000046
 30
0.0
 40
1.600000000000004
100
AcDbArc
 50
179.9999999999951
 51
359.9999999999995
  0
LINE
  5
F7
330
1F
100
AcDbEntity
  8
0
 62
    58
100
AcDbLine
 10
33.11880946834093
 20
512.4400000000047
 30
0.0
 11
51.11880946834094
 21
512.4400000000046
 31
0.0
  0
LINE
  5
F8
330
1F
100
AcDbEntity
  8
0
 62
    58
100
AcDbLine
 10
51.11880946834117
 20
550.7400000000048
 30
0.0
 11
33.11880946834115
 21
550.7400000000049
 31
0.0
  0
LINE
  5
F9
330
1F
100
AcDbEntity
  8
0
 62
    58
100
AcDbLine
 10
51.11880946834094
 20
492.4400000000045
 30
0.0
 11
51.11880946834094
 21
512.4400000000046
 31
0.0
  0
LINE
  5
FA
330
1F
100
AcDbEntity
  8
0
 62
    58
100
AcDbLine
 10
63.11880946834162
 20
570.7400000000047
 30
0.0
 11
51.11880946834161
 21
570.7400000000048
 31
0.0
  0
LINE
  5
FB
330
1F
100
AcDbEntity
  8
0
 62
    58
100
AcDbLine
 10
63.11880946834162
 20
567.5400000000046
 30
0.0
 11
63.11880946834162
 21
570.7400000000047
 31
0.0
  0
LINE
  5
FC
330
1F
100
AcDbEntity
  8
0
 62
    58
100
AcDbLine
 10
70.51880946834146
 20
567.5400000000045
 30
0.0
 11
66.31880946834148
 21
567.5400000000045
 31
0.0
  0
LINE
  5
FD
330
1F
100
AcDbEntity
  8
0
 62
    58
100
AcDbLine
 10
72.11880946834152
 20
580.3400000000045
 30
0.0
 11
72.11880946834152
 21
569.1400000000044
 31
0.0
  0
LINE
  5
FE
330
1F
100
AcDbEntity
  8
0
 62
    58
100
AcDbLine
 10
66.3188094683415
 20
581.9400000000047
 30
0.0
 11
70.51880946834147
 21
581.9400000000046
 31
0.0
  0
LINE
  5
FF
330
1F
100
AcDbEntity
  8
0
 62
    58
100
AcDbLine
 10
51.11880946834161
 20
578.7400000000047
 30
0.0
 11
63.11880946834162
 21
578.7400000000047
 31
0.0
  0
LINE
  5
100
330
1F
100
AcDbEntity
  8
0
 62
    58
100
AcDbLine
 10
63.11880946834162
 20
578.7400000000046
 30
0.0
 11
63.11880946834162
 21
581.9400000000047
 31
0.0
  0
LINE
  5
101
330
1F
100
AcDbEntity
  8
0
 62
    58
100
AcDbLine
 10
739.1188094683408
 20
434.7399999999985
 30
0.0
 11
739.1188094683403
 21
354.7399999999985
 31
0.0
  0
LINE
  5
102
330
1F
100
AcDbEntity
  8
0
 62
    58
100
AcDbLine
 10
28.11880946833948
 20
336.740000000005
 30
0.0
 11
28.11880946834015
 21
421.4400000000051
 31
0.0
  0
LINE
  5
103
330
1F
100
AcDbEntity
  8
0
 62
    58
100
AcDbLine
 10
68.11880946833952
 20
336.7400000000047
 30
0.0
 11
28.11880946833948
 21
336.740000000005
 31
0.0
  0
LINE
  5
104
330
1F
100
AcDbEntity
  8
0
 62
    58
100
AcDbLine
 10
68.1188094683395
 20
354.7400000000047
 30
0.0
 11
68.11880946833952
 21
336.7400000000048
 31
0.0
  0
LINE
  5
105
330
1F
100
AcDbEntity
  8
0
 62
    58
100
AcDbLine
 10
87.11880946833963
 20
354.7400000000045
 30
0.0
 11
68.1188094683395
 21
354.7400000000047
 31
0.0
  0
LINE
  5
106
330
1F
100
AcDbEntity
  8
0
 62
    58
100
AcDbLine
 10
87.11880946833963
 20
366.7400000000045
 30
0.0
 11
87.11880946833963
 21
354.7400000000045
 31
0.0
  0
LINE
  5
107
330
1F
100
AcDbEntity
  8
0
 62
    58
100
AcDbLine
 10
83.91880946833977
 20
366.7400000000045
 30
0.0
 11
87.11880946833986
 21
366.7400000000045
 31
0.0
  0
ARC
  5
108
330
1F
100
AcDbEntity
  8
0
 62
    58
100
AcDbCircle
 10
83.91880946833977
 20
368.3400000000046
 30
0.0
 40
1.599999999999997
100
AcDbArc
 50
89.99999999999949
 51
269.9999999999995
  0
LINE
  5
109
330
1F
100
AcDbEntity
  8
0
 62
    58
100
AcDbLine
 10
83.91880946833977
 20
374.1400000000045
 30
0.0
 11
83.91880946833977
 21
369.9400000000045
 31
0.0
  0
LINE
  5
10A
330
1F
100
AcDbEntity
  8
0
 62
    58
100
AcDbLine
 10
96.8188094683397
 20
375.7400000000044
 30
0.0
 11
85.51880946833982
 21
375.7400000000045
 31
0.0
  0
LINE
  5
10B
330
1F
100
AcDbEntity
  8
0
 62
    58
100
AcDbLine
 10
98.31880946833975
 20
369.9400000000044
 30
0.0
 11
98.31880946833975
 21
374.2400000000044
 31
0.0
  0
ARC
  5
10C
330
1F
100
AcDbEntity
  8
0
 62
    58
100
AcDbCircle
 10
98.31880946833974
 20
368.3400000000044
 30
0.0
 40
1.600000000000004
100
AcDbArc
 50
269.9999999999995
 51
89.99999999999947
  0
LINE
  5
10D
330
1F
100
AcDbEntity
  8
0
 62
    58
100
AcDbLine
 10
95.11880946833965
 20
366.7400000000044
 30
0.0
 11
98.31880946833974
 21
366.7400000000044
 31
0.0
  0
LINE
  5
10E
330
1F
100
AcDbEntity
  8
0
 62
    58
100
AcDbLine
 10
95.11880946833965
 20
354.7400000000044
 30
0.0
 11
95.11880946833965
 21
366.7400000000044
 31
0.0
  0
LINE
  5
10F
330
1F
100
AcDbEntity
  8
0
 62
    58
100
AcDbLine
 10
78.1188094683404
 20
463.4400000000043
 30
0.0
 11
51.1188094683405
 21
463.4400000000045
 31
0.0
  0
LINE
  5
110
330
1F
100
AcDbEntity
  8
0
 62
    58
100
AcDbLine
 10
78.11880946834042
 20
445.4400000000046
 30
0.0
 11
78.1188094683404
 21
463.4400000000043
 31
0.0
  0
LINE
  5
111
330
1F
100
AcDbEntity
  8
0
 62
    58
100
AcDbLine
 10
28.11880946834015
 20
445.4400000000051
 30
0.0
 11
78.1188094683402
 21
445.4400000000046
 31
0.0
  0
LINE
  5
112
330
1F
100
AcDbEntity
  8
0
 62
    58
100
AcDbLine
 10
28.11880946834015
 20
429.4400000000051
 30
0.0
 11
28.11880946834037
 21
445.4400000000051
 31
0.0
  0
LINE
  5
113
330
1F
100
AcDbEntity
  8
0
 62
    58
100
AcDbLine
 10
40.11880946834016
 20
432.6400000000049
 30
0.0
 11
40.11880946834016
 21
429.4400000000049
 31
0.0
  0
LINE
  5
114
330
1F
100
AcDbEntity
  8
0
 62
    58
100
AcDbLine
 10
40.11880946834016
 20
429.4400000000049
 30
0.0
 11
28.11880946834014
 21
429.4400000000051
 31
0.0
  0
LINE
  5
115
330
1F
100
AcDbEntity
  8
0
 62
    58
100
AcDbLine
 10
47.51880946834023
 20
432.6400000000048
 30
0.0
 11
43.31880946834025
 21
432.6400000000048
 31
0.0
  0
LINE
  5
116
330
1F
100
AcDbEntity
  8
0
 62
    58
100
AcDbLine
 10
49.11880946834005
 20
419.8400000000049
 30
0.0
 11
49.11880946834005
 21
431.0400000000049
 31
0.0
  0
LINE
  5
117
330
1F
100
AcDbEntity
  8
0
 62
    58
100
AcDbLine
 10
43.31880946834003
 20
418.2400000000048
 30
0.0
 11
47.51880946834001
 21
418.2400000000048
 31
0.0
  0
LINE
  5
118
330
1F
100
AcDbEntity
  8
0
 62
    58
100
AcDbLine
 10
40.11880946834016
 20
421.4400000000049
 30
0.0
 11
40.11880946834016
 21
418.240000000005
 31
0.0
  0
LINE
  5
119
330
1F
100
AcDbEntity
  8
0
 62
    58
100
AcDbLine
 10
28.11880946834015
 20
421.4400000000051
 30
0.0
 11
40.11880946834015
 21
421.4400000000049
 31
0.0
  0
LINE
  5
11A
330
1F
100
AcDbEntity
  8
0
 62
    58
100
AcDbLine
 10
51.11880946834117
 20
550.7400000000048
 30
0.0
 11
51.11880946834161
 21
570.7400000000048
 31
0.0
  0
LINE
  5
11B
330
1F
100
AcDbEntity
  8
0
 62
    58
100
AcDbLine
 10
51.11880946834161
 20
578.7400000000048
 30
0.0
 11
51.11880946834183
 21
604.7400000000047
 31
0.0
  0
LINE
  5
11C
330
1F
100
AcDbEntity
  8
0
 62
    58
100
AcDbLine
 10
51.11880946834028
 20
463.4400000000045
 30
0.0
 11
51.11880946834071
 21
484.4400000000045
 31
0.0
  0
LINE
  5
11D
330
1F
100
AcDbEntity
  8
0
 62
    58
100
AcDbLine
 10
63.11880946834096
 20
495.6400000000044
 30
0.0
 11
63.11880946834073
 21
492.4400000000044
 31
0.0
  0
LINE
  5
11E
330
1F
100
AcDbEntity
  8
0
 62
    58
100
AcDbLine
 10
63.11880946834073
 20
492.4400000000044
 30
0.0
 11
51.11880946834072
 21
492.4400000000045
 31
0.0
  0
LINE
  5
11F
330
1F
100
AcDbEntity
  8
0
 62
    58
100
AcDbLine
 10
70.51880946834103
 20
495.6400000000044
 30
0.0
 11
66.31880946834083
 21
495.6400000000044
 31
0.0
  0
LINE
  5
120
330
1F
100
AcDbEntity
  8
0
 62
    58
100
AcDbLine
 10
72.11880946834063
 20
482.8400000000043
 30
0.0
 11
72.11880946834084
 21
494.0400000000043
 31
0.0
  0
LINE
  5
121
330
1F
100
AcDbEntity
  8
0
 62
    58
100
AcDbLine
 10
66.31880946834059
 20
481.2400000000044
 30
0.0
 11
70.5188094683408
 21
481.2400000000044
 31
0.0
  0
LINE
  5
122
330
1F
100
AcDbEntity
  8
0
 62
    58
100
AcDbLine
 10
63.11880946834074
 20
484.4400000000044
 30
0.0
 11
63.11880946834073
 21
481.2400000000044
 31
0.0
  0
LINE
  5
123
330
1F
100
AcDbEntity
  8
0
 62
    58
100
AcDbLine
 10
51.11880946834072
 20
484.4400000000045
 30
0.0
 11
63.11880946834074
 21
484.4400000000044
 31
0.0
  0
LINE
  5
124
330
1F
100
AcDbEntity
  8
0
 62
    58
100
AcDbLine
 10
739.1188094683403
 20
354.7399999999986
 30
0.0
 11
95.11880946833972
 21
354.7400000000044
 31
0.0
  0
LINE
  5
125
330
1F
100
AcDbEntity
  8
0
 62
    58
100
AcDbLine
 10
33.11880946834115
 20
550.7400000000049
 30
0.0
 11
33.11880946834093
 21
512.4400000000047
 31
0.0
  0
LINE
  5
126
330
1F
100
AcDbEntity
  8
0
 62
    58
100
AcDbLine
 10
1463.118809468342
 20
512.4399999999964
 30
0.0
 11
1445.118809468342
 21
512.4399999999964
 31
0.0
  0
LINE
  5
127
330
1F
100
AcDbEntity
  8
0
 62
    58
100
AcDbLine
 10
1445.118809468342
 20
550.7399999999967
 30
0.0
 11
1463.118809468342
 21
550.7399999999967
 31
0.0
  0
LINE
  5
128
330
1F
100
AcDbEntity
  8
0
 62
    58
100
AcDbLine
 10
1445.118809468341
 20
492.4399999999965
 30
0.0
 11
1445.118809468341
 21
512.4399999999964
 31
0.0
  0
LINE
  5
129
330
1F
100
AcDbEntity
  8
0
 62
    58
100
AcDbLine
 10
1445.118809468342
 20
550.7399999999967
 30
0.0
 11
1445.118809468342
 21
570.7399999999967
 31
0.0
  0
LINE
  5
12A
330
1F
100
AcDbEntity
  8
0
 62
    58
100
AcDbLine
 10
1433.118809468342
 20
570.7399999999968
 30
0.0
 11
1445.118809468342
 21
570.7399999999968
 31
0.0
  0
LINE
  5
12B
330
1F
100
AcDbEntity
  8
0
 62
    58
100
AcDbLine
 10
1433.118809468342
 20
567.5399999999967
 30
0.0
 11
1433.118809468342
 21
570.7399999999968
 31
0.0
  0
LINE
  5
12C
330
1F
100
AcDbEntity
  8
0
 62
    58
100
AcDbLine
 10
1425.718809468342
 20
567.5399999999967
 30
0.0
 11
1429.918809468342
 21
567.5399999999967
 31
0.0
  0
LINE
  5
12D
330
1F
100
AcDbEntity
  8
0
 62
    58
100
AcDbLine
 10
1424.118809468341
 20
580.3399999999967
 30
0.0
 11
1424.118809468341
 21
569.1399999999968
 31
0.0
  0
LINE
  5
12E
330
1F
100
AcDbEntity
  8
0
 62
    58
100
AcDbLine
 10
1429.918809468342
 20
581.9399999999968
 30
0.0
 11
1425.718809468342
 21
581.9399999999966
 31
0.0
  0
LINE
  5
12F
330
1F
100
AcDbEntity
  8
0
 62
    58
100
AcDbLine
 10
1433.118809468342
 20
578.7399999999968
 30
0.0
 11
1433.118809468342
 21
581.9399999999968
 31
0.0
  0
LINE
  5
130
330
1F
100
AcDbEntity
  8
0
 62
    58
100
AcDbLine
 10
1445.118809468342
 20
578.7399999999967
 30
0.0
 11
1433.118809468342
 21
578.7399999999967
 31
0.0
  0
LINE
  5
131
330
1F
100
AcDbEntity
  8
0
 62
    58
100
AcDbLine
 10
1445.118809468342
 20
578.7399999999967
 30
0.0
 11
1445.118809468342
 21
604.7399999999966
 31
0.0
  0
LINE
  5
132
330
1F
100
AcDbEntity
  8
0
 62
    58
100
AcDbLine
 10
51.11880946834183
 20
604.7400000000001
 30
0.0
 11
1445.118809468342
 21
604.7399999999967
 31
0.0
  0
LINE
  5
133
330
1F
100
AcDbEntity
  8
0
 62
    58
100
AcDbLine
 10
757.1188094683407
 20
434.7399999999985
 30
0.0
 11
739.1188094683408
 21
434.7399999999985
 31
0.0
  0
LINE
  5
134
330
1F
100
AcDbEntity
  8
0
 62
    58
100
AcDbLine
 10
757.1188094683407
 20
434.7399999999985
 30
0.0
 11
757.1188094683403
 21
354.7399999999985
 31
0.0
  0
LINE
  5
135
330
1F
100
AcDbEntity
  8
0
 62
    58
100
AcDbLine
 10
757.1188094683403
 20
354.7399999999985
 30
0.0
 11
1401.118809468341
 21
354.7399999999969
 31
0.0
  0
LINE
  5
136
330
1F
100
AcDbEntity
  8
0
 62
    58
100
AcDbLine
 10
1401.118809468341
 20
354.7399999999969
 30
0.0
 11
1401.118809468341
 21
366.7399999999969
 31
0.0
  0
LINE
  5
137
330
1F
100
AcDbEntity
  8
0
 62
    58
100
AcDbLine
 10
1401.118809468341
 20
366.7399999999969
 30
0.0
 11
1397.918809468341
 21
366.739999999997
 31
0.0
  0
ARC
  5
138
330
1F
100
AcDbEntity
  8
0
 62
    58
100
AcDbCircle
 10
1397.918809468341
 20
368.339999999997
 30
0.0
 40
1.600000000000004
100
AcDbArc
 50
89.99999999999984
 51
269.9999999999998
  0
LINE
  5
139
330
1F
100
AcDbEntity
  8
0
 62
    58
100
AcDbLine
 10
1397.918809468341
 20
369.939999999997
 30
0.0
 11
1397.918809468341
 21
374.2399999999969
 31
0.0
  0
LINE
  5
13A
330
1F
100
AcDbEntity
  8
0
 62
    58
100
AcDbLine
 10
1399.418809468341
 20
375.739999999997
 30
0.0
 11
1410.718809468341
 21
375.7399999999969
 31
0.0
  0
LINE
  5
13B
330
1F
100
AcDbEntity
  8
0
 62
    58
100
AcDbLine
 10
1412.318809468341
 20
374.1399999999968
 30
0.0
 11
1412.318809468341
 21
369.9399999999968
 31
0.0
  0
ARC
  5
13C
330
1F
100
AcDbEntity
  8
0
 62
    58
100
AcDbCircle
 10
1412.318809468341
 20
368.3399999999969
 30
0.0
 40
1.599999999999997
100
AcDbArc
 50
269.9999999999998
 51
89.99999999999986
  0
LINE
  5
13D
330
1F
100
AcDbEntity
  8
0
 62
    58
100
AcDbLine
 10
1412.318809468341
 20
366.7399999999968
 30
0.0
 11
1409.118809468341
 21
366.7399999999969
 31
0.0
  0
LINE
  5
13E
330
1F
100
AcDbEntity
  8
0
 62
    58
100
AcDbLine
 10
1409.118809468341
 20
366.7399999999969
 30
0.0
 11
1409.118809468341
 21
354.7399999999969
 31
0.0
  0
LINE
  5
13F
330
1F
100
AcDbEntity
  8
0
 62
    58
100
AcDbLine
 10
1409.118809468341
 20
354.7399999999969
 30
0.0
 11
1428.118809468341
 21
354.7399999999968
 31
0.0
  0
LINE
  5
140
330
1F
100
AcDbEntity
  8
0
 62
    58
100
AcDbLine
 10
1428.118809468341
 20
354.7399999999968
 30
0.0
 11
1428.118809468341
 21
336.7399999999968
 31
0.0
  0
LINE
  5
141
330
1F
100
AcDbEntity
  8
0
 62
    58
100
AcDbLine
 10
1428.118809468341
 20
336.7399999999968
 30
0.0
 11
1468.118809468341
 21
336.7399999999967
 31
0.0
  0
LINE
  5
142
330
1F
100
AcDbEntity
  8
0
 62
    58
100
AcDbLine
 10
1468.118809468341
 20
336.7399999999967
 30
0.0
 11
1468.118809468341
 21
421.4399999999967
 31
0.0
  0
LINE
  5
143
330
1F
100
AcDbEntity
  8
0
 62
    58
100
AcDbLine
 10
1468.118809468341
 20
421.4399999999967
 30
0.0
 11
1456.118809468341
 21
421.4399999999968
 31
0.0
  0
LINE
  5
144
330
1F
100
AcDbEntity
  8
0
 62
    58
100
AcDbLine
 10
1456.118809468341
 20
421.4399999999968
 30
0.0
 11
1456.118809468341
 21
418.2399999999967
 31
0.0
  0
LINE
  5
145
330
1F
100
AcDbEntity
  8
0
 62
    58
100
AcDbLine
 10
1452.918809468341
 20
418.2399999999967
 30
0.0
 11
1448.718809468341
 21
418.2399999999967
 31
0.0
  0
LINE
  5
146
330
1F
100
AcDbEntity
  8
0
 62
    58
100
AcDbLine
 10
1447.118809468341
 20
419.8399999999968
 30
0.0
 11
1447.118809468341
 21
431.0399999999968
 31
0.0
  0
LINE
  5
147
330
1F
100
AcDbEntity
  8
0
 62
    58
100
AcDbLine
 10
1448.718809468341
 20
432.6399999999968
 30
0.0
 11
1452.918809468341
 21
432.6399999999968
 31
0.0
  0
LINE
  5
148
330
1F
100
AcDbEntity
  8
0
 62
    58
100
AcDbLine
 10
1456.118809468341
 20
432.6399999999967
 30
0.0
 11
1456.118809468341
 21
429.4399999999968
 31
0.0
  0
LINE
  5
149
330
1F
100
AcDbEntity
  8
0
 62
    58
100
AcDbLine
 10
1456.118809468341
 20
429.4399999999968
 30
0.0
 11
1468.118809468341
 21
429.4399999999966
 31
0.0
  0
LINE
  5
14A
330
1F
100
AcDbEntity
  8
0
 62
    58
100
AcDbLine
 10
1468.118809468341
 20
429.4399999999967
 30
0.0
 11
1468.118809468341
 21
445.4399999999967
 31
0.0
  0
LINE
  5
14B
330
1F
100
AcDbEntity
  8
0
 62
    58
100
AcDbLine
 10
1468.118809468341
 20
445.4399999999967
 30
0.0
 11
1418.118809468341
 21
445.4399999999968
 31
0.0
  0
LINE
  5
14C
330
1F
100
AcDbEntity
  8
0
 62
    58
100
AcDbLine
 10
1418.118809468341
 20
445.4399999999968
 30
0.0
 11
1418.118809468341
 21
463.4399999999965
 31
0.0
  0
LINE
  5
14D
330
1F
100
AcDbEntity
  8
0
 62
    58
100
AcDbLine
 10
1418.118809468341
 20
463.4399999999965
 30
0.0
 11
1445.118809468341
 21
463.4399999999965
 31
0.0
  0
LINE
  5
14E
330
1F
100
AcDbEntity
  8
0
 62
    58
100
AcDbLine
 10
1445.118809468341
 20
463.4399999999965
 30
0.0
 11
1445.118809468341
 21
484.4399999999965
 31
0.0
  0
LINE
  5
14F
330
1F
100
AcDbEntity
  8
0
 62
    58
100
AcDbLine
 10
1445.118809468341
 20
484.4399999999965
 30
0.0
 11
1433.118809468341
 21
484.4399999999966
 31
0.0
  0
LINE
  5
150
330
1F
100
AcDbEntity
  8
0
 62
    58
100
AcDbLine
 10
1433.118809468341
 20
484.4399999999965
 30
0.0
 11
1433.118809468341
 21
481.2399999999965
 31
0.0
  0
LINE
  5
151
330
1F
100
AcDbEntity
  8
0
 62
    58
100
AcDbLine
 10
1429.918809468341
 20
481.2399999999965
 30
0.0
 11
1425.718809468341
 21
481.2399999999964
 31
0.0
  0
LINE
  5
152
330
1F
100
AcDbEntity
  8
0
 62
    58
100
AcDbLine
 10
1424.118809468341
 20
482.8399999999965
 30
0.0
 11
1424.118809468341
 21
494.0399999999965
 31
0.0
  0
LINE
  5
153
330
1F
100
AcDbEntity
  8
0
 62
    58
100
AcDbLine
 10
1425.718809468341
 20
495.6399999999965
 30
0.0
 11
1429.918809468341
 21
495.6399999999966
 31
0.0
  0
LINE
  5
154
330
1F
100
AcDbEntity
  8
0
 62
    58
100
AcDbLine
 10
1433.118809468341
 20
495.6399999999965
 30
0.0
 11
1433.118809468341
 21
492.4399999999965
 31
0.0
  0
LINE
  5
155
330
1F
100
AcDbEntity
  8
0
 62
    58
100
AcDbLine
 10
1433.118809468341
 20
492.4399999999965
 30
0.0
 11
1445.118809468341
 21
492.4399999999964
 31
0.0
  0
LINE
  5
156
330
1F
100
AcDbEntity
  8
0
 62
    58
100
AcDbLine
 10
1461.438809468341
 20
242.4899999999967
 30
0.0
 11
1461.438809468341
 21
204.1899999999964
 31
0.0
  0
ARC
  5
157
330
1F
100
AcDbEntity
  8
0
 62
    58
100
AcDbCircle
 10
1429.838809468341
 20
172.9899999999966
 30
0.0
 40
1.600000000000004
100
AcDbArc
 50
180.0000000000091
 51
0.0000000000003562
  0
ARC
  5
158
330
1F
100
AcDbEntity
  8
0
 62
    58
100
AcDbCircle
 10
1424.038809468341
 20
174.5899999999965
 30
0.0
 40
1.6
100
AcDbArc
 50
180.0000000000013
 51
269.9999999999998
  0
ARC
  5
159
330
1F
100
AcDbEntity
  8
0
 62
    58
100
AcDbCircle
 10
1429.838809468341
 20
187.3899999999965
 30
0.0
 40
1.600000000000002
100
AcDbArc
 50
0.0000000000271747
 51
179.9999999999998
  0
ARC
  5
15A
330
1F
100
AcDbEntity
  8
0
 62
    58
100
AcDbCircle
 10
1424.038809468341
 20
185.7899999999964
 30
0.0
 40
1.6
100
AcDbArc
 50
90.0000000000081
 51
179.9999999999998
  0
ARC
  5
15B
330
1F
100
AcDbEntity
  8
0
 62
    58
100
AcDbCircle
 10
1452.83880946834
 20
109.9899999999967
 30
0.0
 40
1.600000000000004
100
AcDbArc
 50
180.0000000000082
 51
359.9999999999998
  0
ARC
  5
15C
330
1F
100
AcDbEntity
  8
0
 62
    58
100
AcDbCircle
 10
1447.03880946834
 20
111.5899999999968
 30
0.0
 40
1.6
100
AcDbArc
 50
179.9999999999986
 51
269.9999999999998
  0
ARC
  5
15D
330
1F
100
AcDbEntity
  8
0
 62
    58
100
AcDbCircle
 10
1447.03880946834
 20
122.7899999999968
 30
0.0
 40
1.6
100
AcDbArc
 50
90.00000000000998
 51
179.9999999999998
  0
ARC
  5
15E
330
1F
100
AcDbEntity
  8
0
 62
    58
100
AcDbCircle
 10
1452.838809468341
 20
124.3899999999967
 30
0.0
 40
1.600000000000002
100
AcDbArc
 50
0.0000000000319582
 51
179.9999999999998
  0
ARC
  5
15F
330
1F
100
AcDbEntity
  8
0
 62
    58
100
AcDbCircle
 10
1397.73880946834
 20
65.98999999999693
 30
0.0
 40
1.5
100
AcDbArc
 50
89.99999999996804
 51
179.9999999999999
  0
ARC
  5
160
330
1F
100
AcDbEntity
  8
0
 62
    58
100
AcDbCircle
 10
1409.03880946834
 20
65.8899999999968
 30
0.0
 40
1.6
100
AcDbArc
 50
359.9999999999985
 51
89.99999999999984
  0
ARC
  5
161
330
1F
100
AcDbEntity
  8
0
 62
    58
100
AcDbCircle
 10
1429.838809468341
 20
273.6899999999967
 30
0.0
 40
1.600000000000002
100
AcDbArc
 50
359.9999999999998
 51
179.9999999999769
  0
ARC
  5
162
330
1F
100
AcDbEntity
  8
0
 62
    58
100
AcDbCircle
 10
1424.038809468341
 20
272.0899999999967
 30
0.0
 40
1.6
100
AcDbArc
 50
89.9999999999999
 51
180.0000000000112
  0
ARC
  5
163
330
1F
100
AcDbEntity
  8
0
 62
    58
100
AcDbCircle
 10
1424.038809468341
 20
260.8899999999967
 30
0.0
 40
1.6
100
AcDbArc
 50
179.9999999999999
 51
269.9999999999916
  0
ARC
  5
164
330
1F
100
AcDbEntity
  8
0
 62
    58
100
AcDbCircle
 10
1429.838809468341
 20
259.2899999999967
 30
0.0
 40
1.600000000000004
100
AcDbArc
 50
179.9999999999998
 51
359.9999999999944
  0
ARC
  5
165
330
1F
100
AcDbEntity
  8
0
 62
    58
100
AcDbCircle
 10
63.03880946833998
 20
172.9900000000044
 30
0.0
 40
1.600000000000004
100
AcDbArc
 50
179.999999999999
 51
0.0000000000023409
  0
ARC
  5
166
330
1F
100
AcDbEntity
  8
0
 62
    58
100
AcDbCircle
 10
68.83880946834002
 20
174.5900000000043
 30
0.0
 40
1.6
100
AcDbArc
 50
269.9999999999995
 51
0.0000000000011704
  0
ARC
  5
167
330
1F
100
AcDbEntity
  8
0
 62
    58
100
AcDbCircle
 10
63.03880946833999
 20
187.3900000000044
 30
0.0
 40
1.600000000000002
100
AcDbArc
 50
359.9999999999995
 51
180.0000000000163
  0
ARC
  5
168
330
1F
100
AcDbEntity
  8
0
 62
    58
100
AcDbCircle
 10
68.83880946834002
 20
185.7900000000043
 30
0.0
 40
1.6
100
AcDbArc
 50
359.9999999999995
 51
90.00000000000477
  0
ARC
  5
169
330
1F
100
AcDbEntity
  8
0
 62
    58
100
AcDbCircle
 10
40.03880946833963
 20
109.9900000000049
 30
0.0
 40
1.600000000000004
100
AcDbArc
 50
179.9999999999995
 51
0.0000000000034096
  0
ARC
  5
16A
330
1F
100
AcDbEntity
  8
0
 62
    58
100
AcDbCircle
 10
45.83880946833966
 20
111.5900000000048
 30
0.0
 40
1.6
100
AcDbArc
 50
269.9999999999995
 51
359.9999999999998
  0
ARC
  5
16B
330
1F
100
AcDbEntity
  8
0
 62
    58
100
AcDbCircle
 10
45.83880946833966
 20
122.7900000000048
 30
0.0
 40
1.6
100
AcDbArc
 50
359.9999999999995
 51
90.00000000000107
  0
ARC
  5
16C
330
1F
100
AcDbEntity
  8
0
 62
    58
100
AcDbCircle
 10
40.03880946833964
 20
124.3900000000049
 30
0.0
 40
1.600000000000002
100
AcDbArc
 50
359.9999999999995
 51
180.0000000000116
  0
ARC
  5
16D
330
1F
100
AcDbEntity
  8
0
 62
    58
100
AcDbCircle
 10
95.13880946833912
 20
65.99000000000441
 30
0.0
 40
1.5
100
AcDbArc
 50
359.9999999999995
 51
89.99999999999925
  0
ARC
  5
16E
330
1F
100
AcDbEntity
  8
0
 62
    58
100
AcDbCircle
 10
83.83880946833925
 20
65.89000000000446
 30
0.0
 40
1.6
100
AcDbArc
 50
89.99999999999949
 51
180.0000000000013
  0
ARC
  5
16F
330
1F
100
AcDbEntity
  8
0
 62
    58
100
AcDbCircle
 10
63.03880946834088
 20
273.6900000000046
 30
0.0
 40
1.600000000000002
100
AcDbArc
 50
359.9999999999786
 51
179.9999999999995
  0
ARC
  5
170
330
1F
100
AcDbEntity
  8
0
 62
    58
100
AcDbCircle
 10
68.83880946834091
 20
272.0900000000045
 30
0.0
 40
1.6
100
AcDbArc
 50
359.9999999999917
 51
89.99999999999945
  0
ARC
  5
171
330
1F
100
AcDbEntity
  8
0
 62
    58
100
AcDbCircle
 10
68.83880946834068
 20
260.8900000000045
 30
0.0
 40
1.6
100
AcDbArc
 50
269.9999999999846
 51
359.9999999999995
  0
ARC
  5
172
330
1F
100
AcDbEntity
  8
0
 62
    58
100
AcDbCircle
 10
63.03880946834065
 20
259.2900000000046
 30
0.0
 40
1.600000000000004
100
AcDbArc
 50
179.999999999992
 51
359.9999999999995
  0
LINE
  5
173
330
1F
100
AcDbEntity
  8
0
 62
    58
100
AcDbLine
 10
31.43880946834035
 20
204.1900000000046
 30
0.0
 11
49.43880946834037
 21
204.1900000000044
 31
0.0
  0
LINE
  5
174
330
1F
100
AcDbEntity
  8
0
 62
    58
100
AcDbLine
 10
49.43880946834059
 20
242.4900000000047
 30
0.0
 11
31.43880946834058
 21
242.4900000000049
 31
0.0
  0
LINE
  5
175
330
1F
100
AcDbEntity
  8
0
 62
    58
100
AcDbLine
 10
49.43880946834015
 20
184.1900000000044
 30
0.0
 11
49.43880946834037
 21
204.1900000000044
 31
0.0
  0
LINE
  5
176
330
1F
100
AcDbEntity
  8
0
 62
    58
100
AcDbLine
 10
61.43880946834083
 20
262.4900000000047
 30
0.0
 11
49.43880946834082
 21
262.4900000000047
 31
0.0
  0
LINE
  5
177
330
1F
100
AcDbEntity
  8
0
 62
    58
100
AcDbLine
 10
61.43880946834083
 20
259.2900000000046
 30
0.0
 11
61.43880946834083
 21
262.4900000000046
 31
0.0
  0
LINE
  5
178
330
1F
100
AcDbEntity
  8
0
 62
    58
100
AcDbLine
 10
68.83880946834067
 20
259.2900000000045
 30
0.0
 11
64.6388094683407
 21
259.2900000000046
 31
0.0
  0
LINE
  5
179
330
1F
100
AcDbEntity
  8
0
 62
    58
100
AcDbLine
 10
70.43880946834074
 20
272.0900000000045
 30
0.0
 11
70.43880946834074
 21
260.8900000000045
 31
0.0
  0
LINE
  5
17A
330
1F
100
AcDbEntity
  8
0
 62
    58
100
AcDbLine
 10
64.63880946834071
 20
273.6900000000046
 30
0.0
 11
68.83880946834068
 21
273.6900000000045
 31
0.0
  0
LINE
  5
17B
330
1F
100
AcDbEntity
  8
0
 62
    58
100
AcDbLine
 10
49.43880946834082
 20
270.4900000000046
 30
0.0
 11
61.43880946834083
 21
270.4900000000046
 31
0.0
  0
LINE
  5
17C
330
1F
100
AcDbEntity
  8
0
 62
    58
100
AcDbLine
 10
61.43880946834083
 20
270.4900000000046
 30
0.0
 11
61.43880946834083
 21
273.6900000000046
 31
0.0
  0
LINE
  5
17D
330
1F
100
AcDbEntity
  8
0
 62
    58
100
AcDbLine
 10
737.4388094683402
 20
126.4899999999985
 30
0.0
 11
737.4388094683396
 21
46.48999999999856
 31
0.0
  0
LINE
  5
17E
330
1F
100
AcDbEntity
  8
0
 62
    58
100
AcDbLine
 10
26.43880946833891
 20
28.49000000000506
 30
0.0
 11
26.43880946833958
 21
113.190000000005
 31
0.0
  0
LINE
  5
17F
330
1F
100
AcDbEntity
  8
0
 62
    58
100
AcDbLine
 10
66.43880946833895
 20
28.49000000000463
 30
0.0
 11
26.43880946833891
 21
28.49000000000506
 31
0.0
  0
LINE
  5
180
330
1F
100
AcDbEntity
  8
0
 62
    58
100
AcDbLine
 10
66.43880946833895
 20
46.49000000000465
 30
0.0
 11
66.43880946833895
 21
28.49000000000463
 31
0.0
  0
LINE
  5
181
330
1F
100
AcDbEntity
  8
0
 62
    58
100
AcDbLine
 10
85.43880946833907
 20
46.49000000000449
 30
0.0
 11
66.43880946833895
 21
46.49000000000465
 31
0.0
  0
LINE
  5
182
330
1F
100
AcDbEntity
  8
0
 62
    58
100
AcDbLine
 10
85.43880946833907
 20
58.4900000000045
 30
0.0
 11
85.43880946833907
 21
46.49000000000449
 31
0.0
  0
LINE
  5
183
330
1F
100
AcDbEntity
  8
0
 62
    58
100
AcDbLine
 10
82.2388094683392
 20
58.49000000000451
 30
0.0
 11
85.43880946833929
 21
58.4900000000045
 31
0.0
  0
ARC
  5
184
330
1F
100
AcDbEntity
  8
0
 62
    58
100
AcDbCircle
 10
82.23880946833921
 20
60.09000000000455
 30
0.0
 40
1.599999999999997
100
AcDbArc
 50
89.99999999999949
 51
269.9999999999995
  0
LINE
  5
185
330
1F
100
AcDbEntity
  8
0
 62
    58
100
AcDbLine
 10
82.23880946833921
 20
65.89000000000448
 30
0.0
 11
82.23880946833921
 21
61.69000000000449
 31
0.0
  0
LINE
  5
186
330
1F
100
AcDbEntity
  8
0
 62
    58
100
AcDbLine
 10
95.13880946833912
 20
67.49000000000437
 30
0.0
 11
83.83880946833925
 21
67.4900000000045
 31
0.0
  0
LINE
  5
187
330
1F
100
AcDbEntity
  8
0
 62
    58
100
AcDbLine
 10
96.63880946833918
 20
61.69000000000434
 30
0.0
 11
96.63880946833918
 21
65.99000000000441
 31
0.0
  0
ARC
  5
188
330
1F
100
AcDbEntity
  8
0
 62
    58
100
AcDbCircle
 10
96.63880946833918
 20
60.0900000000044
 30
0.0
 40
1.600000000000004
100
AcDbArc
 50
269.9999999999995
 51
89.99999999999947
  0
LINE
  5
189
330
1F
100
AcDbEntity
  8
0
 62
    58
100
AcDbLine
 10
93.43880946833907
 20
58.49000000000436
 30
0.0
 11
96.63880946833916
 21
58.49000000000436
 31
0.0
  0
LINE
  5
18A
330
1F
100
AcDbEntity
  8
0
 62
    58
100
AcDbLine
 10
93.43880946833907
 20
46.49000000000436
 30
0.0
 11
93.43880946833907
 21
58.49000000000436
 31
0.0
  0
LINE
  5
18B
330
1F
100
AcDbEntity
  8
0
 62
    58
100
AcDbLine
 10
76.43880946833984
 20
155.1900000000042
 30
0.0
 11
49.43880946833993
 21
155.1900000000044
 31
0.0
  0
LINE
  5
18C
330
1F
100
AcDbEntity
  8
0
 62
    58
100
AcDbLine
 10
76.43880946833984
 20
137.1900000000045
 30
0.0
 11
76.43880946833984
 21
155.1900000000042
 31
0.0
  0
LINE
  5
18D
330
1F
100
AcDbEntity
  8
0
 62
    58
100
AcDbLine
 10
26.43880946833958
 20
137.190000000005
 30
0.0
 11
76.43880946833961
 21
137.1900000000046
 31
0.0
  0
LINE
  5
18E
330
1F
100
AcDbEntity
  8
0
 62
    58
100
AcDbLine
 10
26.43880946833958
 20
121.190000000005
 30
0.0
 11
26.4388094683398
 21
137.190000000005
 31
0.0
  0
LINE
  5
18F
330
1F
100
AcDbEntity
  8
0
 62
    58
100
AcDbLine
 10
38.43880946833958
 20
124.3900000000049
 30
0.0
 11
38.43880946833959
 21
121.1900000000049
 31
0.0
  0
LINE
  5
190
330
1F
100
AcDbEntity
  8
0
 62
    58
100
AcDbLine
 10
38.43880946833958
 20
121.1900000000049
 30
0.0
 11
26.43880946833957
 21
121.190000000005
 31
0.0
  0
LINE
  5
191
330
1F
100
AcDbEntity
  8
0
 62
    58
100
AcDbLine
 10
45.83880946833966
 20
124.3900000000047
 30
0.0
 11
41.63880946833968
 21
124.3900000000048
 31
0.0
  0
LINE
  5
192
330
1F
100
AcDbEntity
  8
0
 62
    58
100
AcDbLine
 10
47.43880946833949
 20
111.5900000000047
 30
0.0
 11
47.43880946833949
 21
122.7900000000048
 31
0.0
  0
LINE
  5
193
330
1F
100
AcDbEntity
  8
0
 62
    58
100
AcDbLine
 10
41.63880946833945
 20
109.9900000000048
 30
0.0
 11
45.83880946833943
 21
109.9900000000048
 31
0.0
  0
LINE
  5
194
330
1F
100
AcDbEntity
  8
0
 62
    58
100
AcDbLine
 10
38.43880946833958
 20
113.1900000000049
 30
0.0
 11
38.43880946833958
 21
109.9900000000049
 31
0.0
  0
LINE
  5
195
330
1F
100
AcDbEntity
  8
0
 62
    58
100
AcDbLine
 10
26.43880946833958
 20
113.190000000005
 30
0.0
 11
38.43880946833958
 21
113.1900000000049
 31
0.0
  0
LINE
  5
196
330
1F
100
AcDbEntity
  8
0
 62
    58
100
AcDbLine
 10
49.43880946834059
 20
242.4900000000047
 30
0.0
 11
49.43880946834082
 21
262.4900000000047
 31
0.0
  0
LINE
  5
197
330
1F
100
AcDbEntity
  8
0
 62
    58
100
AcDbLine
 10
49.43880946834082
 20
270.4900000000047
 30
0.0
 11
49.43880946834126
 21
296.4900000000046
 31
0.0
  0
LINE
  5
198
330
1F
100
AcDbEntity
  8
0
 62
    58
100
AcDbLine
 10
49.43880946833971
 20
155.1900000000044
 30
0.0
 11
49.43880946833993
 21
176.1900000000044
 31
0.0
  0
LINE
  5
199
330
1F
100
AcDbEntity
  8
0
 62
    58
100
AcDbLine
 10
61.43880946834016
 20
187.3900000000044
 30
0.0
 11
61.43880946833994
 21
184.1900000000044
 31
0.0
  0
LINE
  5
19A
330
1F
100
AcDbEntity
  8
0
 62
    58
100
AcDbLine
 10
61.43880946833993
 20
184.1900000000044
 30
0.0
 11
49.43880946833993
 21
184.1900000000045
 31
0.0
  0
LINE
  5
19B
330
1F
100
AcDbEntity
  8
0
 62
    58
100
AcDbLine
 10
68.83880946834024
 20
187.3900000000043
 30
0.0
 11
64.63880946834004
 21
187.3900000000044
 31
0.0
  0
LINE
  5
19C
330
1F
100
AcDbEntity
  8
0
 62
    58
100
AcDbLine
 10
70.43880946833984
 20
174.5900000000043
 30
0.0
 11
70.43880946834007
 21
185.7900000000043
 31
0.0
  0
LINE
  5
19D
330
1F
100
AcDbEntity
  8
0
 62
    58
100
AcDbLine
 10
64.6388094683398
 20
172.9900000000044
 30
0.0
 11
68.83880946834
 21
172.9900000000042
 31
0.0
  0
LINE
  5
19E
330
1F
100
AcDbEntity
  8
0
 62
    58
100
AcDbLine
 10
61.43880946833994
 20
176.1900000000044
 30
0.0
 11
61.43880946833994
 21
172.9900000000044
 31
0.0
  0
LINE
  5
19F
330
1F
100
AcDbEntity
  8
0
 62
    58
100
AcDbLine
 10
49.43880946833993
 20
176.1900000000045
 30
0.0
 11
61.43880946833994
 21
176.1900000000044
 31
0.0
  0
LINE
  5
1A0
330
1F
100
AcDbEntity
  8
0
 62
    58
100
AcDbLine
 10
737.4388094683396
 20
46.48999999999857
 30
0.0
 11
93.43880946833904
 21
46.49000000000436
 31
0.0
  0
LINE
  5
1A1
330
1F
100
AcDbEntity
  8
0
 62
    58
100
AcDbLine
 10
31.43880946834058
 20
242.4900000000049
 30
0.0
 11
31.43880946834036
 21
204.1900000000046
 31
0.0
  0
LINE
  5
1A2
330
1F
100
AcDbEntity
  8
0
 62
    58
100
AcDbLine
 10
1461.438809468341
 20
204.1899999999964
 30
0.0
 11
1443.438809468341
 21
204.1899999999964
 31
0.0
  0
LINE
  5
1A3
330
1F
100
AcDbEntity
  8
0
 62
    58
100
AcDbLine
 10
1443.438809468341
 20
242.4899999999967
 30
0.0
 11
1461.438809468341
 21
242.4899999999967
 31
0.0
  0
LINE
  5
1A4
330
1F
100
AcDbEntity
  8
0
 62
    58
100
AcDbLine
 10
1443.438809468341
 20
184.1899999999965
 30
0.0
 11
1443.438809468341
 21
204.1899999999964
 31
0.0
  0
LINE
  5
1A5
330
1F
100
AcDbEntity
  8
0
 62
    58
100
AcDbLine
 10
1443.438809468341
 20
242.4899999999967
 30
0.0
 11
1443.438809468341
 21
262.4899999999967
 31
0.0
  0
LINE
  5
1A6
330
1F
100
AcDbEntity
  8
0
 62
    58
100
AcDbLine
 10
1431.438809468341
 20
262.4899999999967
 30
0.0
 11
1443.438809468341
 21
262.4899999999966
 31
0.0
  0
LINE
  5
1A7
330
1F
100
AcDbEntity
  8
0
 62
    58
100
AcDbLine
 10
1431.438809468341
 20
259.2899999999967
 30
0.0
 11
1431.438809468341
 21
262.4899999999967
 31
0.0
  0
LINE
  5
1A8
330
1F
100
AcDbEntity
  8
0
 62
    58
100
AcDbLine
 10
1424.038809468341
 20
259.2899999999966
 30
0.0
 11
1428.238809468341
 21
259.2899999999966
 31
0.0
  0
LINE
  5
1A9
330
1F
100
AcDbEntity
  8
0
 62
    58
100
AcDbLine
 10
1422.438809468341
 20
272.0899999999967
 30
0.0
 11
1422.438809468341
 21
260.8899999999967
 31
0.0
  0
LINE
  5
1AA
330
1F
100
AcDbEntity
  8
0
 62
    58
100
AcDbLine
 10
1428.238809468341
 20
273.6899999999966
 30
0.0
 11
1424.038809468341
 21
273.6899999999966
 31
0.0
  0
LINE
  5
1AB
330
1F
100
AcDbEntity
  8
0
 62
    58
100
AcDbLine
 10
1431.438809468341
 20
270.4899999999967
 30
0.0
 11
1431.438809468341
 21
273.6899999999967
 31
0.0
  0
LINE
  5
1AC
330
1F
100
AcDbEntity
  8
0
 62
    58
100
AcDbLine
 10
1443.438809468341
 20
270.4899999999967
 30
0.0
 11
1431.438809468341
 21
270.4899999999968
 31
0.0
  0
LINE
  5
1AD
330
1F
100
AcDbEntity
  8
0
 62
    58
100
AcDbLine
 10
1443.438809468341
 20
270.4899999999967
 30
0.0
 11
1443.438809468341
 21
296.4899999999967
 31
0.0
  0
LINE
  5
1AE
330
1F
100
AcDbEntity
  8
0
 62
    58
100
AcDbLine
 10
49.43880946834126
 20
296.49
 30
0.0
 11
1443.438809468341
 21
296.4899999999967
 31
0.0
  0
LINE
  5
1AF
330
1F
100
AcDbEntity
  8
0
 62
    58
100
AcDbLine
 10
755.4388094683402
 20
126.4899999999984
 30
0.0
 11
737.4388094683402
 21
126.4899999999985
 31
0.0
  0
LINE
  5
1B0
330
1F
100
AcDbEntity
  8
0
 62
    58
100
AcDbLine
 10
755.4388094683402
 20
126.4899999999984
 30
0.0
 11
755.4388094683396
 21
46.48999999999842
 31
0.0
  0
LINE
  5
1B1
330
1F
100
AcDbEntity
  8
0
 62
    58
100
AcDbLine
 10
755.4388094683396
 20
46.48999999999853
 30
0.0
 11
1399.43880946834
 21
46.48999999999686
 31
0.0
  0
LINE
  5
1B2
330
1F
100
AcDbEntity
  8
0
 62
    58
100
AcDbLine
 10
1399.43880946834
 20
46.48999999999685
 30
0.0
 11
1399.43880946834
 21
58.48999999999686
 31
0.0
  0
LINE
  5
1B3
330
1F
100
AcDbEntity
  8
0
 62
    58
100
AcDbLine
 10
1399.43880946834
 20
58.48999999999686
 30
0.0
 11
1396.23880946834
 21
58.48999999999687
 31
0.0
  0
ARC
  5
1B4
330
1F
100
AcDbEntity
  8
0
 62
    58
100
AcDbCircle
 10
1396.23880946834
 20
60.08999999999692
 30
0.0
 40
1.600000000000004
100
AcDbArc
 50
89.99999999999984
 51
269.9999999999998
  0
LINE
  5
1B5
330
1F
100
AcDbEntity
  8
0
 62
    58
100
AcDbLine
 10
1396.23880946834
 20
61.68999999999685
 30
0.0
 11
1396.23880946834
 21
65.98999999999694
 31
0.0
  0
LINE
  5
1B6
330
1F
100
AcDbEntity
  8
0
 62
    58
100
AcDbLine
 10
1397.73880946834
 20
67.48999999999687
 30
0.0
 11
1409.03880946834
 21
67.48999999999684
 31
0.0
  0
LINE
  5
1B7
330
1F
100
AcDbEntity
  8
0
 62
    58
100
AcDbLine
 10
1410.63880946834
 20
65.8899999999968
 30
0.0
 11
1410.63880946834
 21
61.68999999999681
 31
0.0
  0
ARC
  5
1B8
330
1F
100
AcDbEntity
  8
0
 62
    58
100
AcDbCircle
 10
1410.63880946834
 20
60.08999999999688
 30
0.0
 40
1.599999999999997
100
AcDbArc
 50
269.9999999999998
 51
89.99999999999986
  0
LINE
  5
1B9
330
1F
100
AcDbEntity
  8
0
 62
    58
100
AcDbLine
 10
1410.63880946834
 20
58.48999999999683
 30
0.0
 11
1407.43880946834
 21
58.48999999999684
 31
0.0
  0
LINE
  5
1BA
330
1F
100
AcDbEntity
  8
0
 62
    58
100
AcDbLine
 10
1407.43880946834
 20
58.48999999999684
 30
0.0
 11
1407.43880946834
 21
46.48999999999683
 31
0.0
  0
LINE
  5
1BB
330
1F
100
AcDbEntity
  8
0
 62
    58
100
AcDbLine
 10
1407.43880946834
 20
46.48999999999683
 30
0.0
 11
1426.43880946834
 21
46.48999999999678
 31
0.0
  0
LINE
  5
1BC
330
1F
100
AcDbEntity
  8
0
 62
    58
100
AcDbLine
 10
1426.43880946834
 20
46.48999999999679
 30
0.0
 11
1426.43880946834
 21
28.48999999999678
 31
0.0
  0
LINE
  5
1BD
330
1F
100
AcDbEntity
  8
0
 62
    58
100
AcDbLine
 10
1426.43880946834
 20
28.48999999999677
 30
0.0
 11
1466.43880946834
 21
28.48999999999667
 31
0.0
  0
LINE
  5
1BE
330
1F
100
AcDbEntity
  8
0
 62
    58
100
AcDbLine
 10
1466.43880946834
 20
28.48999999999667
 30
0.0
 11
1466.43880946834
 21
113.1899999999967
 31
0.0
  0
LINE
  5
1BF
330
1F
100
AcDbEntity
  8
0
 62
    58
100
AcDbLine
 10
1466.43880946834
 20
113.1899999999967
 30
0.0
 11
1454.43880946834
 21
113.1899999999968
 31
0.0
  0
LINE
  5
1C0
330
1F
100
AcDbEntity
  8
0
 62
    58
100
AcDbLine
 10
1454.43880946834
 20
113.1899999999968
 30
0.0
 11
1454.43880946834
 21
109.9899999999967
 31
0.0
  0
LINE
  5
1C1
330
1F
100
AcDbEntity
  8
0
 62
    58
100
AcDbLine
 10
1451.23880946834
 20
109.9899999999967
 30
0.0
 11
1447.03880946834
 21
109.9899999999967
 31
0.0
  0
LINE
  5
1C2
330
1F
100
AcDbEntity
  8
0
 62
    58
100
AcDbLine
 10
1445.438809468341
 20
111.5899999999968
 30
0.0
 11
1445.438809468341
 21
122.7899999999968
 31
0.0
  0
LINE
  5
1C3
330
1F
100
AcDbEntity
  8
0
 62
    58
100
AcDbLine
 10
1447.03880946834
 20
124.3899999999967
 30
0.0
 11
1451.23880946834
 21
124.3899999999967
 31
0.0
  0
LINE
  5
1C4
330
1F
100
AcDbEntity
  8
0
 62
    58
100
AcDbLine
 10
1454.43880946834
 20
124.3899999999967
 30
0.0
 11
1454.43880946834
 21
121.1899999999967
 31
0.0
  0
LINE
  5
1C5
330
1F
100
AcDbEntity
  8
0
 62
    58
100
AcDbLine
 10
1454.43880946834
 20
121.1899999999967
 30
0.0
 11
1466.43880946834
 21
121.1899999999966
 31
0.0
  0
LINE
  5
1C6
330
1F
100
AcDbEntity
  8
0
 62
    58
100
AcDbLine
 10
1466.43880946834
 20
121.1899999999966
 30
0.0
 11
1466.43880946834
 21
137.1899999999966
 31
0.0
  0
LINE
  5
1C7
330
1F
100
AcDbEntity
  8
0
 62
    58
100
AcDbLine
 10
1466.438809468341
 20
137.1899999999966
 30
0.0
 11
1416.438809468341
 21
137.1899999999968
 31
0.0
  0
LINE
  5
1C8
330
1F
100
AcDbEntity
  8
0
 62
    58
100
AcDbLine
 10
1416.438809468341
 20
137.1899999999968
 30
0.0
 11
1416.438809468341
 21
155.1899999999965
 31
0.0
  0
LINE
  5
1C9
330
1F
100
AcDbEntity
  8
0
 62
    58
100
AcDbLine
 10
1416.438809468341
 20
155.1899999999965
 30
0.0
 11
1443.438809468341
 21
155.1899999999964
 31
0.0
  0
LINE
  5
1CA
330
1F
100
AcDbEntity
  8
0
 62
    58
100
AcDbLine
 10
1443.438809468341
 20
155.1899999999964
 30
0.0
 11
1443.438809468341
 21
176.1899999999965
 31
0.0
  0
LINE
  5
1CB
330
1F
100
AcDbEntity
  8
0
 62
    58
100
AcDbLine
 10
1443.438809468341
 20
176.1899999999965
 30
0.0
 11
1431.438809468341
 21
176.1899999999965
 31
0.0
  0
LINE
  5
1CC
330
1F
100
AcDbEntity
  8
0
 62
    58
100
AcDbLine
 10
1431.438809468341
 20
176.1899999999965
 30
0.0
 11
1431.438809468341
 21
172.9899999999966
 31
0.0
  0
LINE
  5
1CD
330
1F
100
AcDbEntity
  8
0
 62
    58
100
AcDbLine
 10
1428.238809468341
 20
172.9899999999964
 30
0.0
 11
1424.038809468341
 21
172.9899999999964
 31
0.0
  0
LINE
  5
1CE
330
1F
100
AcDbEntity
  8
0
 62
    58
100
AcDbLine
 10
1422.438809468341
 20
174.5899999999965
 30
0.0
 11
1422.438809468341
 21
185.7899999999965
 31
0.0
  0
LINE
  5
1CF
330
1F
100
AcDbEntity
  8
0
 62
    58
100
AcDbLine
 10
1424.038809468341
 20
187.3899999999964
 30
0.0
 11
1428.238809468341
 21
187.3899999999964
 31
0.0
  0
LINE
  5
1D0
330
1F
100
AcDbEntity
  8
0
 62
    58
100
AcDbLine
 10
1431.438809468341
 20
187.3899999999965
 30
0.0
 11
1431.438809468341
 21
184.1899999999966
 31
0.0
  0
LINE
  5
1D1
330
1F
100
AcDbEntity
  8
0
 62
    58
100
AcDbLine
 10
1431.438809468341
 20
184.1899999999966
 30
0.0
 11
1443.438809468341
 21
184.1899999999965
 31
0.0
  0
LINE
  5
1D2
330
1F
100
AcDbEntity
  8
0
 62
    58
100
AcDbLine
 10
816.0788094683415
 20
721.8699999999989
 30
0.0
 11
816.078809468342
 21
891.8699999999989
 31
0.0
  0
ARC
  5
1D3
330
1F
100
AcDbEntity
  8
0
 62
    58
100
AcDbCircle
 10
54.67880946834184
 20
819.0700000000005
 30
0.0
 40
1.599999999999997
100
AcDbArc
 50
359.9999999999998
 51
179.9999999999896
  0
ARC
  5
1D4
330
1F
100
AcDbEntity
  8
0
 62
    58
100
AcDbCircle
 10
60.47880946834164
 20
817.4700000000007
 30
0.0
 40
1.6
100
AcDbArc
 50
359.9999999999999
 51
89.99999999998748
  0
ARC
  5
1D5
330
1F
100
AcDbEntity
  8
0
 62
    58
100
AcDbCircle
 10
60.47880946834164
 20
806.2700000000006
 30
0.0
 40
1.6
100
AcDbArc
 50
269.9999999999999
 51
0.000000000008244
  0
ARC
  5
1D6
330
1F
100
AcDbEntity
  8
0
 62
    58
100
AcDbCircle
 10
54.67880946834184
 20
804.6700000000005
 30
0.0
 40
1.599999999999997
100
AcDbArc
 50
179.9999999999998
 51
359.9999999999967
  0
ARC
  5
1D7
330
1F
100
AcDbEntity
  8
0
 62
    58
100
AcDbCircle
 10
54.67880946834162
 20
724.0700000000005
 30
0.0
 40
1.599999999999997
100
AcDbArc
 50
359.9999999999998
 51
179.9999999999896
  0
ARC
  5
1D8
330
1F
100
AcDbEntity
  8
0
 62
    58
100
AcDbCircle
 10
60.47880946834164
 20
722.4700000000007
 30
0.0
 40
1.6
100
AcDbArc
 50
359.9999999999999
 51
89.99999999998748
  0
ARC
  5
1D9
330
1F
100
AcDbEntity
  8
0
 62
    58
100
AcDbCircle
 10
60.47880946834164
 20
711.2700000000008
 30
0.0
 40
1.6
100
AcDbArc
 50
269.9999999999999
 51
0.0000000000079896
  0
ARC
  5
1DA
330
1F
100
AcDbEntity
  8
0
 62
    58
100
AcDbCircle
 10
54.67880946834162
 20
709.6700000000005
 30
0.0
 40
1.599999999999997
100
AcDbArc
 50
179.9999999999998
 51
359.9999999999967
  0
ARC
  5
1DB
330
1F
100
AcDbEntity
  8
0
 62
    58
100
AcDbCircle
 10
1559.478809468342
 20
819.069999999997
 30
0.0
 40
1.599999999999997
100
AcDbArc
 50
359.9999999999998
 51
179.9999999999681
  0
ARC
  5
1DC
330
1F
100
AcDbEntity
  8
0
 62
    58
100
AcDbCircle
 10
1553.678809468342
 20
817.4699999999971
 30
0.0
 40
1.6
100
AcDbArc
 50
89.99999999999984
 51
180.0000000000111
  0
ARC
  5
1DD
330
1F
100
AcDbEntity
  8
0
 62
    58
100
AcDbCircle
 10
1553.678809468342
 20
806.269999999997
 30
0.0
 40
1.6
100
AcDbArc
 50
179.9999999999996
 51
269.9999999999769
  0
ARC
  5
1DE
330
1F
100
AcDbEntity
  8
0
 62
    58
100
AcDbCircle
 10
1559.478809468342
 20
804.669999999997
 30
0.0
 40
1.599999999999997
100
AcDbArc
 50
179.9999999999998
 51
359.9999999999916
  0
ARC
  5
1DF
330
1F
100
AcDbEntity
  8
0
 62
    58
100
AcDbCircle
 10
1559.478809468341
 20
724.0699999999971
 30
0.0
 40
1.599999999999997
100
AcDbArc
 50
359.9999999999998
 51
179.9999999999681
  0
ARC
  5
1E0
330
1F
100
AcDbEntity
  8
0
 62
    58
100
AcDbCircle
 10
1553.678809468342
 20
722.4699999999972
 30
0.0
 40
1.6
100
AcDbArc
 50
89.99999999999984
 51
180.0000000000115
  0
ARC
  5
1E1
330
1F
100
AcDbEntity
  8
0
 62
    58
100
AcDbCircle
 10
1553.678809468342
 20
711.2699999999971
 30
0.0
 40
1.6
100
AcDbArc
 50
179.9999999999999
 51
269.9999999999769
  0
ARC
  5
1E2
330
1F
100
AcDbEntity
  8
0
 62
    58
100
AcDbCircle
 10
1559.478809468341
 20
709.6699999999971
 30
0.0
 40
1.599999999999997
100
AcDbArc
 50
179.9999999999998
 51
359.9999999999916
  0
LINE
  5
1E3
330
1F
100
AcDbEntity
  8
0
 62
    58
100
AcDbLine
 10
410.5788094683415
 20
721.8699999999999
 30
0.0
 11
410.5788094683419
 21
891.8699999999998
 31
0.0
  0
LINE
  5
1E4
330
1F
100
AcDbEntity
  8
0
 62
    58
100
AcDbLine
 10
428.5788094683415
 20
721.8699999999999
 30
0.0
 11
428.578809468342
 21
891.8699999999998
 31
0.0
  0
LINE
  5
1E5
330
1F
100
AcDbEntity
  8
0
 62
    58
100
AcDbLine
 10
428.5788094683415
 20
721.8699999999999
 30
0.0
 11
410.5788094683415
 21
721.8699999999999
 31
0.0
  0
LINE
  5
1E6
330
1F
100
AcDbEntity
  8
0
 62
    58
100
AcDbLine
 10
41.07880946834201
 20
891.8700000000007
 30
0.0
 11
410.5788094683419
 21
891.8699999999998
 31
0.0
  0
LINE
  5
1E7
330
1F
100
AcDbEntity
  8
0
 62
    58
100
AcDbLine
 10
41.07880946834201
 20
861.8700000000007
 30
0.0
 11
41.07880946834201
 21
891.8700000000007
 31
0.0
  0
LINE
  5
1E8
330
1F
100
AcDbEntity
  8
0
 62
    58
100
AcDbLine
 10
33.078809468342
 20
861.8700000000007
 30
0.0
 11
41.07880946834201
 21
861.8700000000007
 31
0.0
  0
LINE
  5
1E9
330
1F
100
AcDbEntity
  8
0
 62
    58
100
AcDbLine
 10
33.07880946834177
 20
831.8700000000007
 30
0.0
 11
33.078809468342
 21
861.8700000000007
 31
0.0
  0
LINE
  5
1EA
330
1F
100
AcDbEntity
  8
0
 62
    58
100
AcDbLine
 10
41.07880946834178
 20
831.8700000000007
 30
0.0
 11
33.07880946834177
 21
831.8700000000007
 31
0.0
  0
LINE
  5
1EB
330
1F
100
AcDbEntity
  8
0
 62
    58
100
AcDbLine
 10
41.07880946834178
 20
815.8700000000007
 30
0.0
 11
41.07880946834179
 21
831.8700000000007
 31
0.0
  0
LINE
  5
1EC
330
1F
100
AcDbEntity
  8
0
 62
    58
100
AcDbLine
 10
53.0788094683418
 20
815.8700000000007
 30
0.0
 11
41.07880946834178
 21
815.8700000000007
 31
0.0
  0
LINE
  5
1ED
330
1F
100
AcDbEntity
  8
0
 62
    58
100
AcDbLine
 10
53.0788094683418
 20
819.0700000000005
 30
0.0
 11
53.0788094683418
 21
815.8700000000005
 31
0.0
  0
LINE
  5
1EE
330
1F
100
AcDbEntity
  8
0
 62
    58
100
AcDbLine
 10
60.47880946834164
 20
819.0700000000007
 30
0.0
 11
56.27880946834188
 21
819.0700000000005
 31
0.0
  0
LINE
  5
1EF
330
1F
100
AcDbEntity
  8
0
 62
    58
100
AcDbLine
 10
62.07880946834169
 20
806.2700000000006
 30
0.0
 11
62.07880946834169
 21
817.4700000000007
 31
0.0
  0
LINE
  5
1F0
330
1F
100
AcDbEntity
  8
0
 62
    58
100
AcDbLine
 10
56.27880946834188
 20
804.6700000000005
 30
0.0
 11
60.47880946834164
 21
804.6700000000005
 31
0.0
  0
LINE
  5
1F1
330
1F
100
AcDbEntity
  8
0
 62
    58
100
AcDbLine
 10
53.0788094683418
 20
807.8700000000007
 30
0.0
 11
53.0788094683418
 21
804.6700000000005
 31
0.0
  0
LINE
  5
1F2
330
1F
100
AcDbEntity
  8
0
 62
    58
100
AcDbLine
 10
41.07880946834178
 20
807.8700000000007
 30
0.0
 11
53.0788094683418
 21
807.8700000000007
 31
0.0
  0
LINE
  5
1F3
330
1F
100
AcDbEntity
  8
0
 62
    58
100
AcDbLine
 10
41.07880946834156
 20
720.8700000000007
 30
0.0
 11
41.07880946834177
 21
807.8700000000007
 31
0.0
  0
LINE
  5
1F4
330
1F
100
AcDbEntity
  8
0
 62
    58
100
AcDbLine
 10
53.07880946834157
 20
720.8700000000007
 30
0.0
 11
41.07880946834156
 21
720.8700000000007
 31
0.0
  0
LINE
  5
1F5
330
1F
100
AcDbEntity
  8
0
 62
    58
100
AcDbLine
 10
53.07880946834157
 20
724.0700000000006
 30
0.0
 11
53.07880946834157
 21
720.8700000000007
 31
0.0
  0
LINE
  5
1F6
330
1F
100
AcDbEntity
  8
0
 62
    58
100
AcDbLine
 10
60.47880946834164
 20
724.0700000000007
 30
0.0
 11
56.27880946834166
 21
724.0700000000007
 31
0.0
  0
LINE
  5
1F7
330
1F
100
AcDbEntity
  8
0
 62
    58
100
AcDbLine
 10
62.07880946834147
 20
711.2700000000008
 30
0.0
 11
62.07880946834147
 21
722.4700000000007
 31
0.0
  0
LINE
  5
1F8
330
1F
100
AcDbEntity
  8
0
 62
    58
100
AcDbLine
 10
56.27880946834166
 20
709.6700000000005
 30
0.0
 11
60.47880946834164
 21
709.6700000000006
 31
0.0
  0
LINE
  5
1F9
330
1F
100
AcDbEntity
  8
0
 62
    58
100
AcDbLine
 10
53.07880946834157
 20
712.8700000000007
 30
0.0
 11
53.07880946834157
 21
709.6700000000006
 31
0.0
  0
LINE
  5
1FA
330
1F
100
AcDbEntity
  8
0
 62
    58
100
AcDbLine
 10
41.07880946834156
 20
712.8700000000007
 30
0.0
 11
53.07880946834157
 21
712.8700000000007
 31
0.0
  0
LINE
  5
1FB
330
1F
100
AcDbEntity
  8
0
 62
    58
100
AcDbLine
 10
41.07880946834156
 20
696.8700000000008
 30
0.0
 11
41.07880946834156
 21
712.8700000000007
 31
0.0
  0
LINE
  5
1FC
330
1F
100
AcDbEntity
  8
0
 62
    58
100
AcDbLine
 10
33.07880946834155
 20
696.8700000000008
 30
0.0
 11
41.07880946834156
 21
696.8700000000008
 31
0.0
  0
LINE
  5
1FD
330
1F
100
AcDbEntity
  8
0
 62
    58
100
AcDbLine
 10
33.07880946834155
 20
666.8700000000008
 30
0.0
 11
33.07880946834155
 21
696.8700000000008
 31
0.0
  0
LINE
  5
1FE
330
1F
100
AcDbEntity
  8
0
 62
    58
100
AcDbLine
 10
41.07880946834156
 20
666.8700000000008
 30
0.0
 11
33.07880946834155
 21
666.8700000000008
 31
0.0
  0
LINE
  5
1FF
330
1F
100
AcDbEntity
  8
0
 62
    58
100
AcDbLine
 10
41.07880946834134
 20
641.8700000000008
 30
0.0
 11
41.07880946834157
 21
666.8700000000008
 31
0.0
  0
LINE
  5
200
330
1F
100
AcDbEntity
  8
0
 62
    58
100
AcDbLine
 10
1573.078809468341
 20
641.8699999999973
 30
0.0
 11
41.07880946834142
 21
641.8700000000009
 31
0.0
  0
LINE
  5
201
330
1F
100
AcDbEntity
  8
0
 62
    58
100
AcDbLine
 10
1573.078809468341
 20
666.8699999999972
 30
0.0
 11
1573.078809468341
 21
641.8699999999973
 31
0.0
  0
LINE
  5
202
330
1F
100
AcDbEntity
  8
0
 62
    58
100
AcDbLine
 10
1581.078809468341
 20
666.869999999997
 30
0.0
 11
1573.078809468341
 21
666.869999999997
 31
0.0
  0
LINE
  5
203
330
1F
100
AcDbEntity
  8
0
 62
    58
100
AcDbLine
 10
1581.078809468341
 20
696.869999999997
 30
0.0
 11
1581.078809468341
 21
666.869999999997
 31
0.0
  0
LINE
  5
204
330
1F
100
AcDbEntity
  8
0
 62
    58
100
AcDbLine
 10
1573.078809468341
 20
696.8699999999972
 30
0.0
 11
1581.078809468341
 21
696.8699999999972
 31
0.0
  0
LINE
  5
205
330
1F
100
AcDbEntity
  8
0
 62
    58
100
AcDbLine
 10
1573.078809468341
 20
712.8699999999972
 30
0.0
 11
1573.078809468341
 21
696.8699999999972
 31
0.0
  0
LINE
  5
206
330
1F
100
AcDbEntity
  8
0
 62
    58
100
AcDbLine
 10
1561.078809468341
 20
712.8699999999972
 30
0.0
 11
1573.078809468341
 21
712.8699999999972
 31
0.0
  0
LINE
  5
207
330
1F
100
AcDbEntity
  8
0
 62
    58
100
AcDbLine
 10
1561.078809468341
 20
709.6699999999971
 30
0.0
 11
1561.078809468341
 21
712.8699999999972
 31
0.0
  0
LINE
  5
208
330
1F
100
AcDbEntity
  8
0
 62
    58
100
AcDbLine
 10
1553.678809468342
 20
709.6699999999971
 30
0.0
 11
1557.878809468342
 21
709.6699999999971
 31
0.0
  0
LINE
  5
209
330
1F
100
AcDbEntity
  8
0
 62
    58
100
AcDbLine
 10
1552.078809468341
 20
722.4699999999972
 30
0.0
 11
1552.078809468341
 21
711.2699999999971
 31
0.0
  0
LINE
  5
20A
330
1F
100
AcDbEntity
  8
0
 62
    58
100
AcDbLine
 10
1557.878809468342
 20
724.0699999999971
 30
0.0
 11
1553.678809468342
 21
724.0699999999971
 31
0.0
  0
LINE
  5
20B
330
1F
100
AcDbEntity
  8
0
 62
    58
100
AcDbLine
 10
1561.078809468341
 20
720.8699999999972
 30
0.0
 11
1561.078809468341
 21
724.0699999999971
 31
0.0
  0
LINE
  5
20C
330
1F
100
AcDbEntity
  8
0
 62
    58
100
AcDbLine
 10
1573.078809468341
 20
720.8699999999972
 30
0.0
 11
1561.078809468341
 21
720.8699999999972
 31
0.0
  0
LINE
  5
20D
330
1F
100
AcDbEntity
  8
0
 62
    58
100
AcDbLine
 10
1573.078809468342
 20
807.8699999999969
 30
0.0
 11
1573.078809468341
 21
720.8699999999972
 31
0.0
  0
LINE
  5
20E
330
1F
100
AcDbEntity
  8
0
 62
    58
100
AcDbLine
 10
1561.078809468342
 20
807.8699999999969
 30
0.0
 11
1573.078809468342
 21
807.8699999999969
 31
0.0
  0
LINE
  5
20F
330
1F
100
AcDbEntity
  8
0
 62
    58
100
AcDbLine
 10
1561.078809468342
 20
804.6699999999969
 30
0.0
 11
1561.078809468342
 21
807.8699999999969
 31
0.0
  0
LINE
  5
210
330
1F
100
AcDbEntity
  8
0
 62
    58
100
AcDbLine
 10
1553.678809468342
 20
804.669999999997
 30
0.0
 11
1557.878809468342
 21
804.669999999997
 31
0.0
  0
LINE
  5
211
330
1F
100
AcDbEntity
  8
0
 62
    58
100
AcDbLine
 10
1552.078809468342
 20
817.4699999999971
 30
0.0
 11
1552.078809468342
 21
806.269999999997
 31
0.0
  0
LINE
  5
212
330
1F
100
AcDbEntity
  8
0
 62
    58
100
AcDbLine
 10
1557.878809468342
 20
819.069999999997
 30
0.0
 11
1553.678809468342
 21
819.069999999997
 31
0.0
  0
LINE
  5
213
330
1F
100
AcDbEntity
  8
0
 62
    58
100
AcDbLine
 10
1561.078809468342
 20
815.8699999999969
 30
0.0
 11
1561.078809468342
 21
819.0699999999971
 31
0.0
  0
LINE
  5
214
330
1F
100
AcDbEntity
  8
0
 62
    58
100
AcDbLine
 10
1573.078809468342
 20
815.8699999999969
 30
0.0
 11
1561.078809468342
 21
815.8699999999969
 31
0.0
  0
LINE
  5
215
330
1F
100
AcDbEntity
  8
0
 62
    58
100
AcDbLine
 10
1573.078809468342
 20
831.8699999999972
 30
0.0
 11
1573.078809468342
 21
815.8699999999969
 31
0.0
  0
LINE
  5
216
330
1F
100
AcDbEntity
  8
0
 62
    58
100
AcDbLine
 10
1581.078809468342
 20
831.869999999997
 30
0.0
 11
1573.078809468342
 21
831.869999999997
 31
0.0
  0
LINE
  5
217
330
1F
100
AcDbEntity
  8
0
 62
    58
100
AcDbLine
 10
1581.078809468342
 20
861.869999999997
 30
0.0
 11
1581.078809468342
 21
831.869999999997
 31
0.0
  0
LINE
  5
218
330
1F
100
AcDbEntity
  8
0
 62
    58
100
AcDbLine
 10
1573.078809468342
 20
861.8699999999973
 30
0.0
 11
1581.078809468342
 21
861.8699999999972
 31
0.0
  0
LINE
  5
219
330
1F
100
AcDbEntity
  8
0
 62
    58
100
AcDbLine
 10
1573.078809468342
 20
891.8699999999973
 30
0.0
 11
1573.078809468342
 21
861.8699999999973
 31
0.0
  0
LINE
  5
21A
330
1F
100
AcDbEntity
  8
0
 62
    58
100
AcDbLine
 10
1203.578809468342
 20
891.8699999999982
 30
0.0
 11
1573.078809468342
 21
891.8699999999973
 31
0.0
  0
LINE
  5
21B
330
1F
100
AcDbEntity
  8
0
 62
    58
100
AcDbLine
 10
1203.578809468342
 20
891.8699999999982
 30
0.0
 11
1203.578809468341
 21
721.8699999999981
 31
0.0
  0
LINE
  5
21C
330
1F
100
AcDbEntity
  8
0
 62
    58
100
AcDbLine
 10
1203.578809468341
 20
721.8699999999981
 30
0.0
 11
1185.578809468341
 21
721.8699999999981
 31
0.0
  0
LINE
  5
21D
330
1F
100
AcDbEntity
  8
0
 62
    58
100
AcDbLine
 10
1185.578809468342
 20
891.8699999999981
 30
0.0
 11
1185.578809468341
 21
721.8699999999981
 31
0.0
  0
LINE
  5
21E
330
1F
100
AcDbEntity
  8
0
 62
    58
100
AcDbLine
 10
816.078809468342
 20
891.8699999999989
 30
0.0
 11
1185.578809468342
 21
891.8699999999981
 31
0.0
  0
LINE
  5
21F
330
1F
100
AcDbEntity
  8
0
 62
    58
100
AcDbLine
 10
816.0788094683415
 20
721.8699999999989
 30
0.0
 11
798.0788094683415
 21
721.8699999999989
 31
0.0
  0
LINE
  5
220
330
1F
100
AcDbEntity
  8
0
 62
    58
100
AcDbLine
 10
798.0788094683415
 20
721.869999999999
 30
0.0
 11
798.078809468342
 21
891.869999999999
 31
0.0
  0
LINE
  5
221
330
1F
100
AcDbEntity
  8
0
 62
    58
100
AcDbLine
 10
428.578809468342
 20
891.8699999999998
 30
0.0
 11
798.078809468342
 21
891.869999999999
 31
0.0
  0
ARC
  5
222
330
1F
100
AcDbEntity
  8
0
 62
    58
100
AcDbCircle
 10
1952.919200963634
 20
1039.328999999994
 30
0.0
 40
50.0
100
AcDbArc
 50
269.9999999999997
 51
294.1504230694676
  0
ARC
  5
223
330
1F
100
AcDbEntity
  8
0
 62
    58
100
AcDbCircle
 10
1854.02299997896
 20
1137.448999999994
 30
0.0
 40
1.59999999999999
100
AcDbArc
 50
91.69442739694972
 51
271.2207593044483
  0
ARC
  5
224
330
1F
100
AcDbEntity
  8
0
 62
    58
100
AcDbCircle
 10
1868.42299997896
 20
1137.448999999994
 30
0.0
 40
1.600000000000002
100
AcDbArc
 50
271.2207593045189
 51
91.6944273969275
  0
ARC
  5
225
330
1F
100
AcDbEntity
  8
0
 62
    58
100
AcDbCircle
 10
1975.172999978961
 20
1137.448999999993
 30
0.0
 40
1.600000000000002
100
AcDbArc
 50
271.2207593045383
 51
91.6944273969477
  0
ARC
  5
226
330
1F
100
AcDbEntity
  8
0
 62
    58
100
AcDbCircle
 10
1960.772999978961
 20
1137.448999999993
 30
0.0
 40
1.59999999999999
100
AcDbArc
 50
91.69442739701756
 51
271.2207593045169
  0
ARC
  5
227
330
1F
100
AcDbEntity
  8
0
 62
    58
100
AcDbCircle
 10
2050.982999978961
 20
1137.448999999993
 30
0.0
 40
1.600000000000002
100
AcDbArc
 50
271.2207593045047
 51
91.6944273969477
  0
ARC
  5
228
330
1F
100
AcDbEntity
  8
0
 62
    58
100
AcDbCircle
 10
2036.582999978961
 20
1137.448999999993
 30
0.0
 40
1.59999999999999
100
AcDbArc
 50
91.69442739690959
 51
271.2207593045169
  0
ARC
  5
229
330
1F
100
AcDbEntity
  8
0
 62
    58
100
AcDbCircle
 10
1855.764410685605
 20
1131.651912169053
 30
0.0
 40
1.6
100
AcDbArc
 50
181.4575933507328
 51
270.0000000000181
  0
ARC
  5
22A
330
1F
100
AcDbEntity
  8
0
 62
    58
100
AcDbCircle
 10
1866.963374912567
 20
1131.651912169053
 30
0.0
 40
1.6
100
AcDbArc
 50
269.9999999999998
 51
1.45759335075186
  0
ARC
  5
22B
330
1F
100
AcDbEntity
  8
0
 62
    58
100
AcDbCircle
 10
1962.514410685606
 20
1131.651912169053
 30
0.0
 40
1.6
100
AcDbArc
 50
181.4575933507329
 51
270.0000000000173
  0
ARC
  5
22C
330
1F
100
AcDbEntity
  8
0
 62
    58
100
AcDbCircle
 10
1973.713374912568
 20
1131.651912169053
 30
0.0
 40
1.6
100
AcDbArc
 50
269.9999999999998
 51
1.45759335075125
  0
ARC
  5
22D
330
1F
100
AcDbEntity
  8
0
 62
    58
100
AcDbCircle
 10
2038.324410685605
 20
1131.651912169053
 30
0.0
 40
1.6
100
AcDbArc
 50
181.4575933507328
 51
270.0000000000729
  0
ARC
  5
22E
330
1F
100
AcDbEntity
  8
0
 62
    58
100
AcDbCircle
 10
2049.523374912568
 20
1131.651912169053
 30
0.0
 40
1.6
100
AcDbArc
 50
269.9999999999998
 51
1.457593350751555
  0
ARC
  5
22F
330
1F
100
AcDbEntity
  8
0
 62
    58
100
AcDbCircle
 10
1855.690138500983
 20
1078.928999999994
 30
0.0
 40
1.6
100
AcDbArc
 50
359.9999999999989
 51
89.99999999999073
  0
ARC
  5
230
330
1F
100
AcDbEntity
  8
0
 62
    58
100
AcDbCircle
 10
1855.690138500983
 20
1067.728999999994
 30
0.0
 40
1.6
100
AcDbArc
 50
269.9999999999979
 51
359.9999999999937
  0
ARC
  5
231
330
1F
100
AcDbEntity
  8
0
 62
    58
100
AcDbCircle
 10
2026.350138500983
 20
1045.438999999993
 30
0.0
 40
1.6
100
AcDbArc
 50
179.9999999999998
 51
270.000000000031
  0
ARC
  5
232
330
1F
100
AcDbEntity
  8
0
 62
    58
100
AcDbCircle
 10
2026.350138500983
 20
1054.938999999993
 30
0.0
 40
1.6
100
AcDbArc
 50
90.00000000000085
 51
180.0000000000228
  0
ARC
  5
233
330
1F
100
AcDbEntity
  8
0
 62
    58
100
AcDbCircle
 10
2041.21990102003
 20
969.3289999999932
 30
0.0
 40
49.99999999999999
100
AcDbArc
 50
89.9999999999999
 51
114.1504230694685
  0
LINE
  5
234
330
1F
100
AcDbEntity
  8
0
 62
    58
100
AcDbLine
 10
2041.21990102003
 20
1019.328999999993
 30
0.0
 11
2068.850138500983
 21
1019.328999999993
 31
0.0
  0
LINE
  5
235
330
1F
100
AcDbEntity
  8
0
 62
    58
100
AcDbLine
 10
2020.76321899117
 20
1014.952723657429
 30
0.0
 11
1973.375882992495
 21
993.7052763425572
 31
0.0
  0
LINE
  5
236
330
1F
100
AcDbEntity
  8
0
 62
    58
100
AcDbLine
 10
2033.950138500983
 20
1054.188999999993
 30
0.0
 11
2033.950138500983
 21
1059.188999999993
 31
0.0
  0
LINE
  5
237
330
1F
100
AcDbEntity
  8
0
 62
    58
100
AcDbLine
 10
2030.750138500983
 20
1059.188999999993
 30
0.0
 11
2030.750138500983
 21
1056.538999999993
 31
0.0
  0
ARC
  5
238
330
1F
100
AcDbEntity
  8
0
 62
    58
100
AcDbCircle
 10
2032.350138500983
 20
1059.188999999993
 30
0.0
 40
1.59999999999999
100
AcDbArc
 50
359.9999999999999
 51
179.9999999999999
  0
LINE
  5
239
330
1F
100
AcDbEntity
  8
0
 62
    58
100
AcDbLine
 10
2030.750138500983
 20
1056.538999999993
 30
0.0
 11
2026.350138500983
 21
1056.538999999993
 31
0.0
  0
LINE
  5
23A
330
1F
100
AcDbEntity
  8
0
 62
    58
100
AcDbLine
 10
2033.950138500983
 20
1041.188999999993
 30
0.0
 11
2033.950138500983
 21
1046.188999999993
 31
0.0
  0
ARC
  5
23B
330
1F
100
AcDbEntity
  8
0
 62
    58
100
AcDbCircle
 10
2032.350138500983
 20
1041.188999999993
 30
0.0
 40
1.600000000000018
100
AcDbArc
 50
179.9999999999999
 51
359.9999999999998
  0
LINE
  5
23C
330
1F
100
AcDbEntity
  8
0
 62
    58
100
AcDbLine
 10
2030.750138500983
 20
1043.838999999993
 30
0.0
 11
2030.750138500983
 21
1041.188999999993
 31
0.0
  0
LINE
  5
23D
330
1F
100
AcDbEntity
  8
0
 62
    58
100
AcDbLine
 10
2026.350138500983
 20
1043.838999999993
 30
0.0
 11
2030.750138500983
 21
1043.838999999993
 31
0.0
  0
LINE
  5
23E
330
1F
100
AcDbEntity
  8
0
 62
    58
100
AcDbLine
 10
2024.750138500983
 20
1054.938999999993
 30
0.0
 11
2024.750138500983
 21
1045.438999999993
 31
0.0
  0
LINE
  5
23F
330
1F
100
AcDbEntity
  8
0
 62
    58
100
AcDbLine
 10
1836.290138500982
 20
1069.328999999994
 30
0.0
 11
1848.290138500982
 21
1069.328999999994
 31
0.0
  0
LINE
  5
240
330
1F
100
AcDbEntity
  8
0
 62
    58
100
AcDbLine
 10
1848.290138500982
 20
1069.328999999994
 30
0.0
 11
1848.290138500982
 21
1066.128999999994
 31
0.0
  0
ARC
  5
241
330
1F
100
AcDbEntity
  8
0
 62
    58
100
AcDbCircle
 10
1849.890138500982
 20
1066.128999999994
 30
0.0
 40
1.600000000000018
100
AcDbArc
 50
180.0000000000009
 51
359.9999999999989
  0
LINE
  5
242
330
1F
100
AcDbEntity
  8
0
 62
    58
100
AcDbLine
 10
1851.490138500983
 20
1066.128999999994
 30
0.0
 11
1855.690138500983
 21
1066.128999999994
 31
0.0
  0
LINE
  5
243
330
1F
100
AcDbEntity
  8
0
 62
    58
100
AcDbLine
 10
1857.290138500982
 20
1067.728999999994
 30
0.0
 11
1857.290138500982
 21
1078.928999999994
 31
0.0
  0
LINE
  5
244
330
1F
100
AcDbEntity
  8
0
 62
    58
100
AcDbLine
 10
1855.690138500983
 20
1080.528999999994
 30
0.0
 11
1851.490138500983
 21
1080.528999999994
 31
0.0
  0
ARC
  5
245
330
1F
100
AcDbEntity
  8
0
 62
    58
100
AcDbCircle
 10
1849.890138500982
 20
1080.528999999994
 30
0.0
 40
1.600000000000018
100
AcDbArc
 50
359.9999999999998
 51
179.9999999999999
  0
LINE
  5
246
330
1F
100
AcDbEntity
  8
0
 62
    58
100
AcDbLine
 10
1848.290138500982
 20
1080.528999999994
 30
0.0
 11
1848.290138500982
 21
1077.328999999994
 31
0.0
  0
LINE
  5
247
330
1F
100
AcDbEntity
  8
0
 62
    58
100
AcDbLine
 10
1848.290138500982
 20
1077.328999999994
 30
0.0
 11
1836.290138500982
 21
1077.328999999994
 31
0.0
  0
LINE
  5
248
330
1F
100
AcDbEntity
  8
0
 62
    58
100
AcDbLine
 10
1836.290138500982
 20
989.3289999999937
 30
0.0
 11
1836.290138500982
 21
1013.328999999994
 31
0.0
  0
LINE
  5
249
330
1F
100
AcDbEntity
  8
0
 62
    58
100
AcDbLine
 10
1952.919200963634
 20
989.3289999999934
 30
0.0
 11
1836.290138500982
 21
989.3289999999937
 31
0.0
  0
LINE
  5
24A
330
1F
100
AcDbEntity
  8
0
 62
    58
100
AcDbLine
 10
2068.850138500983
 20
1019.328999999993
 30
0.0
 11
2068.850138500984
 21
1046.188999999993
 31
0.0
  0
LINE
  5
24B
330
1F
100
AcDbEntity
  8
0
 62
    58
100
AcDbLine
 10
2033.950138500983
 20
1046.188999999993
 30
0.0
 11
2068.850138500984
 21
1046.188999999993
 31
0.0
  0
LINE
  5
24C
330
1F
100
AcDbEntity
  8
0
 62
    58
100
AcDbLine
 10
2068.850138500984
 20
1054.188999999993
 30
0.0
 11
2033.950138500983
 21
1054.188999999993
 31
0.0
  0
LINE
  5
24D
330
1F
100
AcDbEntity
  8
0
 62
    58
100
AcDbLine
 10
2068.850138500984
 20
1054.188999999993
 30
0.0
 11
2068.850138500983
 21
1071.048999999993
 31
0.0
  0
LINE
  5
24E
330
1F
100
AcDbEntity
  8
0
 62
    58
100
AcDbLine
 10
2068.850138500983
 20
1071.048999999993
 30
0.0
 11
2122.850138500983
 21
1071.048999999993
 31
0.0
  0
LINE
  5
24F
330
1F
100
AcDbEntity
  8
0
 62
    58
100
AcDbLine
 10
2122.850138500983
 20
1071.048999999993
 30
0.0
 11
2122.850138500983
 21
1115.328999999993
 31
0.0
  0
LINE
  5
250
330
1F
100
AcDbEntity
  8
0
 62
    58
100
AcDbLine
 10
2122.850138500983
 20
1115.328999999993
 30
0.0
 11
2068.850138500983
 21
1115.328999999993
 31
0.0
  0
LINE
  5
251
330
1F
100
AcDbEntity
  8
0
 62
    58
100
AcDbLine
 10
2068.850138500983
 20
1115.328999999993
 30
0.0
 11
2068.850138500983
 21
1151.048999999993
 31
0.0
  0
LINE
  5
252
330
1F
100
AcDbEntity
  8
0
 62
    58
100
AcDbLine
 10
2068.850138500983
 20
1151.048999999993
 30
0.0
 11
2047.735671734686
 21
1151.048999999993
 31
0.0
  0
LINE
  5
253
330
1F
100
AcDbEntity
  8
0
 62
    58
100
AcDbLine
 10
2047.735671734686
 20
1151.048999999993
 30
0.0
 11
2047.735671734686
 21
1139.048999999993
 31
0.0
  0
LINE
  5
254
330
1F
100
AcDbEntity
  8
0
 62
    58
100
AcDbLine
 10
2047.735671734686
 20
1139.048999999993
 30
0.0
 11
2050.935671734686
 21
1139.048999999993
 31
0.0
  0
LINE
  5
255
330
1F
100
AcDbEntity
  8
0
 62
    58
100
AcDbLine
 10
2051.017087430565
 20
1135.849363151942
 30
0.0
 11
2051.122857193624
 21
1131.692611463737
 31
0.0
  0
LINE
  5
256
330
1F
100
AcDbEntity
  8
0
 62
    58
100
AcDbLine
 10
2049.523374912568
 20
1130.051912169053
 30
0.0
 11
2038.324410685605
 21
1130.051912169053
 31
0.0
  0
LINE
  5
257
330
1F
100
AcDbEntity
  8
0
 62
    58
100
AcDbLine
 10
2036.724928404549
 20
1131.61121287437
 30
0.0
 11
2036.617087430565
 21
1135.849363151942
 31
0.0
  0
LINE
  5
258
330
1F
100
AcDbEntity
  8
0
 62
    58
100
AcDbLine
 10
2036.535671734686
 20
1139.048999999993
 30
0.0
 11
2039.735671734686
 21
1139.048999999993
 31
0.0
  0
LINE
  5
259
330
1F
100
AcDbEntity
  8
0
 62
    58
100
AcDbLine
 10
2039.735671734686
 20
1139.048999999993
 30
0.0
 11
2039.735671734686
 21
1151.048999999993
 31
0.0
  0
LINE
  5
25A
330
1F
100
AcDbEntity
  8
0
 62
    58
100
AcDbLine
 10
2039.735671734686
 20
1151.048999999993
 30
0.0
 11
2023.040138500984
 21
1151.048999999993
 31
0.0
  0
LINE
  5
25B
330
1F
100
AcDbEntity
  8
0
 62
    58
100
AcDbLine
 10
2023.040138500984
 20
1151.048999999993
 30
0.0
 11
2023.040138500984
 21
1169.048999999993
 31
0.0
  0
LINE
  5
25C
330
1F
100
AcDbEntity
  8
0
 62
    58
100
AcDbLine
 10
2023.040138500984
 20
1169.048999999993
 30
0.0
 11
1988.040138500983
 21
1169.048999999993
 31
0.0
  0
LINE
  5
25D
330
1F
100
AcDbEntity
  8
0
 62
    58
100
AcDbLine
 10
1988.040138500984
 20
1169.048999999993
 30
0.0
 11
1988.040138500984
 21
1151.048999999993
 31
0.0
  0
LINE
  5
25E
330
1F
100
AcDbEntity
  8
0
 62
    58
100
AcDbLine
 10
1988.040138500984
 20
1151.048999999993
 30
0.0
 11
1971.925671734687
 21
1151.048999999993
 31
0.0
  0
LINE
  5
25F
330
1F
100
AcDbEntity
  8
0
 62
    58
100
AcDbLine
 10
1971.925671734686
 20
1151.048999999993
 30
0.0
 11
1971.925671734686
 21
1139.048999999993
 31
0.0
  0
LINE
  5
260
330
1F
100
AcDbEntity
  8
0
 62
    58
100
AcDbLine
 10
1971.925671734686
 20
1139.048999999993
 30
0.0
 11
1975.125671734686
 21
1139.048999999993
 31
0.0
  0
LINE
  5
261
330
1F
100
AcDbEntity
  8
0
 62
    58
100
AcDbLine
 10
1975.207087430566
 20
1135.849363151942
 30
0.0
 11
1975.312857193624
 21
1131.692611463737
 31
0.0
  0
LINE
  5
262
330
1F
100
AcDbEntity
  8
0
 62
    58
100
AcDbLine
 10
1973.713374912568
 20
1130.051912169053
 30
0.0
 11
1962.514410685606
 21
1130.051912169053
 31
0.0
  0
LINE
  5
263
330
1F
100
AcDbEntity
  8
0
 62
    58
100
AcDbLine
 10
1960.91492840455
 20
1131.61121287437
 30
0.0
 11
1960.807087430565
 21
1135.849363151942
 31
0.0
  0
LINE
  5
264
330
1F
100
AcDbEntity
  8
0
 62
    58
100
AcDbLine
 10
1960.725671734686
 20
1139.048999999994
 30
0.0
 11
1963.925671734686
 21
1139.048999999994
 31
0.0
  0
LINE
  5
265
330
1F
100
AcDbEntity
  8
0
 62
    58
100
AcDbLine
 10
1963.925671734686
 20
1139.048999999994
 30
0.0
 11
1963.925671734686
 21
1151.048999999994
 31
0.0
  0
LINE
  5
266
330
1F
100
AcDbEntity
  8
0
 62
    58
100
AcDbLine
 10
1963.925671734687
 20
1151.048999999994
 30
0.0
 11
1943.040138500983
 21
1151.048999999994
 31
0.0
  0
LINE
  5
267
330
1F
100
AcDbEntity
  8
0
 62
    58
100
AcDbLine
 10
1943.040138500983
 20
1028.328999999993
 30
0.0
 11
1943.040138500983
 21
1151.048999999994
 31
0.0
  0
LINE
  5
268
330
1F
100
AcDbEntity
  8
0
 62
    58
100
AcDbLine
 10
1943.040138500983
 20
1028.328999999993
 30
0.0
 11
1925.040138500983
 21
1028.328999999993
 31
0.0
  0
LINE
  5
269
330
1F
100
AcDbEntity
  8
0
 62
    58
100
AcDbLine
 10
1925.040138500983
 20
1151.048999999994
 30
0.0
 11
1925.040138500983
 21
1028.328999999993
 31
0.0
  0
LINE
  5
26A
330
1F
100
AcDbEntity
  8
0
 62
    58
100
AcDbLine
 10
1925.040138500983
 20
1151.048999999994
 30
0.0
 11
1905.040138500984
 21
1151.048999999994
 31
0.0
  0
LINE
  5
26B
330
1F
100
AcDbEntity
  8
0
 62
    58
100
AcDbLine
 10
1905.040138500983
 20
1169.048999999994
 30
0.0
 11
1905.040138500983
 21
1151.048999999994
 31
0.0
  0
LINE
  5
26C
330
1F
100
AcDbEntity
  8
0
 62
    58
100
AcDbLine
 10
1905.040138500984
 20
1169.048999999994
 30
0.0
 11
1875.040138500984
 21
1169.048999999994
 31
0.0
  0
LINE
  5
26D
330
1F
100
AcDbEntity
  8
0
 62
    58
100
AcDbLine
 10
1875.040138500984
 20
1151.048999999994
 30
0.0
 11
1875.040138500984
 21
1169.048999999994
 31
0.0
  0
LINE
  5
26E
330
1F
100
AcDbEntity
  8
0
 62
    58
100
AcDbLine
 10
1865.175671734686
 20
1151.048999999994
 30
0.0
 11
1875.040138500984
 21
1151.048999999994
 31
0.0
  0
LINE
  5
26F
330
1F
100
AcDbEntity
  8
0
 62
    58
100
AcDbLine
 10
1865.175671734685
 20
1139.048999999994
 30
0.0
 11
1865.175671734685
 21
1151.048999999994
 31
0.0
  0
LINE
  5
270
330
1F
100
AcDbEntity
  8
0
 62
    58
100
AcDbLine
 10
1868.375671734686
 20
1139.048999999994
 30
0.0
 11
1865.175671734685
 21
1139.048999999994
 31
0.0
  0
LINE
  5
271
330
1F
100
AcDbEntity
  8
0
 62
    58
100
AcDbLine
 10
1868.562857193624
 20
1131.692611463737
 30
0.0
 11
1868.457087430565
 21
1135.849363151943
 31
0.0
  0
LINE
  5
272
330
1F
100
AcDbEntity
  8
0
 62
    58
100
AcDbLine
 10
1855.764410685605
 20
1130.051912169054
 30
0.0
 11
1866.963374912567
 21
1130.051912169054
 31
0.0
  0
LINE
  5
273
330
1F
100
AcDbEntity
  8
0
 62
    58
100
AcDbLine
 10
1854.057087430565
 20
1135.849363151943
 30
0.0
 11
1854.164928404549
 21
1131.61121287437
 31
0.0
  0
LINE
  5
274
330
1F
100
AcDbEntity
  8
0
 62
    58
100
AcDbLine
 10
1857.175671734685
 20
1139.048999999994
 30
0.0
 11
1853.975671734686
 21
1139.048999999994
 31
0.0
  0
LINE
  5
275
330
1F
100
AcDbEntity
  8
0
 62
    58
100
AcDbLine
 10
1857.175671734686
 20
1151.048999999994
 30
0.0
 11
1857.175671734686
 21
1139.048999999994
 31
0.0
  0
LINE
  5
276
330
1F
100
AcDbEntity
  8
0
 62
    58
100
AcDbLine
 10
1836.290138500983
 20
1151.048999999994
 30
0.0
 11
1857.175671734686
 21
1151.048999999994
 31
0.0
  0
LINE
  5
277
330
1F
100
AcDbEntity
  8
0
 62
    58
100
AcDbLine
 10
1836.290138500982
 20
1077.328999999994
 30
0.0
 11
1836.290138500983
 21
1151.048999999994
 31
0.0
  0
LINE
  5
278
330
1F
100
AcDbEntity
  8
0
 62
    58
100
AcDbLine
 10
1836.290138500982
 20
1043.328999999994
 30
0.0
 11
1836.290138500982
 21
1069.328999999994
 31
0.0
  0
LINE
  5
279
330
1F
100
AcDbEntity
  8
0
 62
    58
100
AcDbLine
 10
1818.290138500982
 20
1043.328999999994
 30
0.0
 11
1836.290138500982
 21
1043.328999999994
 31
0.0
  0
LINE
  5
27A
330
1F
100
AcDbEntity
  8
0
 62
    58
100
AcDbLine
 10
1818.290138500982
 20
1013.328999999994
 30
0.0
 11
1818.290138500982
 21
1043.328999999994
 31
0.0
  0
LINE
  5
27B
330
1F
100
AcDbEntity
  8
0
 62
    58
100
AcDbLine
 10
1836.290138500982
 20
1013.328999999994
 30
0.0
 11
1818.290138500982
 21
1013.328999999994
 31
0.0
  0
ARC
  5
27C
330
1F
100
AcDbEntity
  8
0
 62
    58
100
AcDbCircle
 10
1639.759200963634
 20
1039.058999999994
 30
0.0
 40
50.0
100
AcDbArc
 50
269.9999999999997
 51
294.1504230694676
  0
ARC
  5
27D
330
1F
100
AcDbEntity
  8
0
 62
    58
100
AcDbCircle
 10
1540.86299997896
 20
1137.178999999994
 30
0.0
 40
1.59999999999999
100
AcDbArc
 50
91.69442739694972
 51
271.2207593044483
  0
ARC
  5
27E
330
1F
100
AcDbEntity
  8
0
 62
    58
100
AcDbCircle
 10
1555.26299997896
 20
1137.178999999994
 30
0.0
 40
1.600000000000002
100
AcDbArc
 50
271.2207593045189
 51
91.6944273969275
  0
ARC
  5
27F
330
1F
100
AcDbEntity
  8
0
 62
    58
100
AcDbCircle
 10
1662.012999978961
 20
1137.178999999994
 30
0.0
 40
1.600000000000002
100
AcDbArc
 50
271.2207593045383
 51
91.6944273969477
  0
ARC
  5
280
330
1F
100
AcDbEntity
  8
0
 62
    58
100
AcDbCircle
 10
1647.612999978961
 20
1137.178999999994
 30
0.0
 40
1.59999999999999
100
AcDbArc
 50
91.69442739701756
 51
271.2207593045169
  0
ARC
  5
281
330
1F
100
AcDbEntity
  8
0
 62
    58
100
AcDbCircle
 10
1737.822999978961
 20
1137.178999999993
 30
0.0
 40
1.600000000000002
100
AcDbArc
 50
271.2207593045383
 51
91.6944273969477
  0
ARC
  5
282
330
1F
100
AcDbEntity
  8
0
 62
    58
100
AcDbCircle
 10
1723.422999978961
 20
1137.178999999993
 30
0.0
 40
1.59999999999999
100
AcDbArc
 50
91.69442739701756
 51
271.2207593045169
  0
ARC
  5
283
330
1F
100
AcDbEntity
  8
0
 62
    58
100
AcDbCircle
 10
1542.604410685605
 20
1131.381912169054
 30
0.0
 40
1.6
100
AcDbArc
 50
181.4575933507328
 51
270.0000000000181
  0
ARC
  5
284
330
1F
100
AcDbEntity
  8
0
 62
    58
100
AcDbCircle
 10
1553.803374912567
 20
1131.381912169054
 30
0.0
 40
1.6
100
AcDbArc
 50
269.9999999999998
 51
1.45759335075186
  0
ARC
  5
285
330
1F
100
AcDbEntity
  8
0
 62
    58
100
AcDbCircle
 10
1649.354410685605
 20
1131.381912169053
 30
0.0
 40
1.6
100
AcDbArc
 50
181.4575933507329
 51
270.0000000000173
  0
ARC
  5
286
330
1F
100
AcDbEntity
  8
0
 62
    58
100
AcDbCircle
 10
1660.553374912568
 20
1131.381912169053
 30
0.0
 40
1.6
100
AcDbArc
 50
269.9999999999998
 51
1.45759335075125
  0
ARC
  5
287
330
1F
100
AcDbEntity
  8
0
 62
    58
100
AcDbCircle
 10
1725.164410685605
 20
1131.381912169053
 30
0.0
 40
1.6
100
AcDbArc
 50
181.4575933507328
 51
270.0000000000177
  0
ARC
  5
288
330
1F
100
AcDbEntity
  8
0
 62
    58
100
AcDbCircle
 10
1736.363374912567
 20
1131.381912169053
 30
0.0
 40
1.6
100
AcDbArc
 50
269.9999999999998
 51
1.457593350751555
  0
ARC
  5
289
330
1F
100
AcDbEntity
  8
0
 62
    58
100
AcDbCircle
 10
1542.530138500983
 20
1078.658999999994
 30
0.0
 40
1.6
100
AcDbArc
 50
359.9999999999989
 51
89.99999999999073
  0
ARC
  5
28A
330
1F
100
AcDbEntity
  8
0
 62
    58
100
AcDbCircle
 10
1542.530138500983
 20
1067.458999999994
 30
0.0
 40
1.6
100
AcDbArc
 50
269.9999999999979
 51
359.9999999999937
  0
ARC
  5
28B
330
1F
100
AcDbEntity
  8
0
 62
    58
100
AcDbCircle
 10
1713.190138500983
 20
1045.168999999994
 30
0.0
 40
1.6
100
AcDbArc
 50
179.9999999999998
 51
269.9999999999918
  0
ARC
  5
28C
330
1F
100
AcDbEntity
  8
0
 62
    58
100
AcDbCircle
 10
1713.190138500983
 20
1054.668999999994
 30
0.0
 40
1.6
100
AcDbArc
 50
90.00000000000085
 51
179.9999999999927
  0
ARC
  5
28D
330
1F
100
AcDbEntity
  8
0
 62
    58
100
AcDbCircle
 10
1728.05990102003
 20
969.0589999999936
 30
0.0
 40
49.99999999999999
100
AcDbArc
 50
89.9999999999999
 51
114.1504230694679
  0
LINE
  5
28E
330
1F
100
AcDbEntity
  8
0
 62
    58
100
AcDbLine
 10
1728.05990102003
 20
1019.058999999993
 30
0.0
 11
1755.690138500983
 21
1019.058999999993
 31
0.0
  0
LINE
  5
28F
330
1F
100
AcDbEntity
  8
0
 62
    58
100
AcDbLine
 10
1707.60321899117
 20
1014.68272365743
 30
0.0
 11
1660.215882992494
 21
993.4352763425575
 31
0.0
  0
LINE
  5
290
330
1F
100
AcDbEntity
  8
0
 62
    58
100
AcDbLine
 10
1720.790138500983
 20
1053.918999999994
 30
0.0
 11
1720.790138500983
 21
1058.918999999994
 31
0.0
  0
LINE
  5
291
330
1F
100
AcDbEntity
  8
0
 62
    58
100
AcDbLine
 10
1717.590138500983
 20
1058.918999999994
 30
0.0
 11
1717.590138500983
 21
1056.268999999993
 31
0.0
  0
ARC
  5
292
330
1F
100
AcDbEntity
  8
0
 62
    58
100
AcDbCircle
 10
1719.190138500983
 20
1058.918999999994
 30
0.0
 40
1.59999999999999
100
AcDbArc
 50
359.9999999999999
 51
179.9999999999999
  0
LINE
  5
293
330
1F
100
AcDbEntity
  8
0
 62
    58
100
AcDbLine
 10
1717.590138500983
 20
1056.268999999993
 30
0.0
 11
1713.190138500983
 21
1056.268999999993
 31
0.0
  0
LINE
  5
294
330
1F
100
AcDbEntity
  8
0
 62
    58
100
AcDbLine
 10
1720.790138500983
 20
1040.918999999994
 30
0.0
 11
1720.790138500983
 21
1045.918999999994
 31
0.0
  0
ARC
  5
295
330
1F
100
AcDbEntity
  8
0
 62
    58
100
AcDbCircle
 10
1719.190138500983
 20
1040.918999999994
 30
0.0
 40
1.600000000000018
100
AcDbArc
 50
179.9999999999999
 51
359.9999999999998
  0
LINE
  5
296
330
1F
100
AcDbEntity
  8
0
 62
    58
100
AcDbLine
 10
1717.590138500983
 20
1043.568999999994
 30
0.0
 11
1717.590138500983
 21
1040.918999999994
 31
0.0
  0
LINE
  5
297
330
1F
100
AcDbEntity
  8
0
 62
    58
100
AcDbLine
 10
1713.190138500983
 20
1043.568999999994
 30
0.0
 11
1717.590138500983
 21
1043.568999999994
 31
0.0
  0
LINE
  5
298
330
1F
100
AcDbEntity
  8
0
 62
    58
100
AcDbLine
 10
1711.590138500983
 20
1054.668999999994
 30
0.0
 11
1711.590138500983
 21
1045.168999999994
 31
0.0
  0
LINE
  5
299
330
1F
100
AcDbEntity
  8
0
 62
    58
100
AcDbLine
 10
1523.130138500982
 20
1069.058999999994
 30
0.0
 11
1535.130138500982
 21
1069.058999999994
 31
0.0
  0
LINE
  5
29A
330
1F
100
AcDbEntity
  8
0
 62
    58
100
AcDbLine
 10
1535.130138500982
 20
1069.058999999994
 30
0.0
 11
1535.130138500982
 21
1065.858999999994
 31
0.0
  0
ARC
  5
29B
330
1F
100
AcDbEntity
  8
0
 62
    58
100
AcDbCircle
 10
1536.730138500982
 20
1065.858999999994
 30
0.0
 40
1.600000000000018
100
AcDbArc
 50
180.0000000000009
 51
359.9999999999989
  0
LINE
  5
29C
330
1F
100
AcDbEntity
  8
0
 62
    58
100
AcDbLine
 10
1538.330138500982
 20
1065.858999999994
 30
0.0
 11
1542.530138500983
 21
1065.858999999994
 31
0.0
  0
LINE
  5
29D
330
1F
100
AcDbEntity
  8
0
 62
    58
100
AcDbLine
 10
1544.130138500982
 20
1067.458999999994
 30
0.0
 11
1544.130138500982
 21
1078.658999999994
 31
0.0
  0
LINE
  5
29E
330
1F
100
AcDbEntity
  8
0
 62
    58
100
AcDbLine
 10
1542.530138500983
 20
1080.258999999994
 30
0.0
 11
1538.330138500982
 21
1080.258999999994
 31
0.0
  0
ARC
  5
29F
330
1F
100
AcDbEntity
  8
0
 62
    58
100
AcDbCircle
 10
1536.730138500982
 20
1080.258999999994
 30
0.0
 40
1.600000000000018
100
AcDbArc
 50
359.9999999999998
 51
179.9999999999999
  0
LINE
  5
2A0
330
1F
100
AcDbEntity
  8
0
 62
    58
100
AcDbLine
 10
1535.130138500982
 20
1080.258999999994
 30
0.0
 11
1535.130138500982
 21
1077.058999999994
 31
0.0
  0
LINE
  5
2A1
330
1F
100
AcDbEntity
  8
0
 62
    58
100
AcDbLine
 10
1535.130138500982
 20
1077.058999999994
 30
0.0
 11
1523.130138500982
 21
1077.058999999994
 31
0.0
  0
LINE
  5
2A2
330
1F
100
AcDbEntity
  8
0
 62
    58
100
AcDbLine
 10
1523.130138500982
 20
989.0589999999941
 30
0.0
 11
1523.130138500982
 21
1013.058999999994
 31
0.0
  0
LINE
  5
2A3
330
1F
100
AcDbEntity
  8
0
 62
    58
100
AcDbLine
 10
1639.759200963634
 20
989.0589999999937
 30
0.0
 11
1523.130138500982
 21
989.0589999999941
 31
0.0
  0
LINE
  5
2A4
330
1F
100
AcDbEntity
  8
0
 62
    58
100
AcDbLine
 10
1755.690138500983
 20
1019.058999999993
 30
0.0
 11
1755.690138500983
 21
1045.918999999994
 31
0.0
  0
LINE
  5
2A5
330
1F
100
AcDbEntity
  8
0
 62
    58
100
AcDbLine
 10
1720.790138500983
 20
1045.918999999994
 30
0.0
 11
1755.690138500983
 21
1045.918999999994
 31
0.0
  0
LINE
  5
2A6
330
1F
100
AcDbEntity
  8
0
 62
    58
100
AcDbLine
 10
1755.690138500983
 20
1053.918999999994
 30
0.0
 11
1720.790138500983
 21
1053.918999999994
 31
0.0
  0
LINE
  5
2A7
330
1F
100
AcDbEntity
  8
0
 62
    58
100
AcDbLine
 10
1755.690138500983
 20
1053.918999999994
 30
0.0
 11
1755.690138500983
 21
1070.778999999993
 31
0.0
  0
LINE
  5
2A8
330
1F
100
AcDbEntity
  8
0
 62
    58
100
AcDbLine
 10
1755.690138500983
 20
1070.778999999993
 30
0.0
 11
1809.690138500983
 21
1070.778999999993
 31
0.0
  0
LINE
  5
2A9
330
1F
100
AcDbEntity
  8
0
 62
    58
100
AcDbLine
 10
1809.690138500983
 20
1070.778999999993
 30
0.0
 11
1809.690138500983
 21
1115.058999999993
 31
0.0
  0
LINE
  5
2AA
330
1F
100
AcDbEntity
  8
0
 62
    58
100
AcDbLine
 10
1809.690138500983
 20
1115.058999999993
 30
0.0
 11
1755.690138500983
 21
1115.058999999994
 31
0.0
  0
LINE
  5
2AB
330
1F
100
AcDbEntity
  8
0
 62
    58
100
AcDbLine
 10
1755.690138500983
 20
1115.058999999994
 30
0.0
 11
1755.690138500983
 21
1150.778999999994
 31
0.0
  0
LINE
  5
2AC
330
1F
100
AcDbEntity
  8
0
 62
    58
100
AcDbLine
 10
1755.690138500983
 20
1150.778999999994
 30
0.0
 11
1734.575671734686
 21
1150.778999999994
 31
0.0
  0
LINE
  5
2AD
330
1F
100
AcDbEntity
  8
0
 62
    58
100
AcDbLine
 10
1734.575671734686
 20
1150.778999999994
 30
0.0
 11
1734.575671734686
 21
1138.778999999994
 31
0.0
  0
LINE
  5
2AE
330
1F
100
AcDbEntity
  8
0
 62
    58
100
AcDbLine
 10
1734.575671734686
 20
1138.778999999994
 30
0.0
 11
1737.775671734686
 21
1138.778999999994
 31
0.0
  0
LINE
  5
2AF
330
1F
100
AcDbEntity
  8
0
 62
    58
100
AcDbLine
 10
1737.857087430565
 20
1135.579363151943
 30
0.0
 11
1737.962857193624
 21
1131.422611463737
 31
0.0
  0
LINE
  5
2B0
330
1F
100
AcDbEntity
  8
0
 62
    58
100
AcDbLine
 10
1736.363374912567
 20
1129.781912169053
 30
0.0
 11
1725.164410685605
 21
1129.781912169053
 31
0.0
  0
LINE
  5
2B1
330
1F
100
AcDbEntity
  8
0
 62
    58
100
AcDbLine
 10
1723.564928404549
 20
1131.34121287437
 30
0.0
 11
1723.457087430565
 21
1135.579363151943
 31
0.0
  0
LINE
  5
2B2
330
1F
100
AcDbEntity
  8
0
 62
    58
100
AcDbLine
 10
1723.375671734686
 20
1138.778999999994
 30
0.0
 11
1726.575671734686
 21
1138.778999999994
 31
0.0
  0
LINE
  5
2B3
330
1F
100
AcDbEntity
  8
0
 62
    58
100
AcDbLine
 10
1726.575671734686
 20
1138.778999999994
 30
0.0
 11
1726.575671734686
 21
1150.778999999994
 31
0.0
  0
LINE
  5
2B4
330
1F
100
AcDbEntity
  8
0
 62
    58
100
AcDbLine
 10
1726.575671734686
 20
1150.778999999994
 30
0.0
 11
1709.880138500983
 21
1150.778999999994
 31
0.0
  0
LINE
  5
2B5
330
1F
100
AcDbEntity
  8
0
 62
    58
100
AcDbLine
 10
1709.880138500983
 20
1150.778999999994
 30
0.0
 11
1709.880138500983
 21
1168.778999999994
 31
0.0
  0
LINE
  5
2B6
330
1F
100
AcDbEntity
  8
0
 62
    58
100
AcDbLine
 10
1709.880138500983
 20
1168.778999999994
 30
0.0
 11
1674.880138500984
 21
1168.778999999994
 31
0.0
  0
LINE
  5
2B7
330
1F
100
AcDbEntity
  8
0
 62
    58
100
AcDbLine
 10
1674.880138500983
 20
1168.778999999994
 30
0.0
 11
1674.880138500983
 21
1150.778999999994
 31
0.0
  0
LINE
  5
2B8
330
1F
100
AcDbEntity
  8
0
 62
    58
100
AcDbLine
 10
1674.880138500984
 20
1150.778999999994
 30
0.0
 11
1658.765671734687
 21
1150.778999999994
 31
0.0
  0
LINE
  5
2B9
330
1F
100
AcDbEntity
  8
0
 62
    58
100
AcDbLine
 10
1658.765671734687
 20
1150.778999999994
 30
0.0
 11
1658.765671734687
 21
1138.778999999994
 31
0.0
  0
LINE
  5
2BA
330
1F
100
AcDbEntity
  8
0
 62
    58
100
AcDbLine
 10
1658.765671734686
 20
1138.778999999994
 30
0.0
 11
1661.965671734686
 21
1138.778999999994
 31
0.0
  0
LINE
  5
2BB
330
1F
100
AcDbEntity
  8
0
 62
    58
100
AcDbLine
 10
1662.047087430565
 20
1135.579363151943
 30
0.0
 11
1662.152857193624
 21
1131.422611463737
 31
0.0
  0
LINE
  5
2BC
330
1F
100
AcDbEntity
  8
0
 62
    58
100
AcDbLine
 10
1660.553374912568
 20
1129.781912169054
 30
0.0
 11
1649.354410685605
 21
1129.781912169054
 31
0.0
  0
LINE
  5
2BD
330
1F
100
AcDbEntity
  8
0
 62
    58
100
AcDbLine
 10
1647.754928404549
 20
1131.34121287437
 30
0.0
 11
1647.647087430566
 21
1135.579363151943
 31
0.0
  0
LINE
  5
2BE
330
1F
100
AcDbEntity
  8
0
 62
    58
100
AcDbLine
 10
1647.565671734686
 20
1138.778999999994
 30
0.0
 11
1650.765671734686
 21
1138.778999999994
 31
0.0
  0
LINE
  5
2BF
330
1F
100
AcDbEntity
  8
0
 62
    58
100
AcDbLine
 10
1650.765671734686
 20
1138.778999999994
 30
0.0
 11
1650.765671734686
 21
1150.778999999994
 31
0.0
  0
LINE
  5
2C0
330
1F
100
AcDbEntity
  8
0
 62
    58
100
AcDbLine
 10
1650.765671734687
 20
1150.778999999994
 30
0.0
 11
1629.880138500983
 21
1150.778999999994
 31
0.0
  0
LINE
  5
2C1
330
1F
100
AcDbEntity
  8
0
 62
    58
100
AcDbLine
 10
1629.880138500983
 20
1028.058999999994
 30
0.0
 11
1629.880138500983
 21
1150.778999999994
 31
0.0
  0
LINE
  5
2C2
330
1F
100
AcDbEntity
  8
0
 62
    58
100
AcDbLine
 10
1629.880138500983
 20
1028.058999999994
 30
0.0
 11
1611.880138500983
 21
1028.058999999994
 31
0.0
  0
LINE
  5
2C3
330
1F
100
AcDbEntity
  8
0
 62
    58
100
AcDbLine
 10
1611.880138500984
 20
1150.778999999994
 30
0.0
 11
1611.880138500983
 21
1028.058999999994
 31
0.0
  0
LINE
  5
2C4
330
1F
100
AcDbEntity
  8
0
 62
    58
100
AcDbLine
 10
1611.880138500983
 20
1150.778999999994
 30
0.0
 11
1591.880138500984
 21
1150.778999999994
 31
0.0
  0
LINE
  5
2C5
330
1F
100
AcDbEntity
  8
0
 62
    58
100
AcDbLine
 10
1591.880138500984
 20
1168.778999999994
 30
0.0
 11
1591.880138500984
 21
1150.778999999994
 31
0.0
  0
LINE
  5
2C6
330
1F
100
AcDbEntity
  8
0
 62
    58
100
AcDbLine
 10
1591.880138500984
 20
1168.778999999994
 30
0.0
 11
1561.880138500984
 21
1168.778999999994
 31
0.0
  0
LINE
  5
2C7
330
1F
100
AcDbEntity
  8
0
 62
    58
100
AcDbLine
 10
1561.880138500983
 20
1150.778999999994
 30
0.0
 11
1561.880138500983
 21
1168.778999999994
 31
0.0
  0
LINE
  5
2C8
330
1F
100
AcDbEntity
  8
0
 62
    58
100
AcDbLine
 10
1552.015671734686
 20
1150.778999999994
 30
0.0
 11
1561.880138500983
 21
1150.778999999994
 31
0.0
  0
LINE
  5
2C9
330
1F
100
AcDbEntity
  8
0
 62
    58
100
AcDbLine
 10
1552.015671734685
 20
1138.778999999994
 30
0.0
 11
1552.015671734685
 21
1150.778999999994
 31
0.0
  0
LINE
  5
2CA
330
1F
100
AcDbEntity
  8
0
 62
    58
100
AcDbLine
 10
1555.215671734685
 20
1138.778999999994
 30
0.0
 11
1552.015671734685
 21
1138.778999999994
 31
0.0
  0
LINE
  5
2CB
330
1F
100
AcDbEntity
  8
0
 62
    58
100
AcDbLine
 10
1555.402857193623
 20
1131.422611463737
 30
0.0
 11
1555.297087430564
 21
1135.579363151943
 31
0.0
  0
LINE
  5
2CC
330
1F
100
AcDbEntity
  8
0
 62
    58
100
AcDbLine
 10
1542.604410685605
 20
1129.781912169054
 30
0.0
 11
1553.803374912567
 21
1129.781912169054
 31
0.0
  0
LINE
  5
2CD
330
1F
100
AcDbEntity
  8
0
 62
    58
100
AcDbLine
 10
1540.897087430565
 20
1135.579363151943
 30
0.0
 11
1541.004928404549
 21
1131.34121287437
 31
0.0
  0
LINE
  5
2CE
330
1F
100
AcDbEntity
  8
0
 62
    58
100
AcDbLine
 10
1544.015671734685
 20
1138.778999999994
 30
0.0
 11
1540.815671734686
 21
1138.778999999994
 31
0.0
  0
LINE
  5
2CF
330
1F
100
AcDbEntity
  8
0
 62
    58
100
AcDbLine
 10
1544.015671734686
 20
1150.778999999994
 30
0.0
 11
1544.015671734686
 21
1138.778999999994
 31
0.0
  0
LINE
  5
2D0
330
1F
100
AcDbEntity
  8
0
 62
    58
100
AcDbLine
 10
1523.130138500983
 20
1150.778999999994
 30
0.0
 11
1544.015671734686
 21
1150.778999999994
 31
0.0
  0
LINE
  5
2D1
330
1F
100
AcDbEntity
  8
0
 62
    58
100
AcDbLine
 10
1523.130138500982
 20
1077.058999999994
 30
0.0
 11
1523.130138500983
 21
1150.778999999994
 31
0.0
  0
LINE
  5
2D2
330
1F
100
AcDbEntity
  8
0
 62
    58
100
AcDbLine
 10
1523.130138500982
 20
1043.058999999994
 30
0.0
 11
1523.130138500982
 21
1069.058999999994
 31
0.0
  0
LINE
  5
2D3
330
1F
100
AcDbEntity
  8
0
 62
    58
100
AcDbLine
 10
1505.130138500982
 20
1043.058999999994
 30
0.0
 11
1523.130138500982
 21
1043.058999999994
 31
0.0
  0
LINE
  5
2D4
330
1F
100
AcDbEntity
  8
0
 62
    58
100
AcDbLine
 10
1505.130138500982
 20
1013.058999999994
 30
0.0
 11
1505.130138500982
 21
1043.058999999994
 31
0.0
  0
LINE
  5
2D5
330
1F
100
AcDbEntity
  8
0
 62
    58
100
AcDbLine
 10
1523.130138500982
 20
1013.058999999994
 30
0.0
 11
1505.130138500982
 21
1013.058999999994
 31
0.0
  0
ARC
  5
2D6
330
1F
100
AcDbEntity
  8
0
 62
    58
100
AcDbCircle
 10
2385.403652591101
 20
236.5536301179569
 30
0.0
 40
30.0
100
AcDbArc
 50
193.9498563765581
 51
269.9999999999998
  0
LINE
  5
2D7
330
1F
100
AcDbEntity
  8
0
 62
    58
100
AcDbLine
 10
2385.403652591101
 20
206.553630117957
 30
0.0
 11
2418.85880946834
 21
206.553630117957
 31
0.0
  0
LINE
  5
2D8
330
1F
100
AcDbEntity
  8
0
 62
    58
100
AcDbLine
 10
2418.85880946834
 20
206.553630117957
 30
0.0
 11
2418.858809468341
 21
669.7263698820259
 31
0.0
  0
LINE
  5
2D9
330
1F
100
AcDbEntity
  8
0
 62
    58
100
AcDbLine
 10
2418.858809468341
 20
669.7263698820262
 30
0.0
 11
2377.255303854154
 21
669.7263698820261
 31
0.0
  0
ARC
  5
2DA
330
1F
100
AcDbEntity
  8
0
 62
    58
100
AcDbCircle
 10
2377.255303854153
 20
639.7263698820261
 30
0.0
 40
30.00000000000001
100
AcDbArc
 50
90.00000000000006
 51
157.8859823620108
  0
LINE
  5
2DB
330
1F
100
AcDbEntity
  8
0
 62
    58
100
AcDbLine
 10
2349.462207102245
 20
651.0198978046492
 30
0.0
 11
2328.926832566256
 21
600.4828419594032
 31
0.0
  0
ARC
  5
2DC
330
1F
100
AcDbEntity
  8
0
 62
    58
100
AcDbCircle
 10
2301.133735814347
 20
611.776369882026
 30
0.0
 40
30.0
100
AcDbArc
 50
270.0000000000034
 51
337.8859823620142
  0
LINE
  5
2DD
330
1F
100
AcDbEntity
  8
0
 62
    58
100
AcDbLine
 10
2301.133735814347
 20
581.7763698820263
 30
0.0
 11
1894.381799844948
 21
581.7763698820258
 31
0.0
  0
LINE
  5
2DE
330
1F
100
AcDbEntity
  8
0
 62
    58
100
AcDbLine
 10
1894.381799844948
 20
581.7763698820258
 30
0.0
 11
1752.630659624577
 21
541.9050681780875
 31
0.0
  0
ARC
  5
2DF
330
1F
100
AcDbEntity
  8
0
 62
    58
100
AcDbCircle
 10
1744.507576109804
 20
570.7843949398391
 30
0.0
 40
30.0
100
AcDbArc
 50
269.5014791298478
 51
285.7100587592354
  0
LINE
  5
2E0
330
1F
100
AcDbEntity
  8
0
 62
    58
100
AcDbLine
 10
1744.246554486028
 20
540.7855304994653
 30
0.0
 11
1686.892452964989
 21
541.2845714127974
 31
0.0
  0
ARC
  5
2E1
330
1F
100
AcDbEntity
  8
0
 62
    58
100
AcDbCircle
 10
1687.066467380839
 20
561.2838143730468
 30
0.0
 40
20.0
100
AcDbArc
 50
238.6701319747
 51
269.5014791298482
  0
LINE
  5
2E2
330
1F
100
AcDbEntity
  8
0
 62
    58
100
AcDbLine
 10
1676.667178046585
 20
544.2000565504109
 30
0.0
 11
1641.334892864184
 21
565.7076581136527
 31
0.0
  0
ARC
  5
2E3
330
1F
100
AcDbEntity
  8
0
 62
    58
100
AcDbCircle
 10
1625.735958862803
 20
540.0820213796989
 30
0.0
 40
30.0
100
AcDbArc
 50
58.67013197469946
 51
89.9999999999998
  0
LINE
  5
2E4
330
1F
100
AcDbEntity
  8
0
 62
    58
100
AcDbLine
 10
1625.735958862803
 20
570.0820213796989
 30
0.0
 11
1599.478809468341
 21
570.082021379699
 31
0.0
  0
LINE
  5
2E5
330
1F
100
AcDbEntity
  8
0
 62
    58
100
AcDbLine
 10
1599.478809468341
 20
570.0820213796989
 30
0.0
 11
1599.478809468341
 21
520.0820213796991
 31
0.0
  0
LINE
  5
2E6
330
1F
100
AcDbEntity
  8
0
 62
    58
100
AcDbLine
 10
1599.478809468341
 20
520.0820213796991
 30
0.0
 11
1607.478809468341
 21
520.0820213796991
 31
0.0
  0
LINE
  5
2E7
330
1F
100
AcDbEntity
  8
0
 62
    58
100
AcDbLine
 10
1607.478809468341
 20
520.082021379699
 30
0.0
 11
1607.478809468341
 21
450.0820213796989
 31
0.0
  0
LINE
  5
2E8
330
1F
100
AcDbEntity
  8
0
 62
    58
100
AcDbLine
 10
1607.478809468341
 20
450.0820213796987
 30
0.0
 11
1619.478809468341
 21
450.0820213796988
 31
0.0
  0
LINE
  5
2E9
330
1F
100
AcDbEntity
  8
0
 62
    58
100
AcDbLine
 10
1619.478809468341
 20
450.0820213796988
 30
0.0
 11
1619.478809468341
 21
452.2820213796988
 31
0.0
  0
ARC
  5
2EA
330
1F
100
AcDbEntity
  8
0
 62
    58
100
AcDbCircle
 10
1621.078809468341
 20
452.2820213796988
 30
0.0
 40
1.599999999999999
100
AcDbArc
 50
359.9999999999987
 51
179.9999999999954
  0
LINE
  5
2EB
330
1F
100
AcDbEntity
  8
0
 62
    58
100
AcDbLine
 10
1622.678809468341
 20
452.2820213796988
 30
0.0
 11
1626.878809468341
 21
452.2820213796988
 31
0.0
  0
ARC
  5
2EC
330
1F
100
AcDbEntity
  8
0
 62
    58
100
AcDbCircle
 10
1626.878809468341
 20
450.6820213796989
 30
0.0
 40
1.6
100
AcDbArc
 50
359.9999999999886
 51
90.00000000000107
  0
LINE
  5
2ED
330
1F
100
AcDbEntity
  8
0
 62
    58
100
AcDbLine
 10
1628.478809468341
 20
450.6820213796989
 30
0.0
 11
1628.478809468341
 21
439.4820213796988
 31
0.0
  0
ARC
  5
2EE
330
1F
100
AcDbEntity
  8
0
 62
    58
100
AcDbCircle
 10
1626.878809468341
 20
439.4820213796989
 30
0.0
 40
1.6
100
AcDbArc
 50
270.000000000009
 51
359.9999999999971
  0
LINE
  5
2EF
330
1F
100
AcDbEntity
  8
0
 62
    58
100
AcDbLine
 10
1626.878809468341
 20
437.8820213796988
 30
0.0
 11
1622.678809468341
 21
437.8820213796988
 31
0.0
  0
ARC
  5
2F0
330
1F
100
AcDbEntity
  8
0
 62
    58
100
AcDbCircle
 10
1621.078809468341
 20
437.8820213796989
 30
0.0
 40
1.599999999999997
100
AcDbArc
 50
179.9999999999999
 51
359.9999999999998
  0
LINE
  5
2F1
330
1F
100
AcDbEntity
  8
0
 62
    58
100
AcDbLine
 10
1619.478809468341
 20
437.8820213796989
 30
0.0
 11
1619.478809468341
 21
441.082021379699
 31
0.0
  0
LINE
  5
2F2
330
1F
100
AcDbEntity
  8
0
 62
    58
100
AcDbLine
 10
1619.478809468341
 20
441.0820213796989
 30
0.0
 11
1607.478809468341
 21
441.0820213796989
 31
0.0
  0
LINE
  5
2F3
330
1F
100
AcDbEntity
  8
0
 62
    58
100
AcDbLine
 10
1607.478809468341
 20
441.0820213796989
 30
0.0
 11
1607.478809468341
 21
370.0820213796989
 31
0.0
  0
LINE
  5
2F4
330
1F
100
AcDbEntity
  8
0
 62
    58
100
AcDbLine
 10
1607.478809468341
 20
370.0820213796989
 30
0.0
 11
1599.478809468341
 21
370.0820213796989
 31
0.0
  0
LINE
  5
2F5
330
1F
100
AcDbEntity
  8
0
 62
    58
100
AcDbLine
 10
1599.478809468341
 20
370.0820213796989
 30
0.0
 11
1599.47880946834
 21
320.0820213796989
 31
0.0
  0
LINE
  5
2F6
330
1F
100
AcDbEntity
  8
0
 62
    58
100
AcDbLine
 10
1599.478809468341
 20
320.0820213796989
 30
0.0
 11
1632.965691990993
 21
320.0820213796988
 31
0.0
  0
ARC
  5
2F7
330
1F
100
AcDbEntity
  8
0
 62
    58
100
AcDbCircle
 10
1632.965691990993
 20
380.0820213796989
 30
0.0
 40
59.99999999999999
100
AcDbArc
 50
269.9999999999998
 51
296.0172254290612
  0
LINE
  5
2F8
330
1F
100
AcDbEntity
  8
0
 62
    58
100
AcDbLine
 10
1659.284172440342
 20
326.162288564734
 30
0.0
 11
1910.406364852431
 21
448.7362362895083
 31
0.0
  0
ARC
  5
2F9
330
1F
100
AcDbEntity
  8
0
 62
    58
100
AcDbCircle
 10
1923.565605077106
 20
421.7763698820257
 30
0.0
 40
30.0
100
AcDbArc
 50
90.0000000000001
 51
116.0172254290605
  0
LINE
  5
2FA
330
1F
100
AcDbEntity
  8
0
 62
    58
100
AcDbLine
 10
1923.565605077106
 20
451.7763698820256
 30
0.0
 11
2277.571226585158
 21
451.7763698820262
 31
0.0
  0
ARC
  5
2FB
330
1F
100
AcDbEntity
  8
0
 62
    58
100
AcDbCircle
 10
2277.571226585158
 20
421.7763698820262
 30
0.0
 40
30.0
100
AcDbArc
 50
13.94985637656255
 51
90.00000000000006
  0
LINE
  5
2FC
330
1F
100
AcDbEntity
  8
0
 62
    58
100
AcDbLine
 10
2306.686438918222
 20
429.008548723883
 30
0.0
 11
2356.288440258036
 21
229.3214512761005
 31
0.0
  0
CIRCLE
  5
2FD
330
1F
100
AcDbEntity
  8
0
 62
    58
100
AcDbCircle
 10
1901.64
 20
486.034046327667
 30
0.0
 40
4.249999999999975
  0
LINE
  5
2FE
330
1F
100
AcDbEntity
  8
0
 62
    58
100
AcDbLine
 10
1961.640000000001
 20
477.0340463276668
 30
0.0
 11
1931.640000000001
 21
477.0340463276669
 31
0.0
  0
LINE
  5
2FF
330
1F
100
AcDbEntity
  8
0
 62
    58
100
AcDbLine
 10
1931.640000000001
 20
477.0340463276669
 30
0.0
 11
1931.640000000001
 21
495.0340463276669
 31
0.0
  0
LINE
  5
300
330
1F
100
AcDbEntity
  8
0
 62
    58
100
AcDbLine
 10
1931.640000000001
 20
495.0340463276669
 30
0.0
 11
1961.640000000001
 21
495.0340463276668
 31
0.0
  0
LINE
  5
301
330
1F
100
AcDbEntity
  8
0
 62
    58
100
AcDbLine
 10
1961.640000000001
 20
495.0340463276668
 30
0.0
 11
1961.640000000001
 21
477.0340463276668
 31
0.0
  0
CIRCLE
  5
302
330
1F
100
AcDbEntity
  8
0
 62
    58
100
AcDbCircle
 10
2368.858809468341
 20
516.5536301179568
 30
0.0
 40
4.24999999999994
  0
LINE
  5
303
330
1F
100
AcDbEntity
  8
0
 62
    58
100
AcDbLine
 10
2377.85880946834
 20
576.553630117957
 30
0.0
 11
2359.85880946834
 21
576.553630117957
 31
0.0
  0
LINE
  5
304
330
1F
100
AcDbEntity
  8
0
 62
    58
100
AcDbLine
 10
2377.85880946834
 20
546.5536301179569
 30
0.0
 11
2377.85880946834
 21
576.5536301179569
 31
0.0
  0
LINE
  5
305
330
1F
100
AcDbEntity
  8
0
 62
    58
100
AcDbLine
 10
2359.85880946834
 20
546.553630117957
 30
0.0
 11
2377.85880946834
 21
546.553630117957
 31
0.0
  0
LINE
  5
306
330
1F
100
AcDbEntity
  8
0
 62
    58
100
AcDbLine
 10
2359.85880946834
 20
576.5536301179569
 30
0.0
 11
2359.85880946834
 21
546.5536301179569
 31
0.0
  0
LINE
  5
307
330
1F
100
AcDbEntity
  8
0
 62
    58
100
AcDbLine
 10
1841.64
 20
477.0340463276672
 30
0.0
 11
1841.640000000001
 21
495.0340463276672
 31
0.0
  0
LINE
  5
308
330
1F
100
AcDbEntity
  8
0
 62
    58
100
AcDbLine
 10
1841.640000000001
 20
495.0340463276671
 30
0.0
 11
1871.640000000001
 21
495.034046327667
 31
0.0
  0
LINE
  5
309
330
1F
100
AcDbEntity
  8
0
 62
    58
100
AcDbLine
 10
1871.640000000001
 20
495.034046327667
 30
0.0
 11
1871.640000000001
 21
477.034046327667
 31
0.0
  0
LINE
  5
30A
330
1F
100
AcDbEntity
  8
0
 62
    58
100
AcDbLine
 10
1871.640000000001
 20
477.034046327667
 30
0.0
 11
1841.64
 21
477.0340463276671
 31
0.0
  0
LINE
  5
30B
330
1F
100
AcDbEntity
  8
0
 62
    58
100
AcDbLine
 10
2359.85880946834
 20
456.5536301179569
 30
0.0
 11
2377.85880946834
 21
456.5536301179568
 31
0.0
  0
LINE
  5
30C
330
1F
100
AcDbEntity
  8
0
 62
    58
100
AcDbLine
 10
2359.85880946834
 20
486.5536301179569
 30
0.0
 11
2359.85880946834
 21
456.5536301179569
 31
0.0
  0
LINE
  5
30D
330
1F
100
AcDbEntity
  8
0
 62
    58
100
AcDbLine
 10
2377.85880946834
 20
486.5536301179568
 30
0.0
 11
2359.85880946834
 21
486.5536301179569
 31
0.0
  0
LINE
  5
30E
330
1F
100
AcDbEntity
  8
0
 62
    58
100
AcDbLine
 10
2377.85880946834
 20
456.5536301179568
 30
0.0
 11
2377.85880946834
 21
486.5536301179568
 31
0.0
  0
CIRCLE
  5
30F
330
1F
100
AcDbEntity
  8
0
 62
    58
100
AcDbCircle
 10
1832.640000000001
 20
486.034046327668
 30
0.0
 40
4.249999999999976
  0
LINE
  5
310
330
1F
100
AcDbEntity
  8
0
 62
    58
100
AcDbLine
 10
1823.640000000001
 20
433.534046327668
 30
0.0
 11
1823.640000000001
 21
463.534046327668
 31
0.0
  0
LINE
  5
311
330
1F
100
AcDbEntity
  8
0
 62
    58
100
AcDbLine
 10
1823.640000000001
 20
463.534046327668
 30
0.0
 11
1841.640000000001
 21
463.534046327668
 31
0.0
  0
LINE
  5
312
330
1F
100
AcDbEntity
  8
0
 62
    58
100
AcDbLine
 10
1841.640000000001
 20
463.5340463276681
 30
0.0
 11
1841.640000000001
 21
433.5340463276681
 31
0.0
  0
LINE
  5
313
330
1F
100
AcDbEntity
  8
0
 62
    58
100
AcDbLine
 10
1841.640000000001
 20
433.5340463276681
 30
0.0
 11
1823.640000000001
 21
433.534046327668
 31
0.0
  0
CIRCLE
  5
314
330
1F
100
AcDbEntity
  8
0
 62
    58
100
AcDbCircle
 10
1695.668809468341
 20
471.2082078947751
 30
0.0
 40
40.0
  0
LINE
  5
315
330
1F
100
AcDbEntity
  8
0
 62
    58
100
AcDbLine
 10
1823.640000000001
 20
543.5340463276681
 30
0.0
 11
1841.640000000001
 21
543.5340463276681
 31
0.0
  0
LINE
  5
316
330
1F
100
AcDbEntity
  8
0
 62
    58
100
AcDbLine
 10
1841.640000000001
 20
543.5340463276681
 30
0.0
 11
1841.640000000001
 21
535.0340463276673
 31
0.0
  0
LINE
  5
317
330
1F
100
AcDbEntity
  8
0
 62
    58
100
AcDbLine
 10
1841.640000000001
 20
517.0340463276673
 30
0.0
 11
1841.640000000001
 21
535.0340463276673
 31
0.0
  0
LINE
  5
318
330
1F
100
AcDbEntity
  8
0
 62
    58
100
AcDbLine
 10
1841.640000000001
 20
517.0340463276673
 30
0.0
 11
1841.640000000001
 21
508.5340463276682
 31
0.0
  0
LINE
  5
319
330
1F
100
AcDbEntity
  8
0
 62
    58
100
AcDbLine
 10
1841.640000000001
 20
508.5340463276682
 30
0.0
 11
1823.640000000001
 21
508.5340463276681
 31
0.0
  0
LINE
  5
31A
330
1F
100
AcDbEntity
  8
0
 62
    58
100
AcDbLine
 10
1823.640000000001
 20
508.5340463276681
 30
0.0
 11
1823.640000000001
 21
543.5340463276681
 31
0.0
  0
ARC
  5
31B
330
1F
100
AcDbEntity
  8
0
 62
    58
100
AcDbCircle
 10
1659.648809468341
 20
759.1511390482224
 30
0.0
 40
1.599999999999957
100
AcDbArc
 50
359.9999999999997
 51
179.9999999999919
  0
ARC
  5
31C
330
1F
100
AcDbEntity
  8
0
 62
    58
100
AcDbCircle
 10
1676.048809468342
 20
915.3615552579322
 30
0.0
 40
30.0
100
AcDbArc
 50
89.9999999999998
 51
179.9999999999995
  0
ARC
  5
31D
330
1F
100
AcDbEntity
  8
0
 62
    58
100
AcDbCircle
 10
1676.04880946834
 20
646.0115552579323
 30
0.0
 40
30.0
100
AcDbArc
 50
179.9999999999984
 51
269.9999999999995
  0
ARC
  5
31E
330
1F
100
AcDbEntity
  8
0
 62
    58
100
AcDbCircle
 10
1665.448809468341
 20
746.3511390482224
 30
0.0
 40
1.6
100
AcDbArc
 50
269.9999999999997
 51
359.9999999999909
  0
ARC
  5
31F
330
1F
100
AcDbEntity
  8
0
 62
    58
100
AcDbCircle
 10
1665.448809468341
 20
757.5511390482224
 30
0.0
 40
1.6
100
AcDbArc
 50
359.9999999999997
 51
89.99999999999262
  0
ARC
  5
320
330
1F
100
AcDbEntity
  8
0
 62
    58
100
AcDbCircle
 10
1659.648809468341
 20
744.7511390482224
 30
0.0
 40
1.600000000000001
100
AcDbArc
 50
179.9999999999996
 51
359.9999999999681
  0
ARC
  5
321
330
1F
100
AcDbEntity
  8
0
 62
    58
100
AcDbCircle
 10
2096.448809468342
 20
759.1511390482183
 30
0.0
 40
1.599999999999957
100
AcDbArc
 50
0.0000000000079387
 51
179.9999999999993
  0
ARC
  5
322
330
1F
100
AcDbEntity
  8
0
 62
    58
100
AcDbCircle
 10
2080.048809468344
 20
915.3615552579286
 30
0.0
 40
30.0
100
AcDbArc
 50
359.9999999999994
 51
90.00000000000082
  0
ARC
  5
323
330
1F
100
AcDbEntity
  8
0
 62
    58
100
AcDbCircle
 10
2080.048809468341
 20
646.0115552579285
 30
0.0
 40
30.0
100
AcDbArc
 50
269.9999999999995
 51
359.9999999999979
  0
ARC
  5
324
330
1F
100
AcDbEntity
  8
0
 62
    58
100
AcDbCircle
 10
2090.648809468342
 20
746.3511390482183
 30
0.0
 40
1.6
100
AcDbArc
 50
179.9999999999777
 51
269.9999999999993
  0
ARC
  5
325
330
1F
100
AcDbEntity
  8
0
 62
    58
100
AcDbCircle
 10
2090.648809468342
 20
757.5511390482184
 30
0.0
 40
1.6
100
AcDbArc
 50
89.99999999998656
 51
179.9999999999993
  0
ARC
  5
326
330
1F
100
AcDbEntity
  8
0
 62
    58
100
AcDbCircle
 10
2096.448809468342
 20
744.7511390482183
 30
0.0
 40
1.600000000000001
100
AcDbArc
 50
180.0000000000317
 51
359.9999999999994
  0
LINE
  5
327
330
1F
100
AcDbEntity
  8
0
 62
    58
100
AcDbLine
 10
2098.048809468341
 20
744.7511390482183
 30
0.0
 11
2098.048809468341
 21
747.9511390482184
 31
0.0
  0
LINE
  5
328
330
1F
100
AcDbEntity
  8
0
 62
    58
100
AcDbLine
 10
2098.048809468342
 20
755.9511390482184
 30
0.0
 11
2098.048809468342
 21
759.1511390482183
 31
0.0
  0
LINE
  5
329
330
1F
100
AcDbEntity
  8
0
 62
    58
100
AcDbLine
 10
2094.848809468342
 20
759.1511390482183
 30
0.0
 11
2090.648809468342
 21
759.1511390482184
 31
0.0
  0
LINE
  5
32A
330
1F
100
AcDbEntity
  8
0
 62
    58
100
AcDbLine
 10
2089.048809468342
 20
757.5511390482184
 30
0.0
 11
2089.048809468342
 21
746.3511390482183
 31
0.0
  0
LINE
  5
32B
330
1F
100
AcDbEntity
  8
0
 62
    58
100
AcDbLine
 10
2090.648809468342
 20
744.7511390482184
 30
0.0
 11
2094.848809468342
 21
744.7511390482183
 31
0.0
  0
LINE
  5
32C
330
1F
100
AcDbEntity
  8
0
 62
    58
100
AcDbLine
 10
2098.048809468341
 20
747.9511390482184
 30
0.0
 11
2110.048809468341
 21
747.9511390482181
 31
0.0
  0
LINE
  5
32D
330
1F
100
AcDbEntity
  8
0
 62
    58
100
AcDbLine
 10
2110.048809468341
 20
747.9511390482181
 30
0.0
 11
2110.048809468341
 21
729.4511390482182
 31
0.0
  0
LINE
  5
32E
330
1F
100
AcDbEntity
  8
0
 62
    58
100
AcDbLine
 10
2110.048809468341
 20
729.4511390482182
 30
0.0
 11
2128.048809468342
 21
729.4511390482181
 31
0.0
  0
LINE
  5
32F
330
1F
100
AcDbEntity
  8
0
 62
    58
100
AcDbLine
 10
2128.048809468342
 20
729.4511390482179
 30
0.0
 11
2128.048809468342
 21
694.451139048218
 31
0.0
  0
LINE
  5
330
330
1F
100
AcDbEntity
  8
0
 62
    58
100
AcDbLine
 10
2128.048809468342
 20
694.451139048218
 30
0.0
 11
2110.048809468341
 21
694.4511390482181
 31
0.0
  0
LINE
  5
331
330
1F
100
AcDbEntity
  8
0
 62
    58
100
AcDbLine
 10
2110.048809468341
 20
694.4511390482182
 30
0.0
 11
2110.048809468341
 21
646.0115552579284
 31
0.0
  0
LINE
  5
332
330
1F
100
AcDbEntity
  8
0
 62
    58
100
AcDbLine
 10
2110.048809468343
 20
915.3615552579282
 30
0.0
 11
2110.048809468342
 21
804.4511390482181
 31
0.0
  0
LINE
  5
333
330
1F
100
AcDbEntity
  8
0
 62
    58
100
AcDbLine
 10
2110.048809468342
 20
804.4511390482181
 30
0.0
 11
2128.048809468342
 21
804.4511390482181
 31
0.0
  0
LINE
  5
334
330
1F
100
AcDbEntity
  8
0
 62
    58
100
AcDbLine
 10
2128.048809468342
 20
804.451139048218
 30
0.0
 11
2128.048809468342
 21
774.4511390482179
 31
0.0
  0
LINE
  5
335
330
1F
100
AcDbEntity
  8
0
 62
    58
100
AcDbLine
 10
2128.048809468342
 20
774.4511390482179
 30
0.0
 11
2110.048809468342
 21
774.4511390482181
 31
0.0
  0
LINE
  5
336
330
1F
100
AcDbEntity
  8
0
 62
    58
100
AcDbLine
 10
2110.048809468342
 20
774.4511390482182
 30
0.0
 11
2110.048809468341
 21
755.9511390482181
 31
0.0
  0
LINE
  5
337
330
1F
100
AcDbEntity
  8
0
 62
    58
100
AcDbLine
 10
2110.048809468342
 20
755.9511390482181
 30
0.0
 11
2098.048809468342
 21
755.9511390482184
 31
0.0
  0
LINE
  5
338
330
1F
100
AcDbEntity
  8
0
 62
    58
100
AcDbLine
 10
1658.048809468341
 20
744.7511390482224
 30
0.0
 11
1658.048809468341
 21
747.9511390482226
 31
0.0
  0
LINE
  5
339
330
1F
100
AcDbEntity
  8
0
 62
    58
100
AcDbLine
 10
1658.048809468341
 20
755.9511390482223
 30
0.0
 11
1658.048809468341
 21
759.1511390482224
 31
0.0
  0
LINE
  5
33A
330
1F
100
AcDbEntity
  8
0
 62
    58
100
AcDbLine
 10
1661.248809468341
 20
759.1511390482224
 30
0.0
 11
1665.448809468341
 21
759.1511390482223
 31
0.0
  0
LINE
  5
33B
330
1F
100
AcDbEntity
  8
0
 62
    58
100
AcDbLine
 10
1667.048809468341
 20
757.5511390482224
 30
0.0
 11
1667.048809468341
 21
746.3511390482224
 31
0.0
  0
LINE
  5
33C
330
1F
100
AcDbEntity
  8
0
 62
    58
100
AcDbLine
 10
1665.448809468341
 20
744.7511390482223
 30
0.0
 11
1661.248809468341
 21
744.7511390482224
 31
0.0
  0
LINE
  5
33D
330
1F
100
AcDbEntity
  8
0
 62
    58
100
AcDbLine
 10
1658.048809468341
 20
747.9511390482226
 30
0.0
 11
1646.048809468341
 21
747.9511390482224
 31
0.0
  0
LINE
  5
33E
330
1F
100
AcDbEntity
  8
0
 62
    58
100
AcDbLine
 10
1646.048809468341
 20
747.9511390482224
 30
0.0
 11
1646.048809468341
 21
729.4511390482224
 31
0.0
  0
LINE
  5
33F
330
1F
100
AcDbEntity
  8
0
 62
    58
100
AcDbLine
 10
1646.048809468341
 20
729.4511390482224
 30
0.0
 11
1628.048809468341
 21
729.4511390482226
 31
0.0
  0
LINE
  5
340
330
1F
100
AcDbEntity
  8
0
 62
    58
100
AcDbLine
 10
1628.048809468341
 20
729.4511390482226
 30
0.0
 11
1628.048809468341
 21
694.4511390482226
 31
0.0
  0
LINE
  5
341
330
1F
100
AcDbEntity
  8
0
 62
    58
100
AcDbLine
 10
1628.048809468341
 20
694.4511390482226
 30
0.0
 11
1646.048809468341
 21
694.4511390482224
 31
0.0
  0
LINE
  5
342
330
1F
100
AcDbEntity
  8
0
 62
    58
100
AcDbLine
 10
1646.048809468341
 20
694.4511390482224
 30
0.0
 11
1646.04880946834
 21
646.0115552579325
 31
0.0
  0
LINE
  5
343
330
1F
100
AcDbEntity
  8
0
 62
    58
100
AcDbLine
 10
1676.04880946834
 20
616.0115552579323
 30
0.0
 11
2080.048809468341
 21
616.0115552579286
 31
0.0
  0
LINE
  5
344
330
1F
100
AcDbEntity
  8
0
 62
    58
100
AcDbLine
 10
2080.048809468344
 20
945.3615552579287
 30
0.0
 11
1676.048809468342
 21
945.3615552579322
 31
0.0
  0
LINE
  5
345
330
1F
100
AcDbEntity
  8
0
 62
    58
100
AcDbLine
 10
1646.048809468342
 20
915.3615552579324
 30
0.0
 11
1646.048809468341
 21
804.4511390482224
 31
0.0
  0
LINE
  5
346
330
1F
100
AcDbEntity
  8
0
 62
    58
100
AcDbLine
 10
1646.048809468341
 20
804.4511390482224
 30
0.0
 11
1628.048809468341
 21
804.4511390482226
 31
0.0
  0
LINE
  5
347
330
1F
100
AcDbEntity
  8
0
 62
    58
100
AcDbLine
 10
1628.048809468341
 20
804.4511390482226
 30
0.0
 11
1628.048809468341
 21
774.4511390482224
 31
0.0
  0
LINE
  5
348
330
1F
100
AcDbEntity
  8
0
 62
    58
100
AcDbLine
 10
1628.048809468341
 20
774.4511390482224
 30
0.0
 11
1646.048809468341
 21
774.4511390482223
 31
0.0
  0
LINE
  5
349
330
1F
100
AcDbEntity
  8
0
 62
    58
100
AcDbLine
 10
1646.048809468341
 20
774.4511390482223
 30
0.0
 11
1646.048809468341
 21
755.9511390482224
 31
0.0
  0
LINE
  5
34A
330
1F
100
AcDbEntity
  8
0
 62
    58
100
AcDbLine
 10
1646.048809468341
 20
755.9511390482224
 30
0.0
 11
1658.048809468341
 21
755.9511390482223
 31
0.0
  0
ARC
  5
34B
330
1F
100
AcDbEntity
  8
0
 62
    58
100
AcDbCircle
 10
2201.140000000002
 20
1094.28655525793
 30
0.0
 40
1.59999999999999
100
AcDbArc
 50
89.9999999999999
 51
270.0000000000169
  0
ARC
  5
34C
330
1F
100
AcDbEntity
  8
0
 62
    58
100
AcDbCircle
 10
2213.940000000002
 20
1088.48655525793
 30
0.0
 40
1.6
100
AcDbArc
 50
269.9999999999998
 51
0.0000000000258007
  0
ARC
  5
34D
330
1F
100
AcDbEntity
  8
0
 62
    58
100
AcDbCircle
 10
2202.740000000002
 20
1088.48655525793
 30
0.0
 40
1.6
100
AcDbArc
 50
179.9999999999959
 51
270.0000000001335
  0
ARC
  5
34E
330
1F
100
AcDbEntity
  8
0
 62
    58
100
AcDbCircle
 10
2215.540000000002
 20
1094.28655525793
 30
0.0
 40
1.59999999999999
100
AcDbArc
 50
269.9999999999999
 51
90.0000000000402
  0
ARC
  5
34F
330
1F
100
AcDbEntity
  8
0
 62
    58
100
AcDbCircle
 10
2201.140000000001
 20
657.4865552579292
 30
0.0
 40
1.59999999999999
100
AcDbArc
 50
89.99999999998188
 51
269.9999999999999
  0
ARC
  5
350
330
1F
100
AcDbEntity
  8
0
 62
    58
100
AcDbCircle
 10
2213.940000000001
 20
663.2865552579292
 30
0.0
 40
1.6
100
AcDbArc
 50
359.9999999999515
 51
89.99999999999984
  0
ARC
  5
351
330
1F
100
AcDbEntity
  8
0
 62
    58
100
AcDbCircle
 10
2202.740000000001
 20
663.2865552579292
 30
0.0
 40
1.6
100
AcDbArc
 50
89.99999999984611
 51
180.0000000000038
  0
ARC
  5
352
330
1F
100
AcDbEntity
  8
0
 62
    58
100
AcDbCircle
 10
2215.540000000001
 20
657.4865552579292
 30
0.0
 40
1.59999999999999
100
AcDbArc
 50
269.9999999999607
 51
89.99999999999987
  0
LINE
  5
353
330
1F
100
AcDbEntity
  8
0
 62
    58
100
AcDbLine
 10
2215.540000000001
 20
655.8865552579291
 30
0.0
 11
2212.340000000001
 21
655.8865552579291
 31
0.0
  0
LINE
  5
354
330
1F
100
AcDbEntity
  8
0
 62
    58
100
AcDbLine
 10
2215.540000000001
 20
663.286555257929
 30
0.0
 11
2215.540000000001
 21
659.0865552579293
 31
0.0
  0
LINE
  5
355
330
1F
100
AcDbEntity
  8
0
 62
    58
100
AcDbLine
 10
2204.340000000001
 20
655.8865552579291
 30
0.0
 11
2201.140000000001
 21
655.8865552579291
 31
0.0
  0
LINE
  5
356
330
1F
100
AcDbEntity
  8
0
 62
    58
100
AcDbLine
 10
2201.140000000001
 20
659.0865552579293
 30
0.0
 11
2201.140000000001
 21
663.286555257929
 31
0.0
  0
LINE
  5
357
330
1F
100
AcDbEntity
  8
0
 62
    58
100
AcDbLine
 10
2202.740000000001
 20
664.8865552579291
 30
0.0
 11
2213.940000000001
 21
664.8865552579291
 31
0.0
  0
LINE
  5
358
330
1F
100
AcDbEntity
  8
0
 62
    58
100
AcDbLine
 10
2212.340000000001
 20
655.8865552579291
 30
0.0
 11
2212.340000000001
 21
643.8865552579291
 31
0.0
  0
LINE
  5
359
330
1F
100
AcDbEntity
  8
0
 62
    58
100
AcDbLine
 10
2212.340000000001
 20
643.8865552579291
 30
0.0
 11
2238.340000000002
 21
643.886555257929
 31
0.0
  0
LINE
  5
35A
330
1F
100
AcDbEntity
  8
0
 62
    58
100
AcDbLine
 10
2238.340000000002
 20
643.886555257929
 30
0.0
 11
2238.340000000002
 21
625.886555257929
 31
0.0
  0
LINE
  5
35B
330
1F
100
AcDbEntity
  8
0
 62
    58
100
AcDbLine
 10
2238.340000000001
 20
625.886555257929
 30
0.0
 11
2268.340000000001
 21
625.8865552579289
 31
0.0
  0
LINE
  5
35C
330
1F
100
AcDbEntity
  8
0
 62
    58
100
AcDbLine
 10
2148.340000000001
 20
625.8865552579292
 30
0.0
 11
2178.340000000001
 21
625.8865552579291
 31
0.0
  0
LINE
  5
35D
330
1F
100
AcDbEntity
  8
0
 62
    58
100
AcDbLine
 10
2178.340000000001
 20
625.8865552579291
 30
0.0
 11
2178.340000000001
 21
643.8865552579291
 31
0.0
  0
LINE
  5
35E
330
1F
100
AcDbEntity
  8
0
 62
    58
100
AcDbLine
 10
2178.340000000001
 20
643.8865552579291
 30
0.0
 11
2204.340000000001
 21
643.886555257929
 31
0.0
  0
LINE
  5
35F
330
1F
100
AcDbEntity
  8
0
 62
    58
100
AcDbLine
 10
2204.340000000001
 20
643.8865552579291
 30
0.0
 11
2204.340000000001
 21
655.8865552579291
 31
0.0
  0
LINE
  5
360
330
1F
100
AcDbEntity
  8
0
 62
    58
100
AcDbLine
 10
2148.340000000001
 20
625.8865552579292
 30
0.0
 11
2148.340000000002
 21
1125.88655525793
 31
0.0
  0
LINE
  5
361
330
1F
100
AcDbEntity
  8
0
 62
    58
100
AcDbLine
 10
2268.340000000002
 20
1125.88655525793
 30
0.0
 11
2268.340000000001
 21
625.8865552579289
 31
0.0
  0
LINE
  5
362
330
1F
100
AcDbEntity
  8
0
 62
    58
100
AcDbLine
 10
2148.340000000002
 20
1125.88655525793
 30
0.0
 11
2178.340000000002
 21
1125.88655525793
 31
0.0
  0
LINE
  5
363
330
1F
100
AcDbEntity
  8
0
 62
    58
100
AcDbLine
 10
2238.340000000002
 20
1125.88655525793
 30
0.0
 11
2268.340000000002
 21
1125.88655525793
 31
0.0
  0
LINE
  5
364
330
1F
100
AcDbEntity
  8
0
 62
    58
100
AcDbLine
 10
2238.340000000002
 20
1107.88655525793
 30
0.0
 11
2238.340000000002
 21
1125.88655525793
 31
0.0
  0
LINE
  5
365
330
1F
100
AcDbEntity
  8
0
 62
    58
100
AcDbLine
 10
2212.340000000002
 20
1107.88655525793
 30
0.0
 11
2238.340000000002
 21
1107.88655525793
 31
0.0
  0
LINE
  5
366
330
1F
100
AcDbEntity
  8
0
 62
    58
100
AcDbLine
 10
2212.340000000002
 20
1095.88655525793
 30
0.0
 11
2212.340000000002
 21
1107.88655525793
 31
0.0
  0
LINE
  5
367
330
1F
100
AcDbEntity
  8
0
 62
    58
100
AcDbLine
 10
2215.540000000002
 20
1095.88655525793
 30
0.0
 11
2212.340000000002
 21
1095.88655525793
 31
0.0
  0
LINE
  5
368
330
1F
100
AcDbEntity
  8
0
 62
    58
100
AcDbLine
 10
2215.540000000002
 20
1088.48655525793
 30
0.0
 11
2215.540000000002
 21
1092.68655525793
 31
0.0
  0
LINE
  5
369
330
1F
100
AcDbEntity
  8
0
 62
    58
100
AcDbLine
 10
2202.740000000002
 20
1086.88655525793
 30
0.0
 11
2213.940000000002
 21
1086.88655525793
 31
0.0
  0
LINE
  5
36A
330
1F
100
AcDbEntity
  8
0
 62
    58
100
AcDbLine
 10
2201.140000000002
 20
1092.68655525793
 30
0.0
 11
2201.140000000002
 21
1088.48655525793
 31
0.0
  0
LINE
  5
36B
330
1F
100
AcDbEntity
  8
0
 62
    58
100
AcDbLine
 10
2204.340000000002
 20
1095.88655525793
 30
0.0
 11
2201.140000000002
 21
1095.88655525793
 31
0.0
  0
LINE
  5
36C
330
1F
100
AcDbEntity
  8
0
 62
    58
100
AcDbLine
 10
2204.340000000002
 20
1107.88655525793
 30
0.0
 11
2204.340000000002
 21
1095.88655525793
 31
0.0
  0
LINE
  5
36D
330
1F
100
AcDbEntity
  8
0
 62
    58
100
AcDbLine
 10
2178.340000000002
 20
1107.88655525793
 30
0.0
 11
2204.340000000002
 21
1107.88655525793
 31
0.0
  0
LINE
  5
36E
330
1F
100
AcDbEntity
  8
0
 62
    58
100
AcDbLine
 10
2178.340000000002
 20
1125.88655525793
 30
0.0
 11
2178.340000000002
 21
1107.88655525793
 31
0.0
  0
ARC
  5
36F
330
1F
100
AcDbEntity
  8
0
 62
    58
100
AcDbCircle
 10
1521.413966345581
 20
452.9663698820265
 30
0.0
 40
30.0
100
AcDbArc
 50
13.94985637656234
 51
90.00000000000006
  0
LINE
  5
370
330
1F
100
AcDbEntity
  8
0
 62
    58
100
AcDbLine
 10
1521.413966345581
 20
482.9663698820265
 30
0.0
 11
1487.958809468341
 21
482.9663698820264
 31
0.0
  0
LINE
  5
371
330
1F
100
AcDbEntity
  8
0
 62
    58
100
AcDbLine
 10
1487.958809468341
 20
482.9663698820264
 30
0.0
 11
1487.958809468341
 21
19.79363011795737
 31
0.0
  0
LINE
  5
372
330
1F
100
AcDbEntity
  8
0
 62
    58
100
AcDbLine
 10
1487.958809468341
 20
19.79363011795714
 30
0.0
 11
1529.562315082529
 21
19.79363011795726
 31
0.0
  0
ARC
  5
373
330
1F
100
AcDbEntity
  8
0
 62
    58
100
AcDbCircle
 10
1529.562315082529
 20
49.79363011795741
 30
0.0
 40
30.00000000000001
100
AcDbArc
 50
270.0000000000002
 51
337.8859823620122
  0
LINE
  5
374
330
1F
100
AcDbEntity
  8
0
 62
    58
100
AcDbLine
 10
1557.355411834437
 20
38.50010219533439
 30
0.0
 11
1577.890786370427
 21
89.03715804058038
 31
0.0
  0
ARC
  5
375
330
1F
100
AcDbEntity
  8
0
 62
    58
100
AcDbCircle
 10
1605.683883122335
 20
77.7436301179577
 30
0.0
 40
30.0
100
AcDbArc
 50
90.00000000000036
 51
157.8859823620144
  0
LINE
  5
376
330
1F
100
AcDbEntity
  8
0
 62
    58
100
AcDbLine
 10
1605.683883122335
 20
107.7436301179575
 30
0.0
 11
2012.435819091734
 21
107.7436301179593
 31
0.0
  0
LINE
  5
377
330
1F
100
AcDbEntity
  8
0
 62
    58
100
AcDbLine
 10
2012.435819091734
 20
107.7436301179593
 30
0.0
 11
2154.186959312105
 21
147.614931821898
 31
0.0
  0
ARC
  5
378
330
1F
100
AcDbEntity
  8
0
 62
    58
100
AcDbCircle
 10
2162.310042826878
 20
118.7356050601465
 30
0.0
 40
30.0
100
AcDbArc
 50
89.50147912984795
 51
105.7100587592359
  0
LINE
  5
379
330
1F
100
AcDbEntity
  8
0
 62
    58
100
AcDbLine
 10
2162.571064450654
 20
148.7344695005203
 30
0.0
 11
2219.925165971694
 21
148.2354285871882
 31
0.0
  0
ARC
  5
37A
330
1F
100
AcDbEntity
  8
0
 62
    58
100
AcDbCircle
 10
2219.751151555843
 20
128.236185626939
 30
0.0
 40
20.0
100
AcDbArc
 50
58.67013197470021
 51
89.50147912985004
  0
LINE
  5
37B
330
1F
100
AcDbEntity
  8
0
 62
    58
100
AcDbLine
 10
2230.150440890097
 20
145.3199434495749
 30
0.0
 11
2265.482726072499
 21
123.8123418863332
 31
0.0
  0
ARC
  5
37C
330
1F
100
AcDbEntity
  8
0
 62
    58
100
AcDbCircle
 10
2281.081660073879
 20
149.437978620287
 30
0.0
 40
30.0
100
AcDbArc
 50
238.6701319746997
 51
270.0
  0
LINE
  5
37D
330
1F
100
AcDbEntity
  8
0
 62
    58
100
AcDbLine
 10
2281.081660073879
 20
119.4379786202871
 30
0.0
 11
2307.338809468342
 21
119.437978620287
 31
0.0
  0
LINE
  5
37E
330
1F
100
AcDbEntity
  8
0
 62
    58
100
AcDbLine
 10
2307.338809468342
 20
119.4379786202872
 30
0.0
 11
2307.338809468341
 21
169.437978620287
 31
0.0
  0
LINE
  5
37F
330
1F
100
AcDbEntity
  8
0
 62
    58
100
AcDbLine
 10
2307.338809468341
 20
169.437978620287
 30
0.0
 11
2299.338809468341
 21
169.4379786202869
 31
0.0
  0
LINE
  5
380
330
1F
100
AcDbEntity
  8
0
 62
    58
100
AcDbLine
 10
2299.338809468341
 20
169.4379786202871
 30
0.0
 11
2299.338809468341
 21
239.4379786202871
 31
0.0
  0
LINE
  5
381
330
1F
100
AcDbEntity
  8
0
 62
    58
100
AcDbLine
 10
2299.338809468341
 20
239.4379786202872
 30
0.0
 11
2287.338809468341
 21
239.4379786202871
 31
0.0
  0
LINE
  5
382
330
1F
100
AcDbEntity
  8
0
 62
    58
100
AcDbLine
 10
2287.338809468341
 20
239.4379786202871
 30
0.0
 11
2287.338809468341
 21
237.2379786202871
 31
0.0
  0
ARC
  5
383
330
1F
100
AcDbEntity
  8
0
 62
    58
100
AcDbCircle
 10
2285.738809468341
 20
237.2379786202871
 30
0.0
 40
1.599999999999999
100
AcDbArc
 50
179.9999999999989
 51
359.9999999999956
  0
LINE
  5
384
330
1F
100
AcDbEntity
  8
0
 62
    58
100
AcDbLine
 10
2284.138809468341
 20
237.2379786202872
 30
0.0
 11
2279.938809468341
 21
237.2379786202872
 31
0.0
  0
ARC
  5
385
330
1F
100
AcDbEntity
  8
0
 62
    58
100
AcDbCircle
 10
2279.938809468341
 20
238.837978620287
 30
0.0
 40
1.6
100
AcDbArc
 50
179.9999999999612
 51
270.0000000000013
  0
LINE
  5
386
330
1F
100
AcDbEntity
  8
0
 62
    58
100
AcDbLine
 10
2278.338809468341
 20
238.837978620287
 30
0.0
 11
2278.338809468341
 21
250.0379786202871
 31
0.0
  0
ARC
  5
387
330
1F
100
AcDbEntity
  8
0
 62
    58
100
AcDbCircle
 10
2279.938809468341
 20
250.037978620287
 30
0.0
 40
1.6
100
AcDbArc
 50
89.99999999996936
 51
179.9999999999973
  0
LINE
  5
388
330
1F
100
AcDbEntity
  8
0
 62
    58
100
AcDbLine
 10
2279.938809468341
 20
251.6379786202871
 30
0.0
 11
2284.138809468341
 21
251.6379786202871
 31
0.0
  0
ARC
  5
389
330
1F
100
AcDbEntity
  8
0
 62
    58
100
AcDbCircle
 10
2285.738809468341
 20
251.637978620287
 30
0.0
 40
1.599999999999997
100
AcDbArc
 50
0.0000000000000509
 51
180.0
  0
LINE
  5
38A
330
1F
100
AcDbEntity
  8
0
 62
    58
100
AcDbLine
 10
2287.338809468341
 20
251.637978620287
 30
0.0
 11
2287.338809468341
 21
248.4379786202869
 31
0.0
  0
LINE
  5
38B
330
1F
100
AcDbEntity
  8
0
 62
    58
100
AcDbLine
 10
2287.338809468341
 20
248.437978620287
 30
0.0
 11
2299.338809468341
 21
248.4379786202871
 31
0.0
  0
LINE
  5
38C
330
1F
100
AcDbEntity
  8
0
 62
    58
100
AcDbLine
 10
2299.338809468341
 20
248.4379786202871
 30
0.0
 11
2299.338809468341
 21
319.4379786202871
 31
0.0
  0
LINE
  5
38D
330
1F
100
AcDbEntity
  8
0
 62
    58
100
AcDbLine
 10
2299.338809468342
 20
319.4379786202871
 30
0.0
 11
2307.338809468342
 21
319.4379786202871
 31
0.0
  0
LINE
  5
38E
330
1F
100
AcDbEntity
  8
0
 62
    58
100
AcDbLine
 10
2307.338809468342
 20
319.4379786202871
 30
0.0
 11
2307.338809468341
 21
369.4379786202871
 31
0.0
  0
LINE
  5
38F
330
1F
100
AcDbEntity
  8
0
 62
    58
100
AcDbLine
 10
2307.338809468341
 20
369.4379786202871
 30
0.0
 11
2273.851926945688
 21
369.437978620287
 31
0.0
  0
ARC
  5
390
330
1F
100
AcDbEntity
  8
0
 62
    58
100
AcDbCircle
 10
2273.85192694569
 20
309.437978620287
 30
0.0
 40
59.99999999999999
100
AcDbArc
 50
90.0000000000001
 51
116.0172254290614
  0
LINE
  5
391
330
1F
100
AcDbEntity
  8
0
 62
    58
100
AcDbLine
 10
2247.533446496339
 20
363.3577114352519
 30
0.0
 11
1996.411254084251
 21
240.7837637104767
 31
0.0
  0
ARC
  5
392
330
1F
100
AcDbEntity
  8
0
 62
    58
100
AcDbCircle
 10
1983.252013859577
 20
267.7436301179592
 30
0.0
 40
30.0
100
AcDbArc
 50
270.0000000000002
 51
296.0172254290611
  0
LINE
  5
393
330
1F
100
AcDbEntity
  8
0
 62
    58
100
AcDbLine
 10
1983.252013859577
 20
237.7436301179593
 30
0.0
 11
1629.246392351523
 21
237.7436301179577
 31
0.0
  0
ARC
  5
394
330
1F
100
AcDbEntity
  8
0
 62
    58
100
AcDbCircle
 10
1629.246392351523
 20
267.7436301179576
 30
0.0
 40
30.0
100
AcDbArc
 50
193.9498563765612
 51
270.0000000000002
  0
LINE
  5
395
330
1F
100
AcDbEntity
  8
0
 62
    58
100
AcDbLine
 10
1600.13118001846
 20
260.5114512761007
 30
0.0
 11
1550.529178678644
 21
460.1985487238831
 31
0.0
  0
CIRCLE
  5
396
330
1F
100
AcDbEntity
  8
0
 62
    58
100
AcDbCircle
 10
2005.177618936681
 20
203.4859536723181
 30
0.0
 40
4.249999999999975
  0
LINE
  5
397
330
1F
100
AcDbEntity
  8
0
 62
    58
100
AcDbLine
 10
1945.177618936681
 20
212.485953672318
 30
0.0
 11
1975.177618936681
 21
212.485953672318
 31
0.0
  0
LINE
  5
398
330
1F
100
AcDbEntity
  8
0
 62
    58
100
AcDbLine
 10
1975.177618936681
 20
212.4859536723179
 30
0.0
 11
1975.177618936681
 21
194.4859536723179
 31
0.0
  0
LINE
  5
399
330
1F
100
AcDbEntity
  8
0
 62
    58
100
AcDbLine
 10
1975.177618936681
 20
194.485953672318
 30
0.0
 11
1945.177618936681
 21
194.485953672318
 31
0.0
  0
LINE
  5
39A
330
1F
100
AcDbEntity
  8
0
 62
    58
100
AcDbLine
 10
1945.177618936681
 20
194.485953672318
 30
0.0
 11
1945.177618936681
 21
212.485953672318
 31
0.0
  0
CIRCLE
  5
39B
330
1F
100
AcDbEntity
  8
0
 62
    58
100
AcDbCircle
 10
1537.95880946834
 20
172.9663698820266
 30
0.0
 40
4.24999999999994
  0
LINE
  5
39C
330
1F
100
AcDbEntity
  8
0
 62
    58
100
AcDbLine
 10
1528.958809468342
 20
112.9663698820266
 30
0.0
 11
1546.958809468342
 21
112.9663698820265
 31
0.0
  0
LINE
  5
39D
330
1F
100
AcDbEntity
  8
0
 62
    58
100
AcDbLine
 10
1528.958809468342
 20
142.9663698820266
 30
0.0
 11
1528.958809468342
 21
112.9663698820266
 31
0.0
  0
LINE
  5
39E
330
1F
100
AcDbEntity
  8
0
 62
    58
100
AcDbLine
 10
1546.958809468342
 20
142.9663698820266
 30
0.0
 11
1528.958809468342
 21
142.9663698820266
 31
0.0
  0
LINE
  5
39F
330
1F
100
AcDbEntity
  8
0
 62
    58
100
AcDbLine
 10
1546.958809468342
 20
112.9663698820266
 30
0.0
 11
1546.958809468342
 21
142.9663698820266
 31
0.0
  0
LINE
  5
3A0
330
1F
100
AcDbEntity
  8
0
 62
    58
100
AcDbLine
 10
2065.177618936681
 20
212.4859536723181
 30
0.0
 11
2065.177618936681
 21
194.4859536723181
 31
0.0
  0
LINE
  5
3A1
330
1F
100
AcDbEntity
  8
0
 62
    58
100
AcDbLine
 10
2065.177618936681
 20
194.4859536723181
 30
0.0
 11
2035.177618936681
 21
194.4859536723181
 31
0.0
  0
LINE
  5
3A2
330
1F
100
AcDbEntity
  8
0
 62
    58
100
AcDbLine
 10
2035.177618936681
 20
194.4859536723181
 30
0.0
 11
2035.177618936681
 21
212.4859536723181
 31
0.0
  0
LINE
  5
3A3
330
1F
100
AcDbEntity
  8
0
 62
    58
100
AcDbLine
 10
2035.177618936681
 20
212.4859536723181
 30
0.0
 11
2065.177618936681
 21
212.4859536723181
 31
0.0
  0
LINE
  5
3A4
330
1F
100
AcDbEntity
  8
0
 62
    58
100
AcDbLine
 10
1546.958809468342
 20
232.9663698820266
 30
0.0
 11
1528.958809468342
 21
232.9663698820267
 31
0.0
  0
LINE
  5
3A5
330
1F
100
AcDbEntity
  8
0
 62
    58
100
AcDbLine
 10
1546.958809468342
 20
202.9663698820267
 30
0.0
 11
1546.958809468342
 21
232.9663698820267
 31
0.0
  0
LINE
  5
3A6
330
1F
100
AcDbEntity
  8
0
 62
    58
100
AcDbLine
 10
1528.958809468342
 20
202.9663698820266
 30
0.0
 11
1546.958809468342
 21
202.9663698820266
 31
0.0
  0
LINE
  5
3A7
330
1F
100
AcDbEntity
  8
0
 62
    58
100
AcDbLine
 10
1528.958809468342
 20
232.9663698820267
 30
0.0
 11
1528.958809468342
 21
202.9663698820266
 31
0.0
  0
CIRCLE
  5
3A8
330
1F
100
AcDbEntity
  8
0
 62
    58
100
AcDbCircle
 10
2074.177618936681
 20
203.4859536723173
 30
0.0
 40
4.249999999999976
  0
LINE
  5
3A9
330
1F
100
AcDbEntity
  8
0
 62
    58
100
AcDbLine
 10
2083.177618936681
 20
255.9859536723172
 30
0.0
 11
2083.177618936681
 21
225.9859536723172
 31
0.0
  0
LINE
  5
3AA
330
1F
100
AcDbEntity
  8
0
 62
    58
100
AcDbLine
 10
2083.177618936681
 20
225.9859536723172
 30
0.0
 11
2065.177618936681
 21
225.9859536723172
 31
0.0
  0
LINE
  5
3AB
330
1F
100
AcDbEntity
  8
0
 62
    58
100
AcDbLine
 10
2065.177618936681
 20
225.9859536723171
 30
0.0
 11
2065.177618936681
 21
255.9859536723171
 31
0.0
  0
LINE
  5
3AC
330
1F
100
AcDbEntity
  8
0
 62
    58
100
AcDbLine
 10
2065.177618936681
 20
255.9859536723171
 30
0.0
 11
2083.177618936681
 21
255.9859536723172
 31
0.0
  0
CIRCLE
  5
3AD
330
1F
100
AcDbEntity
  8
0
 62
    58
100
AcDbCircle
 10
2211.148809468341
 20
218.3117921052107
 30
0.0
 40
40.0
  0
LINE
  5
3AE
330
1F
100
AcDbEntity
  8
0
 62
    58
100
AcDbLine
 10
2083.177618936681
 20
145.9859536723172
 30
0.0
 11
2065.177618936682
 21
145.9859536723172
 31
0.0
  0
LINE
  5
3AF
330
1F
100
AcDbEntity
  8
0
 62
    58
100
AcDbLine
 10
2065.177618936682
 20
145.9859536723171
 30
0.0
 11
2065.177618936681
 21
154.4859536723179
 31
0.0
  0
LINE
  5
3B0
330
1F
100
AcDbEntity
  8
0
 62
    58
100
AcDbLine
 10
2065.177618936681
 20
172.4859536723179
 30
0.0
 11
2065.177618936681
 21
154.4859536723179
 31
0.0
  0
LINE
  5
3B1
330
1F
100
AcDbEntity
  8
0
 62
    58
100
AcDbLine
 10
2065.177618936681
 20
172.4859536723179
 30
0.0
 11
2065.177618936681
 21
180.9859536723171
 31
0.0
  0
LINE
  5
3B2
330
1F
100
AcDbEntity
  8
0
 62
    58
100
AcDbLine
 10
2065.177618936681
 20
180.9859536723171
 30
0.0
 11
2083.177618936681
 21
180.9859536723172
 31
0.0
  0
LINE
  5
3B3
330
1F
100
AcDbEntity
  8
0
 62
    58
100
AcDbLine
 10
2083.177618936681
 20
180.9859536723171
 30
0.0
 11
2083.177618936681
 21
145.9859536723172
 31
0.0
  0
ARC
  5
3B4
330
1F
100
AcDbEntity
  8
0
 62
    58
100
AcDbCircle
 10
2343.670000000002
 20
1165.456555257929
 30
0.0
 40
1.59999999999999
100
AcDbArc
 50
89.9999999999999
 51
270.0000000000169
  0
ARC
  5
3B5
330
1F
100
AcDbEntity
  8
0
 62
    58
100
AcDbCircle
 10
2356.470000000002
 20
1159.65655525793
 30
0.0
 40
1.6
100
AcDbArc
 50
269.9999999999998
 51
0.0000000000258007
  0
ARC
  5
3B6
330
1F
100
AcDbEntity
  8
0
 62
    58
100
AcDbCircle
 10
2345.270000000002
 20
1159.65655525793
 30
0.0
 40
1.6
100
AcDbArc
 50
179.9999999999959
 51
270.0000000001335
  0
ARC
  5
3B7
330
1F
100
AcDbEntity
  8
0
 62
    58
100
AcDbCircle
 10
2358.070000000002
 20
1165.456555257929
 30
0.0
 40
1.59999999999999
100
AcDbArc
 50
269.9999999999999
 51
90.0000000000402
  0
ARC
  5
3B8
330
1F
100
AcDbEntity
  8
0
 62
    58
100
AcDbCircle
 10
2343.670000000001
 20
728.6565552579291
 30
0.0
 40
1.59999999999999
100
AcDbArc
 50
89.99999999998188
 51
269.9999999999999
  0
ARC
  5
3B9
330
1F
100
AcDbEntity
  8
0
 62
    58
100
AcDbCircle
 10
2356.470000000001
 20
734.4565552579287
 30
0.0
 40
1.6
100
AcDbArc
 50
359.9999999999515
 51
89.99999999999984
  0
ARC
  5
3BA
330
1F
100
AcDbEntity
  8
0
 62
    58
100
AcDbCircle
 10
2345.27
 20
734.4565552579288
 30
0.0
 40
1.6
100
AcDbArc
 50
89.99999999984611
 51
180.0000000000038
  0
ARC
  5
3BB
330
1F
100
AcDbEntity
  8
0
 62
    58
100
AcDbCircle
 10
2358.070000000001
 20
728.6565552579289
 30
0.0
 40
1.59999999999999
100
AcDbArc
 50
269.9999999999607
 51
89.99999999999987
  0
LINE
  5
3BC
330
1F
100
AcDbEntity
  8
0
 62
    58
100
AcDbLine
 10
2358.070000000001
 20
727.0565552579287
 30
0.0
 11
2354.87
 21
727.0565552579287
 31
0.0
  0
LINE
  5
3BD
330
1F
100
AcDbEntity
  8
0
 62
    58
100
AcDbLine
 10
2358.070000000001
 20
734.4565552579286
 30
0.0
 11
2358.070000000001
 21
730.2565552579288
 31
0.0
  0
LINE
  5
3BE
330
1F
100
AcDbEntity
  8
0
 62
    58
100
AcDbLine
 10
2346.87
 20
727.0565552579288
 30
0.0
 11
2343.670000000001
 21
727.0565552579288
 31
0.0
  0
LINE
  5
3BF
330
1F
100
AcDbEntity
  8
0
 62
    58
100
AcDbLine
 10
2343.670000000001
 20
730.2565552579289
 30
0.0
 11
2343.670000000001
 21
734.4565552579288
 31
0.0
  0
LINE
  5
3C0
330
1F
100
AcDbEntity
  8
0
 62
    58
100
AcDbLine
 10
2345.27
 20
736.056555257929
 30
0.0
 11
2356.470000000001
 21
736.0565552579288
 31
0.0
  0
LINE
  5
3C1
330
1F
100
AcDbEntity
  8
0
 62
    58
100
AcDbLine
 10
2354.87
 20
727.0565552579288
 30
0.0
 11
2354.87
 21
715.0565552579287
 31
0.0
  0
LINE
  5
3C2
330
1F
100
AcDbEntity
  8
0
 62
    58
100
AcDbLine
 10
2354.87
 20
715.0565552579287
 30
0.0
 11
2380.870000000001
 21
715.0565552579286
 31
0.0
  0
LINE
  5
3C3
330
1F
100
AcDbEntity
  8
0
 62
    58
100
AcDbLine
 10
2380.870000000001
 20
715.0565552579287
 30
0.0
 11
2380.870000000002
 21
697.0565552579287
 31
0.0
  0
LINE
  5
3C4
330
1F
100
AcDbEntity
  8
0
 62
    58
100
AcDbLine
 10
2380.870000000002
 20
697.0565552579287
 30
0.0
 11
2410.870000000001
 21
697.0565552579286
 31
0.0
  0
LINE
  5
3C5
330
1F
100
AcDbEntity
  8
0
 62
    58
100
AcDbLine
 10
2290.870000000001
 20
697.056555257929
 30
0.0
 11
2320.870000000001
 21
697.0565552579288
 31
0.0
  0
LINE
  5
3C6
330
1F
100
AcDbEntity
  8
0
 62
    58
100
AcDbLine
 10
2320.870000000001
 20
697.0565552579288
 30
0.0
 11
2320.870000000001
 21
715.0565552579288
 31
0.0
  0
LINE
  5
3C7
330
1F
100
AcDbEntity
  8
0
 62
    58
100
AcDbLine
 10
2320.870000000001
 20
715.0565552579288
 30
0.0
 11
2346.87
 21
715.0565552579287
 31
0.0
  0
LINE
  5
3C8
330
1F
100
AcDbEntity
  8
0
 62
    58
100
AcDbLine
 10
2346.87
 20
715.0565552579288
 30
0.0
 11
2346.87
 21
727.056555257929
 31
0.0
  0
LINE
  5
3C9
330
1F
100
AcDbEntity
  8
0
 62
    58
100
AcDbLine
 10
2290.870000000001
 20
697.056555257929
 30
0.0
 11
2290.870000000002
 21
1197.05655525793
 31
0.0
  0
LINE
  5
3CA
330
1F
100
AcDbEntity
  8
0
 62
    58
100
AcDbLine
 10
2410.870000000002
 20
1197.056555257929
 30
0.0
 11
2410.870000000001
 21
697.0565552579287
 31
0.0
  0
LINE
  5
3CB
330
1F
100
AcDbEntity
  8
0
 62
    58
100
AcDbLine
 10
2290.870000000002
 20
1197.05655525793
 30
0.0
 11
2320.870000000003
 21
1197.05655525793
 31
0.0
  0
LINE
  5
3CC
330
1F
100
AcDbEntity
  8
0
 62
    58
100
AcDbLine
 10
2380.870000000003
 20
1197.056555257929
 30
0.0
 11
2410.870000000002
 21
1197.056555257929
 31
0.0
  0
LINE
  5
3CD
330
1F
100
AcDbEntity
  8
0
 62
    58
100
AcDbLine
 10
2380.870000000002
 20
1179.056555257929
 30
0.0
 11
2380.870000000002
 21
1197.056555257929
 31
0.0
  0
LINE
  5
3CE
330
1F
100
AcDbEntity
  8
0
 62
    58
100
AcDbLine
 10
2354.870000000002
 20
1179.056555257929
 30
0.0
 11
2380.870000000002
 21
1179.056555257929
 31
0.0
  0
LINE
  5
3CF
330
1F
100
AcDbEntity
  8
0
 62
    58
100
AcDbLine
 10
2354.870000000002
 20
1167.056555257929
 30
0.0
 11
2354.870000000002
 21
1179.056555257929
 31
0.0
  0
LINE
  5
3D0
330
1F
100
AcDbEntity
  8
0
 62
    58
100
AcDbLine
 10
2358.070000000002
 20
1167.056555257929
 30
0.0
 11
2354.870000000002
 21
1167.056555257929
 31
0.0
  0
LINE
  5
3D1
330
1F
100
AcDbEntity
  8
0
 62
    58
100
AcDbLine
 10
2358.070000000002
 20
1159.65655525793
 30
0.0
 11
2358.070000000002
 21
1163.856555257929
 31
0.0
  0
LINE
  5
3D2
330
1F
100
AcDbEntity
  8
0
 62
    58
100
AcDbLine
 10
2345.270000000002
 20
1158.056555257929
 30
0.0
 11
2356.470000000002
 21
1158.056555257929
 31
0.0
  0
LINE
  5
3D3
330
1F
100
AcDbEntity
  8
0
 62
    58
100
AcDbLine
 10
2343.670000000002
 20
1163.856555257929
 30
0.0
 11
2343.670000000002
 21
1159.65655525793
 31
0.0
  0
LINE
  5
3D4
330
1F
100
AcDbEntity
  8
0
 62
    58
100
AcDbLine
 10
2346.870000000002
 20
1167.056555257929
 30
0.0
 11
2343.670000000002
 21
1167.056555257929
 31
0.0
  0
LINE
  5
3D5
330
1F
100
AcDbEntity
  8
0
 62
    58
100
AcDbLine
 10
2346.870000000002
 20
1179.056555257929
 30
0.0
 11
2346.870000000002
 21
1167.056555257929
 31
0.0
  0
LINE
  5
3D6
330
1F
100
AcDbEntity
  8
0
 62
    58
100
AcDbLine
 10
2320.870000000002
 20
1179.05655525793
 30
0.0
 11
2346.870000000002
 21
1179.05655525793
 31
0.0
  0
LINE
  5
3D7
330
1F
100
AcDbEntity
  8
0
 62
    58
100
AcDbLine
 10
2320.870000000003
 20
1197.05655525793
 30
0.0
 11
2320.870000000003
 21
1179.05655525793
 31
0.0
  0
ENDSEC
  0
SECTION
  2
OBJECTS
  0
DICTIONARY
  5
C
330
0
100
AcDbDictionary
  3
ACAD_GROUP
350
D
  3
ACAD_LAYOUT
350
1A
  3
ACAD_MATERIAL
350
43
  3
ACAD_MLEADERSTYLE
350
5B
  3
ACAD_MLINESTYLE
350
17
  3
ACAD_PLOTSETTINGS
350
19
  3
ACAD_SCALELIST
350
47
  3
ACAD_VISUALSTYLE
350
2A
  3
ACDBHEADERROUNDTRIPXREC
350
3DA
  3
ACDBVARIABLEDICTIONARY
350
3FB
  3
DWGPROPS
350
406
  0
DICTIONARY
  5
407
330
8
100
AcDbDictionary
280
     1
  3
ACAD_XREC_ROUNDTRIP
360
408
  0
DICTIONARY
  5
D
102
{ACAD_REACTORS
330
C
102
}
330
C
100
AcDbDictionary
  0
DICTIONARY
  5
1A
102
{ACAD_REACTORS
330
C
102
}
330
C
100
AcDbDictionary
  0
DICTIONARY
  5
43
102
{ACAD_REACTORS
330
C
102
}
330
C
100
AcDbDictionary
  3
BYBLOCK
350
45
  3
BYLAYER
350
44
  3
GLOBAL
350
46
  0
DICTIONARY
  5
5B
102
{ACAD_REACTORS
330
C
102
}
330
C
100
AcDbDictionary
  3
STANDARD
350
5C
  0
DICTIONARY
  5
17
102
{ACAD_REACTORS
330
C
102
}
330
C
100
AcDbDictionary
  3
STANDARD
350
18
  0
DICTIONARY
  5
19
102
{ACAD_REACTORS
330
C
102
}
330
C
100
AcDbDictionary
  0
DICTIONARY
  5
47
102
{ACAD_REACTORS
330
C
102
}
330
C
100
AcDbDictionary
  3
A0
350
48
  3
A1
350
49
  3
A2
350
4A
  3
A3
350
4B
  3
A4
350
4C
  3
A5
350
4D
  3
A6
350
4E
  3
A7
350
4F
  3
A8
350
50
  3
A9
350
51
  3
B0
350
52
  3
B1
350
53
  3
B2
350
54
  3
B3
350
55
  3
B4
350
56
  3
B5
350
57
  3
B6
350
58
  0
DICTIONARY
  5
2A
102
{ACAD_REACTORS
330
C
102
}
330
C
100
AcDbDictionary
  3
2DWIREFRAME
350
2F
  3
BASIC
350
32
  3
BRIGHTEN
350
36
  3
COLORCHANGE
350
3A
  3
CONCEPTUAL
350
34
  3
DIM
350
35
  3
EDGECOLOROFF
350
3D
  3
FACEPATTERN
350
39
  3
FLAT
350
2B
  3
FLATWITHEDGES
350
2C
  3
GOURAUD
350
2D
  3
GOURAUDWITHEDGES
350
2E
  3
HIDDEN
350
31
  3
JITTEROFF
350
3B
  3
LINEPATTERN
350
38
  3
OVERHANGOFF
350
3C
  3
REALISTIC
350
33
  3
SHADED
350
42
  3
SHADED_WITH_EDGES
350
41
  3
SHADES_OF_GRAY
350
3E
  3
SKETCHY
350
3F
  3
THICKEN
350
37
  3
WIREFRAME
350
30
  3
X-RAY
350
40
  0
DICTIONARY
  5
3DA
102
{ACAD_REACTORS
330
C
102
}
330
C
100
AcDbDictionary
  3
CEPSNID
350
3E4
  3
CEPSNTYPE
350
3E3
  3
DIMSTYLEDATA
350
3FA
  3
FINGERPRINTGUID
350
3E5
  3
HYPERLINKBASE
350
3DD
  3
INSUNITS
350
3E2
  3
LAYOUTDICT
350
3DF
  3
LWETCUNION
350
3E1
  3
PLOTSETDICT
350
3E0
  3
PSVPSCALE
350
3E7
  3
PUCSBASE
350
3EA
  3
PUCSORGBACK
350
3F0
  3
PUCSORGBOTTOM
350
3EC
  3
PUCSORGFRONT
350
3EF
  3
PUCSORGLEFT
350
3ED
  3
PUCSORGRIGHT
350
3EE
  3
PUCSORGTOP
350
3EB
  3
PUCSORTHOREF
350
3E8
  3
PUCSORTHOVIEW
350
3E9
  3
STYLESHEET
350
3DE
  3
TSTACKALIGN
350
3DB
  3
TSTACKSIZE
350
3DC
  3
UCSBASE
350
3F3
  3
UCSORGBACK
350
3F9
  3
UCSORGBOTTOM
350
3F5
  3
UCSORGFRONT
350
3F8
  3
UCSORGLEFT
350
3F6
  3
UCSORGRIGHT
350
3F7
  3
UCSORGTOP
350
3F4
  3
UCSORTHOREF
350
3F1
  3
UCSORTHOVIEW
350
3F2
  3
VERSIONGUID
350
3E6
  0
DICTIONARY
  5
3FB
102
{ACAD_REACTORS
330
C
102
}
330
C
100
AcDbDictionary
  3
CANNOSCALE
350
409
  3
CENTEREXE
350
402
  3
CENTERLTYPEFILE
350
403
  3
CMLEADERSTYLE
350
3FD
  3
CTABLESTYLE
350
3FC
  3
DIMASSOC
350
404
  3
HIDETEXT
350
405
  3
MSLTSCALE
350
40A
  3
PSOLHEIGHT
350
3FF
  3
PSOLWIDTH
350
3FE
  0
XRECORD
  5
406
102
{ACAD_REACTORS
330
C
102
}
330
C
100
AcDbXrecord
  1
DWGPROPS COOKIE
  2

  3

  4

  6
File was created by SpaceClaim
  7

  8
rlwoo
  9

300
=
301
=
302
=
303
=
304
=
305
=
306
=
307
=
308
=
309
=
 40
0.0
 41
2460262.63214147
 42
2460262.632141817
  1

 90
        0
  0
XRECORD
  5
408
102
{ACAD_REACTORS
330
407
102
}
330
407
100
AcDbXrecord
102
VTR_0.000_0.000_1.000_1.000_VISUALSTYLE
340
2F
102
VTR_0.000_0.000_1.000_1.000_GRIDDISPLAY
 70
     3
102
VTR_0.000_0.000_1.000_1.000_GRIDMAJOR
 70
     5
102
VTR_0.000_0.000_1.000_1.000_DEFAULTLIGHTING
280
     1
102
VTR_0.000_0.000_1.000_1.000_DEFAULTLIGHTINGTYPE
 70
     1
102
VTR_0.000_0.000_1.000_1.000_BRIGHTNESS
141
0.0
102
VTR_0.000_0.000_1.000_1.000_CONTRAST
142
0.0
  0
MATERIAL
  5
45
102
{ACAD_REACTORS
330
43
102
}
102
{ACAD_XDICTIONARY
360
40D
102
}
330
43
100
AcDbMaterial
  1
BYBLOCK
  0
MATERIAL
  5
44
102
{ACAD_REACTORS
330
43
102
}
102
{ACAD_XDICTIONARY
360
40B
102
}
330
43
100
AcDbMaterial
  1
BYLAYER
  0
MATERIAL
  5
46
102
{ACAD_REACTORS
330
43
102
}
102
{ACAD_XDICTIONARY
360
40F
102
}
330
43
100
AcDbMaterial
  1
GLOBAL
  0
ACAD_PROXY_OBJECT
  5
5C
102
{ACAD_REACTORS
330
5B
102
}
330
5B
100
AcDbProxyObject
 90
      499
 91
      505
 93
      610
310
40901902A4063FBFFFFFE0000000000000020400000000000020404214DD185B99185C990000000000000104090141901A00000000000004100000000000000041025764000000000000039000
340
14
340
0
340
11
340
0
 94
        0
1001
ACAD_MLEADERVER
1070
     2
  0
MLINESTYLE
  5
18
102
{ACAD_REACTORS
330
17
102
}
330
17
100
AcDbMlineStyle
  2
Standard
 70
     0
  3

 62
   256
 51
90.0
 52
90.0
 71
     2
 49
0.5
 62
   256
  6
BYLAYER
 49
-0.5
 62
   256
  6
BYLAYER
  0
ACAD_PROXY_OBJECT
  5
48
102
{ACAD_REACTORS
330
47
102
}
330
47
100
AcDbProxyObject
 90
      499
 91
      503
 93
       41
310
903313A31580
  0
ACAD_PROXY_OBJECT
  5
49
102
{ACAD_REACTORS
330
47
102
}
330
47
100
AcDbProxyObject
 90
      499
 91
      503
 93
      105
310
903313A324000000000000004000
  0
ACAD_PROXY_OBJECT
  5
4A
102
{ACAD_REACTORS
330
47
102
}
330
47
100
AcDbProxyObject
 90
      499
 91
      503
 93
      105
310
903313A344000000000000104000
  0
ACAD_PROXY_OBJECT
  5
4B
102
{ACAD_REACTORS
330
47
102
}
330
47
100
AcDbProxyObject
 90
      499
 91
      503
 93
      105
310
903313A354000000000000144000
  0
ACAD_PROXY_OBJECT
  5
4C
102
{ACAD_REACTORS
330
47
102
}
330
47
100
AcDbProxyObject
 90
      499
 91
      503
 93
      105
310
903313A384000000000000204000
  0
ACAD_PROXY_OBJECT
  5
4D
102
{ACAD_REACTORS
330
47
102
}
330
47
100
AcDbProxyObject
 90
      499
 91
      503
 93
      113
310
904313A31304000000000000244000
  0
ACAD_PROXY_OBJECT
  5
4E
102
{ACAD_REACTORS
330
47
102
}
330
47
100
AcDbProxyObject
 90
      499
 91
      503
 93
      113
310
904313A31364000000000000304000
  0
ACAD_PROXY_OBJECT
  5
4F
102
{ACAD_REACTORS
330
47
102
}
330
47
100
AcDbProxyObject
 90
      499
 91
      503
 93
      113
310
904313A32304000000000000344000
  0
ACAD_PROXY_OBJECT
  5
50
102
{ACAD_REACTORS
330
47
102
}
330
47
100
AcDbProxyObject
 90
      499
 91
      503
 93
      113
310
904313A333040000000000003E4000
  0
ACAD_PROXY_OBJECT
  5
51
102
{ACAD_REACTORS
330
47
102
}
330
47
100
AcDbProxyObject
 90
      499
 91
      503
 93
      113
310
904313A34304000000000000444000
  0
ACAD_PROXY_OBJECT
  5
52
102
{ACAD_REACTORS
330
47
102
}
330
47
100
AcDbProxyObject
 90
      499
 91
      503
 93
      113
310
904313A35304000000000000494000
  0
ACAD_PROXY_OBJECT
  5
53
102
{ACAD_REACTORS
330
47
102
}
330
47
100
AcDbProxyObject
 90
      499
 91
      503
 93
      121
310
905313A3130304000000000000594000
  0
ACAD_PROXY_OBJECT
  5
54
102
{ACAD_REACTORS
330
47
102
}
330
47
100
AcDbProxyObject
 90
      499
 91
      503
 93
      105
310
903323A310000000000000010100
  0
ACAD_PROXY_OBJECT
  5
55
102
{ACAD_REACTORS
330
47
102
}
330
47
100
AcDbProxyObject
 90
      499
 91
      503
 93
      105
310
903343A310000000000000410100
  0
ACAD_PROXY_OBJECT
  5
56
102
{ACAD_REACTORS
330
47
102
}
330
47
100
AcDbProxyObject
 90
      499
 91
      503
 93
      105
310
903383A310000000000000810100
  0
ACAD_PROXY_OBJECT
  5
57
102
{ACAD_REACTORS
330
47
102
}
330
47
100
AcDbProxyObject
 90
      499
 91
      503
 93
      113
310
90431303A310000000000000910100
  0
ACAD_PROXY_OBJECT
  5
58
102
{ACAD_REACTORS
330
47
102
}
330
47
100
AcDbProxyObject
 90
      499
 91
      503
 93
      121
310
9053130303A310000000000001650100
  0
ACAD_PROXY_OBJECT
  5
2F
102
{ACAD_REACTORS
330
2A
102
}
330
2A
100
AcDbProxyObject
 90
      499
 91
      501
 93
      436
310
42CC9915DA5C99599C985B595049028333333333333E33F0000000000000F90107901411070040501600405405064090741402480A0340
1001
ACAD
1000
AcDbSavedByObjectVersion
1070
     0
  0
ACAD_PROXY_OBJECT
  5
32
102
{ACAD_REACTORS
330
2A
102
}
330
2A
100
AcDbProxyObject
 90
      499
 91
      501
 93
      388
310
4150985CDA58D07406404333333333333E33F0000000000000F90107A41107004050150841D405064090741402480A0350
1001
ACAD
1000
AcDbSavedByObjectVersion
1070
     0
  0
ACAD_PROXY_OBJECT
  5
36
102
{ACAD_REACTORS
330
2A
102
}
330
2A
100
AcDbProxyObject
 90
      499
 91
      501
 93
      428
310
42109C9A59DA1D195B90C409028333333333333E33F0000000000000F9010790141107004050150841D405064090741402480A029950
1001
ACAD
1000
AcDbSavedByObjectVersion
1070
     0
  0
ACAD_PROXY_OBJECT
  5
3A
102
{ACAD_REACTORS
330
2A
102
}
330
2A
100
AcDbProxyObject
 90
      499
 91
      501
 93
      452
310
42D0DBDB1BDC90DA185B99D95104090240C333333333333E33F0000000000000F90108901411070040501508421405064090741402480A0350
1001
ACAD
1000
AcDbSavedByObjectVersion
1070
     0
  0
ACAD_PROXY_OBJECT
  5
34
102
{ACAD_REACTORS
330
2A
102
}
330
2A
100
AcDbProxyObject
 90
      499
 91
      501
 93
      500
310
4290DBDB98D95C1D1D585B10940D028333333333333E33F0000000000000F90107902409070040501000000000018199010841D405064090740C02480A0340
1001
ACAD
1000
AcDbSavedByObjectVersion
1070
     0
  0
ACAD_PROXY_OBJECT
  5
35
102
{ACAD_REACTORS
330
2A
102
}
330
2A
100
AcDbProxyObject
 90
      499
 91
      501
 93
      412
310
40D11A5B50B409028333333333333E33F0000000000000F9010790141107004050150841D405064090741402480A02677FFFFFD0
1001
ACAD
1000
AcDbSavedByObjectVersion
1070
     0
  0
ACAD_PROXY_OBJECT
  5
3D
102
{ACAD_REACTORS
330
2A
102
}
330
2A
100
AcDbProxyObject
 90
      499
 91
      501
 93
      452
310
43115919D950DBDB1BDC93D999916409028333333333333E33F0000000000000F9010790141107004050150841D405064090741402480A0350
1001
ACAD
1000
AcDbSavedByObjectVersion
1070
     0
  0
ACAD_PROXY_OBJECT
  5
39
102
{ACAD_REACTORS
330
2A
102
}
330
2A
100
AcDbProxyObject
 90
      499
 91
      501
 93
      444
310
42D19858D95C185D1D195C9B90F409028333333333333E33F0000000000000F9010790141107004050150841D405064090741402480A0350
1001
ACAD
1000
AcDbSavedByObjectVersion
1070
     0
  0
ACAD_PROXY_OBJECT
  5
2B
102
{ACAD_REACTORS
330
2A
102
}
330
2A
100
AcDbProxyObject
 90
      499
 91
      501
 93
      380
310
41119B185D240901404333333333333E33F0000000000000F9010740A907004050150841D405064090741402480A1B50
1001
ACAD
1000
AcDbSavedByObjectVersion
1070
     0
  0
ACAD_PROXY_OBJECT
  5
2C
102
{ACAD_REACTORS
330
2A
102
}
330
2A
100
AcDbProxyObject
 90
      499
 91
      501
 93
      468
310
43519B185D15DA5D1A115919D95CD0140901404333333333333E33F0000000000000F90107409019070040501600405405064090741402480A1B50
1001
ACAD
1000
AcDbSavedByObjectVersion
1070
     0
  0
ACAD_PROXY_OBJECT
  5
2D
102
{ACAD_REACTORS
330
2A
102
}
330
2A
100
AcDbProxyObject
 90
      499
 91
      501
 93
      404
310
41D1DBDD5C985D5910240902404333333333333E33F0000000000000F9010740A9070040501641D405064090741402480A1B50
1001
ACAD
1000
AcDbSavedByObjectVersion
1070
     0
  0
ACAD_PROXY_OBJECT
  5
2E
102
{ACAD_REACTORS
330
2A
102
}
330
2A
100
AcDbProxyObject
 90
      499
 91
      501
 93
      492
310
4411DBDD5C985D5915DA5D1A115919D95CD0340902404333333333333E33F0000000000000F90107409019070040501600405405064090741402480A1B50
1001
ACAD
1000
AcDbSavedByObjectVersion
1070
     0
  0
ACAD_PROXY_OBJECT
  5
31
102
{ACAD_REACTORS
330
2A
102
}
330
2A
100
AcDbProxyObject
 90
      499
 91
      501
 93
      476
310
41921A5919195B90640502408333333333333E33F0000000000000F901079024090700405020000000000001110200405405064090740C02480A0340
1001
ACAD
1000
AcDbSavedByObjectVersion
1070
     0
  0
ACAD_PROXY_OBJECT
  5
3B
102
{ACAD_REACTORS
330
2A
102
}
330
2A
100
AcDbProxyObject
 90
      499
 91
      501
 93
      428
310
42529A5D1D195C93D999914409028333333333333E33F0000000000000F9010790141107004050150A41D405064090741402480A0350
1001
ACAD
1000
AcDbSavedByObjectVersion
1070
     0
  0
ACAD_PROXY_OBJECT
  5
38
102
{ACAD_REACTORS
330
2A
102
}
330
2A
100
AcDbProxyObject
 90
      499
 91
      501
 93
      444
310
42D31A5B995C185D1D195C9B90E409028333333333333E33F0000000000000F9010790141107004050750841D405064090741402483A0350
1001
ACAD
1000
AcDbSavedByObjectVersion
1070
     0
  0
ACAD_PROXY_OBJECT
  5
3C
102
{ACAD_REACTORS
330
2A
102
}
330
2A
100
AcDbProxyObject
 90
      499
 91
      501
 93
      444
310
42D3DD995C9A185B99D3D999915409028333333333333E33F0000000000000F9010790141107004050150941D405064090741402480A0350
1001
ACAD
1000
AcDbSavedByObjectVersion
1070
     0
  0
ACAD_PROXY_OBJECT
  5
33
102
{ACAD_REACTORS
330
2A
102
}
330
2A
100
AcDbProxyObject
 90
      499
 91
      501
 93
      428
310
425499585B1A5CDD1A58D08409038333333333333E33F0000000000000F9010740A907004050150800405405064090740C02480A1B40
1001
ACAD
1000
AcDbSavedByObjectVersion
1070
     0
  0
ACAD_PROXY_OBJECT
  5
42
102
{ACAD_REACTORS
330
2A
102
}
330
2A
100
AcDbProxyObject
 90
      499
 91
      501
 93
      420
310
4194DA1859195911B40902404333333333333E33F0000000000000F9010740A41107004050150800405405064090840C02480A0B40
1001
ACAD
1000
AcDbSavedByObjectVersion
1070
     0
  0
ACAD_PROXY_OBJECT
  5
41
102
{ACAD_REACTORS
330
2A
102
}
330
2A
100
AcDbProxyObject
 90
      499
 91
      501
 93
      516
310
4454DA18591959081DDA5D1A08195919D95CD1A40902404333333333333E33F0000000000000F901074090142907004050250800405405064090740C02480A0B40
1001
ACAD
1000
AcDbSavedByObjectVersion
1070
     0
  0
ACAD_PROXY_OBJECT
  5
3E
102
{ACAD_REACTORS
330
2A
102
}
330
2A
100
AcDbProxyObject
 90
      499
 91
      501
 93
      532
310
4394DA1859195CC81BD98811DC985E5174090240C333333333333E33F0000000000000F901079024090741D01000000000000111010841D405064090740C02480A0340
1001
ACAD
1000
AcDbSavedByObjectVersion
1070
     0
  0
ACAD_PROXY_OBJECT
  5
3F
102
{ACAD_REACTORS
330
2A
102
}
330
2A
100
AcDbProxyObject
 90
      499
 91
      501
 93
      476
310
41D4DAD95D18DA1E51840502408333333333333E33F0000000000000F901079024090741D01000000000000111010B41D405064090741802480A0340
1001
ACAD
1000
AcDbSavedByObjectVersion
1070
     0
  0
ACAD_PROXY_OBJECT
  5
37
102
{ACAD_REACTORS
330
2A
102
}
330
2A
100
AcDbProxyObject
 90
      499
 91
      501
 93
      412
310
41D51A1A58DAD95B90D409028333333333333E33F0000000000000F9010790141107004050150C41D405064090741402480A0350
1001
ACAD
1000
AcDbSavedByObjectVersion
1070
     0
  0
ACAD_PROXY_OBJECT
  5
30
102
{ACAD_REACTORS
330
2A
102
}
330
2A
100
AcDbProxyObject
 90
      499
 91
      501
 93
      420
310
4255DA5C99599C985B595059028333333333333E33F0000000000000F90107901411070040501600405405064090740C02480A0340
1001
ACAD
1000
AcDbSavedByObjectVersion
1070
     0
  0
ACAD_PROXY_OBJECT
  5
40
102
{ACAD_REACTORS
330
2A
102
}
330
2A
100
AcDbProxyObject
 90
      499
 91
      501
 93
      404
310
41560B54985E51940902404000000000000E03F0000000000000F9010740501907004050150841D405064090740C02480A1B40
1001
ACAD
1000
AcDbSavedByObjectVersion
1070
     0
  0
XRECORD
  5
3E4
102
{ACAD_REACTORS
330
3DA
102
}
330
3DA
100
AcDbXrecord
340
0
  0
XRECORD
  5
3E3
102
{ACAD_REACTORS
330
3DA
102
}
330
3DA
100
AcDbXrecord
 90
        0
  0
XRECORD
  5
3FA
102
{ACAD_REACTORS
330
3DA
102
}
330
3DA
100
AcDbXrecord
1000
DSTYLE
1002
{
1070
   179
 70
     1
1070
   143
 40
0.0393700787401575
1070
   286
 70
     8
1070
   278
 70
    46
1070
     3
  1
mm
1070
    73
 70
     1
1070
   340
340
11
1002
}
  0
XRECORD
  5
3E5
102
{ACAD_REACTORS
330
3DA
102
}
330
3DA
100
AcDbXrecord
  1
{38c8355c-aa47-4a73-8bf4-2c5ec226b220}
  0
XRECORD
  5
3DD
102
{ACAD_REACTORS
330
3DA
102
}
330
3DA
100
AcDbXrecord
  1

  0
XRECORD
  5
3E2
102
{ACAD_REACTORS
330
3DA
102
}
330
3DA
100
AcDbXrecord
 90
        4
  0
XRECORD
  5
3DF
102
{ACAD_REACTORS
330
3DA
102
}
330
3DA
100
AcDbXrecord
340
1A
  0
XRECORD
  5
3E1
102
{ACAD_REACTORS
330
3DA
102
}
330
3DA
100
AcDbXrecord
 90
    10781
  0
XRECORD
  5
3E0
102
{ACAD_REACTORS
330
3DA
102
}
330
3DA
100
AcDbXrecord
340
19
  0
XRECORD
  5
3E7
102
{ACAD_REACTORS
330
3DA
102
}
330
3DA
100
AcDbXrecord
 40
0.0
  0
XRECORD
  5
3EA
102
{ACAD_REACTORS
330
3DA
102
}
330
3DA
100
AcDbXrecord
340
0
  0
XRECORD
  5
3F0
102
{ACAD_REACTORS
330
3DA
102
}
330
3DA
100
AcDbXrecord
 10
0.0
 20
0.0
 30
0.0
  0
XRECORD
  5
3EC
102
{ACAD_REACTORS
330
3DA
102
}
330
3DA
100
AcDbXrecord
 10
0.0
 20
0.0
 30
0.0
  0
XRECORD
  5
3EF
102
{ACAD_REACTORS
330
3DA
102
}
330
3DA
100
AcDbXrecord
 10
0.0
 20
0.0
 30
0.0
  0
XRECORD
  5
3ED
102
{ACAD_REACTORS
330
3DA
102
}
330
3DA
100
AcDbXrecord
 10
0.0
 20
0.0
 30
0.0
  0
XRECORD
  5
3EE
102
{ACAD_REACTORS
330
3DA
102
}
330
3DA
100
AcDbXrecord
 10
0.0
 20
0.0
 30
0.0
  0
XRECORD
  5
3EB
102
{ACAD_REACTORS
330
3DA
102
}
330
3DA
100
AcDbXrecord
 10
0.0
 20
0.0
 30
0.0
  0
XRECORD
  5
3E8
102
{ACAD_REACTORS
330
3DA
102
}
330
3DA
100
AcDbXrecord
340
0
  0
XRECORD
  5
3E9
102
{ACAD_REACTORS
330
3DA
102
}
330
3DA
100
AcDbXrecord
 70
     0
  0
XRECORD
  5
3DE
102
{ACAD_REACTORS
330
3DA
102
}
330
3DA
100
AcDbXrecord
  1

  0
XRECORD
  5
3DB
102
{ACAD_REACTORS
330
3DA
102
}
330
3DA
100
AcDbXrecord
 90
        1
  0
XRECORD
  5
3DC
102
{ACAD_REACTORS
330
3DA
102
}
330
3DA
100
AcDbXrecord
 90
       70
  0
XRECORD
  5
3F3
102
{ACAD_REACTORS
330
3DA
102
}
330
3DA
100
AcDbXrecord
340
0
  0
XRECORD
  5
3F9
102
{ACAD_REACTORS
330
3DA
102
}
330
3DA
100
AcDbXrecord
 10
0.0
 20
0.0
 30
0.0
  0
XRECORD
  5
3F5
102
{ACAD_REACTORS
330
3DA
102
}
330
3DA
100
AcDbXrecord
 10
0.0
 20
0.0
 30
0.0
  0
XRECORD
  5
3F8
102
{ACAD_REACTORS
330
3DA
102
}
330
3DA
100
AcDbXrecord
 10
0.0
 20
0.0
 30
0.0
  0
XRECORD
  5
3F6
102
{ACAD_REACTORS
330
3DA
102
}
330
3DA
100
AcDbXrecord
 10
0.0
 20
0.0
 30
0.0
  0
XRECORD
  5
3F7
102
{ACAD_REACTORS
330
3DA
102
}
330
3DA
100
AcDbXrecord
 10
0.0
 20
0.0
 30
0.0
  0
XRECORD
  5
3F4
102
{ACAD_REACTORS
330
3DA
102
}
330
3DA
100
AcDbXrecord
 10
0.0
 20
0.0
 30
0.0
  0
XRECORD
  5
3F1
102
{ACAD_REACTORS
330
3DA
102
}
330
3DA
100
AcDbXrecord
340
0
  0
XRECORD
  5
3F2
102
{ACAD_REACTORS
330
3DA
102
}
330
3DA
100
AcDbXrecord
 70
     0
  0
XRECORD
  5
3E6
102
{ACAD_REACTORS
330
3DA
102
}
330
3DA
100
AcDbXrecord
  1
{FAEB1C32-E019-11D5-929B-00C0DF256EC4}
  0
DICTIONARYVAR
  5
409
102
{ACAD_REACTORS
330
3FB
102
}
330
3FB
100
DictionaryVariables
280
     0
  1
1:1
  0
DICTIONARYVAR
  5
402
102
{ACAD_REACTORS
330
3FB
102
}
330
3FB
100
DictionaryVariables
280
     0
  1
3.500000
  0
DICTIONARYVAR
  5
403
102
{ACAD_REACTORS
330
3FB
102
}
330
3FB
100
DictionaryVariables
280
     0
  1
acadiso.lin
  0
DICTIONARYVAR
  5
3FD
102
{ACAD_REACTORS
330
3FB
102
}
330
3FB
100
DictionaryVariables
280
     0
  1
Standard
  0
DICTIONARYVAR
  5
3FC
102
{ACAD_REACTORS
330
3FB
102
}
330
3FB
100
DictionaryVariables
280
     0
  1
Standard
  0
DICTIONARYVAR
  5
404
102
{ACAD_REACTORS
330
3FB
102
}
330
3FB
100
DictionaryVariables
280
     0
  1
2
  0
DICTIONARYVAR
  5
405
102
{ACAD_REACTORS
330
3FB
102
}
330
3FB
100
DictionaryVariables
280
     0
  1
1
  0
DICTIONARYVAR
  5
40A
102
{ACAD_REACTORS
330
3FB
102
}
330
3FB
100
DictionaryVariables
280
     0
  1
1
  0
DICTIONARYVAR
  5
3FF
102
{ACAD_REACTORS
330
3FB
102
}
330
3FB
100
DictionaryVariables
280
     0
  1
80.000000
  0
DICTIONARYVAR
  5
3FE
102
{ACAD_REACTORS
330
3FB
102
}
330
3FB
100
DictionaryVariables
280
     0
  1
5.000000
  0
DICTIONARY
  5
40D
330
45
100
AcDbDictionary
280
     1
  3
ACAD_XREC_ROUNDTRIP
360
40E
  0
DICTIONARY
  5
40B
330
44
100
AcDbDictionary
280
     1
  3
ACAD_XREC_ROUNDTRIP
360
40C
  0
DICTIONARY
  5
40F
330
46
100
AcDbDictionary
280
     1
  3
ACAD_XREC_ROUNDTRIP
360
410
  0
XRECORD
  5
40E
102
{ACAD_REACTORS
330
40D
102
}
330
40D
100
AcDbXrecord
102
MATERIAL
148
0.0
149
0.0
149
0.0
 93
        0
 94
      127
282
     0
 72
     1
 77
     1
171
     1
175
     1
179
     1
273
     0
  0
XRECORD
  5
40C
102
{ACAD_REACTORS
330
40B
102
}
330
40B
100
AcDbXrecord
102
MATERIAL
148
0.0
149
0.0
149
0.0
 93
        0
 94
      127
282
     0
 72
     1
 77
     1
171
     1
175
     1
179
     1
273
     0
  0
XRECORD
  5
410
102
{ACAD_REACTORS
330
40F
102
}
330
40F
100
AcDbXrecord
102
MATERIAL
148
0.0
149
0.0
149
0.0
 93
        0
 94
      127
282
     0
 72
     1
 77
     1
171
     1
175
     1
179
     1
273
     0
  0
ENDSEC
  0
EOF
